<svg width="530" height="530" viewBox="0 0 530 530" fill="none" xmlns="http://www.w3.org/2000/svg">
<rect width="530" height="530" fill="white"/>
<path fill-rule="evenodd" clip-rule="evenodd" d="M214.218 388.967C230.062 392.143 241.607 404.524 247.441 413.688C247.735 414.15 247.996 414.631 248.224 415.128C256.844 433.978 274.25 436.131 281.25 435.074C287.743 434.093 293.8 438.561 294.781 445.054C295.761 451.546 291.293 457.604 284.801 458.584C271.11 460.652 241.538 456.595 226.987 425.847C222.754 419.472 216.101 413.594 209.545 412.28C204.652 411.299 195.505 412.073 183.671 429.932C180.045 435.405 172.668 436.902 167.194 433.275C161.721 429.649 160.224 422.272 163.851 416.798C178.843 394.173 196.501 385.415 214.218 388.967Z" fill="#1C1B1F"/>
<path fill-rule="evenodd" clip-rule="evenodd" d="M373.616 196.516C363.854 187.929 360.956 174.9 360.597 166.603C360.573 166.057 360.587 165.509 360.639 164.965C361.882 151.878 353.072 145.302 349.164 143.769C343.051 141.372 340.039 134.474 342.436 128.361C344.833 122.248 351.731 119.236 357.844 121.633C368.045 125.633 386.428 139.929 384.391 166.264C384.75 171.303 386.633 176.299 389.32 178.663C390.696 179.873 395.174 183.072 408.399 176.486C414.276 173.559 421.413 175.951 424.34 181.829C427.267 187.706 424.875 194.844 418.997 197.77C400.654 206.905 384.813 206.365 373.616 196.516Z" fill="#1C1B1F"/>
<path fill-rule="evenodd" clip-rule="evenodd" d="M198.091 88.7388C211.954 88.7388 223.191 97.5561 223.191 108.433V131.351C232.077 133.952 240.424 137.814 248.024 142.731L263.669 127.087C272.113 118.643 285.803 118.643 294.247 127.087C302.691 135.531 302.691 149.221 294.247 157.665L278.08 173.832C283.017 182.071 286.743 191.12 289.011 200.731H313.161C325.317 200.731 335.172 210.24 335.172 221.97C335.172 233.7 325.317 243.209 313.161 243.209H289.328C286.897 254.249 282.549 264.571 276.649 273.806L295.041 292.198C303.485 300.642 303.485 314.332 295.041 322.776C286.597 331.22 272.907 331.22 264.463 322.776L245.725 304.037C238.751 308.271 231.189 311.635 223.191 313.976V340.899C223.191 353.056 211.954 362.91 198.091 362.91C184.228 362.91 172.991 353.056 172.991 340.899V314.887C163.934 312.593 155.396 309 147.585 304.319L129.126 322.777C120.682 331.221 106.992 331.221 98.5482 322.777C90.1043 314.333 90.1043 300.643 98.5482 292.199L116.486 274.261C110.438 264.911 105.986 254.431 103.515 243.209H80.6941C69.8174 243.209 61 233.7 61 221.97C61 210.24 69.8174 200.731 80.6941 200.731H103.831C106.142 190.937 109.967 181.727 115.046 173.363L99.3426 157.66C90.8988 149.216 90.8988 135.526 99.3426 127.082C107.786 118.638 121.477 118.638 129.921 127.082L145.276 142.437C153.702 137.054 163.034 132.962 172.991 130.44V108.433C172.991 97.5561 184.228 88.7388 198.091 88.7388Z" fill="white"/>
<path d="M198.091 88.7388V81.2388V88.7388ZM223.191 131.351H215.691V136.971L221.085 138.549L223.191 131.351ZM248.024 142.731L243.951 149.028L249.041 152.321L253.328 148.035L248.024 142.731ZM263.669 127.087L268.972 132.39V132.39L263.669 127.087ZM294.247 127.087L288.944 132.39V132.39L294.247 127.087ZM278.08 173.832L272.776 168.529L268.638 172.667L271.647 177.687L278.08 173.832ZM289.011 200.731L281.712 202.454L283.075 208.231H289.011V200.731ZM289.328 243.209V235.709H283.299L282.003 241.596L289.328 243.209ZM276.649 273.806L270.329 269.768L267.084 274.848L271.346 279.109L276.649 273.806ZM295.041 292.198L300.345 286.895L295.041 292.198ZM245.725 304.037L251.028 298.734L246.865 294.571L241.832 297.626L245.725 304.037ZM223.191 313.976L221.085 306.778L215.691 308.356V313.976H223.191ZM172.991 314.887H180.491V309.05L174.832 307.616L172.991 314.887ZM147.585 304.319L151.441 297.886L146.42 294.877L142.282 299.015L147.585 304.319ZM129.126 322.777L134.429 328.081V328.081L129.126 322.777ZM98.5482 322.777L93.2449 328.081L98.5482 322.777ZM98.5482 292.199L93.2449 286.896H93.2449L98.5482 292.199ZM116.486 274.261L121.789 279.565L126.076 275.278L122.784 270.188L116.486 274.261ZM103.515 243.209L110.84 241.596L109.544 235.709H103.515V243.209ZM103.831 200.731V208.231H109.767L111.131 202.454L103.831 200.731ZM115.046 173.363L121.457 177.255L124.512 172.223L120.349 168.06L115.046 173.363ZM99.3426 157.66L104.646 152.357L104.646 152.357L99.3426 157.66ZM99.3426 127.082L94.0393 121.779H94.0393L99.3426 127.082ZM129.921 127.082L135.224 121.779V121.779L129.921 127.082ZM145.276 142.437L139.972 147.741L144.234 152.002L149.313 148.758L145.276 142.437ZM172.991 130.44L174.832 137.71L180.491 136.277V130.44H172.991ZM230.691 108.433C230.691 91.8214 214.299 81.2388 198.091 81.2388V96.2388C209.608 96.2388 215.691 103.291 215.691 108.433H230.691ZM230.691 131.351V108.433H215.691V131.351H230.691ZM221.085 138.549C229.263 140.943 236.949 144.499 243.951 149.028L252.098 136.434C243.899 131.13 234.891 126.961 225.298 124.153L221.085 138.549ZM253.328 148.035L268.972 132.39L258.366 121.784L242.721 137.428L253.328 148.035ZM268.972 132.39C274.487 126.875 283.429 126.875 288.944 132.39L299.55 121.784C288.177 110.411 269.738 110.411 258.366 121.784L268.972 132.39ZM288.944 132.39C294.458 137.905 294.458 146.847 288.944 152.361L299.55 162.968C310.923 151.595 310.923 133.156 299.55 121.784L288.944 132.39ZM288.944 152.361L272.776 168.529L283.383 179.135L299.55 162.968L288.944 152.361ZM271.647 177.687C276.194 185.276 279.624 193.607 281.712 202.454L296.311 199.009C293.862 188.632 289.84 178.866 284.513 169.977L271.647 177.687ZM313.161 193.231H289.011V208.231H313.161V193.231ZM342.672 221.97C342.672 205.848 329.205 193.231 313.161 193.231V208.231C321.43 208.231 327.672 214.632 327.672 221.97H342.672ZM313.161 250.709C329.205 250.709 342.672 238.092 342.672 221.97H327.672C327.672 229.307 321.43 235.709 313.161 235.709V250.709ZM289.328 250.709H313.161V235.709H289.328V250.709ZM282.003 241.596C279.766 251.759 275.763 261.261 270.329 269.768L282.97 277.843C289.334 267.88 294.028 256.74 296.652 244.821L282.003 241.596ZM300.345 286.895L281.953 268.503L271.346 279.109L289.738 297.501L300.345 286.895ZM300.345 328.079C311.717 316.706 311.717 298.267 300.345 286.895L289.738 297.501C295.253 303.016 295.253 311.958 289.738 317.473L300.345 328.079ZM259.16 328.079C270.533 339.452 288.972 339.452 300.345 328.079L289.738 317.473C284.223 322.988 275.282 322.988 269.767 317.473L259.16 328.079ZM240.421 309.34L259.16 328.079L269.767 317.473L251.028 298.734L240.421 309.34ZM241.832 297.626C235.408 301.527 228.446 304.623 221.085 306.778L225.298 321.174C233.932 318.646 242.093 315.016 249.617 310.448L241.832 297.626ZM230.691 340.899V313.976H215.691V340.899H230.691ZM198.091 370.41C215.14 370.41 230.691 358.093 230.691 340.899H215.691C215.691 348.018 208.767 355.41 198.091 355.41V370.41ZM165.491 340.899C165.491 358.093 181.042 370.41 198.091 370.41V355.41C187.415 355.41 180.491 348.018 180.491 340.899H165.491ZM165.491 314.887V340.899H180.491V314.887H165.491ZM174.832 307.616C166.496 305.505 158.635 302.198 151.441 297.886L143.729 310.752C152.157 315.803 161.372 319.681 171.149 322.157L174.832 307.616ZM134.429 328.081L152.888 309.622L142.282 299.015L123.823 317.474L134.429 328.081ZM93.2449 328.081C104.618 339.453 123.057 339.453 134.429 328.081L123.823 317.474C118.308 322.989 109.366 322.989 103.851 317.474L93.2449 328.081ZM93.2449 286.896C81.8721 298.269 81.8721 316.708 93.2449 328.081L103.851 317.474C98.3365 311.959 98.3365 303.018 103.851 297.503L93.2449 286.896ZM111.183 268.958L93.2449 286.896L103.851 297.503L121.789 279.565L111.183 268.958ZM122.784 270.188C117.212 261.574 113.114 251.926 110.84 241.596L96.1904 244.821C98.8575 256.937 103.664 268.247 110.189 278.335L122.784 270.188ZM103.515 235.709H80.6941V250.709H103.515V235.709ZM80.6941 235.709C74.4827 235.709 68.5 230.101 68.5 221.97H53.5C53.5 237.298 65.152 250.709 80.6941 250.709V235.709ZM68.5 221.97C68.5 213.839 74.4827 208.231 80.6941 208.231V193.231C65.152 193.231 53.5 206.641 53.5 221.97H68.5ZM80.6941 208.231H103.831V193.231H80.6941V208.231ZM111.131 202.454C113.258 193.439 116.779 184.96 121.457 177.255L108.635 169.471C103.156 178.495 99.0268 188.435 96.5317 199.009L111.131 202.454ZM120.349 168.06L104.646 152.357L94.0393 162.963L109.742 178.666L120.349 168.06ZM104.646 152.357C99.131 146.842 99.131 137.9 104.646 132.385L94.0393 121.779C82.6665 133.152 82.6665 151.591 94.0393 162.963L104.646 152.357ZM104.646 132.385C110.161 126.871 119.102 126.871 124.617 132.385L135.224 121.779C123.851 110.406 105.412 110.406 94.0393 121.779L104.646 132.385ZM124.617 132.385L139.972 147.741L150.579 137.134L135.224 121.779L124.617 132.385ZM149.313 148.758C157.076 143.798 165.667 140.031 174.832 137.71L171.149 123.169C160.4 125.892 150.329 130.309 141.238 136.117L149.313 148.758ZM165.491 108.433V130.44H180.491V108.433H165.491ZM198.091 81.2388C181.883 81.2388 165.491 91.8214 165.491 108.433H180.491C180.491 103.291 186.574 96.2388 198.091 96.2388V81.2388Z" fill="#1C1B1F"/>
<path d="M229.998 193.363C229.998 207.923 218.195 219.726 203.635 219.726C189.076 219.726 177.272 207.923 177.272 193.363C177.272 178.803 189.076 167 203.635 167C218.195 167 229.998 178.803 229.998 193.363Z" fill="#D9D9D9"/>
<path d="M229.998 193.363C229.998 178.803 218.195 167 203.636 167C189.076 167 177.273 178.803 177.273 193.363C176.469 202.046 181.91 218.913 202.41 220.413C206.502 220.246 216.91 220.413 221.411 214.413" stroke="#1C1B1F" stroke-width="8" stroke-linecap="round"/>
<path d="M173.912 254.836C175.393 262.695 170.223 270.266 162.364 271.747C154.506 273.228 146.935 268.058 145.454 260.2C143.973 252.341 149.143 244.77 157.001 243.289C164.86 241.808 172.431 246.978 173.912 254.836Z" fill="#D9D9D9"/>
<path d="M173.911 254.836C172.43 246.978 164.859 241.808 157.001 243.289C149.143 244.77 143.973 252.341 145.454 260.2C145.903 264.968 150.556 273.518 161.773 272.242C163.964 271.736 169.599 270.767 171.417 267.071" stroke="#1C1B1F" stroke-width="8" stroke-linecap="round"/>
<path d="M256.01 248.712C257.854 258.494 251.418 267.918 241.636 269.762C231.854 271.606 222.43 265.17 220.586 255.388C218.743 245.606 225.178 236.181 234.96 234.338C244.742 232.494 254.167 238.93 256.01 248.712Z" fill="#D9D9D9"/>
<path d="M256.01 248.713C254.167 238.931 244.742 232.495 234.96 234.339C225.178 236.182 218.742 245.607 220.586 255.389C221.145 261.325 226.937 271.968 240.9 270.38C243.628 269.75 250.642 268.544 252.906 263.943" stroke="#1C1B1F" stroke-width="8" stroke-linecap="round"/>
<path fill-rule="evenodd" clip-rule="evenodd" d="M386.2 301C394.492 301 401.214 306.274 401.214 312.78V326.489C406.53 328.045 411.522 330.355 416.069 333.297L425.427 323.939C430.478 318.888 438.667 318.888 443.718 323.939C448.768 328.99 448.768 337.179 443.718 342.229L434.047 351.9C437.001 356.828 439.229 362.241 440.586 367.99H455.031C462.303 367.99 468.198 373.678 468.198 380.694C468.198 387.711 462.303 393.398 455.031 393.398H440.775C439.321 400.003 436.72 406.177 433.191 411.701L444.193 422.703C449.243 427.753 449.243 435.942 444.193 440.993C439.142 446.044 430.953 446.044 425.902 440.993L414.693 429.784C410.522 432.317 405.998 434.329 401.214 435.729V451.834C401.214 459.106 394.492 465 386.2 465C377.908 465 371.186 459.106 371.186 451.834V436.274C365.769 434.902 360.662 432.753 355.989 429.952L344.948 440.994C339.897 446.044 331.708 446.044 326.657 440.994C321.607 435.943 321.607 427.754 326.657 422.703L337.387 411.973C333.769 406.38 331.106 400.111 329.628 393.398H315.978C309.472 393.398 304.197 387.711 304.197 380.694C304.197 373.678 309.472 367.99 315.978 367.99H329.818C331.2 362.131 333.488 356.623 336.526 351.62L327.133 342.227C322.082 337.176 322.082 328.987 327.133 323.936C332.183 318.885 340.372 318.885 345.423 323.936L354.608 333.121C359.648 329.901 365.23 327.453 371.186 325.944V312.78C371.186 306.274 377.908 301 386.2 301Z" fill="white"/>
<path d="M401.214 326.489H393.714V332.109L399.108 333.687L401.214 326.489ZM416.069 333.297L411.995 339.594L417.086 342.887L421.372 338.6L416.069 333.297ZM425.427 323.939L420.124 318.635V318.635L425.427 323.939ZM443.718 342.229L449.021 347.533L443.718 342.229ZM434.047 351.9L428.744 346.597L424.605 350.735L427.614 355.755L434.047 351.9ZM440.586 367.99L433.286 369.712L434.65 375.49H440.586V367.99ZM440.775 393.398V385.898H434.747L433.451 391.786L440.775 393.398ZM433.191 411.701L426.871 407.664L423.626 412.743L427.888 417.004L433.191 411.701ZM444.193 422.703L438.889 428.006L444.193 422.703ZM414.693 429.784L419.996 424.481L415.833 420.318L410.801 423.373L414.693 429.784ZM401.214 435.729L399.108 428.531L393.714 430.11V435.729H401.214ZM371.186 436.274H378.686V430.437L373.028 429.004L371.186 436.274ZM355.989 429.952L359.845 423.519L354.825 420.51L350.686 424.649L355.989 429.952ZM344.948 440.994L350.251 446.297L344.948 440.994ZM326.657 422.703L321.354 417.4L326.657 422.703ZM337.387 411.973L342.691 417.276L346.977 412.99L343.685 407.9L337.387 411.973ZM329.628 393.398L336.953 391.786L335.657 385.898H329.628V393.398ZM329.818 367.99V375.49H335.754L337.117 369.712L329.818 367.99ZM336.526 351.62L342.937 355.512L345.992 350.479L341.829 346.316L336.526 351.62ZM327.133 323.936L321.829 318.633L321.829 318.633L327.133 323.936ZM345.423 323.936L350.726 318.633L345.423 323.936ZM354.608 333.121L349.305 338.424L353.567 342.686L358.646 339.441L354.608 333.121ZM371.186 325.944L373.028 333.215L378.686 331.781V325.944H371.186ZM408.714 312.78C408.714 300.539 396.838 293.5 386.2 293.5V308.5C388.799 308.5 390.891 309.334 392.187 310.351C393.472 311.359 393.714 312.274 393.714 312.78H408.714ZM408.714 326.489V312.78H393.714V326.489H408.714ZM399.108 333.687C403.716 335.036 408.047 337.04 411.995 339.594L420.143 326.999C414.997 323.671 409.343 321.054 403.321 319.291L399.108 333.687ZM421.372 338.6L430.73 329.242L420.124 318.635L410.766 327.993L421.372 338.6ZM430.73 329.242C432.852 327.12 436.292 327.12 438.414 329.242L449.021 318.635C441.041 310.656 428.103 310.656 420.124 318.635L430.73 329.242ZM438.414 329.242C440.536 331.364 440.536 334.804 438.414 336.926L449.021 347.533C457.001 339.553 457.001 326.615 449.021 318.635L438.414 329.242ZM438.414 336.926L428.744 346.597L439.35 357.203L449.021 347.533L438.414 336.926ZM427.614 355.755C430.178 360.033 432.11 364.728 433.286 369.712L447.886 366.267C446.348 359.754 443.824 353.623 440.48 348.045L427.614 355.755ZM455.031 360.49H440.586V375.49H455.031V360.49ZM475.698 380.694C475.698 369.285 466.19 360.49 455.031 360.49V375.49C458.415 375.49 460.698 378.07 460.698 380.694H475.698ZM455.031 400.898C466.19 400.898 475.698 392.103 475.698 380.694H460.698C460.698 383.318 458.415 385.898 455.031 385.898V400.898ZM440.775 400.898H455.031V385.898H440.775V400.898ZM433.451 391.786C432.19 397.512 429.935 402.867 426.871 407.664L439.512 415.739C443.506 409.486 446.453 402.494 448.1 395.011L433.451 391.786ZM449.496 417.399L438.495 406.398L427.888 417.004L438.889 428.006L449.496 417.399ZM449.496 446.296C457.476 438.317 457.476 425.379 449.496 417.399L438.889 428.006C441.011 430.128 441.011 433.568 438.889 435.69L449.496 446.296ZM420.599 446.296C428.578 454.276 441.516 454.276 449.496 446.296L438.889 435.69C436.767 437.812 433.327 437.812 431.205 435.69L420.599 446.296ZM409.39 435.088L420.599 446.296L431.205 435.69L419.996 424.481L409.39 435.088ZM410.801 423.373C407.179 425.572 403.255 427.317 399.108 428.531L403.321 442.927C408.742 441.341 413.864 439.062 418.586 436.195L410.801 423.373ZM408.714 451.834V435.729H393.714V451.834H408.714ZM386.2 472.5C397.679 472.5 408.714 464.143 408.714 451.834H393.714C393.714 454.068 391.306 457.5 386.2 457.5V472.5ZM363.686 451.834C363.686 464.143 374.722 472.5 386.2 472.5V457.5C381.095 457.5 378.686 454.068 378.686 451.834H363.686ZM363.686 436.274V451.834H378.686V436.274H363.686ZM373.028 429.004C368.331 427.814 363.901 425.95 359.845 423.519L352.134 436.385C357.422 439.555 363.207 441.99 369.344 443.544L373.028 429.004ZM350.251 446.297L361.293 435.256L350.686 424.649L339.645 435.69L350.251 446.297ZM321.354 446.297C329.334 454.277 342.272 454.277 350.251 446.297L339.645 435.69C337.523 437.812 334.083 437.812 331.961 435.69L321.354 446.297ZM321.354 417.4C313.374 425.379 313.374 438.317 321.354 446.297L331.961 435.69C329.839 433.568 329.839 430.128 331.961 428.006L321.354 417.4ZM332.084 406.67L321.354 417.4L331.961 428.006L342.691 417.276L332.084 406.67ZM343.685 407.9C340.544 403.044 338.234 397.606 336.953 391.786L322.304 395.011C323.978 402.617 326.995 409.716 331.09 416.047L343.685 407.9ZM329.628 385.898H315.978V400.898H329.628V385.898ZM315.978 385.898C314.137 385.898 311.697 384.112 311.697 380.694H296.697C296.697 391.309 304.806 400.898 315.978 400.898V385.898ZM311.697 380.694C311.697 377.277 314.137 375.49 315.978 375.49V360.49C304.806 360.49 296.697 370.079 296.697 380.694H311.697ZM315.978 375.49H329.818V360.49H315.978V375.49ZM337.117 369.712C338.316 364.633 340.3 359.855 342.937 355.512L330.115 347.727C326.676 353.391 324.084 359.63 322.518 366.267L337.117 369.712ZM341.829 346.316L332.436 336.923L321.829 347.53L331.222 356.923L341.829 346.316ZM332.436 336.923C330.314 334.801 330.314 331.361 332.436 329.239L321.829 318.633C313.849 326.612 313.849 339.55 321.829 347.53L332.436 336.923ZM332.436 329.239C334.558 327.117 337.998 327.117 340.12 329.239L350.726 318.633C342.747 310.653 329.809 310.653 321.829 318.633L332.436 329.239ZM340.12 329.239L349.305 338.424L359.911 327.817L350.726 318.633L340.12 329.239ZM358.646 339.441C363.022 336.645 367.864 334.523 373.028 333.215L369.344 318.674C362.596 320.383 356.275 323.156 350.57 326.8L358.646 339.441ZM363.686 312.78V325.944H378.686V312.78H363.686ZM386.2 293.5C375.562 293.5 363.686 300.539 363.686 312.78H378.686C378.686 312.274 378.928 311.359 380.213 310.351C381.51 309.334 383.601 308.5 386.2 308.5V293.5Z" fill="#1C1B1F"/>
<path d="M405.287 363.583C405.287 372.292 398.227 379.352 389.517 379.352C380.808 379.352 373.748 372.292 373.748 363.583C373.748 354.874 380.808 347.813 389.517 347.813C398.227 347.813 405.287 354.874 405.287 363.583Z" fill="#D9D9D9"/>
<path d="M405.287 363.583C405.287 354.874 398.227 347.813 389.518 347.813C380.808 347.813 373.748 354.874 373.748 363.583C373.267 368.777 376.522 378.866 388.785 379.763C391.232 379.663 397.458 379.763 400.15 376.174" stroke="#1C1B1F" stroke-width="8" stroke-linecap="round"/>
<path d="M371.738 400.354C372.624 405.055 369.531 409.583 364.831 410.469C360.13 411.355 355.601 408.263 354.715 403.562C353.829 398.861 356.922 394.333 361.623 393.447C366.323 392.561 370.852 395.653 371.738 400.354Z" fill="#D9D9D9"/>
<path d="M371.738 400.354C370.852 395.654 366.323 392.561 361.622 393.447C356.922 394.333 353.829 398.862 354.715 403.562C354.984 406.415 357.767 411.529 364.477 410.766C365.787 410.463 369.158 409.883 370.246 407.673" stroke="#1C1B1F" stroke-width="8" stroke-linecap="round"/>
<path d="M420.845 396.691C421.948 402.543 418.099 408.18 412.247 409.283C406.396 410.385 400.759 406.536 399.656 400.685C398.553 394.833 402.403 389.196 408.254 388.093C414.105 386.99 419.743 390.84 420.845 396.691Z" fill="#D9D9D9"/>
<path d="M420.846 396.692C419.743 390.841 414.105 386.992 408.254 388.094C402.403 389.197 398.553 394.834 399.656 400.686C399.99 404.236 403.455 410.603 411.807 409.653C413.439 409.276 417.634 408.554 418.989 405.802" stroke="#1C1B1F" stroke-width="8" stroke-linecap="round"/>
<path d="M442.863 260.022C442.863 270.527 434.879 279.043 425.03 279.043C415.181 279.043 407.197 270.527 407.197 260.022C407.197 249.516 415.181 241 425.03 241C434.879 241 442.863 249.516 442.863 260.022Z" fill="#1C1B1F"/>
<path d="M142.665 386.022C142.665 396.527 134.681 405.043 124.833 405.043C114.984 405.043 107 396.527 107 386.022C107 375.516 114.984 367 124.833 367C134.681 367 142.665 375.516 142.665 386.022Z" fill="#1C1B1F"/>
<path d="M285.352 76.0773C285.352 83.2997 279.497 89.1546 272.275 89.1546C265.052 89.1546 259.197 83.2997 259.197 76.0773C259.197 68.8549 265.052 63 272.275 63C279.497 63 285.352 68.8549 285.352 76.0773Z" fill="#1C1B1F"/>
</svg>
