<svg width="530" height="530" viewBox="0 0 530 530" fill="none" xmlns="http://www.w3.org/2000/svg">
<rect width="530" height="530" fill="white"/>
<path fill-rule="evenodd" clip-rule="evenodd" d="M217.156 51H237.156V166.881L237.079 167.758C236.955 169.157 236.948 171.245 237.251 173.527C237.556 175.825 238.104 177.781 238.762 179.216C239.405 180.618 239.933 181.065 240.032 181.141C240.08 181.177 240.149 181.225 240.315 181.285C240.488 181.348 240.938 181.484 241.786 181.532C252.814 182.156 261.248 191.602 260.624 202.63C260 213.658 250.554 222.092 239.526 221.468C219.951 220.36 208.121 208.364 202.4 195.884C197.397 184.969 196.589 173.198 197.156 165.215V51H217.156Z" fill="#F9F9F9"/>
<path d="M237.156 55V166.881L237.079 167.758C236.955 169.157 236.948 171.244 237.251 173.527C237.556 175.825 238.104 177.781 238.762 179.216C239.405 180.618 239.933 181.065 240.032 181.141C240.08 181.177 240.149 181.225 240.315 181.285C240.488 181.348 240.938 181.484 241.786 181.532C252.814 182.156 261.248 191.602 260.624 202.63C260 213.658 250.554 222.092 239.526 221.468C219.951 220.36 208.121 208.364 202.4 195.884C197.397 184.969 196.589 173.198 197.156 165.215V55" stroke="#1C1B1F" stroke-width="15" stroke-linecap="round"/>
<path d="M137.863 336.073C156.976 335.24 175.301 341.664 186.537 347.588C196.308 352.74 200.052 364.837 194.9 374.607C189.749 384.378 177.652 388.122 167.881 382.971C160.783 379.228 149.558 375.602 139.605 376.035C131.323 376.396 124.828 379.234 120.37 388.117C119.072 392.647 118.278 399.834 119.949 406.514C121.508 412.747 125.155 418.837 134.615 422.908L118.803 459.65C96.6632 450.122 85.3936 433.211 81.1441 416.219C77.1372 400.197 79.3737 384.54 82.7354 374.455L83.0834 373.411L83.5439 372.411C95.477 346.507 117.39 336.965 137.863 336.073Z" fill="#F9F9F9"/>
<path d="M134.615 422.908C125.155 418.837 121.508 412.747 119.949 406.514C118.278 399.834 119.072 392.647 120.37 388.117C124.828 379.234 131.323 376.396 139.605 376.035C149.558 375.602 160.783 379.228 167.881 382.971C177.652 388.122 189.749 384.378 194.9 374.607C200.052 364.837 196.308 352.74 186.537 347.588C175.301 341.664 156.976 335.24 137.863 336.073C117.39 336.965 95.477 346.507 83.5439 372.411L83.0834 373.411L82.7354 374.455C79.3737 384.54 77.1372 400.197 81.1441 416.219C85.3936 433.211 96.6632 450.122 118.803 459.65" stroke="#1C1B1F" stroke-width="15" stroke-linecap="round"/>
<path d="M287.708 179.5C251.308 185.5 236.08 207.5 243.208 231C254.008 266.6 247.708 293.833 243.208 303C228.808 337.4 209.009 327.5 184.209 327.5C159.409 327.5 157.542 349.833 159.709 361C164.109 403.8 229.209 412.167 261.209 411C346.809 404.6 376.875 322.333 381.209 282C390.009 184 322.542 172.833 287.708 179.5Z" fill="white" stroke="#1C1B1F" stroke-width="15"/>
<path d="M375.998 271.298C367.059 400.764 259.334 419.89 240.113 396.351C231.102 373 252.628 364.55 272.296 354.176C328.081 324.752 316.102 267.048 303.139 241.874C286.69 213.626 304.033 194.468 314.761 188.42C366.612 176.65 376.147 241.056 375.998 271.298Z" fill="#EAEAEA"/>
<path d="M401.434 210.586L427.881 89L378.718 149.011L359.063 134.646L331.119 262.919L382.325 196.011L401.434 210.586Z" fill="white" stroke="#1C1B1F" stroke-width="15" stroke-linecap="round" stroke-linejoin="round"/>
<path d="M324.585 416.32L405.104 457.829L372.167 411.947L385.973 400.832L301.032 357.011L338.436 405.628L324.585 416.32Z" fill="white" stroke="#1C1B1F" stroke-width="15" stroke-linecap="round" stroke-linejoin="round"/>
</svg>
