<svg width="530" height="530" viewBox="0 0 530 530" fill="none" xmlns="http://www.w3.org/2000/svg">
<g clip-path="url(#clip0_227_11871)">
<rect width="530" height="530" fill="white"/>
<circle cx="263.454" cy="267.501" r="107.501" fill="#1C1B1F"/>
<ellipse cx="263.453" cy="275.942" rx="52.3429" ry="52.9057" fill="black"/>
<circle opacity="0.8" cx="234.749" cy="262.434" r="21.3874" fill="white"/>
<path d="M269.635 332.06C381.147 329.864 423.051 388.965 430.064 418.79L100 418.79C128.273 355.115 177.585 332.06 269.635 332.06Z" fill="white"/>
<path d="M430.064 418.79C423.051 388.965 381.147 329.864 269.635 332.06C177.585 332.06 128.273 355.115 100 418.79" stroke="#1C1B1F" stroke-width="20" stroke-linecap="round"/>
<path d="M260.494 198.73C148.982 200.926 107.078 141.825 100.064 112H430.129C401.856 175.675 352.544 198.73 260.494 198.73Z" fill="white"/>
<path d="M100.064 112C107.078 141.825 148.982 200.926 260.494 198.73C352.544 198.73 401.856 175.675 430.129 112" stroke="#1C1B1F" stroke-width="20" stroke-linecap="round"/>
<path d="M115.784 474.682C-60.5339 363.822 -227.923 426.924 -293.101 474.594C-294.678 475.748 -294.681 478.01 -293.15 479.224C-235.44 524.959 -129.283 600.761 -88.4621 600.761C-37.3182 600.761 67.3376 521.507 116.213 479.444C117.73 478.139 117.478 475.747 115.784 474.682Z" fill="#1C1B1F"/>
<path d="M311 453.228L572.528 380" stroke="#1C1B1F" stroke-width="23" stroke-linecap="round"/>
<path d="M307.59 511.703L575.938 553.524" stroke="#1C1B1F" stroke-width="23" stroke-linecap="round"/>
<path d="M210.06 438.959C217.117 401.742 246.325 372.701 260.047 362.833C304.741 376.367 315.261 419.223 314.935 438.959C318.855 495.631 278.016 503.455 257.107 500.283C211.628 494.362 206.793 456.934 210.06 438.959Z" fill="white"/>
<mask id="mask0_227_11871" style="mask-type:alpha" maskUnits="userSpaceOnUse" x="172" y="329" width="183" height="197">
<rect x="172" y="329" width="182.305" height="196.66" fill="#D9D9D9"/>
</mask>
<g mask="url(#mask0_227_11871)">
<path d="M263.153 509.27C245.809 509.27 231.345 502.852 219.761 490.014C208.177 477.177 202.385 461.198 202.385 442.078C202.385 433.611 204.157 425.144 207.702 416.676C211.247 408.209 215.678 400.083 220.995 392.299C226.312 384.514 232.073 377.208 238.276 370.379C244.479 363.551 250.24 357.61 255.557 352.557C256.57 351.465 257.741 350.679 259.07 350.201C260.4 349.723 261.76 349.484 263.153 349.484C264.546 349.484 265.907 349.723 267.236 350.201C268.565 350.679 269.736 351.465 270.749 352.557C276.066 357.61 281.827 363.551 288.03 370.379C294.234 377.208 299.994 384.514 305.311 392.299C310.628 400.083 315.059 408.209 318.604 416.676C322.149 425.144 323.921 433.611 323.921 442.078C323.921 461.198 318.129 477.177 306.545 490.014C294.962 502.852 280.497 509.27 263.153 509.27ZM263.153 492.882C276.32 492.882 287.207 488.068 295.816 478.44C304.425 468.812 308.729 456.691 308.729 442.078C308.729 432.109 304.9 420.842 297.24 408.277C289.581 395.713 278.219 381.988 263.153 367.102C248.088 381.988 236.725 395.713 229.066 408.277C221.407 420.842 217.577 432.109 217.577 442.078C217.577 456.691 221.881 468.812 230.49 478.44C239.099 488.068 249.987 492.882 263.153 492.882ZM265.242 484.688C266.761 484.551 268.059 483.903 269.135 482.742C270.211 481.581 270.749 480.181 270.749 478.542C270.749 476.63 270.179 475.094 269.04 473.933C267.901 472.772 266.445 472.26 264.672 472.397C259.482 472.806 253.975 471.27 248.151 467.787C242.327 464.305 238.656 457.989 237.137 448.838C236.883 447.336 236.219 446.107 235.143 445.151C234.067 444.195 232.832 443.717 231.44 443.717C229.667 443.717 228.211 444.434 227.072 445.868C225.932 447.302 225.553 448.975 225.932 450.887C228.085 463.315 233.149 472.192 241.125 477.518C249.1 482.844 257.14 485.234 265.242 484.688Z" fill="#1C1B1F"/>
</g>
<path fill-rule="evenodd" clip-rule="evenodd" d="M372.357 245.781C363.593 232.74 344.407 232.74 335.643 245.781L301.797 296.147C291.924 310.839 302.453 330.6 320.154 330.6H327.191V349.228C327.191 359.633 335.626 368.068 346.031 368.068H362.008C372.413 368.068 380.848 359.633 380.848 349.228V330.6H387.846C405.547 330.6 416.076 310.839 406.203 296.147L372.357 245.781Z" fill="#F9F9F9"/>
<path fill-rule="evenodd" clip-rule="evenodd" d="M364.758 255.315C360.003 248.239 349.593 248.239 344.838 255.315L315.065 299.619C309.708 307.591 315.421 318.312 325.025 318.312H340.276V347.781C340.276 352.199 343.857 355.781 348.276 355.781H361.359C365.777 355.781 369.359 352.199 369.359 347.781V318.312H384.57C394.175 318.312 399.887 307.591 394.53 299.619L364.758 255.315Z" fill="white"/>
<path d="M344.838 255.315L338.613 251.131L338.613 251.131L344.838 255.315ZM364.758 255.315L370.983 251.132L370.983 251.132L364.758 255.315ZM315.065 299.619L321.29 303.802L321.29 303.802L315.065 299.619ZM340.276 318.312H347.776V310.812H340.276V318.312ZM369.359 318.312V310.812H361.859V318.312H369.359ZM394.53 299.619L388.305 303.802L388.305 303.802L394.53 299.619ZM351.063 259.498C352.846 256.844 356.75 256.844 358.533 259.498L370.983 251.132C363.256 239.633 346.339 239.633 338.613 251.131L351.063 259.498ZM321.29 303.802L351.063 259.498L338.613 251.131L308.84 295.436L321.29 303.802ZM325.025 310.812C321.424 310.812 319.281 306.792 321.29 303.802L308.84 295.436C300.135 308.39 309.418 325.812 325.025 325.812V310.812ZM340.276 310.812H325.025V325.812H340.276V310.812ZM347.776 347.781V318.312H332.776V347.781H347.776ZM348.276 348.281C348 348.281 347.776 348.057 347.776 347.781H332.776C332.776 356.341 339.715 363.281 348.276 363.281V348.281ZM361.359 348.281H348.276V363.281H361.359V348.281ZM361.859 347.781C361.859 348.057 361.635 348.281 361.359 348.281V363.281C369.919 363.281 376.859 356.341 376.859 347.781H361.859ZM361.859 318.312V347.781H376.859V318.312H361.859ZM384.57 310.812H369.359V325.812H384.57V310.812ZM388.305 303.802C390.314 306.792 388.172 310.812 384.57 310.812V325.812C400.177 325.812 409.46 308.39 400.755 295.436L388.305 303.802ZM358.533 259.498L388.305 303.802L400.755 295.436L370.983 251.132L358.533 259.498Z" fill="#1C1B1F"/>
</g>
<defs>
<clipPath id="clip0_227_11871">
<rect width="530" height="530" fill="white"/>
</clipPath>
</defs>
</svg>
