<?xml version="1.0" encoding="utf-8"?>
<!-- Generator: Adobe Illustrator 25.0.1, SVG Export Plug-In . SVG Version: 6.00 Build 0)  -->
<svg version="1.1" id="레이어_1" xmlns="http://www.w3.org/2000/svg" xmlns:xlink="http://www.w3.org/1999/xlink" x="0px"
	 y="0px" viewBox="0 0 140 140" style="enable-background:new 0 0 140 140;" xml:space="preserve">
<style type="text/css">
	.st0{fill:#FFC26F;}
	.st1{fill-rule:evenodd;clip-rule:evenodd;fill:#1C1B1F;}
	.st2{fill:#1C1B1F;}
	.st3{fill:#FF9B50;}
	.st4{fill:#666666;}
	.st5{fill-rule:evenodd;clip-rule:evenodd;fill:#FFFFFF;}
</style>
<g>
	<path class="st0" d="M70.2,50c-8.1-9.3-8-23.6-6.9-29.5c3.4-1,8.2,4.3,10.1,7.1c1.7-2.4,3.9-4.4,6.5-5.8c-1.9-3-3.2-7.8-3.4-10.4
		c33.6,6.2,40.3,33.5,39.5,46.4c0.2,23.1-16.3,35.9-24.6,39.5c4.7-6.4,4.8-21.3,4.3-28c0-7.8-4.6-9.4-6.9-9.3
		C79.9,58.8,73.7,53.9,70.2,50z"/>
	<path class="st1" d="M75.1,9.8c0.2-0.2,0.5-0.4,0.9-0.5c0.3-0.1,0.7-0.1,1,0c17.4,3.2,28,11.9,34.1,21.7c6,9.6,7.6,20.1,7.1,26.9
		C118.3,82,101,95.5,92.2,99.2c-0.4,0.2-0.9,0.2-1.4,0.1c-0.5-0.1-0.9-0.4-1.2-0.7c-0.3-0.4-0.5-0.8-0.5-1.3c0-0.5,0.1-0.9,0.4-1.3
		c2-2.7,3.1-7.5,3.7-12.9c0.5-4.6,0.5-9.2,0.2-13.7c0-0.1,0-0.1,0-0.2c0-3.4-1-5.2-1.9-6c-0.4-0.3-0.8-0.6-1.2-0.8
		c-0.5-0.2-1-0.3-1.5-0.3c-0.1,0-0.3,0-0.4,0c-9.5-1.2-16.2-6.5-19.9-10.6c-4.4-5.1-6.5-11.4-7.4-17.1c-0.7-4.7-0.7-9.5,0-14.2
		c0.1-0.4,0.2-0.8,0.5-1.1c0.3-0.3,0.6-0.5,1-0.6c1.4-0.4,2.9-0.2,4.2,0.4c1.2,0.5,2.4,1.3,3.4,2.1c1.1,1,2.2,2,3.1,3.2
		c1.1-1.2,2.2-2.2,3.5-3.1c-1.4-3-2.3-6.1-2.7-9.4c0-0.3,0-0.7,0.1-1C74.6,10.3,74.8,10,75.1,9.8z M79.2,14.2
		c0.5,2.3,1.4,4.4,2.6,6.4c0.2,0.3,0.3,0.5,0.3,0.8s0,0.6,0,0.9c-0.1,0.3-0.2,0.6-0.4,0.8c-0.2,0.2-0.4,0.4-0.7,0.6
		c-2.3,1.2-4.3,3-5.7,5.2c-0.2,0.3-0.5,0.5-0.8,0.7c-0.3,0.2-0.6,0.2-1,0.2c-0.3,0-0.7-0.1-1-0.2c-0.3-0.2-0.6-0.4-0.8-0.7
		c-1.2-1.7-2.6-3.2-4.1-4.6c-0.7-0.6-1.5-1.1-2.3-1.5l-0.1,0c-0.4,3.6-0.3,7.3,0.3,10.9c0.8,5.2,2.7,10.7,6.4,14.9
		c3.2,3.6,9,8.1,17,9.2c2.1,0,4.2,0.8,5.7,2.3c2,1.9,3.2,4.8,3.3,9.1c0.3,4.8,0.2,9.6-0.2,14.4c-0.3,2.9-0.8,5.8-1.6,8.6
		c8-5.5,17.9-16.8,17.8-34.3c0-0.1,0-0.1,0-0.2c0.4-6-1-15.6-6.5-24.4C102.2,25.1,93.6,17.5,79.2,14.2L79.2,14.2z"/>
	<path class="st2" d="M78.8,33.3c-0.3,0.2-0.6,0.4-0.8,0.7c-0.2,0.3-0.3,0.7-0.3,1c0,0.4,0.1,0.7,0.4,1c0.2,0.3,0.5,0.5,0.8,0.6
		s0.7,0.1,1,0c0.3-0.1,0.7-0.3,0.9-0.5c0.2-0.3,0.4-0.6,0.4-0.9s0-0.7-0.2-1c-0.2-0.4-0.6-0.8-1-0.9C79.7,33.1,79.2,33.1,78.8,33.3z
		"/>
	<path class="st2" d="M88.5,29.4c-0.2-0.3-0.4-0.6-0.7-0.8c-0.3-0.2-0.7-0.3-1-0.2c-0.4,0-0.7,0.1-1,0.4c-0.3,0.2-0.5,0.5-0.6,0.8
		c-0.1,0.3-0.1,0.7,0,1c0.1,0.3,0.3,0.6,0.5,0.9c0.3,0.2,0.6,0.4,0.9,0.4c0.3,0.1,0.7,0,1-0.2c0.2-0.1,0.4-0.2,0.6-0.4
		c0.2-0.2,0.3-0.4,0.4-0.6c0.1-0.2,0.1-0.5,0.1-0.7C88.6,29.9,88.6,29.6,88.5,29.4z"/>
	<path class="st2" d="M55.3,60.7c-0.4,0.2-0.8,0.6-1.1,1c-0.3,0.4-0.4,0.9-0.3,1.4c0,0.5,0.2,1,0.5,1.4c0.3,0.4,0.7,0.7,1.2,0.9
		c0.5,0.2,1,0.2,1.5,0.1c0.5-0.1,0.9-0.4,1.2-0.8c0.3-0.4,0.5-0.8,0.6-1.3c0.1-0.5,0-1-0.2-1.4c-0.1-0.3-0.3-0.6-0.6-0.8
		c-0.2-0.2-0.5-0.4-0.8-0.5c-0.3-0.1-0.6-0.2-1-0.1C55.9,60.5,55.6,60.6,55.3,60.7z"/>
	<path class="st2" d="M68.5,54.6c-0.2-0.4-0.6-0.8-1-1.1c-0.4-0.3-0.9-0.4-1.4-0.3c-0.5,0-1,0.2-1.4,0.5c-0.4,0.3-0.7,0.7-0.9,1.2
		c-0.2,0.5-0.2,1-0.1,1.5c0.1,0.5,0.4,0.9,0.8,1.2c0.4,0.3,0.8,0.5,1.3,0.6c0.5,0.1,1,0,1.4-0.2c0.6-0.3,1.1-0.8,1.3-1.4
		C68.8,55.9,68.8,55.2,68.5,54.6z"/>
	<path class="st3" d="M47.2,68.5C28.7,55.9,30,39,32.9,32.1C28.8,35.7,26,47,25.2,52.1c-1.9,22.6,10.4,38.6,20.7,42.9
		c2.2,0.9,4.3,1.3,5.2,1.1c9-0.5,10.4-9.1,9.9-11.9C60,77.8,51.8,71.1,47.2,68.5z"/>
	<path class="st1" d="M34.2,30.3c0.4,0.3,0.7,0.7,0.8,1.2c0.1,0.5,0.1,1-0.1,1.4c-2.6,6.1-4,21.9,13.4,33.8c3.2,1.8,6.1,4.1,8.7,6.7
		c2.8,2.9,5.5,6.6,6.1,10.5c0.3,1.9,0,5.2-1.7,8.2c-1.7,3.1-4.9,5.8-10.1,6.2c-0.9,0.1-1.9,0.1-2.8-0.2c-1.2-0.2-2.4-0.6-3.5-1.1
		C33.7,92.3,21.1,75.4,23,52c0-0.1,0-0.1,0-0.2c0.6-3.7,1.6-7.4,2.7-10.9c0.7-2,1.5-3.9,2.4-5.8c0.8-1.7,2-3.3,3.3-4.6
		c0.4-0.3,0.8-0.5,1.3-0.5C33.3,29.9,33.8,30.1,34.2,30.3z M27.3,52.4c-1.8,21.7,10,36.8,19.4,40.7c0.9,0.4,1.7,0.6,2.7,0.8
		C49.7,94,50,94,50.3,94c0.1,0,0.2,0,0.3,0c0.1,0,0.2,0,0.4-0.1c3.7-0.2,5.6-2,6.7-4c0.9-1.6,1.3-3.5,1.2-5.4
		c-0.4-2.6-2.3-5.5-4.9-8.2c-2.3-2.4-4.9-4.4-7.7-6c-0.1,0-0.1-0.1-0.2-0.1c-11.7-8-16-17.8-16.8-26C28.4,47,27.8,49.7,27.3,52.4
		L27.3,52.4z"/>
	<path class="st3" d="M71.8,76.6c2.7,1.7,6.3,0,8-1c0.1,0,0.2-0.1,0.3-0.2c3.1-2.5,2.5-5.7,1.1-6.9c-3.4-3-8.7-0.1-10,2.6
		C69.8,73.8,70.9,75.9,71.8,76.6z"/>
	<path class="st1" d="M86.9,72.5c-0.2-0.1-0.4-0.1-0.7-0.1c-0.2,0-0.4,0.1-0.7,0.1c-0.2,0.1-0.4,0.2-0.5,0.4
		c-0.2,0.2-0.3,0.4-0.4,0.6c-0.2,0.4-0.4,0.8-0.8,1c-0.3,0.3-0.7,0.5-1.2,0.6c2-2.8,1.4-6.1-0.5-7.8c-2.3-2-5.2-2-7.5-1.2
		c-2.3,0.8-4.3,2.4-5.2,4.3c-1.6,3.4-0.3,6.4,1.1,7.6l0.1,0.1l0.1,0.1c0.8,0.5,1.8,0.8,2.8,0.9c1,0.1,2,0.1,2.9-0.2
		c0.4-0.1,0.7-0.2,1-0.3c-0.1,0.1-0.1,0.3-0.2,0.4c-0.4,0.7-1,1.3-1.6,1.8c-3.9,1.9-6.3,0.1-6.8-0.7c-0.3-0.4-0.7-0.6-1.1-0.7
		s-0.9,0.1-1.3,0.3c-0.4,0.3-0.6,0.7-0.7,1.1c-0.1,0.4,0,0.9,0.3,1.3c1.5,2,5.6,4.5,11.3,1.7l0.1-0.1l0.1-0.1c1.1-0.8,2-1.7,2.7-2.9
		c0.4-0.7,0.7-1.4,0.8-2.1c0.8,0.1,1.6,0,2.4-0.2c1-0.2,1.9-0.7,2.6-1.3c0.7-0.6,1.3-1.5,1.7-2.4C88,74.5,88,74.3,88,74
		c0-0.2-0.1-0.5-0.1-0.7c-0.1-0.2-0.2-0.4-0.4-0.6C87.3,72.7,87.1,72.6,86.9,72.5z M72.8,75.2c-0.3-0.3-1-1.5-0.1-3.4
		c0.4-0.8,1.6-1.9,3.2-2.5c1.6-0.6,3-0.4,4.1,0.5c0.4,0.3,0.9,1.5,0.2,2.8C80,72.1,80,71.6,80,71c0-0.3-0.1-0.6-0.3-0.8
		c-0.2-0.2-0.5-0.3-0.7-0.4c-0.3,0-0.6,0.1-0.8,0.3c-0.2,0.2-0.3,0.5-0.4,0.7c-0.1,1.2,0.1,2.4,0.6,3.5c-0.1,0.1-0.2,0.1-0.3,0.2
		c-0.2-0.3-0.5-0.5-0.7-0.7c-0.6-0.5-1.3-0.9-2.1-1.3c-0.1-0.1-0.3-0.1-0.4-0.1c-0.1,0-0.3,0-0.4,0c-0.1,0-0.3,0.1-0.4,0.2
		c-0.1,0.1-0.2,0.2-0.3,0.4c-0.1,0.1-0.1,0.3-0.1,0.4c0,0.1,0,0.3,0.1,0.4c0.1,0.1,0.1,0.3,0.2,0.4s0.2,0.2,0.4,0.2
		c0.5,0.3,1,0.6,1.5,0.9l-0.2,0.1C74.8,75.8,73.7,75.7,72.8,75.2L72.8,75.2z"/>
	<path class="st1" d="M96.3,35.8c-0.1-0.2-0.2-0.3-0.3-0.4c-0.1-0.1-0.3-0.2-0.4-0.3c-0.2-0.1-0.3-0.1-0.5-0.1
		c-0.2,0-0.3,0.1-0.5,0.1c-0.2,0.1-0.3,0.2-0.4,0.3c-0.1,0.1-0.2,0.3-0.3,0.4c-0.1,0.2-0.1,0.3-0.1,0.5c0,0.2,0.1,0.3,0.1,0.5
		c0.2,0.5,0.2,1.8-1.2,3.3c-0.6,0.5-1.3,0.7-2,0.7c-0.4,0-0.8-0.2-1.1-0.4c0.4-0.6,0.6-1.3,0.7-2v-0.1v-0.1c0-0.5-0.1-1.1-0.4-1.5
		c-0.2-0.3-0.5-0.6-0.8-0.8s-0.7-0.4-1-0.4c-1-0.2-2,0.1-2.9,0.6c-1,0.5-1.7,1.4-2,2.4c-0.2,0.5-0.1,1,0,1.5c0.1,0.4,0.3,0.7,0.6,1
		c0.3,0.3,0.6,0.5,1,0.7c0.6,0.2,1.3,0.4,1.9,0.4h0.1c0,0.7-0.2,1.3-0.5,2c-0.2,0.4-0.5,0.8-0.8,1c-0.5,0.2-1,0.3-1.5,0.2
		c-0.2,0-0.3,0-0.5,0c-0.2,0-0.3,0.1-0.5,0.2c-0.1,0.1-0.3,0.2-0.3,0.4c-0.1,0.1-0.1,0.3-0.2,0.5c0,0.2,0,0.3,0,0.5
		c0,0.2,0.1,0.3,0.2,0.5c0.1,0.1,0.2,0.3,0.4,0.3c0.1,0.1,0.3,0.1,0.5,0.2c1,0.2,2.1,0.1,3-0.4c0.9-0.5,1.7-1.3,2.1-2.2
		c0.3-0.7,0.5-1.3,0.6-2c0.4,0.1,0.8,0.2,1.3,0.2c1.4,0,2.7-0.4,3.8-1.3l0.1-0.1l0.1-0.1C96.5,40.1,97.2,37.7,96.3,35.8z M85.9,39.4
		C85.9,39.3,85.8,39.3,85.9,39.4c0-0.1,0-0.2,0-0.2c0,0,0-0.1,0.1-0.1c0.4-0.5,0.9-0.8,1.5-0.9c0.1,0,0.3,0,0.4,0.1c0,0,0,0.1,0,0.1
		c0,0,0,0.1,0,0.1c-0.2,0.5-0.5,1.2-1.1,1.2c-0.2,0-0.4,0-0.6-0.1C86,39.5,86,39.4,85.9,39.4z"/>
	<path class="st1" d="M97.2,25c-0.3-0.2-0.6-0.2-1-0.2c-0.3,0.1-0.6,0.3-0.8,0.6l-3.1,4.8c-0.1,0.1-0.2,0.3-0.2,0.5
		c0,0.2,0,0.4,0,0.5c0,0.2,0.1,0.3,0.2,0.5c0.1,0.1,0.2,0.3,0.4,0.4c0.1,0.1,0.3,0.2,0.5,0.2c0.2,0,0.4,0,0.5,0
		c0.2,0,0.3-0.1,0.5-0.2c0.1-0.1,0.3-0.2,0.3-0.4l3.1-4.8c0.2-0.3,0.2-0.6,0.2-1C97.7,25.5,97.5,25.2,97.2,25z"/>
	<path class="st1" d="M101.8,29.5c-0.1-0.1-0.2-0.2-0.3-0.3c-0.1-0.1-0.3-0.1-0.4-0.2c-0.2,0-0.3,0-0.5,0c-0.2,0-0.3,0.1-0.4,0.2
		l-4.3,3.1c-0.3,0.2-0.4,0.5-0.5,0.8c-0.1,0.3,0,0.6,0.2,0.9c0.1,0.1,0.2,0.2,0.3,0.3c0.1,0.1,0.3,0.1,0.4,0.2s0.3,0,0.5,0
		c0.2,0,0.3-0.1,0.4-0.2l4.3-3.1c0.3-0.2,0.4-0.5,0.5-0.8C102.1,30,102,29.7,101.8,29.5z"/>
	<path class="st1" d="M70.9,42c0-0.2,0-0.3,0-0.5c0-0.2,0.1-0.3,0.2-0.5c0.1-0.1,0.2-0.3,0.4-0.4c0.1-0.1,0.3-0.2,0.5-0.2l4.6-1
		c0.4-0.1,0.7,0,1,0.1c0.3,0.2,0.5,0.5,0.7,0.8c0,0.2,0,0.4,0,0.5c0,0.2-0.1,0.3-0.2,0.5c-0.1,0.1-0.2,0.3-0.4,0.4
		c-0.1,0.1-0.3,0.2-0.5,0.2l-4.6,1c-0.4,0.1-0.7,0-1-0.2C71.3,42.7,71,42.4,70.9,42z"/>
	<path class="st1" d="M73.2,47.5c-0.1-0.1-0.1-0.3-0.2-0.4c0-0.2,0-0.3,0-0.5c0-0.2,0.1-0.3,0.2-0.4c0.1-0.1,0.2-0.2,0.3-0.3
		l4.5-2.8c0.3-0.2,0.6-0.2,0.9-0.2c0.3,0.1,0.6,0.3,0.8,0.5c0.1,0.1,0.1,0.3,0.2,0.4c0,0.2,0,0.3,0,0.5c0,0.2-0.1,0.3-0.2,0.4
		c-0.1,0.1-0.2,0.2-0.3,0.3l-4.5,2.8c-0.3,0.2-0.6,0.2-0.9,0.1C73.6,48,73.4,47.8,73.2,47.5z"/>
</g>
<g>
	<path class="st4" d="M105.8,131.8c-1,0-1.6-0.6-1.6-1.7c0-1,0.6-1.7,1.5-1.7c0.8,0,1.5,0.5,1.5,1.6v0.2h-2.2c0,0.5,0.3,0.8,0.7,0.8
		c0.2,0,0.5-0.1,0.6-0.3h0.8C107.1,131.4,106.6,131.8,105.8,131.8z M105.1,129.8h1.4c0-0.4-0.3-0.6-0.6-0.7c0,0,0,0-0.1,0
		C105.4,129.1,105.1,129.4,105.1,129.8z"/>
	<path class="st4" d="M101.2,131.8c-1,0-1.6-0.7-1.6-1.7c0-1,0.6-1.7,1.6-1.7c0.8,0,1.4,0.5,1.4,1.2h-0.8c0-0.3-0.3-0.5-0.6-0.5
		c-0.4,0-0.7,0.4-0.7,1c0,0.6,0.3,1,0.7,1c0.3,0,0.6-0.2,0.6-0.5h0.8C102.5,131.3,102,131.8,101.2,131.8z"/>
	<path class="st4" d="M97,131.7v-3.2h0.9v3.2H97z M97.4,128.1c-0.2,0-0.4-0.2-0.4-0.5c0-0.2,0.2-0.4,0.5-0.4c0.2,0,0.4,0.2,0.4,0.4
		C97.9,127.9,97.7,128.1,97.4,128.1L97.4,128.1z"/>
	<path class="st4" d="M95.3,128.5l-1.1,3.2h-1l-1.1-3.2H93l0.7,2.3h0l0.7-2.3H95.3z"/>
	<path class="st4" d="M88.7,131.7v-3.2h0.8v0.6h0c0.1-0.4,0.4-0.6,0.8-0.6c0.1,0,0.2,0,0.3,0v0.8c-0.1,0-0.2,0-0.4,0
		c-0.4,0-0.7,0.3-0.7,0.6c0,0,0,0,0,0v1.8H88.7z"/>
	<path class="st4" d="M85.5,131.8c-1,0-1.6-0.6-1.6-1.7c0-1,0.6-1.7,1.5-1.7c0.8,0,1.5,0.5,1.5,1.6v0.2h-2.2c0,0.5,0.3,0.8,0.7,0.8
		c0.2,0,0.5-0.1,0.6-0.3h0.8C86.8,131.4,86.3,131.8,85.5,131.8z M84.8,129.8h1.4c0-0.4-0.3-0.6-0.6-0.7c0,0,0,0-0.1,0
		C85.1,129.1,84.8,129.4,84.8,129.8C84.8,129.8,84.8,129.8,84.8,129.8L84.8,129.8z"/>
	<path class="st4" d="M81.4,128.7c0-0.3-0.3-0.5-0.7-0.5c-0.4,0-0.7,0.2-0.7,0.5c0,0.3,0.3,0.4,0.7,0.5l0.4,0.1
		c0.7,0.2,1.3,0.5,1.3,1.2c0,0.8-0.6,1.3-1.7,1.3s-1.7-0.5-1.7-1.4h0.9c0,0.4,0.4,0.6,0.8,0.6s0.8-0.2,0.8-0.5
		c0-0.3-0.3-0.4-0.7-0.5l-0.5-0.1c-0.7-0.2-1.2-0.5-1.2-1.2c0-0.8,0.7-1.3,1.6-1.3c0.9,0,1.6,0.5,1.6,1.3L81.4,128.7z"/>
	<path class="st4" d="M74.6,127.5v4.3h-0.9v-4.3H74.6z"/>
	<path class="st4" d="M68.9,130.8c0-0.7,0.6-0.9,1.2-1c0.2,0,0.7,0,0.8,0v-0.3c0-0.3-0.2-0.4-0.5-0.4c-0.3,0-0.5,0.1-0.5,0.4h-0.8
		c0.1-0.6,0.5-1,1.4-1c0.7,0,1.4,0.3,1.4,1.1v2.2H71v-0.4h0c-0.2,0.3-0.5,0.5-0.9,0.5C69.4,131.8,68.9,131.5,68.9,130.8z
		 M69.8,130.8c0,0.2,0.2,0.4,0.5,0.4c0.4,0,0.7-0.3,0.7-0.6v-0.2c-0.1,0-0.5,0-0.7,0C70,130.4,69.8,130.6,69.8,130.8L69.8,130.8z"/>
	<path class="st4" d="M65.9,131.8c-1,0-1.6-0.7-1.6-1.7c0-1,0.6-1.7,1.6-1.7c0.8,0,1.4,0.5,1.4,1.2h-0.8c0-0.3-0.3-0.5-0.6-0.5
		c-0.4,0-0.7,0.4-0.7,1c0,0.6,0.3,1,0.7,1c0.3,0,0.6-0.2,0.6-0.5h0.8C67.3,131.3,66.8,131.8,65.9,131.8z"/>
	<path class="st4" d="M61.7,131.7v-3.2h0.9v3.2H61.7z M62.2,128.1c-0.2,0-0.4-0.2-0.4-0.5c0-0.2,0.2-0.4,0.5-0.4
		c0.2,0,0.4,0.2,0.4,0.4C62.6,127.9,62.4,128.1,62.2,128.1L62.2,128.1z"/>
	<path class="st4" d="M58,131.8c-0.7,0-1.3-0.6-1.3-1.7c0-1.1,0.6-1.6,1.3-1.6c0.4,0,0.8,0.2,0.9,0.6h0v-1.6h0.9v4.3H59v-0.5h0
		C58.8,131.6,58.4,131.8,58,131.8z M58.3,131.1c0.4,0,0.7-0.4,0.7-1c0-0.6-0.2-0.9-0.7-0.9c-0.4,0-0.7,0.4-0.7,0.9
		C57.6,130.7,57.8,131.1,58.3,131.1L58.3,131.1z"/>
	<path class="st4" d="M53.6,131.8c-1,0-1.6-0.6-1.6-1.7c0-1,0.6-1.7,1.5-1.7c0.8,0,1.5,0.5,1.5,1.6v0.2h-2.2c0,0.5,0.3,0.8,0.7,0.8
		c0.2,0,0.5-0.1,0.6-0.3h0.8C54.9,131.4,54.4,131.8,53.6,131.8z M52.9,129.8h1.4c0-0.4-0.3-0.6-0.6-0.7c0,0,0,0-0.1,0
		C53.2,129.1,52.9,129.4,52.9,129.8z"/>
	<path class="st4" d="M45.6,127.5h1.1l1.2,2.9h0l1.2-2.9h1.1v4.3h-0.9v-2.8h0l-1.1,2.8h-0.6l-1.1-2.8h0v2.8h-0.9V127.5z"/>
	<path class="st4" d="M41.3,128.5v0.7h-0.6v1.6c0,0.3,0.1,0.3,0.3,0.3c0.1,0,0.2,0,0.3,0v0.7c-0.2,0-0.3,0-0.5,0
		c-0.6,0-1.1-0.3-1.1-0.9v-1.7h-0.4v-0.7h0.4v-0.8h0.9v0.8H41.3z"/>
	<path class="st4" d="M36.4,131.8c-1,0-1.6-0.6-1.6-1.7c0-1,0.6-1.7,1.5-1.7c0.8,0,1.5,0.5,1.5,1.6v0.2h-2.2c0,0.5,0.3,0.8,0.7,0.8
		c0.2,0,0.5-0.1,0.6-0.3h0.8C37.7,131.4,37.2,131.8,36.4,131.8z M35.7,129.8H37c0-0.4-0.3-0.6-0.6-0.7c0,0,0,0-0.1,0
		C36,129.1,35.7,129.4,35.7,129.8z"/>
	<path class="st4" d="M30,131.7v-4.3h1.7c1,0,1.5,0.6,1.5,1.4s-0.6,1.4-1.6,1.4h-0.8v1.4L30,131.7z M30.9,129.6h0.6
		c0.5,0,0.8-0.3,0.8-0.7c0-0.4-0.3-0.7-0.8-0.7h-0.6V129.6z"/>
	<path class="st2" d="M124.5,122.1c0,0.4-0.1,0.9-0.2,1.3c-0.1,0.3-0.2,0.7-0.4,0.9c-0.2,0.2-0.5,0.4-0.8,0.5
		c-0.4,0.1-0.8,0.1-1.3,0.1l-6.5-0.5c-0.4,0-0.8-0.2-1.1-0.5c-0.3-0.3-0.4-0.7-0.6-1.1c-0.1-0.4-0.2-0.9-0.2-1.3c0-0.5,0-0.9,0-1.3
		c0-2.1,0-4.2,0.1-6.2c0.1-2.1,0.2-4.2,0.3-6.2l0-0.3c0.1-1,0.3-1.8,0.8-2.5c0.5-0.6,1.3-0.9,2.4-0.9c0.6,0,1.1,0.1,1.6,0.2
		c0.4,0.1,0.9,0.2,1.2,0.4c0.3,0.2,0.6,0.5,0.8,0.9c0.2,0.4,0.3,0.9,0.2,1.6c-0.1,0.9-0.2,1.7-0.4,2.6c-0.2,0.9-0.4,1.7-0.5,2.5
		c-0.2,1.1-0.4,2.2-0.5,3.4c-0.1,1.1-0.2,2.3-0.3,3.4c0.3,0,0.6,0,0.9-0.2c0.3-0.1,0.7-0.3,1-0.4c0.4-0.2,0.7-0.3,1.1-0.4
		c0.4-0.1,0.8-0.2,1.2-0.2c0.5,0,0.8,0.2,1,0.5c0.2,0.3,0.3,0.7,0.4,1.1c0,0.4,0,0.9,0,1.3C124.6,121.4,124.6,121.8,124.5,122.1z"/>
	<path class="st2" d="M104.6,124.8c-0.7,0-1.3-0.1-1.9-0.4c-0.6-0.3-1.1-0.7-1.5-1.2c-0.4-0.5-0.8-1.1-1-1.7c-0.2-0.6-0.4-1.3-0.4-2
		c0-0.7,0.1-1.4,0.5-2.1c0.3-0.5,0.8-1,1.3-1.3c0.6-0.3,1.2-0.6,1.8-0.7c0.7-0.1,1.3-0.2,2-0.2c0.4,0,0.8,0.1,1.2,0.3
		c0.4,0.2,0.7,0.4,1,0.8c0-0.2,0-0.4,0-0.6c0-0.2,0-0.4,0-0.6v-0.2c0-0.8-0.2-1.3-0.6-1.6s-0.9-0.4-1.6-0.4c-0.3,0-0.6,0.1-0.9,0.2
		c-0.2,0.1-0.4,0.3-0.5,0.5c-0.1,0.2-0.3,0.4-0.4,0.6c-0.1,0.2-0.2,0.4-0.4,0.6c-0.2,0.2-0.4,0.3-0.6,0.4c-0.3,0.1-0.6,0.2-1,0.2
		c-0.8,0-1.4-0.3-1.8-0.8c-0.4-0.6-0.6-1.3-0.6-2.1c0-0.7,0.2-1.3,0.7-1.8c0.5-0.5,1.1-0.8,1.7-1c0.7-0.2,1.4-0.4,2.1-0.5
		c0.6-0.1,1.3-0.1,1.9-0.1c0.8,0,1.7,0.1,2.5,0.2c0.8,0.1,1.5,0.3,2.2,0.7c0.6,0.4,1.2,0.9,1.5,1.5c0.4,0.6,0.6,1.5,0.6,2.6
		c0,0.3,0,0.7-0.1,1c0,0.3-0.1,0.7-0.1,1c-0.1,0.9-0.2,1.7-0.3,2.6c0,0.8-0.1,1.7-0.1,2.6c0,0.4,0,0.9,0,1.3c0,0.4,0,0.9-0.1,1.3
		c-0.1,0.2-0.2,0.5-0.3,0.6c-0.2,0.2-0.4,0.3-0.6,0.4c-0.2,0.1-0.5,0.2-0.7,0.2c-0.2,0-0.5,0.1-0.7,0.1c-0.5,0-0.9-0.1-1.3-0.3
		c-0.3-0.2-0.6-0.5-0.7-1.1c-0.4,0.4-0.8,0.7-1.3,0.8C105.6,124.7,105.1,124.8,104.6,124.8z M107.2,120.4c0-0.2,0-0.3,0-0.5
		s0-0.3,0-0.5c-0.2-0.2-0.5-0.4-0.8-0.5c-0.3-0.1-0.6-0.2-0.9-0.2c-0.2,0-0.4,0-0.5,0c-0.2,0-0.3,0.1-0.5,0.1
		c-0.2,0.1-0.3,0.2-0.4,0.3c-0.1,0.2-0.1,0.4-0.1,0.6c0,0.2,0,0.3,0.1,0.5c0.1,0.1,0.2,0.2,0.3,0.2c0.1,0,0.2,0.1,0.4,0.1h0.4
		c0.3,0,0.7,0,1,0C106.6,120.5,106.9,120.5,107.2,120.4z"/>
	<path class="st2" d="M96.3,121.2c0.2,0,0.4-0.1,0.6-0.2c0.2-0.1,0.5-0.2,0.7-0.2c0.1,0,0.2,0,0.3,0.1c0.1,0.1,0.1,0.2,0.2,0.3
		c0,0.1,0.1,0.2,0.1,0.4c0,0.1,0,0.2,0,0.3c0,0.8-0.2,1.5-0.6,2c-0.4,0.5-1,0.8-1.8,0.8c-1.1,0-1.9-0.2-2.5-0.7
		c-0.6-0.5-1-1.1-1.2-1.8c-0.2-0.8-0.4-1.6-0.4-2.5c0-0.9-0.1-1.8-0.1-2.6c0,0-0.1,0-0.1,0c0,0-0.1,0-0.1,0c-0.2,0-0.4-0.1-0.5-0.2
		c-0.1-0.1-0.2-0.3-0.3-0.5c-0.1-0.2-0.1-0.4-0.2-0.6c0-0.2-0.1-0.4-0.1-0.6c0-0.2-0.1-0.4-0.1-0.6c0-0.2,0-0.4,0-0.6
		c0-0.7,0.4-1.2,1.1-1.4c-0.1-0.3-0.2-0.7-0.2-1c0-0.4,0.1-0.8,0.3-1.1c0.2-0.3,0.4-0.6,0.7-0.8c0.3-0.2,0.7-0.3,1-0.4
		c0.4-0.1,0.7-0.1,1.1-0.1c0.3,0,0.5,0,0.8,0.1c0.3,0,0.6,0.1,0.9,0.2c0.3,0.1,0.5,0.3,0.7,0.5c0.2,0.2,0.3,0.4,0.3,0.7
		c0,0.3-0.1,0.7-0.2,1c-0.1,0.3-0.2,0.6-0.2,0.9c0.2-0.1,0.4-0.2,0.7-0.3c0.2-0.1,0.5-0.1,0.7-0.1c0.5,0,0.9,0.1,1.1,0.3
		c0.2,0.2,0.4,0.5,0.4,1.1c0,0.5-0.1,1.1-0.2,1.6c-0.1,0.4-0.3,0.7-0.6,1c-0.3,0.3-0.7,0.5-1.1,0.6c-0.5,0.1-1,0.2-1.5,0.2
		c0,0.6,0,1.1,0,1.7v1.7c0,0.2,0,0.4,0.1,0.6C95.9,121.1,96.1,121.2,96.3,121.2z"/>
	<path class="st2" d="M83.6,109c0.6,0,1.2,0,1.9,0.1c0.6,0,1.3,0.2,1.9,0.4c0.6,0.2,1,0.6,1.4,1c0.4,0.4,0.6,1.1,0.6,1.8
		c0,0.5-0.1,1-0.2,1.4c-0.2,0.7-0.4,1.4-0.8,2c-0.3,0.5-0.7,1-1.2,1.3c-0.5,0.3-1.1,0.6-1.6,0.7c-0.7,0.1-1.3,0.2-2,0.2
		c-0.4,0-0.7,0-1.1-0.1c-0.4,0-0.7-0.1-1.1-0.1c0,0.1-0.1,0.3-0.1,0.5c0,0.4,0.1,0.7,0.3,1c0.2,0.3,0.5,0.5,0.8,0.7
		c0.3,0.2,0.7,0.3,1,0.4c0.3,0.1,0.7,0.2,1,0.2c0.4,0,0.8-0.1,1.1-0.4c0.3-0.2,0.5-0.5,0.7-0.9c0.2-0.3,0.3-0.6,0.4-0.9
		s0.3-0.4,0.6-0.4c0.2,0,0.5,0,0.7,0.1c0.3,0.1,0.5,0.2,0.7,0.3c0.2,0.1,0.4,0.3,0.5,0.5c0.1,0.2,0.2,0.5,0.2,0.7
		c0,0.2,0,0.3-0.1,0.5c-0.2,0.7-0.5,1.3-0.9,1.8c-0.4,0.6-0.9,1-1.4,1.5c-0.5,0.4-1.1,0.7-1.8,1c-0.6,0.2-1.3,0.3-1.9,0.3
		c-1.1,0-2.1-0.3-2.9-0.9c-0.8-0.6-1.5-1.4-2-2.3c-0.5-0.9-0.9-2-1.1-3c-0.2-1-0.3-2.1-0.3-3.1c0-2.3,0.6-3.9,1.7-5
		S81.5,109,83.6,109z M81.6,114.9c0.3,0,0.6,0.1,0.9,0.1c0.3,0,0.6,0,0.9,0c0.2,0,0.4,0,0.6,0c0.2,0,0.4-0.1,0.7-0.1
		c0.2-0.1,0.4-0.2,0.5-0.3c0.2-0.1,0.2-0.3,0.2-0.6c0-0.2,0-0.3-0.2-0.4c-0.1-0.1-0.2-0.2-0.4-0.2c-0.1-0.1-0.3-0.1-0.4-0.1
		c-0.1,0-0.3,0-0.4,0c-0.3,0-0.5,0-0.8,0.1c-0.2,0.1-0.5,0.2-0.7,0.3c-0.2,0.1-0.4,0.3-0.5,0.5C81.7,114.4,81.6,114.7,81.6,114.9z"
		/>
	<path class="st2" d="M68.4,120.8c0,0.6,0,1.3-0.1,1.9c0,0.4-0.2,0.8-0.4,1.2c-0.2,0.3-0.6,0.5-1,0.6c-0.6,0.1-1.2,0.2-1.9,0.2
		c-0.3,0-0.5,0-0.8-0.1c-0.3,0-0.5-0.1-0.7-0.3c-0.2-0.1-0.3-0.3-0.4-0.6c-0.1-0.3-0.2-0.6-0.3-0.9c-0.1-0.3-0.1-0.6-0.1-1
		s0-0.6-0.1-0.7c-0.2-2.2-0.4-4.3-0.6-6.4c-0.2-2.1-0.3-4.3-0.3-6.5c0-0.8,0.1-1.6,0.3-2.4c0.1-0.5,0.4-0.9,0.9-1.2
		c0.5-0.3,1-0.4,1.5-0.4c0.6,0,1.4-0.1,2.3-0.1c0.8,0,1.6,0,2.4,0c0.8,0,1.6,0.1,2.4,0.1c0.8,0.1,1.5,0.2,2.3,0.4
		c0.6,0.1,1.2,0.4,1.6,0.8c0.5,0.4,0.8,0.9,1,1.5c0.3,0.8,0.4,1.6,0.3,2.4c0,1.2-0.1,2.4-0.4,3.6c-0.2,1.1-0.6,2.2-1.2,3.2
		c-0.5,0.9-1.3,1.7-2.2,2.3c-0.9,0.6-2,0.9-3.4,0.9h-0.6c-0.2,0-0.4-0.1-0.6-0.1C68.4,119.8,68.4,120.3,68.4,120.8z M67.9,110.5
		c0,1.1,0,2.2,0.1,3.3c0.3,0,0.7,0,1.1,0c0.4,0,0.7-0.1,1.1-0.2c0.3-0.1,0.6-0.3,0.8-0.6c0.2-0.3,0.4-0.8,0.3-1.2
		c0-0.4-0.1-0.7-0.3-1c-0.2-0.3-0.5-0.5-0.8-0.6c-0.3-0.1-0.7-0.2-1.1-0.2c-0.3,0-0.7-0.1-1-0.1c-0.1,0-0.2,0.1-0.2,0.2
		C68,110.3,67.9,110.4,67.9,110.5L67.9,110.5z"/>
	<path class="st2" d="M58.4,114.5c-0.2,0-0.4-0.1-0.6-0.2c-0.2-0.2-0.4-0.3-0.7-0.5c-0.3-0.2-0.6-0.4-0.9-0.5
		c-0.3-0.2-0.7-0.3-1.1-0.3c-0.2,0-0.5,0-0.7,0.2c-0.2,0.1-0.3,0.3-0.3,0.6c0,0.1,0,0.1,0.1,0.2c0.1,0,0.2,0.1,0.2,0.1
		c0.1,0,0.2,0.1,0.3,0.1l0.2,0.1c0.6,0.2,1.2,0.5,1.9,0.7c0.6,0.2,1.2,0.6,1.8,1c0.5,0.4,1,0.8,1.3,1.4c0.3,0.5,0.5,1.2,0.5,2
		c0,0.8-0.2,1.5-0.5,2.2c-0.3,0.7-0.7,1.2-1.3,1.7c-0.5,0.5-1.2,0.9-1.9,1.1c-0.7,0.2-1.4,0.4-2.2,0.4c-0.5,0-1-0.1-1.5-0.2
		c-0.5-0.1-1-0.3-1.4-0.6c-0.4-0.3-0.8-0.6-1.1-1c-0.3-0.4-0.6-0.9-0.8-1.4c-0.1-0.2-0.1-0.4-0.1-0.6c0-0.2,0-0.5,0.1-0.7
		c0.1-0.3,0.2-0.5,0.3-0.8c0.1-0.2,0.3-0.5,0.5-0.6c0.2-0.2,0.4-0.3,0.7-0.3c0.2,0,0.4,0.1,0.6,0.3c0.2,0.2,0.5,0.4,0.7,0.6
		c0.3,0.2,0.6,0.5,0.9,0.6c0.4,0.2,0.8,0.3,1.2,0.3c0.1,0,0.2,0,0.4,0c0.2,0,0.3,0,0.5-0.1c0.1,0,0.3-0.1,0.4-0.2
		c0.1-0.1,0.2-0.2,0.2-0.4c0,0,0-0.1-0.1-0.1c-0.1,0-0.1-0.1-0.2-0.1c-0.1,0-0.1-0.1-0.2-0.1c0,0-0.1,0-0.1,0l-1.3-0.4
		c-0.4-0.2-0.8-0.3-1.3-0.5c-0.5-0.3-1-0.6-1.5-0.9c-0.5-0.3-0.9-0.8-1.3-1.2c-0.3-0.5-0.6-1-0.8-1.5c-0.2-0.6-0.3-1.2-0.3-1.8
		c0-0.8,0.2-1.5,0.6-2.1c0.4-0.6,1-1,1.6-1.3c0.6-0.3,1.3-0.6,2-0.7c0.7-0.1,1.4-0.2,2.1-0.2c0.3,0,0.7,0,1,0.1
		c0.4,0.1,0.9,0.1,1.3,0.2c0.5,0.1,0.9,0.2,1.3,0.4c0.4,0.1,0.8,0.3,1.2,0.6c0.3,0.2,0.6,0.5,0.9,0.8c0.2,0.3,0.3,0.7,0.3,1
		c0,0.3-0.1,0.7-0.2,1c-0.2,0.3-0.4,0.6-0.7,0.8c-0.3,0.2-0.6,0.4-0.9,0.6C59,114.4,58.7,114.5,58.4,114.5z"/>
	<path class="st2" d="M30.6,124.3c-0.6,0.1-1.2-0.1-1.6-0.5c-0.2-0.2-0.3-0.5-0.5-1.1c-0.1-0.6-0.2-1.1-0.3-1.8s-0.2-1.2-0.3-1.8
		c-0.1-0.6-0.1-1-0.1-1.3l0-0.4l-2,0.3l-2,0.2l0.1,0.6c0,0.7,0.1,1.5,0.2,2.2c0.1,0.7,0,1.4-0.1,2.1c-0.1,0.6-0.4,1.2-0.9,1.6
		c-0.4,0.4-1.2,0.7-2.1,0.8c-0.6,0.1-1.1-0.1-1.6-0.3c-0.2-0.1-0.4-0.5-0.6-1.2c-0.2-0.7-0.4-1.4-0.5-2.2c-0.2-0.8-0.3-1.6-0.4-2.3
		c-0.1-0.7-0.2-1.3-0.2-1.5c-0.2-1.3-0.4-2.5-0.7-3.7c-0.3-1.2-0.5-2.5-0.6-3.7c-0.1-0.7-0.1-1.4,0-2c0-0.6,0.2-1.2,0.4-1.8
		c0.2-0.5,0.6-1,1.1-1.3c0.5-0.3,1.1-0.6,2-0.6c0.3,0,0.6,0,1,0c0.4,0,0.7,0.1,1.1,0.2c0.3,0.1,0.6,0.3,0.9,0.5
		c0.3,0.2,0.4,0.6,0.4,0.9c0.1,1,0.1,2,0.1,3c0,1,0,2,0.1,2.9c0.6-0.1,1.3-0.2,1.9-0.3c0.6-0.1,1.3-0.1,1.9-0.2
		c-0.1-0.7-0.3-1.5-0.5-2.2c-0.2-0.7-0.3-1.5-0.3-2.2c-0.1-0.9,0.1-1.7,0.5-2.4c0.5-0.7,1.2-1.1,2.1-1.2l1-0.1
		c0.6-0.1,1.1-0.1,1.5-0.1c0.4,0,0.7,0,1,0.2c0.3,0.2,0.5,0.4,0.6,0.8c0.2,0.5,0.3,1,0.3,1.6c0,0.5,0.1,0.9,0,1.4c0,0.4,0,0.9,0,1.4
		c0,1.4,0,2.8,0.1,4.2c0.1,1.4,0.1,2.8,0.1,4.2c0,0.6,0,1.1,0,1.7c0,0.6,0,1.1-0.1,1.7c0,0.5-0.1,1-0.2,1.6c0,0.4-0.2,0.8-0.4,1.1
		c-0.2,0.3-0.5,0.5-0.8,0.7C31.6,124.1,31.1,124.3,30.6,124.3z"/>
	<g>
		<path class="st2" d="M44.4,108.8c-0.9-0.2-1.8-0.3-2.8-0.3c-1,0-2,0.1-3,0.3c-0.8,0.2-1.5,0.6-2.2,1.1c-0.6,0.5-1.1,1.2-1.3,2
			c-0.3,0.8-0.4,1.9-0.4,3.1c0,0.4,0,0.8,0,1.2c0,0.4,0.1,0.8,0.1,1.2c0.1,1,0.3,2,0.6,2.9c0.2,0.8,0.6,1.6,1.1,2.3
			c0.5,0.7,1.2,1.2,1.9,1.6c0.8,0.4,1.7,0.6,2.9,0.6c1.2,0,2.2-0.2,3-0.7c0.8-0.4,1.4-1.1,1.9-1.8c0.5-0.8,0.9-1.7,1.1-2.6
			c0.2-1,0.4-2.1,0.5-3.1c0.1-0.7,0.1-1.5,0.1-2.2c0-1.2-0.1-2.1-0.4-2.8c-0.2-0.7-0.7-1.3-1.3-1.8
			C45.8,109.2,45.1,108.9,44.4,108.8z"/>
		<path class="st5" d="M42.3,112.4c-0.2-0.1-0.4-0.1-0.7-0.1c-0.3,0-0.6,0-0.9,0.1c-0.5,0.2-0.7,0.7-0.9,1.1c-0.1,0.5-0.2,1-0.2,1.5
			c-0.5,0-0.9,0-1.4,0.2c-0.4,0.1-0.8,0.4-1.1,0.8c-0.3,0.6-0.2,1.4,0.3,1.9c0.5,0.5,1.2,0.7,1.9,0.6c0.1,0,0.2,0,0.2,0.1
			c0,0,0,0.1,0,0.1l0.2,1.2c0.1,0.3,0.1,0.7,0.4,1c0.3,0.3,0.7,0.3,1.1,0.4c0.3,0,0.7,0,1-0.2c0.2-0.2,0.3-0.4,0.4-0.6
			c0.2-0.6,0.3-1.3,0.2-2c0.6,0,1.4-0.1,2-0.3c0.5-0.2,0.6-0.7,0.6-1.2s0.1-1.1-0.3-1.4c-0.2-0.2-0.6-0.3-0.9-0.3
			c-0.5-0.1-0.9-0.1-1.4-0.1c0-0.6,0-1.3-0.2-1.9C42.8,112.9,42.6,112.6,42.3,112.4C42.4,112.5,42.4,112.4,42.3,112.4z"/>
	</g>
</g>
</svg>
