<svg width="140" height="140" viewBox="0 0 140 140" fill="none" xmlns="http://www.w3.org/2000/svg">
<path d="M70.1873 48.7576C62.0788 39.4404 62.207 25.1738 63.2876 19.2218C66.7352 18.187 71.4831 23.5347 73.4198 26.3367C75.0748 23.9031 77.2945 21.9065 79.8892 20.5175C77.9525 17.4957 76.6568 12.7341 76.4416 10.1655C110.084 16.374 116.769 43.6617 115.904 56.5319C116.078 79.6486 99.5858 92.473 91.3216 95.9938C95.978 89.6114 96.1382 74.6444 95.6346 67.9598C95.6346 60.1763 91.0561 58.5418 88.7348 58.6883C79.8892 57.5987 73.6395 52.6447 70.1873 48.7576Z" fill="#FFC26F"/>
<path fill-rule="evenodd" clip-rule="evenodd" d="M74.9943 8.558C75.2384 8.33541 75.5309 8.17244 75.8486 8.08188C76.1664 7.99132 76.5008 7.97563 76.8257 8.03605C94.2239 11.241 104.846 19.9767 110.935 29.6969C116.952 39.3117 118.499 49.7552 118.055 56.5818C118.201 80.7974 100.931 94.2307 92.159 97.9667C91.7247 98.1517 91.2416 98.189 90.784 98.073C90.3264 97.9569 89.9195 97.6939 89.6258 97.3243C89.332 96.9547 89.1677 96.4989 89.1581 96.0269C89.1484 95.5549 89.2939 95.0928 89.5722 94.7114C91.5363 92.0238 92.7084 87.1981 93.2624 81.855C93.7162 77.2905 93.7882 72.6961 93.4776 68.1196C93.4776 68.0646 93.4776 68.0142 93.4776 67.9593C93.4776 64.5163 92.4703 62.7856 91.5592 61.9203C91.2047 61.5704 90.7841 61.2947 90.3219 61.1091C89.8596 60.9236 89.3651 60.832 88.8671 60.8398C88.7346 60.8512 88.6013 60.8512 88.4687 60.8398C78.9455 59.6768 72.2472 54.3429 68.5752 50.2131C64.1616 45.1447 62.0554 38.8172 61.1718 33.0987C60.4258 28.3847 60.4258 23.5827 61.1718 18.8688C61.2433 18.4776 61.4213 18.1138 61.6863 17.8173C61.9513 17.5209 62.2929 17.3033 62.6735 17.1884C64.0778 16.8123 65.5693 16.9386 66.8903 17.5456C68.1278 18.0846 69.2787 18.8035 70.3059 19.6791C71.4411 20.6454 72.4933 21.7052 73.4513 22.8475C74.504 21.6702 75.6955 20.6248 76.9996 19.7341C75.5853 16.7713 74.6695 13.5954 74.2892 10.3345C74.2623 10.0041 74.3119 9.67194 74.4342 9.36385C74.5564 9.05575 74.7481 8.78 74.9943 8.558ZM79.1149 12.9213C79.6496 15.1752 80.5201 17.336 81.6972 19.3312C81.8625 19.5822 81.9736 19.8649 82.0234 20.1613C82.0732 20.4577 82.0607 20.7613 81.9866 21.0525C81.9125 21.3438 81.7784 21.6164 81.593 21.853C81.4076 22.0895 81.1748 22.2847 80.9097 22.4262C78.6089 23.6605 76.6431 25.4362 75.182 27.5999C74.9802 27.8809 74.714 28.1093 74.4056 28.266C74.0972 28.4227 73.7557 28.503 73.4099 28.5003C73.064 28.4977 72.7238 28.412 72.4179 28.2505C72.112 28.089 71.8493 27.8565 71.652 27.5725C70.4732 25.8816 69.0891 24.3437 67.5313 22.994C66.844 22.3864 66.0731 21.8807 65.2421 21.4922L65.1597 21.4602C64.7876 25.1063 64.8814 28.7849 65.439 32.4073C66.2493 37.636 68.1311 43.0935 71.8488 47.3424C75.0538 50.9456 80.7998 55.4875 88.8625 56.4993C90.9925 56.4824 93.0436 57.3048 94.5719 58.7886C96.5269 60.6429 97.8134 63.596 97.8318 67.8723C98.1518 72.6825 98.0737 77.5109 97.5983 82.3083C97.3263 85.2094 96.7977 88.0806 96.0187 90.8884C103.985 85.3484 113.921 74.0533 113.788 56.5497C113.788 56.4948 113.788 56.4444 113.788 56.3895C114.195 50.3504 112.817 40.7722 107.318 31.9999C102.19 23.8547 93.4959 16.314 79.1241 12.9213H79.1149Z" fill="#1C1B1F"/>
<path d="M78.7183 32.0821C78.399 32.2336 78.1319 32.4764 77.9507 32.7798C77.7696 33.0833 77.6825 33.4337 77.7006 33.7866C77.7187 34.1395 77.8411 34.4792 78.0523 34.7625C78.2635 35.0458 78.5541 35.2601 78.8872 35.3782C79.2203 35.4963 79.5809 35.5129 79.9235 35.4259C80.266 35.3389 80.575 35.1522 80.8113 34.8895C81.0477 34.6267 81.2008 34.2998 81.2512 33.95C81.3016 33.6002 81.2471 33.2433 81.0945 32.9245C80.8896 32.4991 80.5249 32.1718 80.0799 32.014C79.6348 31.8562 79.1454 31.8807 78.7183 32.0821Z" fill="#1C1B1F"/>
<path d="M88.4224 28.182C88.2703 27.8643 88.0273 27.5989 87.7244 27.4194C87.4214 27.2398 87.072 27.154 86.7203 27.173C86.3686 27.192 86.0304 27.3148 85.7485 27.5259C85.4666 27.7371 85.2536 28.027 85.1365 28.3592C85.0194 28.6913 85.0034 29.0508 85.0905 29.392C85.1776 29.7333 85.364 30.041 85.626 30.2764C85.888 30.5118 86.2139 30.6642 86.5625 30.7143C86.9112 30.7645 87.2668 30.7102 87.5846 30.5582C87.7957 30.4573 87.9848 30.3157 88.1412 30.1416C88.2975 29.9676 88.4181 29.7644 88.4959 29.5437C88.5737 29.323 88.6072 29.0892 88.5946 28.8555C88.582 28.6219 88.5235 28.393 88.4224 28.182Z" fill="#1C1B1F"/>
<path d="M55.2695 59.5122C54.8213 59.7258 54.4466 60.0675 54.1927 60.4941C53.9389 60.9207 53.8173 61.413 53.8433 61.9088C53.8694 62.4046 54.0419 62.8814 54.3391 63.2791C54.6363 63.6768 55.0447 63.9773 55.5128 64.1428C55.9809 64.3082 56.4875 64.331 56.9685 64.2084C57.4496 64.0858 57.8835 63.8232 58.2152 63.454C58.547 63.0847 58.7618 62.6253 58.8324 62.1339C58.903 61.6425 58.8262 61.1412 58.6118 60.6934C58.4701 60.3962 58.2712 60.1299 58.0265 59.9096C57.7817 59.6893 57.496 59.5195 57.1856 59.4097C56.8751 59.3 56.5461 59.2526 56.2173 59.2702C55.8885 59.2878 55.5664 59.37 55.2695 59.5122Z" fill="#1C1B1F"/>
<path d="M68.4595 53.3901C68.2459 52.9419 67.9042 52.5672 67.4776 52.3133C67.051 52.0595 66.5586 51.9379 66.0629 51.9639C65.5671 51.99 65.0903 52.1625 64.6926 52.4597C64.2949 52.7569 63.9944 53.1653 63.8289 53.6334C63.6635 54.1015 63.6407 54.6081 63.7633 55.0891C63.8859 55.5702 64.1484 56.0041 64.5177 56.3359C64.887 56.6676 65.3464 56.8824 65.8378 56.953C66.3292 57.0236 66.8305 56.9468 67.2783 56.7324C67.8768 56.4444 68.3371 55.9312 68.5584 55.3049C68.7797 54.6786 68.7442 53.9902 68.4595 53.3901Z" fill="#1C1B1F"/>
<path d="M47.1105 67.2963C28.6501 54.7009 29.932 37.7513 32.876 30.8516C28.7554 34.4731 25.9762 45.7271 25.0926 50.9053C23.22 73.5139 35.4674 89.5157 45.8148 93.8516C47.9713 94.7673 50.1278 95.1473 50.9931 94.9321C59.9623 94.4101 61.3542 85.8713 60.9147 83.0692C59.8982 76.5769 51.7852 69.8191 47.1105 67.2963Z" fill="#FF9B50"/>
<path fill-rule="evenodd" clip-rule="evenodd" d="M34.1444 29.1109C34.5405 29.3983 34.8272 29.8116 34.9578 30.2832C35.0884 30.7548 35.0551 31.2567 34.8633 31.7069C32.2535 37.81 30.8617 53.56 48.237 65.4641C51.4373 67.2877 54.3656 69.5518 56.9362 72.1899C59.7748 75.1064 62.4303 78.8104 63.053 82.7204C63.346 84.5838 63.053 87.9078 61.3773 90.8884C59.6604 93.9835 56.492 96.7077 51.3046 97.0602C50.3659 97.1749 49.4144 97.1238 48.4934 96.9091C47.3021 96.6593 46.137 96.2976 45.0138 95.8286C33.6545 91.1036 20.9996 74.1357 22.9638 50.7305C22.9638 50.6756 22.9638 50.616 22.9867 50.5565C23.6301 46.846 24.5483 43.1884 25.7338 39.6139C26.3858 37.618 27.1878 35.6742 28.1329 33.7992C28.9577 32.084 30.0871 30.5327 31.466 29.2208C31.8346 28.9029 32.2998 28.719 32.7861 28.6991C33.2724 28.6791 33.7511 28.8243 34.1444 29.1109ZM27.2767 51.1838C25.4819 72.9316 37.3082 87.9399 46.6666 91.8362C47.5219 92.1973 48.4095 92.4763 49.3176 92.6694C49.6195 92.7338 49.9254 92.7781 50.2333 92.8022C50.32 92.8109 50.4075 92.8109 50.4942 92.8022C50.6137 92.7784 50.7345 92.7616 50.8559 92.7519C54.5187 92.5412 56.4875 90.7602 57.5817 88.7869C58.4957 87.1387 58.9079 85.2592 58.7676 83.3797C58.3646 80.8157 56.4783 77.9084 53.8228 75.1979C51.5485 72.845 48.9527 70.8257 46.1126 69.2001C46.0454 69.1674 45.9811 69.1291 45.9203 69.0857C34.1811 61.0733 29.9506 51.2982 29.1631 43.1165C28.3729 45.7665 27.7369 48.4601 27.2584 51.1838H27.2767Z" fill="#1C1B1F"/>
<path d="M71.7009 75.3863C74.4479 77.0895 77.9734 75.3863 79.6857 74.4248C79.7789 74.3749 79.8664 74.3151 79.9467 74.2463C83.028 71.7281 82.4374 68.5873 81.0181 67.3465C77.6254 64.3705 72.2961 67.2183 71.0278 69.8967C69.7596 72.5751 70.8355 74.6721 71.7009 75.3863Z" fill="#FF9B50"/>
<path fill-rule="evenodd" clip-rule="evenodd" d="M86.8626 71.2422C86.6509 71.1611 86.4254 71.1224 86.1988 71.1284C85.9722 71.1344 85.749 71.185 85.542 71.2772C85.3349 71.3695 85.1481 71.5016 84.9921 71.6661C84.8361 71.8305 84.714 72.0241 84.6329 72.2358C84.4594 72.6379 84.1923 72.9928 83.8538 73.2708C83.5153 73.5487 83.1152 73.7417 82.687 73.8337C84.6741 70.9858 84.0606 67.7122 82.1788 66.0502C79.8621 64.022 76.9593 64.0723 74.6747 64.8781C72.39 65.684 70.3709 67.3002 69.4918 69.159C67.8802 72.5608 69.1438 75.514 70.6364 76.7273L70.7188 76.7959L70.815 76.8555C71.6643 77.3487 72.6033 77.6679 73.5772 77.7944C74.5512 77.921 75.5406 77.8524 76.4877 77.5926C76.8403 77.5102 77.1837 77.4095 77.5133 77.2996C77.4534 77.4329 77.3862 77.5629 77.3119 77.6887C76.8942 78.3643 76.3575 78.9584 75.7277 79.4423C71.781 81.3149 69.4598 79.4927 68.8966 78.7281C68.6212 78.3704 68.2167 78.1348 67.7697 78.0718C67.3227 78.0088 66.8688 78.1234 66.5053 78.3911C66.1418 78.6588 65.8976 79.0582 65.8251 79.5037C65.7526 79.9493 65.8576 80.4055 66.1175 80.7746C67.5872 82.7709 71.7261 85.2524 77.3805 82.4733L77.5087 82.4092L77.6232 82.3268C78.686 81.5542 79.5867 80.5804 80.2741 79.4606C80.6692 78.8093 80.9553 78.098 81.1212 77.3545C81.9337 77.4436 82.7555 77.3862 83.5478 77.1851C84.5106 76.9575 85.4045 76.5018 86.1543 75.8564C86.9041 75.211 87.4878 74.3948 87.8561 73.4765C87.938 73.2646 87.9772 73.0386 87.9716 72.8115C87.9659 72.5844 87.9155 72.3607 87.8232 72.1531C87.7309 71.9455 87.5985 71.7582 87.4337 71.6019C87.2689 71.4456 87.0748 71.3234 86.8626 71.2422ZM72.7471 73.9893C72.4312 73.6551 71.7444 72.451 72.6052 70.6333C72.9898 69.8137 74.2122 68.692 75.8101 68.1289C77.408 67.5657 78.8182 67.6985 79.8941 68.6417C80.2925 68.9896 80.8098 70.1159 80.1139 71.4528C79.9857 70.8948 79.9409 70.3208 79.9811 69.7496C79.9981 69.4643 79.9011 69.1839 79.7113 68.9701C79.5215 68.7563 79.2546 68.6266 78.9693 68.6096C78.6839 68.5926 78.4035 68.6897 78.1897 68.8794C77.9759 69.0692 77.8462 69.3361 77.8292 69.6215C77.7329 70.8281 77.9439 72.0394 78.4427 73.1423C78.3512 73.1973 78.2505 73.2476 78.1497 73.298C77.9295 73.0424 77.6874 72.8065 77.4263 72.5929C76.7909 72.0879 76.1014 71.6549 75.3706 71.3018C75.2418 71.2293 75.0994 71.1842 74.9524 71.1693C74.8054 71.1543 74.6569 71.1697 74.5162 71.2147C74.3754 71.2596 74.2454 71.333 74.1343 71.4304C74.0231 71.5278 73.9332 71.647 73.8702 71.7806C73.8072 71.9143 73.7723 72.0595 73.7679 72.2072C73.7634 72.3549 73.7894 72.5019 73.8443 72.6391C73.8991 72.7763 73.9816 72.9007 74.0867 73.0046C74.1918 73.1085 74.3171 73.1897 74.4549 73.243C74.9838 73.4991 75.4868 73.8058 75.9566 74.1587L75.7277 74.2182C74.7363 74.5213 73.6672 74.4396 72.7334 73.9893H72.7471Z" fill="#1C1B1F"/>
<path fill-rule="evenodd" clip-rule="evenodd" d="M96.2869 34.5452C96.2141 34.3912 96.1118 34.2532 95.9856 34.1388C95.8595 34.0244 95.7121 33.936 95.5518 33.8786C95.3916 33.8212 95.2215 33.796 95.0515 33.8043C94.8814 33.8126 94.7147 33.8543 94.5608 33.9271C94.4069 33.9998 94.2688 34.1022 94.1544 34.2283C94.04 34.3544 93.9516 34.5018 93.8942 34.6621C93.8369 34.8224 93.8116 34.9924 93.8199 35.1624C93.8282 35.3325 93.8699 35.4992 93.9427 35.6532C94.1899 36.1751 94.1441 37.4846 92.7706 38.9268C92.1924 39.3777 91.4801 39.6226 90.7469 39.6227C90.3354 39.6042 89.938 39.4675 89.6023 39.229C89.9701 38.6203 90.2144 37.945 90.3211 37.2419V37.1686V37.0771C90.3497 36.5385 90.2191 36.0035 89.9457 35.5387C89.7449 35.2272 89.4833 34.9595 89.1764 34.7518C88.8695 34.5441 88.5238 34.4006 88.1601 34.33C87.162 34.1711 86.1403 34.3845 85.2893 34.9298C84.3361 35.4567 83.6094 36.3153 83.2473 37.3426C83.0907 37.8474 83.1052 38.3898 83.2885 38.8856C83.4175 39.2648 83.6242 39.613 83.8954 39.9079C84.1666 40.2027 84.4964 40.4377 84.8635 40.5979C85.4744 40.8401 86.1248 40.9674 86.7819 40.9734H86.8598C86.8322 41.6481 86.6768 42.3115 86.4019 42.9284C86.228 43.3383 85.9344 43.6862 85.5595 43.9265C85.0858 44.1707 84.5417 44.2419 84.0211 44.1279C83.8527 44.1039 83.6813 44.1132 83.5166 44.1554C83.3518 44.1976 83.197 44.2719 83.061 44.3739C82.9249 44.476 82.8103 44.6038 82.7237 44.7501C82.637 44.8965 82.58 45.0584 82.556 45.2268C82.5319 45.3951 82.5413 45.5666 82.5835 45.7313C82.6257 45.896 82.6999 46.0509 82.802 46.1869C82.904 46.323 83.0318 46.4376 83.1782 46.5242C83.3245 46.6109 83.4865 46.6678 83.6548 46.6919C84.6825 46.9119 85.7547 46.7683 86.6882 46.2856C87.6218 45.803 88.3589 45.0112 88.7736 44.0455C89.071 43.3954 89.2745 42.7063 89.3779 41.9989C89.7895 42.1346 90.2178 42.2132 90.6507 42.2324C92.0145 42.2554 93.3447 41.8093 94.4188 40.9688L94.5013 40.9047L94.5791 40.8268C96.3968 38.9085 97.1843 36.4452 96.2869 34.5452ZM85.825 38.1393C85.8034 38.1147 85.7891 38.0846 85.7838 38.0523C85.7811 38.0056 85.7878 37.9588 85.8035 37.9148C85.8192 37.8707 85.8437 37.8303 85.8754 37.7959C86.2397 37.3074 86.771 36.9701 87.368 36.8481C87.5007 36.8207 87.6702 36.8207 87.7388 36.9397C87.7557 36.9803 87.7644 37.0239 87.7644 37.0679C87.7644 37.1119 87.7557 37.1555 87.7388 37.1961C87.5832 37.6906 87.281 38.3865 86.6583 38.3819C86.4633 38.3729 86.2705 38.3359 86.086 38.2721C85.9879 38.2541 85.8973 38.208 85.825 38.1393Z" fill="#1C1B1F"/>
<path fill-rule="evenodd" clip-rule="evenodd" d="M97.1072 23.7999C96.818 23.616 96.4677 23.5543 96.1331 23.6281C95.7984 23.7019 95.5066 23.9052 95.3216 24.1936L92.2403 29.0377C92.1357 29.1806 92.0617 29.3435 92.0228 29.5162C91.9839 29.689 91.9809 29.8679 92.0141 30.0418C92.0472 30.2158 92.1158 30.381 92.2156 30.5273C92.3153 30.6736 92.4441 30.7978 92.5939 30.8922C92.7437 30.9867 92.9114 31.0493 93.0864 31.0761C93.2614 31.103 93.4401 31.0936 93.6113 31.0485C93.7825 31.0034 93.9427 30.9235 94.0817 30.8139C94.2208 30.7043 94.3358 30.5672 94.4196 30.4112L97.5055 25.5718C97.6858 25.2835 97.7451 24.9357 97.6705 24.604C97.5959 24.2722 97.3935 23.9833 97.1072 23.7999Z" fill="#1C1B1F"/>
<path fill-rule="evenodd" clip-rule="evenodd" d="M101.768 28.2176C101.683 28.0881 101.573 27.9772 101.443 27.8916C101.314 27.8061 101.169 27.7476 101.017 27.7198C100.864 27.692 100.708 27.6954 100.557 27.7298C100.406 27.7642 100.263 27.8289 100.138 27.92L95.7884 31.0059C95.5313 31.191 95.3562 31.4687 95.2998 31.7804C95.2434 32.0922 95.3103 32.4136 95.4863 32.6771C95.5694 32.8065 95.6779 32.9179 95.8051 33.0043C95.9324 33.0907 96.0759 33.1505 96.2269 33.18C96.3779 33.2095 96.5334 33.2082 96.6838 33.176C96.8343 33.1439 96.9767 33.0816 97.1025 32.993L101.452 29.9071C101.715 29.7229 101.896 29.4428 101.955 29.1269C102.014 28.811 101.947 28.4845 101.768 28.2176Z" fill="#1C1B1F"/>
<path fill-rule="evenodd" clip-rule="evenodd" d="M70.8736 40.7815C70.8373 40.6094 70.8364 40.4318 70.871 40.2594C70.9055 40.0869 70.9748 39.9234 71.0746 39.7786C71.1744 39.6338 71.3026 39.5109 71.4515 39.4172C71.6003 39.3236 71.7667 39.2612 71.9404 39.234L76.5738 38.2725C76.9268 38.1868 77.2991 38.2397 77.6143 38.4203C77.9294 38.6008 78.1633 38.8953 78.2679 39.2431C78.3049 39.4155 78.3063 39.5936 78.2721 39.7666C78.2379 39.9395 78.1687 40.1037 78.0688 40.249C77.969 40.3943 77.8405 40.5177 77.6913 40.6116C77.5421 40.7055 77.3753 40.768 77.2011 40.7952L72.5677 41.7567C72.2142 41.841 71.8418 41.787 71.5269 41.6057C71.2119 41.4244 70.9782 41.1295 70.8736 40.7815Z" fill="#1C1B1F"/>
<path fill-rule="evenodd" clip-rule="evenodd" d="M73.1481 46.2985C73.0637 46.1664 73.0065 46.0188 72.9799 45.8643C72.9534 45.7099 72.9579 45.5517 72.9933 45.399C73.0287 45.2463 73.0942 45.1022 73.1861 44.9752C73.2779 44.8482 73.3942 44.7408 73.5282 44.6594L78.038 41.8756C78.3082 41.7069 78.634 41.6511 78.9449 41.7205C79.2559 41.7899 79.5271 41.9788 79.7 42.2465C79.7842 42.3788 79.8411 42.5267 79.8673 42.6813C79.8936 42.836 79.8886 42.9943 79.8528 43.147C79.817 43.2998 79.751 43.4438 79.6587 43.5706C79.5664 43.6974 79.4497 43.8045 79.3154 43.8856L74.8101 46.6922C74.5371 46.8589 74.2094 46.9111 73.8981 46.8373C73.5869 46.7636 73.3173 46.5699 73.1481 46.2985Z" fill="#1C1B1F"/>
<path d="M109.063 131.68C108.046 131.68 107.421 131.018 107.421 129.964C107.421 128.934 108.052 128.242 109.023 128.242C109.9 128.242 110.585 128.793 110.585 129.927V130.184H108.31C108.31 130.687 108.61 130.999 109.076 130.999C109.201 131.01 109.326 130.984 109.436 130.924C109.547 130.864 109.637 130.773 109.696 130.663H110.56C110.435 131.275 109.884 131.68 109.063 131.68ZM108.31 129.615H109.726C109.731 129.523 109.716 129.431 109.684 129.346C109.651 129.26 109.6 129.182 109.536 129.116C109.471 129.051 109.393 129 109.308 128.967C109.222 128.933 109.131 128.917 109.039 128.921C108.851 128.917 108.668 128.987 108.531 129.117C108.395 129.247 108.315 129.426 108.31 129.615Z" fill="#666666"/>
<path d="M104.259 131.68C103.242 131.68 102.628 130.975 102.628 129.958C102.628 128.94 103.246 128.242 104.259 128.242C105.116 128.242 105.701 128.743 105.735 129.504H104.884C104.872 129.351 104.801 129.208 104.687 129.104C104.573 129 104.424 128.944 104.27 128.947C103.836 128.947 103.548 129.314 103.548 129.945C103.548 130.576 103.83 130.956 104.27 130.956C104.424 130.96 104.573 130.906 104.687 130.803C104.802 130.7 104.872 130.558 104.884 130.405H105.735C105.693 131.159 105.14 131.68 104.259 131.68Z" fill="#666666"/>
<path d="M99.8975 131.613V128.285H100.804V131.613H99.8975ZM100.351 127.849C100.261 127.844 100.174 127.812 100.101 127.758C100.029 127.704 99.9735 127.63 99.9427 127.544C99.9119 127.459 99.9067 127.367 99.9278 127.279C99.9489 127.191 99.9953 127.111 100.061 127.049C100.127 126.987 100.21 126.946 100.299 126.931C100.389 126.915 100.48 126.926 100.563 126.962C100.646 126.999 100.717 127.058 100.766 127.134C100.816 127.21 100.842 127.299 100.841 127.389C100.836 127.515 100.781 127.633 100.69 127.719C100.598 127.805 100.476 127.852 100.351 127.849Z" fill="#666666"/>
<path d="M98.2022 128.285L97.0325 131.613H96.0151L94.8535 128.285H95.8148L96.5134 130.674H96.5503L97.2504 128.285H98.2022Z" fill="#666666"/>
<path d="M91.3076 131.613V128.285H92.184V128.86H92.2209C92.2616 128.679 92.3636 128.518 92.5097 128.404C92.6558 128.29 92.8368 128.231 93.022 128.235C93.1184 128.236 93.2144 128.246 93.3088 128.266V129.075C93.1824 129.043 93.0528 129.027 92.9227 129.025C92.8296 129.021 92.7367 129.035 92.6496 129.068C92.5626 129.102 92.4833 129.152 92.4167 129.217C92.3501 129.282 92.2976 129.361 92.2625 129.447C92.2275 129.533 92.2106 129.626 92.2129 129.719V131.613H91.3076Z" fill="#666666"/>
<path d="M87.9626 131.68C86.9452 131.68 86.3203 131.018 86.3203 129.964C86.3203 128.934 86.9516 128.242 87.9225 128.242C88.7989 128.242 89.4847 128.793 89.4847 129.927V130.184H87.2079C87.2079 130.687 87.5092 130.999 87.9754 130.999C88.1001 131.01 88.2251 130.983 88.335 130.923C88.4449 130.864 88.5349 130.773 88.5939 130.663H89.4575C89.3293 131.275 88.7781 131.68 87.9626 131.68ZM87.2144 129.615H88.6307C88.6352 129.523 88.6206 129.432 88.5879 129.346C88.5551 129.26 88.5049 129.182 88.4404 129.117C88.3759 129.052 88.2986 129.001 88.2133 128.967C88.128 128.933 88.0366 128.918 87.945 128.921C87.851 128.918 87.7573 128.934 87.6694 128.967C87.5814 129 87.5009 129.05 87.4324 129.115C87.364 129.179 87.3089 129.257 87.2704 129.342C87.2319 129.428 87.2106 129.521 87.2079 129.615H87.2144Z" fill="#666666"/>
<path d="M83.6678 128.443C83.631 128.093 83.3474 127.885 82.902 127.885C82.4566 127.885 82.1794 128.1 82.173 128.393C82.173 128.713 82.503 128.859 82.8844 128.946L83.2817 129.044C84.0428 129.215 84.6116 129.601 84.6116 130.343C84.6116 131.158 83.9707 131.673 82.8956 131.673C81.8205 131.673 81.1331 131.176 81.1123 130.231H82.0079C82.0384 130.678 82.3941 130.905 82.8844 130.905C83.3746 130.905 83.6855 130.678 83.6855 130.348C83.6855 130.047 83.4099 129.906 82.926 129.784L82.4454 129.667C81.6987 129.483 81.2389 129.109 81.2389 128.46C81.2389 127.651 81.9503 127.118 82.918 127.118C83.8857 127.118 84.5475 127.662 84.5603 128.448L83.6678 128.443Z" fill="#666666"/>
<path d="M76.5865 127.174V131.612H75.6797V127.174H76.5865Z" fill="#666666"/>
<path d="M70.7578 130.68C70.7578 129.938 71.3586 129.693 71.9963 129.656C72.2351 129.642 72.6821 129.62 72.8231 129.615V129.344C72.8231 129.068 72.6276 128.903 72.2895 128.903C71.9835 128.903 71.788 129.044 71.7384 129.27H70.8748C70.9292 128.695 71.4323 128.242 72.3168 128.242C73.0394 128.242 73.7251 128.562 73.7251 129.363V131.606H72.8679V131.147H72.8439C72.6837 131.453 72.3632 131.667 71.8681 131.667C71.2305 131.674 70.7578 131.34 70.7578 130.68ZM71.6278 130.656C71.6278 130.914 71.8361 131.049 72.1245 131.049C72.5347 131.049 72.8295 130.773 72.8231 130.422V130.179C72.6853 130.179 72.2991 130.206 72.1437 130.22C71.8297 130.251 71.6278 130.398 71.6278 130.656Z" fill="#666666"/>
<path d="M67.6148 131.68C66.5974 131.68 65.9854 130.975 65.9854 129.958C65.9854 128.94 66.6038 128.242 67.6148 128.242C68.4736 128.242 69.0568 128.743 69.092 129.504H68.2557C68.2435 129.351 68.1732 129.208 68.0592 129.104C67.9452 129 67.796 128.944 67.642 128.947C67.2062 128.947 66.9194 129.314 66.9194 129.945C66.9194 130.576 67.2014 130.956 67.642 130.956C67.7956 130.96 67.9449 130.906 68.0592 130.803C68.1735 130.7 68.2438 130.558 68.2557 130.405H69.1065C69.0568 131.159 68.504 131.68 67.6148 131.68Z" fill="#666666"/>
<path d="M63.2588 131.613V128.285H64.1656V131.613H63.2588ZM63.7122 127.849C63.6219 127.844 63.535 127.812 63.4625 127.758C63.3899 127.704 63.3349 127.63 63.3041 127.544C63.2733 127.459 63.2681 127.367 63.2892 127.279C63.3102 127.191 63.3567 127.111 63.4227 127.049C63.4887 126.987 63.5715 126.946 63.6607 126.931C63.7499 126.915 63.8416 126.926 63.9246 126.962C64.0076 126.999 64.0781 127.058 64.1275 127.134C64.1769 127.21 64.203 127.299 64.2025 127.389C64.1971 127.515 64.1427 127.633 64.0511 127.719C63.9595 127.805 63.8378 127.852 63.7122 127.849Z" fill="#666666"/>
<path d="M59.3929 131.661C58.6335 131.661 58.0391 131.053 58.0391 129.945C58.0391 128.805 58.6575 128.235 59.3929 128.235C59.5929 128.226 59.7908 128.279 59.9596 128.386C60.1285 128.494 60.2601 128.651 60.3366 128.836H60.3671V127.174H61.2739V131.612H60.3799V131.079H60.3366C60.2562 131.26 60.1231 131.412 59.9547 131.516C59.7863 131.619 59.5905 131.67 59.3929 131.661ZM59.6749 130.938C60.1284 130.938 60.3847 130.539 60.3847 129.938C60.3847 129.337 60.1284 128.958 59.6749 128.958C59.2215 128.958 58.97 129.357 58.97 129.938C58.97 130.52 59.2151 130.944 59.6749 130.944V130.938Z" fill="#666666"/>
<path d="M54.8151 131.68C53.7977 131.68 53.1729 131.018 53.1729 129.964C53.1729 128.934 53.8041 128.242 54.7751 128.242C55.6515 128.242 56.3388 128.793 56.3388 129.927V130.184H54.0685C54.0685 130.687 54.3681 130.999 54.8344 130.999C54.959 131.01 55.084 130.983 55.1939 130.923C55.3038 130.864 55.3938 130.773 55.4528 130.663H56.3164C56.1882 131.275 55.6371 131.68 54.8151 131.68ZM54.0685 129.615H55.4832C55.4878 129.523 55.4731 129.431 55.4403 129.346C55.4074 129.26 55.3571 129.182 55.2924 129.116C55.2277 129.051 55.1502 129 55.0647 128.967C54.9792 128.933 54.8877 128.917 54.7959 128.921C54.6076 128.917 54.4254 128.988 54.2891 129.118C54.1529 129.248 54.0735 129.427 54.0685 129.615Z" fill="#666666"/>
<path d="M46.5322 127.174H47.673L48.9051 130.183H48.9532L50.1853 127.174H51.3261V131.612H50.4304V128.708H50.3936L49.2352 131.592H48.6231L47.4647 128.693H47.4279V131.612H46.5322V127.174Z" fill="#666666"/>
<path d="M41.9872 128.285V128.964H41.3623V130.588C41.3623 130.851 41.4905 130.919 41.6828 130.925C41.7741 130.925 41.9343 130.925 42.0433 130.907V131.624C41.8842 131.648 41.7234 131.658 41.5626 131.654C40.9073 131.654 40.4603 131.361 40.4667 130.717V128.964H40.0068V128.285H40.4667V127.483H41.3735V128.285H41.9872Z" fill="#666666"/>
<path d="M36.8825 131.68C35.8651 131.68 35.2402 131.018 35.2402 129.964C35.2402 128.934 35.8715 128.242 36.8425 128.242C37.7189 128.242 38.4062 128.793 38.4062 129.927V130.184H36.1359C36.1359 130.687 36.4355 130.999 36.9017 130.999C37.0264 131.01 37.1514 130.983 37.2613 130.923C37.3712 130.864 37.4612 130.773 37.5202 130.663H38.3838C38.2556 131.275 37.7044 131.68 36.8825 131.68ZM36.1359 129.615H37.5506C37.5551 129.523 37.5405 129.432 37.5078 129.346C37.475 129.26 37.4248 129.182 37.3603 129.117C37.2958 129.052 37.2185 129.001 37.1332 128.967C37.0479 128.933 36.9565 128.918 36.8649 128.921C36.6763 128.917 36.4937 128.987 36.3571 129.117C36.2205 129.247 36.1409 129.426 36.1359 129.615Z" fill="#666666"/>
<path d="M30.2832 131.612V127.174H32.0248C33.0358 127.174 33.6126 127.794 33.6126 128.671C33.6126 129.547 33.023 130.166 31.9992 130.166H31.1981V131.608L30.2832 131.612ZM31.2029 129.417H31.8534C32.3981 129.417 32.6625 129.111 32.6625 128.664C32.6625 128.217 32.3981 127.923 31.8534 127.923H31.2029V129.417Z" fill="#666666"/>
<path d="M124.712 121.629C124.683 122.088 124.62 122.544 124.523 122.994C124.452 123.346 124.303 123.677 124.087 123.965C123.87 124.213 123.582 124.389 123.262 124.469C122.834 124.58 122.39 124.611 121.95 124.562L115.186 124.082C114.964 124.076 114.746 124.027 114.544 123.937C114.342 123.847 114.16 123.718 114.008 123.558C113.74 123.209 113.542 122.812 113.425 122.388C113.315 121.932 113.256 121.465 113.252 120.996C113.252 120.494 113.239 120.055 113.226 119.679C113.2 117.505 113.235 115.346 113.329 113.201C113.444 111.036 113.56 108.872 113.676 106.709L113.697 106.428C113.753 105.366 114.037 104.511 114.549 103.865C115.063 103.191 115.884 102.895 117.012 102.977C117.617 103.021 118.169 103.081 118.669 103.158C119.121 103.218 119.556 103.367 119.951 103.596C120.31 103.821 120.584 104.159 120.731 104.557C120.924 104.969 120.995 105.539 120.942 106.265C120.875 107.162 120.739 108.053 120.537 108.93C120.351 109.814 120.167 110.688 119.984 111.552C119.74 112.709 119.554 113.878 119.427 115.053C119.303 116.213 119.187 117.396 119.081 118.601C119.396 118.613 119.71 118.559 120.002 118.44C120.337 118.298 120.691 118.157 121.064 118.016C121.441 117.855 121.826 117.716 122.218 117.598C122.601 117.462 123.009 117.408 123.415 117.437C123.918 117.473 124.27 117.646 124.47 117.952C124.695 118.274 124.825 118.652 124.847 119.044C124.899 119.492 124.899 119.944 124.847 120.392C124.783 120.863 124.738 121.275 124.712 121.629Z" fill="#1C1B1F"/>
<path d="M103.973 124.408C103.277 124.413 102.59 124.256 101.965 123.951C101.359 123.656 100.815 123.247 100.363 122.746C99.9196 122.22 99.5647 121.624 99.3119 120.984C99.0639 120.313 98.9375 119.604 98.9386 118.888C98.9134 118.141 99.0905 117.4 99.4513 116.745C99.7975 116.179 100.269 115.701 100.829 115.347C101.422 114.988 102.072 114.735 102.752 114.601C103.443 114.458 104.147 114.385 104.852 114.384C105.286 114.397 105.71 114.512 106.089 114.721C106.495 114.896 106.848 115.171 107.116 115.522C107.147 115.331 107.162 115.137 107.163 114.944C107.179 114.734 107.185 114.533 107.185 114.341V114.101C107.185 113.281 106.983 112.728 106.58 112.438C106.176 112.148 105.618 111.981 104.875 111.981C104.56 111.968 104.247 112.034 103.965 112.173C103.751 112.299 103.561 112.462 103.404 112.654C103.256 112.844 103.124 113.045 103.008 113.257C102.898 113.484 102.756 113.694 102.588 113.883C102.416 114.072 102.21 114.227 101.981 114.341C101.666 114.483 101.322 114.549 100.977 114.533C100.122 114.533 99.4844 114.245 99.0635 113.667C98.6422 113.033 98.4299 112.283 98.4563 111.523C98.4563 110.752 98.6977 110.133 99.1805 109.668C99.697 109.191 100.309 108.83 100.977 108.608C101.68 108.353 102.411 108.185 103.156 108.109C103.813 108.021 104.476 107.973 105.139 107.964C106.006 107.963 106.872 108.027 107.73 108.157C108.527 108.25 109.297 108.504 109.994 108.903C110.659 109.272 111.212 109.813 111.596 110.469C112.002 111.143 112.204 112.034 112.203 113.143C112.204 113.497 112.18 113.852 112.133 114.203C112.102 114.54 112.056 114.886 111.993 115.238C111.841 116.132 111.734 117.032 111.673 117.937C111.627 118.82 111.588 119.719 111.556 120.635C111.526 121.069 111.51 121.534 111.51 122.032C111.528 122.485 111.489 122.938 111.393 123.381C111.337 123.625 111.217 123.85 111.043 124.031C110.868 124.21 110.663 124.357 110.436 124.464C110.208 124.581 109.964 124.663 109.712 124.706C109.474 124.753 109.232 124.777 108.989 124.778C108.518 124.79 108.051 124.68 107.635 124.458C107.277 124.265 107.028 123.896 106.889 123.35C106.519 123.745 106.052 124.036 105.535 124.193C105.027 124.338 104.501 124.41 103.973 124.408ZM106.709 119.805C106.725 119.627 106.741 119.459 106.756 119.298C106.77 119.138 106.788 118.944 106.802 118.768C106.572 118.545 106.292 118.38 105.985 118.287C105.687 118.176 105.371 118.119 105.053 118.118C104.865 118.118 104.677 118.134 104.492 118.166C104.313 118.179 104.139 118.229 103.979 118.312C103.82 118.38 103.682 118.491 103.582 118.632C103.481 118.807 103.433 119.008 103.442 119.21C103.434 119.376 103.466 119.541 103.535 119.691C103.61 119.785 103.706 119.859 103.816 119.907C103.934 119.957 104.061 119.982 104.189 119.979H104.626C104.968 119.979 105.319 119.979 105.676 119.955C106.024 119.939 106.371 119.889 106.709 119.805Z" fill="#1C1B1F"/>
<path d="M95.3827 120.674C95.5914 120.667 95.7938 120.6 95.9659 120.482C96.1836 120.349 96.435 120.282 96.6901 120.288C96.7535 120.284 96.8172 120.292 96.8773 120.313C96.9374 120.334 96.9925 120.367 97.0394 120.41C97.117 120.49 97.1723 120.59 97.1996 120.698C97.2484 120.821 97.2723 120.952 97.2701 121.084C97.2842 121.204 97.2917 121.324 97.2925 121.445C97.2925 122.279 97.0746 122.962 96.6388 123.493C96.203 124.023 95.5653 124.29 94.7258 124.294C93.5903 124.294 92.7267 124.045 92.135 123.547C91.5438 123.032 91.1012 122.368 90.8532 121.624C90.5949 120.788 90.4457 119.922 90.4094 119.048C90.3773 118.1 90.3458 117.192 90.3148 116.324C90.2824 116.325 90.2505 116.333 90.2219 116.348C90.1894 116.348 90.1576 116.34 90.129 116.324C89.9215 116.332 89.7193 116.258 89.565 116.119C89.4376 115.965 89.33 115.795 89.2446 115.614C89.1646 115.411 89.1024 115.202 89.0587 114.988C89.0312 114.785 88.9922 114.584 88.9417 114.386C88.8953 114.193 88.8552 113.999 88.8248 113.807C88.7941 113.616 88.7786 113.423 88.7783 113.229C88.7783 112.458 89.1522 111.968 89.8999 111.76C89.7522 111.426 89.6732 111.066 89.6675 110.7C89.6541 110.289 89.7503 109.882 89.9463 109.52C90.144 109.201 90.4066 108.928 90.717 108.719C91.0451 108.509 91.409 108.362 91.7905 108.284C92.1725 108.189 92.5648 108.141 92.9585 108.14C93.227 108.144 93.4948 108.168 93.7596 108.212C94.0641 108.243 94.3629 108.315 94.6472 108.429C94.919 108.537 95.1651 108.7 95.3698 108.909C95.47 109.005 95.5487 109.122 95.6009 109.25C95.6531 109.379 95.6775 109.517 95.6727 109.656C95.6685 110.004 95.6017 110.348 95.4756 110.672C95.3671 110.99 95.304 111.322 95.2881 111.659C95.5051 111.519 95.7409 111.411 95.9883 111.338C96.2365 111.254 96.497 111.213 96.759 111.216C97.2733 111.216 97.6466 111.314 97.8805 111.506C98.1144 111.699 98.2538 112.077 98.2538 112.638C98.2667 113.199 98.1954 113.76 98.0423 114.301C97.9209 114.704 97.6961 115.07 97.3902 115.36C97.0761 115.643 96.7004 115.849 96.2927 115.962C95.7799 116.086 95.2561 116.159 94.7289 116.18C94.7129 116.773 94.6974 117.367 94.6825 117.962V119.745C94.6791 119.97 94.7268 120.192 94.8219 120.396C94.8812 120.489 94.9648 120.564 95.0636 120.613C95.1624 120.662 95.2727 120.683 95.3827 120.674Z" fill="#1C1B1F"/>
<path d="M82.3355 107.956C82.9422 107.956 83.5879 107.988 84.2726 108.052C84.9372 108.092 85.5912 108.238 86.2097 108.485C86.7869 108.701 87.2951 109.069 87.6805 109.55C88.0821 110.014 88.2829 110.655 88.2829 111.473C88.2802 111.976 88.2172 112.478 88.0955 112.966C87.9394 113.687 87.6689 114.378 87.2944 115.014C86.9726 115.553 86.5434 116.02 86.0334 116.387C85.5139 116.734 84.9374 116.986 84.3303 117.134C83.6403 117.283 82.9358 117.356 82.2298 117.35C81.8473 117.35 81.4652 117.326 81.0858 117.278C80.713 117.23 80.3392 117.19 79.9642 117.158C79.9174 117.314 79.8936 117.475 79.8937 117.638C79.8875 118.009 79.9997 118.371 80.2142 118.673C80.4392 118.97 80.716 119.222 81.0313 119.42C81.3615 119.614 81.7138 119.768 82.0808 119.878C82.4131 119.984 82.7591 120.04 83.1078 120.046C83.32 120.059 83.5325 120.029 83.733 119.959C83.9335 119.888 84.118 119.779 84.2758 119.636C84.5463 119.376 84.7745 119.076 84.9519 118.745C85.1234 118.425 85.2724 118.127 85.4198 117.855C85.5672 117.582 85.7691 117.444 86.003 117.444C86.2568 117.445 86.5088 117.486 86.7496 117.566C87.0111 117.629 87.2574 117.743 87.4738 117.903C87.6905 118.047 87.8736 118.236 88.0106 118.457C88.1543 118.679 88.2274 118.939 88.2205 119.204C88.2219 119.367 88.1981 119.529 88.15 119.684C87.9696 120.36 87.6683 120.998 87.2607 121.567C86.8458 122.141 86.3504 122.652 85.7899 123.084C85.2278 123.504 84.6062 123.837 83.9457 124.073C83.2999 124.296 82.6214 124.41 81.9382 124.409C80.7557 124.409 79.7522 124.096 78.9276 123.47C78.0939 122.834 77.4025 122.03 76.8976 121.11C76.3759 120.125 75.9983 119.07 75.776 117.978C75.5517 116.916 75.4347 115.835 75.4268 114.749C75.4268 112.406 76.018 110.688 77.2004 109.595C78.3829 108.502 80.0946 107.956 82.3355 107.956ZM80.235 114.147C80.5458 114.179 80.8422 114.203 81.121 114.219C81.3998 114.235 81.7203 114.243 82.0327 114.243C82.2025 114.243 82.406 114.235 82.6383 114.219C82.868 114.204 83.0952 114.164 83.3161 114.099C83.5198 114.041 83.7048 113.93 83.8528 113.779C83.931 113.704 83.9923 113.615 84.0326 113.515C84.073 113.415 84.0915 113.308 84.0867 113.2C84.0932 113.121 84.0822 113.041 84.0545 112.966C84.0269 112.891 83.9832 112.824 83.9265 112.768C83.8285 112.651 83.6979 112.567 83.5516 112.526C83.4041 112.459 83.2465 112.419 83.0854 112.405C82.9379 112.39 82.7898 112.382 82.6415 112.381C82.359 112.382 82.0773 112.414 81.802 112.478C81.5435 112.541 81.2983 112.649 81.0778 112.798C80.8576 112.945 80.6678 113.132 80.5186 113.351C80.3524 113.585 80.2542 113.861 80.235 114.147Z" fill="#1C1B1F"/>
<path d="M68.3009 121.18C68.3065 121.686 68.283 122.193 68.2304 122.697C68.2046 123.044 68.0838 123.376 67.8811 123.658C67.6804 123.902 67.3989 124.064 67.088 124.117C66.5976 124.227 66.0955 124.275 65.5931 124.261C65.3743 124.261 65.1559 124.245 64.9394 124.213C64.7281 124.199 64.5254 124.124 64.3562 123.996C64.2074 123.881 64.1009 123.72 64.0534 123.538C63.9749 123.314 63.906 123.072 63.8435 122.816C63.781 122.559 63.757 122.301 63.7265 122.045C63.6961 121.789 63.6945 121.587 63.6801 121.443C63.5263 119.709 63.3628 117.983 63.1898 116.266C63.0168 114.548 62.9388 112.813 62.9559 111.062C62.9345 110.414 63.0052 109.767 63.1658 109.139C63.28 108.747 63.5276 108.407 63.8659 108.178C64.2412 107.955 64.6667 107.831 65.1028 107.817C65.6172 107.784 66.2244 107.768 66.947 107.768C67.6007 107.768 68.2389 107.776 68.8616 107.792C69.4844 107.808 70.1301 107.84 70.7987 107.889C71.4138 107.941 72.023 108.048 72.6188 108.21C73.1012 108.33 73.5489 108.561 73.9263 108.884C74.306 109.198 74.5846 109.618 74.7274 110.089C74.9327 110.702 75.0277 111.347 75.0078 111.993C75.0064 112.962 74.9049 113.928 74.7049 114.877C74.5311 115.783 74.2061 116.654 73.7436 117.453C73.3132 118.213 72.7024 118.855 71.9651 119.323C71.2345 119.806 70.3165 120.046 69.2109 120.045H68.7207C68.5528 120.026 68.388 119.986 68.2304 119.925C68.2788 120.342 68.3023 120.761 68.3009 121.18ZM67.9516 112.848C67.9516 113.732 67.9746 114.623 68.0205 115.522C68.3009 115.522 68.6053 115.514 68.9321 115.498C69.2344 115.471 69.5321 115.406 69.8182 115.304C70.0813 115.205 70.3146 115.039 70.4959 114.824C70.6959 114.552 70.7945 114.22 70.7747 113.883C70.7837 113.738 70.7637 113.592 70.7158 113.455C70.668 113.317 70.5932 113.19 70.4959 113.082C70.3111 112.876 70.0783 112.719 69.8182 112.624C69.5393 112.525 69.2492 112.46 68.9546 112.432C68.6832 112.402 68.4105 112.386 68.1374 112.384C68.0605 112.384 68.0071 112.448 67.9772 112.576C67.9634 112.665 67.9548 112.755 67.9516 112.845V112.848Z" fill="#1C1B1F"/>
<path d="M59.6128 113.665C59.3761 113.653 59.1486 113.569 58.9607 113.425C58.7471 113.246 58.4976 113.062 58.2125 112.871C57.9215 112.654 57.609 112.468 57.28 112.316C56.9175 112.135 56.5169 112.045 56.1119 112.052C55.8541 112.048 55.5988 112.103 55.3653 112.212C55.1314 112.324 55.016 112.532 55.016 112.862C55.0181 112.899 55.0274 112.935 55.0433 112.968C55.0593 113.001 55.0816 113.03 55.109 113.055C55.1859 113.103 55.2692 113.151 55.3653 113.199C55.4614 113.247 55.5752 113.287 55.6681 113.319L55.8796 113.393C56.5013 113.633 57.147 113.89 57.8167 114.163C58.4713 114.415 59.091 114.75 59.6609 115.158C60.2153 115.538 60.6842 116.029 61.0372 116.6C61.3961 117.162 61.575 117.869 61.5739 118.72C61.5831 119.513 61.4075 120.297 61.0612 121.01C60.7427 121.688 60.2897 122.294 59.7297 122.791C59.1618 123.294 58.5048 123.687 57.7927 123.948C57.0729 124.205 56.3139 124.336 55.5496 124.333C55.0113 124.332 54.4762 124.251 53.9618 124.092C53.455 123.95 52.9699 123.739 52.5198 123.466C52.0799 123.174 51.6798 122.826 51.3293 122.431C50.98 122.002 50.6965 121.523 50.4882 121.01C50.4067 120.811 50.3669 120.598 50.3712 120.383C50.3758 120.14 50.4075 119.897 50.4657 119.661C50.5401 119.378 50.6415 119.103 50.7685 118.84C50.8936 118.59 51.0593 118.362 51.2588 118.166C51.3473 118.076 51.4527 118.004 51.569 117.954C51.6853 117.905 51.8102 117.879 51.9366 117.877C52.1064 117.877 52.3019 117.982 52.5198 118.19C52.7377 118.398 53.0101 118.624 53.2888 118.864C53.5876 119.119 53.9094 119.344 54.2502 119.539C54.6274 119.752 55.0539 119.862 55.4871 119.859C55.596 119.859 55.7354 119.859 55.9069 119.835C56.0812 119.822 56.2536 119.789 56.4212 119.739C56.5757 119.699 56.7191 119.624 56.841 119.521C56.9007 119.477 56.9489 119.419 56.9812 119.352C57.0136 119.285 57.0292 119.211 57.0268 119.137C57.0268 119.105 56.9964 119.073 56.9339 119.041C56.8697 118.991 56.7991 118.95 56.724 118.919C56.6484 118.888 56.5701 118.863 56.4901 118.847C56.4475 118.821 56.4 118.805 56.3507 118.799L54.9968 118.366C54.561 118.205 54.1252 118.02 53.6894 117.812C53.1322 117.54 52.6007 117.218 52.1016 116.85C51.6149 116.49 51.1761 116.069 50.7958 115.597C50.4347 115.11 50.144 114.575 49.9322 114.006C49.7123 113.405 49.6037 112.769 49.6117 112.129C49.6117 111.26 49.8216 110.546 50.2414 109.985C50.6744 109.409 51.2334 108.939 51.8757 108.612C52.5431 108.268 53.2572 108.022 53.9954 107.884C54.7026 107.744 55.4215 107.671 56.1424 107.667C56.5013 107.671 56.8597 107.695 57.2159 107.739C57.6636 107.792 58.1077 107.873 58.5457 107.981C59.0226 108.079 59.4908 108.216 59.9461 108.389C60.3865 108.537 60.8032 108.748 61.183 109.016C61.5363 109.238 61.8454 109.523 62.0946 109.858C62.3294 110.171 62.4524 110.553 62.4439 110.943C62.4405 111.296 62.3526 111.642 62.1876 111.954C62.0127 112.28 61.7835 112.574 61.5098 112.822C61.2382 113.067 60.9314 113.271 60.5997 113.425C60.2939 113.58 59.956 113.663 59.6128 113.665Z" fill="#1C1B1F"/>
<path d="M45.2054 107.762C44.2549 107.556 43.2843 107.457 42.3118 107.467C41.2654 107.452 40.2216 107.574 39.2067 107.829C38.3755 108.041 37.6021 108.436 36.9428 108.984C36.3089 109.555 35.8275 110.276 35.5424 111.08C35.2316 111.946 35.0762 113.006 35.0762 114.26C35.0762 114.677 35.0917 115.095 35.1226 115.513C35.1531 115.914 35.1931 116.324 35.2396 116.741C35.3683 117.77 35.5789 118.788 35.8693 119.785C36.1218 120.659 36.5246 121.482 37.0597 122.217C37.5986 122.9 38.2849 123.452 39.0673 123.832C39.8759 124.217 40.8719 124.409 42.0554 124.409C43.3308 124.409 44.3808 124.176 45.2054 123.71C46.0178 123.258 46.707 122.613 47.213 121.832C47.7444 121.004 48.1312 120.092 48.357 119.134C48.6125 118.071 48.7998 116.993 48.9177 115.906C49.0109 115.131 49.0575 114.351 49.0571 113.57C49.0571 112.365 48.9092 111.377 48.6133 110.607C48.3563 109.874 47.9049 109.225 47.3075 108.728C46.6968 108.238 45.9748 107.906 45.2054 107.762Z" fill="#1C1B1F"/>
<path d="M30.9238 123.867C30.6171 123.908 30.3051 123.878 30.0119 123.779C29.7186 123.68 29.4518 123.516 29.2318 123.299C29.0503 123.105 28.8847 122.731 28.7352 122.177C28.6016 121.603 28.4852 120.987 28.3859 120.326C28.2865 119.666 28.199 119.036 28.1231 118.436C28.0665 117.812 28.0243 117.345 27.9965 117.035L27.9629 116.662L25.8928 116.983L23.8484 117.229L23.9077 117.883C23.9541 118.633 24.0134 119.4 24.0855 120.19C24.1595 120.916 24.1233 121.649 23.9782 122.364C23.8478 123.003 23.5305 123.589 23.0665 124.047C22.5997 124.507 21.8643 124.783 20.8603 124.874C20.279 124.938 19.6922 124.816 19.1859 124.523C18.9723 124.396 18.764 123.996 18.5611 123.324C18.3581 122.632 18.168 121.875 17.9907 121.054C17.8305 120.232 17.7039 119.437 17.5933 118.675C17.4828 117.912 17.4059 117.374 17.3578 117.064C17.1623 115.761 16.9268 114.485 16.6512 113.235C16.3729 111.967 16.1759 110.683 16.0616 109.39C15.9954 108.684 15.9825 107.974 16.0232 107.267C16.0496 106.628 16.1884 106 16.4333 105.41C16.6838 104.868 17.0702 104.401 17.5549 104.053C18.0484 103.694 18.7277 103.475 19.5929 103.397C19.9267 103.371 20.2621 103.371 20.5959 103.397C20.9798 103.424 21.3577 103.506 21.7174 103.643C22.0587 103.749 22.3749 103.923 22.6467 104.155C22.7798 104.273 22.888 104.416 22.965 104.575C23.0421 104.735 23.0864 104.909 23.0954 105.086C23.1886 106.116 23.2212 107.151 23.1931 108.185C23.1626 109.207 23.1942 110.231 23.2876 111.25C23.9477 111.149 24.5982 111.06 25.2391 110.981C25.9003 110.898 26.5631 110.828 27.2275 110.769C27.0769 110.009 26.9166 109.261 26.7468 108.526C26.5762 107.761 26.4553 106.986 26.3847 106.206C26.2982 105.251 26.4872 104.429 26.9519 103.739C27.4358 103.026 28.16 102.626 29.1245 102.539L30.1499 102.446C30.7726 102.389 31.2976 102.354 31.7249 102.34C32.0996 102.306 32.476 102.381 32.8096 102.555C33.1111 102.732 33.3386 103.013 33.4505 103.345C33.6394 103.87 33.7506 104.42 33.7805 104.977C33.8233 105.445 33.8351 105.916 33.8158 106.386C33.8158 106.846 33.8158 107.316 33.8158 107.797C33.8072 109.283 33.8291 110.756 33.8815 112.216C33.952 113.674 33.9723 115.136 33.9424 116.603C33.9344 117.189 33.928 117.776 33.9199 118.365C33.9119 118.955 33.8911 119.508 33.8639 120.096C33.8429 120.637 33.7894 121.176 33.7036 121.711C33.658 122.111 33.5269 122.498 33.3191 122.844C33.0993 123.152 32.7925 123.387 32.4379 123.52C31.9572 123.723 31.4449 123.84 30.9238 123.867Z" fill="#1C1B1F"/>
<path fill-rule="evenodd" clip-rule="evenodd" d="M43.089 111.544C42.8696 111.444 42.6298 111.397 42.3888 111.406C42.0768 111.379 41.7625 111.419 41.4676 111.525C40.9869 111.725 40.6921 112.209 40.5495 112.704C40.4069 113.199 40.3893 113.721 40.314 114.231C39.8401 114.211 39.366 114.265 38.9088 114.391C38.4479 114.518 38.0526 114.816 37.8033 115.224C37.4508 115.865 37.6431 116.71 38.1622 117.219C38.6813 117.729 39.444 117.922 40.1714 117.852C40.2595 117.844 40.3636 117.837 40.4181 117.906C40.444 117.944 40.459 117.989 40.4614 118.035L40.6488 119.262C40.7033 119.624 40.7706 120.01 41.0237 120.273C41.3137 120.574 41.764 120.633 42.1789 120.672C42.5218 120.704 42.8999 120.721 43.1691 120.512C43.3593 120.334 43.4888 120.101 43.5392 119.845C43.7289 119.173 43.8031 118.475 43.7587 117.778C44.4253 117.737 45.1863 117.672 45.8176 117.437C46.3463 117.24 46.428 116.722 46.4809 116.203C46.5338 115.684 46.5514 115.111 46.1893 114.75C45.949 114.511 45.5965 114.43 45.2632 114.386C44.7908 114.322 44.3134 114.302 43.8372 114.327C43.8801 113.663 43.8058 112.996 43.6177 112.358C43.5312 112.066 43.4078 111.763 43.1579 111.594C43.1361 111.575 43.1131 111.559 43.089 111.544Z" fill="white"/>
</svg>
