<?xml version="1.0" encoding="utf-8"?>
<!-- Generator: Adobe Illustrator 25.0.1, SVG Export Plug-In . SVG Version: 6.00 Build 0)  -->
<svg version="1.1" id="레이어_2_1_" xmlns="http://www.w3.org/2000/svg" xmlns:xlink="http://www.w3.org/1999/xlink" x="0px"
	 y="0px" viewBox="0 0 1000 260" style="enable-background:new 0 0 1000 260;" xml:space="preserve">
<style type="text/css">
	.st0{fill:#FFC26F;}
	.st1{fill-rule:evenodd;clip-rule:evenodd;fill:#1C1B1F;}
	.st2{fill:#1C1B1F;}
	.st3{fill:#FF9B50;}
	.st4{fill:#666666;}
	.st5{fill-rule:evenodd;clip-rule:evenodd;fill:#FFFFFF;}
</style>
<g>
	<path class="st0" d="M144.6,120.5C126.9,100.2,127.2,69,129.5,56c7.5-2.3,17.9,9.4,22.1,15.5c3.6-5.3,8.5-9.7,14.1-12.7
		c-4.2-6.6-7.1-17-7.5-22.6c73.5,13.6,88.1,73.2,86.2,101.3c0.4,50.5-35.6,78.5-53.7,86.2c10.2-13.9,10.5-46.6,9.4-61.2
		c0-17-10-20.6-15.1-20.2C165.8,139.8,152.1,129,144.6,120.5z"/>
	<path class="st1" d="M155.1,32.7c1.1-1,2.6-1.4,4-1.1c38,7,61.2,26.1,74.5,47.3c13.1,21,16.5,43.8,15.6,58.7
		c0.3,52.9-37.4,82.2-56.6,90.4c-2.4,1-5.2-0.1-6.2-2.5c-0.6-1.5-0.4-3.3,0.5-4.6c4.3-5.9,6.9-16.4,8.1-28.1c1-10,1.1-20,0.5-30
		c0-0.1,0-0.2,0-0.4c0-7.5-2.2-11.3-4.2-13.2c-1.6-1.5-3.7-2.4-5.9-2.4c-0.3,0-0.6,0-0.9,0c-20.8-2.5-35.4-14.2-43.4-23.2l0,0
		c-9.6-11.1-14.2-24.9-16.2-37.4c-1.6-10.3-1.6-20.8,0-31.1c0.3-1.7,1.6-3.2,3.3-3.7c3.1-0.8,6.3-0.5,9.2,0.8
		c2.7,1.2,5.2,2.7,7.5,4.7c2.5,2.1,4.8,4.4,6.9,6.9c2.3-2.6,4.9-4.9,7.8-6.8c-3.1-6.5-5.1-13.4-5.9-20.5
		C153.4,35.1,154,33.7,155.1,32.7z M164.1,42.2c1.2,4.9,3.1,9.6,5.6,14c1.4,2.2,0.8,5.1-1.3,6.5c-0.1,0.1-0.2,0.2-0.4,0.2
		c-5,2.7-9.3,6.6-12.5,11.3c-1.5,2.1-4.5,2.6-6.6,1.1c-0.4-0.3-0.8-0.7-1.1-1.1c-2.6-3.7-5.6-7.1-9-10c-1.5-1.3-3.2-2.4-5-3.3
		l-0.2-0.1c-0.8,8-0.6,16,0.6,23.9c1.8,11.4,5.9,23.3,14,32.6c7,7.9,19.6,17.8,37.2,20c4.7,0,9.1,1.8,12.5,5
		c4.3,4.1,7.1,10.5,7.1,19.8c0.7,10.5,0.5,21.1-0.5,31.5c-0.6,6.3-1.7,12.6-3.4,18.7c17.4-12.1,39.1-36.8,38.8-75c0-0.1,0-0.2,0-0.4
		c0.9-13.2-2.1-34.1-14.1-53.3C214.5,66.1,195.5,49.7,164.1,42.2L164.1,42.2z"/>
	<path class="st2" d="M163.2,84.1c-1.9,0.9-2.8,3.2-1.9,5.2c0.9,1.9,3.2,2.8,5.2,1.9c1.9-0.9,2.8-3.2,1.9-5.2c0,0,0,0,0,0
		C167.5,84,165.2,83.2,163.2,84.1z"/>
	<path class="st2" d="M184.4,75.6c-0.9-1.9-3.3-2.8-5.2-1.8c-1.9,0.9-2.8,3.3-1.8,5.2c0.9,1.9,3.2,2.8,5.2,1.8
		C184.5,79.8,185.3,77.5,184.4,75.6C184.4,75.6,184.4,75.6,184.4,75.6z"/>
	<path class="st2" d="M112,144c-2.7,1.3-3.9,4.6-2.6,7.3s4.6,3.9,7.3,2.6c2.7-1.3,3.9-4.6,2.6-7.3c0,0,0,0,0,0
		C118,143.9,114.7,142.7,112,144C112,144,112,144,112,144z"/>
	<path class="st2" d="M140.8,130.6c-1.3-2.7-4.6-3.9-7.3-2.6s-3.9,4.6-2.6,7.3s4.6,3.9,7.3,2.6c0,0,0,0,0,0
		C141,136.6,142.1,133.4,140.8,130.6z"/>
	<path class="st3" d="M94.2,161c-40.3-27.5-37.5-64.5-31.1-79.6c-9,7.9-15.1,32.5-17,43.8C42,174.6,68.8,209.5,91.3,219
		c4.7,2,9.4,2.8,11.3,2.4c19.6-1.1,22.6-19.8,21.7-25.9C122.1,181.3,104.4,166.5,94.2,161z"/>
	<path class="st1" d="M65.9,77.6c1.8,1.3,2.4,3.6,1.6,5.7C61.7,96.6,58.7,131,96.6,157c7,4,13.4,8.9,19,14.7
		c6.2,6.4,12,14.5,13.4,23c0.6,4.1,0,11.3-3.7,17.8c-3.8,6.8-10.7,12.7-22,13.5c-2.1,0.3-4.1,0.1-6.1-0.3c-2.6-0.5-5.1-1.3-7.6-2.4
		c-24.8-10.3-52.4-47.4-48.2-98.5c0-0.1,0-0.2,0-0.4c1.4-8.1,3.4-16.1,6-23.9c1.4-4.4,3.2-8.6,5.2-12.7c1.8-3.7,4.3-7.1,7.3-10
		C61.7,76.4,64.1,76.3,65.9,77.6z M50.9,125.8c-3.9,47.5,21.9,80.3,42.3,88.8c1.9,0.8,3.8,1.4,5.8,1.8c0.7,0.1,1.3,0.2,2,0.3
		c0.2,0,0.4,0,0.6,0c0.3-0.1,0.5-0.1,0.8-0.1c8-0.5,12.3-4.4,14.7-8.7c2-3.6,2.9-7.7,2.6-11.8c-0.9-5.6-5-11.9-10.8-17.9
		c-5-5.1-10.6-9.5-16.8-13.1c-0.1-0.1-0.3-0.2-0.4-0.2c-25.6-17.5-34.9-38.8-36.6-56.7C53.3,114,51.9,119.9,50.9,125.8L50.9,125.8z"
		/>
	<path class="st3" d="M147.9,178.7c6,3.7,13.7,0,17.4-2.1c0.2-0.1,0.4-0.2,0.6-0.4c6.7-5.5,5.4-12.4,2.3-15.1
		c-7.4-6.5-19.1-0.3-21.8,5.6S146,177.1,147.9,178.7z"/>
	<path class="st1" d="M181,169.6c-1.9-0.7-4.1,0.2-4.9,2.2c-0.8,1.8-2.4,3.1-4.2,3.5l0,0c4.3-6.2,3-13.4-1.1-17
		c-5.1-4.4-11.4-4.3-16.4-2.6s-9.4,5.3-11.3,9.4c-3.5,7.4-0.8,13.9,2.5,16.5l0.2,0.1l0.2,0.1c3.7,2.2,8.2,2.8,12.4,1.6
		c0.8-0.2,1.5-0.4,2.2-0.6c-0.1,0.3-0.3,0.6-0.4,0.9c-0.9,1.5-2.1,2.8-3.5,3.8c-8.6,4.1-13.7,0.1-14.9-1.6c-1.3-1.6-3.6-2-5.3-0.7
		c-1.6,1.2-1.9,3.5-0.8,5.2c3.2,4.4,12.2,9.8,24.6,3.7l0.3-0.1l0.2-0.2c2.3-1.7,4.3-3.8,5.8-6.3c0.9-1.4,1.5-3,1.9-4.6
		c1.8,0.2,3.6,0.1,5.3-0.4c4.3-1,7.8-4,9.4-8.1C183.9,172.6,183,170.4,181,169.6C181,169.6,181,169.6,181,169.6z M150.2,175.6
		c-0.7-0.7-2.2-3.4-0.3-7.3c0.8-1.8,3.5-4.2,7-5.5s6.6-0.9,8.9,1.1c0.9,0.8,2,3.2,0.5,6.1c-0.3-1.2-0.4-2.5-0.3-3.7
		c0.1-1.3-0.9-2.4-2.2-2.5c-1.3-0.1-2.4,0.9-2.5,2.2c-0.2,2.6,0.3,5.3,1.3,7.7c-0.2,0.1-0.4,0.2-0.6,0.3c-0.5-0.6-1-1.1-1.6-1.5
		c-1.4-1.1-2.9-2-4.5-2.8c-1.1-0.6-2.6-0.2-3.2,0.9c-0.6,1.1-0.2,2.6,0.9,3.2c0.1,0.1,0.2,0.1,0.3,0.1c1.2,0.6,2.3,1.2,3.3,2
		l-0.5,0.1C154.5,176.8,152.2,176.6,150.2,175.6L150.2,175.6z"/>
	<path class="st1" d="M201.6,89.5c-0.7-1.4-2.4-2-3.8-1.3c-1.4,0.7-2,2.4-1.3,3.8c0.5,1.1,0.4,4-2.6,7.2c-1.3,1-2.8,1.5-4.4,1.5
		c-0.9,0-1.8-0.3-2.5-0.9c0.8-1.3,1.3-2.8,1.6-4.3v-0.2V95c0.1-1.2-0.2-2.3-0.8-3.4c-0.9-1.4-2.3-2.3-3.9-2.6
		c-2.2-0.3-4.4,0.1-6.3,1.3c-2.1,1.2-3.7,3-4.5,5.3c-0.3,1.1-0.3,2.3,0.1,3.4c0.6,1.7,1.8,3,3.4,3.7c1.3,0.5,2.8,0.8,4.2,0.8h0.2
		c-0.1,1.5-0.4,2.9-1,4.3c-0.4,0.9-1,1.7-1.8,2.2c-1,0.5-2.2,0.7-3.4,0.4c-1.5-0.2-3,0.9-3.2,2.4c-0.2,1.5,0.9,3,2.4,3.2l0,0
		c4.6,1,9.3-1.4,11.2-5.8c0.6-1.4,1.1-2.9,1.3-4.5c0.9,0.3,1.8,0.5,2.8,0.5c3,0.1,5.9-0.9,8.2-2.8l0.2-0.1l0.2-0.2
		C201.8,99,203.6,93.6,201.6,89.5z M178.7,97.3c0-0.1-0.1-0.1-0.1-0.2c0-0.2,0.1-0.4,0.2-0.6c0.8-1.1,2-1.8,3.3-2.1
		c0.3-0.1,0.7-0.1,0.8,0.2c0.1,0.2,0.1,0.4,0,0.6c-0.3,1.1-1,2.6-2.4,2.6c-0.4,0-0.8-0.1-1.2-0.2C179.1,97.6,178.9,97.5,178.7,97.3
		L178.7,97.3z"/>
	<path class="st1" d="M203.4,66c-1.3-0.8-3.1-0.5-3.9,0.9l-6.7,10.6c-0.9,1.3-0.6,3,0.6,3.9c1.3,0.9,3,0.6,3.9-0.6
		c0.1-0.1,0.1-0.2,0.2-0.3l6.7-10.6C205.1,68.6,204.7,66.8,203.4,66z"/>
	<path class="st1" d="M213.6,75.7c-0.8-1.2-2.3-1.5-3.5-0.7c0,0-0.1,0-0.1,0.1l-9.5,6.7c-1.2,0.8-1.5,2.5-0.7,3.7
		c0.7,1.2,2.3,1.5,3.4,0.8c0,0,0.1,0,0.1-0.1l9.5-6.7C214.1,78.5,214.4,76.9,213.6,75.7z"/>
	<path class="st1" d="M146.1,103.1c-0.3-1.5,0.7-3,2.2-3.4c0,0,0.1,0,0.1,0l10.1-2.1c1.6-0.4,3.2,0.5,3.7,2.1c0.3,1.5-0.6,3-2.2,3.4
		c-0.1,0-0.1,0-0.2,0l-10.1,2.1C148.2,105.6,146.6,104.7,146.1,103.1z"/>
	<path class="st1" d="M151.1,115.1c-0.8-1.2-0.4-2.8,0.8-3.5c0,0,0,0,0,0l9.9-6.1c1.2-0.8,2.8-0.4,3.6,0.8c0.8,1.2,0.4,2.8-0.8,3.5
		c0,0,0,0-0.1,0l-9.8,6.1C153.4,116.8,151.8,116.4,151.1,115.1z"/>
</g>
<g>
	<path class="st4" d="M860.7,222.1c-6.3,0-10.2-4.1-10.2-10.7c0-6.4,3.9-10.8,10-10.8c5.5,0,9.8,3.4,9.8,10.5v1.6H856
		c0,3.1,1.9,5.1,4.8,5.1c1.6,0.1,3.1-0.7,3.9-2.1h5.4C869.3,219.6,865.8,222.1,860.7,222.1z M856,209.2h8.8c0.1-2.3-1.6-4.2-3.9-4.3
		c-0.1,0-0.2,0-0.4,0C858.1,204.8,856.1,206.8,856,209.2z"/>
	<path class="st4" d="M830.7,222.1c-6.3,0-10.2-4.4-10.2-10.8s3.9-10.7,10.2-10.7c5.3,0,9,3.1,9.2,7.9h-5.3c-0.2-2-1.8-3.5-3.8-3.5
		c-2.7,0-4.5,2.3-4.5,6.2s1.8,6.3,4.5,6.3c2,0.1,3.7-1.5,3.8-3.4h5.3C839.7,218.9,836.2,222.1,830.7,222.1z"/>
	<path class="st4" d="M803.5,221.7v-20.8h5.7v20.8H803.5z M806.3,198.2c-1.6-0.1-2.8-1.5-2.7-3.1c0.1-1.6,1.5-2.8,3.1-2.7
		c1.5,0.1,2.7,1.4,2.7,2.9C809.3,197,808,198.2,806.3,198.2L806.3,198.2z"/>
	<path class="st4" d="M792.9,200.9l-7.3,20.8h-6.3l-7.3-20.8h6l4.4,14.9h0.2l4.4-14.9H792.9z"/>
	<path class="st4" d="M749.9,221.7v-20.8h5.5v3.6h0.2c0.5-2.3,2.6-4,5-3.9c0.6,0,1.2,0.1,1.8,0.2v5.1c-0.8-0.2-1.6-0.3-2.4-0.3
		c-2.3-0.1-4.3,1.7-4.4,4c0,0.1,0,0.2,0,0.3v11.8H749.9z"/>
	<path class="st4" d="M729,222.1c-6.3,0-10.2-4.1-10.2-10.7c0-6.4,3.9-10.8,10-10.8c5.5,0,9.8,3.4,9.8,10.5v1.6h-14.2
		c0,3.1,1.9,5.1,4.8,5.1c1.6,0.1,3.1-0.7,3.9-2.1h5.4C737.5,219.6,734.1,222.1,729,222.1z M724.3,209.2h8.8c0.1-2.3-1.6-4.2-3.9-4.3
		c-0.1,0-0.2,0-0.4,0C726.4,204.8,724.4,206.8,724.3,209.2C724.3,209.2,724.3,209.2,724.3,209.2L724.3,209.2z"/>
	<path class="st4" d="M702.2,201.9c-0.2-2.2-2-3.5-4.8-3.5s-4.5,1.3-4.5,3.2c0,2,2.1,2.9,4.4,3.4l2.5,0.6c4.8,1.1,8.3,3.5,8.3,8.1
		c0,5.1-4,8.3-10.7,8.3s-11-3.1-11.1-9h5.6c0.2,2.8,2.4,4.2,5.5,4.2s5-1.4,5-3.5c0-1.9-1.7-2.8-4.7-3.5l-3-0.7
		c-4.7-1.1-7.5-3.5-7.5-7.5c0-5.1,4.4-8.4,10.5-8.4s10.2,3.4,10.2,8.3L702.2,201.9z"/>
	<path class="st4" d="M658,194v27.7h-5.7V194H658z"/>
	<path class="st4" d="M621.6,215.9c0-4.6,3.8-6.2,7.7-6.4c1.5-0.1,4.3-0.2,5.2-0.3v-1.7c0-1.7-1.2-2.8-3.3-2.8
		c-1.9,0-3.1,0.9-3.4,2.3h-5.4c0.3-3.6,3.5-6.4,9-6.4c4.5,0,8.8,2,8.8,7v14h-5.3v-2.9h-0.2c-1,1.9-3,3.2-6.1,3.2
		C624.6,222.1,621.6,220,621.6,215.9z M627,215.7c0,1.6,1.3,2.4,3.1,2.4c2.6,0,4.4-1.7,4.4-3.9v-1.5c-0.9,0-3.3,0.2-4.2,0.3
		C628.3,213.2,627,214.1,627,215.7L627,215.7z"/>
	<path class="st4" d="M602,222.1c-6.3,0-10.2-4.4-10.2-10.8s3.9-10.7,10.2-10.7c5.4,0,9,3.1,9.2,7.9H606c-0.2-2-1.8-3.5-3.8-3.5
		c-2.7,0-4.5,2.3-4.5,6.2s1.8,6.3,4.5,6.3c2,0.1,3.7-1.5,3.8-3.4h5.3C611,218.9,607.5,222.1,602,222.1z"/>
	<path class="st4" d="M574.8,221.7v-20.8h5.7v20.8H574.8z M577.7,198.2c-1.6-0.1-2.8-1.5-2.7-3.1c0.1-1.6,1.5-2.8,3.1-2.7
		c1.5,0.1,2.7,1.4,2.7,2.9C580.6,197,579.3,198.2,577.7,198.2L577.7,198.2z"/>
	<path class="st4" d="M550.7,222c-4.7,0-8.5-3.8-8.5-10.7c0-7.1,3.9-10.7,8.5-10.7c2.6-0.1,4.9,1.4,5.9,3.8h0.2V194h5.7v27.7h-5.6
		v-3.3h-0.3C555.6,220.7,553.2,222.1,550.7,222z M552.5,217.5c2.8,0,4.4-2.5,4.4-6.2s-1.6-6.1-4.4-6.1s-4.4,2.5-4.4,6.1
		S549.6,217.5,552.5,217.5L552.5,217.5z"/>
	<path class="st4" d="M522.1,222.1c-6.3,0-10.2-4.1-10.2-10.7c0-6.4,3.9-10.8,10-10.8c5.5,0,9.8,3.4,9.8,10.5v1.6h-14.2
		c0,3.1,1.9,5.1,4.8,5.1c1.6,0.1,3.1-0.7,3.9-2.1h5.4C530.7,219.6,527.2,222.1,522.1,222.1z M517.5,209.2h8.8
		c0.1-2.3-1.6-4.2-3.9-4.3c-0.1,0-0.2,0-0.4,0C519.6,204.8,517.5,206.8,517.5,209.2z"/>
	<path class="st4" d="M470.4,194h7.1l7.7,18.8h0.3l7.7-18.8h7.1v27.7h-5.6v-18.1h-0.2l-7.2,18h-3.8l-7.2-18.1H476v18.2h-5.6V194z"/>
	<path class="st4" d="M442,200.9v4.2h-3.9v10.1c0,1.6,0.8,2.1,2,2.1c0.6,0,1.6,0,2.2-0.1v4.5c-1,0.2-2,0.2-3,0.2
		c-4.1,0-6.9-1.8-6.8-5.9v-10.9h-2.9v-4.2h2.9v-5h5.7v5H442z"/>
	<path class="st4" d="M410.2,222.1c-6.4,0-10.2-4.1-10.2-10.7c0-6.4,3.9-10.8,10-10.8c5.5,0,9.8,3.4,9.8,10.5v1.6h-14.2
		c0,3.1,1.9,5.1,4.8,5.1c1.6,0.1,3.1-0.7,3.9-2.1h5.4C418.8,219.6,415.3,222.1,410.2,222.1z M405.5,209.2h8.8
		c0.1-2.3-1.6-4.2-3.9-4.3c-0.1,0-0.2,0-0.4,0C407.6,204.8,405.6,206.8,405.5,209.2z"/>
	<path class="st4" d="M369,221.7V194h10.9c6.3,0,9.9,3.9,9.9,9.3s-3.7,9.3-10.1,9.3h-5v9L369,221.7z M374.7,208h4.1
		c3.4,0,5-1.9,5-4.7s-1.6-4.6-5-4.6h-4.1V208z"/>
	<path class="st2" d="M982.5,159.4c-0.2,2.9-0.6,5.7-1.2,8.5c-0.4,2.2-1.4,4.3-2.7,6.1c-1.4,1.6-3.2,2.7-5.2,3.1
		c-2.7,0.7-5.4,0.9-8.2,0.6l-42.2-3c-2.8-0.1-5.4-1.2-7.3-3.3c-1.7-2.2-2.9-4.7-3.6-7.3c-0.7-2.8-1-5.8-1.1-8.7
		c0-3.1-0.1-5.9-0.2-8.2c-0.2-13.6,0.1-27,0.6-40.4c0.7-13.5,1.4-27,2.2-40.5l0.1-1.8c0.3-6.6,2.1-12,5.3-16
		c3.2-4.2,8.3-6.1,15.4-5.5c3.8,0.3,7.2,0.7,10.3,1.1c2.8,0.4,5.5,1.3,8,2.7c2.2,1.4,4,3.5,4.9,6c1.2,2.6,1.6,6.1,1.3,10.7
		c-0.4,5.6-1.3,11.2-2.5,16.6c-1.2,5.5-2.3,11-3.5,16.4c-1.5,7.2-2.7,14.5-3.5,21.8c-0.8,7.2-1.5,14.6-2.2,22.1c2,0.1,3.9-0.3,5.8-1
		c2.1-0.9,4.3-1.8,6.6-2.6c2.4-1,4.8-1.9,7.2-2.6c2.4-0.8,4.9-1.2,7.5-1c3.1,0.2,5.3,1.3,6.6,3.2c1.4,2,2.2,4.4,2.3,6.8
		c0.3,2.8,0.3,5.6,0,8.4C982.9,154.6,982.6,157.2,982.5,159.4z"/>
	<path class="st2" d="M853,176.7c-4.3,0-8.6-0.9-12.5-2.9c-3.8-1.8-7.2-4.4-10-7.5c-2.8-3.3-5-7-6.6-11c-1.5-4.2-2.3-8.6-2.3-13.1
		c-0.2-4.7,0.9-9.3,3.2-13.4c2.2-3.5,5.1-6.5,8.6-8.7c3.7-2.2,7.8-3.8,12-4.7c4.3-0.9,8.7-1.3,13.1-1.3c2.7,0.1,5.4,0.8,7.7,2.1
		c2.5,1.1,4.7,2.8,6.4,5c0.2-1.2,0.3-2.4,0.3-3.6c0.1-1.3,0.1-2.6,0.1-3.8v-1.5c0-5.1-1.3-8.6-3.8-10.4s-6-2.8-10.6-2.8
		c-2-0.1-3.9,0.3-5.7,1.2c-1.3,0.8-2.5,1.8-3.5,3c-0.9,1.2-1.7,2.4-2.5,3.8c-0.7,1.4-1.6,2.7-2.6,3.9c-1.1,1.2-2.4,2.1-3.8,2.9
		c-2,0.9-4.1,1.3-6.3,1.2c-5.3,0-9.3-1.8-11.9-5.4c-2.6-4-4-8.6-3.8-13.4c0-4.8,1.5-8.7,4.5-11.6c3.2-3,7-5.2,11.2-6.6
		c4.4-1.6,9-2.6,13.6-3.1c4.1-0.5,8.2-0.8,12.4-0.9c5.4,0,10.8,0.4,16.2,1.2c5,0.6,9.8,2.2,14.1,4.7c4.1,2.3,7.6,5.7,10,9.8
		c2.5,4.2,3.8,9.8,3.8,16.7c0,2.2-0.1,4.4-0.4,6.6c-0.2,2.1-0.5,4.3-0.9,6.5c-1,5.6-1.6,11.2-2,16.8c-0.3,5.5-0.5,11.1-0.7,16.8
		c-0.2,2.7-0.3,5.6-0.3,8.7c0.1,2.8-0.1,5.7-0.7,8.4c-0.3,1.5-1.1,2.9-2.2,4.1c-1.1,1.1-2.4,2-3.8,2.7c-1.4,0.7-2.9,1.2-4.5,1.5
		c-1.5,0.3-3,0.4-4.5,0.4c-2.9,0.1-5.9-0.6-8.5-2c-2.2-1.2-3.8-3.5-4.7-6.9c-2.3,2.5-5.2,4.3-8.5,5.3
		C859.6,176.3,856.3,176.7,853,176.7z M870.1,148c0.1-1.1,0.2-2.2,0.3-3.2s0.2-2.2,0.3-3.3c-1.4-1.4-3.2-2.4-5.1-3
		c-1.9-0.7-3.8-1.1-5.8-1.1c-1.2,0-2.3,0.1-3.5,0.3c-1.1,0.1-2.2,0.4-3.2,0.9c-1,0.4-1.9,1.1-2.5,2c-0.6,1.1-0.9,2.3-0.9,3.6
		c-0.1,1,0.1,2.1,0.6,3c0.5,0.6,1.1,1,1.8,1.4c0.7,0.3,1.5,0.5,2.3,0.4h2.7c2.1,0,4.3,0,6.5-0.1C865.8,148.8,868,148.5,870.1,148z"
		/>
	<path class="st2" d="M799.4,153.4c1.3,0,2.6-0.5,3.6-1.2c1.4-0.8,2.9-1.3,4.5-1.2c0.8-0.1,1.6,0.2,2.2,0.8c0.5,0.5,0.8,1.1,1,1.8
		c0.3,0.8,0.5,1.6,0.4,2.4c0.1,0.7,0.1,1.5,0.1,2.2c0,5.2-1.4,9.5-4.1,12.8s-6.7,5-11.9,5c-7.1,0-12.5-1.6-16.2-4.7
		c-3.7-3.2-6.5-7.4-8-12c-1.6-5.2-2.5-10.6-2.8-16.1c-0.2-5.9-0.4-11.6-0.6-17c-0.2,0-0.4,0.1-0.6,0.2c-0.2,0-0.4-0.1-0.6-0.2
		c-1.3,0-2.6-0.4-3.5-1.3c-0.8-1-1.5-2-2-3.2c-0.5-1.3-0.9-2.6-1.2-3.9c-0.2-1.3-0.4-2.5-0.7-3.8c-0.3-1.2-0.5-2.4-0.7-3.6
		c-0.2-1.2-0.3-2.4-0.3-3.6c0-4.8,2.3-7.9,7-9.2c-0.9-2.1-1.4-4.3-1.5-6.6c-0.1-2.6,0.5-5.1,1.7-7.4c1.2-2,2.9-3.7,4.8-5
		c2-1.3,4.3-2.2,6.7-2.7c2.4-0.6,4.8-0.9,7.3-0.9c1.7,0,3.3,0.2,5,0.4c1.9,0.2,3.8,0.6,5.5,1.3c1.7,0.7,3.2,1.7,4.5,3
		c1.3,1.2,2,2.9,1.9,4.7c0,2.2-0.4,4.3-1.2,6.3c-0.7,2-1.1,4.1-1.2,6.2c1.4-0.9,2.8-1.5,4.4-2c1.5-0.5,3.2-0.8,4.8-0.8
		c3.2,0,5.5,0.6,7,1.8s2.3,3.6,2.3,7.1c0.1,3.5-0.4,7-1.3,10.4c-0.8,2.5-2.2,4.8-4.1,6.6c-2,1.8-4.3,3.1-6.8,3.8
		c-3.2,0.8-6.5,1.2-9.8,1.4c-0.1,3.7-0.2,7.4-0.3,11.1v11.1c0,1.4,0.3,2.8,0.9,4.1C796.7,152.9,798,153.5,799.4,153.4z"/>
	<path class="st2" d="M717,74.1c3.8,0,7.8,0.2,12.1,0.6c4.1,0.3,8.2,1.2,12.1,2.7c3.6,1.3,6.8,3.6,9.2,6.7c2.5,2.9,3.8,6.9,3.8,12
		c0,3.1-0.4,6.3-1.2,9.3c-1,4.5-2.7,8.8-5,12.8c-2,3.4-4.7,6.3-7.9,8.6c-3.2,2.2-6.8,3.7-10.6,4.7c-4.3,0.9-8.7,1.4-13.1,1.4
		c-2.4,0-4.8-0.1-7.1-0.4c-2.3-0.3-4.7-0.6-7-0.8c-0.3,1-0.4,2-0.4,3c0,2.3,0.7,4.6,2,6.5c1.4,1.8,3.1,3.4,5.1,4.7
		c2.1,1.2,4.3,2.2,6.5,2.9c2.1,0.7,4.2,1,6.4,1.1c2.7,0.2,5.3-0.8,7.3-2.6c1.7-1.6,3.1-3.5,4.2-5.6c1.1-2,2-3.9,2.9-5.6
		s2.2-2.6,3.6-2.6c1.6,0,3.2,0.3,4.7,0.8c1.6,0.4,3.2,1.1,4.5,2.1c1.4,0.9,2.5,2.1,3.3,3.5c0.9,1.4,1.4,3,1.3,4.7c0,1-0.1,2-0.4,3
		c-1.1,4.2-3,8.2-5.5,11.7c-2.6,3.6-5.7,6.8-9.2,9.5c-3.5,2.6-7.4,4.7-11.5,6.2c-4,1.4-8.3,2.1-12.5,2.1c-7.4,0-13.6-2-18.8-5.9
		c-5.2-4-9.5-9-12.7-14.7c-3.3-6.1-5.6-12.7-7-19.6c-1.4-6.6-2.1-13.4-2.2-20.2c0-14.6,3.7-25.3,11.1-32.2
		C692.3,77.5,703,74.1,717,74.1z M703.9,112.7c1.9,0.2,3.8,0.3,5.5,0.4s3.7,0.2,5.7,0.2c1.1,0,2.3-0.1,3.8-0.2
		c1.4-0.1,2.9-0.3,4.2-0.8c1.3-0.4,2.4-1.1,3.3-2c1-0.9,1.5-2.3,1.5-3.6c0.1-1-0.3-2-1-2.7c-0.6-0.7-1.4-1.3-2.3-1.5
		c-0.9-0.4-1.9-0.7-2.9-0.8c-0.9-0.1-1.8-0.1-2.8-0.2c-1.8,0-3.5,0.2-5.2,0.6c-1.6,0.4-3.1,1.1-4.5,2c-1.4,0.9-2.6,2.1-3.5,3.4
		C704.6,109.2,704,110.9,703.9,112.7z"/>
	<path class="st2" d="M617.9,151c0,4.1-0.1,8.2-0.6,12.2c-0.2,2.8-1.2,5.5-2.8,7.7c-1.6,2-3.9,3.3-6.4,3.7c-4,0.9-8,1.3-12,1.2
		c-1.8,0-3.5-0.1-5.3-0.4c-1.7-0.1-3.3-0.7-4.7-1.7c-1.2-0.9-2.1-2.2-2.4-3.7c-0.6-1.8-1.2-3.8-1.7-5.8s-0.7-4.1-0.9-6.2
		c-0.2-2.1-0.3-3.7-0.4-4.9c-1.2-14-2.6-27.9-4-41.7c-1.4-13.8-2-27.8-1.9-41.9c-0.2-5.2,0.4-10.4,1.7-15.5c0.9-3.2,2.9-5.9,5.6-7.7
		c3-1.8,6.5-2.8,10-2.9c4.1-0.3,9-0.4,14.9-0.4c5.3,0,10.4,0.1,15.4,0.2c5,0.1,10.2,0.4,15.6,0.8c5,0.4,9.9,1.3,14.7,2.6
		c3.9,1,7.5,2.8,10.5,5.4c3.1,2.5,5.3,5.9,6.5,9.7c1.7,4.9,2.4,10.1,2.3,15.3c0,7.8-0.8,15.6-2.4,23.2c-1.4,7.3-4,14.3-7.7,20.8
		c-3.5,6.1-8.4,11.3-14.3,15.1c-5.9,3.9-13.3,5.8-22.2,5.8h-4c-1.4-0.2-2.7-0.5-4-1C617.7,144.2,617.9,147.6,617.9,151z M615.1,83.8
		c0,7.1,0.2,14.3,0.6,21.6c2.3,0,4.7-0.1,7.3-0.2c2.4-0.2,4.8-0.7,7.1-1.6c2.1-0.8,4-2.1,5.5-3.9c1.6-2.2,2.4-4.9,2.2-7.6
		c0.1-2.4-0.7-4.7-2.2-6.5c-1.5-1.7-3.4-2.9-5.5-3.7c-2.2-0.8-4.6-1.3-7-1.5c-2.2-0.2-4.4-0.4-6.6-0.4c-0.6,0-1.1,0.5-1.3,1.5
		C615.2,82.4,615.1,83.1,615.1,83.8L615.1,83.8z"/>
	<path class="st2" d="M553.1,109.7c-1.5-0.1-2.9-0.6-4.1-1.5c-1.3-1.1-2.9-2.3-4.7-3.5c-1.8-1.4-3.8-2.5-5.8-3.5
		c-2.3-1.1-4.8-1.7-7.3-1.7c-1.6,0-3.2,0.3-4.7,1c-1.5,0.7-2.2,2-2.2,4.1c0,0.5,0.2,0.9,0.6,1.2c0.5,0.3,1,0.6,1.6,0.9
		s1.3,0.6,1.9,0.8l1.3,0.5c3.9,1.5,7.9,3.1,12.1,4.8c4.1,1.6,8,3.7,11.5,6.2c3.5,2.4,6.4,5.4,8.6,9c2.2,3.5,3.4,7.9,3.3,13.2
		c0.1,4.9-1,9.8-3.2,14.3c-2,4.2-4.8,8-8.3,11.1c-3.5,3.1-7.6,5.6-12.1,7.2c-4.5,1.6-9.2,2.4-14,2.4c-3.4,0-6.7-0.5-9.9-1.5
		c-3.2-0.9-6.2-2.2-9-3.9c-2.7-1.8-5.2-4-7.4-6.5c-2.2-2.7-3.9-5.7-5.2-8.9c-0.5-1.2-0.8-2.6-0.7-3.9c0-1.5,0.2-3,0.6-4.5
		c0.5-1.8,1.1-3.5,1.9-5.1c0.8-1.6,1.8-3,3.1-4.2c1.1-1.1,2.6-1.8,4.2-1.8c1.1,0,2.3,0.6,3.6,1.9s3.1,2.7,4.8,4.2
		c1.9,1.6,3.9,3,6,4.2c2.4,1.3,5,2,7.7,2c0.7,0,1.5,0,2.6-0.1c1.1-0.1,2.2-0.3,3.2-0.6c1-0.3,1.9-0.7,2.6-1.4
		c0.8-0.6,1.2-1.5,1.2-2.4c0-0.2-0.2-0.4-0.6-0.6c-0.4-0.3-0.8-0.6-1.3-0.8c-0.5-0.2-1-0.3-1.5-0.4c-0.3-0.2-0.6-0.3-0.9-0.3
		l-8.5-2.7c-2.7-1-5.4-2.2-8.2-3.5c-3.5-1.7-6.8-3.7-9.9-6c-3-2.3-5.8-4.9-8.1-7.8c-2.3-3-4.1-6.4-5.4-9.9c-1.4-3.8-2.1-7.7-2-11.7
		c0-5.4,1.3-9.9,3.9-13.4c2.7-3.6,6.2-6.5,10.2-8.6c4.2-2.1,8.6-3.7,13.2-4.5c4.4-0.9,8.9-1.3,13.4-1.4c2.2,0,4.5,0.2,6.7,0.4
		c2.8,0.3,5.6,0.8,8.3,1.5c3,0.6,5.9,1.5,8.7,2.6c2.7,0.9,5.3,2.2,7.7,3.9c2.2,1.4,4.1,3.2,5.7,5.3c1.5,1.9,2.2,4.3,2.2,6.8
		c0,2.2-0.6,4.4-1.6,6.3c-1.1,2-2.5,3.9-4.2,5.4c-1.7,1.5-3.6,2.8-5.7,3.8C557.3,109.2,555.2,109.7,553.1,109.7z"/>
	<path class="st2" d="M373,173.4c-3.9,0.5-7.8-0.8-10.6-3.6c-1.1-1.2-2.2-3.5-3.1-7c-0.8-3.6-1.6-7.4-2.2-11.6
		c-0.6-4.1-1.2-8.1-1.6-11.8c-0.4-3.9-0.6-6.8-0.8-8.7l-0.2-2.3l-12.9,2l-12.8,1.5l0.4,4.1c0.3,4.7,0.7,9.5,1.1,14.4
		c0.5,4.5,0.2,9.1-0.7,13.6c-0.8,4-2.8,7.6-5.7,10.5c-2.9,2.9-7.5,4.6-13.8,5.2c-3.6,0.4-7.3-0.4-10.5-2.2c-1.3-0.8-2.6-3.3-3.9-7.5
		c-1.3-4.3-2.5-9-3.6-14.2c-1-5.1-1.8-10.1-2.5-14.9s-1.2-8.1-1.5-10.1c-1.2-8.1-2.7-16.1-4.4-23.9c-1.7-7.9-3-15.9-3.7-24
		c-0.4-4.4-0.5-8.8-0.2-13.2c0.2-4,1-7.9,2.6-11.6c1.6-3.4,4-6.3,7-8.5c3.1-2.2,7.3-3.6,12.7-4.1c2.1-0.2,4.2-0.2,6.3,0
		c2.4,0.2,4.8,0.7,7,1.5c2.1,0.7,4.1,1.8,5.8,3.2c1.7,1.5,2.7,3.6,2.8,5.8c0.6,6.4,0.8,12.9,0.6,19.3c-0.2,6.4,0,12.8,0.6,19.1
		c4.1-0.6,8.2-1.2,12.2-1.7c4.1-0.5,8.3-1,12.4-1.3c-0.9-4.7-1.9-9.4-3-14c-1.1-4.8-1.8-9.6-2.3-14.5c-0.5-6,0.6-11.1,3.5-15.4
		c3-4.4,7.5-6.9,13.6-7.5l6.4-0.6c3.9-0.4,7.2-0.6,9.8-0.7c2.3-0.2,4.7,0.3,6.8,1.3c1.9,1.1,3.3,2.9,4,4.9c1.2,3.3,1.9,6.7,2.1,10.2
		c0.3,2.9,0.3,5.9,0.2,8.8c0,2.9,0,5.8,0,8.8c-0.1,9.3,0.1,18.5,0.4,27.6c0.4,9.1,0.6,18.2,0.4,27.4c0,3.7-0.1,7.3-0.1,11
		s-0.2,7.1-0.4,10.8c-0.1,3.4-0.5,6.7-1,10.1c-0.3,2.5-1.1,4.9-2.4,7.1c-1.4,1.9-3.3,3.4-5.5,4.2C379.5,172.5,376.3,173.2,373,173.4
		z"/>
	<g>
		<path class="st2" d="M462.1,72.8c-5.9-1.3-12-1.9-18.1-1.8c-6.5-0.1-13,0.7-19.4,2.3c-5.2,1.3-10,3.8-14.1,7.2
			c-4,3.6-7,8.1-8.7,13.1c-1.9,5.4-2.9,12-2.9,19.8c0,2.6,0.1,5.2,0.3,7.8c0.2,2.5,0.4,5.1,0.7,7.7c0.8,6.4,2.1,12.8,3.9,19
			c1.6,5.5,4.1,10.6,7.4,15.2c3.4,4.3,7.6,7.7,12.5,10.1c5,2.4,11.3,3.6,18.6,3.6c8,0,14.5-1.5,19.7-4.4c5.1-2.8,9.4-6.8,12.5-11.7
			c3.3-5.2,5.7-10.9,7.1-16.8c1.6-6.6,2.8-13.4,3.5-20.2c0.6-4.8,0.9-9.7,0.9-14.6c0-7.5-0.9-13.7-2.8-18.5
			c-1.6-4.6-4.4-8.6-8.1-11.7C471.4,75.8,466.9,73.7,462.1,72.8z"/>
		<path class="st5" d="M448.9,96.4c-1.4-0.6-2.9-0.9-4.4-0.9c-1.9-0.2-3.9,0.1-5.8,0.7c-3,1.2-4.8,4.3-5.7,7.4s-1,6.3-1.5,9.5
			c-3-0.1-5.9,0.2-8.8,1c-2.9,0.8-5.3,2.7-6.9,5.2c-2.2,4-1,9.3,2.2,12.5s8,4.4,12.5,3.9c0.5-0.1,1.2-0.1,1.5,0.3
			c0.2,0.2,0.3,0.5,0.3,0.8l1.2,7.7c0.3,2.3,0.8,4.7,2.3,6.3c1.8,1.9,4.6,2.2,7.2,2.5c2.1,0.2,4.5,0.3,6.2-1c1.2-1.1,2-2.6,2.3-4.2
			c1.2-4.2,1.6-8.6,1.4-12.9c4.2-0.3,8.9-0.7,12.9-2.1c3.3-1.2,3.8-4.5,4.1-7.7s0.4-6.8-1.8-9.1c-1.5-1.5-3.7-2-5.8-2.3
			c-2.9-0.4-5.9-0.5-8.9-0.4c0.3-4.1-0.2-8.3-1.4-12.3c-0.5-1.8-1.3-3.7-2.9-4.8C449.2,96.6,449.1,96.5,448.9,96.4z"/>
	</g>
</g>
</svg>
