<svg id="레이어_2" data-name="레이어 2" xmlns="http://www.w3.org/2000/svg" viewBox="0 0 1000 260"><path d="M144.58,120.51C126.87,100.16,127.15,69,129.51,56c7.53-2.26,17.9,9.42,22.13,15.54a39.81,39.81,0,0,1,14.13-12.71c-4.23-6.6-7.06-17-7.53-22.61,73.48,13.56,88.08,73.16,86.19,101.27.38,50.49-35.64,78.5-53.69,86.19,10.17-13.94,10.52-46.63,9.42-61.23,0-17-10-20.57-15.07-20.25C165.77,139.82,152.12,129,144.58,120.51Z" style="fill:#ffc26f"/><path d="M155.08,32.71a4.67,4.67,0,0,1,4-1.14c38,7,61.2,26.08,74.5,47.31,13.14,21,16.52,43.81,15.55,58.72.32,52.89-37.4,82.23-56.56,90.39a4.71,4.71,0,0,1-5.65-7.11c4.29-5.87,6.85-16.41,8.06-28.08a180.05,180.05,0,0,0,.47-30c0-.12,0-.23,0-.35,0-7.52-2.2-11.3-4.19-13.19a8.19,8.19,0,0,0-5.88-2.36,5.06,5.06,0,0,1-.87,0c-20.8-2.54-35.43-14.19-43.45-23.21l0,0c-9.64-11.07-14.24-24.89-16.17-37.38a99.42,99.42,0,0,1,0-31.08,4.72,4.72,0,0,1,3.28-3.67,13.62,13.62,0,0,1,9.21.78A29.91,29.91,0,0,1,144.84,57a58.21,58.21,0,0,1,6.87,6.92,42.71,42.71,0,0,1,7.75-6.8,65.19,65.19,0,0,1-5.92-20.53A4.71,4.71,0,0,1,155.08,32.71Zm9,9.53a50.49,50.49,0,0,0,5.64,14A4.72,4.72,0,0,1,168,63a35.14,35.14,0,0,0-12.51,11.3,4.72,4.72,0,0,1-7.71-.06,54.38,54.38,0,0,0-9-10,20.94,20.94,0,0,0-5-3.28l-.18-.07a94.27,94.27,0,0,0,.61,23.91c1.77,11.42,5.88,23.34,14,32.62,7,7.87,19.55,17.79,37.16,20a17.7,17.7,0,0,1,12.47,5c4.27,4.05,7.08,10.5,7.12,19.84a191.08,191.08,0,0,1-.51,31.53,107.67,107.67,0,0,1-3.45,18.74c17.4-12.1,39.1-36.77,38.81-75,0-.12,0-.23,0-.35.89-13.19-2.12-34.11-14.13-53.27C214.48,66.12,195.49,49.65,164.1,42.24Z" style="fill:#1c1b1f;fill-rule:evenodd"/><path d="M163.21,84.09a3.9,3.9,0,1,0,5.19,1.84A3.91,3.91,0,0,0,163.21,84.09Z" style="fill:#1c1b1f"/><path d="M184.41,75.57a3.89,3.89,0,1,0-1.83,5.19A3.89,3.89,0,0,0,184.41,75.57Z" style="fill:#1c1b1f"/><path d="M112,144a5.48,5.48,0,1,0,7.3,2.58A5.47,5.47,0,0,0,112,144Z" style="fill:#1c1b1f"/><path d="M140.81,130.63a5.48,5.48,0,1,0-2.58,7.3A5.49,5.49,0,0,0,140.81,130.63Z" style="fill:#1c1b1f"/><path d="M94.18,161c-40.32-27.51-37.52-64.53-31.09-79.6-9,7.91-15.07,32.49-17,43.8C42,174.58,68.75,209.53,91.35,219c4.71,2,9.42,2.83,11.31,2.36,19.59-1.14,22.63-19.79,21.67-25.91C122.11,181.27,104.39,166.51,94.18,161Z" style="fill:#ff9b50"/><path d="M65.86,77.6a4.72,4.72,0,0,1,1.57,5.67C61.73,96.6,58.69,131,96.64,157a85.93,85.93,0,0,1,19,14.69c6.2,6.37,12,14.46,13.36,23,.64,4.07,0,11.33-3.66,17.84-3.75,6.76-10.67,12.71-22,13.48a17.63,17.63,0,0,1-6.14-.33,42.21,42.21,0,0,1-7.6-2.36C64.79,213,37.15,175.94,41.44,124.82c0-.12,0-.25.05-.38a166.07,166.07,0,0,1,6-23.9,91,91,0,0,1,5.24-12.7,34.35,34.35,0,0,1,7.28-10A4.71,4.71,0,0,1,65.86,77.6Zm-15,48.21c-3.92,47.5,21.91,80.28,42.35,88.79A32,32,0,0,0,99,216.42a15.35,15.35,0,0,0,2,.29,2.85,2.85,0,0,0,.57,0,6.83,6.83,0,0,1,.79-.11c8-.46,12.3-4.35,14.69-8.66a21.11,21.11,0,0,0,2.59-11.81c-.88-5.6-5-11.95-10.8-17.87A75.76,75.76,0,0,0,92,165.16a2.91,2.91,0,0,1-.42-.25c-25.64-17.5-34.88-38.85-36.6-56.72A156.35,156.35,0,0,0,50.82,125.81Z" style="fill:#1c1b1f;fill-rule:evenodd"/><path d="M147.89,178.67c6,3.72,13.7,0,17.44-2.1a3.19,3.19,0,0,0,.57-.39c6.73-5.5,5.44-12.36,2.34-15.07-7.41-6.5-19.05-.28-21.82,5.57S146,177.11,147.89,178.67Z" style="fill:#ff9b50"/><path d="M181,169.62a3.77,3.77,0,0,0-4.87,2.17,6,6,0,0,1-4.25,3.49h0c4.34-6.22,3-13.37-1.11-17-5.06-4.43-11.4-4.32-16.39-2.56s-9.4,5.29-11.32,9.35c-3.52,7.43-.76,13.88,2.5,16.53l.18.15.21.13a16.16,16.16,0,0,0,12.39,1.61c.77-.18,1.52-.4,2.24-.64a8.6,8.6,0,0,1-.44.85,14.34,14.34,0,0,1-3.46,3.83c-8.62,4.09-13.69.11-14.92-1.56a3.77,3.77,0,0,0-6.07,4.47c3.21,4.36,12.25,9.78,24.6,3.71l.28-.14.25-.18a21.91,21.91,0,0,0,5.79-6.26,15.29,15.29,0,0,0,1.85-4.6,14.93,14.93,0,0,0,5.3-.37,13.48,13.48,0,0,0,9.41-8.1A3.77,3.77,0,0,0,181,169.62Zm-30.83,6c-.69-.73-2.19-3.36-.31-7.33.84-1.79,3.51-4.24,7-5.47s6.57-.94,8.92,1.12c.87.76,2,3.22.48,6.14a12.65,12.65,0,0,1-.29-3.72,2.35,2.35,0,1,0-4.7-.28,15.64,15.64,0,0,0,1.34,7.69c-.2.12-.42.23-.64.34a12.72,12.72,0,0,0-1.58-1.54,24,24,0,0,0-4.49-2.82,2.35,2.35,0,1,0-2,4.24,19.89,19.89,0,0,1,3.28,2l-.5.13A9,9,0,0,1,150.14,175.62Z" style="fill:#1c1b1f;fill-rule:evenodd"/><path d="M201.59,89.47a2.83,2.83,0,1,0-5.12,2.42c.54,1.14.44,4-2.56,7.15a7.19,7.19,0,0,1-4.42,1.52,4.68,4.68,0,0,1-2.5-.86,11.82,11.82,0,0,0,1.57-4.34l0-.16V95a6,6,0,0,0-.82-3.36A6,6,0,0,0,183.84,89a9,9,0,0,0-6.27,1.31,9.71,9.71,0,0,0-4.46,5.27,5.24,5.24,0,0,0,.09,3.37,6.29,6.29,0,0,0,3.44,3.74,11.66,11.66,0,0,0,4.19.82H181a11.66,11.66,0,0,1-1,4.27,4.83,4.83,0,0,1-1.84,2.18,5,5,0,0,1-3.36.44A2.82,2.82,0,1,0,174,116a9.91,9.91,0,0,0,11.18-5.78,16.47,16.47,0,0,0,1.32-4.47,10.35,10.35,0,0,0,2.78.51,13,13,0,0,0,8.23-2.76l.18-.14.17-.17C201.83,99,203.55,93.62,201.59,89.47Zm-22.85,7.85a.38.38,0,0,1-.09-.19.76.76,0,0,1,.2-.56,5.42,5.42,0,0,1,3.26-2.07c.29-.06.66-.06.81.2a.73.73,0,0,1,0,.56c-.34,1.08-1,2.6-2.36,2.59a4.46,4.46,0,0,1-1.25-.24A1.12,1.12,0,0,1,178.74,97.32Z" style="fill:#1c1b1f;fill-rule:evenodd"/><path d="M203.38,66a2.83,2.83,0,0,0-3.9.86l-6.73,10.58a2.82,2.82,0,1,0,4.76,3l6.74-10.57A2.82,2.82,0,0,0,203.38,66Z" style="fill:#1c1b1f;fill-rule:evenodd"/><path d="M213.56,75.65A2.5,2.5,0,0,0,210,75l-9.5,6.74a2.67,2.67,0,0,0-.66,3.65,2.49,2.49,0,0,0,3.53.69l9.5-6.74A2.68,2.68,0,0,0,213.56,75.65Z" style="fill:#1c1b1f;fill-rule:evenodd"/><path d="M146.08,103.09a2.83,2.83,0,0,1,2.33-3.38l10.12-2.1a3.1,3.1,0,0,1,3.7,2.12,2.83,2.83,0,0,1-2.33,3.39l-10.12,2.1A3.11,3.11,0,0,1,146.08,103.09Z" style="fill:#1c1b1f;fill-rule:evenodd"/><path d="M151.05,115.14a2.57,2.57,0,0,1,.83-3.58l9.85-6.08a2.65,2.65,0,0,1,3.63.81,2.57,2.57,0,0,1-.84,3.58L154.68,116A2.65,2.65,0,0,1,151.05,115.14Z" style="fill:#1c1b1f;fill-rule:evenodd"/><path d="M860.7,222.12c-6.35,0-10.25-4.13-10.25-10.71,0-6.43,3.94-10.75,10-10.75,5.47,0,9.75,3.44,9.75,10.52v1.6H856c0,3.14,1.87,5.09,4.78,5.09a4,4,0,0,0,3.87-2.1h5.39C869.26,219.59,865.82,222.12,860.7,222.12ZM856,209.23h8.84a4.13,4.13,0,0,0-4.29-4.33A4.45,4.45,0,0,0,856,209.23Z" style="fill:#666"/><path d="M830.72,222.12c-6.35,0-10.18-4.4-10.18-10.75s3.86-10.71,10.18-10.71c5.35,0,9,3.13,9.21,7.88h-5.31a3.78,3.78,0,0,0-3.83-3.48c-2.71,0-4.51,2.29-4.51,6.23s1.76,6.31,4.51,6.31a3.73,3.73,0,0,0,3.83-3.44h5.31C839.67,218.87,836.22,222.12,830.72,222.12Z" style="fill:#666"/><path d="M803.49,221.7V200.93h5.66V221.7Zm2.83-23.49a2.89,2.89,0,1,1,3.06-2.87A3,3,0,0,1,806.32,198.21Z" style="fill:#666"/><path d="M792.9,200.93l-7.3,20.77h-6.35L772,200.93h6l4.36,14.91h.23l4.37-14.91Z" style="fill:#666"/><path d="M749.88,221.7V200.93h5.47v3.59h.23a5,5,0,0,1,5-3.9,9.18,9.18,0,0,1,1.79.19v5.05a10.63,10.63,0,0,0-2.41-.31,4.23,4.23,0,0,0-4.43,4.33V221.7Z" style="fill:#666"/><path d="M729,222.12c-6.35,0-10.25-4.13-10.25-10.71,0-6.43,3.94-10.75,10-10.75,5.47,0,9.75,3.44,9.75,10.52v1.6H724.29c0,3.14,1.88,5.09,4.79,5.09a4,4,0,0,0,3.86-2.1h5.39C737.53,219.59,734.09,222.12,729,222.12Zm-4.67-12.89h8.84a4.13,4.13,0,0,0-4.28-4.33A4.46,4.46,0,0,0,724.29,209.23Z" style="fill:#666"/><path d="M702.19,201.92c-.23-2.18-2-3.48-4.78-3.48s-4.51,1.34-4.55,3.17c0,2,2.06,2.91,4.44,3.45l2.48.61c4.75,1.07,8.3,3.48,8.3,8.11,0,5.09-4,8.3-10.71,8.3s-11-3.1-11.13-9h5.59c.19,2.79,2.41,4.21,5.47,4.21s5-1.42,5-3.48c0-1.88-1.72-2.76-4.74-3.52l-3-.73c-4.66-1.15-7.53-3.48-7.53-7.53,0-5.05,4.44-8.38,10.48-8.38s10.17,3.4,10.25,8.3Z" style="fill:#666"/><path d="M658,194v27.7h-5.66V194Z" style="fill:#666"/><path d="M621.62,215.88c0-4.63,3.75-6.16,7.73-6.39,1.49-.09,4.28-.23,5.16-.26v-1.69c0-1.72-1.22-2.75-3.33-2.75-1.91,0-3.13.88-3.44,2.29h-5.39c.34-3.59,3.48-6.42,9-6.42,4.51,0,8.79,2,8.79,7v14h-5.35v-2.87h-.15c-1,1.91-3,3.25-6.09,3.25C624.57,222.08,621.62,220,621.62,215.88Zm5.43-.15c0,1.61,1.3,2.45,3.1,2.45,2.56,0,4.4-1.72,4.36-3.91v-1.52c-.86,0-3.27.17-4.24.26C628.31,213.2,627.05,214.12,627.05,215.73Z" style="fill:#666"/><path d="M602,222.12c-6.35,0-10.17-4.4-10.17-10.75s3.86-10.71,10.17-10.71c5.36,0,9,3.13,9.22,7.88H606a3.78,3.78,0,0,0-3.83-3.48c-2.72,0-4.51,2.29-4.51,6.23s1.76,6.31,4.51,6.31a3.73,3.73,0,0,0,3.83-3.44h5.31C611,218.87,607.55,222.12,602,222.12Z" style="fill:#666"/><path d="M574.82,221.7V200.93h5.66V221.7Zm2.83-23.49a2.89,2.89,0,1,1,3.06-2.87A3,3,0,0,1,577.65,198.21Z" style="fill:#666"/><path d="M550.69,222c-4.74,0-8.45-3.79-8.45-10.71,0-7.11,3.86-10.67,8.45-10.67a6.08,6.08,0,0,1,5.89,3.75h.19V194h5.66v27.7h-5.58v-3.33h-.27A6.13,6.13,0,0,1,550.69,222Zm1.76-4.51c2.83,0,4.43-2.49,4.43-6.24s-1.6-6.12-4.43-6.12-4.4,2.49-4.4,6.12S549.58,217.53,552.45,217.53Z" style="fill:#666"/><path d="M522.12,222.12c-6.35,0-10.25-4.13-10.25-10.71,0-6.43,3.94-10.75,10-10.75,5.47,0,9.76,3.44,9.76,10.52v1.6H517.46c0,3.14,1.87,5.09,4.78,5.09a4,4,0,0,0,3.86-2.1h5.39C530.69,219.59,527.25,222.12,522.12,222.12Zm-4.66-12.89h8.83A4.13,4.13,0,0,0,522,204.9,4.45,4.45,0,0,0,517.46,209.23Z" style="fill:#666"/><path d="M470.41,194h7.12l7.69,18.78h.3L493.21,194h7.12v27.7h-5.59V203.57h-.23l-7.23,18h-3.82l-7.23-18.09H476V221.7h-5.59Z" style="fill:#666"/><path d="M442.05,200.93v4.24h-3.9v10.14c0,1.64.8,2.06,2,2.1.57,0,1.57,0,2.25-.11v4.47a17.22,17.22,0,0,1-3,.19c-4.09,0-6.88-1.83-6.84-5.85V205.17h-2.87v-4.24h2.87v-5h5.66v5Z" style="fill:#666"/><path d="M410.19,222.12c-6.35,0-10.25-4.13-10.25-10.71,0-6.43,3.94-10.75,10-10.75,5.47,0,9.76,3.44,9.76,10.52v1.6H405.53c0,3.14,1.87,5.09,4.78,5.09a4,4,0,0,0,3.86-2.1h5.39C418.76,219.59,415.32,222.12,410.19,222.12Zm-4.66-12.89h8.83a4.13,4.13,0,0,0-4.28-4.33A4.45,4.45,0,0,0,405.53,209.23Z" style="fill:#666"/><path d="M369,221.7V194h10.87c6.31,0,9.91,3.87,9.91,9.34s-3.68,9.33-10.07,9.33h-5v9ZM374.74,208h4.06c3.4,0,5.05-1.91,5.05-4.7s-1.65-4.63-5.05-4.63h-4.06Z" style="fill:#666"/><path d="M958.37,159.39a58.59,58.59,0,0,1-1.18,8.52,15.11,15.11,0,0,1-2.72,6.06,10.09,10.09,0,0,1-5.15,3.15,22.79,22.79,0,0,1-8.19.58l-42.22-3a10.47,10.47,0,0,1-7.35-3.27,21.38,21.38,0,0,1-3.64-7.3,38.72,38.72,0,0,1-1.08-8.69c0-3.13-.08-5.87-.16-8.22q-.24-20.35.64-40.43,1.08-20.27,2.17-40.52l.13-1.75q.52-9.95,5.32-16,4.81-6.31,15.37-5.54,5.66.41,10.34,1.13a21.56,21.56,0,0,1,8,2.73,12,12,0,0,1,4.87,6q1.81,3.86,1.32,10.66a111.13,111.13,0,0,1-2.53,16.63q-1.74,8.28-3.45,16.37a221.25,221.25,0,0,0-3.48,21.85q-1.16,10.86-2.16,22.14a13.84,13.84,0,0,0,5.75-1q3.14-1.33,6.63-2.65a70.25,70.25,0,0,1,7.2-2.61,18.46,18.46,0,0,1,7.47-1c3.14.22,5.34,1.3,6.59,3.21a13.18,13.18,0,0,1,2.35,6.82,36.45,36.45,0,0,1,0,8.41Q958.61,156.08,958.37,159.39Z" style="fill:#1c1b1f"/><path d="M828.92,176.73a28.12,28.12,0,0,1-12.53-2.85,33,33,0,0,1-10-7.52,39.76,39.76,0,0,1-6.56-11,37.57,37.57,0,0,1-2.33-13.08,25.94,25.94,0,0,1,3.2-13.38,27,27,0,0,1,8.6-8.72,37,37,0,0,1,12-4.66,64.84,64.84,0,0,1,13.11-1.35,17,17,0,0,1,7.72,2.1,16.09,16.09,0,0,1,6.41,5,23.22,23.22,0,0,0,.29-3.61c.1-1.31.14-2.56.14-3.76v-1.5c0-5.12-1.26-8.57-3.78-10.38s-6-2.85-10.64-2.85a11.76,11.76,0,0,0-5.68,1.2,13,13,0,0,0-3.5,3,27.8,27.8,0,0,0-2.47,3.76,17.15,17.15,0,0,1-2.62,3.91,13,13,0,0,1-3.79,2.86,13.8,13.8,0,0,1-6.27,1.2q-8,0-11.94-5.41a22.74,22.74,0,0,1-3.79-13.38q0-7.22,4.52-11.58a30.83,30.83,0,0,1,11.21-6.61A56.57,56.57,0,0,1,823.82,75a103.36,103.36,0,0,1,12.38-.9,107,107,0,0,1,16.17,1.2,37.06,37.06,0,0,1,14.13,4.66,26.46,26.46,0,0,1,10,9.77q3.8,6.31,3.79,16.69a49.07,49.07,0,0,1-.44,6.62c-.19,2.1-.48,4.26-.87,6.46a166.69,166.69,0,0,0-2,16.84q-.43,8.27-.73,16.84c-.19,2.71-.29,5.61-.29,8.72a33.08,33.08,0,0,1-.73,8.42,8.62,8.62,0,0,1-2.18,4.06,13.18,13.18,0,0,1-3.79,2.7,15.72,15.72,0,0,1-4.52,1.51,23.77,23.77,0,0,1-4.51.45,17,17,0,0,1-8.45-2q-3.36-1.8-4.66-6.91a19.24,19.24,0,0,1-8.45,5.26A34.92,34.92,0,0,1,828.92,176.73ZM846,148c.1-1.11.2-2.16.29-3.16s.2-2.21.29-3.31a12.55,12.55,0,0,0-5.1-3,16.83,16.83,0,0,0-5.82-1.06,20.68,20.68,0,0,0-3.5.3,8.35,8.35,0,0,0-3.2.91,5.9,5.9,0,0,0-2.48,2,6.61,6.61,0,0,0-.87,3.61,6.33,6.33,0,0,0,.58,3,4.59,4.59,0,0,0,1.75,1.35,5.7,5.7,0,0,0,2.33.45H833c2.13,0,4.32,0,6.55-.15A33.12,33.12,0,0,0,846,148Z" style="fill:#1c1b1f"/><path d="M775.31,153.43a6.83,6.83,0,0,0,3.64-1.2,8.27,8.27,0,0,1,4.52-1.21,2.91,2.91,0,0,1,2.18.76,4,4,0,0,1,1,1.8,6.24,6.24,0,0,1,.44,2.41,20.25,20.25,0,0,1,.14,2.25q0,7.81-4.08,12.78t-11.94,5q-10.63,0-16.17-4.66a27.42,27.42,0,0,1-8-12,63.4,63.4,0,0,1-2.77-16.08q-.3-8.88-.59-17a1.28,1.28,0,0,0-.58.15,1.25,1.25,0,0,1-.58-.15A5,5,0,0,1,739,125a15,15,0,0,1-2-3.15,23.51,23.51,0,0,1-1.16-3.91,33.53,33.53,0,0,0-.73-3.76c-.29-1.2-.54-2.41-.73-3.61a23,23,0,0,1-.29-3.61q0-7.22,7-9.17a17,17,0,0,1-1.45-6.61,14.48,14.48,0,0,1,1.74-7.37,16.61,16.61,0,0,1,4.81-5,19.78,19.78,0,0,1,6.7-2.71,30.31,30.31,0,0,1,7.29-.9,33.21,33.21,0,0,1,5,.45,20.52,20.52,0,0,1,5.54,1.35,13.08,13.08,0,0,1,4.51,3,6.16,6.16,0,0,1,1.89,4.66A18.08,18.08,0,0,1,775.89,91a22.38,22.38,0,0,0-1.17,6.16,16.93,16.93,0,0,1,4.37-2,14.49,14.49,0,0,1,4.81-.76c3.21,0,5.54.61,7,1.81s2.33,3.56,2.33,7.06a35.14,35.14,0,0,1-1.32,10.38,15.11,15.11,0,0,1-4.07,6.61,17,17,0,0,1-6.85,3.76,50.19,50.19,0,0,1-9.76,1.36q-.15,5.55-.29,11.12v11.13a9.26,9.26,0,0,0,.87,4.06A3.79,3.79,0,0,0,775.31,153.43Z" style="fill:#1c1b1f"/><path d="M693.88,74.05q5.68,0,12.09.6a39,39,0,0,1,12.09,2.7A21.37,21.37,0,0,1,727.24,84Q731,88.34,731,96a39.45,39.45,0,0,1-1.17,9.32,43.15,43.15,0,0,1-5,12.78,28.6,28.6,0,0,1-7.87,8.57,33.24,33.24,0,0,1-10.63,4.66,59.47,59.47,0,0,1-13.11,1.35,55.86,55.86,0,0,1-7.14-.45q-3.49-.45-7-.75a10.4,10.4,0,0,0-.44,3,10.84,10.84,0,0,0,2,6.46,19.2,19.2,0,0,0,5.1,4.66,29.76,29.76,0,0,0,6.55,2.86,22.45,22.45,0,0,0,6.41,1.05,10,10,0,0,0,7.29-2.56,22.41,22.41,0,0,0,4.22-5.56c1.07-2,2-3.86,2.92-5.56s2.18-2.56,3.64-2.56a14.86,14.86,0,0,1,4.66.76,12.55,12.55,0,0,1,4.52,2.1,11.3,11.3,0,0,1,3.35,3.46,8.18,8.18,0,0,1,1.31,4.66,9.86,9.86,0,0,1-.44,3A36.18,36.18,0,0,1,724.62,159a46.07,46.07,0,0,1-9.18,9.47,44,44,0,0,1-11.51,6.17,38.32,38.32,0,0,1-12.53,2.1q-11.07,0-18.79-5.86a47,47,0,0,1-12.67-14.73,72.78,72.78,0,0,1-7-19.55,101.06,101.06,0,0,1-2.18-20.15q0-21.94,11.07-32.17T693.88,74.05Zm-13.11,38.64c1.94.2,3.79.35,5.53.45s3.74.15,5.69.15c1.06,0,2.33-.05,3.78-.15a19.72,19.72,0,0,0,4.23-.75,7.61,7.61,0,0,0,3.35-2,4.69,4.69,0,0,0,1.46-3.61,3.41,3.41,0,0,0-1-2.7,4.75,4.75,0,0,0-2.34-1.51,8.9,8.9,0,0,0-2.91-.75,27,27,0,0,0-2.77-.15,23.47,23.47,0,0,0-5.24.6,14,14,0,0,0-4.52,2,12.86,12.86,0,0,0-3.49,3.45A9.71,9.71,0,0,0,680.77,112.69Z" style="fill:#1c1b1f"/><path d="M606.28,156.59a82.42,82.42,0,0,1-.44,9.47,11.78,11.78,0,0,1-2.18,6,8.18,8.18,0,0,1-4.95,2.86,37.78,37.78,0,0,1-9.33.9,28,28,0,0,1-4.08-.3,6.78,6.78,0,0,1-3.64-1.35,5.31,5.31,0,0,1-1.89-2.86c-.49-1.4-.92-2.91-1.31-4.51s-.54-3.21-.73-4.81-.2-2.86-.29-3.76Q576,142,574.38,125.92t-1.46-32.48a42.74,42.74,0,0,1,1.31-12,10.94,10.94,0,0,1,4.37-6,16.12,16.12,0,0,1,7.72-2.25c3.21-.21,7-.31,11.51-.31q6.12,0,11.95.15t12.09.61a63.93,63.93,0,0,1,11.36,2,19.94,19.94,0,0,1,8.16,4.21,15.64,15.64,0,0,1,5,7.52,34.09,34.09,0,0,1,1.75,11.88,87.82,87.82,0,0,1-1.89,18,51.41,51.41,0,0,1-6,16.08A33.2,33.2,0,0,1,629.15,145q-6.84,4.52-17.19,4.51H608.9a12.4,12.4,0,0,1-3.06-.75A65.84,65.84,0,0,1,606.28,156.59Zm-2.18-52q0,8.27.43,16.69c1.75,0,3.65-.05,5.69-.15a22.58,22.58,0,0,0,5.53-1.21,10.31,10.31,0,0,0,4.23-3,9,9,0,0,0,1.74-5.87,6.85,6.85,0,0,0-1.74-5,10.5,10.5,0,0,0-4.23-2.86,22.48,22.48,0,0,0-5.39-1.2,50.51,50.51,0,0,0-5.1-.3q-.72,0-1,1.2A14.26,14.26,0,0,0,604.1,104.57Z" style="fill:#1c1b1f"/><path d="M552.06,109.68a7.29,7.29,0,0,1-4.07-1.5q-2-1.67-4.67-3.46a32.88,32.88,0,0,0-5.82-3.46,15.72,15.72,0,0,0-7.29-1.65,10.63,10.63,0,0,0-4.66,1c-1.46.7-2.18,2-2.18,4.06a1.74,1.74,0,0,0,.58,1.2c.48.3,1,.6,1.6.9s1.31.55,1.89.75l1.32.46q5.82,2.25,12.09,4.81A51.4,51.4,0,0,1,552.36,119a30,30,0,0,1,8.59,9q3.36,5.26,3.35,13.23a31.86,31.86,0,0,1-3.2,14.29,34.49,34.49,0,0,1-8.31,11.12,38,38,0,0,1-12.09,7.22,41.17,41.17,0,0,1-14,2.4,34,34,0,0,1-9.91-1.5,36.31,36.31,0,0,1-9-3.91,38.18,38.18,0,0,1-7.43-6.46,34.81,34.81,0,0,1-5.25-8.87,9.78,9.78,0,0,1-.73-3.91,20.47,20.47,0,0,1,.59-4.51,28.37,28.37,0,0,1,1.89-5.12,15.82,15.82,0,0,1,3.06-4.21,6,6,0,0,1,4.23-1.8c1.06,0,2.28.65,3.64,1.95s3.06,2.71,4.8,4.21a39.34,39.34,0,0,0,6,4.21,15.47,15.47,0,0,0,7.72,2c.68,0,1.55,0,2.62-.15a15.38,15.38,0,0,0,3.21-.6,6.65,6.65,0,0,0,2.62-1.36,2.87,2.87,0,0,0,1.16-2.4c0-.2-.19-.4-.58-.6a5.62,5.62,0,0,0-1.31-.76,8.16,8.16,0,0,0-1.46-.45,2.21,2.21,0,0,0-.87-.3l-8.45-2.7q-4.08-1.51-8.16-3.46a64,64,0,0,1-9.91-6,44.53,44.53,0,0,1-8.15-7.82,40.35,40.35,0,0,1-5.39-9.93,32.91,32.91,0,0,1-2-11.72q0-8.13,3.93-13.38a29.51,29.51,0,0,1,10.2-8.57A48.17,48.17,0,0,1,517,73.6a71.39,71.39,0,0,1,13.4-1.36,60.4,60.4,0,0,1,6.7.45,69.44,69.44,0,0,1,8.3,1.51,57.31,57.31,0,0,1,8.74,2.55,29.91,29.91,0,0,1,7.72,3.91,21.07,21.07,0,0,1,5.69,5.26,10.87,10.87,0,0,1,2.18,6.77,13.77,13.77,0,0,1-1.6,6.31,20.29,20.29,0,0,1-4.23,5.42,22.9,22.9,0,0,1-5.68,3.76A13.8,13.8,0,0,1,552.06,109.68Z" style="fill:#1c1b1f"/><path d="M462.13,72.84A81.38,81.38,0,0,0,444.07,71a75.18,75.18,0,0,0-19.38,2.26,36,36,0,0,0-14.13,7.21,32,32,0,0,0-8.74,13.08q-2.91,8.11-2.91,19.85,0,3.9.29,7.82c.19,2.5.44,5.06.73,7.66a122,122,0,0,0,3.93,19,48.85,48.85,0,0,0,7.43,15.18,36,36,0,0,0,12.53,10.08q7.57,3.6,18.65,3.6,11.94,0,19.66-4.36a35.57,35.57,0,0,0,12.53-11.72,54.2,54.2,0,0,0,7.14-16.84,160.16,160.16,0,0,0,3.5-20.15,121.68,121.68,0,0,0,.87-14.58q0-11.28-2.77-18.49a26.77,26.77,0,0,0-8.15-11.73A29.75,29.75,0,0,0,462.13,72.84Z" style="fill:#1c1b1f"/><path d="M373,173.36a12.66,12.66,0,0,1-10.56-3.55q-1.7-1.81-3.1-7-1.25-5.37-2.18-11.55t-1.64-11.8q-.53-5.84-.79-8.74l-.21-2.33-12.92,2-12.76,1.54.37,4.08c.29,4.68.66,9.47,1.11,14.4a45.19,45.19,0,0,1-.67,13.57,20.52,20.52,0,0,1-5.69,10.5q-4.37,4.31-13.77,5.16a17.08,17.08,0,0,1-10.45-2.19q-2-1.19-3.9-7.48-1.9-6.48-3.56-14.17c-1-5.13-1.79-10.09-2.48-14.85s-1.17-8.12-1.47-10.05Q286.5,118.7,283.92,107A189.89,189.89,0,0,1,280.24,83,87.86,87.86,0,0,1,280,69.75a33.89,33.89,0,0,1,2.56-11.59,21.57,21.57,0,0,1,7-8.47q4.62-3.36,12.72-4.09a39.65,39.65,0,0,1,6.26,0,24.47,24.47,0,0,1,7,1.53,16.47,16.47,0,0,1,5.8,3.2,8.31,8.31,0,0,1,2.8,5.81,164.85,164.85,0,0,1,.61,19.34,157.93,157.93,0,0,0,.59,19.13q6.18-.94,12.18-1.68,6.19-.77,12.41-1.32-1.41-7.12-3-14a113.39,113.39,0,0,1-2.26-14.48q-.81-8.94,3.54-15.4,4.53-6.67,13.56-7.49l6.4-.58Q374,39.13,378,39a12.27,12.27,0,0,1,6.77,1.34,9.1,9.1,0,0,1,4,4.93,35.78,35.78,0,0,1,2.06,10.19,66.59,66.59,0,0,1,.22,8.79q0,4.31,0,8.81-.08,13.91.41,27.58.66,13.65.38,27.38c-.05,3.66-.09,7.32-.14,11s-.18,7.13-.35,10.8a84.29,84.29,0,0,1-1,10.08,17.59,17.59,0,0,1-2.4,7.07,11.85,11.85,0,0,1-5.5,4.22A28,28,0,0,1,373,173.36Z" style="fill:#1c1b1f"/><path d="M448.92,96.44a9.63,9.63,0,0,0-4.37-.86,13.59,13.59,0,0,0-5.75.74c-3,1.25-4.84,4.27-5.73,7.36s-1,6.35-1.47,9.53a28.38,28.38,0,0,0-8.77,1,11.75,11.75,0,0,0-6.9,5.2c-2.2,4-1,9.27,2.24,12.45s8,4.39,12.54,3.95c.55-.05,1.2-.09,1.54.34a1.56,1.56,0,0,1,.27.8l1.17,7.66c.34,2.26.76,4.67,2.34,6.31,1.81,1.88,4.62,2.25,7.21,2.49,2.14.2,4.5.31,6.18-1a7.75,7.75,0,0,0,2.31-4.16,38.47,38.47,0,0,0,1.37-12.9c4.16-.26,8.91-.66,12.85-2.13,3.3-1.23,3.81-4.46,4.14-7.7s.44-6.82-1.82-9.07c-1.5-1.49-3.7-2-5.78-2.27a47.31,47.31,0,0,0-8.9-.37,35.43,35.43,0,0,0-1.37-12.29c-.54-1.82-1.31-3.71-2.87-4.77A3.78,3.78,0,0,0,448.92,96.44Z" style="fill:#fff;fill-rule:evenodd"/></svg>