<?xml version="1.0" encoding="utf-8"?>
<!-- Generator: Adobe Illustrator 25.0.1, SVG Export Plug-In . SVG Version: 6.00 Build 0)  -->
<svg version="1.1" id="레이어_1" xmlns="http://www.w3.org/2000/svg" xmlns:xlink="http://www.w3.org/1999/xlink" x="0px"
	 y="0px" viewBox="0 0 140 140" style="enable-background:new 0 0 140 140;" xml:space="preserve">
<style type="text/css">
	.st0{fill:#FFC26F;}
	.st1{fill-rule:evenodd;clip-rule:evenodd;fill:#FFFFFF;}
	.st2{fill:#FFFFFF;}
	.st3{fill:#FF9B50;}
	.st4{fill:#666666;}
</style>
<g>
	<path class="st0" d="M71.2,48.6c-8.1-9.3-8-23.6-6.9-29.5c3.4-1,8.2,4.3,10.1,7.1c1.7-2.4,3.9-4.4,6.5-5.8c-1.9-3-3.2-7.8-3.4-10.4
		c33.6,6.2,40.3,33.5,39.5,46.4c0.2,23.1-16.3,35.9-24.6,39.5c4.7-6.4,4.8-21.3,4.3-28c0-7.8-4.6-9.4-6.9-9.3
		C80.9,57.5,74.7,52.5,71.2,48.6z"/>
	<path class="st1" d="M76,8.4c0.2-0.2,0.5-0.4,0.9-0.5c0.3-0.1,0.7-0.1,1,0c17.4,3.2,28,11.9,34.1,21.7c6,9.6,7.6,20.1,7.1,26.9
		c0.1,24.2-17.1,37.6-25.9,41.4c-0.4,0.2-0.9,0.2-1.4,0.1c-0.5-0.1-0.9-0.4-1.2-0.7c-0.3-0.4-0.5-0.8-0.5-1.3c0-0.5,0.1-0.9,0.4-1.3
		c2-2.7,3.1-7.5,3.7-12.9c0.5-4.6,0.5-9.2,0.2-13.7c0-0.1,0-0.1,0-0.2c0-3.4-1-5.2-1.9-6c-0.4-0.3-0.8-0.6-1.2-0.8
		c-0.5-0.2-1-0.3-1.5-0.3c-0.1,0-0.3,0-0.4,0c-9.5-1.2-16.2-6.5-19.9-10.6C65.2,45,63.1,38.7,62.2,33c-0.7-4.7-0.7-9.5,0-14.2
		c0.1-0.4,0.2-0.8,0.5-1.1c0.3-0.3,0.6-0.5,1-0.6c1.4-0.4,2.9-0.2,4.2,0.4c1.2,0.5,2.4,1.3,3.4,2.1c1.1,1,2.2,2,3.1,3.2
		c1.1-1.2,2.2-2.2,3.5-3.1c-1.4-3-2.3-6.1-2.7-9.4c0-0.3,0-0.7,0.1-1C75.6,8.9,75.8,8.6,76,8.4z M80.1,12.8c0.5,2.3,1.4,4.4,2.6,6.4
		c0.2,0.3,0.3,0.5,0.3,0.8s0,0.6,0,0.9c-0.1,0.3-0.2,0.6-0.4,0.8c-0.2,0.2-0.4,0.4-0.7,0.6c-2.3,1.2-4.3,3-5.7,5.2
		c-0.2,0.3-0.5,0.5-0.8,0.7c-0.3,0.2-0.6,0.2-1,0.2c-0.3,0-0.7-0.1-1-0.2c-0.3-0.2-0.6-0.4-0.8-0.7c-1.2-1.7-2.6-3.2-4.1-4.6
		c-0.7-0.6-1.5-1.1-2.3-1.5l-0.1,0c-0.4,3.6-0.3,7.3,0.3,10.9c0.8,5.2,2.7,10.7,6.4,14.9c3.2,3.6,9,8.1,17,9.2
		c2.1,0,4.2,0.8,5.7,2.3c2,1.9,3.2,4.8,3.3,9.1c0.3,4.8,0.2,9.6-0.2,14.4c-0.3,2.9-0.8,5.8-1.6,8.6c8-5.5,17.9-16.8,17.8-34.3
		c0-0.1,0-0.1,0-0.2c0.4-6-1-15.6-6.5-24.4C103.2,23.7,94.5,16.2,80.1,12.8L80.1,12.8z"/>
	<path class="st2" d="M79.7,31.9c-0.3,0.2-0.6,0.4-0.8,0.7c-0.2,0.3-0.3,0.7-0.3,1c0,0.4,0.1,0.7,0.4,1c0.2,0.3,0.5,0.5,0.8,0.6
		s0.7,0.1,1,0c0.3-0.1,0.7-0.3,0.9-0.5c0.2-0.3,0.4-0.6,0.4-0.9s0-0.7-0.2-1c-0.2-0.4-0.6-0.8-1-0.9C80.7,31.7,80.2,31.7,79.7,31.9z
		"/>
	<path class="st2" d="M89.4,28c-0.2-0.3-0.4-0.6-0.7-0.8c-0.3-0.2-0.7-0.3-1-0.2c-0.4,0-0.7,0.1-1,0.4c-0.3,0.2-0.5,0.5-0.6,0.8
		c-0.1,0.3-0.1,0.7,0,1c0.1,0.3,0.3,0.6,0.5,0.9c0.3,0.2,0.6,0.4,0.9,0.4c0.3,0.1,0.7,0,1-0.2c0.2-0.1,0.4-0.2,0.6-0.4
		c0.2-0.2,0.3-0.4,0.4-0.6c0.1-0.2,0.1-0.5,0.1-0.7C89.6,28.5,89.5,28.3,89.4,28z"/>
	<path class="st2" d="M56.3,59.4c-0.4,0.2-0.8,0.6-1.1,1c-0.3,0.4-0.4,0.9-0.3,1.4c0,0.5,0.2,1,0.5,1.4c0.3,0.4,0.7,0.7,1.2,0.9
		c0.5,0.2,1,0.2,1.5,0.1c0.5-0.1,0.9-0.4,1.2-0.8c0.3-0.4,0.5-0.8,0.6-1.3c0.1-0.5,0-1-0.2-1.4c-0.1-0.3-0.3-0.6-0.6-0.8
		c-0.2-0.2-0.5-0.4-0.8-0.5c-0.3-0.1-0.6-0.2-1-0.1C56.9,59.2,56.6,59.2,56.3,59.4z"/>
	<path class="st2" d="M69.5,53.3c-0.2-0.4-0.6-0.8-1-1.1c-0.4-0.3-0.9-0.4-1.4-0.3c-0.5,0-1,0.2-1.4,0.5c-0.4,0.3-0.7,0.7-0.9,1.2
		c-0.2,0.5-0.2,1-0.1,1.5c0.1,0.5,0.4,0.9,0.8,1.2c0.4,0.3,0.8,0.5,1.3,0.6c0.5,0.1,1,0,1.4-0.2c0.6-0.3,1.1-0.8,1.3-1.4
		C69.8,54.5,69.8,53.9,69.5,53.3z"/>
	<path class="st3" d="M48.1,67.2C29.7,54.6,31,37.6,33.9,30.7c-4.1,3.6-6.9,14.9-7.8,20.1c-1.9,22.6,10.4,38.6,20.7,42.9
		c2.2,0.9,4.3,1.3,5.2,1.1c9-0.5,10.4-9.1,9.9-11.9C60.9,76.4,52.8,69.7,48.1,67.2z"/>
	<path class="st1" d="M35.2,29c0.4,0.3,0.7,0.7,0.8,1.2c0.1,0.5,0.1,1-0.1,1.4c-2.6,6.1-4,21.9,13.4,33.8c3.2,1.8,6.1,4.1,8.7,6.7
		c2.8,2.9,5.5,6.6,6.1,10.5c0.3,1.9,0,5.2-1.7,8.2c-1.7,3.1-4.9,5.8-10.1,6.2c-0.9,0.1-1.9,0.1-2.8-0.2c-1.2-0.2-2.4-0.6-3.5-1.1
		C34.7,91,22,74,24,50.6c0-0.1,0-0.1,0-0.2c0.6-3.7,1.6-7.4,2.7-10.9c0.7-2,1.5-3.9,2.4-5.8c0.8-1.7,2-3.3,3.3-4.6
		c0.4-0.3,0.8-0.5,1.3-0.5C34.3,28.5,34.8,28.7,35.2,29z M28.3,51.1c-1.8,21.7,10,36.8,19.4,40.7c0.9,0.4,1.7,0.6,2.7,0.8
		c0.3,0.1,0.6,0.1,0.9,0.1c0.1,0,0.2,0,0.3,0c0.1,0,0.2,0,0.4-0.1c3.7-0.2,5.6-2,6.7-4c0.9-1.6,1.3-3.5,1.2-5.4
		c-0.4-2.6-2.3-5.5-4.9-8.2c-2.3-2.4-4.9-4.4-7.7-6C47.1,69,47,69,46.9,69c-11.7-8-16-17.8-16.8-26C29.4,45.6,28.8,48.3,28.3,51.1
		L28.3,51.1z"/>
	<path class="st3" d="M72.7,75.3c2.7,1.7,6.3,0,8-1c0.1,0,0.2-0.1,0.3-0.2c3.1-2.5,2.5-5.7,1.1-6.9c-3.4-3-8.7-0.1-10,2.6
		C70.8,72.4,71.9,74.5,72.7,75.3z"/>
	<path class="st1" d="M87.9,71.1C87.7,71,87.4,71,87.2,71c-0.2,0-0.4,0.1-0.7,0.1c-0.2,0.1-0.4,0.2-0.5,0.4
		c-0.2,0.2-0.3,0.4-0.4,0.6c-0.2,0.4-0.4,0.8-0.8,1c-0.3,0.3-0.7,0.5-1.2,0.6c2-2.8,1.4-6.1-0.5-7.8c-2.3-2-5.2-2-7.5-1.2
		c-2.3,0.8-4.3,2.4-5.2,4.3c-1.6,3.4-0.3,6.4,1.1,7.6l0.1,0.1l0.1,0.1c0.8,0.5,1.8,0.8,2.8,0.9c1,0.1,2,0.1,2.9-0.2
		c0.4-0.1,0.7-0.2,1-0.3c-0.1,0.1-0.1,0.3-0.2,0.4c-0.4,0.7-1,1.3-1.6,1.8c-3.9,1.9-6.3,0.1-6.8-0.7c-0.3-0.4-0.7-0.6-1.1-0.7
		s-0.9,0.1-1.3,0.3c-0.4,0.3-0.6,0.7-0.7,1.1c-0.1,0.4,0,0.9,0.3,1.3c1.5,2,5.6,4.5,11.3,1.7l0.1-0.1l0.1-0.1c1.1-0.8,2-1.7,2.7-2.9
		c0.4-0.7,0.7-1.4,0.8-2.1c0.8,0.1,1.6,0,2.4-0.2c1-0.2,1.9-0.7,2.6-1.3c0.7-0.6,1.3-1.5,1.7-2.4c0.1-0.2,0.1-0.4,0.1-0.7
		c0-0.2-0.1-0.5-0.1-0.7c-0.1-0.2-0.2-0.4-0.4-0.6C88.3,71.3,88.1,71.2,87.9,71.1z M73.8,73.9c-0.3-0.3-1-1.5-0.1-3.4
		c0.4-0.8,1.6-1.9,3.2-2.5c1.6-0.6,3-0.4,4.1,0.5c0.4,0.3,0.9,1.5,0.2,2.8C81,70.8,81,70.2,81,69.6c0-0.3-0.1-0.6-0.3-0.8
		c-0.2-0.2-0.5-0.3-0.7-0.4c-0.3,0-0.6,0.1-0.8,0.3c-0.2,0.2-0.3,0.5-0.4,0.7c-0.1,1.2,0.1,2.4,0.6,3.5c-0.1,0.1-0.2,0.1-0.3,0.2
		c-0.2-0.3-0.5-0.5-0.7-0.7c-0.6-0.5-1.3-0.9-2.1-1.3c-0.1-0.1-0.3-0.1-0.4-0.1c-0.1,0-0.3,0-0.4,0c-0.1,0-0.3,0.1-0.4,0.2
		c-0.1,0.1-0.2,0.2-0.3,0.4c-0.1,0.1-0.1,0.3-0.1,0.4c0,0.1,0,0.3,0.1,0.4c0.1,0.1,0.1,0.3,0.2,0.4s0.2,0.2,0.4,0.2
		c0.5,0.3,1,0.6,1.5,0.9l-0.2,0.1C75.8,74.4,74.7,74.3,73.8,73.9L73.8,73.9z"/>
	<path class="st1" d="M97.3,34.4c-0.1-0.2-0.2-0.3-0.3-0.4c-0.1-0.1-0.3-0.2-0.4-0.3c-0.2-0.1-0.3-0.1-0.5-0.1
		c-0.2,0-0.3,0.1-0.5,0.1c-0.2,0.1-0.3,0.2-0.4,0.3c-0.1,0.1-0.2,0.3-0.3,0.4c-0.1,0.2-0.1,0.3-0.1,0.5c0,0.2,0.1,0.3,0.1,0.5
		c0.2,0.5,0.2,1.8-1.2,3.3c-0.6,0.5-1.3,0.7-2,0.7c-0.4,0-0.8-0.2-1.1-0.4c0.4-0.6,0.6-1.3,0.7-2V37v-0.1c0-0.5-0.1-1.1-0.4-1.5
		c-0.2-0.3-0.5-0.6-0.8-0.8s-0.7-0.4-1-0.4c-1-0.2-2,0.1-2.9,0.6c-1,0.5-1.7,1.4-2,2.4c-0.2,0.5-0.1,1,0,1.5c0.1,0.4,0.3,0.7,0.6,1
		c0.3,0.3,0.6,0.5,1,0.7c0.6,0.2,1.3,0.4,1.9,0.4h0.1c0,0.7-0.2,1.3-0.5,2c-0.2,0.4-0.5,0.8-0.8,1c-0.5,0.2-1,0.3-1.5,0.2
		c-0.2,0-0.3,0-0.5,0c-0.2,0-0.3,0.1-0.5,0.2c-0.1,0.1-0.3,0.2-0.3,0.4c-0.1,0.1-0.1,0.3-0.2,0.5c0,0.2,0,0.3,0,0.5
		c0,0.2,0.1,0.3,0.2,0.5c0.1,0.1,0.2,0.3,0.4,0.3c0.1,0.1,0.3,0.1,0.5,0.2c1,0.2,2.1,0.1,3-0.4c0.9-0.5,1.7-1.3,2.1-2.2
		c0.3-0.7,0.5-1.3,0.6-2c0.4,0.1,0.8,0.2,1.3,0.2c1.4,0,2.7-0.4,3.8-1.3l0.1-0.1l0.1-0.1C97.4,38.8,98.2,36.3,97.3,34.4z M86.8,38
		C86.8,38,86.8,38,86.8,38c0-0.1,0-0.2,0-0.2c0,0,0-0.1,0.1-0.1c0.4-0.5,0.9-0.8,1.5-0.9c0.1,0,0.3,0,0.4,0.1c0,0,0,0.1,0,0.1
		c0,0,0,0.1,0,0.1c-0.2,0.5-0.5,1.2-1.1,1.2c-0.2,0-0.4,0-0.6-0.1C87,38.1,86.9,38.1,86.8,38z"/>
	<path class="st1" d="M98.1,23.7c-0.3-0.2-0.6-0.2-1-0.2c-0.3,0.1-0.6,0.3-0.8,0.6l-3.1,4.8c-0.1,0.1-0.2,0.3-0.2,0.5
		c0,0.2,0,0.4,0,0.5c0,0.2,0.1,0.3,0.2,0.5c0.1,0.1,0.2,0.3,0.4,0.4c0.1,0.1,0.3,0.2,0.5,0.2c0.2,0,0.4,0,0.5,0
		c0.2,0,0.3-0.1,0.5-0.2c0.1-0.1,0.3-0.2,0.3-0.4l3.1-4.8c0.2-0.3,0.2-0.6,0.2-1C98.6,24.1,98.4,23.8,98.1,23.7z"/>
	<path class="st1" d="M102.8,28.1c-0.1-0.1-0.2-0.2-0.3-0.3c-0.1-0.1-0.3-0.1-0.4-0.2c-0.2,0-0.3,0-0.5,0c-0.2,0-0.3,0.1-0.4,0.2
		l-4.3,3.1c-0.3,0.2-0.4,0.5-0.5,0.8c-0.1,0.3,0,0.6,0.2,0.9c0.1,0.1,0.2,0.2,0.3,0.3C97,33,97.1,33,97.2,33s0.3,0,0.5,0
		c0.2,0,0.3-0.1,0.4-0.2l4.3-3.1c0.3-0.2,0.4-0.5,0.5-0.8C103,28.7,103,28.4,102.8,28.1z"/>
	<path class="st1" d="M71.9,40.6c0-0.2,0-0.3,0-0.5c0-0.2,0.1-0.3,0.2-0.5c0.1-0.1,0.2-0.3,0.4-0.4c0.1-0.1,0.3-0.2,0.5-0.2l4.6-1
		c0.4-0.1,0.7,0,1,0.1c0.3,0.2,0.5,0.5,0.7,0.8c0,0.2,0,0.4,0,0.5c0,0.2-0.1,0.3-0.2,0.5c-0.1,0.1-0.2,0.3-0.4,0.4
		c-0.1,0.1-0.3,0.2-0.5,0.2l-4.6,1c-0.4,0.1-0.7,0-1-0.2C72.2,41.3,72,41,71.9,40.6z"/>
	<path class="st1" d="M74.2,46.2C74.1,46,74,45.9,74,45.7c0-0.2,0-0.3,0-0.5c0-0.2,0.1-0.3,0.2-0.4c0.1-0.1,0.2-0.2,0.3-0.3l4.5-2.8
		c0.3-0.2,0.6-0.2,0.9-0.2c0.3,0.1,0.6,0.3,0.8,0.5c0.1,0.1,0.1,0.3,0.2,0.4c0,0.2,0,0.3,0,0.5c0,0.2-0.1,0.3-0.2,0.4
		c-0.1,0.1-0.2,0.2-0.3,0.3l-4.5,2.8c-0.3,0.2-0.6,0.2-0.9,0.1C74.6,46.6,74.3,46.4,74.2,46.2z"/>
</g>
<g>
	<path class="st4" d="M106.7,130.4c-1,0-1.6-0.6-1.6-1.7c0-1,0.6-1.7,1.5-1.7c0.8,0,1.5,0.5,1.5,1.6v0.2H106c0,0.5,0.3,0.8,0.7,0.8
		c0.2,0,0.5-0.1,0.6-0.3h0.8C108.1,130,107.5,130.4,106.7,130.4z M106,128.4h1.4c0-0.4-0.3-0.6-0.6-0.7c0,0,0,0-0.1,0
		C106.3,127.8,106,128.1,106,128.4z"/>
	<path class="st4" d="M102.1,130.4c-1,0-1.6-0.7-1.6-1.7c0-1,0.6-1.7,1.6-1.7c0.8,0,1.4,0.5,1.4,1.2h-0.8c0-0.3-0.3-0.5-0.6-0.5
		c-0.4,0-0.7,0.4-0.7,1s0.3,1,0.7,1c0.3,0,0.6-0.2,0.6-0.5h0.8C103.5,129.9,103,130.4,102.1,130.4z"/>
	<path class="st4" d="M97.9,130.4v-3.2h0.9v3.2H97.9z M98.4,126.7c-0.2,0-0.4-0.2-0.4-0.5c0-0.2,0.2-0.4,0.5-0.4
		c0.2,0,0.4,0.2,0.4,0.4C98.8,126.5,98.6,126.7,98.4,126.7L98.4,126.7z"/>
	<path class="st4" d="M96.3,127.2l-1.1,3.2h-1l-1.1-3.2H94l0.7,2.3h0l0.7-2.3H96.3z"/>
	<path class="st4" d="M89.7,130.4v-3.2h0.8v0.6h0c0.1-0.4,0.4-0.6,0.8-0.6c0.1,0,0.2,0,0.3,0v0.8c-0.1,0-0.2,0-0.4,0
		c-0.4,0-0.7,0.3-0.7,0.6c0,0,0,0,0,0v1.8H89.7z"/>
	<path class="st4" d="M86.5,130.4c-1,0-1.6-0.6-1.6-1.7c0-1,0.6-1.7,1.5-1.7c0.8,0,1.5,0.5,1.5,1.6v0.2h-2.2c0,0.5,0.3,0.8,0.7,0.8
		c0.2,0,0.5-0.1,0.6-0.3h0.8C87.8,130,87.2,130.4,86.5,130.4z M85.7,128.4h1.4c0-0.4-0.3-0.6-0.6-0.7c0,0,0,0-0.1,0
		C86.1,127.8,85.7,128.1,85.7,128.4C85.7,128.4,85.7,128.4,85.7,128.4L85.7,128.4z"/>
	<path class="st4" d="M82.3,127.3c0-0.3-0.3-0.5-0.7-0.5c-0.4,0-0.7,0.2-0.7,0.5c0,0.3,0.3,0.4,0.7,0.5l0.4,0.1
		c0.7,0.2,1.3,0.5,1.3,1.2c0,0.8-0.6,1.3-1.7,1.3s-1.7-0.5-1.7-1.4h0.9c0,0.4,0.4,0.6,0.8,0.6c0.5,0,0.8-0.2,0.8-0.5
		c0-0.3-0.3-0.4-0.7-0.5l-0.5-0.1c-0.7-0.2-1.2-0.5-1.2-1.2c0-0.8,0.7-1.3,1.6-1.3c0.9,0,1.6,0.5,1.6,1.3L82.3,127.3z"/>
	<path class="st4" d="M75.5,126.1v4.3h-0.9v-4.3H75.5z"/>
	<path class="st4" d="M69.9,129.5c0-0.7,0.6-0.9,1.2-1c0.2,0,0.7,0,0.8,0v-0.3c0-0.3-0.2-0.4-0.5-0.4c-0.3,0-0.5,0.1-0.5,0.4H70
		c0.1-0.6,0.5-1,1.4-1c0.7,0,1.4,0.3,1.4,1.1v2.2h-0.8v-0.4h0c-0.2,0.3-0.5,0.5-0.9,0.5C70.4,130.4,69.9,130.1,69.9,129.5z
		 M70.7,129.4c0,0.2,0.2,0.4,0.5,0.4c0.4,0,0.7-0.3,0.7-0.6V129c-0.1,0-0.5,0-0.7,0C70.9,129,70.7,129.2,70.7,129.4L70.7,129.4z"/>
	<path class="st4" d="M66.9,130.4c-1,0-1.6-0.7-1.6-1.7c0-1,0.6-1.7,1.6-1.7c0.8,0,1.4,0.5,1.4,1.2h-0.8c0-0.3-0.3-0.5-0.6-0.5
		c-0.4,0-0.7,0.4-0.7,1s0.3,1,0.7,1c0.3,0,0.6-0.2,0.6-0.5h0.8C68.3,129.9,67.7,130.4,66.9,130.4z"/>
	<path class="st4" d="M62.7,130.4v-3.2h0.9v3.2H62.7z M63.1,126.7c-0.2,0-0.4-0.2-0.4-0.5c0-0.2,0.2-0.4,0.5-0.4
		c0.2,0,0.4,0.2,0.4,0.4C63.6,126.5,63.4,126.7,63.1,126.7L63.1,126.7z"/>
	<path class="st4" d="M59,130.4c-0.7,0-1.3-0.6-1.3-1.7c0-1.1,0.6-1.6,1.3-1.6c0.4,0,0.8,0.2,0.9,0.6h0v-1.6h0.9v4.3h-0.9v-0.5h0
		C59.7,130.2,59.4,130.4,59,130.4z M59.3,129.7c0.4,0,0.7-0.4,0.7-1c0-0.6-0.2-0.9-0.7-0.9s-0.7,0.4-0.7,0.9
		C58.6,129.3,58.8,129.7,59.3,129.7L59.3,129.7z"/>
	<path class="st4" d="M54.6,130.4c-1,0-1.6-0.6-1.6-1.7c0-1,0.6-1.7,1.5-1.7c0.8,0,1.5,0.5,1.5,1.6v0.2h-2.2c0,0.5,0.3,0.8,0.7,0.8
		c0.2,0,0.5-0.1,0.6-0.3H56C55.9,130,55.4,130.4,54.6,130.4z M53.9,128.4h1.4c0-0.4-0.3-0.6-0.6-0.7c0,0,0,0-0.1,0
		C54.2,127.8,53.9,128.1,53.9,128.4z"/>
	<path class="st4" d="M46.6,126.1h1.1l1.2,2.9h0l1.2-2.9h1.1v4.3h-0.9v-2.8h0l-1.1,2.8h-0.6l-1.1-2.8h0v2.8h-0.9V126.1z"/>
	<path class="st4" d="M42.2,127.2v0.7h-0.6v1.6c0,0.3,0.1,0.3,0.3,0.3c0.1,0,0.2,0,0.3,0v0.7c-0.2,0-0.3,0-0.5,0
		c-0.6,0-1.1-0.3-1.1-0.9v-1.7h-0.4v-0.7h0.4v-0.8h0.9v0.8H42.2z"/>
	<path class="st4" d="M37.3,130.4c-1,0-1.6-0.6-1.6-1.7c0-1,0.6-1.7,1.5-1.7c0.8,0,1.5,0.5,1.5,1.6v0.2h-2.2c0,0.5,0.3,0.8,0.7,0.8
		c0.2,0,0.5-0.1,0.6-0.3h0.8C38.7,130,38.1,130.4,37.3,130.4z M36.6,128.4H38c0-0.4-0.3-0.6-0.6-0.7c0,0,0,0-0.1,0
		C36.9,127.8,36.6,128.1,36.6,128.4z"/>
	<path class="st4" d="M31,130.4v-4.3h1.7c1,0,1.5,0.6,1.5,1.4s-0.6,1.4-1.6,1.4h-0.8v1.4L31,130.4z M31.9,128.2h0.6
		c0.5,0,0.8-0.3,0.8-0.7c0-0.4-0.3-0.7-0.8-0.7h-0.6V128.2z"/>
	<path class="st2" d="M125.5,120.8c0,0.4-0.1,0.9-0.2,1.3c-0.1,0.3-0.2,0.7-0.4,0.9c-0.2,0.2-0.5,0.4-0.8,0.5
		c-0.4,0.1-0.8,0.1-1.3,0.1l-6.5-0.5c-0.4,0-0.8-0.2-1.1-0.5c-0.3-0.3-0.4-0.7-0.6-1.1c-0.1-0.4-0.2-0.9-0.2-1.3c0-0.5,0-0.9,0-1.3
		c0-2.1,0-4.2,0.1-6.2c0.1-2.1,0.2-4.2,0.3-6.2l0-0.3c0.1-1,0.3-1.8,0.8-2.5c0.5-0.6,1.3-0.9,2.4-0.9c0.6,0,1.1,0.1,1.6,0.2
		c0.4,0.1,0.9,0.2,1.2,0.4c0.3,0.2,0.6,0.5,0.8,0.9c0.2,0.4,0.3,0.9,0.2,1.6c-0.1,0.9-0.2,1.7-0.4,2.6c-0.2,0.9-0.4,1.7-0.5,2.5
		c-0.2,1.1-0.4,2.2-0.5,3.4c-0.1,1.1-0.2,2.3-0.3,3.4c0.3,0,0.6,0,0.9-0.2c0.3-0.1,0.7-0.3,1-0.4c0.4-0.2,0.7-0.3,1.1-0.4
		c0.4-0.1,0.8-0.2,1.2-0.2c0.5,0,0.8,0.2,1,0.5c0.2,0.3,0.3,0.7,0.4,1.1c0,0.4,0,0.9,0,1.3C125.6,120,125.5,120.4,125.5,120.8z"/>
	<path class="st2" d="M105.6,123.4c-0.7,0-1.3-0.1-1.9-0.4c-0.6-0.3-1.1-0.7-1.5-1.2c-0.4-0.5-0.8-1.1-1-1.7c-0.2-0.6-0.4-1.3-0.4-2
		c0-0.7,0.1-1.4,0.5-2.1c0.3-0.5,0.8-1,1.3-1.3c0.6-0.3,1.2-0.6,1.8-0.7c0.7-0.1,1.3-0.2,2-0.2c0.4,0,0.8,0.1,1.2,0.3
		c0.4,0.2,0.7,0.4,1,0.8c0-0.2,0-0.4,0-0.6c0-0.2,0-0.4,0-0.6v-0.2c0-0.8-0.2-1.3-0.6-1.6c-0.4-0.3-0.9-0.4-1.6-0.4
		c-0.3,0-0.6,0.1-0.9,0.2c-0.2,0.1-0.4,0.3-0.5,0.5c-0.1,0.2-0.3,0.4-0.4,0.6c-0.1,0.2-0.2,0.4-0.4,0.6c-0.2,0.2-0.4,0.3-0.6,0.4
		c-0.3,0.1-0.6,0.2-1,0.2c-0.8,0-1.4-0.3-1.8-0.8c-0.4-0.6-0.6-1.3-0.6-2.1c0-0.7,0.2-1.3,0.7-1.8c0.5-0.5,1.1-0.8,1.7-1
		c0.7-0.2,1.4-0.4,2.1-0.5c0.6-0.1,1.3-0.1,1.9-0.1c0.8,0,1.7,0.1,2.5,0.2c0.8,0.1,1.5,0.3,2.2,0.7c0.6,0.4,1.2,0.9,1.5,1.5
		c0.4,0.6,0.6,1.5,0.6,2.6c0,0.3,0,0.7-0.1,1c0,0.3-0.1,0.7-0.1,1c-0.1,0.9-0.2,1.7-0.3,2.6c0,0.8-0.1,1.7-0.1,2.6
		c0,0.4,0,0.9,0,1.3c0,0.4,0,0.9-0.1,1.3c-0.1,0.2-0.2,0.5-0.3,0.6c-0.2,0.2-0.4,0.3-0.6,0.4c-0.2,0.1-0.5,0.2-0.7,0.2
		c-0.2,0-0.5,0.1-0.7,0.1c-0.5,0-0.9-0.1-1.3-0.3c-0.3-0.2-0.6-0.5-0.7-1.1c-0.4,0.4-0.8,0.7-1.3,0.8
		C106.6,123.4,106.1,123.4,105.6,123.4z M108.2,119c0-0.2,0-0.3,0-0.5s0-0.3,0-0.5c-0.2-0.2-0.5-0.4-0.8-0.5
		c-0.3-0.1-0.6-0.2-0.9-0.2c-0.2,0-0.4,0-0.5,0c-0.2,0-0.3,0.1-0.5,0.1c-0.2,0.1-0.3,0.2-0.4,0.3c-0.1,0.2-0.1,0.4-0.1,0.6
		c0,0.2,0,0.3,0.1,0.5c0.1,0.1,0.2,0.2,0.3,0.2c0.1,0,0.2,0.1,0.4,0.1h0.4c0.3,0,0.7,0,1,0C107.5,119.1,107.9,119.1,108.2,119z"/>
	<path class="st2" d="M97.3,119.8c0.2,0,0.4-0.1,0.6-0.2c0.2-0.1,0.5-0.2,0.7-0.2c0.1,0,0.2,0,0.3,0.1c0.1,0.1,0.1,0.2,0.2,0.3
		c0,0.1,0.1,0.2,0.1,0.4c0,0.1,0,0.2,0,0.3c0,0.8-0.2,1.5-0.6,2c-0.4,0.5-1,0.8-1.8,0.8c-1.1,0-1.9-0.2-2.5-0.7
		c-0.6-0.5-1-1.1-1.2-1.8c-0.2-0.8-0.4-1.6-0.4-2.5c0-0.9-0.1-1.8-0.1-2.6c0,0-0.1,0-0.1,0c0,0-0.1,0-0.1,0c-0.2,0-0.4-0.1-0.5-0.2
		c-0.1-0.1-0.2-0.3-0.3-0.5c-0.1-0.2-0.1-0.4-0.2-0.6c0-0.2-0.1-0.4-0.1-0.6c0-0.2-0.1-0.4-0.1-0.6c0-0.2,0-0.4,0-0.6
		c0-0.7,0.4-1.2,1.1-1.4c-0.1-0.3-0.2-0.7-0.2-1c0-0.4,0.1-0.8,0.3-1.1c0.2-0.3,0.4-0.6,0.7-0.8c0.3-0.2,0.7-0.3,1-0.4
		c0.4-0.1,0.7-0.1,1.1-0.1c0.3,0,0.5,0,0.8,0.1c0.3,0,0.6,0.1,0.9,0.2c0.3,0.1,0.5,0.3,0.7,0.5c0.2,0.2,0.3,0.4,0.3,0.7
		c0,0.3-0.1,0.7-0.2,1c-0.1,0.3-0.2,0.6-0.2,0.9c0.2-0.1,0.4-0.2,0.7-0.3c0.2-0.1,0.5-0.1,0.7-0.1c0.5,0,0.9,0.1,1.1,0.3
		c0.2,0.2,0.4,0.5,0.4,1.1c0,0.5-0.1,1.1-0.2,1.6c-0.1,0.4-0.3,0.7-0.6,1c-0.3,0.3-0.7,0.5-1.1,0.6c-0.5,0.1-1,0.2-1.5,0.2
		c0,0.6,0,1.1,0,1.7v1.7c0,0.2,0,0.4,0.1,0.6C96.9,119.8,97.1,119.9,97.3,119.8z"/>
	<path class="st2" d="M84.6,107.6c0.6,0,1.2,0,1.9,0.1c0.6,0,1.3,0.2,1.9,0.4c0.6,0.2,1,0.6,1.4,1c0.4,0.4,0.6,1.1,0.6,1.8
		c0,0.5-0.1,1-0.2,1.4c-0.2,0.7-0.4,1.4-0.8,2c-0.3,0.5-0.7,1-1.2,1.3c-0.5,0.3-1.1,0.6-1.6,0.7c-0.7,0.1-1.3,0.2-2,0.2
		c-0.4,0-0.7,0-1.1-0.1c-0.4,0-0.7-0.1-1.1-0.1c0,0.1-0.1,0.3-0.1,0.5c0,0.4,0.1,0.7,0.3,1c0.2,0.3,0.5,0.5,0.8,0.7
		c0.3,0.2,0.7,0.3,1,0.4c0.3,0.1,0.7,0.2,1,0.2c0.4,0,0.8-0.1,1.1-0.4c0.3-0.2,0.5-0.5,0.7-0.9c0.2-0.3,0.3-0.6,0.4-0.9
		s0.3-0.4,0.6-0.4c0.2,0,0.5,0,0.7,0.1c0.3,0.1,0.5,0.2,0.7,0.3c0.2,0.1,0.4,0.3,0.5,0.5c0.1,0.2,0.2,0.5,0.2,0.7
		c0,0.2,0,0.3-0.1,0.5c-0.2,0.7-0.5,1.3-0.9,1.8c-0.4,0.6-0.9,1-1.4,1.5c-0.5,0.4-1.1,0.7-1.8,1c-0.6,0.2-1.3,0.3-1.9,0.3
		c-1.1,0-2.1-0.3-2.9-0.9c-0.8-0.6-1.5-1.4-2-2.3c-0.5-0.9-0.9-2-1.1-3c-0.2-1-0.3-2.1-0.3-3.1c0-2.3,0.6-3.9,1.7-5
		S82.4,107.6,84.6,107.6z M82.6,113.6c0.3,0,0.6,0.1,0.9,0.1c0.3,0,0.6,0,0.9,0c0.2,0,0.4,0,0.6,0c0.2,0,0.4-0.1,0.7-0.1
		c0.2-0.1,0.4-0.2,0.5-0.3c0.2-0.1,0.2-0.3,0.2-0.6c0-0.2,0-0.3-0.2-0.4c-0.1-0.1-0.2-0.2-0.4-0.2c-0.1-0.1-0.3-0.1-0.4-0.1
		c-0.1,0-0.3,0-0.4,0c-0.3,0-0.5,0-0.8,0.1c-0.2,0.1-0.5,0.2-0.7,0.3c-0.2,0.1-0.4,0.3-0.5,0.5C82.7,113,82.6,113.3,82.6,113.6z"/>
	<path class="st2" d="M69.3,119.5c0,0.6,0,1.3-0.1,1.9c0,0.4-0.2,0.8-0.4,1.2c-0.2,0.3-0.6,0.5-1,0.6c-0.6,0.1-1.2,0.2-1.9,0.2
		c-0.3,0-0.5,0-0.8-0.1c-0.3,0-0.5-0.1-0.7-0.3c-0.2-0.1-0.3-0.3-0.4-0.6c-0.1-0.3-0.2-0.6-0.3-0.9c-0.1-0.3-0.1-0.6-0.1-1
		c0-0.3,0-0.6-0.1-0.7c-0.2-2.2-0.4-4.3-0.6-6.4s-0.3-4.3-0.3-6.5c0-0.8,0.1-1.6,0.3-2.4c0.1-0.5,0.4-0.9,0.9-1.2
		c0.5-0.3,1-0.4,1.5-0.4c0.6,0,1.4-0.1,2.3-0.1c0.8,0,1.6,0,2.4,0c0.8,0,1.6,0.1,2.4,0.1c0.8,0.1,1.5,0.2,2.3,0.4
		c0.6,0.1,1.2,0.4,1.6,0.8c0.5,0.4,0.8,0.9,1,1.5c0.3,0.8,0.4,1.6,0.3,2.4c0,1.2-0.1,2.4-0.4,3.6c-0.2,1.1-0.6,2.2-1.2,3.2
		c-0.5,0.9-1.3,1.7-2.2,2.3c-0.9,0.6-2,0.9-3.4,0.9h-0.6c-0.2,0-0.4-0.1-0.6-0.1C69.3,118.4,69.3,118.9,69.3,119.5z M68.9,109.1
		c0,1.1,0,2.2,0.1,3.3c0.3,0,0.7,0,1.1,0c0.4,0,0.7-0.1,1.1-0.2c0.3-0.1,0.6-0.3,0.8-0.6c0.2-0.3,0.4-0.8,0.3-1.2
		c0-0.4-0.1-0.7-0.3-1c-0.2-0.3-0.5-0.5-0.8-0.6c-0.3-0.1-0.7-0.2-1.1-0.2c-0.3,0-0.7-0.1-1-0.1c-0.1,0-0.2,0.1-0.2,0.2
		C68.9,108.9,68.9,109,68.9,109.1L68.9,109.1z"/>
	<path class="st2" d="M59.3,113.1c-0.2,0-0.4-0.1-0.6-0.2c-0.2-0.2-0.4-0.3-0.7-0.5c-0.3-0.2-0.6-0.4-0.9-0.5
		c-0.3-0.2-0.7-0.3-1.1-0.3c-0.2,0-0.5,0-0.7,0.2c-0.2,0.1-0.3,0.3-0.3,0.6c0,0.1,0,0.1,0.1,0.2c0.1,0,0.2,0.1,0.2,0.1
		c0.1,0,0.2,0.1,0.3,0.1l0.2,0.1c0.6,0.2,1.2,0.5,1.9,0.7c0.6,0.2,1.2,0.6,1.8,1c0.5,0.4,1,0.8,1.3,1.4c0.3,0.5,0.5,1.2,0.5,2
		c0,0.8-0.2,1.5-0.5,2.2c-0.3,0.7-0.7,1.2-1.3,1.7c-0.5,0.5-1.2,0.9-1.9,1.1c-0.7,0.2-1.4,0.4-2.2,0.4c-0.5,0-1-0.1-1.5-0.2
		c-0.5-0.1-1-0.3-1.4-0.6c-0.4-0.3-0.8-0.6-1.1-1c-0.3-0.4-0.6-0.9-0.8-1.4c-0.1-0.2-0.1-0.4-0.1-0.6c0-0.2,0-0.5,0.1-0.7
		c0.1-0.3,0.2-0.5,0.3-0.8c0.1-0.2,0.3-0.5,0.5-0.6c0.2-0.2,0.4-0.3,0.7-0.3c0.2,0,0.4,0.1,0.6,0.3c0.2,0.2,0.5,0.4,0.7,0.6
		c0.3,0.2,0.6,0.5,0.9,0.6c0.4,0.2,0.8,0.3,1.2,0.3c0.1,0,0.2,0,0.4,0c0.2,0,0.3,0,0.5-0.1c0.1,0,0.3-0.1,0.4-0.2
		c0.1-0.1,0.2-0.2,0.2-0.4c0,0,0-0.1-0.1-0.1c-0.1,0-0.1-0.1-0.2-0.1c-0.1,0-0.1-0.1-0.2-0.1c0,0-0.1,0-0.1,0l-1.3-0.4
		c-0.4-0.2-0.8-0.3-1.3-0.5c-0.5-0.3-1-0.6-1.5-0.9c-0.5-0.3-0.9-0.8-1.3-1.2c-0.3-0.5-0.6-1-0.8-1.5c-0.2-0.6-0.3-1.2-0.3-1.8
		c0-0.8,0.2-1.5,0.6-2.1c0.4-0.6,1-1,1.6-1.3c0.6-0.3,1.3-0.6,2-0.7c0.7-0.1,1.4-0.2,2.1-0.2c0.3,0,0.7,0,1,0.1
		c0.4,0.1,0.9,0.1,1.3,0.2c0.5,0.1,0.9,0.2,1.3,0.4c0.4,0.1,0.8,0.3,1.2,0.6c0.3,0.2,0.6,0.5,0.9,0.8c0.2,0.3,0.3,0.7,0.3,1
		c0,0.3-0.1,0.7-0.2,1c-0.2,0.3-0.4,0.6-0.7,0.8c-0.3,0.2-0.6,0.4-0.9,0.6C60,113,59.7,113.1,59.3,113.1z"/>
	<path class="st2" d="M31.6,122.9c-0.6,0.1-1.2-0.1-1.6-0.5c-0.2-0.2-0.3-0.5-0.5-1.1c-0.1-0.6-0.2-1.1-0.3-1.8s-0.2-1.2-0.3-1.8
		c-0.1-0.6-0.1-1-0.1-1.3l0-0.4l-2,0.3l-2,0.2l0.1,0.6c0,0.7,0.1,1.5,0.2,2.2c0.1,0.7,0,1.4-0.1,2.1c-0.1,0.6-0.4,1.2-0.9,1.6
		c-0.4,0.4-1.2,0.7-2.1,0.8c-0.6,0.1-1.1-0.1-1.6-0.3c-0.2-0.1-0.4-0.5-0.6-1.2c-0.2-0.7-0.4-1.4-0.5-2.2c-0.2-0.8-0.3-1.6-0.4-2.3
		c-0.1-0.7-0.2-1.3-0.2-1.5c-0.2-1.3-0.4-2.5-0.7-3.7c-0.3-1.2-0.5-2.5-0.6-3.7c-0.1-0.7-0.1-1.4,0-2c0-0.6,0.2-1.2,0.4-1.8
		c0.2-0.5,0.6-1,1.1-1.3c0.5-0.3,1.1-0.6,2-0.6c0.3,0,0.6,0,1,0c0.4,0,0.7,0.1,1.1,0.2c0.3,0.1,0.6,0.3,0.9,0.5
		c0.3,0.2,0.4,0.6,0.4,0.9c0.1,1,0.1,2,0.1,3c0,1,0,2,0.1,2.9c0.6-0.1,1.3-0.2,1.9-0.3c0.6-0.1,1.3-0.1,1.9-0.2
		c-0.1-0.7-0.3-1.5-0.5-2.2c-0.2-0.7-0.3-1.5-0.3-2.2c-0.1-0.9,0.1-1.7,0.5-2.4c0.5-0.7,1.2-1.1,2.1-1.2l1-0.1
		c0.6-0.1,1.1-0.1,1.5-0.1c0.4,0,0.7,0,1,0.2c0.3,0.2,0.5,0.4,0.6,0.8c0.2,0.5,0.3,1,0.3,1.6c0,0.5,0.1,0.9,0,1.4c0,0.4,0,0.9,0,1.4
		c0,1.4,0,2.8,0.1,4.2c0.1,1.4,0.1,2.8,0.1,4.2c0,0.6,0,1.1,0,1.7c0,0.6,0,1.1-0.1,1.7c0,0.5-0.1,1-0.2,1.6c0,0.4-0.2,0.8-0.4,1.1
		c-0.2,0.3-0.5,0.5-0.8,0.7C32.6,122.8,32.1,122.9,31.6,122.9z"/>
	<g>
		<path class="st2" d="M48.6,110.2c-0.2-0.7-0.7-1.3-1.3-1.8c-0.6-0.5-1.3-0.8-2-0.9c-0.9-0.2-1.8-0.3-2.8-0.3c-1,0-2,0.1-3,0.3
			c-0.8,0.2-1.5,0.6-2.2,1.1c-0.6,0.5-1.1,1.2-1.3,2c-0.3,0.8-0.4,1.9-0.4,3.1c0,0.4,0,0.8,0,1.2c0,0.4,0.1,0.8,0.1,1.2
			c0.1,1,0.3,2,0.6,2.9c0.2,0.8,0.6,1.6,1.1,2.3c0.5,0.7,1.2,1.2,1.9,1.6c0.8,0.4,1.7,0.6,2.9,0.6c1.2,0,2.2-0.2,3-0.7
			c0.8-0.4,1.4-1.1,1.9-1.8c0.5-0.8,0.9-1.7,1.1-2.6c0.2-1,0.4-2.1,0.5-3.1c0.1-0.7,0.1-1.5,0.1-2.2C49,111.8,48.9,110.9,48.6,110.2
			z M46.6,115.5c-0.1,0.5-0.1,1-0.6,1.2c-0.6,0.2-1.3,0.3-2,0.3c0,0.7,0,1.3-0.2,2c0,0.2-0.2,0.5-0.4,0.6c-0.3,0.2-0.6,0.2-1,0.2
			c-0.4,0-0.8-0.1-1.1-0.4c-0.2-0.3-0.3-0.6-0.4-1l-0.2-1.2c0,0,0-0.1,0-0.1c-0.1-0.1-0.2-0.1-0.2-0.1c-0.7,0.1-1.4-0.1-1.9-0.6
			c-0.5-0.5-0.7-1.3-0.3-1.9c0.2-0.4,0.6-0.7,1.1-0.8c0.4-0.1,0.9-0.2,1.4-0.2c0.1-0.5,0.1-1,0.2-1.5s0.4-0.9,0.9-1.1
			c0.3-0.1,0.6-0.1,0.9-0.1c0.2,0,0.5,0,0.7,0.1c0,0,0,0,0.1,0c0.2,0.2,0.4,0.5,0.4,0.7c0.2,0.6,0.3,1.3,0.2,1.9
			c0.5,0,0.9,0,1.4,0.1c0.3,0,0.7,0.1,0.9,0.3C46.6,114.5,46.6,115,46.6,115.5z"/>
	</g>
</g>
</svg>
