<svg id="레이어_1" data-name="레이어 1" xmlns="http://www.w3.org/2000/svg" viewBox="0 0 1000 260"><path d="M262.58,239.1v-23h9c5.24,0,8.22,3.2,8.22,7.74s-3.05,7.74-8.34,7.74h-4.13v7.49Zm4.76-11.33h3.36c2.83,0,4.19-1.58,4.19-3.9S273.53,220,270.7,220h-3.36ZM300,239.45c-5.26,0-8.5-3.43-8.5-8.89s3.27-8.91,8.31-8.91c4.54,0,8.09,2.85,8.09,8.72v1.34H296.12c0,2.6,1.56,4.22,4,4.22a3.29,3.29,0,0,0,3.2-1.75h4.48C307.1,237.35,304.25,239.45,300,239.45Zm-3.87-10.69h7.33a3.42,3.42,0,0,0-3.55-3.59A3.69,3.69,0,0,0,296.12,228.76Zm33.55-6.89v3.52h-3.24v8.41c0,1.36.67,1.71,1.62,1.75.47,0,1.3,0,1.87-.1v3.71a14.26,14.26,0,0,1-2.51.16c-3.39,0-5.71-1.52-5.68-4.85v-9.08h-2.38v-3.52h2.38v-4.12h4.7v4.12Zm30-5.74h5.9L372,231.71h.26l6.37-15.58h5.9v23h-4.63v-15h-.19l-6,14.94h-3.17l-6-15h-.19v15.1h-4.64Zm46.14,23.32c-5.27,0-8.5-3.43-8.5-8.89s3.27-8.91,8.31-8.91c4.54,0,8.09,2.85,8.09,8.72v1.34H402c0,2.6,1.55,4.22,4,4.22a3.31,3.31,0,0,0,3.2-1.75h4.47C412.94,237.35,410.08,239.45,405.83,239.45ZM402,228.76h7.33a3.42,3.42,0,0,0-3.55-3.59A3.69,3.69,0,0,0,402,228.76Zm30.81,10.63c-3.93,0-7-3.15-7-8.89,0-5.9,3.21-8.85,7-8.85a5,5,0,0,1,4.89,3.11h.16v-8.63h4.69v23h-4.63v-2.76h-.22A5.1,5.1,0,0,1,432.77,239.39Zm1.46-3.75c2.35,0,3.68-2.06,3.68-5.17s-1.33-5.08-3.68-5.08-3.65,2.07-3.65,5.08S431.85,235.64,434.23,235.64ZM456,239.1V221.87h4.69V239.1Zm2.34-19.48a2.4,2.4,0,1,1,2.54-2.38A2.49,2.49,0,0,1,458.38,219.62Zm23.49,19.83c-5.27,0-8.44-3.65-8.44-8.92s3.2-8.88,8.44-8.88c4.44,0,7.46,2.6,7.64,6.54H485.1a3.12,3.12,0,0,0-3.17-2.89c-2.25,0-3.74,1.9-3.74,5.17s1.46,5.23,3.74,5.23a3.08,3.08,0,0,0,3.17-2.85h4.41C489.29,236.75,486.44,239.45,481.87,239.45Zm19.49-5.17c0-3.84,3.11-5.11,6.4-5.3,1.24-.08,3.56-.19,4.29-.22v-1.4c0-1.43-1-2.28-2.76-2.28s-2.6.73-2.86,1.9H502c.28-3,2.89-5.33,7.45-5.33,3.75,0,7.3,1.68,7.3,5.84V239.1h-4.44v-2.38h-.13a5.3,5.3,0,0,1-5,2.7C503.8,239.42,501.36,237.7,501.36,234.28Zm4.5-.13c0,1.33,1.08,2,2.57,2a3.34,3.34,0,0,0,3.62-3.24v-1.26c-.72,0-2.71.14-3.52.22C506.91,232.06,505.86,232.82,505.86,234.15Zm28.88-18v23H530v-23Zm43.19,6.57c-.19-1.81-1.65-2.89-4-2.89s-3.75,1.11-3.78,2.63,1.71,2.41,3.68,2.86l2.06.51c3.94.88,6.89,2.88,6.89,6.72,0,4.22-3.3,6.89-8.89,6.89s-9.1-2.57-9.23-7.49h4.63c.16,2.32,2,3.49,4.54,3.49s4.13-1.17,4.13-2.89c0-1.55-1.43-2.28-3.94-2.92l-2.5-.6c-3.87-.95-6.25-2.89-6.25-6.25,0-4.19,3.68-6.95,8.69-6.95s8.44,2.83,8.5,6.89Zm25.46,16.75c-5.27,0-8.51-3.43-8.51-8.89s3.27-8.91,8.31-8.91c4.54,0,8.1,2.85,8.1,8.72v1.34H599.51c0,2.6,1.56,4.22,4,4.22a3.29,3.29,0,0,0,3.2-1.75h4.48C610.49,237.35,607.64,239.45,603.39,239.45Zm-3.88-10.69h7.33a3.42,3.42,0,0,0-3.55-3.59A3.69,3.69,0,0,0,599.51,228.76ZM624,239.1V221.87h4.54v3h.19a4.19,4.19,0,0,1,4.16-3.23,7.09,7.09,0,0,1,1.49.16V226a9.31,9.31,0,0,0-2-.25,3.51,3.51,0,0,0-3.68,3.59v9.8Zm38.94-17.23-6.06,17.23h-5.27l-6-17.23h5l3.62,12.38h.19l3.62-12.38Zm12,17.23V221.87h4.7V239.1Zm2.35-19.48a2.4,2.4,0,1,1,2.54-2.38A2.48,2.48,0,0,1,677.3,219.62Zm23.48,19.83c-5.27,0-8.44-3.65-8.44-8.92s3.21-8.88,8.44-8.88c4.44,0,7.46,2.6,7.65,6.54H704a3.13,3.13,0,0,0-3.17-2.89c-2.26,0-3.75,1.9-3.75,5.17s1.46,5.23,3.75,5.23a3.09,3.09,0,0,0,3.17-2.85h4.41C708.21,236.75,705.35,239.45,700.78,239.45Zm28.12,0c-5.27,0-8.5-3.43-8.5-8.89s3.26-8.91,8.31-8.91c4.54,0,8.09,2.85,8.09,8.72v1.34H725c0,2.6,1.55,4.22,4,4.22a3.31,3.31,0,0,0,3.21-1.75h4.47C736,237.35,733.15,239.45,728.9,239.45ZM725,228.76h7.33a3.43,3.43,0,0,0-3.56-3.59A3.69,3.69,0,0,0,725,228.76Z" style="fill:#666"/><path d="M818.54,76.28q-9.31-5.72-15.95-5.72-9.08-1.05-22.36,2a59.62,59.62,0,0,0-27,14.45A29.05,29.05,0,0,0,746.48,98q-7.54,23.13-6.37,44.62a48.38,48.38,0,0,0,.72,7.49q2.8,25,6.37,28.58a34,34,0,0,0,23.09,8.54,15,15,0,0,0,5.64-1.05q4.19-2.78,4.61-12.09c2.26,0,4.5-.06,6.61-.23q.93,8,3.38,10.87a29.34,29.34,0,0,0,16.17,9.67,13.43,13.43,0,0,0,8.63-.72q9.95-8,14.23-27.49a278.3,278.3,0,0,0,3.52-41.43q-.68-18-3.16-26.76Q826.26,83.55,818.54,76.28Z" style="fill:#1c1b1f;fill-rule:evenodd"/><path d="M870.33,54.08q10.81-1.5,13,11.33c6.9,32.86,10.91,55.91,6.35,78.4,7.88-4,8.74-4.47,8.77-4.2q17-6,26.07-7,12-.51,16.92,4.09c1.39,1.41,2.41,4.37,3.06,8.9q3,19.53-1.53,33-4.51,6.54-13.41,8.74a168.55,168.55,0,0,1-39.71,7.05q-19.56,2.25-34.07-7-7.92-12.94-9.76-35.73-8-69.24-4.3-79.37,1.5-7.89,6.43-10.8C854.32,57.52,858.83,55.4,870.33,54.08Z" style="fill:#1c1b1f"/><path d="M711.62,42.52q13.26,0,22.69,7.62a21.54,21.54,0,0,1,5,9.74Q742,87,737.11,104.76q-2.08,8.17-7.57,12.33-6.94,3.21-31.88,2.19l1.17,26.9q-.55,26.61-4.16,37.06-3.51,8.43-9,11.22-3.75,2.43-10.76,2.38-13.09-.85-17.16-4.41-4.72-2.3-9.54-23.51a150.57,150.57,0,0,1-3.2-31.11q0-9.6,1.07-24.52a95.79,95.79,0,0,1-14.62-3,47.76,47.76,0,0,1-20-9.19q-4.77-5.12-4.78-22.74,1.13-13.45,8.38-19.14,7.05-5.18,27.52-8.37Q675.37,45.22,711.62,42.52Z" style="fill:#1c1b1f"/><path d="M563.55,60.54q11.67,0,29.73,5.61a13.1,13.1,0,0,1,7.1,6.39,83.38,83.38,0,0,1-4.31,44.59q-4.82,9.34-18.62,9.35H573A53.76,53.76,0,0,1,552.49,122a9.61,9.61,0,0,0-3.2-.78c0,.28-.13.42-.4.42q.81,6.71,1.62,6.7H558q8.73,0,8.73,4.15c.27,0,.4.49.4,1.45v.78q0,9.81-12.33,16.15c-3.14.31-4.72.92-4.72,1.82.55.41,2.64.79,6.3,1.14q2.43,0,31.7-4.1,8.83,0,12.28,6a31.69,31.69,0,0,1,6.34,18.74q.4,10.49-6.34,16.15-6.79,7.11-34.45,8.56a171,171,0,0,1-33.78-3.79q-6.71-1.56-16.14-3.68l-9.89-4.52q-2.24-1.41-3.6-8.2L499,158.72q-2.34-11.58-2.39-30.37-.75-8.2.41-23.94,2.79-27,7.91-30,13.2-9.3,33.28-12.36A173.52,173.52,0,0,1,563.55,60.54Z" style="fill:#1c1b1f"/><path d="M318.48,51.23c10.29-2.53,17-2,23.73-.15,5.4,2.68,8.87,5.91,10.11,10.9,1.66,6.74,2.47,14.41-3.88,22.09-2.86,2.69-8.16,3.05-15.51,2.66-13.4.9-21.18,7-26.22,16.66q-.73,7.81,6.84,4.43,6.7-1.66,20.05-8.61,21.25-8.79,34.73-5.68,16.28,7.06,19.5,22.69,2.44,11-1,25a87.49,87.49,0,0,1-10.12,19.64q-12,15.91-47.4,35.9a97.32,97.32,0,0,1-15.79,5.93q-15.19,3.74-24.81,1.62-10.81-2.94-13.14-12.4a69.84,69.84,0,0,1-2.32-17q-.6-6.66,2.14-16.95,3.17-6.94,6.31-7.72,3.14-1.52,27.27-2.65a72.83,72.83,0,0,0,30.79-11.67q16.13-13.07,14.55-17.54-1-4-8.8-.71-8.82,3.44-29.44,15.47a66.48,66.48,0,0,1-15,5.73q-11.35,3.58-19.42-2.84a49.47,49.47,0,0,1-10.94-20.42q-6.25-25.38,12.87-44.26,2.84-4.83,17.68-13.35A86.26,86.26,0,0,1,318.48,51.23Z" style="fill:#1c1b1f"/><path d="M139.8,60.49q18.84,0,23.91,15.54A73.46,73.46,0,0,1,166,90q1.16,14.82,1,29.24-.51,39.14-2.08,56.85a88.8,88.8,0,0,1-2.79,16.76,15.92,15.92,0,0,1-3.2,6q-6.15,3.28-16.75,4-15,.42-23.91-4.77-2.94-3.3-4-19.14V158.16q-11.58-.76-11.58,1.22,0,7-6.75,30.71-3.5,7.16-8,7.16-18.33,0-23.65-6.8a27.9,27.9,0,0,1-6.25-9.55q-2.43-5.58-4-36.14-.86-28,0-39.24Q56.44,83.44,60.81,80q5-8.54,27.57-11.58,17-2.53,16.34,49,0,1.43,8.79,2.79,1.62,0,2.38-36.7,1.38-16.91,5.18-20Q128.69,60.49,139.8,60.49Z" style="fill:#1c1b1f"/><path d="M265.79,114q-3-15.45-11.53-26.22c-.78-.77-1.57-1.47-2.37-2.14a4.63,4.63,0,0,0,1-3.27c-.57-8.12-3.58-19.79-12.59-18.38-2.63.31-9.11,3.81-15.62,15a4.69,4.69,0,0,0-.33.72,34.25,34.25,0,0,0-6.25,1.81,4.69,4.69,0,0,0-1.16-2C211,73.6,200.65,66.4,193.5,72c-3.08,2.41-4.33,11.45-2.24,25.14a4.75,4.75,0,0,0,2.78,3.69q-4.9,6-5.88,8.14A116.58,116.58,0,0,0,179,127.87a87.45,87.45,0,0,0-5.45,28.83,51.82,51.82,0,0,0,5.07,23.11c5.05,9.1,8.5,12.85,20.74,15,8.87.54,17.54-.63,21.33-2.71,7.22-3.12,14-7.7,21.66-14.08,10.76-9.31,15.58-19.74,19.09-27.85q4.36-9.69,4.88-17.25A76,76,0,0,0,265.79,114ZM201,81.46c.67-.19,2.29-.06,4.62,1.22s3,4.62.77,6.22a8.44,8.44,0,0,1-3.14,1.4,3.78,3.78,0,0,1-4.34-3.17C198.4,84.66,198.57,82,201,81.46Zm38.92-6.77c2.35-.39,3.48,1.9,4,4.28a4.08,4.08,0,0,1,0,1.74,26.05,26.05,0,0,0-5.27-1.55c-1-.08-2.06-.13-3.06-.17a4.21,4.21,0,0,1,.74-1.5C237.83,75.49,239.23,74.77,239.89,74.69Z" style="fill:#1c1b1f"/><path d="M205.59,82.68c-2.33-1.28-4-1.41-4.62-1.22-2.4.56-2.57,3.2-2.09,5.67a3.78,3.78,0,0,0,4.34,3.17,8.44,8.44,0,0,0,3.14-1.4C208.61,87.3,208,84,205.59,82.68Z" style="fill:#fff"/><path d="M239.89,74.69c-.66.08-2.06.8-3.66,2.8s-1,5.24,1.62,5.82a8.17,8.17,0,0,0,3.32.08A3.64,3.64,0,0,0,243.86,79C243.37,76.59,242.24,74.3,239.89,74.69Z" style="fill:#fff"/><path d="M840,40.7a12.06,12.06,0,1,1-17-.48A12.06,12.06,0,0,1,840,40.7Z" style="fill:#1c1b1f"/><path d="M867.56,21.27a12.06,12.06,0,1,1-17-.47A12.06,12.06,0,0,1,867.56,21.27Z" style="fill:#1c1b1f"/><path d="M899.66,35a12.06,12.06,0,1,1-17-.47A12.07,12.07,0,0,1,899.66,35Z" style="fill:#1c1b1f"/><path d="M788.51,107.74a10.07,10.07,0,0,0-8.91,1c-1.35.81-3.2,4.55-3.07,10.37l-.74,0c-2.75-.11-8.62.39-10,3.24a9.18,9.18,0,0,0,.49,8.75c.8,1.35,5,3.37,10.85,3.24h0a48,48,0,0,0,1.22,7.92c.21,1.57,2.36,4.51,9.23,3.73,1.4-.06,4.15-2.4,3.89-11.34,0-.25,0-.52,0-.8a52.66,52.66,0,0,0,8.8-1.3c1.5-.2,3.67-2.18,3.16-8.41a4.69,4.69,0,0,0-.42-1.56c-1-2.14-2.31-3.38-10.35-3.15l-.86,0c0-.74,0-1.29,0-1.6C791.86,115,791.36,109.17,788.51,107.74Z" style="fill:#fff;fill-rule:evenodd"/><path d="M229.79,124.07a4.33,4.33,0,1,1-4.06-4.58A4.33,4.33,0,0,1,229.79,124.07Z" style="fill:#fff"/><path d="M250.52,122.08a4.33,4.33,0,1,1-4.06-4.59A4.33,4.33,0,0,1,250.52,122.08Z" style="fill:#fff"/><path d="M473.55,94.75c-3.29-2.89-7.63-3.1-11.86-1.61s-7.79,4.58-9,7.13c-2.56,5.42-.43,9.27.84,10.43,2.57,1.52,5.62,1.6,8.79.87q.82-.19,1.62-.45a8.65,8.65,0,0,0-1.09-1,22.47,22.47,0,0,0-4.08-2.56,2.7,2.7,0,1,1,2.35-4.87,27.2,27.2,0,0,1,5.16,3.24,12,12,0,0,1,2.37,2.5c.13.19.25.4.37.62l.61-.32a16.84,16.84,0,0,1-2.33-10.26,2.7,2.7,0,0,1,5.4.32,12.43,12.43,0,0,0,1,6.22C476.83,100.54,475.33,96.3,473.55,94.75Z" style="fill:#1c1b1f"/><path d="M474.18,116a15.08,15.08,0,0,1-2.17,6.33,23.44,23.44,0,0,1-6.2,6.71l-.18.13-.2.1c-13.44,6.6-23,.66-26.26-3.77a2.71,2.71,0,1,1,4.36-3.22c1.84,2.5,8.55,7.41,19.31,2.23a18.25,18.25,0,0,0,4.52-5,9.29,9.29,0,0,0,1.45-4.42,32.57,32.57,0,0,1-5.27,1.76c-4,.92-8.75,1-13-1.65l-.15-.09-.13-.11c-3.17-2.58-6.15-9.19-2.43-17h0c2-4.17,6.79-8,12.09-9.91s12-2,17.23,2.63c4.65,4.08,6,13-1.25,20.11a10,10,0,0,0,4-.2,8.44,8.44,0,0,0,6-5,2.67,2.67,0,0,1,.94-1.22,92.82,92.82,0,0,0-5-20.65Q470.38,60,443.38,67.27,432.19,69.12,413,78.65q-12.79,6.46-13.72,9.66-3.3,2.88-.19,29.82,5.24,44.15,16.1,70.78,3.72,8.47,7.48,8.69Q455,188,453.35,176.52q-4.5-15.87-8.84-31.11,15.71.85,22.49-.26,12.12-1.77,18.15-15.81a62.75,62.75,0,0,0,2.17-16.7,14.88,14.88,0,0,1-6.1,3.19A15.22,15.22,0,0,1,474.18,116Z" style="fill:#1c1b1f"/><path d="M485.88,105.57a8.44,8.44,0,0,1-6,5,10,10,0,0,1-4,.2c7.21-7.1,5.9-16,1.25-20.11-5.23-4.58-11.84-4.53-17.23-2.63S449.77,93.78,447.8,98h0c-3.72,7.86-.74,14.47,2.43,17l.13.11.15.09c4.28,2.66,9,2.57,13,1.65a32.57,32.57,0,0,0,5.27-1.76,9.29,9.29,0,0,1-1.45,4.42,18.25,18.25,0,0,1-4.52,5c-10.76,5.18-17.47.27-19.31-2.23a2.71,2.71,0,1,0-4.36,3.22c3.27,4.43,12.82,10.37,26.26,3.77l.2-.1.18-.13a23.44,23.44,0,0,0,6.2-6.71,15.08,15.08,0,0,0,2.17-6.33,15.22,15.22,0,0,0,7-.13,14.88,14.88,0,0,0,6.1-3.19,73.27,73.27,0,0,0-.5-8.29A2.67,2.67,0,0,0,485.88,105.57Zm-12.15-.6a12.43,12.43,0,0,1-1-6.22,2.7,2.7,0,0,0-5.4-.32,16.84,16.84,0,0,0,2.33,10.26L469,109c-.12-.22-.24-.43-.37-.62a12,12,0,0,0-2.37-2.5,27.2,27.2,0,0,0-5.16-3.24,2.7,2.7,0,1,0-2.35,4.87,22.47,22.47,0,0,1,4.08,2.56,8.65,8.65,0,0,1,1.09,1q-.79.25-1.62.45c-3.17.73-6.22.65-8.79-.87-1.27-1.16-3.4-5-.84-10.43,1.21-2.55,4.68-5.61,9-7.13s8.57-1.28,11.86,1.61C475.33,96.3,476.83,100.54,473.73,105Z" style="fill:#fff"/><path d="M419.19,43.5c-6.18-7.89-13.07-7-16.54-3.82C399.56,43,399.78,48,400.27,50c4.44,11.7,20.56,16,22.74,14.67C427.12,62.12,422.93,48.23,419.19,43.5Z" style="fill:#1c1b1f"/><path d="M384.64,48.59c-4.08-1.18-13.24-1.75-17.22,5.46a13.18,13.18,0,0,0,1.48,15.58c2.62,2.29,10.47,6.19,21,3.39,3.48-.41,11.55,3.39,13.78,3.18s5.55-2.06,3.81-7.11C405.32,63.76,397.74,52.19,384.64,48.59Z" style="fill:#1c1b1f"/><path d="M426.3,102.21a4.33,4.33,0,1,1-6-1.27A4.33,4.33,0,0,1,426.3,102.21Z" style="fill:#fff"/><path d="M441.77,88.26a4.33,4.33,0,1,1-6-1.27A4.33,4.33,0,0,1,441.77,88.26Z" style="fill:#fff"/><path d="M255.89,141.75a2.66,2.66,0,0,0-2.4-.25,15.73,15.73,0,0,0-2.23,1.71,5.38,5.38,0,0,1-3.58.76,15.56,15.56,0,0,1-3.59-1c1.89-2.27,2.92-5.57,1.61-8.22a7,7,0,0,0-6.59-3.5c-2.86.12-6.36,1.67-8,4.1a6.25,6.25,0,0,0,.11,7.24c1.43,1.74,3.76,2.43,6,2.9a4.63,4.63,0,0,1-2.54,4,8.11,8.11,0,0,1-4.86.71,6.92,6.92,0,0,1-3.9-1.56c-.91-.84-1.52-2.05-2.64-2.55a2.66,2.66,0,0,0-3.45,1.46,4.07,4.07,0,0,0,1.06,3.83,11.93,11.93,0,0,0,5.36,3.49,14.2,14.2,0,0,0,9.54,0,10.82,10.82,0,0,0,6.54-6.74,17.41,17.41,0,0,0,6.76,1.18,10.52,10.52,0,0,0,6.35-2.36,4.1,4.1,0,0,0,1.71-3.44A2.56,2.56,0,0,0,255.89,141.75Zm-20.29-2.56a1.55,1.55,0,0,1-.19-.24c-1.19-1.9,4-2.69,5-2.73,2-.06.42,3.19-.55,3.67a2.85,2.85,0,0,1-1.39.22,6.15,6.15,0,0,1-2-.44A2.76,2.76,0,0,1,235.6,139.19Z" style="fill:#fff;fill-rule:evenodd"/><path d="M196.67,124.48a2.71,2.71,0,0,1,3.54-1.46l13.31,5.55a2.7,2.7,0,1,1-2.08,5L198.13,128A2.71,2.71,0,0,1,196.67,124.48Z" style="fill:#fff;fill-rule:evenodd"/><path d="M193.58,141.8a2.7,2.7,0,0,1,2.56-2.84l14.71-.76a2.71,2.71,0,0,1,.28,5.41l-14.71.76A2.71,2.71,0,0,1,193.58,141.8Z" style="fill:#fff;fill-rule:evenodd"/><path d="M271.81,120a2.72,2.72,0,0,0-3.74-.86l-9.24,5.79a2.71,2.71,0,1,0,2.88,4.59l9.24-5.79A2.71,2.71,0,0,0,271.81,120Z" style="fill:#fff;fill-rule:evenodd"/><path d="M274.52,135.36a2.72,2.72,0,0,0-2.75-2.67l-9.85.16a2.71,2.71,0,0,0,.09,5.41l9.84-.15A2.72,2.72,0,0,0,274.52,135.36Z" style="fill:#fff;fill-rule:evenodd"/></svg>