<svg width="530" height="530" viewBox="0 0 530 530" fill="none" xmlns="http://www.w3.org/2000/svg">
<rect width="530" height="530" fill="white"/>
<path d="M132.143 139C123.409 139.97 105.758 146.143 102.134 163.032C101.845 164.381 100.777 165.454 99.4126 165.659C78.4895 168.798 44.6788 183.989 58.4282 223.147C58.8468 224.34 58.5328 225.694 57.6019 226.548C37.7792 244.743 13.6299 286.322 63.5684 319.339C64.5621 319.996 65.1244 321.181 64.9773 322.363C61.9477 346.713 70.2033 389.124 126.813 378.251C126.982 378.219 127.154 378.171 127.315 378.109C148.52 369.932 169.804 348.64 158.495 304.211" stroke="#1C1B1F" stroke-width="15" stroke-linecap="round"/>
<path d="M398.566 139C407.3 139.97 424.951 146.143 428.575 163.032C428.864 164.381 429.932 165.454 431.296 165.659C452.219 168.798 486.03 183.989 472.281 223.147C471.862 224.34 472.176 225.694 473.107 226.548C492.93 244.743 517.079 286.322 467.141 319.339C466.147 319.996 465.585 321.181 465.732 322.363C468.761 346.713 460.506 389.124 403.896 378.251C403.727 378.219 403.555 378.171 403.394 378.109C382.189 369.932 360.905 348.64 372.214 304.211" stroke="#1C1B1F" stroke-width="15" stroke-linecap="round"/>
<ellipse cx="265.066" cy="281.336" rx="31.7638" ry="17.5025" fill="#1C1B1F"/>
<path d="M197 313.1C214.243 291.64 273.233 261.399 333.131 313.1" stroke="#1C1B1F" stroke-width="15" stroke-linecap="round"/>
<path d="M265 299V322" stroke="#1C1B1F" stroke-width="15" stroke-linecap="round"/>
<path d="M473 461L438 426" stroke="#1C1B1F" stroke-width="20" stroke-linecap="round"/>
<circle cx="380.082" cy="358.082" r="90.5819" fill="#F9F9F9" stroke="#1C1B1F" stroke-width="15"/>
<path fill-rule="evenodd" clip-rule="evenodd" d="M336.546 318C338.755 318 340.545 319.551 340.545 321.465L340.545 326.086C340.545 328 338.755 329.551 336.546 329.551C334.338 329.551 332.548 328 332.548 326.086L332.548 321.465C332.548 319.551 334.338 318 336.546 318Z" fill="#1C1B1F"/>
<path fill-rule="evenodd" clip-rule="evenodd" d="M336.546 352.653C338.755 352.653 340.545 354.324 340.545 356.385L340.545 361.361C340.545 363.422 338.755 365.093 336.546 365.093C334.338 365.093 332.548 363.422 332.548 361.361L332.548 356.385C332.548 354.324 334.338 352.653 336.546 352.653Z" fill="#1C1B1F"/>
<path fill-rule="evenodd" clip-rule="evenodd" d="M353.06 324.589C354.51 326.039 354.51 328.391 353.06 329.841L349.558 333.343C348.108 334.793 345.756 334.793 344.306 333.343C342.856 331.892 342.856 329.541 344.306 328.09L347.808 324.589C349.258 323.139 351.609 323.139 353.06 324.589Z" fill="#1C1B1F"/>
<path fill-rule="evenodd" clip-rule="evenodd" d="M328.2 349.449C329.65 350.899 329.65 353.251 328.2 354.701L324.698 358.202C323.248 359.653 320.897 359.653 319.446 358.202C317.996 356.752 317.996 354.401 319.446 352.95L322.948 349.449C324.398 347.998 326.749 347.998 328.2 349.449Z" fill="#1C1B1F"/>
<path fill-rule="evenodd" clip-rule="evenodd" d="M319.586 324.586C321.036 323.135 323.388 323.135 324.838 324.586L328.34 328.087C329.79 329.538 329.79 331.889 328.34 333.339C326.889 334.79 324.538 334.79 323.087 333.339L319.586 329.838C318.136 328.388 318.136 326.036 319.586 324.586Z" fill="#1C1B1F"/>
<path fill-rule="evenodd" clip-rule="evenodd" d="M344.446 349.446C345.896 347.995 348.248 347.995 349.698 349.446L353.199 352.947C354.65 354.397 354.65 356.749 353.199 358.199C351.749 359.65 349.398 359.65 347.947 358.199L344.446 354.698C342.996 353.248 342.996 350.896 344.446 349.446Z" fill="#1C1B1F"/>
<path fill-rule="evenodd" clip-rule="evenodd" d="M313 341.102C313 339.139 314.551 337.548 316.465 337.548L321.086 337.548C323 337.548 324.551 339.139 324.551 341.102C324.551 343.065 323 344.656 321.086 344.656L316.465 344.656C314.551 344.656 313 343.065 313 341.102Z" fill="#1C1B1F"/>
<path fill-rule="evenodd" clip-rule="evenodd" d="M347.653 341.102C347.653 339.139 349.324 337.548 351.385 337.548L356.361 337.548C358.422 337.548 360.093 339.139 360.093 341.102C360.093 343.065 358.422 344.656 356.361 344.656L351.385 344.656C349.324 344.656 347.653 343.065 347.653 341.102Z" fill="#1C1B1F"/>
<path d="M351.208 341.102C351.208 349.445 344.445 356.208 336.102 356.208C327.76 356.208 320.997 349.445 320.997 341.102C320.997 332.76 327.76 325.997 336.102 325.997C344.445 325.997 351.208 332.76 351.208 341.102Z" fill="#F9F9F9"/>
<path d="M342.322 341.102C342.322 344.537 339.537 347.322 336.102 347.322C332.667 347.322 329.882 344.537 329.882 341.102C329.882 337.667 332.667 334.882 336.102 334.882C339.537 334.882 342.322 337.667 342.322 341.102Z" fill="#1C1B1F"/>
<path fill-rule="evenodd" clip-rule="evenodd" d="M406.5 326C411.202 326 415.014 328.991 415.014 332.68L415.014 341.587C415.014 345.277 411.202 348.268 406.5 348.268C401.798 348.268 397.986 345.277 397.986 341.587L397.986 332.68C397.986 328.991 401.798 326 406.5 326Z" fill="#1C1B1F"/>
<path fill-rule="evenodd" clip-rule="evenodd" d="M406.5 394.113C411.202 394.113 415.014 397.456 415.014 401.579L415.014 411.534C415.014 415.657 411.202 419 406.5 419C401.798 419 397.986 415.657 397.986 411.534L397.986 401.579C397.986 397.456 401.798 394.113 406.5 394.113Z" fill="#1C1B1F"/>
<path fill-rule="evenodd" clip-rule="evenodd" d="M439.118 339.006C441.982 341.871 441.982 346.514 439.118 349.378L432.203 356.293C429.339 359.157 424.695 359.157 421.831 356.293C418.967 353.429 418.967 348.785 421.831 345.921L428.746 339.006C431.61 336.142 436.254 336.142 439.118 339.006Z" fill="#1C1B1F"/>
<path fill-rule="evenodd" clip-rule="evenodd" d="M390.023 388.1C392.887 390.964 392.887 395.608 390.023 398.472L383.108 405.387C380.244 408.251 375.6 408.251 372.736 405.387C369.872 402.523 369.872 397.879 372.736 395.015L379.651 388.1C382.515 385.236 387.159 385.236 390.023 388.1Z" fill="#1C1B1F"/>
<path fill-rule="evenodd" clip-rule="evenodd" d="M373.006 339.005C375.871 336.141 380.514 336.141 383.378 339.005L390.293 345.92C393.157 348.784 393.157 353.428 390.293 356.292C387.429 359.156 382.785 359.156 379.921 356.292L373.006 349.377C370.142 346.513 370.142 341.87 373.006 339.005Z" fill="#1C1B1F"/>
<path fill-rule="evenodd" clip-rule="evenodd" d="M422.1 388.1C424.964 385.235 429.608 385.235 432.472 388.1L439.387 395.014C442.251 397.878 442.251 402.522 439.387 405.386C436.523 408.251 431.879 408.251 429.015 405.386L422.1 398.472C419.236 395.608 419.236 390.964 422.1 388.1Z" fill="#1C1B1F"/>
<path fill-rule="evenodd" clip-rule="evenodd" d="M360 371.19C360 367.212 362.991 363.986 366.68 363.986L375.587 363.986C379.277 363.986 382.268 367.212 382.268 371.19C382.268 375.169 379.277 378.395 375.587 378.395L366.68 378.395C362.991 378.395 360 375.169 360 371.19Z" fill="#1C1B1F"/>
<path fill-rule="evenodd" clip-rule="evenodd" d="M428.113 371.19C428.113 367.212 431.456 363.986 435.579 363.986L445.534 363.986C449.657 363.986 453 367.212 453 371.19C453 375.169 449.657 378.395 445.534 378.395L435.579 378.395C431.456 378.395 428.113 375.169 428.113 371.19Z" fill="#1C1B1F"/>
<path d="M435.972 371.845C435.972 388.484 422.484 401.972 405.845 401.972C389.206 401.972 375.718 388.484 375.718 371.845C375.718 355.206 389.206 341.718 405.845 341.718C422.484 341.718 435.972 355.206 435.972 371.845Z" fill="#F9F9F9"/>
<path d="M417.634 371.19C417.634 378.063 412.063 383.634 405.19 383.634C398.318 383.634 392.747 378.063 392.747 371.19C392.747 364.318 398.318 358.747 405.19 358.747C412.063 358.747 417.634 364.318 417.634 371.19Z" fill="#1C1B1F"/>
<path d="M181 200C218.333 206.202 304.2 226.884 349 260" stroke="#1C1B1F" stroke-width="15" stroke-linecap="round"/>
<path d="M349 200C311.667 206.202 225.8 226.884 181 260" stroke="#1C1B1F" stroke-width="15" stroke-linecap="round"/>
<path fill-rule="evenodd" clip-rule="evenodd" d="M379 285C371.268 285 365 291.268 365 299C365 306.732 371.268 313 379 313C386.732 313 393 306.732 393 299C393 291.268 386.732 285 379 285Z" fill="#1C1B1F"/>
<path fill-rule="evenodd" clip-rule="evenodd" d="M324.5 384C320.91 384 318 386.91 318 390.5C318 394.09 320.91 397 324.5 397C328.09 397 331 394.09 331 390.5C331 386.91 328.09 384 324.5 384Z" fill="#1C1B1F"/>
<path fill-rule="evenodd" clip-rule="evenodd" d="M421.5 304C417.91 304 415 306.91 415 310.5C415 314.09 417.91 317 421.5 317C425.09 317 428 314.09 428 310.5C428 306.91 425.09 304 421.5 304Z" fill="#1C1B1F"/>
<path fill-rule="evenodd" clip-rule="evenodd" d="M355 394C352.239 394 350 396.239 350 399C350 401.761 352.239 404 355 404C357.761 404 360 401.761 360 399C360 396.239 357.761 394 355 394Z" fill="#1C1B1F"/>
<path fill-rule="evenodd" clip-rule="evenodd" d="M375.5 419C371.91 419 369 421.91 369 425.5C369 429.09 371.91 432 375.5 432C379.09 432 382 429.09 382 425.5C382 421.91 379.09 419 375.5 419Z" fill="#1C1B1F"/>
</svg>
