<svg width="530" height="530" viewBox="0 0 530 530" fill="none" xmlns="http://www.w3.org/2000/svg">
<rect width="530" height="530" fill="white"/>
<circle cx="265.501" cy="94.28" r="23.28" fill="#D9D9D9"/>
<circle cx="265.501" cy="435.72" r="23.28" fill="#D9D9D9"/>
<circle cx="436.22" cy="265.001" r="23.28" transform="rotate(90 436.22 265.001)" fill="#D9D9D9"/>
<circle cx="94.7796" cy="265.001" r="23.28" transform="rotate(90 94.7796 265.001)" fill="#D9D9D9"/>
<path fill-rule="evenodd" clip-rule="evenodd" d="M242.357 96.8166C242.266 95.9835 242.22 95.1371 242.22 94.28C242.22 81.4228 252.643 71 265.5 71C278.357 71 288.78 81.4228 288.78 94.28C288.78 95.0582 288.742 95.8275 288.667 96.586C303.001 98.4564 316.776 102.105 329.764 107.303C330.047 106.698 330.358 106.101 330.698 105.512C337.127 94.3772 351.365 90.5622 362.5 96.9908C373.634 103.419 377.449 117.657 371.021 128.792C370.729 129.297 370.421 129.788 370.098 130.263C381.434 138.948 391.649 149.023 400.489 160.232C400.885 159.971 401.291 159.719 401.708 159.479C412.843 153.05 427.08 156.865 433.509 168C439.938 179.134 436.123 193.372 424.988 199.801C424.676 199.981 424.362 200.153 424.046 200.316C429.483 213.381 433.344 227.266 435.39 241.734C435.666 241.725 435.942 241.72 436.22 241.72C449.077 241.72 459.5 252.143 459.5 265C459.5 277.857 449.077 288.28 436.22 288.28C436.021 288.28 435.822 288.277 435.624 288.273C433.715 302.838 429.969 316.825 424.627 329.995C424.748 330.061 424.868 330.13 424.988 330.199C436.123 336.627 439.938 350.865 433.509 362C427.081 373.135 412.843 376.95 401.708 370.521C401.602 370.46 401.497 370.398 401.393 370.336C392.538 381.764 382.264 392.038 370.836 400.893C370.898 400.997 370.96 401.102 371.021 401.208C377.45 412.343 373.635 426.581 362.5 433.009C351.365 439.438 337.128 435.623 330.699 424.488C330.63 424.368 330.562 424.248 330.495 424.127C317.325 429.469 303.338 433.215 288.773 435.124C288.777 435.322 288.78 435.521 288.78 435.72C288.78 448.577 278.357 459 265.5 459C252.643 459 242.22 448.577 242.22 435.72C242.22 435.442 242.225 435.166 242.235 434.89C227.766 432.844 213.88 428.983 200.816 423.546C200.652 423.862 200.48 424.176 200.3 424.487C193.872 435.622 179.634 439.437 168.499 433.008C157.365 426.58 153.55 412.342 159.978 401.207C160.219 400.791 160.47 400.385 160.732 399.989C149.523 391.149 139.448 380.934 130.763 369.598C130.288 369.921 129.798 370.229 129.293 370.52C118.159 376.949 103.921 373.134 97.4923 361.999C91.0637 350.865 94.8787 336.627 106.013 330.198C106.602 329.859 107.199 329.547 107.803 329.264C102.605 316.277 98.9565 302.501 97.086 288.167C96.3275 288.242 95.5582 288.28 94.78 288.28C81.9228 288.28 71.5 277.857 71.5 265C71.5 252.143 81.9228 241.72 94.78 241.72C95.6371 241.72 96.4835 241.766 97.3166 241.857C99.3233 227.597 103.092 213.903 108.394 201.002C107.588 200.651 106.792 200.251 106.012 199.801C94.8777 193.372 91.0627 179.135 97.4913 168C103.92 156.865 118.158 153.05 129.292 159.479C130.109 159.95 130.886 160.463 131.622 161.014C140.314 149.86 150.36 139.814 161.514 131.122C160.963 130.385 160.45 129.609 159.979 128.792C153.55 117.658 157.365 103.42 168.5 96.9913C179.635 90.5627 193.873 94.3777 200.301 105.512C200.751 106.292 201.152 107.088 201.502 107.894C214.403 102.591 228.097 98.8232 242.357 96.8166Z" fill="white"/>
<path d="M242.357 96.8166L243.402 104.243L250.596 103.231L249.813 96.0086L242.357 96.8166ZM288.667 96.586L281.203 95.852L280.492 103.083L287.697 104.023L288.667 96.586ZM329.764 107.303L326.977 114.266L333.553 116.898L336.556 110.483L329.764 107.303ZM330.698 105.512L337.194 109.262L337.194 109.262L330.698 105.512ZM362.5 96.9908L366.25 90.4956L366.25 90.4956L362.5 96.9908ZM371.021 128.792L364.525 125.042L364.525 125.042L371.021 128.792ZM370.098 130.263L363.896 126.045L359.911 131.906L365.537 136.216L370.098 130.263ZM400.489 160.232L394.6 164.877L398.872 170.293L404.626 166.488L400.489 160.232ZM401.708 159.479L405.458 165.974L405.458 165.974L401.708 159.479ZM433.509 168L427.014 171.75L427.014 171.75L433.509 168ZM424.988 199.801L428.738 206.296L428.738 206.296L424.988 199.801ZM424.046 200.316L420.595 193.658L414.473 196.832L417.122 203.198L424.046 200.316ZM435.39 241.734L427.964 242.785L428.909 249.466L435.653 249.23L435.39 241.734ZM435.624 288.273L435.813 280.775L429.065 280.605L428.188 287.297L435.624 288.273ZM424.627 329.995L417.677 327.175L415.179 333.334L420.992 336.555L424.627 329.995ZM424.988 330.199L428.738 323.704L428.738 323.704L424.988 330.199ZM433.509 362L427.014 358.25L427.014 358.25L433.509 362ZM401.708 370.521L405.458 364.026L405.458 364.025L401.708 370.521ZM401.393 370.336L405.242 363.899L399.536 360.487L395.464 365.742L401.393 370.336ZM370.836 400.893L366.242 394.964L360.987 399.036L364.399 404.742L370.836 400.893ZM371.021 401.208L364.526 404.957L364.526 404.958L371.021 401.208ZM330.699 424.488L337.194 420.738L337.194 420.738L330.699 424.488ZM330.495 424.127L337.054 420.491L333.833 414.679L327.676 417.177L330.495 424.127ZM288.773 435.124L287.797 427.688L281.105 428.565L281.275 435.313L288.773 435.124ZM242.235 434.89L249.73 435.153L249.966 428.409L243.285 427.464L242.235 434.89ZM200.816 423.546L203.697 416.622L197.331 413.972L194.157 420.094L200.816 423.546ZM200.3 424.487L193.805 420.737L193.805 420.737L200.3 424.487ZM168.499 433.008L164.749 439.503L164.749 439.503L168.499 433.008ZM159.978 401.207L153.483 397.457L153.483 397.457L159.978 401.207ZM160.732 399.989L166.988 404.125L170.792 398.371L165.376 394.1L160.732 399.989ZM130.763 369.598L136.717 365.037L132.407 359.412L126.546 363.396L130.763 369.598ZM129.293 370.52L125.543 364.025L125.543 364.025L129.293 370.52ZM97.4923 361.999L103.987 358.249L103.987 358.249L97.4923 361.999ZM106.013 330.198L102.263 323.703L102.263 323.703L106.013 330.198ZM107.803 329.264L110.984 336.056L117.398 333.053L114.766 326.478L107.803 329.264ZM97.086 288.167L104.523 287.197L103.583 279.992L96.352 280.703L97.086 288.167ZM97.3166 241.857L96.5086 249.313L103.731 250.096L104.743 242.902L97.3166 241.857ZM108.394 201.002L115.331 203.853L118.125 197.055L111.385 194.124L108.394 201.002ZM106.012 199.801L109.762 193.306L109.762 193.306L106.012 199.801ZM129.292 159.479L133.042 152.984L133.042 152.984L129.292 159.479ZM131.622 161.014L127.129 167.02L133.018 171.425L137.538 165.624L131.622 161.014ZM161.514 131.122L166.124 137.038L171.925 132.518L167.52 126.629L161.514 131.122ZM159.979 128.792L153.484 132.542L153.484 132.542L159.979 128.792ZM168.5 96.9913L172.25 103.486L172.25 103.486L168.5 96.9913ZM200.301 105.512L193.806 109.262L193.806 109.262L200.301 105.512ZM201.502 107.894L194.625 110.885L197.556 117.625L204.354 114.831L201.502 107.894ZM234.72 94.28C234.72 95.4075 234.781 96.5235 234.9 97.6246L249.813 96.0086C249.752 95.4434 249.72 94.8668 249.72 94.28H234.72ZM265.5 63.5C248.501 63.5 234.72 77.2807 234.72 94.28H249.72C249.72 85.5649 256.785 78.5 265.5 78.5V63.5ZM296.28 94.28C296.28 77.2807 282.499 63.5 265.5 63.5V78.5C274.215 78.5 281.28 85.5649 281.28 94.28H296.28ZM296.131 97.3201C296.23 96.3179 296.28 95.3036 296.28 94.28H281.28C281.28 94.8127 281.254 95.337 281.203 95.852L296.131 97.3201ZM287.697 104.023C301.4 105.811 314.565 109.298 326.977 114.266L332.551 100.34C318.988 94.9116 304.603 91.1018 289.638 89.1491L287.697 104.023ZM336.556 110.483C336.749 110.073 336.961 109.665 337.194 109.262L324.203 101.762C323.756 102.536 323.346 103.324 322.972 104.122L336.556 110.483ZM337.194 109.262C341.551 101.714 351.202 99.1284 358.75 103.486L366.25 90.4956C351.528 81.9959 332.703 87.04 324.203 101.762L337.194 109.262ZM358.75 103.486C366.297 107.843 368.883 117.494 364.525 125.042L377.516 132.542C386.015 117.82 380.971 98.9953 366.25 90.4956L358.75 103.486ZM364.525 125.042C364.326 125.388 364.116 125.722 363.896 126.045L376.3 134.48C376.726 133.853 377.132 133.207 377.516 132.542L364.525 125.042ZM365.537 136.216C376.377 144.522 386.146 154.157 394.6 164.877L406.378 155.588C397.152 143.889 386.491 133.374 374.659 124.309L365.537 136.216ZM404.626 166.488C404.895 166.31 405.173 166.139 405.458 165.974L397.958 152.984C397.41 153.3 396.875 153.631 396.353 153.976L404.626 166.488ZM405.458 165.974C413.005 161.616 422.656 164.202 427.014 171.75L440.004 164.25C431.505 149.528 412.68 144.484 397.958 152.984L405.458 165.974ZM427.014 171.75C431.371 179.297 428.785 188.948 421.238 193.306L428.738 206.296C443.46 197.796 448.504 178.972 440.004 164.25L427.014 171.75ZM421.238 193.306C421.025 193.429 420.81 193.546 420.595 193.658L427.498 206.975C427.915 206.759 428.328 206.533 428.738 206.296L421.238 193.306ZM417.122 203.198C422.318 215.684 426.008 228.954 427.964 242.785L442.816 240.684C440.679 225.578 436.648 211.078 430.971 197.435L417.122 203.198ZM436.22 234.22C435.855 234.22 435.491 234.226 435.128 234.239L435.653 249.23C435.841 249.223 436.03 249.22 436.22 249.22V234.22ZM467 265C467 248.001 453.219 234.22 436.22 234.22V249.22C444.935 249.22 452 256.285 452 265H467ZM436.22 295.78C453.219 295.78 467 281.999 467 265H452C452 273.715 444.935 280.78 436.22 280.78V295.78ZM435.436 295.77C435.697 295.777 435.958 295.78 436.22 295.78V280.78C436.084 280.78 435.948 280.778 435.813 280.775L435.436 295.77ZM428.188 287.297C426.362 301.221 422.782 314.589 417.677 327.175L431.577 332.814C437.155 319.061 441.067 304.454 443.061 289.248L428.188 287.297ZM428.738 323.704C428.581 323.613 428.422 323.523 428.262 323.434L420.992 336.555C421.073 336.6 421.155 336.646 421.238 336.694L428.738 323.704ZM440.004 365.75C448.504 351.028 443.46 332.203 428.738 323.704L421.238 336.694C428.786 341.052 431.371 350.702 427.014 358.25L440.004 365.75ZM397.958 377.016C412.68 385.516 431.505 380.472 440.004 365.75L427.014 358.25C422.656 365.797 413.006 368.383 405.458 364.026L397.958 377.016ZM397.544 376.773C397.681 376.855 397.819 376.936 397.959 377.016L405.458 364.025C405.386 363.984 405.314 363.942 405.242 363.899L397.544 376.773ZM395.464 365.742C386.996 376.671 377.171 386.496 366.242 394.964L375.43 406.821C387.357 397.579 398.08 386.857 407.322 374.929L395.464 365.742ZM377.517 397.459C377.436 397.319 377.354 397.18 377.273 397.043L364.399 404.742C364.442 404.814 364.484 404.886 364.526 404.957L377.517 397.459ZM366.25 439.504C380.972 431.005 386.016 412.18 377.516 397.458L364.526 404.958C368.884 412.506 366.298 422.156 358.75 426.514L366.25 439.504ZM324.204 428.238C332.703 442.96 351.528 448.004 366.25 439.504L358.75 426.514C351.203 430.871 341.552 428.286 337.194 420.738L324.204 428.238ZM323.935 427.763C324.023 427.922 324.113 428.08 324.204 428.238L337.194 420.738C337.147 420.656 337.1 420.573 337.054 420.491L323.935 427.763ZM327.676 417.177C315.09 422.282 301.721 425.862 287.797 427.688L289.748 442.561C304.954 440.567 319.561 436.655 333.314 431.077L327.676 417.177ZM296.28 435.72C296.28 435.458 296.277 435.197 296.27 434.936L281.275 435.313C281.278 435.448 281.28 435.584 281.28 435.72H296.28ZM265.5 466.5C282.499 466.5 296.28 452.719 296.28 435.72H281.28C281.28 444.435 274.215 451.5 265.5 451.5V466.5ZM234.72 435.72C234.72 452.719 248.501 466.5 265.5 466.5V451.5C256.785 451.5 249.72 444.435 249.72 435.72H234.72ZM234.739 434.628C234.726 434.991 234.72 435.355 234.72 435.72H249.72C249.72 435.53 249.723 435.341 249.73 435.153L234.739 434.628ZM243.285 427.464C229.454 425.508 216.183 421.818 203.697 416.622L197.934 430.47C211.577 436.148 226.078 440.179 241.184 442.316L243.285 427.464ZM194.157 420.094C194.046 420.31 193.928 420.524 193.805 420.737L206.796 428.237C207.032 427.828 207.258 427.414 207.474 426.998L194.157 420.094ZM193.805 420.737C189.448 428.285 179.797 430.871 172.249 426.513L164.749 439.503C179.471 448.003 198.296 442.959 206.796 428.237L193.805 420.737ZM172.249 426.513C164.702 422.155 162.116 412.505 166.474 404.957L153.483 397.457C144.983 412.179 150.028 431.004 164.749 439.503L172.249 426.513ZM166.474 404.957C166.638 404.672 166.81 404.395 166.988 404.125L154.476 395.852C154.13 396.374 153.799 396.91 153.483 397.457L166.474 404.957ZM165.376 394.1C154.656 385.646 145.022 375.877 136.717 365.037L124.81 374.16C133.874 385.991 144.389 396.652 156.088 405.878L165.376 394.1ZM126.546 363.396C126.224 363.616 125.889 363.825 125.543 364.025L133.043 377.016C133.708 376.632 134.353 376.227 134.98 375.801L126.546 363.396ZM125.543 364.025C117.996 368.383 108.345 365.797 103.987 358.249L90.9971 365.749C99.4967 380.471 118.321 385.515 133.043 377.016L125.543 364.025ZM103.987 358.249C99.6299 350.702 102.216 341.051 109.763 336.693L102.263 323.703C87.5415 332.203 82.4974 351.027 90.9971 365.749L103.987 358.249ZM109.763 336.693C110.166 336.461 110.573 336.249 110.984 336.056L104.622 322.472C103.824 322.846 103.037 323.256 102.263 323.703L109.763 336.693ZM114.766 326.478C109.798 314.065 106.311 300.9 104.523 287.197L89.6491 289.138C91.6019 304.103 95.4116 318.488 100.84 332.051L114.766 326.478ZM96.352 280.703C95.837 280.754 95.3127 280.78 94.78 280.78V295.78C95.8036 295.78 96.8179 295.73 97.8201 295.631L96.352 280.703ZM94.78 280.78C86.0649 280.78 79 273.715 79 265H64C64 281.999 77.7807 295.78 94.78 295.78V280.78ZM79 265C79 256.285 86.0649 249.22 94.78 249.22V234.22C77.7807 234.22 64 248.001 64 265H79ZM94.78 249.22C95.3668 249.22 95.9434 249.252 96.5086 249.313L98.1246 234.4C97.0235 234.281 95.9075 234.22 94.78 234.22V249.22ZM104.743 242.902C106.662 229.271 110.263 216.183 115.331 203.853L101.457 198.151C95.9198 211.623 91.9849 225.924 89.8898 240.811L104.743 242.902ZM111.385 194.124C110.838 193.886 110.296 193.614 109.762 193.306L102.262 206.296C103.288 206.889 104.337 207.416 105.403 207.88L111.385 194.124ZM109.762 193.306C102.215 188.948 99.6289 179.297 103.986 171.75L90.9961 164.25C82.4964 178.972 87.5405 197.796 102.262 206.296L109.762 193.306ZM103.986 171.75C108.344 164.202 117.995 161.616 125.542 165.974L133.042 152.984C118.321 144.484 99.4958 149.528 90.9961 164.25L103.986 171.75ZM125.542 165.974C126.101 166.297 126.63 166.646 127.129 167.02L136.115 155.009C135.141 154.28 134.116 153.604 133.042 152.984L125.542 165.974ZM137.538 165.624C145.85 154.958 155.458 145.35 166.124 137.038L156.904 125.206C145.263 134.278 134.778 144.763 125.706 156.404L137.538 165.624ZM167.52 126.629C167.146 126.13 166.797 125.601 166.474 125.042L153.484 132.542C154.104 133.616 154.781 134.641 155.509 135.614L167.52 126.629ZM166.474 125.042C162.117 117.495 164.703 107.844 172.25 103.486L164.75 90.4961C150.028 98.9958 144.984 117.821 153.484 132.542L166.474 125.042ZM172.25 103.486C179.798 99.1289 189.448 101.715 193.806 109.262L206.796 101.762C198.297 87.0405 179.472 81.9964 164.75 90.4961L172.25 103.486ZM193.806 109.262C194.114 109.796 194.387 110.338 194.625 110.885L208.38 104.903C207.917 103.837 207.389 102.788 206.796 101.762L193.806 109.262ZM204.354 114.831C216.683 109.763 229.771 106.162 243.402 104.243L241.311 89.3898C226.424 91.4849 212.124 95.4197 198.651 100.957L204.354 114.831Z" fill="#1C1B1F"/>
<path d="M306.82 174.528C375.617 191.179 382.306 269.029 377.05 305.873L363.793 339.151C349.46 365.564 324.496 367.837 316.136 367.598C271.417 363.004 287.47 324.534 301.086 305.873C322.299 272.57 301.325 255.632 288.187 251.325C249.775 236.397 250.978 212.568 253.788 200.366C260.668 170.509 292.009 170.7 306.82 174.528Z" fill="#D9D9D9"/>
<path d="M375.326 305.873C380.581 269.029 373.892 191.179 305.095 174.528C290.285 170.7 258.944 170.509 252.064 200.366C249.253 212.568 248.051 236.397 286.463 251.325C299.601 255.632 320.574 272.57 299.362 305.873C285.746 324.534 269.693 363.004 314.411 367.598C322.772 367.837 343.076 361.712 357.409 335.3" stroke="#1C1B1F" stroke-width="10" stroke-linecap="round" stroke-linejoin="round"/>
<path d="M176.411 217.849C160.986 217.849 155.226 240.345 154.273 251.593L162.843 278.876C169.699 292.661 186.171 296.586 193.55 296.825C227.828 298.548 223.543 270.261 217.116 255.901C213.689 221.438 188.551 216.173 176.411 217.849Z" fill="#D9D9D9"/>
<path d="M154.273 251.593C155.226 240.345 160.986 217.849 176.411 217.849C188.551 216.173 213.689 221.438 217.116 255.901C223.543 270.261 227.828 298.548 193.55 296.825C186.171 296.586 169.699 292.661 162.843 278.876" stroke="#1C1B1F" stroke-width="10" stroke-linecap="round" stroke-linejoin="round"/>
<path d="M193.932 331.65C188.219 341.545 189.981 353.257 199.876 358.97C209.771 364.683 220.795 360.352 226.508 350.457C232.22 340.562 227.893 327.369 220.564 323.137C213.234 318.906 199.645 321.755 193.932 331.65Z" fill="#1C1B1F"/>
<path d="M199.108 157.894C193.395 167.789 195.157 179.501 205.052 185.214C214.947 190.927 225.97 186.596 231.683 176.701C237.396 166.806 233.069 153.613 225.74 149.381C218.41 145.149 204.821 147.999 199.108 157.894Z" fill="#1C1B1F"/>
</svg>
