<svg width="530" height="530" viewBox="0 0 530 530" fill="none" xmlns="http://www.w3.org/2000/svg">
<rect width="530" height="530" fill="white"/>
<path d="M162.632 90.2589C237.801 86.3875 286.167 158.545 300.953 195.108L248.528 210.432C232.398 139.78 184.543 129.376 162.632 133.005V90.2589Z" fill="#666666"/>
<path d="M300.953 195.108C286.167 158.545 237.801 86.3875 162.632 90.2589V133.005C184.543 129.376 232.398 139.78 248.528 210.432" stroke="#1C1B1F" stroke-width="15" stroke-linecap="round" stroke-linejoin="round"/>
<path d="M146.339 110.422C146.339 122.46 154.598 130.344 162.632 130.344C170.666 130.344 178.925 122.46 178.925 110.422C178.925 98.3844 170.666 90.5 162.632 90.5C154.598 90.5 146.339 98.3844 146.339 110.422Z" fill="#666666" stroke="#1C1B1F" stroke-width="15"/>
<path d="M253.126 248.743C253.126 285.422 227.244 313.428 197.313 313.428C167.382 313.428 141.5 285.422 141.5 248.743C141.5 212.064 167.382 184.058 197.313 184.058C227.244 184.058 253.126 212.064 253.126 248.743Z" fill="#666666" stroke="#1C1B1F" stroke-width="15"/>
<path fill-rule="evenodd" clip-rule="evenodd" d="M256.825 96.8791C253.888 88.8443 243.256 85.3475 233.078 89.0687C222.901 92.7899 217.032 102.32 219.97 110.355L227.062 129.752C227.131 129.939 227.203 130.124 227.28 130.306C224.805 132.155 222.341 134.257 219.896 136.635C219.38 137.089 218.852 137.582 218.316 138.112L203.329 129.459C195.921 125.181 185.522 129.321 180.104 138.706C174.686 148.09 176.3 159.166 183.709 163.443L201.595 173.77C201.866 173.926 202.141 174.071 202.419 174.206C201.926 184.783 204.542 196.82 212.636 209.626C192.204 224.816 157.873 272.294 184.004 340.688C208.873 381.821 274.175 460.377 336.44 445.537C357.544 438.413 398.785 407.469 394.914 340.688C401.097 279.929 380.88 164.379 250.544 188.253L233.607 194.705C227.961 184.086 223.444 159.701 250.544 147.119C261.97 141.339 288.128 139.619 301.355 178.977L327.971 159.621L310.281 141.562C310.851 140.992 311.368 140.364 311.826 139.677L323.284 122.494C328.03 115.376 324.569 104.732 315.553 98.7206C306.538 92.7087 295.381 93.6051 290.635 100.723L279.177 117.906C278.466 118.973 277.939 120.119 277.587 121.316C273.438 120.075 269.073 119.214 264.563 118.89C264.444 118.008 264.231 117.134 263.918 116.277L256.825 96.8791Z" fill="white"/>
<path d="M233.078 89.0687L230.503 82.0248L230.503 82.0248L233.078 89.0687ZM256.825 96.8791L263.869 94.3036L263.869 94.3036L256.825 96.8791ZM219.97 110.355L212.926 112.93L212.926 112.93L219.97 110.355ZM227.062 129.752L220.018 132.328L220.019 132.328L227.062 129.752ZM227.28 130.306L231.769 136.313C234.53 134.251 235.529 130.573 234.193 127.397L227.28 130.306ZM219.896 136.635L224.858 142.258C224.948 142.178 225.037 142.096 225.124 142.012L219.896 136.635ZM218.316 138.112L214.566 144.607C217.492 146.296 221.185 145.821 223.588 143.447L218.316 138.112ZM203.329 129.459L207.079 122.964L207.079 122.964L203.329 129.459ZM180.104 138.706L173.609 134.956L173.609 134.956L180.104 138.706ZM183.709 163.443L187.459 156.948L187.459 156.948L183.709 163.443ZM201.595 173.77L205.345 167.275L205.345 167.275L201.595 173.77ZM202.419 174.206L209.911 174.555C210.052 171.55 208.383 168.752 205.672 167.448L202.419 174.206ZM212.636 209.626L217.111 215.645C220.259 213.305 221.072 208.934 218.976 205.619L212.636 209.626ZM184.004 340.688L176.998 343.365C177.158 343.782 177.355 344.185 177.586 344.568L184.004 340.688ZM336.44 445.537L338.179 452.833C338.401 452.78 338.622 452.716 338.839 452.643L336.44 445.537ZM394.914 340.688L387.452 339.928C387.412 340.325 387.403 340.724 387.426 341.122L394.914 340.688ZM250.544 188.253L249.193 180.875C248.743 180.958 248.301 181.081 247.874 181.244L250.544 188.253ZM233.607 194.705L226.984 198.226C228.759 201.565 232.743 203.06 236.277 201.714L233.607 194.705ZM250.544 147.119L253.702 153.922C253.779 153.886 253.854 153.85 253.929 153.812L250.544 147.119ZM301.355 178.977L294.246 181.367C295.007 183.63 296.8 185.397 299.075 186.123C301.351 186.849 303.835 186.448 305.767 185.043L301.355 178.977ZM327.971 159.621L332.382 165.686C334.145 164.404 335.263 162.418 335.445 160.246C335.627 158.074 334.854 155.93 333.329 154.372L327.971 159.621ZM310.281 141.562L304.974 136.263C302.07 139.171 302.048 143.875 304.924 146.811L310.281 141.562ZM311.826 139.677L318.066 143.838L318.066 143.838L311.826 139.677ZM323.284 122.494L329.524 126.655L329.524 126.655L323.284 122.494ZM315.553 98.7206L319.714 92.4806L319.714 92.4806L315.553 98.7206ZM290.635 100.723L284.395 96.5619L284.395 96.5619L290.635 100.723ZM279.177 117.906L285.417 122.067L285.417 122.067L279.177 117.906ZM277.587 121.316L275.438 128.501C277.35 129.073 279.411 128.86 281.165 127.908C282.919 126.956 284.221 125.344 284.784 123.429L277.587 121.316ZM264.563 118.89L257.129 119.888C257.602 123.41 260.482 126.117 264.026 126.371L264.563 118.89ZM263.918 116.277L256.874 118.852L256.874 118.852L263.918 116.277ZM235.654 96.1126C243.584 93.2131 248.8 96.771 249.782 99.4546L263.869 94.3036C258.975 80.9177 242.928 77.4819 230.503 82.0248L235.654 96.1126ZM227.014 107.779C226.033 105.096 227.724 99.0121 235.654 96.1126L230.503 82.0248C218.078 86.5677 208.032 99.5443 212.926 112.93L227.014 107.779ZM234.106 127.177L227.014 107.779L212.926 112.93L220.018 132.328L234.106 127.177ZM234.193 127.397C234.162 127.325 234.134 127.251 234.106 127.177L220.019 132.328C220.128 132.627 220.244 132.923 220.367 133.214L234.193 127.397ZM225.124 142.012C227.347 139.85 229.566 137.96 231.769 136.313L222.79 124.298C220.045 126.35 217.334 128.664 214.667 131.257L225.124 142.012ZM223.588 143.447C224.028 143.012 224.452 142.616 224.858 142.258L214.933 131.011C214.308 131.563 213.677 132.152 213.045 132.776L223.588 143.447ZM199.579 135.954L214.566 144.607L222.066 131.616L207.079 122.964L199.579 135.954ZM186.599 142.456C190.821 135.144 197.105 134.525 199.579 135.954L207.079 122.964C194.736 115.837 180.223 123.499 173.609 134.956L186.599 142.456ZM187.459 156.948C184.984 155.519 182.378 149.768 186.599 142.456L173.609 134.956C166.994 146.413 167.615 162.812 179.959 169.938L187.459 156.948ZM205.345 167.275L187.459 156.948L179.959 169.938L197.845 180.265L205.345 167.275ZM205.672 167.448C205.562 167.395 205.453 167.337 205.345 167.275L197.845 180.265C198.279 180.515 198.72 180.748 199.167 180.963L205.672 167.448ZM218.976 205.619C211.672 194.062 209.492 183.539 209.911 174.555L194.928 173.856C194.359 186.027 197.412 199.577 206.297 213.633L218.976 205.619ZM191.01 338.011C166.318 273.384 198.793 229.263 217.111 215.645L208.162 203.607C185.615 220.369 149.427 271.203 176.998 343.365L191.01 338.011ZM334.701 438.242C307.167 444.804 277.757 430.879 251.03 408.366C224.588 386.094 202.547 356.861 190.423 336.807L177.586 344.568C190.33 365.647 213.374 396.26 241.367 419.839C269.075 443.178 303.448 461.111 338.179 452.833L334.701 438.242ZM387.426 341.122C391.074 404.045 352.43 432.223 334.041 438.431L338.839 452.643C362.658 444.602 406.496 410.893 402.401 340.254L387.426 341.122ZM251.895 195.63C283.388 189.861 307.561 192.63 326.061 200.373C344.524 208.102 357.938 221.036 367.533 236.658C386.921 268.227 390.453 310.439 387.452 339.928L402.375 341.447C405.557 310.178 402.073 264.235 380.314 228.808C369.335 210.932 353.643 195.658 331.853 186.536C310.097 177.43 282.867 174.707 249.193 180.875L251.895 195.63ZM236.277 201.714L253.214 195.261L247.874 181.244L230.937 187.696L236.277 201.714ZM247.385 140.317C231.706 147.597 224.395 158.842 222.405 170.373C220.505 181.384 223.58 191.823 226.984 198.226L240.229 191.184C237.987 186.967 235.982 179.904 237.186 172.924C238.302 166.462 242.282 159.224 253.702 153.922L247.385 140.317ZM308.465 176.588C301.354 155.431 290.24 143.927 278.009 139.138C266.043 134.452 254.406 136.76 247.158 140.427L253.929 153.812C258.107 151.698 265.263 150.256 272.54 153.105C279.551 155.85 288.129 163.165 294.246 181.367L308.465 176.588ZM323.56 153.555L296.944 172.912L305.767 185.043L332.382 165.686L323.56 153.555ZM304.924 146.811L322.613 164.869L333.329 154.372L315.639 136.314L304.924 146.811ZM305.586 135.516C305.404 135.789 305.2 136.037 304.974 136.263L315.588 146.862C316.501 145.948 317.332 144.938 318.066 143.838L305.586 135.516ZM317.044 118.333L305.586 135.516L318.066 143.838L329.524 126.655L317.044 118.333ZM311.392 104.96C318.417 109.645 318.629 115.955 317.044 118.333L329.524 126.655C337.431 114.797 330.721 99.82 319.714 92.4806L311.392 104.96ZM296.875 104.884C298.46 102.506 304.368 100.276 311.392 104.96L319.714 92.4806C308.708 85.1412 292.303 84.7038 284.395 96.5619L296.875 104.884ZM285.417 122.067L296.875 104.884L284.395 96.5619L272.937 113.745L285.417 122.067ZM284.784 123.429C284.927 122.94 285.137 122.488 285.417 122.067L272.937 113.745C271.795 115.458 270.951 117.297 270.391 119.203L284.784 123.429ZM264.026 126.371C267.934 126.651 271.757 127.4 275.438 128.501L279.737 114.131C275.118 112.749 270.212 111.776 265.099 111.409L264.026 126.371ZM256.874 118.852C256.998 119.192 257.082 119.537 257.129 119.888L271.996 117.892C271.806 116.479 271.464 115.075 270.962 113.701L256.874 118.852ZM249.782 99.4546L256.874 118.852L270.962 113.701L263.869 94.3036L249.782 99.4546Z" fill="#1C1B1F"/>
<path d="M369.911 128.972C294.742 125.101 246.377 197.259 231.591 233.822L284.016 249.146C300.146 178.494 348.001 168.089 369.911 171.719V128.972Z" fill="#F9F9F9"/>
<path d="M231.591 233.822C246.377 197.259 294.742 125.101 369.912 128.972V171.719C348.001 168.089 300.146 178.494 284.016 249.146" stroke="#1C1B1F" stroke-width="15" stroke-linecap="round" stroke-linejoin="round"/>
<path d="M386.205 149.942C386.205 161.98 377.946 169.865 369.912 169.865C361.878 169.865 353.619 161.98 353.619 149.942C353.619 137.905 361.878 130.02 369.912 130.02C377.946 130.02 386.205 137.905 386.205 149.942Z" fill="#666666" stroke="#1C1B1F" stroke-width="15"/>
<path d="M252.157 260.438C249.76 267.982 248.324 281.682 252.157 297.613M317.89 398.355C314.212 385.386 304.641 371.575 295.307 360.598M252.157 297.613C259.147 295.706 278.289 296.328 298.936 314.072C303.641 318.642 313.535 328.993 315.47 333.832M252.157 297.613C253.611 303.656 255.823 310.02 259.029 316.492M259.029 316.492C263.483 325.483 269.854 334.681 278.773 343.511C282.967 347.221 289.084 353.28 295.307 360.598M259.029 316.492C250.017 322.406 233.446 341.494 239.253 370.529M295.307 360.598C289.527 361.355 280.709 369.562 291.677 396.339" stroke="#1C1B1F" stroke-width="20" stroke-linecap="round" stroke-linejoin="round"/>
</svg>
