<svg width="530" height="530" viewBox="0 0 530 530" fill="none" xmlns="http://www.w3.org/2000/svg">
<rect width="530" height="530" fill="white"/>
<path fill-rule="evenodd" clip-rule="evenodd" d="M217.156 51H237.156V166.881L237.079 167.758C236.955 169.157 236.948 171.245 237.251 173.527C237.556 175.825 238.104 177.781 238.762 179.216C239.405 180.618 239.933 181.065 240.032 181.141C240.08 181.177 240.149 181.225 240.315 181.285C240.488 181.348 240.938 181.484 241.786 181.532C252.814 182.156 261.248 191.602 260.624 202.63C260 213.658 250.554 222.092 239.526 221.468C219.951 220.36 208.121 208.364 202.4 195.884C197.397 184.969 196.589 173.198 197.156 165.215V51H217.156Z" fill="#F9F9F9"/>
<path d="M237.156 55V166.881L237.079 167.758C236.955 169.157 236.948 171.244 237.251 173.527C237.556 175.825 238.104 177.781 238.762 179.216C239.405 180.618 239.933 181.065 240.032 181.141C240.08 181.177 240.149 181.225 240.315 181.285C240.488 181.348 240.938 181.484 241.786 181.532C252.814 182.156 261.248 191.602 260.624 202.63C260 213.658 250.554 222.092 239.526 221.468C219.951 220.36 208.121 208.364 202.4 195.884C197.397 184.969 196.589 173.198 197.156 165.215V55" stroke="#1C1B1F" stroke-width="15" stroke-linecap="round"/>
<path d="M137.863 336.073C156.976 335.24 175.301 341.664 186.537 347.588C196.308 352.74 200.052 364.837 194.9 374.607C189.749 384.378 177.652 388.122 167.881 382.971C160.783 379.228 149.558 375.602 139.605 376.035C131.323 376.396 124.828 379.234 120.37 388.117C119.072 392.647 118.278 399.834 119.949 406.514C121.508 412.747 125.155 418.837 134.615 422.908L118.803 459.65C96.6632 450.122 85.3936 433.211 81.1441 416.219C77.1372 400.197 79.3737 384.54 82.7354 374.455L83.0834 373.411L83.5439 372.411C95.477 346.507 117.39 336.965 137.863 336.073Z" fill="#F9F9F9"/>
<path d="M134.615 422.908C125.155 418.837 121.508 412.747 119.949 406.514C118.278 399.834 119.072 392.647 120.37 388.117C124.828 379.234 131.323 376.396 139.605 376.035C149.558 375.602 160.783 379.228 167.881 382.971C177.652 388.122 189.749 384.378 194.9 374.607C200.052 364.837 196.308 352.74 186.537 347.588C175.301 341.664 156.976 335.24 137.863 336.073C117.39 336.965 95.477 346.507 83.5439 372.411L83.0834 373.411L82.7354 374.455C79.3737 384.54 77.1372 400.197 81.1441 416.219C85.3936 433.211 96.6632 450.122 118.803 459.65" stroke="#1C1B1F" stroke-width="15" stroke-linecap="round"/>
<path d="M287.708 179.5C251.308 185.5 236.08 207.5 243.208 231C254.008 266.6 247.708 293.833 243.208 303C228.808 337.4 209.009 327.5 184.209 327.5C159.409 327.5 157.542 349.833 159.709 361C164.109 403.8 229.209 412.167 261.209 411C346.809 404.6 376.875 322.333 381.209 282C390.009 184 322.542 172.833 287.708 179.5Z" fill="white" stroke="#1C1B1F" stroke-width="15"/>
<path d="M375.998 271.298C367.059 400.764 251.5 419 240.113 396.351C231.102 373 252.628 364.55 272.296 354.176C328.081 324.752 316.102 267.048 303.139 241.874C286.69 213.626 309.772 193.048 320.5 187C367.5 194.5 376.147 241.056 375.998 271.298Z" fill="#F3F3F3"/>
<path d="M317.674 324.22C336.429 330.168 326.613 347.794 313.177 349.373C301.353 350.762 299.982 356.44 300.774 359.105C305.992 383.158 284.193 387.227 272.641 386.255C259.954 383.729 248.443 388.645 244.273 391.419C221.051 399.845 210.274 386.21 207.788 378.339C205.571 352.659 228.855 342.217 240.774 340.207C253.51 339.606 261.744 340.524 267.357 330.198C276.527 304.863 289.052 308.701 294.168 313.787C302.408 324.215 311.249 322.182 317.674 324.22Z" fill="#D9D9D9"/>
<path d="M310.686 327.906C325.331 331.825 317.554 344.48 306.782 346.404C297.302 348.096 295.699 354.643 295.558 356.977C294.361 376.763 279.114 377.769 269.964 377.536C258.355 377.24 250.549 378.641 243.092 382.056C228.624 389.509 217.637 382.887 216.036 376.63C215.503 355.933 239.743 347.964 249.329 345.763C259.497 344.666 266.144 344.461 271.108 335.827C279.624 314.863 288.644 316.708 292.473 320.582C298.533 328.635 305.669 326.564 310.686 327.906Z" fill="#666666"/>
<path d="M297.475 337.714C296.458 328.171 288.62 329.831 284.659 332.624C280.697 335.417 275.426 343.297 275.426 343.297C272.789 346.346 267.789 349.574 265.619 350.806C261.137 352.926 254.556 353.897 250.508 353.728C235.771 354.84 231.095 361.368 230.599 364.493C228.208 375.219 236.169 374.642 240.448 373.013C245.09 370.098 258.938 367.461 265.282 366.507C284.026 365.663 287.486 357.789 286.51 354.218C285.556 350.727 287.88 348.295 289.232 347.243C293.913 344.894 297.342 340.93 297.475 337.714Z" fill="#1C1B1F"/>
<path d="M337.938 222.945C347.596 218.793 349.791 229.347 344.913 234.682C340.621 239.376 342.051 242.15 343.303 242.95C353.82 250.846 346.433 260.11 341.425 263.756C335.416 267.17 332.482 273.18 331.767 275.759C325.328 287.282 316.207 285.539 312.451 283.227C302.579 273.625 308.338 261.266 312.451 256.287C317.388 251.593 321.036 249.085 319.695 242.95C314.544 229.507 320.947 226.68 324.792 226.946C331.767 228.28 334.629 224.368 337.938 222.945Z" fill="#D9D9D9"/>
<path d="M336.402 226.878C343.69 223.343 344.971 231.175 341.291 235.718C338.051 239.716 339.692 242.922 340.451 243.914C346.884 252.328 341.074 258.064 337.295 261.169C332.501 265.107 329.836 268.402 328.017 272.388C324.775 280.458 318.021 281.622 315.186 279.654C307.736 271.477 314.746 259.783 317.85 255.543C321.575 251.545 324.19 249.138 323.178 243.914C319.291 232.466 323.581 230.058 326.482 230.286C331.746 231.421 333.905 228.09 336.402 226.878Z" fill="#666666"/>
<path d="M334.492 235.459C330.745 231.959 328.158 235.37 327.534 237.883C326.909 240.396 327.534 245.423 327.534 245.423C327.534 247.577 326.642 250.629 326.196 251.886C325.125 254.309 322.806 257.002 321.111 258.348C315.544 263.949 315.937 268.222 316.829 269.658C319.612 274.828 322.627 271.813 323.787 269.658C324.643 266.858 329.318 260.951 331.548 258.348C338.827 251.455 337.473 247.064 335.83 245.962C334.224 244.884 334.313 243.089 334.492 242.191C335.562 239.606 335.562 236.806 334.492 235.459Z" fill="#1C1B1F"/>
</svg>
