<svg width="530" height="530" viewBox="0 0 530 530" fill="none" xmlns="http://www.w3.org/2000/svg">
<rect width="530" height="530" fill="white"/>
<path fill-rule="evenodd" clip-rule="evenodd" d="M36 287.757C70.5698 284.256 136.718 281.601 170.623 296.085C186.08 303.327 192.561 308.759 200.04 320.347L226.466 354.162C227.013 355.115 227.2 351.525 227.459 346.56C227.987 336.428 228.813 320.572 233.602 325.918L258.377 354.747C261.966 358.508 268.269 360.68 269.845 360.68C271.416 360.68 277.701 358.508 281.279 354.747L305.981 325.918C310.756 320.572 311.58 336.428 312.106 346.56C312.364 351.525 312.55 355.115 313.095 354.163L339.443 320.347C346.9 308.759 353.363 303.328 368.774 296.085C402.579 281.601 468.532 284.256 503 287.757V467L269.845 467H36V287.757Z" fill="#D9D9D9"/>
<path fill-rule="evenodd" clip-rule="evenodd" d="M133.338 271.804C134.827 268.728 137.971 266.77 141.421 266.77L195.629 275.626H267.759V327.215L270 335.686L272.24 327.215V275.626H344.371L398.578 266.77C402.029 266.77 405.172 268.728 406.661 271.804C408.15 274.88 407.72 278.528 405.555 281.184C402.07 285.457 396.822 293.538 393.079 303.185C389.313 312.89 387.409 323.299 389.423 332.683C389.427 332.7 389.43 332.716 389.434 332.733C389.437 332.75 389.441 332.767 389.444 332.784C392.878 349.755 394.866 375.701 389.122 398.196C386.233 409.51 381.234 420.553 372.882 429.033C364.574 437.468 353.429 442.865 339.27 443.818C317.489 445.284 297.367 438.672 282.586 396.303C282.527 396.132 282.472 395.96 282.424 395.786C281.025 390.811 278.47 383.376 275.448 377.316C273.92 374.251 272.472 371.946 271.251 370.521C270.959 370.18 270.729 369.946 270.563 369.791C270.373 369.755 270.185 369.714 270 369.667C269.814 369.714 269.626 369.755 269.436 369.791C269.27 369.946 269.041 370.18 268.749 370.521C267.528 371.946 266.079 374.251 264.551 377.316C261.529 383.376 258.974 390.811 257.576 395.786C257.527 395.96 257.473 396.132 257.413 396.303C242.632 438.672 222.51 445.284 200.73 443.818C186.571 442.865 175.425 437.468 167.117 429.033C158.766 420.553 153.767 409.51 150.878 398.196C145.134 375.701 147.121 349.755 150.555 332.784C150.562 332.75 150.569 332.717 150.576 332.683C152.59 323.299 150.687 312.89 146.921 303.185C143.178 293.538 137.93 285.457 134.445 281.184C132.28 278.528 131.849 274.88 133.338 271.804Z" fill="#666666"/>
<path fill-rule="evenodd" clip-rule="evenodd" d="M265.174 165.81C256.607 165.796 243.95 163.183 222.032 156.124C208.993 149.046 177.998 142.862 158.328 174.751C150.629 189.156 139.851 227.726 158.328 266.767C166.524 282.165 181.873 317.953 177.7 337.921C172.857 362.633 169.877 413.397 196.7 418.761C202.163 420.872 215.326 418.016 224.267 389.704C229.229 371.841 242.721 342.35 265.174 340.535C287.627 342.35 301.119 371.841 306.081 389.704C315.022 418.016 328.185 420.872 333.648 418.761C360.471 413.397 357.491 362.633 352.648 337.921C348.475 317.953 363.824 282.165 372.02 266.767C390.497 227.726 379.719 189.156 372.02 174.751C352.35 142.862 321.355 149.046 308.316 156.124C286.398 163.183 273.741 165.796 265.174 165.81Z" fill="white"/>
<path fill-rule="evenodd" clip-rule="evenodd" d="M163.908 177.956C156.904 191.212 146.859 227.362 164.078 263.883C168.318 271.87 174.32 284.942 178.769 298.645C183.133 312.086 186.447 327.427 184.004 339.195C181.663 351.156 179.818 369.282 181.709 384.82C182.657 392.611 184.491 399.271 187.299 404.119C190.015 408.809 193.463 411.556 197.961 412.456L198.502 412.564L199.017 412.763C199.258 412.856 201.562 413.44 205.213 410.579C208.906 407.686 213.859 401.258 218.102 387.871C220.715 378.503 225.571 366.001 232.872 355.444C240.111 344.975 250.593 335.262 264.656 334.125L265.174 334.083L265.692 334.125C279.755 335.262 290.236 344.975 297.476 355.444C304.777 366.001 309.633 378.502 312.246 387.871C316.488 401.258 321.442 407.686 325.135 410.579C328.786 413.44 331.089 412.856 331.331 412.763L331.846 412.564L332.387 412.456C336.884 411.556 340.332 408.809 343.049 404.119C345.856 399.271 347.69 392.611 348.639 384.82C350.53 369.282 348.684 351.156 346.344 339.196C343.9 327.427 347.215 312.086 351.579 298.645C356.028 284.942 362.029 271.87 366.27 263.883C383.488 227.362 373.444 191.211 366.44 177.956C357.644 163.795 346.732 158.501 336.843 157.202C326.582 155.853 316.932 158.765 311.384 161.777L310.857 162.062L310.287 162.246C288.33 169.317 274.84 172.225 265.185 172.241L265.174 172.241L265.163 172.241C255.508 172.225 242.018 169.317 220.06 162.246L219.49 162.062L218.964 161.777C213.415 158.765 203.766 155.853 193.504 157.202C183.615 158.501 172.704 163.795 163.908 177.956ZM224.548 150.178C217.011 146.23 204.918 142.729 191.829 144.449C178.083 146.255 163.71 153.776 152.855 171.375L152.75 171.545L152.657 171.72C144.275 187.402 132.942 228.162 152.515 269.519L152.58 269.655L152.651 269.789C156.603 277.213 162.33 289.663 166.536 302.617C170.847 315.895 173.117 328.412 171.405 336.606L171.397 336.645L171.389 336.685C168.89 349.436 166.83 369.027 168.941 386.374C169.995 395.033 172.143 403.614 176.169 410.565C180.211 417.544 186.295 423.078 194.949 424.965C200.105 426.705 206.848 425.639 213.146 420.704C219.626 415.626 225.708 406.496 230.399 391.641L230.433 391.533L230.463 391.425C232.819 382.943 237.181 371.825 243.451 362.759C249.68 353.752 256.993 347.87 265.174 346.994C273.355 347.87 280.668 353.752 286.897 362.759C293.167 371.825 297.528 382.943 299.884 391.425L299.914 391.533L299.948 391.641C304.639 406.496 310.722 415.626 317.202 420.704C323.5 425.639 330.243 426.705 335.399 424.965C344.053 423.078 350.137 417.544 354.179 410.565C358.205 403.614 360.352 395.033 361.406 386.374C363.518 369.027 361.458 349.436 358.958 336.685L358.951 336.645L358.943 336.606C357.23 328.412 359.501 315.895 363.812 302.617C368.018 289.663 373.745 277.213 377.696 269.789L377.767 269.655L377.832 269.519C397.405 228.162 386.073 187.402 377.691 171.72L377.597 171.544L377.493 171.375C366.637 153.776 352.264 146.255 338.519 144.449C325.43 142.729 313.337 146.23 305.8 150.178C284.28 157.084 272.592 159.365 265.174 159.379C257.756 159.365 246.068 157.084 224.548 150.178Z" fill="#1C1B1F"/>
<path fill-rule="evenodd" clip-rule="evenodd" d="M287.087 161.033C288.809 164.14 287.686 168.054 284.58 169.776C266.229 179.946 252.422 184.056 241.337 185.285C232.126 186.306 224.944 185.275 219.578 184.505C218.53 184.354 217.551 184.214 216.64 184.1C213.115 183.662 210.613 180.449 211.052 176.925C211.49 173.4 214.703 170.898 218.227 171.337C219.393 171.482 220.546 171.645 221.706 171.809C227.008 172.558 232.46 173.328 239.919 172.501C248.936 171.501 261.111 168.077 278.345 158.526C281.451 156.804 285.365 157.927 287.087 161.033Z" fill="#1C1B1F"/>
<circle cx="288.253" cy="319.253" r="6.54274" transform="rotate(45 288.253 319.253)" fill="#1C1B1F"/>
<circle cx="332.044" cy="314.044" r="8.5165" transform="rotate(45 332.044 314.044)" fill="#1C1B1F"/>
<circle cx="314.066" cy="344.066" r="12.7748" transform="rotate(45 314.066 344.066)" fill="#1C1B1F"/>
<path d="M349 329.5C331 343.5 328 398.5 288.5 351C299.7 376.2 306.833 394.833 309 401C321 424.6 336.667 419.833 343 414.5C363.8 384.5 355.667 345.333 349 329.5Z" fill="#1C1B1F"/>
<path d="M450.547 395.676L424.765 392.316" stroke="#1C1B1F" stroke-width="15" stroke-linecap="round" stroke-linejoin="round"/>
<path d="M425.477 434.893L410.301 415.169" stroke="#1C1B1F" stroke-width="15" stroke-linecap="round" stroke-linejoin="round"/>
<path d="M436.461 350.605L416.737 365.78" stroke="#1C1B1F" stroke-width="15" stroke-linecap="round" stroke-linejoin="round"/>
</svg>
