<svg width="530" height="530" viewBox="0 0 530 530" fill="none" xmlns="http://www.w3.org/2000/svg">
<rect width="530" height="530" fill="white"/>
<path fill-rule="evenodd" clip-rule="evenodd" d="M265.008 126.436C255.016 126.419 240.256 123.372 214.694 115.14C199.488 106.885 163.341 99.6733 140.401 136.863C131.423 153.662 118.852 198.643 140.401 244.175C149.959 262.132 167.859 303.87 162.993 327.157C157.345 355.976 153.87 415.178 185.151 421.434C191.523 423.896 206.874 420.566 217.301 387.547C223.087 366.715 238.822 332.321 265.008 330.204C291.193 332.321 306.928 366.715 312.714 387.547C323.141 420.566 338.492 423.896 344.864 421.434C376.145 415.178 372.67 355.976 367.022 327.157C362.156 303.87 380.056 262.132 389.614 244.175C411.163 198.643 398.593 153.662 389.614 136.863C366.674 99.6733 330.527 106.885 315.321 115.14C289.759 123.372 274.999 126.419 265.008 126.436Z" fill="#F9F9F9"/>
<path fill-rule="evenodd" clip-rule="evenodd" d="M146.908 140.601C138.74 156.059 127.026 198.219 147.107 240.811C152.052 250.125 159.051 265.37 164.24 281.351C169.329 297.026 173.195 314.917 170.345 328.642C167.615 342.59 165.463 363.729 167.669 381.85C168.774 390.936 170.913 398.704 174.188 404.358C177.355 409.828 181.377 413.031 186.621 414.08L187.253 414.206L187.854 414.438C188.135 414.547 190.821 415.228 195.079 411.892C199.386 408.518 205.163 401.021 210.11 385.409C213.158 374.483 218.821 359.903 227.336 347.591C235.779 335.383 248.003 324.054 264.403 322.729L265.007 322.68L265.612 322.729C282.012 324.054 294.236 335.383 302.679 347.591C311.193 359.903 316.857 374.483 319.904 385.409C324.852 401.021 330.628 408.517 334.935 411.892C339.193 415.228 341.88 414.547 342.161 414.438L342.762 414.206L343.393 414.08C348.638 413.031 352.659 409.828 355.827 404.358C359.102 398.704 361.24 390.936 362.346 381.85C364.552 363.73 362.4 342.591 359.67 328.643C356.82 314.918 360.686 297.026 365.775 281.351C370.964 265.37 377.963 250.125 382.908 240.811C402.989 198.219 391.275 156.059 383.107 140.601C372.848 124.085 360.123 117.911 348.59 116.396C336.623 114.824 325.369 118.219 318.899 121.731L318.285 122.065L317.62 122.279C292.013 130.525 276.28 133.917 265.02 133.936L265.007 133.936L264.995 133.936C253.735 133.917 238.002 130.525 212.395 122.279L211.73 122.065L211.116 121.731C204.645 118.219 193.392 114.824 181.425 116.396C169.892 117.911 157.167 124.085 146.908 140.601ZM217.628 108.205C208.838 103.6 194.735 99.5181 179.471 101.524C163.44 103.63 146.678 112.401 134.018 132.926L133.896 133.123L133.787 133.328C124.011 151.617 110.795 199.152 133.622 247.383L133.698 247.543L133.781 247.699C138.389 256.357 145.068 270.876 149.973 285.983C155.001 301.469 157.649 316.066 155.652 325.623L155.642 325.668L155.633 325.714C152.719 340.585 150.316 363.432 152.778 383.663C154.008 393.762 156.512 403.769 161.207 411.876C165.921 420.014 173.017 426.468 183.109 428.669C189.122 430.698 196.986 429.454 204.331 423.699C211.888 417.778 218.982 407.13 224.453 389.805L224.492 389.68L224.527 389.554C227.275 379.662 232.361 366.696 239.673 356.123C246.938 345.619 255.467 338.758 265.007 337.737C274.548 338.758 283.077 345.619 290.342 356.123C297.653 366.696 302.74 379.662 305.488 389.554L305.523 389.68L305.562 389.805C311.033 407.13 318.127 417.778 325.684 423.699C333.029 429.454 340.892 430.698 346.906 428.669C356.998 426.468 364.094 420.014 368.807 411.876C373.502 403.769 376.007 393.762 377.236 383.663C379.699 363.432 377.296 340.585 374.382 325.714L374.373 325.668L374.363 325.623C372.366 316.066 375.014 301.469 380.042 285.983C384.947 270.876 391.626 256.357 396.234 247.699L396.317 247.543L396.393 247.383C419.219 199.152 406.003 151.617 396.228 133.328L396.119 133.123L395.997 132.926C383.337 112.401 366.575 103.63 350.544 101.524C335.279 99.5181 321.177 103.6 312.386 108.205C287.289 116.259 273.658 118.919 265.007 118.936C256.357 118.919 242.726 116.259 217.628 108.205Z" fill="#1C1B1F"/>
<path fill-rule="evenodd" clip-rule="evenodd" d="M290.563 120.865C292.571 124.488 291.262 129.053 287.639 131.061C266.237 142.922 250.135 147.715 237.208 149.148C226.466 150.339 218.09 149.137 211.832 148.238C210.61 148.063 209.468 147.899 208.406 147.767C204.295 147.255 201.377 143.509 201.889 139.398C202.4 135.288 206.147 132.37 210.257 132.881C211.616 133.05 212.961 133.241 214.314 133.432C220.497 134.305 226.856 135.204 235.555 134.239C246.071 133.073 260.269 129.08 280.368 117.941C283.991 115.933 288.555 117.242 290.563 120.865Z" fill="#1C1B1F"/>
<path d="M321.984 217.631C340.449 256.484 387.676 236.128 396.644 211.879C410.804 158.243 387.942 131.19 376.29 120.275C352.927 103.282 327.617 105.582 315.346 120.275C299.417 137.622 299.34 156.473 300.625 166.208C303.103 184.971 321.099 186.212 328.621 183.999C316.231 192.85 319.034 210.108 321.984 217.631Z" fill="#666666" stroke="black" stroke-width="15" stroke-linejoin="round"/>
<path d="M158.837 194.755C156.392 194.337 138.455 192.125 133.427 194.364C131.707 196.889 132.307 204.86 132.789 207.448C133.326 210.333 134.843 218.821 136.385 224.324C138.441 231.667 141.909 238.719 144.162 246.043C146.02 252.081 148.838 260.6 150.582 264.717C152.326 268.833 154.863 278.358 158.507 282.913C161.51 286.668 162.948 289.946 167.935 291.608C171.26 292.716 176.139 293.098 180.129 292.377C184.119 291.656 187.166 289.89 188.92 288.967C190.498 288.136 193.466 285.67 194.629 284.377C197.099 281.632 198.403 278.371 199.633 274.806C200.827 271.342 201.326 269.833 202.825 264.35C204.323 258.867 204.25 257.775 204.629 254.877C206.295 242.127 203.397 229.994 189.214 228.103C185.132 227.559 179.744 227.15 181.326 222.087C183.375 215.531 184.762 212.869 179.162 207.082C173.44 201.169 167.253 196.192 158.837 194.755Z" fill="#666666"/>
<path d="M132.129 195.709C132.666 191.414 156.022 194.274 158.837 194.755C167.253 196.192 173.44 201.169 179.162 207.082C184.762 212.869 183.375 215.531 181.326 222.087C179.744 227.15 185.132 227.559 189.214 228.103C203.397 229.994 206.295 242.127 204.629 254.877C204.25 257.775 204.323 258.867 202.825 264.35C201.326 269.833 200.827 271.342 199.633 274.806C198.403 278.371 197.099 281.632 194.629 284.377C193.466 285.67 190.498 288.136 188.92 288.967C187.166 289.89 184.119 291.656 180.129 292.377C176.139 293.098 171.26 292.716 167.935 291.608C162.948 289.946 161.51 286.668 158.507 282.913C154.863 278.358 152.326 268.833 150.582 264.717C148.838 260.6 146.02 252.081 144.162 246.043C141.909 238.719 138.441 231.667 136.385 224.324C134.843 218.821 133.326 210.333 132.789 207.448C132.252 204.564 131.568 194.998 134.11 193.728" stroke="#1C1B1F" stroke-width="15" stroke-linecap="round"/>
<path d="M420.854 74.083L404.429 94.2384" stroke="#1C1B1F" stroke-width="15" stroke-linecap="round" stroke-linejoin="round"/>
<path d="M441.009 116.039L416.251 118.564" stroke="#1C1B1F" stroke-width="15" stroke-linecap="round" stroke-linejoin="round"/>
<path d="M375.116 62.3433L377.641 87.1009" stroke="#1C1B1F" stroke-width="15" stroke-linecap="round" stroke-linejoin="round"/>
<path d="M78.0635 302.179L100.58 289.179" stroke="#1C1B1F" stroke-width="15" stroke-linecap="round" stroke-linejoin="round"/>
<path d="M74.1406 255.799L98.1788 262.24" stroke="#1C1B1F" stroke-width="15" stroke-linecap="round" stroke-linejoin="round"/>
<path d="M116.641 329.411L123.082 305.373" stroke="#1C1B1F" stroke-width="15" stroke-linecap="round" stroke-linejoin="round"/>
</svg>
