<svg xmlns="http://www.w3.org/2000/svg" width="500" height="220" viewBox="0 0 132.29166 58.208335"><path d="M6.35 7.413v4.256q1.314.025 2.422-.041 1.157-.09 2.223-.306l-.108-.487q-.694.173-1.992.28-1.181.108-1.983.083V7.892h3.314v-.479Zm5.347-1.29v7.315h.562v-3.339h1.34v-.48h-1.34V6.39q0-.026.009-.05l.024-.058q.042-.075.025-.108-.033-.05-.215-.05zM14.714 6.752v.463h3.132v1.132H14.73v2.198q.918-.008 2.29-.132 1.24-.132 2.364-.297l-.075-.488q-.86.173-2.116.297-1.181.124-1.9.124V8.793h3.124V6.752Zm5.446-.554v4.48h.563v-1.67h1.289v-.463h-1.29V6.471q0-.025.009-.05l.025-.05q.04-.099.024-.132-.033-.041-.215-.041zm-4.52 4.926v2.388h.562v-.157h3.95v.166h.57v-2.397zm4.512.438v1.38h-3.95v-1.38zM23.483 6.628v.454h1.744q0 .785-.554 1.397-.603.661-1.628.81l.33.504q.852-.24 1.439-.744.47-.413.702-.942.24.455.744.818.554.397 1.38.629l.323-.439q-1.042-.214-1.629-.776-.578-.546-.578-1.257h1.76v-.454Zm4.57 3.471q-1.181.14-3.115.215-1.612.058-2.116.033l.074.405q.025.165.066.182.025.008.091-.058.033-.041.058-.05.041-.025.074-.025l2.017-.05v2.43h.546v-2.454q.553-.033 1.181-.083.802-.057 1.182-.099zm.513-3.794v7.406h.554V6.595q0-.033.008-.075.008-.024.033-.066.041-.082.025-.107-.017-.042-.166-.042zM40.31 6.231h-.396v2.95h-1.265v.455h1.265v2.265h.562V6.537q0-.05.024-.1.009-.024.05-.065.05-.075.025-.091-.042-.033-.265-.05zm-4.57.43v.43h1.777v-.43Zm-1.372 1v.454h4.463v-.454Zm2.198.892q-.818 0-1.28.389-.43.347-.43.86 0 .504.43.85.462.39 1.28.39.818 0 1.29-.39.421-.346.421-.85 0-.513-.421-.86-.472-.389-1.29-.389zm0 .38q.554 0 .876.265.298.232.298.587 0 .347-.298.587-.322.272-.876.272-.545 0-.868-.272-.297-.24-.297-.587 0-.355.297-.587.323-.264.868-.264zm-.694 2.447h-.43v1.934h5.364v-.455h-4.802v-1.214q0-.042.017-.075.008-.016.033-.05.033-.066.016-.09-.033-.042-.198-.05zM45.608 7.438v.454h1.48q-.05.843-.554 1.513-.471.628-1.281 1.008l.355.438q.562-.347 1.033-.851.455-.488.661-.942.108.33.521.768.413.438.884.711l.397-.421q-.702-.273-1.157-.868-.504-.678-.314-1.356h1.256v-.454Zm.95-.95v.454h1.753v-.455Zm3.645-.092h-.388v2.24h-1.24v.43h1.24v1.471h.554V6.686q0-.042.016-.083.008-.025.033-.066.041-.083.017-.108-.033-.033-.232-.033zm1.323-.09h-.38V10.9h.553V6.61q0-.05.017-.09.008-.034.033-.075.041-.083.016-.107-.033-.034-.24-.034zm-4.918 7.529q1.198-.306 1.984-.942.628-.513.917-1.166.273.67.851 1.166.637.537 1.595.843l.265-.513q-1.1-.198-1.794-.917-.611-.645-.611-1.33 0-.042.016-.084.017-.033.05-.082.066-.083.05-.108-.017-.04-.19-.04h-.455q0 .9-.769 1.652-.835.81-2.157.992zM60.047 6.124h-.372v7.306h.578v-3.364h1.364v-.471h-1.364V6.438q0-.05.017-.091.008-.025.033-.075.041-.074.016-.099-.04-.033-.272-.05zm-5.348.942h-.438v4.264h3.488V7.305q0-.033.008-.074l.033-.058q.042-.083.017-.099-.042-.041-.24-.058h-.388v1.53h-2.356V7.321q0-.041.017-.075.016-.024.05-.057.04-.058.024-.083-.025-.033-.215-.041zm.124 1.942h2.356v1.876h-2.356zM63.105 7.016v.447h3.339v.033q-.008.248-.017.38-.008.231-.033.454-.876.083-1.893.133-.867.05-1.611.058l.132.47q.041.1.066.108.017.017.066-.016l.133-.067q.099-.033.231-.04l1.422-.125q.752-.066 1.38-.116-.075.348-.149.629-.083.314-.165.52-.703.033-1.554.05-.496.008-1.339 0l-.653.008.107.438q.042.1.091.116.025.016.091-.017.066-.041.116-.058.1-.016.207-.016l1.578-.033v2.785h.546v-2.794q.644-.024 1.28-.058.662-.05 1.232-.09l-.016-.422-.513.041q-.19.008-.504.033l-.14.008q.19-.421.322-1.33.132-.835.149-1.53zm5.422-.768h-.38v7.29h.561V6.57q0-.05.017-.091.016-.025.041-.074.058-.066.033-.1-.041-.033-.273-.057zM76.99 6.206h-.38v7.265h.562v-6.95q0-.05.016-.1l.05-.074q.05-.075.016-.091-.041-.025-.264-.05zm-1.513.273h-.363v2.86H74.03q.008-.918-.405-1.48-.438-.62-1.256-.62-.794 0-1.248.695-.422.636-.422 1.562-.008.925.405 1.595.446.727 1.174.727.892 0 1.372-.694.38-.546.38-1.298h1.083v3.091h.553v-6.19q0-.033.008-.066.017-.017.033-.041.034-.067.017-.091-.041-.033-.248-.05zm-3.1 1.265q.513 0 .827.562.273.487.273 1.223 0 .719-.273 1.223-.314.562-.826.562-.529 0-.835-.562-.28-.504-.28-1.223 0-.736.28-1.223.306-.562.835-.562zM88.263 6.19h-.372v7.248h.579V9.983h1.363v-.47H88.47v-3.01q0-.049.016-.09.008-.025.033-.066.042-.091.017-.108-.042-.033-.273-.05zm-5.579.876v4.562q1.091 0 2.364-.1 1.273-.098 2.182-.255l-.074-.471q-.926.173-2.034.256-.975.074-1.868.074V9.405h3.24v-.463h-3.24v-1.43h3.414v-.446ZM91.395 6.892v.496h4.951q.008.992-.058 1.686-.099.86-.372 1.72l.562.115q.223-.694.347-1.661.133-1.116.116-2.356zm-.727 5.05v.512h7.19v-.512h-3.677V9.57q0-.041.016-.083.008-.024.033-.074.042-.091.025-.124-.025-.041-.215-.041h-.463v2.694zM105.19 6.107h-.372v7.331h.578v-3.19h1.364v-.463h-1.364V6.429q0-.05.017-.09.008-.034.033-.083.041-.066.016-.091-.05-.041-.273-.058zm-5.497.992v.487h4.207V7.1Zm1.075 1.248h-.422l.273 2.694H99.197l.15.488q.032.116.065.132.017.008.083-.033.066-.033.124-.05.09-.033.19-.033l.446-.025 1.992-.09q1.256-.075 2.042-.116l-.042-.446-1.339.074.29-2.223q.008-.05.033-.091.016-.025.058-.075.066-.074.04-.107-.024-.041-.23-.074l-.439-.042-.297 2.637-1.19.058-.207-2.372q-.008-.05.008-.1.008-.024.033-.074.033-.066.008-.09-.041-.034-.248-.042zM7.466 26.929h.553v-5.587H9.92v-.504H5.573v.504h1.893zM10.986 26.929h.505v-2.587q0-.678.372-1.083.363-.388.95-.388.628 0 .851.339.199.297.199 1.05v2.669h.504V24.25q0-.496-.025-.694-.041-.323-.157-.513-.182-.289-.52-.454-.34-.166-.753-.166-.454 0-.818.199-.355.198-.603.595v-2.38h-.505zM16.078 24.416q-.009-.678.413-1.14.372-.405.95-.405.57 0 .926.405.397.462.397 1.14zm0 .405h3.215v-.165q0-1.058-.496-1.653-.496-.579-1.34-.579-.892 0-1.396.604-.512.62-.512 1.727 0 1.083.504 1.694.504.604 1.38.604.727 0 1.215-.414.496-.405.579-1.066h-.505q-.074.471-.421.752-.339.273-.827.273-.628 0-1.008-.471-.388-.48-.388-1.306zM27.029 28.119v-5.587h-.513v.735q-.264-.405-.636-.62-.397-.223-.876-.223-.901 0-1.43.72-.471.652-.471 1.595 0 .933.47 1.586.53.728 1.43.728.48 0 .869-.223.388-.224.644-.645v1.934zm-1.943-5.248q.695 0 1.108.578.372.52.372 1.281 0 .752-.372 1.281-.413.587-1.108.587-.694 0-1.099-.587-.364-.529-.364-1.28 0-.761.364-1.282.405-.578 1.1-.578zM31.698 22.532h-.504v2.603q0 .67-.364 1.066-.355.397-.933.397-.546 0-.777-.306-.224-.289-.224-.925v-2.835h-.504v2.959q0 .76.356 1.165.363.397 1.058.397.446 0 .793-.207.355-.207.612-.628v.71h.487zM33.112 26.929h.504v-4.397h-.504zm0-5.323h.504v-.768h-.504zM38.087 25.408q-.09.554-.43.868-.347.314-.851.314-.661 0-1.05-.488-.396-.504-.396-1.38 0-.876.396-1.372.389-.48 1.042-.48.496 0 .834.282.348.289.414.777h.487q-.041-.678-.52-1.091-.48-.414-1.215-.414-.91 0-1.43.612-.53.628-.53 1.727 0 1.058.522 1.67.52.611 1.405.611.777 0 1.264-.446.48-.438.562-1.19zM39.74 26.929h.504l-.008-1.637.81-.81 1.595 2.447h.578l-1.826-2.777 1.628-1.62h-.653l-2.124 2.14v-3.834h-.504zM46.89 26.929h.503v-.744q.281.438.661.653.372.215.86.215.884 0 1.413-.728.48-.653.48-1.586 0-.943-.48-1.596-.529-.719-1.413-.719-.496 0-.893.232-.388.215-.628.628v-2.446h-.504zm1.933-4.058q.686 0 1.091.578.372.52.372 1.281 0 .752-.372 1.281-.405.587-1.09.587-.703 0-1.108-.587-.364-.529-.364-1.28 0-.761.364-1.282.405-.578 1.107-.578zM51.964 26.929h.504V24.49q0-.76.33-1.157.323-.389.926-.389h.075v-.52h-.058q-.438 0-.76.206-.34.223-.521.67v-.77h-.496zM56.542 22.424q-.95 0-1.512.72-.496.652-.496 1.595 0 .933.496 1.578.562.727 1.512.727t1.513-.727q.504-.645.504-1.578 0-.943-.504-1.596-.562-.719-1.513-.719zm0 .447q.703 0 1.116.578.38.53.38 1.281 0 .752-.38 1.273-.413.587-1.116.587-.71 0-1.115-.587-.372-.52-.372-1.273 0-.76.372-1.28.413-.58 1.115-.58zM60.609 26.929h.529l1.008-3.678.984 3.678h.545l1.389-4.397h-.513L63.42 26.21l-.967-3.678h-.57l-1.009 3.678-1.132-3.678h-.512zM65.882 26.929h.504v-2.587q0-.686.364-1.083.363-.388.975-.388.644 0 .876.322.215.281.215.992v2.744h.504v-2.802q0-.422-.025-.62-.041-.28-.149-.463-.181-.297-.52-.463-.347-.157-.802-.157-.48 0-.843.199-.364.206-.603.611v-.702h-.496zM73.981 26.929h.504v-3.984h.802v-.413h-.802v-.752q0-.298.108-.422.124-.124.413-.124l.124.008.157.025v-.463q-.066-.016-.132-.016h-.132q-.546 0-.794.215-.248.223-.248.727v.802h-.644v.413h.644zM78.296 22.424q-.95 0-1.513.72-.496.652-.496 1.595 0 .933.496 1.578.562.727 1.513.727.95 0 1.512-.727.504-.645.504-1.578 0-.943-.504-1.596-.562-.719-1.512-.719zm0 .447q.702 0 1.115.578.38.53.38 1.281 0 .752-.38 1.273-.413.587-1.115.587-.711 0-1.116-.587-.372-.52-.372-1.273 0-.76.372-1.28.413-.58 1.116-.58zM80.982 26.929h.603l1.256-1.86 1.223 1.86h.637l-1.546-2.257 1.43-2.14h-.62l-1.124 1.76-1.107-1.76h-.637l1.43 2.149zM87.734 28.086l.149.016.165.017q.463 0 .67-.24.206-.231.206-.71v-4.637h-.504v4.579q0 .297-.107.421-.108.132-.38.132l-.199-.025zm.686-6.48h.504v-.768h-.504zM93.619 22.532h-.505v2.603q0 .67-.363 1.066-.356.397-.934.397-.546 0-.777-.306-.223-.289-.223-.925v-2.835h-.504v2.959q0 .76.355 1.165.364.397 1.058.397.446 0 .793-.207.356-.207.612-.628v.71h.488zM95.007 26.929h.504v-2.72q0-.603.356-.966.363-.372.975-.372.388 0 .603.272.215.273.215.819v2.967h.504v-2.752q0-.587.347-.943.364-.363.976-.363.43 0 .628.248t.198.793v3.017h.504v-3.067q0-.719-.339-1.082-.338-.356-.975-.356-.496 0-.86.215-.363.215-.586.645-.116-.413-.422-.636-.305-.224-.727-.224-.48 0-.843.215-.364.207-.587.62v-.727h-.47zM102.768 28.119h.504v-1.934q.256.421.645.645.388.223.876.223.884 0 1.413-.728.48-.653.48-1.586 0-.943-.48-1.596-.529-.719-1.413-.719-.488 0-.885.224-.371.214-.636.62v-.736h-.504zm1.934-5.248q.686 0 1.09.578.373.52.373 1.281 0 .752-.372 1.281-.405.587-1.091.587-.703 0-1.108-.587-.363-.529-.363-1.28 0-.761.363-1.282.405-.578 1.108-.578zM107.677 25.557q.017.677.471 1.082.463.414 1.232.414.76 0 1.223-.364.455-.355.455-.9 0-.53-.323-.81-.297-.257-1.016-.43l-.199-.05q-.702-.165-.909-.281-.314-.19-.314-.595 0-.34.248-.537.273-.215.727-.215.513 0 .819.248.297.256.33.702h.52q-.049-.661-.487-1.025-.438-.372-1.173-.372-.678 0-1.1.356-.413.355-.413.917 0 .53.397.81.322.232 1.19.446h.025q.67.166.86.281.297.174.297.546 0 .364-.306.587-.322.231-.868.231-.512 0-.835-.297-.33-.29-.33-.744zM7.92 32.203q-.95 0-1.512.719-.496.653-.496 1.595 0 .934.496 1.579.562.727 1.512.727t1.513-.727q.504-.645.504-1.579 0-.942-.504-1.595-.562-.72-1.513-.72zm0 .446q.703 0 1.116.579.38.529.38 1.28 0 .753-.38 1.273-.413.587-1.116.587-.71 0-1.116-.587-.371-.52-.371-1.272 0-.76.371-1.281.414-.579 1.116-.579zM12.16 36.707h.562l1.595-4.397h-.52l-1.331 3.777-1.33-3.777h-.554ZM15.49 34.195q-.007-.678.414-1.14.372-.406.95-.406.57 0 .926.405.397.463.397 1.14zm0 .405h3.216v-.166q0-1.058-.496-1.653-.496-.578-1.339-.578-.893 0-1.397.603-.512.62-.512 1.728 0 1.082.504 1.694.504.603 1.38.603.728 0 1.215-.413.496-.405.579-1.066h-.504q-.075.47-.422.752-.339.273-.826.273-.629 0-1.009-.472-.388-.479-.388-1.305zM19.871 36.707h.504V34.27q0-.76.331-1.157.322-.389.926-.389h.074v-.52h-.058q-.438 0-.76.206-.34.224-.52.67v-.769h-.497zM26.177 31.046h-.504v1.264h-.595v.413h.595v3.207q0 .471.132.661.157.224.57.224.141 0 .29-.025t.33-.075v-.396l-.082.016q-.149.033-.223.041-.108.025-.182.025-.207 0-.273-.124-.058-.099-.058-.347v-3.207h.819v-.413h-.819zM28.053 36.707h.505V34.12q0-.677.372-1.082.363-.389.95-.389.628 0 .851.339.199.297.199 1.05v2.67h.504v-2.679q0-.496-.025-.694-.041-.322-.157-.512-.182-.29-.52-.455-.34-.165-.753-.165-.454 0-.818.198-.355.199-.603.595v-2.38h-.505ZM33.145 34.195q-.009-.678.413-1.14.372-.406.95-.406.57 0 .926.405.397.463.397 1.14zm0 .405h3.215v-.166q0-1.058-.496-1.653-.496-.578-1.34-.578-.892 0-1.396.603-.512.62-.512 1.728 0 1.082.504 1.694.504.603 1.38.603.727 0 1.215-.413.496-.405.579-1.066h-.505q-.074.47-.421.752-.339.273-.827.273-.628 0-1.008-.472-.388-.479-.388-1.305zM40.376 36.707h.505v-6.091h-.505zM45.203 36.079v.066q0 .298.157.455.157.157.471.157.066 0 .14-.008.108-.017.224-.033v-.38h-.182q-.215 0-.281-.1-.041-.066-.041-.297v-2.397q0-.661-.414-1-.405-.33-1.19-.33-.801 0-1.273.388-.462.38-.47 1.033h.504q.016-.488.33-.736.314-.24.91-.24.586 0 .842.232.248.215.248.727 0 .306-.223.43-.165.1-.545.132l-.232.017q-.48.033-.71.074-.372.058-.637.19-.355.149-.529.43-.182.281-.182.67 0 .57.389.917.396.355 1.066.355.463 0 .868-.19.405-.19.76-.562zm-.025-1.678v.62q0 .62-.43.992-.421.364-1.107.364-.463 0-.736-.232-.264-.231-.264-.603 0-.356.248-.587.273-.256.769-.314l.512-.066q.388-.033.554-.066.272-.042.454-.108zM46.782 36.699h3.587v-.413h-2.934l2.801-3.521v-.455h-3.314v.413h2.703l-2.843 3.563zM52.658 37.038l1.893-4.728h-.546l-1.347 3.414-1.347-3.414h-.546l1.62 4.067-.157.405q-.149.347-.29.479-.173.182-.47.182l-.165-.025-.19-.025v.463q.099.016.181.025.091.016.182.016.438 0 .72-.215.264-.198.462-.644zM61.948 30.616h-.504v2.405q-.257-.372-.645-.612-.38-.206-.868-.206-.9 0-1.43.719-.47.653-.47 1.595 0 .934.47 1.587.53.727 1.43.727.48 0 .893-.248.396-.231.62-.628v.752h.504zm-1.934 2.033q.694 0 1.107.579.372.52.372 1.28 0 .753-.372 1.282-.413.587-1.107.587-.695 0-1.1-.587-.363-.53-.363-1.281 0-.76.363-1.281.405-.579 1.1-.579zM65.187 32.203q-.95 0-1.512.719-.496.653-.496 1.595 0 .934.496 1.579.562.727 1.512.727.951 0 1.513-.727.504-.645.504-1.579 0-.942-.504-1.595-.562-.72-1.513-.72zm0 .446q.703 0 1.116.579.38.529.38 1.28 0 .753-.38 1.273-.413.587-1.116.587-.71 0-1.115-.587-.372-.52-.372-1.272 0-.76.372-1.281.413-.579 1.115-.579zM72.072 32.31h-.512v.76q-.256-.43-.653-.652-.389-.215-.876-.215-.827 0-1.347.686-.472.62-.472 1.52 0 .885.472 1.505.52.686 1.347.686.496 0 .884-.223.389-.224.645-.645v.537q0 .504-.389.827-.421.347-1.157.347-.48 0-.785-.223-.314-.215-.347-.612h-.53q.042.587.505.934.471.355 1.165.355.976 0 1.521-.47.53-.439.53-1.174zm-1.934.34q.694 0 1.1.545.371.487.371 1.206 0 .711-.372 1.199-.405.545-1.099.545-.628 0-1.033-.545-.364-.488-.364-1.199 0-.719.364-1.206.405-.546 1.033-.546zM5.895 47.737q0 1.488.496 2.273.504.777 1.447.777.934 0 1.43-.777.512-.785.512-2.264 0-1.488-.513-2.273-.495-.777-1.43-.777-.942 0-1.446.769-.496.785-.496 2.272zm.579 0q0-1.297.33-1.917.331-.62 1.034-.62.686 0 1.024.62.34.62.34 1.917 0 1.29-.34 1.918-.338.628-1.024.628-.703 0-1.034-.628-.33-.628-.33-1.918ZM12.565 50.614h.554v-5.918h-.488q-.041.612-.405.893-.363.28-1.09.28h-.042v.364h.09q.497 0 .836-.082.338-.083.545-.248zM15.739 50.614h3.818v-.471h-3.264q.033-.439.347-.794.297-.339.925-.694l.414-.24q.454-.256.636-.38.322-.215.504-.413.24-.265.356-.554.115-.29.115-.653 0-.793-.487-1.256-.48-.463-1.298-.463-.9 0-1.405.512-.496.505-.52 1.455h.561q0-.72.347-1.091.34-.372.992-.372.587 0 .918.314.338.322.338.91 0 .28-.09.495-.083.207-.273.43-.14.14-.389.306-.148.099-.512.314l-.587.355q-.752.463-1.09.942-.356.513-.356 1.174zM20.681 48.928v.008q0 .86.513 1.355.504.496 1.405.496.876 0 1.396-.48.513-.479.513-1.289 0-.578-.265-.967-.256-.38-.735-.52.396-.207.603-.53.215-.338.215-.768 0-.703-.455-1.116-.454-.421-1.223-.421-.81 0-1.28.463-.472.47-.505 1.305h.529q.016-.636.339-.975.322-.339.909-.339.512 0 .835.298.314.297.314.785 0 .554-.356.843-.355.29-1.024.29l-.215-.009v.43l.256-.008q.752 0 1.116.298.372.297.372.925 0 .628-.356.975-.355.356-1.008.356-.62 0-.967-.372t-.347-1.033zM28.177 50.614h.554V49.15h.785v-.447h-.785V44.87h-.595l-2.504 3.834v.447h2.545zm0-1.91h-2.041l2.041-3.132zM30.64 49.093q.033.777.538 1.231.504.463 1.338.463.877 0 1.397-.537.53-.529.53-1.438 0-.893-.505-1.43-.504-.529-1.347-.529-.397 0-.703.1-.297.098-.504.289l.281-1.918h2.496v-.454h-2.893l-.446 3.024h.463q.182-.289.488-.438.314-.148.727-.148.628 0 .992.405.372.405.372 1.124 0 .694-.356 1.09-.355.406-.975.406-.603 0-.967-.34-.355-.338-.38-.9zM36.095 47.779q.017-1.298.413-1.967.397-.661 1.133-.661.47 0 .777.272.297.281.372.785h.52q-.066-.702-.512-1.107-.438-.405-1.124-.405-1.05 0-1.604.843-.553.86-.553 2.496 0 1.347.52 2.05.521.71 1.505.71.843 0 1.33-.529.496-.528.496-1.413 0-.917-.488-1.446-.479-.52-1.289-.52-.529 0-.909.222-.388.232-.587.67zm.108 1.016q0-.636.372-1.05.371-.413.942-.413.603 0 .934.397.347.397.347 1.149 0 .702-.33 1.083-.34.38-.968.38-.595 0-.95-.422-.347-.421-.347-1.124zM41.385 50.614h.595q.223-1.505.801-2.794.57-1.306 1.521-2.438v-.512h-3.686v.504h3.116q-.934 1.132-1.52 2.454-.588 1.306-.827 2.786zM46.418 47.481q-.488.19-.76.587-.265.405-.265.934 0 .81.504 1.29.521.495 1.414.495.884 0 1.396-.496.513-.48.513-1.29 0-.528-.273-.933-.273-.397-.752-.587.405-.223.603-.529.199-.306.199-.727 0-.694-.455-1.108-.455-.421-1.231-.421-.786 0-1.248.421-.447.414-.447 1.108 0 .421.19.727.199.306.612.53zm-.223-1.24q0-.512.29-.801.297-.29.826-.29.52 0 .818.29.297.29.297.801 0 .48-.289.753-.297.289-.826.289-.538 0-.835-.29-.281-.272-.281-.752zm-.223 2.777q0-.62.347-.95.347-.33.992-.33.62 0 .975.33.363.33.363.9 0 .612-.371.984-.372.38-.967.38t-.967-.371q-.372-.372-.372-.943zM50.906 49.291h-.52q.065.703.495 1.1.43.396 1.132.396 1.042 0 1.595-.851.562-.851.562-2.488 0-1.347-.529-2.05-.52-.702-1.495-.702-.843 0-1.34.52-.487.53-.487 1.422 0 .91.48 1.447.479.529 1.297.529.52 0 .91-.232.38-.231.594-.67-.033 1.298-.421 1.96-.389.66-1.124.66-.496 0-.786-.272-.297-.265-.363-.769zm-.008-2.678q0-.719.322-1.09.33-.372.967-.372.587 0 .942.413.355.421.355 1.132 0 .628-.372 1.041-.371.422-.942.422-.611 0-.942-.405-.33-.397-.33-1.14z"/></svg>