<svg xmlns="http://www.w3.org/2000/svg" width="500" height="220" viewBox="0 0 132.29166 58.208335"><path d="m6.66 8.146.025 2.723q0 .248.15.463.14.207.264.207.728-.025 2.086-.463 1.266-.406 2.052-.828v3.286q.008.323.108.372.09.042.198-.157.124-.273.158-.654.04-.389.05-1.432v-1.522l1.48-.025q.133-.008.207-.075.067-.058.058-.14-.008-.083-.099-.15-.1-.066-.256-.066-.274-.016-.414.017-.091.025-.19.083-.083.05-.141.074-.108.042-.273.058h-.356V6.623l.008-.165q.017-.1 0-.14-.025-.067-.124-.1-.315-.116-.546-.166-.29-.066-.596-.074-.29.016-.29.1 0 .074.199.14.38.157.57.265.224.124.25.223v3.36q-.655.331-1.772.613-.894.231-1.87.38-.224.017-.298-.016-.091-.05-.091-.232-.017-.174-.009-1.308.009-.844.025-1.506 0-.074.025-.1.017-.007.074-.007h.083q.364 0 1.076-.025.439-.025 1.366-.066.265-.033.248-.224-.017-.19-.315-.198-.364-.033-.562.008-.116.033-.249.116-.082.05-.14.074-.091.033-.207.05-.215.025-.588.041-.33.017-.712.017-.223-.066-.537-.116-.365-.05-.68-.05-.247.05-.264.116-.025.066.108.074l.09.034q.323.115.423.182.157.09.198.223zM16.708 11.63l.008.067q.025.206.05.57.008.208.033.63l.05.653q0 .464.173.39.174-.067.257-.505l1.175-.034 1.564-.024q.331 0 .306-.133-.016-.132-.405-.165l.322-1.531q.009-.05.034-.1.024-.025.066-.083.09-.115.058-.157-.05-.074-.398-.09-.198-.017-.273-.009-.05.008-.099.025-.033.017-.058.025-.05.008-.108.025-.355.016-1.108.041-.803.017-1.076.017-.224-.058-.489-.083-.231-.033-.438-.033-.282.05-.282.107 0 .05.158.091.157.05.306.133.165.099.174.173zm.52-.041q0-.05.017-.066.009-.017.042-.033l.041-.025 2.367-.091q0 .248-.016.844l-.042.86-.215.05q-.083.017-.14.034-.1.016-.224.033l-1.78.033zm-1.936-2.516.033 1.001q.009.24.116.423.108.198.273.198.836-.074 2.053-.405 1.316-.356 1.97-.745v.77q0 .248.033.355.033.091.107.075.124-.042.249-.364.115-.323.124-.638l.008-.562 1.357-.008q.141-.008.215-.083.075-.066.075-.157-.008-.1-.1-.158-.099-.074-.256-.074-.306-.017-.463.025-.091.024-.199.1-.058.04-.108.057-.074.033-.173.05h-.058q-.108.008-.158.008h-.132V6.69l.017-.125q.024-.09.016-.132-.016-.066-.107-.116-.116-.066-.365-.14-.256-.075-.72-.174-.298.016-.322.082-.017.067.182.141l.182.1q.281.148.389.231.182.14.198.257l.009 2.582q-.712.347-1.87.596-.994.215-1.747.256-.174.008-.232-.041-.058-.05-.058-.174v-.968q.009-.083.025-.108.017-.017.066-.025l.1-.033 1.001-.05.919-.033q.223-.033.19-.149-.033-.124-.348-.182.017-.223.108-.57.075-.315.157-.547.009-.041.033-.09l.05-.075q.083-.116.05-.15-.033-.057-.298-.066-.265-.008-.373 0-.074.008-.149.042l-.082.025q-.05.016-.125.033-.868.041-1.25.041-.487.008-.967-.05-.174-.04-.2 0-.032.042.1.141.447.224.613.257.115.033.223-.017.05-.024.083-.033.058-.016.124-.024.257-.034.546-.058l.538-.05.555-.041q0 .297-.025.595-.008.166-.042.497l-.008.182-.041.008q-.091.033-.158.041-.099.025-.28.05l-.564.025q-.132.008-.438.008l-.058.008q-.116-.041-.356-.066-.265-.033-.563-.042-.248.033-.281.116-.033.075.14.1.224.057.315.107.108.075.132.19zM26.275 7.31h.182q-.555.77-1.697 1.515-.894.58-1.738.91-.182.075-.157.108.025.041.256-.017.795-.273 1.341-.53.571-.273 1.167-.662.513.158 1.126.332.596.173 1.042.28.1.026.183-.007.066-.033.082-.1.017-.082-.041-.157-.075-.082-.224-.14-.364-.158-.57-.19-.125-.017-.274 0l-.149.016q-.347-.017-.587-.066-.257-.05-.315-.125l.199-.173q.314-.265.496-.439.307-.281.563-.604.174-.116.166-.182-.009-.075-.356-.083-.182-.008-.282.008-.05.008-.099.025l-.107.041q-.803.091-1.63.108-.837.024-1.217-.042-.298-.066-.323.017-.017.066.232.182.43.199.587.232.108.016.215-.033.042-.025.075-.034.058-.024.116-.033.405-.058.927-.107.405-.033.81-.05zm2.276-.562v3.293q-.936.307-4.254.704-.455.09-1.2-.083-.232-.033-.257.025-.033.058.15.182.736.34.95.389.158.041.299-.033.05-.042.09-.058.059-.033.15-.05l.894-.165.008 2.052q.008.373.116.38.116.009.248-.338.1-.34.14-.902.026-.34.026-1.085v-.182q.686-.149 1.506-.356.645-.173 1.125-.314l.009 3.062q.024.389.058.505.033.108.124.108.132-.034.223-.563.091-.464.091-1.026l.025-5.653.008-.091q.009-.091 0-.132-.024-.067-.132-.116-.116-.075-.38-.141-.274-.074-.754-.157-.281.016-.265.09.009.067.199.125.323.14.513.248.265.157.29.282zM36.082 7.137l1.05.024q.415-.024.423-.198 0-.182-.38-.19-.588-.025-.944-.058-.207-.017-.464-.05l-.116-.017q-.256-.066-.28-.008-.017.033.098.141.174.14.34.24.165.1.273.116zm.43 1.638q.488 0 .786.29.257.265.257.654t-.257.653q-.298.298-.786.298-.521 0-.827-.298-.274-.264-.274-.653 0-.39.274-.654.306-.29.827-.29zm.91-.952h-.066q-1.059.067-1.713.067-.629-.008-1.192-.083-.264-.05-.28.016-.017.058.181.174.397.199.53.232.1.025.223-.017l.182-.05q.298-.04.58-.057.248-.008.48-.008.107.107.116.223 0 .124-.141.207-.753.091-1.126.505-.347.364-.281.844.058.472.472.795.447.356 1.133.356.646 0 1.068-.356.38-.315.43-.787.05-.471-.273-.844-.356-.405-1.034-.496l.05-.075q.066-.083.074-.149 0-.09-.124-.24.223-.024.604-.041l.761-.025.381-.008q.166 0 .265-.066.09-.066.083-.149-.009-.083-.116-.149-.124-.066-.323-.066-.273 0-.414.033-.083.025-.182.083-.074.041-.132.066-.091.033-.215.066zm2.45-.951V9.33h-.05l-.628.024q-.406.008-.753.008-.232-.024-.249.034-.016.05.166.165.298.14.405.157.083.017.182-.033.058-.025.108-.041.074-.025.174-.033l.645-.033v2.044q0 .405.058.563.058.165.182.033.15-.199.199-.621.041-.257.05-.894l.008-.182V6.74l.016-.132q.033-.133 0-.19-.05-.084-.256-.158-.224-.083-.406-.14-.265-.075-.463-.092-.348.025-.306.108.024.058.231.149.323.157.464.265.215.157.223.322zM36.76 12.16l.009.86q.025.307.256.448.216.124.654.124h3.294q.108 0 .174-.075.058-.066.033-.149-.017-.099-.124-.157-.116-.074-.298-.083-.39-.016-.58.017-.115.025-.24.09-.09.05-.165.067-.116.041-.298.058l-1.763.016q-.223-.016-.314-.082-.083-.058-.083-.199l-.008-1.084.008-.124q.017-.116-.008-.157-.033-.067-.166-.1-.157-.025-.372-.041-.273-.017-.538-.017-.257.042-.265.116-.008.058.165.108.34.09.472.165.15.083.157.199zM48.272 8.088h.174q-.496.795-1.208 1.415-.629.563-1.399.96-.19.1-.165.133.025.033.248-.042.604-.231 1.167-.57.555-.348.968-.737l.844 1.125q.116.133.249.033.116-.115.041-.372-.124-.298-.265-.439-.082-.074-.256-.157-.133-.066-.215-.116-.133-.082-.249-.207l.158-.19q.248-.29.347-.414.157-.182.298-.38l.083-.083q.107-.108.116-.157 0-.075-.215-.091-.274-.008-.381 0-.058 0-.116.024l-.132.042q-.323.041-1.043.041-.745 0-1.035-.05-.207-.04-.24 0-.041.042.133.174.397.182.538.224.099.025.182-.025.041-.025.066-.033.041-.017.107-.017.207-.033.522-.05.323-.024.678-.04zm-.711-.869.306.025h.836q.083 0 .132-.05.058-.05.058-.124 0-.066-.066-.116-.091-.058-.24-.074-.414-.008-.786-.05-.381-.05-.621-.116-.207-.05-.248-.008-.033.033.09.15l.05.04q.2.19.274.249.09.058.215.074zm3.865-.488v4.246q0 .24.116.24.124-.008.215-.224.107-.265.165-.728.05-.488.05-1.482V6.714l.008-.19q.017-.124 0-.174-.041-.066-.198-.124-.398-.124-.588-.165-.223-.058-.455-.083-.273.008-.248.074.016.05.206.141.29.124.497.273.215.157.232.265zm-1.382.364v1.788l-.232.008q-.265.016-.422.016-.273 0-.538-.025-.199-.025-.199.042.008.058.199.157.323.182.438.207.091.016.166-.033.041-.033.074-.05.058-.016.141-.025l.373-.05v1.217q0 .298.107.29.116-.008.224-.29.066-.207.115-.521.058-.39.058-.96V6.962q.009-.033.017-.099.025-.149-.008-.19-.033-.067-.224-.108l-.215-.066q-.19-.05-.306-.075-.182-.041-.364-.041-.24.016-.232.083.016.058.232.14.264.108.405.232.166.124.19.257zm-.356 4.171q-.522.853-1.233 1.506-.654.621-1.366.985-.182.083-.174.133.017.066.232-.008.828-.273 1.523-.786.678-.497 1.266-1.258.29.24.844.736.306.273.877.778l.315.281q.215.183.314.067.1-.133-.05-.373-.347-.447-.562-.629-.14-.099-.331-.165-.091-.042-.14-.058-.075-.033-.141-.075-.19-.116-.447-.314-.282-.215-.555-.464l.182-.29q.166-.24.166-.314.008-.074-.15-.157-.132-.1-.397-.207-.314-.132-.455-.116-.248.017-.256.066-.009.05.149.116.24.15.339.257.124.157.05.29zM54.67 8.22l.008.059q0 .504.017 1.73.025 1.125.033 1.315.016.43.174.34.157-.092.273-.53l2.152-.042q0 .422.132.422.124-.008.24-.29.074-.19.108-.95.024-.448.033-1.573l.016-.87.008-.107q.025-.083.008-.116-.008-.058-.09-.1-.1-.049-.307-.09-.232-.05-.613-.091-.273 0-.29.066-.024.074.24.157.257.108.382.199.107.083.124.174v.894l-2.127.05V8.021q.033-.149-.075-.207-.182-.107-.844-.149-.323-.008-.38.075-.067.09.223.165.248.1.372.166.166.09.182.149zm.521.894v-.008l2.127-.04v1.795l-2.127.033zm4.08-2.309v6.729q0 .405.133.389.116-.017.24-.29.058-.232.1-.496.04-.265.049-.514l.008-2.457 1.448-.025q.116-.017.199-.075.074-.066.074-.149 0-.083-.09-.14-.1-.067-.274-.075-.356-.025-.53.008-.107.025-.207.091-.066.05-.107.066-.075.033-.174.058l-.331.008-.008-3.244.017-.14q.016-.125-.017-.175-.05-.082-.265-.157l-.116-.041q-.248-.091-.389-.133-.231-.066-.389-.074-.29 0-.322.066-.025.066.207.166.372.19.554.339.182.14.19.265zM66.083 7.178l-.042.008q-.968.074-1.614.066-.596 0-1.059-.074-.215-.034-.232.016-.016.05.133.15.48.24.654.28.115.025.248-.033l.083-.041q.05-.025.115-.033.39-.033 1.027-.066.579-.033 1.067-.05-.033.397-.058.637-.024.199-.057.364-.572.224-2.326.39-.248.024-.96-.026-.207-.041-.232.017-.025.058.133.149.538.29.728.34.124.032.232-.034l.074-.05q.05-.025.116-.033.654-.132 1.175-.256.62-.158 1.06-.323-.083.472-.2.935-.115.464-.181.62-1.175.183-1.887.233-.902.066-1.506-.034-.232-.05-.249.008-.024.058.133.19.662.332.918.39.166.033.298-.05.042-.025.067-.033.041-.025.099-.033l1.175-.174v2.293q.017.306.124.322.108.017.232-.24.09-.207.116-.802.016-.365.016-1.2v-.464q.53-.116 1.3-.306.852-.207 1.324-.348v3.691q0 .39.132.381.124-.008.232-.273.074-.298.108-.836.024-.455.024-1.15V6.639l.008-.149q.025-.1 0-.132-.033-.066-.182-.133-.19-.083-.405-.14-.282-.075-.555-.1-.298.017-.298.091 0 .067.207.141.282.116.488.24.232.14.24.215v3.046q-.537.14-1.017.231-.423.083-.82.133.182-.497.397-1.217.216-.72.356-1.307.008-.042.033-.091.017-.033.05-.083.091-.149.058-.199-.05-.082-.372-.082-.249-.017-.356-.008-.075.008-.15.033-.049.016-.082.024-.058.008-.14.025zM72.488 8.005l-.099.034q-.72.107-1.084.579-.298.356-.298.786 0 .596.496 1.093.456.405 1.16.405.678-.016 1.067-.356.347-.314.471-.877l.96-.033v2.822q0 .472.091.554.083.067.224-.14.09-.166.132-.546.042-.356.05-.985l.008-4.213.017-.149q.016-.083-.008-.116-.025-.05-.174-.115-.158-.058-.398-.108-.256-.066-.471-.083-.282.017-.273.083.008.066.198.14.224.108.373.2.215.14.231.24v2.16l-.951.024q-.042-.521-.315-.852-.306-.373-.927-.505 0-.033.008-.066l.025-.05q.058-.116.025-.174-.058-.1-.331-.199-.207-.033-.24.008-.025.042.083.141.09.1.058.19-.025.083-.108.108zm.166.365q.521 0 .836.339.281.306.281.753 0 .439-.281.745-.315.347-.836.347-.546 0-.87-.347-.289-.306-.289-.745 0-.447.29-.753.323-.34.869-.34zM76.6 6.748v6.778q0 .364.116.38.116.025.249-.281.066-.24.099-.637.033-.373.033-.985l.008-5.363.017-.149q.024-.132-.008-.174-.05-.074-.265-.14-.124-.042-.356-.1-.282-.074-.497-.116-.298 0-.323.075-.024.066.207.157.331.166.514.298.19.14.206.257zM82.891 8.047v3.294q.017.265.124.447.166.273.489.215 1.018-.174 2.25-.588 1.027-.347 1.788-.712v2.847q0 .315.091.348.083.033.207-.166.141-.322.182-.869.025-.388.025-1.307v-1.3l.737-.024.662-.017q.124-.008.199-.074.074-.066.066-.15-.008-.09-.108-.148-.107-.058-.281-.058-.306-.017-.464.025-.09.025-.182.09-.05.034-.083.05-.05.025-.115.05-.108 0-.216.008h-.215l.008-3.302q0-.058.008-.116 0-.033.017-.09.016-.1 0-.141-.033-.067-.174-.125l-.091-.033q-.257-.09-.406-.124-.264-.074-.562-.107-.29.008-.298.082-.008.067.248.166.34.165.521.281.207.133.224.207v3.815q-.803.365-1.846.638-1.117.29-2.052.339-.157 0-.207-.033-.033-.042-.033-.157V9.694l2.474-.066q.108 0 .174-.075.066-.066.05-.149-.017-.09-.124-.149-.133-.066-.348-.066-.265 0-.414.033-.09.025-.198.091-.091.058-.15.075-.099.041-.248.057l-.761.017-.447.017V7.997q0-.074.008-.09.017-.017.05-.034l.083-.025q.686-.041 1.373-.066.762-.025 1.018-.025.133-.008.215-.074.083-.058.083-.141 0-.091-.09-.157-.1-.066-.274-.083-.306-.017-.463.025-.1.016-.207.09-.083.05-.14.075-.108.042-.25.067l-.372.016q-.38.017-.554.017-.281.016-.513.016-.24-.074-.472-.107-.298-.05-.596-.05-.256.025-.256.108 0 .082.207.124.314.107.455.19.165.091.173.174zM93.642 9.95v2.144q-.695.008-1.44.008-.679-.05-1.374-.116-.348-.066-.265.083.05.116.315.215.546.248.794.281.133.017.265-.033.083-.033.166-.083.082-.016.231-.033 1.167-.082 2.665-.124 1.622-.05 2.682.058.149.008.256-.05.091-.066.091-.149-.008-.099-.124-.173-.14-.091-.397-.125-.364-.05-.555-.033-.116.008-.273.075-.1.033-.174.05-.115.033-.264.05-.762.04-1.2.057-.588.033-.927.033l.074-2.135q0-.05.008-.1 0-.024.017-.082.024-.091.016-.124-.016-.058-.1-.091-.09-.042-.305-.083-.216-.033-.613-.075-.256.008-.273.075-.008.066.116.1l.1.04q.248.108.33.158.141.083.158.182zm2.4-2.516-.232.017q-1.25.074-2.26.074-.901.008-1.812-.041-.347-.033-.256.075.083.09.472.248.339.132.455.157.09.008.223-.033.091-.041.158-.058.115-.033.273-.05.422-.05 1.473-.099.587-.025 1.614-.05h.057q-.016.853-.173 1.945-.133.927-.282 1.498-.099.273.008.248.108-.016.29-.347.174-.315.364-1.134.124-.505.38-1.845l.05-.232.067-.091q.116-.14.107-.199-.016-.09-.281-.132-.224-.025-.331-.017-.066 0-.14.025-.05.016-.084.025-.058.016-.14.016zM104.467 6.764v3.832q-.571.157-1.06.256-.397.083-.72.133l.365-1.159.265-.81.041-.158q.041-.116.033-.166-.016-.082-.132-.132-.166-.091-.381-.166-.165-.057-.356-.107-.265-.025-.314.041-.05.058.14.15.158.082.273.206.125.14.15.281-.034.414-.15 1.068-.09.546-.19.993-.935.166-1.58.207-.787.05-1.515-.058-.19-.033-.224.025-.033.058.133.157.753.348 1.01.414.173.042.273-.033.041-.033.058-.041.04-.025.09-.033 1.002-.174 1.945-.39 1.06-.248 1.846-.513v2.864q0 .281.1.323.09.033.214-.166.125-.232.174-.72.042-.356.042-.968v-1.895l1.34-.033q.166 0 .265-.075.091-.066.091-.165 0-.091-.1-.166-.098-.074-.272-.074-.306-.017-.43.008-.083.024-.158.082-.05.05-.1.075-.082.041-.214.074H104.997V6.656l.016-.132q.017-.091 0-.133-.033-.066-.157-.132-.265-.091-.513-.166-.315-.09-.538-.124-.315.008-.331.091-.025.067.182.141.33.14.563.29.24.165.248.273zm-1.986.82-.273.033h-.008q-.696.04-1.134.04-.786 0-1.316-.09-.207-.05-.232.008-.025.05.15.182.421.232.579.265.107.033.24-.025.057-.025.099-.041.074-.025.157-.033.596-.058 1.3-.083.72-.033 1.473-.033.215 0 .339-.075.116-.058.124-.149 0-.09-.108-.157-.115-.066-.314-.075-.364-.008-.538.025-.1.025-.182.091-.058.05-.116.066-.083.033-.24.05zm-1.134 2.764.025-.24q.033-.331-.19-.696-.166-.264-.638-.778-.174-.182-.232-.14-.05.041.083.256.265.505.38.96.067.257.084.588l.025.174q.04.34.206.322.174-.016.257-.446zM7.223 27.008h2.442v-.215q-.53 0-.72-.075-.24-.1-.24-.389v-4.75q0-.265.206-.373.2-.107.654-.107.654 0 1.06.339.256.215.604.811l.09.14.142-.049-.497-1.457H5.94l-.496 1.4.124.057q.364-.596.679-.844.488-.397 1.224-.397.398 0 .555.107.157.1.157.373v4.75q0 .282-.29.39-.198.074-.67.074zM11.94 26.991h1.664v-.215q-.323 0-.455-.1-.133-.107-.133-.347v-2.425q.282-.298.555-.447.34-.173.753-.173.455 0 .654.215.182.198.182.612v2.218q0 .24-.133.34-.124.107-.446.107v.215h1.655v-.215q-.298 0-.439-.107-.132-.108-.132-.34v-2.367q0-.562-.306-.836-.282-.248-.812-.248-.463 0-.893.248-.257.141-.638.489v-2.798l-1.075.422.04.133q.29 0 .406.083.125.099.125.364v4.51q0 .24-.133.348-.132.1-.438.1zM20.697 26.015q-.323.405-.704.604-.389.207-.885.207-.679 0-1.085-.439-.463-.505-.463-1.53h3.211q0-.936-.496-1.466-.489-.513-1.325-.513-.869 0-1.415.613-.521.595-.521 1.497 0 .96.538 1.556.546.588 1.44.588.662 0 1.134-.298.38-.24.695-.712zm-.48-1.399H17.56q.033-.654.439-1.1.397-.431.943-.431.58 0 .902.364.331.38.373 1.167zM27.135 28.183h1.647v-.215q-.339 0-.447-.066-.124-.083-.124-.323v-4.66l-.099-.024-.348.504q-.223-.273-.521-.397-.306-.124-.753-.124-.877 0-1.35.63-.421.562-.421 1.43 0 .862.422 1.416.472.637 1.349.637.414 0 .712-.116.298-.115.504-.347v1.05q0 .233-.173.324-.124.066-.398.066zm.571-4.519v2.541q-.165.224-.364.34-.273.157-.67.157-.695 0-1.068-.547-.322-.471-.322-1.216 0-.753.322-1.225.373-.546 1.068-.546.397 0 .662.149.207.116.372.347zM29.395 23.193l.033.132q.298 0 .414.083.116.09.116.314v2.367q0 .497.297.77.298.273.828.273.439 0 .894-.248.33-.174.596-.422v.57q.323-.032.521-.049.224-.017.555-.033v-.182q-.298 0-.439-.14-.132-.133-.132-.406v-3.344l-1.068.315.033.132q.298 0 .422.083.108.083.108.29v2.54q-.29.24-.546.364-.356.174-.77.174-.447 0-.62-.157-.175-.157-.175-.53v-3.21zM35.105 20.743q-.223 0-.34.132-.107.116-.107.298 0 .166.108.282.116.132.34.132.206 0 .33-.132.116-.116.116-.282 0-.182-.116-.298-.124-.132-.33-.132zm-.827 6.248v-.215q.306 0 .43-.083.132-.082.132-.33v-2.591q0-.19-.107-.281-.133-.1-.464-.1l-.024-.124 1.1-.389v3.484q0 .249.116.331.116.083.455.083v.215zM40.394 26.056l-.124-.066q-.381.447-.72.629-.298.165-.696.165-.695 0-1.084-.513-.372-.488-.372-1.307 0-.861.38-1.382.365-.48.894-.48.34 0 .538.132.157.108.298.372l.058.133q.066.165.116.223.091.108.256.108.216 0 .298-.182.083-.174-.033-.406-.116-.24-.48-.414-.389-.19-.836-.19-.835 0-1.431.612-.621.646-.621 1.64 0 .818.546 1.406.546.596 1.316.596.58 0 1.026-.331.331-.248.67-.745zM41.18 26.991h1.639v-.215q-.307 0-.44-.116-.14-.107-.14-.38v-.82l.786-.67 1.126 1.564q.149.215 0 .323-.124.1-.463.1v.214h1.886v-.215q-.28 0-.471-.1-.182-.09-.331-.28l-1.142-1.573-.265-.34 1.076-.926q.182-.166.38-.306.207-.1.48-.1v-.215h-1.688v.215q.372 0 .505.108.14.116-.066.323l-1.813 1.555v-4.32l-1.06.398.042.115q.265 0 .381.075.14.09.14.323v4.551q0 .265-.14.381-.132.116-.422.116zM49.953 20.817l-1.076.398.033.132q.281 0 .405.083t.124.306v5.38h.125l.347-.489q.199.224.447.348.323.157.795.157.869 0 1.357-.662.43-.58.43-1.457 0-.885-.43-1.473-.488-.662-1.357-.662-.44 0-.762.133-.24.107-.438.306zm0 5.537V23.64q.173-.224.347-.323.273-.15.679-.15.695 0 1.067.572.331.505.331 1.274 0 .762-.33 1.258-.373.571-1.068.571-.414 0-.679-.157-.182-.108-.347-.331zM53.726 26.991h1.64v-.215q-.332 0-.448-.1-.116-.098-.116-.347v-2.176q.406-.348.596-.489.232-.165.439-.264.124-.067.223-.034.058.008.15.091.082.058.132.083.09.05.198.05.174 0 .306-.124.133-.124.133-.265 0-.157-.133-.281-.132-.125-.306-.125-.347 0-.819.307-.281.182-.803.637l-.116.107v-1.042l-1.076.405.05.133q.315 0 .422.082.1.075.1.307v2.598q0 .24-.158.348-.14.1-.414.1zM59.61 22.878q-.943 0-1.464.654-.464.588-.464 1.481 0 .878.464 1.465.521.654 1.465.654.935 0 1.465-.654.471-.587.471-1.465 0-.893-.471-1.481-.53-.654-1.465-.654zm0 .207q.671 0 1.043.588.332.53.332 1.34 0 .795-.332 1.316-.372.596-1.042.596-.679 0-1.051-.596-.323-.521-.323-1.316 0-.81.323-1.34.372-.588 1.05-.588zM62.441 22.936v.215q.282 0 .406.066.116.058.198.24l1.043 2.69.364.985h.14l1.044-2.83.711 1.87.373.96h.14l1.267-3.675q.05-.149.198-.223.166-.083.472-.083v-.215h-1.432v.215q.34 0 .48.083.116.074.075.223l-.96 2.814-1.076-2.814q-.058-.182.05-.248.116-.058.496-.058v-.215h-1.68v.215q.282 0 .406.058.09.083.165.273l.174.497-.82 2.3-1.067-2.822q-.074-.173.05-.24.116-.066.447-.066v-.215zM69.26 26.991h1.64v-.215q-.307 0-.44-.116-.132-.107-.132-.38v-2.392q.356-.315.646-.455.356-.174.753-.174t.57.223q.158.19.158.588v2.21q0 .273-.132.38-.133.116-.439.116v.215h1.639v-.215q-.306 0-.43-.116-.133-.107-.133-.38v-2.185q0-.571-.281-.886-.282-.314-.795-.314-.447 0-.869.231-.248.133-.645.464l-.042.041v-.753l-1.067.331.024.133q.323 0 .43.09.108.092.108.365v2.483q0 .273-.124.38-.124.116-.438.116zM77.024 26.991h2.102v-.215q-.538 0-.712-.1-.174-.107-.174-.421v-2.988h.977v-.232h-.977v-.802q0-.505.083-.745.091-.215.265-.215.09 0 .182.033.05.025.14.082.1.067.158.091.09.042.215.042.132 0 .248-.1.116-.099.116-.206 0-.232-.165-.34-.141-.09-.398-.09-.587 0-.985.537-.364.505-.364 1.142v.571h-.72v.232h.72v2.988q0 .314-.157.422-.14.1-.554.1zM82.155 22.878q-.944 0-1.465.654-.464.588-.464 1.481 0 .878.464 1.465.521.654 1.465.654.935 0 1.465-.654.471-.587.471-1.465 0-.893-.471-1.481-.53-.654-1.465-.654zm0 .207q.67 0 1.043.588.33.53.33 1.34 0 .795-.33 1.316-.373.596-1.043.596-.679 0-1.051-.596-.323-.521-.323-1.316 0-.81.323-1.34.372-.588 1.05-.588zM86.822 22.936H85.11v.215q.249 0 .422.083.158.083.315.273l1.2 1.465-1.068 1.283q-.281.33-.513.43-.182.091-.496.091v.215h1.597v-.215q-.397 0-.472-.09-.083-.092.083-.34l1.001-1.192 1.093 1.34q.132.133 0 .216-.075.066-.455.066v.215h1.77v-.215q-.28 0-.438-.066-.165-.058-.265-.215l-1.398-1.722 1.05-1.282q.133-.182.34-.257.215-.083.563-.083v-.215h-1.556v.215q.347 0 .438.066.083.067-.033.232l-.943 1.134-.927-1.15q-.14-.166-.05-.224.083-.058.455-.058zM92.988 23.267l1.217-.389v3.89q0 .82-.348 1.134-.182.248-.778.281-.215-.016-.38-.165-.067-.183-.083-.381.033-.182.05-.265.132-.116.231-.132.166 0 .281.016.182.1.199.315-.033.132-.05.264 0 .067.1.083.132-.05.173-.182.1-.165.1-.521v-3.377q0-.248-.133-.34-.14-.082-.53-.082zm.919-2.524q-.207 0-.331.132-.1.116-.1.298 0 .166.1.282.124.132.33.132.208 0 .332-.132.116-.116.116-.282 0-.182-.116-.298-.124-.132-.331-.132zM95.43 23.193l.033.132q.298 0 .413.083.116.09.116.314v2.367q0 .497.298.77t.828.273q.439 0 .894-.248.33-.174.596-.422v.57q.322-.032.521-.049.223-.017.554-.033v-.182q-.297 0-.438-.14-.133-.133-.133-.406v-3.344l-1.067.315.033.132q.298 0 .422.083.108.083.108.29v2.54q-.29.24-.547.364-.356.174-.77.174-.446 0-.62-.157t-.174-.53v-3.21zM100.221 26.991h1.697v-.207q-.314 0-.455-.115-.133-.116-.133-.365v-2.383q.323-.34.571-.48.315-.182.696-.182.306 0 .513.198.198.2.198.48v2.367q0 .249-.132.365-.132.115-.43.115v.207h1.638v-.207q-.29 0-.43-.115-.14-.125-.14-.365v-2.433q.314-.298.579-.438.33-.182.653-.182.356 0 .563.215.199.198.199.488v2.35q0 .249-.14.365-.133.115-.423.115v.207h1.672v-.207q-.298 0-.455-.115-.15-.125-.15-.365v-2.482q0-.373-.264-.646-.282-.298-.712-.298-.422 0-.844.232-.34.182-.679.513-.09-.356-.38-.563-.265-.182-.58-.182-.455 0-.894.257-.264.165-.629.505v-.762l-1.109.34.034.148q.314 0 .43.083.14.091.14.373v2.482q0 .249-.14.365-.15.115-.464.115zM108.456 26.205v-2.557q.19-.257.43-.373.24-.107.605-.107.687 0 1.059.546.331.48.331 1.225 0 .745-.331 1.216-.372.547-1.06.547-.421 0-.695-.166-.173-.1-.339-.331zm-1.076 1.978h1.639v-.215q-.282 0-.422-.108-.14-.116-.14-.372v-.944q.198.199.454.307.315.14.762.14.869 0 1.34-.637.43-.555.43-1.415 0-.87-.43-1.432-.471-.629-1.34-.629-.447 0-.762.124-.248.108-.455.331v-.455l-1.076.356.042.124q.29 0 .413.083.116.083.116.29v3.757q0 .265-.132.372-.124.108-.439.108zM112.586 25.783l-.108.05.497 1.299.347-.14q.091-.034.207-.017.075.016.249.058.182.058.298.074.182.042.372.042.571 0 .96-.274.447-.314.447-.844 0-.504-.372-.81-.356-.29-1.242-.563-.654-.207-.885-.356-.307-.19-.307-.472 0-.348.24-.538.24-.182.646-.182.538 0 1.06.397.388.306.587.662l.14-.066-.48-1.217-.314.15q-.058.024-.14.007-.059-.008-.191-.04-.174-.05-.281-.075-.19-.034-.381-.034-.596 0-.968.265-.348.265-.348.67 0 .44.314.712.356.315 1.308.613.662.198.927.389.265.19.265.488 0 .406-.282.646-.273.24-.703.24-.629 0-1.142-.381-.348-.248-.72-.753zM7.695 32.674q-.944 0-1.465.653-.463.588-.463 1.482 0 .877.463 1.465.521.653 1.465.653.935 0 1.465-.653.471-.588.471-1.465 0-.894-.471-1.482-.53-.653-1.465-.653zm0 .206q.67 0 1.043.588.33.53.33 1.34 0 .795-.33 1.317-.373.595-1.043.595-.679 0-1.051-.595-.323-.522-.323-1.316 0-.811.323-1.341.372-.588 1.05-.588zM10.46 32.731v.216q.272 0 .396.058.124.066.232.297l1.142 2.806.331.82h.14l1.424-3.626q.091-.198.249-.28.157-.075.447-.075v-.216h-1.507v.216q.34 0 .48.107.133.1.067.249l-1.076 2.822-1.15-2.83q-.075-.208.074-.29.116-.058.455-.058v-.216zM19.265 35.81q-.323.406-.704.604-.389.207-.885.207-.679 0-1.084-.438-.464-.505-.464-1.532h3.211q0-.935-.496-1.464-.489-.513-1.324-.513-.87 0-1.416.612-.521.596-.521 1.498 0 .96.538 1.556.546.587 1.44.587.662 0 1.134-.298.38-.24.695-.711zm-.48-1.399h-2.657q.033-.653.439-1.1.397-.43.943-.43.58 0 .902.364.331.38.373 1.166zM20.208 36.787h1.639v-.215q-.331 0-.447-.1-.116-.1-.116-.347v-2.177q.406-.348.596-.488.232-.166.439-.265.124-.066.223-.033.058.008.15.09.082.059.132.084.09.05.198.05.174 0 .306-.125.133-.124.133-.265 0-.157-.133-.281-.132-.124-.306-.124-.347 0-.82.306-.28.182-.802.637l-.116.108v-1.043l-1.076.406.05.132q.314 0 .422.083.1.074.1.306v2.599q0 .24-.158.347-.14.1-.414.1zM26.763 33.021h.654v2.938q0 .48.232.737.223.231.612.223.314 0 .58-.174.28-.19.488-.562l-.1-.067q-.182.199-.364.307-.207.132-.389.132-.273 0-.414-.124-.14-.124-.14-.356v-3.054h1.142v-.248h-1.142v-1.399h-.174q-.033.72-.29 1.084-.248.348-.695.39zM29.85 36.787h1.663v-.215q-.322 0-.455-.1-.132-.107-.132-.347V33.7q.281-.298.554-.447.34-.174.753-.174.456 0 .654.215.182.199.182.613v2.218q0 .24-.132.339-.124.108-.447.108v.215h1.655v-.215q-.298 0-.438-.108-.133-.108-.133-.34v-2.366q0-.563-.306-.836-.281-.248-.811-.248-.464 0-.894.248-.256.14-.637.488v-2.797l-1.076.422.041.132q.29 0 .406.083.124.1.124.364v4.51q0 .24-.132.348-.133.1-.44.1zM38.606 35.81q-.323.406-.703.604-.39.207-.886.207-.679 0-1.084-.438-.464-.505-.464-1.532h3.212q0-.935-.497-1.464-.488-.513-1.324-.513-.87 0-1.415.612-.522.596-.522 1.498 0 .96.538 1.556.546.587 1.44.587.662 0 1.134-.298.38-.24.695-.711zm-.48-1.399h-2.657q.034-.653.439-1.1.397-.43.944-.43.579 0 .902.364.33.38.372 1.166zM42.504 36.787h1.672v-.215q-.323 0-.464-.125-.132-.124-.132-.397v-5.437l-1.109.389.033.116q.315 0 .447.099.124.09.124.298v4.535q0 .273-.132.397-.133.125-.439.125zM48.885 36.514l-.075-.091q-.115.107-.223.157-.075.033-.166.033-.099 0-.132-.132-.033-.116-.033-.323v-2.35q0-.547-.34-.845-.322-.29-.877-.29-.81 0-1.324.24-.48.24-.48.572 0 .173.083.264.083.1.248.1.15 0 .248-.116.067-.083.125-.24.115-.34.339-.472.24-.14.72-.14.364 0 .563.231.19.215.19.613v.604q-1.308.198-1.986.62-.662.406-.662.985 0 .439.29.704.314.29.91.29.472 0 .844-.166.298-.14.604-.414 0 .257.083.397.107.182.372.182.224 0 .398-.124.124-.083.28-.29zM47.75 34.56v1.532q-.29.264-.554.372-.29.124-.729.124-.389 0-.604-.19-.198-.182-.198-.48 0-.546.612-.919.571-.348 1.473-.439zM50.193 32.731l-.522 1.225.133.05q.347-.546.637-.794.323-.265.678-.265h1.258l-2.83 3.707v.133h3.054l.496-1.341-.107-.058q-.38.687-.712.952-.298.232-.712.232h-1.373l2.838-3.683v-.157zM53.735 32.731v.216q.298 0 .43.066.091.05.166.182l1.224 2.665.265.629-.165.405q-.15.348-.265.514-.133.198-.248.198-.125 0-.19-.074-.05-.042-.1-.158-.066-.124-.108-.173-.082-.075-.215-.075-.198 0-.306.124-.108.116-.108.298 0 .174.133.29.1.107.463.107.398-.016.621-.132.265-.19.488-.728l1.523-3.542q.157-.373.34-.497.157-.1.496-.1v-.214h-1.465v.215q.348 0 .447.09.1.092.025.299l-1.084 2.524-1.192-2.607q-.075-.182.008-.24.083-.066.43-.066v-.215zM64.725 36.828q.34-.033.538-.05.224-.016.546-.033v-.182q-.297 0-.43-.14-.132-.133-.132-.406v-5.396l-1.217.414.042.124q.388 0 .53.074.14.083.14.298v1.614q-.215-.223-.447-.33-.315-.141-.778-.141-.877 0-1.357.662-.422.579-.422 1.473 0 .86.438 1.456.489.662 1.341.662.439 0 .77-.149.265-.124.438-.314zm.017-3.368v2.698l-.05.041q-.165.199-.323.282-.273.157-.678.157-.695 0-1.068-.571-.323-.489-.323-1.258 0-.77.323-1.275.373-.57 1.068-.57.389 0 .637.123.223.116.414.373zM68.524 32.674q-.943 0-1.465.653-.463.588-.463 1.482 0 .877.463 1.465.522.653 1.465.653.935 0 1.465-.653.472-.588.472-1.465 0-.894-.472-1.482-.53-.653-1.465-.653zm0 .206q.67 0 1.043.588.33.53.33 1.34 0 .795-.33 1.317-.373.595-1.043.595-.679 0-1.051-.595-.323-.522-.323-1.316 0-.811.323-1.341.372-.588 1.051-.588zM73.366 32.674q-.704 0-1.134.347-.464.364-.464.993 0 .397.207.72.199.306.546.472-.314.108-.471.199-.273.157-.273.33 0 .174.182.29.207.133.67.224-.455.1-.803.306-.422.257-.422.538 0 .43.455.654.489.231 1.507.231.943 0 1.456-.206.596-.24.596-.754 0-.397-.314-.629-.274-.198-.77-.28l-.762-.125-.943-.149q-.207-.041-.281-.132-.058-.058-.05-.158 0-.074.124-.149.116-.066.306-.107.174.05.323.058.1.016.315.016.67 0 1.108-.356.464-.372.464-.985 0-.231-.083-.455-.083-.215-.215-.397.132-.108.24-.1.066.009.19.083l.1.05q.066.033.132.033.124 0 .207-.099.091-.091.091-.223 0-.125-.132-.207-.116-.075-.257-.075-.174 0-.364.1-.19.099-.356.28-.166-.148-.414-.23-.314-.109-.712-.109zm.14 5.098q-.778 0-1.208-.183-.397-.173-.397-.455 0-.24.248-.422.281-.215.877-.34.249.026.505.067.149.017.397.058l.199.033q.405.058.62.24.2.166.2.397 0 .249-.415.422-.413.183-1.026.183zm-.14-4.892q.504 0 .786.356.248.307.248.778 0 .464-.248.778-.282.364-.786.364-.522 0-.803-.364-.249-.306-.249-.778 0-.471.249-.778.281-.356.803-.356zM7.81 44.634q-1.067 0-1.621.968-.48.844-.48 2.226 0 1.357.48 2.202.554.96 1.622.96 1.06 0 1.614-.96.488-.845.488-2.202 0-1.382-.488-2.226-.555-.968-1.614-.968zm0 .223q.787 0 1.2.894.373.794.373 2.077 0 1.258-.372 2.044-.414.894-1.2.894-.795 0-1.209-.894-.355-.778-.355-2.044 0-1.283.355-2.077.414-.894 1.209-.894zM11.535 50.882h2.905v-.215q-.654 0-.919-.116-.298-.116-.298-.43v-5.487q-.43.256-.786.389-.455.165-1.026.231v.158h.745q.265 0 .397.099.14.1.14.331v4.279q0 .314-.272.43-.249.116-.886.116zM19.91 49.318l-.149-.042q-.273.68-.562.936-.265.207-.745.207h-2.086q.249-.571.77-1.076.405-.406 1.034-.836.886-.62 1.242-1.117.38-.522.38-1.16 0-.777-.43-1.166-.447-.414-1.374-.414-.877 0-1.398.497-.439.43-.439.993 0 .29.1.48.107.199.28.199.15 0 .249-.091.124-.1.124-.298 0-.091-.033-.15-.008-.04-.058-.107-.058-.091-.083-.166-.041-.115-.041-.306 0-.414.356-.629.34-.207.902-.207.596 0 .927.29.364.323.364.977 0 .53-.19.885-.224.43-.853.91-.703.514-1.29 1.209-.638.753-.87 1.498v.265h3.435zM22.55 47.729l-.008-.008q.86 0 1.3.389.413.372.413 1.034 0 .729-.356 1.176-.389.496-1.125.496-.728 0-.944-.364-.124-.199-.09-.67l.016-.174q0-.199-.133-.306-.107-.1-.248-.1-.165 0-.273.1-.132.124-.132.372 0 .563.455.944.496.405 1.349.405 1.026 0 1.572-.58.472-.504.472-1.299 0-.554-.364-.96-.406-.455-1.134-.57.58-.158.944-.53.397-.406.397-.969 0-.695-.447-1.084-.447-.389-1.258-.389-.803 0-1.3.39-.421.347-.421.785 0 .232.132.356.108.1.265.1.124 0 .223-.125.108-.14.108-.322l-.017-.174q-.05-.373.066-.53.207-.273.944-.273.571 0 .877.373.282.33.282.893 0 .654-.422 1.01-.423.364-1.16.364-.19-.05-.272-.033-.1.025-.1.149 0 .116.108.149.091.017.281-.025zM27.466 50.882h2.177v-.199q-.439 0-.604-.066-.207-.074-.207-.29v-1.092h1.1v-.265h-1.1V44.66h-.257l-2.623 4.328v.248h2.35v1.084q0 .215-.19.298-.174.075-.646.075zm.836-5.338v3.426h-2.077zM33.094 45.254h1.473l.133-.471h-3.137l-.19 3.153.174.074q.223-.314.546-.513.405-.256.869-.256.711 0 1.1.538.348.471.348 1.2 0 .686-.348 1.191-.397.596-1.1.596-.77 0-.985-.314-.133-.182-.091-.654l.016-.224q0-.173-.115-.273-.108-.09-.265-.09-.158 0-.265.09-.108.1-.108.29 0 .58.497.977.538.438 1.415.438.91 0 1.44-.67.464-.571.464-1.35 0-.818-.464-1.356-.513-.605-1.44-.605-.48 0-.836.133-.34.14-.612.438l.14-2.342zM36.694 48.019q0-1.457.447-2.31.43-.81 1.126-.81.389 0 .604.157.207.157.207.405 0 .199.107.323.116.116.29.116t.265-.116q.1-.116.1-.323 0-.314-.332-.554-.389-.273-1.034-.273-1.093 0-1.714.976-.604.944-.604 2.541 0 1.481.547 2.21.488.662 1.398.662.753 0 1.275-.489.612-.546.612-1.522 0-.935-.455-1.465-.43-.497-1.134-.497-.554 0-1.026.298-.38.24-.679.67zm0 .413q.232-.438.596-.744.447-.365.919-.365.58 0 .918.439.323.43.323 1.15 0 .927-.34 1.407-.338.497-1.009.497-.645 0-.985-.455-.422-.571-.422-1.929zM45.103 44.783H41.56l-.39 1.63.141.05q.19-.53.398-.803.306-.397.703-.397h2.31l-.365.604q-1.01 1.696-1.366 2.45-.562 1.2-.62 2.135-.025.281.099.438.108.133.281.133.158 0 .257-.182.107-.199.083-.522-.091-1.15.562-2.64.381-.86 1.325-2.416l.124-.19zM48.181 44.634q-.794 0-1.258.505-.397.438-.397.993 0 .604.29 1.026.281.405.778.58-.778.38-1.076.827-.24.364-.24.91 0 .695.546 1.134.53.414 1.34.414.787 0 1.358-.48.58-.48.58-1.15 0-.762-.398-1.225-.364-.43-1.109-.646.571-.199.861-.521.331-.356.331-.91 0-.704-.439-1.085-.43-.372-1.167-.372zm-1.39 4.816q0-.645.207-.96.215-.33.902-.67.919.29 1.34.637.48.39.48.944 0 .604-.405.993-.422.422-1.125.422-.613 0-1.002-.364-.397-.373-.397-1.002zm1.382-4.634q.555 0 .886.34.322.347.322.943 0 .488-.264.81-.232.29-.753.522-.737-.248-1.093-.53-.397-.33-.397-.786 0-.62.372-.976.348-.323.927-.323zM54.595 47.654q0 1.449-.455 2.301-.422.82-1.1.82-.398 0-.621-.166-.199-.157-.199-.397 0-.207-.116-.331-.107-.108-.273-.108-.182 0-.273.108-.1.116-.1.33 0 .307.332.547.389.281 1.043.281 1.075 0 1.696-.985.613-.951.613-2.532 0-1.49-.555-2.218-.496-.662-1.39-.662-.753 0-1.283.48-.604.546-.604 1.498t.447 1.49q.43.504 1.142.504.546 0 1.018-.298.372-.24.678-.662zm.009-.413q-.232.43-.604.736-.447.364-.903.364-.595 0-.926-.447-.323-.438-.323-1.175 0-.91.33-1.382.34-.488 1.019-.488.637 0 .976.447.43.58.43 1.945z"/></svg>