<svg xmlns="http://www.w3.org/2000/svg" width="500" height="220" viewBox="0 0 132.29166 58.208335"><path d="m11.02 7.115.008 2.802-1.066.15q-.86.123-1.249.173-.67.09-1.14.157.04-.364.065-.785.025-.273.05-.77.24-.074.554-.123.182-.033.537-.075.513-.066.703-.124.306-.082.372-.248.14-.248-.058-.488-.182-.231-.471-.231-.165.008-.33.058-.1.033-.298.116-.389.157-.67.223-.488.099-1.166.066-.347-.05-.562.016-.207.066-.207.207 0 .207.281.397.157.107.488.24l.157.074q.058.29.033.637-.025.363-.132.628-.017.066-.05.124-.024.041-.066.1-.09.14-.082.247.016.174.24.521.24.356.371.389.108.016.414-.174l.347-.207.678-.132q.827-.157 1.24-.231.72-.124 1.042-.157-.008.512.05 1.083.033.33.115.876.058.413.075.562.016.248-.017.364-.107.422-.05.455.058.033.249-.38l.074-.166q.198-.413.281-.794.132-.653.14-1.852.199-.008.414.033.132.025.347.091.29.075.414.075.182-.008.322-.174.198-.24.033-.48-.149-.222-.48-.289-.198-.05-.347-.024-.099.024-.24.099-.132.066-.198.09-.124.05-.264.05V7.05l.008-.199q.025-.157 0-.231-.033-.124-.182-.248-.413-.298-.769-.422-.29-.1-.513-.074-.19.016-.272.107-.075.074-.009.14l.124.108q.323.29.447.438.215.248.215.447zM19.486 7.123l.066 2.406q-.364.066-.992.165-.372.058-1.133.182l-1.306.215-.008-.231v-.232q0-.124.008-.207.314-.066.852-.124.405-.04.67-.058.396-.057.43-.322.024-.223-.232-.438l.182-.612q.008-.041.033-.09.016-.026.05-.075.09-.133.082-.215-.025-.14-.273-.34-.256-.19-.438-.181-.116 0-.298.1l-.099.049q-.058.033-.1.05-.594.09-1 .115-.28.008-.835-.008-.148 0-.231.066-.083.066-.058.174.025.116.165.24.157.132.43.248.24.09.414.074.107-.008.347-.1.215-.082.372-.123.273-.083.604-.124.057.099.09.314.025.116.042.322l.016.108q-.554.124-1 .182-.397.058-.769.058-.298-.008-.446.05-.157.057-.166.206-.008.116.166.24.099.074.306.165l.107.058q.025.24-.017.438-.016.116-.09.298-.067.173-.075.264-.016.15.075.34.132.264.297.28.1.017.33-.099.075-.041.125-.058.066-.033.132-.05.587-.173 1.588-.38 1-.198 1.686-.272l.05.115q.066.124.082.19.042.108.05.215-.041.248.017.29.074.041.314-.257.124-.181.206-.363.125-.281.133-.579.231-.017.488 0 .148.008.396.041.306.042.414.033.165-.024.24-.157.14-.314-.067-.504-.165-.149-.504-.19-.14-.017-.248.016-.074.017-.19.075-.132.058-.207.082-.132.042-.297.042l-.017-2.266v-.1q.017-.148-.017-.23-.057-.141-.256-.29-.182-.124-.463-.256-.273-.124-.512-.199-.348-.066-.521.116-.166.174.05.323.396.256.553.405.199.19.207.38zm.025 4.713q.05.487.066.719.016.306-.008.57l-.414.058q-.355.058-.512.075-.248.033-.43.033-.058-.24-.083-.472-.008-.132-.025-.347-.008-.231-.025-.322-.033-.149-.107-.257.207.1.513.091.19-.008.57-.074zm-.19-.604-.042.017q-.28.09-.529.132-.14.016-.372.033-.231.016-.33.058-.15.058-.282.248-.488-.298-.802-.29-.264 0-.297.215 0 .158.066.29.05.09.165.223.058.066.083.1.05.065.09.123.117.124.216.422.058.165.157.562l.132.471q.116.389.314.34.174-.05.314-.43.224.157.447.173.157.008.612-.066l.636-.091q.455-.025.505-.231.05-.19-.24-.447.083-.157.132-.364.05-.206.1-.578.008-.058.032-.116.017-.033.058-.1.091-.173.075-.272-.017-.166-.273-.372-.29-.232-.48-.24-.107-.008-.28.09l-.1.05q-.058.034-.107.05zM25.125 7.669l.008.033q.066.09-.1.38-.156.265-.446.595-.28.323-.554.546-.29.24-.421.248-.496 0-.455.116.041.107.455.066.413-.058 1-.347.595-.298 1.017-.662l.504.397.348.281q.124.066.256.033.124-.033.198-.149.075-.115.066-.264-.016-.165-.124-.323-.157-.181-.272-.223-.083-.033-.323-.033l-.413-.016.05-.058q.14-.15.115-.265-.058-.19-.496-.471.248-.05.488-.091.14-.017.355-.05.323-.033.389-.074.083-.05.1-.223 0-.29-.29-.414-.281-.132-.57.033l-.026.008q-.487.24-.793.315-.505.14-1.158.107-.339 0-.38.132-.041.14.24.34.339.214.487.24.108.024.298-.059.108-.05.182-.074.124-.05.265-.075zm2.852-.687.008 2.687q-.967.108-1.852.174-.843.066-2.042.124-.322.017-.645.025-.339.016-.612.016-.157 0-.19.083t.058.207q.091.116.273.231.198.124.455.207.347.116.504.116.108 0 .322-.066.182-.066.323-.108.248-.066.57-.107.025.43-.024 1.008-.058.629-.166.943l-.058.19q-.05.198-.024.207.033.008.24-.174.347-.339.528-.727.116-.24.265-.802l.033-.116.058-.132q.074-.15.066-.232-.008-.132-.19-.29.38-.049.818-.09l.745-.05.529-.033q.008 1.034.082 1.827.033.455.108 1 .041.273.05.38.008.158-.009.282-.05.248.008.281.067.025.19-.24l.05-.124q.215-.487.29-.785.124-.48.124-1.166V7.082l.016-.157q.025-.19 0-.282-.041-.157-.223-.33-.182-.149-.48-.281-.363-.166-.661-.19-.248-.025-.389.074-.157.116.067.281.363.248.529.397.248.223.256.388zM36.336 8.487l.066-.008.206-.016q.43-.033.62-.042.331-.008.497.025.322.017.43-.182.115-.198-.083-.397-.265-.231-.414-.256-.099-.016-.305.066l-.15.066-.19.066q-.553.157-1.107.199-.356.016-1.125 0-.306-.033-.397.09-.107.15.282.398.347.206.454.231.1.017.372-.058.19-.05.323-.082.24-.058.52-.1zm.124-.827h.041q.182-.016.364-.066.206-.05.38-.14.223-.166.157-.397-.074-.24-.463-.273-.405.017-.694 0-.281-.025-.48-.074-.273-.091-.347-.008-.083.074.05.322.297.347.479.471.248.174.513.166zm0 1q.603 0 .992.323.421.356.421.992 0 .488-.372.86-.38.397-.917.397-.505 0-.943-.389-.48-.413-.48-1 0-.422.373-.785.397-.397.926-.397zm.099.695q-.298 0-.513.157-.198.157-.198.348 0 .248.215.438.206.19.471.19.356 0 .546-.124.215-.132.215-.405 0-.24-.248-.43-.232-.174-.488-.174zm2.703-2.282.009 1.836q-.166.05-.488.082-.323.034-.703.034-.28-.042-.297.148-.017.215.454.538.215.124.364.116.091 0 .281-.091.1-.05.165-.075.116-.05.232-.074 0 .438.033.818.025.232.074.554.05.273.058.389.009.19-.016.372l-.025.116q-.041.339-.025.372.042.066.281-.438l.108-.232q.198-.347.273-.637.148-.496.148-1.231l.009-2.68v-.165q.016-.198-.033-.289-.066-.14-.34-.33-.33-.207-.628-.273-.24-.058-.438-.017-.165.033-.223.116-.066.082.016.14.414.331.554.496.158.19.158.405zm-1.471 6.11v-.058q-.009-.124 0-.256 0-.074.016-.215.042-.43-.066-.595-.157-.265-.76-.463-.472-.091-.563.132-.082.223.232.488.256.24.388.413.083.108.182.29.075.132.133.223.09.14.215.306.165.182.38.322.256.174.455.182.256.025.768-.09.521-.108.712-.232.09-.058.14-.182.05-.116.025-.248-.025-.133-.124-.223-.124-.1-.33-.1-.166.008-.373.05-.124.025-.372.083-.364.09-.537.124-.29.05-.521.05zM47.224 7.652h.05q.223-.025.405-.083.149-.058.29-.132.181-.124.123-.355-.057-.24-.289-.199-.463.025-.728.008-.223-.025-.421-.09-.223-.092-.323-.009-.099.075.017.273l.231.265q.157.19.24.24.124.065.405.082zm-.041.91.016.05q.025.032-.124.247-.148.215-.363.463-.248.273-.455.447-.24.19-.356.19-.396-.033-.38.066.017.107.372.1.38 0 .703-.125.273-.1.711-.372.041-.008.09.149.026.099.092.38l.116.471v.05q.033.215.066.232.05.016.215-.199l.074-.083q.14-.14.174-.256.041-.157.008-.562.025-.248-.041-.356-.042-.066-.19-.132l-.158-.083.1-.099q.182-.157.173-.256-.016-.165-.372-.405l.695-.075q.198-.024.248-.165.041-.124-.05-.281-.083-.157-.248-.232-.174-.09-.347-.024-.48.206-.96.272-.43.067-.81.008-.256-.024-.297.091-.041.14.273.397.297.19.38.215.074.025.215-.025.091-.033.157-.05.124-.032.273-.049zm2.075-1.282v1.53q-.207.057-.397.082-.14.017-.388.017-.248-.017-.257.107-.008.14.298.414.232.157.306.165.074.017.273-.066l.165-.058q0 .066.041.19.017.075.075.232.083.231.116.33.05.19.05.306-.034.323 0 .348.032.024.222-.373l.058-.14q.124-.248.166-.447.09-.355.09-.917V7.264l.009-.19q.025-.141 0-.207-.033-.1-.174-.207-.273-.215-.537-.322-.223-.083-.405-.091-.149 0-.215.05-.066.057 0 .123l.1.133q.214.264.28.388.116.182.124.34zm1.298-.355v2.108q0 .372.058.744.033.215.124.562.066.265.083.389.033.182.008.33-.058.273-.033.372.025.133.215-.272l.041-.116q.166-.364.24-.703.132-.603.14-1.513l.009-1.943.008-.14q.025-.14.008-.215-.04-.133-.206-.273-.314-.24-.612-.347-.248-.083-.455-.075-.182 0-.273.066-.082.066-.016.14l.1.092q.28.264.388.397.173.215.173.396zm-1.579 5.018-.017.041q-.644.902-1.107 1.406-.513.546-.72.512-.24-.04-.372-.016-.124.025-.107.074.025.05.182.075.19.033.487.008.53-.133 1.017-.422.587-.372 1.257-1.066.157.132.356.33l.396.397.406.397q.264.281.496.198.24-.09.173-.52-.05-.422-.28-.596-.15-.107-.546-.19-.265-.058-.406-.1-.231-.082-.405-.206l.017-.033q.231-.273.231-.413-.008-.215-.388-.562-.207-.158-.389-.215-.157-.058-.273-.025-.107.016-.132.099-.033.09.033.207.132.264.149.372.016.099-.058.248zM54.682 9.165l.016.066.075.637q.033.388.066.587.05.322.124.587.157.471.339.421.14-.033.306-.388.248.09.446.09.124.009.389-.04.124-.025.207-.034.124-.016.256-.024.496.033.661-.14.174-.183-.107-.53l.058-.124q.107-.19.14-.422.066-.397.05-1.273 0-.066.016-.132.008-.041.033-.116.05-.157.042-.231-.017-.133-.14-.273-.216-.273-.547-.455-.363-.198-.537-.1-.149.092-.132.232.016.083.132.29.1.173.14.273.075.165.108.33l.025.33q.008.133.016.43.017.406.034.596.016.33.05.513-.282.107-.662.198-.439.108-.695.108l-.058-1.067.364-.025q.372-.016.521-.041.231-.041.33-.149.174-.173 0-.388-.165-.207-.454-.24-.132-.017-.215.016-.05.017-.132.075-.091.074-.157.107-.124.066-.298.116l-.017-.223q0-.257-.066-.356-.107-.149-.48-.29-.289-.107-.504-.115-.181 0-.28.066-.092.066-.083.166.008.099.115.19l.033.025q.215.173.29.28.132.174.182.447zm4.39-2v3.58q0 .586.041 1.115.025.315.083.778.041.363.05.512.016.24-.008.438-.067.397-.05.447.033.074.231-.33l.008-.034q.265-.604.356-1.042.157-.727.157-1.91.19 0 .413.042.133.025.364.074.397.083.521.058.207-.033.265-.322.041-.224-.058-.348-.116-.132-.463-.206-.19-.025-.323 0-.082.016-.206.082-.116.05-.199.075-.132.041-.297.058l-.008-3.01.008-.273q.024-.19 0-.273-.042-.115-.207-.272-.34-.265-.67-.389-.273-.1-.504-.083-.199.008-.281.091-.075.083.016.182l.017.008q.372.33.504.48.232.264.24.47zM64.843 10.587l.033.017q.116.066.008.851-.091.72-.256 1.29-.19.389-.14.446.049.067.38-.314.049-.066.123-.124.042-.041.133-.107.273-.215.38-.397.174-.29.215-.802l.066-.165q.108-.24.058-.356-.083-.174-.537-.413.603-.075 1.215-.14.422-.05.976-.1 0 .802.082 1.488.042.389.133.934.066.34.074.472.016.206-.017.363-.099.439-.04.488.057.042.214-.405l.116-.29q.182-.446.248-.86.1-.66.107-2.149v-3.15l.017-.248q.016-.19 0-.273-.041-.132-.199-.272-.322-.248-.636-.364-.273-.108-.488-.108-.198 0-.281.066-.074.067.008.15.256.239.413.437.248.315.248.521l-.008 2.588q-.537.074-1.041.149-.43.05-.786.1.091-.133.223-.282.083-.09.248-.256.315-.314.422-.48.19-.264.199-.52.016-.298-.141-.637-.149-.306-.405-.587-.248-.265-.504-.414-.273-.157-.447-.132-.24 0-.471.09-.14.059-.422.232l-.273.15q-.157.09-.306.156-.256.133-.24.273.017.14.331.281.356.166.488.166.091 0 .223-.124.124-.116.232-.19.19-.125.471-.224.157 0 .38.273.24.298.19.537-.504.124-1.28.224-.728.09-1.25.099-.462.008-.454.182.008.157.372.364.438.223.587.24.132.007.438-.108.306-.124.546-.199.43-.14.992-.256-.033.165-.265.57-.223.414-.38.596-.818.1-1.438.132-.538.025-1.092.017-.397.008-.421.173-.034.166.347.372.537.281.703.315.148.024.454-.075.24-.083.422-.132.314-.083.703-.149zM75.98 6.958l.008 3.456q0 .793.05 1.438.024.372.082.86.041.322.041.446.008.199-.025.372-.074.414-.058.505.025.14.306-.579.174-.438.29-.984.198-.959.198-2.265V7.024l.017-.19q.024-.15 0-.224-.042-.115-.224-.264-.306-.248-.611-.38-.257-.108-.463-.116-.182 0-.24.074-.058.075.066.182l.1.116q.214.248.297.372.14.198.165.364zM72.433 8.61q.347 0 .578.232.215.206.215.454 0 .24-.206.472-.232.256-.546.256-.372 0-.595-.256-.19-.215-.19-.472 0-.256.181-.454.215-.232.563-.232zm2.091-1L74.541 9h-.017q-.264.033-.363.041-.15.008-.315-.008-.066-.52-.545-.86-.438-.306-.943-.306-.488 0-.884.422-.389.422-.389.95 0 .596.38 1.026.405.471 1.075.471.504-.008.86-.306.389-.33.446-.9.215.19.315.214.074.025.215-.041l.181-.058q0 .52.05.926.025.223.083.529.041.19.05.281.007.132-.009.265l-.074.314q-.066.297-.05.322.033.033.265-.397l.008-.04q.223-.48.314-.844.149-.612.149-1.472l.008-1.893.008-.256q.016-.141-.008-.207-.041-.091-.215-.223-.339-.257-.628-.38-.248-.1-.422-.083-.149.008-.19.09-.05.083.041.174.24.24.389.447.19.256.198.413zM84.156 8.214l.066-.016q.248-.058.472-.091.223-.041.512-.066.314-.025.405-.166.108-.173-.165-.463-.215-.19-.339-.198-.09-.008-.298.09-.115.059-.19.092-.124.058-.248.107-.504.14-.95.166-.265.024-.67 0-.347 0-.389.157-.05.173.364.43.347.182.513.198.115.008.33-.074l.232-.083q.165-.05.355-.083zm3.092-.959.008 3.142q-.545.1-1.215.231-.388.083-1.091.224l-1.207.248.066-.232q.074-.223.05-.372-.042-.231-.298-.595.24-.083.562-.124.198-.033.554-.066.422-.033.579-.066.248-.058.322-.166.124-.256-.066-.48-.198-.222-.579-.239-.149.017-.256.058-.066.016-.182.074-.198.1-.38.15-.314.107-.827.206h-.008q-.537.016-.67.058-.198.05-.165.24.016.115.207.24.148.098.446.23.074.174.041.43-.04.249-.165.464l-.008.008q-.165.28-.182.397-.025.14.066.438.15.339.298.372.1.025.372-.116l.174-.083q.107-.05.206-.082.563-.166 1.472-.372 1.066-.24 1.885-.372-.008.57.041 1.058.033.28.1.686.05.281.066.405.016.19-.008.364-.066.413-.025.455.033.033.223-.364l.124-.34q.174-.42.24-.735.124-.546.132-1.298.19-.016.413.008.133.017.364.066.34.066.455.05.19-.033.248-.248.066-.273-.016-.397-.1-.14-.463-.223-.24-.05-.364-.025-.083.016-.182.09-.091.067-.157.092-.116.041-.281.05l-.008-3.564v-.157l.024-.124q.025-.19-.008-.273-.057-.14-.289-.322-.33-.257-.653-.372-.273-.091-.504-.075-.19.008-.29.083-.09.074-.016.14l.025.025q.405.364.553.538.24.297.249.562zM95.276 7.14h-.008q-.793.165-1.355.198-.422.025-1.2-.008-.495-.017-.388.215.124.231.835.587.29.14.414.14.099 0 .28-.09.282-.15.563-.24.504-.157 1.281-.257 0 .554.033 1.084.025.305.067.768.04.414.04.563.009.24-.04.388-.158.414-.083.414.074 0 .355-.389.323-.455.414-.785.124-.463.149-1.596.008-.083.04-.165.017-.05.059-.141.083-.182.066-.281-.025-.149-.256-.356-.323-.28-.496-.314-.116-.016-.364.1-.108.049-.174.074-.116.05-.231.09zm-1.306 5.349.008-.008q.984-.058 1.81-.017.811.042 1.464.174.19.041.347-.058.15-.1.199-.265.05-.173-.058-.347-.116-.19-.397-.306-.347-.116-.52-.107-.125 0-.331.074-.323.132-.645.19-.57.108-1.489.133-.008-.24.025-.587l.05-.563.025-.14q.04-.33-.207-.554-.265-.24-.876-.356-.34-.082-.414.083-.083.198.314.637.224.256.405.752.174.455.174.744-.802.033-1.57.017-.786-.008-1.39-.075-.388-.025-.355.182.041.223.62.538.48.248.628.28.124.025.364-.065.29-.116.579-.182.496-.116 1.24-.174zM101.196 8.181l.041-.008q.34-.074.802-.14.497-.066.926-.091.133 0 .232-.091.107-.1.107-.223-.008-.14-.165-.265-.19-.14-.554-.223-.1 0-.198.041-.058.017-.19.083-.348.173-.687.256-.595.132-1.562.124-.323 0-.372.124-.066.14.28.405.307.19.439.215.107.017.355-.066.133-.041.224-.066.157-.041.322-.074zm2.977-1.033v3.34l-1.05.14-.439.058q0-.066.025-.132l.05-.124q.09-.215.132-.389.066-.297.058-.71 0-.075.016-.15l.025-.115q.025-.14.017-.207-.017-.09-.133-.215-.215-.24-.512-.347-.29-.107-.447-.008-.082.09-.05.223.017.075.125.248.074.133.107.199.05.115.05.215 0 .306.041.595.025.165.083.446.033.174.041.257.025.132.033.248-.678.09-1.628.182-.852.074-1.216.082-.33.008-.306.182.033.207.637.488.455.215.628.231.15.017.496-.107.513-.174 1.017-.29.893-.206 2.2-.355 0 .57.066 1.034.04.264.132.653.066.264.083.388.024.199 0 .405-.083.397-.008.389.082-.008.248-.53l.09-.297q.141-.43.199-.76.107-.587.107-1.447.166.008.348.041.115.025.306.074.272.075.396.083.19.008.331-.099.24-.19.132-.446-.107-.265-.48-.348-.173-.025-.289 0-.074.017-.181.066-.124.066-.207.083-.149.041-.356.033V7.032l.017-.165q.025-.174-.008-.265-.05-.14-.265-.306-.413-.289-.736-.405-.264-.099-.446-.074-.149.016-.19.1-.041.082.033.148l.058.058q.322.347.438.512.182.265.182.513zm-3.795 2.455.016.033q.075.24.14.48.034.132.075.322.05.224.083.273.041.066.14.066.14-.033.257-.29.14-.305.107-.743l.008-.24q.008-.132.008-.19-.008-.108-.058-.199-.124-.198-.471-.322-.356-.124-.488 0-.09.09-.058.232.017.082.116.28.041.092.066.141.033.083.058.157zM7.638 21.916v4.192q0 .173-.248.182-.165.008-.488-.058-.148-.033-.24.082-.074.1-.074.257t.075.256q.09.124.24.116.43-.017 1.09-.017.67 0 1.092.017.174.025.281-.091.1-.108.1-.273 0-.165-.1-.273-.107-.116-.28-.074l-.133.016q-.323.058-.414.042-.132-.025-.132-.182v-4.192q0-.19.1-.256.099-.058.413-.058.306 0 .421.09.15.116.174.464.017.306.008.661-.008.298-.024.537-.034.174.099.273.115.1.297.1t.306-.1q.133-.099.108-.273-.058-.438-.083-1.058-.016-.52-.016-1.05.016-.256-.083-.322-.075-.058-.314-.042-.893.025-1.877.025t-1.645-.025q-.281-.033-.364.058-.066.066-.058.306 0 .323-.025.852-.033.72-.09 1.256-.034.174.09.273.108.1.273.1.174 0 .281-.1.116-.099.091-.273l-.016-.272q-.009-.265-.009-.422 0-.256.025-.504.033-.364.157-.463.116-.091.471-.091.306 0 .414.058.107.066.107.256zM11.838 21.825v4.233q0 .166-.09.199-.05.024-.224-.008l-.09-.008q-.133-.033-.216.082-.066.1-.066.257t.066.264q.083.124.215.108.372-.025.786-.025.363 0 .735.025.116.016.19-.1.067-.099.067-.256 0-.165-.066-.264-.075-.116-.19-.091l-.125.008q-.14.024-.181 0-.05-.034-.05-.19v-2.415q.264-.297.52-.413.29-.132.712-.132.297 0 .455.14.19.174.19.57v2.25q0 .157-.116.19-.066.024-.223 0h-.066q-.133-.017-.207.099-.058.107-.058.256 0 .157.066.256.075.116.199.1.421-.034.835-.034.372 0 .785.034.132.016.215-.1.074-.107.074-.264 0-.166-.074-.265-.083-.115-.215-.082l-.083.008q-.198.024-.264 0-.1-.034-.1-.199v-2.356q0-.695-.363-1.017-.34-.298-1.05-.298-.34 0-.67.108-.339.107-.562.306v-1.935q-.34.05-.67.05-.297-.008-.496-.05-.132-.017-.215.1-.066.098-.066.255 0 .15.066.249.083.115.215.107.19-.041.29.008.115.066.115.24zM18.874 22.387q-1.009 0-1.587.728-.521.661-.521 1.637 0 .959.52 1.62.58.728 1.588.728.695 0 1.125-.14.47-.158.876-.555.132-.14.124-.297-.008-.132-.116-.24-.107-.1-.248-.107-.157-.008-.273.115-.314.298-.587.397-.306.116-.9.116-.571 0-.927-.422-.297-.364-.372-.95.33-.034 1.488-.025.72 0 1.918.024l.009-.264q0-.976-.53-1.637-.578-.728-1.587-.728zm0 .711q.546 0 .893.372.29.315.38.81-.636.025-1.265.025-.545 0-1.265-.024.083-.505.38-.819.34-.364.877-.364zM28.738 27.24v-3.803q-.009-.124.099-.157.074-.016.306-.016.132.025.215-.083.074-.1.074-.256 0-.157-.074-.273-.083-.124-.215-.108-.281.017-.554.025-.265 0-.62-.025.008.124-.058.133-.042 0-.215-.075-.223-.09-.389-.14-.28-.075-.57-.075-.951 0-1.497.687-.496.628-.496 1.587 0 .95.496 1.58.546.685 1.497.685.339 0 .661-.115.347-.116.579-.315v.786q0 .14-.306.157-.215.016-.52-.025-.141-.033-.232.083-.083.099-.083.256 0 .165.074.273.083.116.24.1.215-.034.843-.026.62 0 1.141.025.19.025.29-.09.082-.1.066-.265-.017-.157-.108-.257-.107-.115-.248-.082-.206.024-.289-.008-.107-.033-.107-.182zm-1.968-4.142q.579 0 .918.463.314.43.314 1.1 0 .661-.314 1.083-.331.471-.918.471-.595 0-.926-.471-.306-.422-.306-1.083 0-.67.306-1.1.339-.463.926-.463zM30.821 23.437v2.307q0 .604.38.976.405.38 1.133.38.33 0 .587-.083.215-.066.438-.215.091-.058.14-.016.059.033.092.182.29-.025.612-.025t.545.025q.116.024.19-.091.067-.108.067-.273 0-.166-.067-.265-.074-.115-.19-.082h-.041q-.223.04-.306.008-.132-.042-.132-.248v-3.49q-.29.025-.629.025t-.554-.024q-.124-.017-.19.099-.058.099-.058.248t.058.248q.066.107.19.099.207-.041.306-.008.116.041.116.174v2.414q-.19.29-.504.438-.29.149-.678.149-.298 0-.496-.124-.248-.157-.248-.496v-3.241q-.24.016-.612.016-.397 0-.57-.016-.108-.017-.174.09-.05.1-.05.257 0 .149.05.248.066.107.173.1.19-.042.298.007.124.05.124.207zM37.245 20.7q-.264 0-.413.174-.133.157-.133.389 0 .215.133.372.149.182.413.182.256 0 .405-.182.14-.157.14-.372 0-.232-.14-.389-.149-.173-.405-.173zm-.24 2.663v2.695q0 .182-.306.207-.181.016-.653-.025l-.074-.008q-.149-.025-.24.091-.083.107-.083.265 0 .157.083.256.091.116.24.099.546-.016 1.248-.016.703 0 1.414.016.174.017.281-.1.1-.107.1-.264 0-.165-.1-.264-.107-.108-.28-.075-.39.066-.596.042-.273-.025-.273-.224v-3.53q-.405.041-.893.033-.471 0-.537-.033-.157-.025-.248.091-.083.1-.083.265 0 .157.083.256.09.116.248.099.132-.025.363-.008.306.025.306.132zM41.999 23.098q.612 0 .885.24.248.215.314.744 0 .166.132.248.116.066.281.042.166-.017.265-.108.107-.1.074-.223-.082-.314-.099-.645-.017-.372.074-.62.083-.166-.016-.265-.083-.09-.265-.115-.173-.025-.314.008-.149.05-.132.14 0 .083-.033.091-.017 0-.1-.041l-.082-.042q-.199-.09-.455-.132-.248-.033-.529-.033-.976 0-1.587.587-.645.628-.645 1.728 0 1.166.67 1.81.611.588 1.612.588.67 0 1.091-.174.513-.207.885-.744.099-.157.05-.306-.042-.132-.183-.215-.14-.083-.28-.058-.158.017-.224.157-.165.29-.52.463-.356.166-.82.166-.702 0-1.107-.463-.389-.447-.389-1.208 0-.777.397-1.207.38-.413 1.05-.413zM45.612 21.767v4.382q0 .091-.198.116-.166.008-.34-.033-.115-.025-.173.099-.058.1-.058.256 0 .157.058.265.058.107.174.09.256-.016.595-.016.339 0 .703.017V25.14l.578-.487.852 1.306q.107.14.1.223 0 .075-.1.05-.124-.025-.207.09-.066.108-.074.257 0 .157.066.256.083.116.24.108.322-.025.868-.025.455.008.678.025.124.008.198-.116.066-.107.066-.256 0-.157-.066-.256-.074-.108-.198-.083l-.108.016q-.157.033-.223.025-.099-.008-.157-.09l-1.348-2.018 1.29-.984q.083-.083.174-.107.058-.017.173-.008h.15q.132.008.223-.108.074-.107.074-.256 0-.157-.074-.257-.091-.115-.224-.09-.446.04-.91.04-.537.009-.9-.04-.116-.034-.19.074-.058.1-.058.256 0 .157.05.265.049.124.14.116.14 0 .173.033.05.024-.016.107l-1.24.951v-3.29q-.29.049-.645.04-.248-.007-.653-.04-.116-.025-.174.09-.058.1-.058.257 0 .165.058.264.058.124.174.108.206-.033.339 0 .198.04.198.182zM53.723 21.775v5.193q.297.058.512-.066.166-.1.24-.265.281.248.62.364.29.099.629.099.942 0 1.488-.728.504-.653.504-1.62 0-.992-.504-1.645-.546-.72-1.488-.72-.364 0-.687.116-.314.116-.545.33v-1.959q-.232.058-.554.058-.323 0-.596-.058-.124-.024-.198.083-.058.108-.058.265 0 .157.058.256.074.124.198.107.166-.05.248-.024.133.033.133.215zm1.976 1.323q.578 0 .917.496.315.463.315 1.158 0 .686-.315 1.14-.339.497-.917.497-.587 0-.926-.496-.306-.455-.306-1.141 0-.695.306-1.158.339-.496.926-.496zM59.262 23.537v2.57q0 .166-.165.174-.1.008-.298-.04-.149-.034-.231.082-.075.107-.075.273 0 .165.075.272.082.116.231.083.364-.025 1.1-.025.736 0 1.256.025.199.033.323-.083.116-.107.116-.272 0-.166-.116-.273-.124-.116-.323-.083h-.05q-.57.058-.768.05-.314-.017-.314-.182v-1.91q.537-.546.876-.802.38-.281.612-.281.207 0 .298.124.099.149.107.53 0 .164.124.264.116.09.281.082.166-.008.281-.115.124-.116.124-.298-.008-.587-.33-.95-.315-.348-.761-.348-.364 0-.661.124-.282.124-.662.446l-.074.05q-.14.116-.174.066-.041-.074-.041-.53-.356.026-.67.026-.314 0-.554-.025-.149-.033-.231.09-.075.108-.075.274 0 .165.075.264.082.116.231.075l.017-.008q.198-.008.289.024.157.058.157.257zM65.835 22.387q-1.108 0-1.736.728-.562.653-.562 1.637 0 .967.562 1.62.628.728 1.736.728 1.1 0 1.728-.728.562-.653.562-1.62 0-.984-.562-1.637-.628-.728-1.728-.728zm0 .711q.72 0 1.133.505.363.446.363 1.14 0 .679-.363 1.133-.414.513-1.133.513-.736 0-1.15-.513-.355-.454-.355-1.132 0-.695.356-1.141.405-.505 1.149-.505zM69.431 23.429l.951 3.282q.025.182.14.29.108.099.249.099.132 0 .248-.091.124-.116.173-.306l.571-1.653q.033-.133.058-.133.033 0 .066.133l.587 1.711q.09.339.405.339.306 0 .397-.347l.95-3.324q.05-.149.116-.19.075-.041.249-.017.09.025.148-.09.05-.1.05-.257t-.05-.256q-.058-.116-.148-.091-.182.025-.678.025-.53.008-.819-.025-.107-.016-.165.1-.058.098-.058.247 0 .157.058.257.058.107.165.099.223-.017.306.025.074.05.05.173l-.538 1.81q-.033.158-.074.158-.042 0-.083-.157l-.645-1.869q-.066-.264-.28-.264-.208 0-.282.264l-.653 1.869q-.05.149-.083.149-.025 0-.074-.15l-.521-1.81q-.041-.14.058-.182.058-.033.206-.033l.034.008q.115.008.19-.099.058-.107.058-.256 0-.15-.058-.248-.075-.116-.19-.091-.215.025-.728.033-.537 0-.76-.033-.1-.017-.15.09-.05.108-.05.257 0 .149.05.248.05.116.15.1.181-.042.28.016.083.041.124.19zM75.946 23.528v2.613q0 .1-.132.124-.099.008-.28-.017-.108-.033-.175.083-.05.1-.05.256 0 .166.05.265.067.124.174.107.488-.024.827-.024.347 0 .694.024.116.025.182-.099.066-.099.066-.264 0-.166-.066-.265-.066-.116-.182-.083-.148.042-.24.025-.107-.025-.107-.132v-2.513q.215-.249.496-.38.33-.15.736-.15.364 0 .53.14.181.158.181.522v2.38q0 .1-.083.117-.05.016-.19-.008-.149-.042-.231.082-.075.1-.075.273 0 .166.083.265.083.124.223.09.554-.024.81-.024.265 0 .637.025.132.024.207-.091.074-.108.074-.273 0-.165-.074-.273-.075-.116-.207-.074-.231.05-.322.024-.091-.024-.091-.132V23.57q0-.595-.397-.91-.356-.272-.951-.272-.43 0-.76.124-.207.074-.414.223l-.025.008q-.082.058-.116.041-.05-.033-.033-.223-.314.025-.628.025-.29 0-.554-.025-.107-.033-.174.074-.05.1-.05.265 0 .157.05.264.067.116.174.108.182-.025.281.016.132.058.132.24zM84.454 23.446v2.57q0 .158-.165.216-.157.058-.439.025-.124-.042-.19.074-.058.1-.058.256 0 .166.058.273.066.124.19.108.273-.05 1.017-.05.744 0 1.72.05.165.016.265-.1.082-.107.082-.272 0-.157-.082-.265-.1-.107-.265-.074-.273.024-.53.04-.272.009-.586 0-.132 0-.19-.057-.066-.066-.066-.223v-2.571q0-.174.231-.215.256-.042 1.166.008.165.008.273-.108.09-.1.09-.248 0-.157-.09-.256-.108-.116-.273-.1-.926.042-1.166.017-.231-.033-.231-.19v-.29q0-.289.28-.462.249-.158.613-.158.24 0 .446.017.24.033.43.09.14.042.256-.049.116-.074.157-.223.042-.149-.008-.264-.066-.133-.223-.166-.322-.066-.52-.09-.232-.026-.538-.026-.885 0-1.298.39-.356.338-.356.942v.289q0 .14-.182.174-.107.016-.396 0-.133-.017-.215.099-.067.099-.067.248t.067.256q.082.116.215.108.28-.017.396.008.182.04.182.198zM90.274 22.387q-1.107 0-1.736.728-.562.653-.562 1.637 0 .967.562 1.62.629.728 1.736.728 1.1 0 1.728-.728.563-.653.563-1.62 0-.984-.563-1.637-.628-.728-1.728-.728zm0 .711q.72 0 1.133.505.364.446.364 1.14 0 .679-.364 1.133-.413.513-1.133.513-.735 0-1.149-.513-.355-.454-.355-1.132 0-.695.355-1.141.405-.505 1.15-.505zM94.21 23.42l1 1.233-1.149 1.413q-.14.133-.24.166-.09.041-.223.016-.116-.016-.174.091-.057.1-.057.248 0 .157.057.257.058.115.174.115.397-.025.711-.025.24 0 .72.025.148 0 .23-.115.075-.108.067-.257-.016-.157-.124-.248-.124-.116-.322-.09l.768-1.01.761 1.01q-.165-.025-.273.082-.09.09-.099.248-.016.149.05.265.066.115.19.115.322-.024.785-.024.364.008.612.024.132 0 .207-.124.074-.107.074-.264 0-.157-.074-.248-.075-.108-.207-.075-.182.033-.273-.016-.066-.033-.165-.166l-1.141-1.413 1-1.232q.14-.149.224-.182.074-.033.24-.017.123.008.198-.107.074-.1.074-.248 0-.149-.074-.248-.075-.108-.199-.091-.372.025-.661.033-.323 0-.67-.033-.116-.017-.182.09-.074.1-.074.249t.074.248q.091.107.248.107l-.645.852-.636-.852q.132.025.223-.082.091-.1.1-.257.007-.157-.075-.256-.091-.116-.273-.1-.38.017-.628.026-.356 0-.678-.025-.1-.017-.15.09-.049.1-.049.249t.05.248q.05.107.149.107.19 0 .322.05.116.05.207.149zM7.994 30.484q-.273 0-.43.173-.14.157-.14.389 0 .223.14.38.157.182.43.182t.43-.182q.149-.157.149-.38 0-.232-.15-.389-.156-.173-.43-.173zm-.265 2.728v2.62q0 .43-.223.654-.215.223-.637.223-.231 0-.438-.058-.165-.05-.438-.165-.124-.041-.223.041-.083.083-.108.232-.025.149.025.264.066.141.207.19l.09.025q.282.091.422.124.248.058.546.058.678 0 1.116-.463.422-.43.422-1.05v-3.596q-.645.05-1.29.05t-.752-.05q-.15-.033-.24.09-.083.108-.083.274 0 .165.083.272.09.116.24.091l.074-.008q.612-.033.835-.008.372.025.372.19zM10.284 33.22v2.307q0 .604.38.976.405.38 1.133.38.33 0 .587-.083.215-.066.438-.215.091-.058.14-.016.059.033.092.182.289-.025.611-.025.323 0 .546.025.116.024.19-.091.066-.108.066-.273 0-.165-.066-.265-.074-.115-.19-.082h-.041q-.223.04-.306.008-.132-.042-.132-.248v-3.49q-.29.025-.629.025t-.554-.024q-.124-.017-.19.099-.058.099-.058.248t.058.248q.066.107.19.1.207-.042.306-.009.116.041.116.174v2.414q-.19.29-.504.438-.29.149-.678.149-.298 0-.496-.124-.248-.157-.248-.496V32.31q-.24.016-.612.016-.397 0-.57-.016-.108-.017-.174.09-.05.1-.05.257 0 .149.05.248.066.108.173.1.19-.042.298.007.124.05.124.207zM15.873 33.253v2.588q0 .149-.149.182-.09.025-.355 0h-.025q-.116-.033-.182.083-.058.099-.058.256t.058.265q.066.124.182.107.52-.025.868-.025.339 0 .637.025.124.008.198-.116.066-.107.066-.256 0-.157-.066-.256-.074-.108-.198-.083-.124.017-.174-.025-.05-.041-.041-.157v-2.364q.099-.306.297-.447.215-.149.612-.149.29 0 .43.174.116.14.116.422v2.364q0 .149-.083.19-.058.025-.165 0-.157-.033-.248.075-.083.099-.083.264 0 .157.074.265.091.124.24.107.223-.024.612-.024.422 0 .686.024.132 0 .215-.124.075-.107.075-.264 0-.157-.075-.248-.083-.108-.215-.075-.157.033-.215 0-.058-.033-.058-.19v-2.38q.033-.282.232-.423.223-.157.636-.157.306 0 .455.166.132.149.132.446v2.348q0 .132-.057.166-.042.033-.157.024-.125-.024-.199.091-.066.1-.058.257 0 .157.066.256.075.116.199.107.397-.024.76-.024.298 0 .678.024.133.017.224-.099.074-.1.074-.256 0-.166-.074-.265-.091-.115-.224-.09-.264.032-.363-.009-.108-.04-.108-.182V33.37q0-.562-.339-.885-.33-.314-.868-.314-.57 0-.885.108-.223.074-.421.264-.116-.165-.314-.264-.24-.108-.53-.108-.413 0-.653.042-.173.04-.33.124-.19.099-.207.099-.017 0 0-.108l-.182.008q-.256.008-.413.008-.29.008-.58-.016-.115-.033-.181.083-.058.099-.058.256t.058.264q.066.116.182.108.264-.025.388.033.133.05.14.182zM25.174 32.881q.579 0 .918.463.306.43.306 1.1 0 .661-.306 1.083-.34.471-.918.471-.595 0-.934-.471-.306-.422-.306-1.083 0-.67.306-1.1.339-.463.934-.463zm-1.976 4.142q0 .141-.107.182-.083.033-.265.008-.14-.033-.223.083-.075.1-.075.256 0 .157.075.265.083.116.223.09.496-.024 1.133-.024.636 0 .934.025.174.016.265-.1.074-.107.066-.272-.009-.157-.1-.256-.099-.116-.23-.083-.406.041-.621.025-.314-.017-.314-.157v-.794q.215.207.57.322.323.116.67.116.942 0 1.488-.686.505-.629.505-1.58 0-.958-.505-1.587-.546-.686-1.488-.686-.298 0-.579.074-.157.05-.388.141-.166.074-.207.074-.066-.008-.05-.132-.372.025-.636.025-.265 0-.513-.025-.14-.016-.223.108-.075.115-.075.272 0 .158.075.257.083.107.223.082.207 0 .273.017.1.033.1.157zM30.06 32.17q-.9 0-1.347.43-.356.356-.356.918 0 .769.67 1.108.48.248 1.257.248.554 0 .81.165.248.157.248.48 0 .322-.256.48-.273.173-.86.173-.62 0-.918-.223-.306-.232-.281-.72.008-.107-.124-.165-.124-.05-.298-.033-.182.016-.28.09-.108.084-.059.216.058.273.066.628 0 .364-.057.604-.042.132.066.215.099.074.264.09.157.009.281-.033.133-.05.133-.132-.009-.09.05-.1.04 0 .19.059.24.09.405.132.297.083.628.083.975 0 1.43-.389.405-.339.405-.975 0-.728-.454-1.067-.406-.298-1.183-.298-.71 0-1.05-.19-.297-.157-.297-.454 0-.315.24-.48.24-.149.694-.149.587 0 .843.199.232.19.24.62-.017.115.124.182.124.05.306.033.174-.017.281-.091.116-.091.074-.207-.066-.248-.074-.562-.008-.364.074-.62.042-.091-.066-.165-.099-.058-.273-.083-.165-.033-.297-.008-.132.025-.132.107.008.1-.042.108-.041 0-.182-.05-.206-.074-.355-.116-.256-.057-.538-.057zM38.237 32.17q-1.108 0-1.736.728-.562.653-.562 1.637 0 .967.562 1.62.628.728 1.736.728 1.1 0 1.728-.728.562-.653.562-1.62 0-.984-.562-1.637-.628-.728-1.728-.728zm0 .711q.72 0 1.133.505.364.446.364 1.14 0 .679-.364 1.133-.413.513-1.133.513-.736 0-1.149-.513-.356-.454-.356-1.132 0-.695.356-1.141.405-.505 1.15-.505zM41.983 33.229l1.306 3.216q.157.438.48.438.322 0 .479-.438l1.306-3.216q.075-.182.166-.215.082-.042.322-.008.107.008.165-.108.058-.1.058-.248-.008-.149-.066-.248-.058-.107-.157-.09-.356.04-.794.04-.43 0-.793-.04-.116-.017-.19.09-.058.1-.058.248 0 .149.057.248.067.108.19.108.19-.017.249.024.066.05.024.199l-.876 2.158q-.058.14-.083.14-.033 0-.082-.14l-.877-2.158q-.041-.166.025-.207.05-.025.19-.025l.009.008q.107.008.173-.099.066-.1.066-.248.009-.149-.058-.248-.066-.107-.181-.09-.306.024-.753.024-.471 0-.736-.025-.115-.016-.182.091-.066.1-.057.248 0 .149.057.248.075.108.199.1.198-.025.29.024.074.05.132.199zM49.076 32.17q-1.008 0-1.587.728-.521.661-.521 1.637 0 .959.52 1.62.58.728 1.588.728.695 0 1.125-.14.47-.158.876-.555.132-.14.124-.297-.008-.132-.116-.24-.107-.1-.248-.107-.157-.008-.273.115-.314.298-.587.397-.305.116-.9.116-.571 0-.927-.422-.297-.364-.372-.95.33-.034 1.488-.025.72 0 1.919.024l.008-.264q0-.976-.53-1.637-.578-.728-1.587-.728zm0 .711q.546 0 .893.372.29.315.38.81-.636.025-1.264.025-.546 0-1.265-.024.082-.505.38-.819.339-.364.876-.364zM52.797 33.32v2.57q0 .166-.166.174-.099.008-.297-.04-.15-.034-.232.082-.074.107-.074.273 0 .165.074.272.083.116.232.083.364-.025 1.1-.025.735 0 1.256.025.198.033.322-.083.116-.107.116-.272 0-.166-.116-.273-.124-.116-.322-.083h-.05q-.57.058-.768.05-.315-.017-.315-.182v-1.91q.538-.546.877-.802.38-.281.612-.281.206 0 .297.124.1.149.108.529 0 .165.124.265.115.09.28.082.166-.008.282-.115.124-.116.124-.298-.008-.587-.33-.95-.315-.348-.761-.348-.364 0-.662.124-.28.124-.661.446l-.075.05q-.14.116-.173.066-.042-.074-.042-.53-.355.026-.67.026-.313 0-.553-.025-.15-.033-.232.09-.074.108-.074.274 0 .165.074.264.083.116.232.075l.016-.008q.199-.008.29.024.157.058.157.257zM60.544 33.328v2.216q0 .62.372.975.38.364 1.074.364.604 0 .935-.149.504-.231.843-.91.074-.165 0-.297-.066-.124-.223-.19t-.298-.041q-.149.016-.19.132-.149.372-.38.554-.248.19-.629.19-.405 0-.578-.19-.166-.182-.166-.57v-2.084q0-.199.033-.248.033-.058.166-.058.24-.025.653-.025.413 0 .785.025.15.008.232-.108.083-.107.083-.256 0-.157-.083-.256-.083-.108-.232-.091-.355.025-.719.025-.314 0-.72-.025-.156.008-.19-.124-.024-.1-.007-.57l.024-.521q.025-.15-.107-.232-.116-.074-.29-.074-.181 0-.297.074-.124.083-.091.232.041.785-.05 1.008-.082.223-.413.207-.14-.017-.223.1-.075.107-.075.255 0 .158.075.257.082.115.223.099.24-.025.355.041.108.075.108.265zM65.231 31.608v4.233q0 .166-.09.199-.05.024-.224-.008l-.09-.008q-.133-.033-.216.082-.066.1-.066.257t.066.264q.083.124.215.108.372-.025.786-.025.364 0 .736.025.115.016.19-.1.066-.099.066-.256 0-.165-.066-.264-.075-.116-.19-.091l-.124.008q-.14.025-.182 0-.05-.033-.05-.19v-2.415q.265-.297.521-.413.29-.132.711-.132.298 0 .455.14.19.174.19.57v2.25q0 .157-.116.19-.066.025-.223 0h-.066q-.132-.017-.207.099-.058.107-.058.256 0 .157.066.257.075.115.199.099.422-.033.835-.033.372 0 .785.033.133.016.215-.1.075-.107.075-.264 0-.165-.075-.265-.082-.115-.215-.082l-.082.008q-.199.024-.265 0-.1-.033-.1-.199v-2.356q0-.695-.363-1.017-.339-.298-1.05-.298-.339 0-.67.108-.339.107-.562.306v-1.935q-.339.05-.67.05-.297-.008-.496-.05-.132-.016-.214.1-.067.098-.067.256 0 .148.067.248.082.115.214.107.19-.041.29.008.116.066.116.24zM72.267 32.17q-1.008 0-1.587.728-.521.661-.521 1.637 0 .959.52 1.62.58.728 1.588.728.695 0 1.125-.14.471-.158.876-.555.132-.14.124-.297-.008-.132-.116-.24-.107-.1-.248-.107-.157-.008-.273.115-.314.298-.587.397-.305.116-.9.116-.571 0-.927-.422-.297-.364-.372-.95.331-.034 1.488-.025.72 0 1.919.024l.008-.264q0-.976-.53-1.637-.578-.728-1.587-.728zm0 .711q.546 0 .893.372.29.315.38.81-.636.025-1.264.025-.546 0-1.265-.024.082-.505.38-.819.339-.364.876-.364zM79.444 31.492v4.448q0 .124-.43.14-.33.009-.678-.04-.14-.042-.223.074-.075.1-.075.256 0 .166.075.273.082.124.223.108.372-.05 1.314-.05.943 0 1.522.05.165.016.264-.108.083-.099.083-.264 0-.157-.083-.257-.099-.115-.264-.082-.447.05-.653.04-.315-.016-.315-.14v-5.283q-.545.05-.967.05-.43 0-.711-.05-.149-.025-.24.091-.082.108-.082.265 0 .165.082.273.091.115.24.09.356-.057.595-.04.323.016.323.156zM85.306 36.536l.099-.108.05.116q.032.107.065.14.058.067.174.067l.53-.025q.297 0 .454.025.116.016.19-.091.058-.108.058-.265 0-.157-.058-.264-.074-.116-.19-.1-.24.05-.33.033-.15-.033-.15-.206v-2.216q0-.777-.603-1.174-.471-.298-1.108-.298-.537 0-.984.124-.488.14-.851.422-.141.1-.158.265-.016.14.067.272.074.124.206.158.14.033.281-.075.298-.231.67-.347.356-.108.769-.108.43 0 .703.306.248.273.248.637-.207-.041-.57-.058-.315-.016-.522-.016-.91 0-1.438.405-.554.43-.554 1.207 0 .71.397 1.108.413.413 1.19.413.488 0 .86-.107.33-.091.504-.249zm.132-1.083q-.223.297-.604.496-.421.223-.893.223-.363 0-.587-.232-.215-.223-.215-.578 0-.364.29-.604.355-.298 1.091-.298.124 0 .397.017.281.025.52.058zM89.91 33.212l-2.256 2.786q-.207.24-.116.496.09.257.413.248.496-.033 1.34-.024.661 0 1.496.024.199.017.306-.016.132-.041.116-.165-.017-.24-.008-.604.008-.281.033-.72.016-.148-.116-.23-.116-.075-.29-.075-.181 0-.289.074-.124.083-.09.232v.082q.024.397-.025.513-.075.165-.405.198-.81.034-1.05.008-.323-.033-.199-.206l2.406-2.968q.165-.232.008-.406-.149-.173-.504-.148-.546.016-1.249.016-.703 0-1.389-.016-.28-.033-.355.016-.083.041-.05.215.033.199.033.595 0 .356-.025.67-.024.132.1.223.107.075.272.075.174 0 .282-.075.132-.09.115-.223-.024-.38.017-.546.058-.256.29-.256l.33-.008q.603-.016.76.008.24.033.1.207zM92.697 33.237l1.19 3.075-.372.736q-.066.124-.355.15-.157.016-.496 0l-.19-.009q-.1-.025-.166.083-.05.107-.05.264 0 .157.05.265.066.116.166.107.52-.04 1.066-.04.554 0 1.298.04.157.008.24-.107.074-.1.066-.265-.008-.157-.09-.256-.092-.116-.216-.09-.355.032-.438 0-.1-.042-.008-.216l1.935-3.737q.05-.14.149-.19.099-.058.28-.041.116.016.19-.091.067-.1.067-.256 0-.15-.066-.249-.075-.115-.19-.099-.306.033-.77.033-.47 0-.892-.033-.124-.016-.199.091-.057.1-.057.24 0 .149.057.248.075.116.199.116.248-.017.33.033.091.058.042.198l-1.116 2.175-.835-2.175q-.075-.157-.008-.206.058-.042.289-.025.124 0 .207-.116.066-.1.066-.248 0-.149-.066-.248-.083-.108-.207-.083-.314.033-.777.033-.356-.008-.77-.033-.115-.016-.18.1-.067.099-.067.247 0 .141.058.24.066.116.19.108.24-.025.314.016.058.033.124.207zM103.767 31.608v1.009q-.215-.215-.562-.34-.322-.107-.661-.107-.951 0-1.497.72-.496.653-.496 1.645 0 .967.496 1.62.546.728 1.497.728.397 0 .727-.14.257-.108.472-.282.033-.041.05-.025.007.008.016.058.016.1.05.14.065.075.214.067.24-.025.447-.025.206 0 .364.025.132.017.223-.1.074-.107.074-.264 0-.165-.074-.264-.091-.116-.223-.091-.19.025-.273-.017-.083-.05-.083-.165v-5.167q-.339.066-.802.066-.455 0-.918-.05-.149-.016-.24.1-.074.107-.074.272 0 .157.075.256.09.116.24.091.52-.033.702 0 .256.05.256.24zm-1.198 1.273q.587 0 .926.496.314.455.314 1.158 0 .686-.314 1.14-.34.497-.926.497-.587 0-.926-.496-.298-.455-.298-1.141 0-.703.298-1.158.339-.496.926-.496zM108.24 32.17q-1.108 0-1.736.728-.562.653-.562 1.637 0 .967.562 1.62.628.728 1.736.728 1.1 0 1.728-.728.562-.653.562-1.62 0-.984-.562-1.637-.628-.728-1.728-.728zm0 .711q.72 0 1.133.505.364.446.364 1.14 0 .679-.364 1.133-.413.513-1.133.513-.736 0-1.149-.513-.355-.454-.355-1.132 0-.695.355-1.141.405-.505 1.15-.505zM115.442 36.238v-3.034q0-.124.107-.149.074-.017.347-.017l.033.008q.133.025.207-.09.074-.1.074-.257t-.074-.264q-.074-.124-.207-.108-.347.025-.62.025-.28 0-.636-.025.008.132-.05.149-.041 0-.19-.066-.223-.108-.389-.157-.29-.083-.595-.083-.95 0-1.505.67-.496.603-.496 1.488t.496 1.497q.554.686 1.505.686.347 0 .637-.1.33-.099.595-.314v.133q0 .446-.347.71-.356.282-.992.282-.224 0-.58-.083-.338-.066-.528-.149-.157-.074-.281-.008-.124.058-.174.199-.058.132-.017.273.05.157.207.24.24.123.628.19.323.049.745.049.884 0 1.471-.446.629-.472.629-1.249zm-1.968-3.357q.579 0 .918.439.305.405.305 1.008 0 .595-.305 1.009-.34.463-.918.463-.587 0-.926-.463-.306-.414-.306-1.009 0-.603.306-1.008.339-.439.926-.439zM7.779 44.66q-.968 0-1.48.966-.455.852-.455 2.224 0 1.348.455 2.208.512.967 1.48.967.95 0 1.471-.967.463-.86.463-2.208 0-1.364-.463-2.224-.52-.967-1.471-.967zm0 .71q.587 0 .884.744.265.645.265 1.728 0 1.075-.265 1.72-.297.752-.884.752-.595 0-.893-.752-.256-.645-.256-1.72 0-1.083.256-1.728.298-.744.893-.744zM12.343 45.957v4.051q0 .19-.455.207-.265.017-.752-.041-.15-.025-.232.099-.074.107-.066.264.008.166.1.265.107.116.272.083.603-.042 1.496-.042.835.008 1.571.042.157.016.248-.1.075-.099.066-.256-.008-.165-.09-.264-.1-.116-.24-.091h-.017q-.587.066-.794.05-.347-.017-.347-.207V44.8q-.421.066-.9.066-.456 0-.985-.066-.157-.025-.248.09-.083.108-.083.265 0 .166.1.265.099.116.29.09.586-.04.801.034.265.09.265.413zM15.732 50.33v.298q-.016.182.124.298.116.1.298.108.182-.008.306-.108.132-.116.116-.298l-.009-.016q-.024-.19-.008-.298.017-.198.132-.273.323.025.563.158.148.082.38.289.207.19.347.273.223.149.504.231.488.108.786-.116.306-.231.306-.752v-.066q0-.356-.033-.48-.05-.181-.232-.272-.306-.157-.562-.025-.273.132-.14.43.124.264.099.405-.033.132-.19.083-.1-.034-.199-.1-.058-.04-.173-.148-.19-.166-.331-.248-.24-.15-.57-.232 1.082-.76 1.587-1.538.48-.719.48-1.488 0-.91-.48-1.356-.463-.43-1.39-.43-.768 0-1.248.43-.545.48-.496 1.331.017.29.15.414.156.157.479.074.206-.083.264-.223.066-.166-.033-.48-.083-.355.165-.595.265-.24.77-.24.504 0 .76.232.273.248.273.802 0 .578-.356 1.14-.372.604-1.165 1.224l-.497.356q-.47.33-.603.504-.19.256-.174.703zM22.032 47.33q-.132-.025-.215.09-.066.1-.066.257t.066.264q.083.108.215.091.852-.058 1.298.207.455.281.455.893 0 .645-.372.934-.314.248-.926.248-.562 0-.802-.182-.28-.206-.24-.678.009-.157-.115-.248-.116-.074-.281-.074-.166 0-.282.074-.124.091-.124.248 0 .819.563 1.224.48.347 1.281.347.926 0 1.488-.488.587-.512.587-1.405 0-.678-.256-1.042-.29-.405-.992-.612l1.224-2.1q.165-.33.04-.471-.123-.14-.487-.107-.554.04-1.455.04-.91.009-1.306-.032-.298-.033-.389.041-.066.058-.033.273.025.306.025.529 0 .256-.025.53-.025.14.091.23.107.075.265.075.157 0 .264-.074.124-.091.116-.232l-.017-.165q-.008-.273.009-.364.024-.14.14-.14h1.654q.099 0 .09.066-.008.05-.107.223l-.777 1.34q-.074.123-.157.156-.1.033-.447.033zM27.688 44.924l-2.191 3.63q-.174.289-.05.561.124.29.496.273.306-.041.794-.05.397 0 .884.025.19.008.24.124.025.075.017.34l-.009.181q0 .157-.264.182-.157.017-.513-.016-.157-.042-.248.066-.082.09-.082.256 0 .157.082.273.083.124.215.116.521-.058 1.133-.058.504.008 1.15.058.14.025.239-.083.09-.107.1-.265.007-.173-.075-.272-.091-.124-.273-.1-.496.042-.612-.09-.09-.1-.083-.513l.009-.074q0-.1.14-.116.091-.008.347.008l.133.008q.099.016.165-.108.058-.115.058-.273-.008-.165-.074-.272-.083-.116-.224-.091h-.016q-.265.041-.372.025-.174-.025-.174-.182v-3.473q0-.165-.124-.264-.116-.083-.29-.091-.165-.008-.313.058-.158.074-.215.206zm-1.24 3.53 1.421-2.365v2.34q0 .182-.165.215-.157.041-.876.041-.306 0-.372-.033-.075-.041-.009-.198zM30.887 45.23v2.538q-.008.339.174.421.165.075.297-.057.182-.207.48-.298.256-.075.612-.075.504 0 .81.34.306.338.306.9 0 .58-.33.943-.34.372-.869.372-.471 0-.694-.132-.248-.14-.281-.471-.017-.174-.15-.265-.123-.09-.28-.074-.166.008-.273.107-.124.116-.108.306.033.62.538.943.47.297 1.273.297.942 0 1.472-.636.48-.58.48-1.472 0-.868-.555-1.389-.512-.48-1.29-.48-.181 0-.355.05-.1.025-.256.091-.15.066-.182.058-.058-.017-.058-.166V45.85q0-.199.066-.257.066-.05.314-.05h1.05q.199 0 .256.042.067.05.067.223v.133q-.009.05-.017.148l-.008.215q-.017.133.107.207.116.074.281.066.157-.016.265-.09.116-.092.1-.232-.034-.24-.026-.579 0-.339.05-.876-.777.04-1.612.04-.819 0-1.15-.032-.248-.025-.38.09-.124.108-.124.331zM38.469 49.041q0 .637-.232.95-.24.323-.744.323-.579 0-.868-.446-.281-.447-.306-1.364.149-.364.455-.554.297-.182.72-.182.495 0 .743.347.232.322.232.926zm-.546-4.382q-1.323 0-1.926 1.174-.463.91-.463 2.398 0 1.653.578 2.298.447.496 1.381.496.819 0 1.282-.52.48-.538.48-1.514 0-.9-.48-1.422-.463-.512-1.249-.512-.372 0-.653.074-.273.083-.53.256.158-1.05.547-1.537.38-.48 1.041-.48.34 0 .48.207.09.124.14.455.017.157.157.24.141.065.306.032.174-.033.281-.157.116-.14.083-.33-.09-.546-.446-.844-.38-.314-1.009-.314zM40.436 44.915l-.008.025.017.273q.024.455.024.678.009.356-.024.678 0 .157.124.231.107.067.273.05.157-.016.264-.09.116-.084.1-.191-.017-.207-.017-.38 0-.157.008-.372.025-.182.066-.24.058-.091.207-.066l.422.033q.124.008.347.008.273.008.397.025.198.024.372.09.132.092.132.182 0 .116-.165.38-.819 1.448-1.125 2.597-.198.71-.273 1.802-.024.182.116.298.116.099.306.099t.322-.1q.141-.115.141-.297-.041-1.215.306-2.249.248-.735 1.025-2.141.207-.314.364-.711.149-.38.149-.612 0-.116-.14-.182-.125-.058-.298-.074-.174-.008-.306.033-.133.041-.133.116 0 .107-.008.182-.016.09-.05.182-.181-.158-.587-.215-.24-.042-.76-.067-.422-.016-.595-.04-.298-.034-.43-.108-.174-.1-.356-.075-.231.025-.207.248zM49.225 49.19q0-.587-.248-.984-.182-.314-.53-.53.282-.198.423-.504.165-.347.165-.826 0-.893-.537-1.323-.455-.364-1.232-.364-.786 0-1.24.364-.53.43-.53 1.323 0 .48.157.826.141.306.43.505-.355.215-.537.529-.24.397-.24.984 0 .86.496 1.34.513.495 1.464.495.942 0 1.455-.496.504-.48.504-1.34zm-3.133.025q0-.604.347-.902.306-.256.827-.256.512 0 .818.256.356.298.356.902 0 .545-.372.843-.323.256-.802.256-.488 0-.802-.256-.372-.298-.372-.843zm.19-2.853q0-.52.273-.769.248-.223.71-.223.455 0 .703.223.281.248.281.77 0 .487-.28.743-.257.24-.703.24-.455 0-.711-.24-.273-.256-.273-.744zM51.185 46.784q0-.703.214-1.058.232-.356.712-.356.57 0 .843.471.248.447.28 1.439-.156.355-.446.546-.289.19-.686.19-.471 0-.703-.347-.214-.315-.214-.885zm.975-2.125q-.885 0-1.323.521-.446.537-.446 1.662 0 .827.446 1.347.472.546 1.24.546.348 0 .629-.1.297-.09.529-.288-.05.793-.422 1.389-.364.578-.793.578-.356 0-.496-.099-.182-.132-.207-.513-.025-.165-.157-.248-.133-.074-.29-.05-.165.026-.272.133-.108.124-.083.314.058.579.455.893.363.281.942.281 1.009 0 1.563-.9.545-.877.545-2.415.009-1.86-.545-2.555-.414-.496-1.315-.496z"/></svg>