<?xml version="1.0" encoding="utf-8"?>
<!-- Generator: Adobe Illustrator 14.0.0, SVG Export Plug-In . SVG Version: 6.00 Build 43363)  -->
<!DOCTYPE svg PUBLIC "-//W3C//DTD SVG 1.1//EN" "http://www.w3.org/Graphics/SVG/1.1/DTD/svg11.dtd">
<svg version="1.1" id="Layer_1" xmlns="http://www.w3.org/2000/svg" xmlns:xlink="http://www.w3.org/1999/xlink" x="0px" y="0px"
	 width="516.117px" height="1621.934px" viewBox="0 0 516.117 1621.934" enable-background="new 0 0 516.117 1621.934"
	 xml:space="preserve">
<g id="XMLID_2_">
	<g>
		<path d="M472.951,1565.023c9.44-1.188,45.43,25.25,43,37c-2.31,11.17-51.12,7-72,7c-30.3,0-58.6-0.25-86,1
			c-46.81,2.13-88.05-1.96-130,2c-2.37-6.63-5.16-12.84-7-20c24.82,3.85,53.91,3.42,82,4c1.21-18.88-0.56-43.438-11-54
			c-9.01,2.54-20.32,7.38-32,4c-8.1-7.04-4.54-19.21-4-31c1.109-24.34-0.07-57.51-5-78c20.92,1.75,50.62,3.38,64,16c30,0,60,0,90,0
			c9.18-3.04,13.21-27.13,26-25c15.45,2.58,67.17,26.21,36,40c-4.22,18.65,5.56,37.6,2,51c-3.26,12.25-20.56,12.35-36,14
			c1.8,4.25,10.1,4.68,10,11c-0.06,4.25-7.57,7.58-10,11c-7.82,11.021-12.77,32.271-18,41c9,0,18,0,27,0c7.3-5.76,9.62-9.65,15-16
			C460.432,1575.913,465.871,1565.913,472.951,1565.023z M420.951,1530.023c1.18-1.25-3.95-4.67-2-10c-38.67,0-77.33,0-116,0
			c0.67,5.67-0.91,9.09-2,13c22.75,8.53,49.14,31.55,36,63c16,0,32,0,48,0c4.05-22.88,6.39-50.77,7-74
			C402.501,1523.804,411.231,1527.403,420.951,1530.023z M419.951,1506.023c0-13.33,0-26.67,0-40c-39.67,0-79.33,0-119,0
			c-3.04,12.39,1.32,26.01,0,40C340.621,1506.023,380.281,1506.023,419.951,1506.023z"/>
		<path d="M507.951,624.023c0.11,11.21-10.3,11.91-20,19c-2,84.31,2,182.54,2,268c0,30.271,3.54,60.15,2,88
			c-1.15,20.79-8.59,34.271-22,44c-12.46,9.04-50.3,24.14-67,11c-6.91-5.439-6.6-13.83-11-23c-4.7-9.8-17.64-9.6-17-21
			c15.29-4.55,34.11,6.311,52,0c20.41-7.2,14.5-58.96,15-84c1.92-96.92-0.12-200.23-1-291c-26.93-2.73-59.96,0.63-87-2
			c-5.6,107.38,4.61,223.83-27,304c-24,60.87-73.55,103.59-129,135c-6.641,3.76-16.529,13.35-25,6c0.779-11.62,14.02-14.35,21-19
			c55.04-36.7,102.04-83.62,115-165c15.02-94.34,2.47-208.14-7-301c23.44,8.56,59.84,4.16,69,27c20.27-4.46,38.18,6.05,59,0
			c11.39-3.31,18.68-30.08,30-30C471.581,590.104,507.831,611.153,507.951,624.023z"/>
		<path d="M449.951,1.023c13.49-0.4,58.41,28.86,58,43c-0.28,9.84-9.46,11.46-14,19c1.07,103.96-0.66,209.49,3,312
			c0.88,24.78,3.75,48.92-8,63c-11.65,13.96-50.74,31.6-69,19c-9.01-6.22-3.08-14.04-11-24c-3.62-4.55-8.97-5.99-14-8
			c-1.43-0.57-13.84-2.76-13-9c1.05-7.81,44.37-5.31,51-9c13.64-7.6,12-39.8,12-64c0-21.68,1.62-40.77,1-61
			c-36.67-2.33-77.67-0.33-116-1c-11.79,104.99-67.05,159.65-153,195c-4.529,1.86-31.93,15.62-35,6c-2.79-8.75,26-18.43,31-21
			c61.55-31.6,96.96-72.66,111-152c16.24-91.75,7.53-211.66-6-299c23.49,5.55,61.07,2.21,66,23c25.33,0,50.67,0,76,0
			C430.432,27.974,437.251,1.403,449.951,1.023z M445.951,146.023c0.14-34.47-0.19-68.48-3-100c-37,0-74,0-111,0
			c-0.47,29.81,0.33,67,0,100C369.951,146.023,407.951,146.023,445.951,146.023z M445.951,267.023c0-35.33,0-70.67,0-106
			c-37.67,0-75.33,0-113,0c-2.01,33.34-0.52,75.46-2,106C369.281,267.023,407.621,267.023,445.951,267.023z"/>
		<path d="M461.951,1377.023c11,3.3,44.25,24.74,40,37c-3.58,10.34-48.45,6-62,6c-68.23,0-134.14,0.49-198,3
			c-5.87-3.8-6.08-13.25-9-20c41.07,5.42,99.73,4,153,4c14.74,0,32.8,2.68,42,0C437.631,1404.214,450.671,1373.644,461.951,1377.023
			z"/>
		<path d="M458.951,1199.023c8.04-0.7,33.75,18.12,33,28c-0.63,8.3-10.2,7.97-15,14c1.34,22.55-0.39,63.45,1,95
			c0.34,7.69,2.96,21.28,0,28c-5.01,11.38-46.25,21.72-45-3c-49.67,0-99.33,0-149,0c1.87,20.28-20.35,25.75-38,20
			c-4.859-5.47-2.439-18.229-3-28c-23.82-0.49-30.609,16.061-51,19c-4.82-9.439,4.26-19.72,5-30c-45.67-2.33-95.67-0.33-143-1
			c3.029,11.93,6.75,23.64,2,34c-8.5,18.53-45.63,17.17-40-8c2.2-9.83,13.91-11.38,16-21c2.43-11.189-5.92-15.14-6-26
			c11.34-2.71,13.26,11.86,27,10c0.57-45.57,4.689-103.36-4-143c19.23,0.11,41.09,6.25,58,12c1.439,2.22,2.51,4.82,2,9
			c12.311-2.6,24.48,3.521,39,0c10.27-2.49,18.16-18.99,26-20c15.23-1.95,55.311,30.28,24,39c0,34,0,68,0,102
			c4.93-1.9,6.891-11.28,14-12c10.939-1.1,22.33,14.14,31,18c2.029-43.04,1.42-92.08-1-134c16.141,4.86,39.72,2.28,46,17
			c5.33,0,10.67,0,16,0c0.91-16.57-1.56-29.77-2-45c19.55,1.65,67.33,7,40,25c0,6.67,0,13.33,0,20c9.67,0,19.33,0,29,0
			c-1.1-14.57-1.02-30.32-3-44c19.59,0.66,69.62,7.04,41,25c0,6.33,0,12.67,0,19c8.46-1.82,17,2.47,26,0
			C444.321,1215.453,450.671,1199.743,458.951,1199.023z M435.951,1282.023c0.5-18.83-1.77-34.89-1-54c-8.33,0-16.67,0-25,0
			c-2.77,16.82,1.42,35.21,0,54C418.621,1282.023,427.281,1282.023,435.951,1282.023z M435.951,1293.023c-8.67,0-17.33,0-26,0
			c-0.74,20.07,1.61,37.05,1,57c7.67,0,15.33,0,23,0C435.861,1332.264,434.261,1310.993,435.951,1293.023z M371.951,1282.023
			c0.52-18.85-0.57-36.1-1-54c-9.33,0-18.67,0-28,0c0,18,0,36,0,54C352.621,1282.023,362.281,1282.023,371.951,1282.023z
			 M371.951,1350.023c0-19,0-38,0-57c-9.33,0-18.67,0-28,0c0.57,18.76-1.2,39.87,1,57
			C353.951,1350.023,362.951,1350.023,371.951,1350.023z M305.951,1349.023c0-18.67,0-37.33,0-56c-8.33,0-16.67,0-25,0
			c0.13,19.2-0.56,39.22,1,57C289.711,1349.443,299.831,1351.233,305.951,1349.023z M279.951,1282.023c8.33,0,16.67,0,25,0
			c-0.65-17.689,1.31-37.97-1-54c-8,0-16,0-24,0C279.951,1246.023,279.951,1264.023,279.951,1282.023z M157.951,1330.023
			c-0.45-18.45,1.779-34.22,1-53c-6.67,0-13.33,0-20,0c-0.779,18.78,1.45,34.55,1,53
			C145.951,1330.023,151.951,1330.023,157.951,1330.023z M158.951,1267.023c0-15.67,0-31.33,0-47c-23,0-46,0-69,0
			c1.84,35.49,0.74,73.92,2,110c5,0,10,0,15,0c0.92-25.59-1.49-53.18-2-74C126.891,1255.743,137.501,1266.813,158.951,1267.023z"/>
		<path d="M428.951,741.023c1.82,14.24-3.81,39.08-24,37c-22.01-2.27-9.78-25.4-12-46c-1.69-15.66-8.95-23.46-13-34
			c0.53-0.8,1.04-1.62,1-3C398.771,698.224,425.881,716.943,428.951,741.023z"/>
		<path d="M412.951,836.023c12.87,16.33,16.17,57.59-8,62c-29.13,5.311-18.67-22.34-19-41c-0.33-18.58-8.46-27.81-14-43
			c0.8-0.529,1.62-1.04,3-1c-0.18-0.85,0.39-0.939,1-1C388.761,819.174,402.062,822.214,412.951,836.023z"/>
		<path d="M266.951,903.023c5.93,6.43,13.1,11.89,10,22c-29.91,6.811-73.55,1.14-109,3c-2.7,14.71-0.109,35.94,0,57
			c0.109,20.58,3.59,42.41,2,56c-2.04,17.47-30.311,27.48-49,16c-5.35-36.4,1.359-84.78-1-128c-35.2-1.52-75.96,0.03-111,2
			c-5.36-4.3-6.04-13.29-9-20c37.76,2.91,78.08,3.25,119,3c-0.3-21.7,0.82-44.82-1-65c-10,0-20,0-30,0c3.891,28.99-43.38,41.22-45,9
			c-1.33-26.39,3.49-57.97,2-90c-1.48-31.79-1.21-62.76-4-87c18.02,5.31,44.01,2.66,53,17c7,0,14,0,21,0c2.4-15.94,2.43-34.23,4-51
			c-31.471-2.14-68.7-1.36-98,2c-3.22-7.12-7.34-13.33-10-21c34.04,2.96,70.59,3.41,108,3c3.76-24.93,3.76-57.76,2-85
			c11.02,7.75,64.83,12.42,66,31c0.45,7.1-9.939,14.32-13,20c-6.09,11.3-7.49,22.91-12,34c16.08-2.85,24.74,3.91,39,0
			c14.32-3.93,16.12-25.11,28-26c8.09-0.6,16.02,9.82,22,15c6.99,6.06,14.5,12.02,11,23c-30.41,4.59-69.279,0.72-103,2
			c-6.29,16.04-9.33,35.34-14,53c16.67,0,33.33,0,50,0c9.779-4.47,7.46-15.4,19-17c11.141-1.54,43.3,21.5,43,31
			c-0.25,7.87-10.02,8.86-15,15c0,16.35,0,39.83,0,65c0,21.89,6.82,48.32,0,61c-6.279,11.69-43.811,21.38-43-4
			c-10.67,0-21.33,0-32,0c0,21.67,0,43.33,0,65c22.58-4.52,33.96,6.17,54,0c11.99-3.689,14.88-25.12,26-26
			C254.661,887.413,261.871,897.523,266.951,903.023z M199.951,835.023c-0.05-19.71,1.71-37.62,1-58c-38.67,0-77.33,0-116,0
			c-1.721,17.391,0.13,39.87,1,58C123.951,835.023,161.951,835.023,199.951,835.023z M83.951,763.023c39,0,78,0,117,0
			c-0.21-18.12-0.75-35.92-2-53c-38,0-76,0-114,0C82.621,725.693,84.621,745.693,83.951,763.023z"/>
		<path d="M223.951,19.023c13.18,11.15,29.109,21.74,13,38c-2.99,3.01-8.62,5.68-10,10c-2.16,6.75-0.939,21.14-1,33
			c-0.359,66.14-0.98,132.91,3,199c0.689,11.49,2.721,24.27,0,31c-4.561,11.3-28.62,18.57-42,13c-12-14.54-2.609-44.78-5-68
			c-28.33,0-56.67,0-85,0c-1.12,14.25-1.891,32.34-1,51c0.79,16.49,4.939,35.82,0,47c-3.939,8.91-26.49,20.21-40,11
			c-7.8-5.32-4.21-30.3-4-44c1.67-109.2,8.34-239.75-2-338c25.82,5.85,58.26,5.07,73,22c20.71-3.08,31,4.32,47,0
			c9.68-2.61,17.16-24.85,27-24C207.191,0.903,214.251,10.823,223.951,19.023z M184.951,143.023c-0.23-35.77,0.71-72.71-1-107
			c-29,0-58,0-87,0c-3.33,33.34-1.55,71.78-2,108C124.621,143.363,156.941,145.344,184.951,143.023z M182.951,261.023
			c-0.77-35.77,1.35-68.65,1-104c-29.33,0-58.67,0-88,0c-2.33,33-0.33,70.33-1,105C123.961,261.363,155.611,263.344,182.951,261.023
			z"/>
		<path d="M207.951,1395.023c0.29,8.4-5.859,7.84-10,14c1.38,62.95,1.51,127.15,3,190c-6.46,15.21-24.24,24.43-47,20
			c-7.1-3.1-3.971-10.37-9-15c-5-4.61-13.02-1.061-17-8c3.91-9.8,19.439-2.5,27-6c10.49-4.85,7-27.65,7-42c0-17.88,0.471-34.87-1-47
			c-20.67,0-41.33,0-62,0c1.51,22.26,0.859,61.86,2,89c0.3,7.2,2.24,14.8,0,20c-4.98,11.562-31.08,16.83-42,6
			c-0.221-75.811,4.12-166.26-2-242c19.23,2.771,42.58,1.42,52,14c13.67,0,27.33,0,41,0c9.16-5.689,7.45-17.61,20-19
			C184.411,1367.424,207.672,1387.084,207.951,1395.023z M160.951,1491.023c0-13.67,0-27.33,0-41c-20.67,0-41.33,0-62,0
			c0.63,13.37-1.29,29.29,1,41C120.281,1491.023,140.621,1491.023,160.951,1491.023z M160.951,1439.023c0-13.33,0-26.67,0-40
			c-20.67,0-41.33,0-62,0c0,13.33,0,26.67,0,40C119.621,1439.023,140.281,1439.023,160.951,1439.023z"/>
	</g>
</g>
</svg>
