<svg id="레이어_1" data-name="레이어 1" xmlns="http://www.w3.org/2000/svg" viewBox="0 0 300 160"><path d="M17,91.79l-1.49.41,4.06,2.3c-1.29-5.2,2.32-9.65,4.89-13.84,2.17-3.54,4.19-7.17,6.43-10.68,4.7-7.38,10.12-13.81,18-17.86a120.88,120.88,0,0,1,27.52-9.58c10-2.34,20.1-2.69,30.35-3.2,10-.5,19.85-2.05,29.81-2.71,10.4-.69,20.84,0,31.25.46s20.43,1.93,30.82,3.53c9.79,1.51,19.73,1.29,29.57,2.32a210.49,210.49,0,0,1,27.22,4.5c8.34,2,15.52,5.8,19.56,13.68s5.17,17.18-.13,24.63-14.06,11.84-22.55,14.61c-19.38,6.31-38.37,12.8-58.42,16.69-20.34,3.94-40.62,4.83-61.28,5.41-11.42.32-22.85.64-34.28.3s-21.94-3.61-33-6.37c-8.79-2.2-17.85-3-26.62-5.28a38.73,38.73,0,0,1-12.5-5.26c-4.68-3.23-3.88-6.82-5.23-11.75C20,90,13.58,91.74,14.7,95.85c.93,3.43.59,7.34,2.5,10.46s6.14,5.73,9.45,7.39c8.09,4,17.11,5.24,25.92,6.75,10.3,1.77,20.18,5.17,30.41,7.24,11,2.23,22.35,1.92,33.5,1.76,22.65-.33,45.59-.45,68-4a295.24,295.24,0,0,0,34.32-7.26c11.29-3.21,22.32-7.26,33.49-10.85,16.08-5.17,35-16.34,32.65-36-1-7.95-4.39-16.14-10.3-21.68-6.48-6.08-15.24-8.38-23.78-9.83-10.41-1.75-20.77-3.52-31.32-4.13-5.44-.32-10.92-.39-16.33-1-6.45-.77-12.79-2.32-19.23-3.19-22.86-3.1-46-1.37-68.79.7-12.39,1.12-24.87.68-37.1,3.26-11.44,2.41-22.89,5.94-33.26,11.4-9,4.74-15.18,12.66-20.45,21.13-5.07,8.17-13.69,18.11-11.17,28.31a3.36,3.36,0,0,0,4.06,2.3c.5-.12,1-.28,1.49-.4C22.87,97.12,21.13,90.75,17,91.79Z" style="fill:#1c1b1f"/><path d="M284.86,60.75c-13.8-14.39-37.19-17.5-56-19.19C206,39.51,184.43,31.46,161.28,32c-12,.27-23.53-1.27-35.42-2.27a341,341,0,0,0-36.72-1.27C68.43,29,45.58,34.6,27.63,45.2c-15,8.87-24,24-19.69,41.66,1.89,7.82,6.52,14.5,14.11,17.58,9,3.65,19.22,4.13,28.49,7,11,3.39,21.61,6.64,33.21,6.93,11.84.29,23.54-.77,35.37.43s23.73,3.27,35.71,3.64c12.18.37,24.36-.37,36.54-.8,13.81-.49,27.62-.8,41.37-2.29,11.93-1.3,24.22-3.18,35-8.64,17-8.58,31.24-33,17.08-49.95-2.72-3.26-7.37,1.43-4.67,4.67,6.3,7.54,3.94,18.08-.75,25.82-5.09,8.41-13.14,13.68-22.33,16.71-20.25,6.68-42.7,6.32-63.77,7-10.86.36-21.72,1-32.58,1a256.57,256.57,0,0,1-31.32-2.52,203.15,203.15,0,0,0-31.27-1.86c-10.82.3-21.31.51-31.87-2.24-9.38-2.46-18.43-6.09-28-7.82-7.9-1.43-16.8-2.08-21.35-9.66C12.82,85,12.56,75.73,15,68.26c2.74-8.29,9.88-14,17.25-18.12C49.05,40.72,70,35.52,89.14,35c10.26-.25,20.6.39,30.84.87,11,.52,21.91,2.66,33,2.79,11.79.13,22.91-.21,34.59,2,11.27,2.16,22.41,5.16,33.81,6.67,10.34,1.37,20.74,1.58,30.87,4.34,9.9,2.7,20.71,6.11,28,13.7C283.14,68.49,287.8,63.82,284.86,60.75Z" style="fill:#1c1b1f"/></svg>