<svg id="레이어_1" data-name="레이어 1" xmlns="http://www.w3.org/2000/svg" viewBox="0 0 150 150"><path d="M65.12,24c-.37,0-.73,0-1.1,0-.73,0,1.72.42.21-.19-3.15-1.27-6.38.93-8.13,3.31a5,5,0,0,0-1,2.1q2.65-4.26.23-.92a12.14,12.14,0,0,0-1,2.7,7.81,7.81,0,0,0,.7,5.76s3.58,4.07,2.51,2.72l3.18-12-.38.12h3.83c-1.88-.28-3.65-.69-5.55-.19A7.25,7.25,0,0,0,56,28.71c-.39.3-3.28,2.76-1.31,1.18l5.09-2.11-1.35-.16c-2.87-.33-6.42,2.46-6.94,5.29-.1.47-.18,1-.24,1.43l6.94-5.28c-.51-.06-1-.11-1.52-.15-3.1-.25-6.17,2.42-6.95,5.29a10.83,10.83,0,0,0-.27,5.45c.89,3.9.1-.64.18-.7-.27.23.25,2.22.32,2.6l5-8.86-.38.1h3.83a13.32,13.32,0,0,0-5.62-.14c-4,1-5.76,5.1-5,8.86.31,1.56.77-4.1-.11-.89l3.31-4.3-.67.49,5.55-.73a14.31,14.31,0,0,0-5-.2c-.85.07,1.55-.28.4-.21a13.23,13.23,0,0,0-2.73.4c-4.76,1.35-6.55,5.74-5.47,10.31V42.55l-.09.56,7-5.28a9.59,9.59,0,0,0-7.46,2.31,9.8,9.8,0,0,0-1.69,2.4,5.81,5.81,0,0,0-1.05,2.18c.39-.92.42-1,.09-.34a7.53,7.53,0,0,0,1.12,8.73c.25.27,2.47,2.35,1.35,1.08L40.11,49.1c0-.31,10.19-7.52,2.58-4.31a11.28,11.28,0,0,0-3,2.08l8.73-1.13c1.74,1-2.67-1.55-3-1.68-5.3-2.17-10.14,4.06-8.86,8.86A11.52,11.52,0,0,0,38,55.71c1.6,2.78-1-2.59-.31-.58l5-8.86-1,.43c-3.27,1.36-4.92,3.42-5.29,6.94l.05-.71,5-5,.4-.09c-2.31.15-5.22,1.22-6.21,3.57l-.46,1.08L41.4,48.9a6,6,0,0,0-1.19-.08A7.27,7.27,0,0,0,33,56a28.52,28.52,0,0,0,.37,3l3.31-8.14c-1.21.89,1.32-.11-.48.27H40A7.92,7.92,0,0,1,38.75,51c-3.67-.81-8,1.07-8.86,5l-.3,1.35L32.89,53a16.55,16.55,0,0,0-2.28,1.82,7.35,7.35,0,0,0-1.12,8.72c.18.32,1.94,2.45,1.24,1.42L35,54.42a14.31,14.31,0,0,0-6.39,3,7,7,0,0,0-1.85,7c.16.44.3.89.42,1.34V62c-.43,1.55,4.33-3.62,3.52-3.42h3.83l-.38-.07a7.54,7.54,0,0,0-8.13,3.3c-.21.31-1.71,2.93-.76,1.58l8.13-3.31c-1.94-.8,3.13,2.24,1.47.79a7.31,7.31,0,0,0-6.05-2,10.18,10.18,0,0,0-3.69,1.51c-2.65,1.42,4.63-3.37-.33.07a7.55,7.55,0,0,0-3.31,8.13l.27,1.36,5-8.86-.57.11h3.83a11.51,11.51,0,0,0-5.19,0c-4.29,1-6.91,6.81-4.31,10.58.61.88,4.74,5.8,1.34,1.34L23,64.34a11.82,11.82,0,0,0-2,2.32c-.44.69-1.82,3.68-.68,1.43l4.31-3.31a2.8,2.8,0,0,1-1.09.32,7,7,0,0,0-5,5,11.91,11.91,0,0,0,.08,5.18V71.48l-.1.56,8.86-5c2.31,1.5,2.76,1.73,1.37.7a5.57,5.57,0,0,0-2.45-1.29,8.16,8.16,0,0,0-3.3-.16c-1.54.2-4.85,2.22-.29.2-1.36.61-2.67.3-4.06,1.29a7.45,7.45,0,0,0-2.58,9.85,11.89,11.89,0,0,0,.94,1.76c.78,1.1,4.05,5.35.94.83l2.58-9.85c1-.59-1.6.56-1.91.75-3.87,2.33-4.88,8.08-1.46,11.31,2.26,2.13,5.15,3.41,8.29,2.56a7.19,7.19,0,0,0,5-5l-1.45,2.46-11.3-1.46q-1.07-4.47-.39-.43a13.63,13.63,0,0,0,1,2.21c1.07,2,3.87,3.87,6.22,3.56,3.14-.41-2.21.6-3.62-2.69a6.5,6.5,0,0,0,1.92,2.13L21,78.7c.32-1.76-.55,1.22-.64,1.61-1.14,5,2.22,8.5,6.94,9.11A9.58,9.58,0,0,0,31,88.85H27.21l.38.06-4.3-3.31c.7,1.12-.38-1.56-.17-.23l.72-5.55a10.11,10.11,0,0,0-.76,9.09c1.4,4.1,3.91,5.26,7.73,6.49l-5.29-7c0,.51.07,1,.12,1.52.41,4.48,4.29,8.4,9.12,6.94,1-.31,6.86-2.6,2-1l-8.86-5,.08.45V87.51a11.56,11.56,0,0,0-.37,5.75c.72,4.16,5.33,5.54,8.86,5,.81-.12,1.62-.25,2.42-.44l-8.85-5L30.44,94c1.86,4.59,6,6.4,10.58,4.3.37-.17,3.07-1.7,1.26-.87l-5.55.73-.58-.34-3.57-6.22q.9-2.74.05-1.11c-2.48,4.25,0,9.06,4.31,10.58l1.13.4-5.29-7c-.63,6.65,5.61,9.49,11.17,8.72H40.12l.56.15-5-8.85c.59-1.62,1.19-3,0-.6a8.85,8.85,0,0,0,.28,8.75c1.82,3.63,6.55,4.24,9.85,2.58.31-.15,2.77-1.71,1.48-1.06l-10.57-4.3a13.05,13.05,0,0,0,2.2,4.23c4.24,5.42-1.59-11.24-1.68-3.13a7.48,7.48,0,0,0,2.08,5.57c.74.79,6,4.87,1.41.84V97.19c-2.35,2.65-3.54,5.54-2.4,9.06a7.41,7.41,0,0,0,6.95,5.29,9.91,9.91,0,0,0,2.48-.26q3.72-1.44-.56-.08L40,104c.11-2.71.77-3.31,0-1.21a8.15,8.15,0,0,0-1,4c.53,5.73,5.63,8.58,10.83,6.22a6.93,6.93,0,0,0,2.08-1.6c1.34-1.4,2.89-2.08-.32-.08l-9.85-2.58c1.27,2.51,2.84,4.16,5.71,4.81a7.81,7.81,0,0,0,4.92-.32c.45-.18.88-.37,1.31-.58q3.33-2.39-.88.16l-9.11-6.94q1.37-4.31-.08-.58a18,18,0,0,0-.3,2.53c-.26,3.7,3.51,7.45,7.2,7.2,1.16-.08,7.58-.85,2-.47l-7.2-7.2c0,.45,0,.91,0,1.36-.08,3,2.27,6.33,5.28,6.94.46.09.9.19,1.35.3L46.58,109c.16,1.43.28,2.86.54,4.28.73,3.9,5.34,5.89,8.86,5a7.26,7.26,0,0,0,2.14-.83c2.16-1.56,1.93-1.53-.7.12l-9.12-6.95c-.22-1.71-.1,1.36,0,1.76.73,5.58,5.51,8.76,10.84,6.22l1.24-.59-8.73-1.13a2,2,0,0,1,.66.65l-2.11-5.1.08-.6a7.42,7.42,0,0,0,5,8.86l1.42.48-5-8.86c-2.1,6.35,1.84,11.48,8.3,11.82l-7-5.29c-.28-2-.17.09,0,.93l.73,1.72q-1.24-5.14-.77-2.13a9,9,0,0,0,3.17,5.1L54,119.4l0,1,2.11-5.09-1,1c-6.55,6.57,3.63,16.76,10.18,10.18,3.92-3.92,4.4-9.47-.13-13.17l2.11,5.09c.19-1.53-.81-2.51-1-3.93.19,1.91,1.2,4.63.62.55-.45-3.2-4.07-5.14-6.94-5.29l-1.28-.07,6.21,3.57.22.57v3.83a11.07,11.07,0,0,1,.44-1.49c1.27-3.84-1.49-7.67-5-8.86l-1.42-.48,5,8.86c.62-3.28.57-6.7-2.33-9s-5.53-2.65-8.73-1.13l-1.24.6,10.83,6.21c.23,1.72.11-1.35.05-1.76-.55-4.26-4.2-8.65-9.11-6.94a17.32,17.32,0,0,0-2.19.89q-3.26,2.37.75-.18l8.86,5c.31,1.67,0-.2,0-.45-.34-3.11-2-6.15-5.28-6.94q-.68-.18-1.35-.3l5.29,6.94c0-.45,0-.91,0-1.36,0-3.7-3.27-7.47-7.2-7.2-1.16.08-7.59.85-2,.47l7.2,7.2c-.39,5.68.41-1,.38-2a7.29,7.29,0,0,0-9.12-7c-.35.11-5,2.48-3,1.51l5.55-.73-.94-.15,4.3,3.31-.69-1.39c-1.72-3.4-6.71-4.54-9.86-2.58a12.52,12.52,0,0,0-1.87,1.38q-2.31,2.76.11.3l10.84,6.21c.14,1.56-1,3.93,0,1.28a12,12,0,0,0,1-4c.16-3.87-3.43-7.21-7.2-7.2a10,10,0,0,0-2.49.26q-3.7,1.44.57.08l6.94,5.29-1.31,4.94c2.45-2.75,3.08-7.5,0-10.18-.94-.82-5.92-4.77-1.41-.85l2.11,5.1c.09-1.65,0,2.42,0-.48,0-1.48.33-1.51-.17-3.3a9.14,9.14,0,0,0-3.84-4.88l3.31,4.3-.35-1A7.31,7.31,0,0,0,40,91.73c-.31.15-2.78,1.71-1.49,1.06l9.85,2.58.33.73v3.83c-1.58,2.57-1.6,2.79-.06.64a22.27,22.27,0,0,0,.92-2.26c1.34-3.65-1.51-7.89-5-8.85a12,12,0,0,0-5.23,0h3.83C45.34,91,46,91.32,45,90.3l2.11,5.1c0-.31,0-.62.08-.93.31-3.27-2.48-6-5.29-6.94l-1.12-.4,4.3,10.58A14.65,14.65,0,0,0,47,91.55a6.9,6.9,0,0,0-3.56-6.21c-1.91-.87-3.57-1.54-5.73-1.24A7.86,7.86,0,0,0,34.8,85c-.31.18-2.87,1.61-1,.78l10.58,4.3L43.87,89c-1.5-3.72-4.69-6-8.86-5-.8.19-1.61.33-2.42.44l8.86,5L41.37,89v3.83a11.56,11.56,0,0,0,.37-5.75c-.64-3.71-5.44-6.15-8.86-5a15.45,15.45,0,0,0-2.33.92q-3.09,2.24.38.06L40,90c0-.51-.09-1-.12-1.52a7.47,7.47,0,0,0-5.28-6.94c-.79-.25-1.58-.41-2.38-.61l4.3,3.31c.6,1.41-.12-1.06-.25-1.48l-.73,5.55c1.79-3.09,2.22-6.47.35-9.61A7.92,7.92,0,0,0,31.42,75a9.64,9.64,0,0,0-3.25-.2c-.57,0-2.57,0-.84.19l7,9.12c-.39,1.7.57-1.25.64-1.61.43-2.41.19-5.28-1.85-7-.47-.45-.52-.46-.16,0q.9,1.23-.9-1.13a8.58,8.58,0,0,0-2.66-1.88,8.73,8.73,0,0,0-4.76-.63l6.22,3.57q1.05,4.47.38.42a13.53,13.53,0,0,0-1-2.2c-2.36-4.41-7.91-4.27-11.31-1.46a7.15,7.15,0,0,0-2.26,3.9l5-5-.15,0,5.54.72.34.38-1.46,11.3c-1,.59,1.61-.56,1.91-.75,3.15-1.9,4.82-6.6,2.59-9.85-.34-.49-2.89-3-2.89-3,.08.69,2.28,3.1,1,.44L26,80.18c-3.15.66-3.34.77-.59.34q3.89-1.53-.94,0l-5.1-2.11A11,11,0,0,0,23.6,80.9c3.52.91,8.15-1.15,8.86-5a11.81,11.81,0,0,0-.09-5.19v3.83l.11-.55-5,5a8.27,8.27,0,0,0,5.39-3.63,14.32,14.32,0,0,0,.93-2.13c-.11.27-1.41,2.11-.55,1.29,2.08-2,3-6.27,1.12-8.72-.72-1-4.49-5.92-1.33-1.34L28.71,75l.53-.13H25.41a13,13,0,0,0,5.23.06c4-.74,5.73-5.32,5-8.86l-.27-1.36-3.31,8.13c-1.47.59-1.2.46.82-.37,2.32-1.68,1.91-1.55-1.2.37L24.7,71A18.13,18.13,0,0,0,29.59,74c3.08,1.28,6.45-.92,8.13-3.31.21-.3,1.72-2.93.77-1.58l-8.13,3.31c7.16,1.45,12.58-4.83,10.32-11.73l-1.85,7c1.2-1-2.16.57-1.66,1.06a14.88,14.88,0,0,0,1.69-.4c4.33-1,6.86-6.81,4.3-10.58-.19-.28-2-2.72-1.24-1.42L40.8,65c-1.54,1.54,1.89-2.06,2-2.15a10.63,10.63,0,0,0,1-3.06l-8.86,5c3.2.71,6.34.48,9-1.48,2.89-2.11,3.82-4.66,3.3-8.13l.15.78-7.2,7.2a6,6,0,0,1,1.19.08,6.92,6.92,0,0,0,6.21-3.57l.46-1.08-6.22,3.56c1.15-.07,2.29-.24,3.43-.42,2.35-.37,4.48-2.82,5-5a23.47,23.47,0,0,0,.46-3.12l-5.28,6.94,1-.42c3.43-1.43,6.4-4.8,5-8.86a17.61,17.61,0,0,0-1.06-2.72l-.19-.42c-1.6-2.22-1.54-1.92.19.93l-8.86,8.85c-4.66-1.91-1.78-.52-.46.24a7.43,7.43,0,0,0,8.73-1.13l.68-.59-5.1,2.11c4-.2,7.52-2.28,8.77-6.28a9.73,9.73,0,0,0,0-5.11,8.21,8.21,0,0,0-2-3.36c-.18-.19-2.34-2.21-1.18-.9l1.12,8.73c.43-.87.78-1.69,1.16-2.6-.48,1.16-.06.38.37-.19l-4.3,3.31c1.64-.4-1.41-.11.45.06,2.83.25,6.47-2.4,6.94-5.29a12.13,12.13,0,0,0-.09-5.16v3.83l.11-.52-5,5c1.61-.51-1.6.07.32.06a13,13,0,0,0,2.7-.45H51c8,2,12-5,10.63-12l-5,8.86.38-.1H53.14a13.16,13.16,0,0,0,5.62.14c4-1,5.7-5.09,5-8.86.66,3.76-.29-1.87-.14-1.23-1.16-4.86-.74,3.94-.09,1.54l-6.94,5.28c.51,0,1,.09,1.52.15,2.81.29,6.5-2.44,6.94-5.29.07-.48.15-1,.24-1.43L58.38,42c3.64.43,6.09-1.19,8.15-4l-4.3,3.3.45-.07H58.85c1.92.3,3.8.7,5.7.11,5.58-1.73,6.53-7.83,3.18-12C67.5,29,65.54,27,66.35,28l1.85,7c.3-2-2.16,3.83-.72,1,.23-.46,2.33-3.35,1-1.62l-8.13,3.3a12.06,12.06,0,0,0,4.72.72c9.26-.09,9.28-14.49,0-14.4Z" style="fill:#fff"/><path d="M123.84,69.12l-1,.5,8.73,1.12c1.22,1-.88-1.11-1.16-1.35-2.32-1.89-6-3.07-8.73-1.12a9.82,9.82,0,0,1-1,.67H128a12,12,0,0,0-3.47-1.62,8.42,8.42,0,0,0-3.12-.2c-3.07.4,4.06,1.4,2.63.34-2-1.51-5.2-1.16-7.26,0a7.81,7.81,0,0,0-1.91,1.38q-2.53,3.09.59-.3l9.85,2.58q1,4.39.33.37a8,8,0,0,0-1-2.2,7.29,7.29,0,0,0-11.31-1.46,8.39,8.39,0,0,0-1.54,1.86q-1.6,3.56.37-.22h10.18a8.91,8.91,0,0,0-9.64-3.06c-3.44.91-4.82,2.9-6.39,5.77l6.21-3.56c1.9.13-2.81,0-3.11.11a15.35,15.35,0,0,0-2.7,1.18h7.27a8.78,8.78,0,0,0-4.67-1.61c-4.83-.09-.49.18.61.73l3.31,4.3a2.69,2.69,0,0,1-.24-.87c-.81-4.12-5.26-5.6-8.86-5a7.39,7.39,0,0,0-2.83.9c-.56.29-3,1.7-1.64,1.08l10.58,4.3-.1-.61v3.83a11.5,11.5,0,0,0,0-5.22c-1.38-4.78-6.39-6.26-10.58-4.3a9.62,9.62,0,0,0-3,2.41l5.09-2.11c-1.66.14,3.26,1.57,2,.66-3.42-2.44-7.69-.29-9.85,2.58-.85,1.14-2.9,3.5,0,.37l8.73-1.12c-1.49-.85,1,1-.36-.25-2.29-2.1-6-2.89-8.72-1.13-.37.22-.72.46-1.07.71l8.73,1.12c3.63,4.46-.17-.72-.91-1.62-2.66-3.26-7.39-2.2-10.18,0-.31.24-2.37,2.59-1,1.24l7-1.85a10.19,10.19,0,0,0-2.34-.36c1.17.15,1.32.1.48-.13-3.57-1.23-8,1.41-8.86,5a13.59,13.59,0,0,0,.18,5.75V74.87l-.09.41L96,71c-3-1.45.52,1.19,0,.28-1.66-3-5-3.86-8.13-3.31l-1,.18,8.86,5c.56,1.94-.1-1.27-.22-1.65-1.35-4.37-6.48-6.77-10.57-4.3a7.7,7.7,0,0,0-3.14,3.08c-.33.73,3.17-2.65.41-.56L92.76,74c.75,2.3-.39-2-.61-2.51a7.93,7.93,0,0,0-2.53-3.14,16,16,0,0,0-4.72-2.71c-6.61-1.8-10.76,4.2-10.91,10l2.11-5.09-.64.78,5.09-2.11a3.29,3.29,0,0,1-1.59,0l6.22,3.57c-.44-.64-.74-1.33-1.18-2-2.36-3.47-6.09-4.29-9.85-2.59-.33.15-2.67,1.55-1.63,1.08l8.72,1.12a6.81,6.81,0,0,0-3.33-2q4.31,2.67,2,.94a3.65,3.65,0,0,0-1-.71c-1-.55-3-1.4-4.06-1,.85-.34,6.7,2.75,1.87-.11-3.88-2.3-9.51-.23-10.58,4.31-.09.38-.75,3.54-.18,1.8l3.3-4.3a7,7,0,0,1-1.26.82l9.85,2.59c1.32,1.86-.88-1.72-.7-1.36A18.62,18.62,0,0,0,74.88,68c-1.95-2.1-6.29-3-8.73-1.12-.69.52-1.39,1-2.07,1.59,2.28-1.07,2.81-1.4,1.57-1a7.23,7.23,0,0,0-3.18,1.86q-1.81,2.49-.77.89l8.73-1.12c1.64.94-2.56-1.32-3.54-1.72-2.46-1-5.17.33-7,1.85a8,8,0,0,0-2.11,3.4c-.72,1.84-1.18,1.51,1-.85H69a6.8,6.8,0,0,0-3.35-2c-6.11-1.75,2.13,1.45-.48-.13a7.31,7.31,0,0,0-9.85,2.58c-.38.66-2.15,3.69-1.32,2.54l9.85-2.59c1.15.8,2.79,2.45.91.26a11.75,11.75,0,0,0-2.39-2.11c-2.58-1.79-6.61-1-8.72,1.12-1.19,1.21-3.44,2.66.17.32l8.72,1.12c.75,1.71,1,2.07.59,1.08-.94-2.81-3.72-5.57-6.94-5.29l-1.47.13,7,9.11.23-1.44c.63-3.86-1-7.71-5-8.85a7.41,7.41,0,0,0-4.35,0l7,1.85a13.35,13.35,0,0,0-1.77-1.41q-3.35-1.62-.17.34,2.88,2.34.42-.38c-.63-.51-1.27-1-1.93-1.47-2.87-2.11-8.42-.74-9.85,2.58q-.49,1.14-1,2.28c-.23,2-.31,2.56-.24,1.58l6.94-5.29a24.84,24.84,0,0,0-3.65.5,7,7,0,0,0-5,5L43,74.63l5-5L46.84,70l7,1.85c3,3.75,1.14,1.2.36-.1-2.51-4.21-7.81-4.47-11.3-1.46l-1.11,1,12,3.17c.64,1.75-.19-1.32-.32-1.69-1.65-4.51-6.19-6.54-10.58-4.3a9.37,9.37,0,0,0-4.67,5.89l7-5.29-1.07-.13c-3.05-.38-6.2,2.5-6.94,5.28l-.32,1.21,5-5-1.39.3,5.55.72.35.3,2.11,5.1c-.22-3.65-1.32-5.84-4.39-7.87l3.3,8.13.23-1.43c.87-5.58-3.11-10-8.86-8.86-.54.11-4.64,2.64-2.92,1.54h7.27c1.86,1.12-1-.77-1.64-1a11.15,11.15,0,0,0-3.13-.67c-3.82-.48-7.26,3.69-7.2,7.2a10.58,10.58,0,0,0,.27,2.5c.95,2.46,1,2.29.09-.53l9.12-6.94c1.3.2-1.46-.56-1.83-.62-5-.78-8.51,1.94-9.11,7a12.74,12.74,0,0,0,.33,3.53V74.87l-.14.56,10.57-4.31c-1.26-.55-3-2.43-.69.4,3.1,3.86-.41-1.36-1-2.06-1.76-2.25-6.42-2.85-8.73-1.12-.41.31-.86.55-1.27.85l-1.46,1.13Q24.84,73.43,28,70l5.55-.73c-1.35-.49,3.05,2,2.62,2.08-.26,0-.72-1.42-.78-1.56-1-2.42-3.88-3.32-6.22-3.57a7.39,7.39,0,0,0-5.88,2c-1.05,1-4.63,6.63-1.05,2.14l5.1-2.1a2.16,2.16,0,0,0-.76,0l5.09,2.11c1.08.85-1-1.13-1.25-1.39a25,25,0,0,0-2.62-1.94C20.21,61.7,13,74.18,20.53,79.48c1.3.92-.29-.33-.6-.72a13.43,13.43,0,0,0,1.56,1.8,8,8,0,0,0,5.66,2.1,7.53,7.53,0,0,0,5.41-2.27,10.19,10.19,0,0,0,1.63-2.49c1.08-2,1.2-1.58-.72.52l-5.09,2.11.79.08L23,77a10.16,10.16,0,0,0,6.38,6,7.62,7.62,0,0,0,6.13-.71c1.38-.8,1.71-1.75,2.78-2.7-.54.48-2.8,2.61-.88,1.17l-8.72-1.13c-1.07-1.37-2.28-2.9-.7-.45a11.61,11.61,0,0,0,2.16,2.37,13,13,0,0,0,3.1,2c4.12,1.8,9.31.61,10.58-4.31a10.28,10.28,0,0,0,.4-2.47c-.53-1.94-.55-2.48-.07-1.62L35,82.1c-1.29-.2,1.47.56,1.83.61,4.46.7,9.21-1.83,9.11-6.94a11,11,0,0,0-.26-2.49c-1-2.47-1-2.29-.1.52L38.38,81l.35,0-5.09-2.11a8.87,8.87,0,0,0,2.24,1.8,7.15,7.15,0,0,0,7.27,0,7.36,7.36,0,0,0,1.17-.84q2.22-1.62-1.69.76L33.77,71.8l-.22,1.43c-.53,3.37.4,6.2,3.31,8.13l.76.5-3.57-6.21c.39,6.7,5.23,10,11.68,8.62a7.12,7.12,0,0,0,5-5L51.08,78l-6.95,5.29,1.07.13c3.2.4,6-2.54,6.94-5.29q-4.29,4.05-2,2.72l-10.58-4.3c-.63-1.74.19,1.32.33,1.69,1.92,5.27,7.75,6.87,12,3.18l1.11-1L41.77,79c-.85-1.43,1.62,2.68,1.89,3a7,7,0,0,0,7,1.85c3.59-1.28,5.71-2.93,6.46-6.75l-5,5c.63-.12,1.94-.06-.17,0a7.48,7.48,0,0,0,6.94-5.29c.42-1.11,1.63-4.77-.24-.41l-9.85,2.58c-4.48-3.29.26.65.9,1.08.89.59,3.91,1.92.91.33-3.46-1.83,1.5,1,1.9,1.11a7.38,7.38,0,0,0,4.14-.1H52.79l.21.06-5-8.85-.23,1.43c-.68,4.19,1.83,9.56,6.94,9.12l1.47-.13-6.94-5.29a12.18,12.18,0,0,0,3.11,5.28c2.21,2.14,6,2.88,8.73,1.13.63-.41,3.33-3.16,2.74-2.56l-8.73,1.12c-1.16-.8-2.79-2.44-.91-.26a11.79,11.79,0,0,0,2.39,2.12c3.4,2.35,7.73.38,9.85-2.59.36-.5,1.22-3.09.89-1.88-.19.73.36-.51.44-.65l-9.85,2.59a12,12,0,0,0,3,1.47l1.91.26q3.1.41-4-1.88c2.4,2.94,7.73,2.64,10.18,0a10.32,10.32,0,0,0,2.12-3.46c.9-2.25.81-.6-1,.92l-7,1.85q1.93.83-1.79-1.11a8.77,8.77,0,0,0,1.89,1.37,7.33,7.33,0,0,0,8.72-1.13,23.8,23.8,0,0,0,1.9-2.35l-4.3,3.31a16,16,0,0,0,3.94-2.06L64.7,78.2c-2.84-3-.73-1.17,0,.32-.75-1.64.27.9.72,1.55,2.25,3.19,6.24,4.66,9.85,2.58a10.13,10.13,0,0,0,3.85-3.41c.22-.38,1.29-5.17.91-3.53L69.41,80c-1.35-.8.38.55,1.12,1s3,1.51,3.85,1.11c1.7-.8-4.23-1.55-3.68-1.75A5.28,5.28,0,0,0,73,81.86c1.83.82,1.18.41-2-1.21,2.07,2.67,6.06,2.33,8.72,1.12.34-.15,2.67-1.54,1.64-1.07l-9.85-2.58c2.31,3.39,4.39,5.89,9,5.53A7.88,7.88,0,0,0,86.12,81a8.54,8.54,0,0,0,2-3.37l.26-1.92c.09-1.31,0-1-.41.93l-4.31,3.31a3.11,3.11,0,0,1,1.23-.35l-5.55-.73a7.41,7.41,0,0,0,1.7,1.08c.46.17-4.15-8.14-2.17-2,1.28,4,6.65,7.26,10.57,4.3.75-.56,1.57-1.07,2.28-1.68a5.45,5.45,0,0,0,1.85-2c1-1.26.48-.87-1.39,1.18l-10.58-4.3c-.6-2,.1,1.26.21,1.65,1.17,4,5,5.72,8.86,5l1-.18-8.13-3.31a11.49,11.49,0,0,0,5.16,4.88c4,1.93,9.47.53,10.57-4.3a13.43,13.43,0,0,0-.18-5.75v3.83l.1-.41-8.86,5a14.82,14.82,0,0,0,3,.62c-2.51-.42.74.15,1.77,0a7.38,7.38,0,0,0,4.13-2c.6-.55,2.63-2.53,1-1.25H90c-3.63-4.46.17.72.91,1.62,1.87,2.3,6.31,2.8,8.72,1.13.35-.25.7-.48,1.06-.71L92,80.13a17.94,17.94,0,0,0,3.27,2.5A7.35,7.35,0,0,0,104,81.51a12.36,12.36,0,0,0,1.51-1.87c.61-1.86.84-2.33.68-1.42L96.34,80.8a8.77,8.77,0,0,0,10.38-.8c.47-.45,1.24-.71.06-.16L96.2,75.54l.14.47V72.18a16.62,16.62,0,0,0,0,5.36c.79,5,6.84,6,10.58,4.3a5.15,5.15,0,0,0,2-1.35c-1.72.79-2,1.07-.93.82l-8.86-5c1.19,6,7.1,6.92,12.12,6.15l-5.55-.73c3.33,2,5.87,1.79,9.29.17l-5.55.73c1,.18,2.07.33,3.11.41a7.08,7.08,0,0,0,6.22-3.57c.38-.7.71-1.43,1-2.15l-4.3,3.31a4.41,4.41,0,0,1,1-.32c.41,0-5.9-2.54-4.37-.64,2.43,3,7.68,2.55,10.18,0a10.77,10.77,0,0,0,1.55-1.88c1.08-2.39,1-2.3-.37.24l-11.31-1.45q-1-4.44-.33-.4a11,11,0,0,0,1,2.23A7.32,7.32,0,0,0,122.7,81a7.81,7.81,0,0,0,1.91-1.38q2.52-3.09-.6.3h-7.26c2.43,1.82,4.66,1.67,7.5,1.25h-3.83c1.53.43-1.24-.73.28.24a7.17,7.17,0,0,0,7.27,0,9.91,9.91,0,0,0,1-.68l-8.72-1.13c-1.23-1,.87,1.12,1.16,1.36a7.56,7.56,0,0,0,8.72,1.12l1-.5c8.24-4.24,1-16.66-7.27-12.43Z" style="fill:#fff"/></svg>