<svg id="레이어_1" data-name="레이어 1" xmlns="http://www.w3.org/2000/svg" viewBox="0 0 150 150"><path d="M78.78,29.35c-.16,3.24.92-2.05.36-.87-1.28,2.71-1.43,6.57,1.13,8.73.59.5,1.19,1,1.82,1.43-1.17-1-.91-.78.77.55a12.47,12.47,0,0,0,2.68,1,7.67,7.67,0,0,0,5.75-.68c.89-.49,6-4.57,1.35-1.3l-10.57-4.3.09.38V30.49a16.14,16.14,0,0,0-.52,3.84,7.19,7.19,0,0,0,1,3.64q1.94,2.61.58.62L82.48,33l-.24,1.34c-.67,3.76,1,7.83,5,8.85.47.13.94.24,1.41.34l-5-8.86c-.09.5-.17,1-.23,1.51-.57,4,.94,7.46,5,8.85a9.45,9.45,0,0,0,4.47.51c.72-.1,4.44-.68,1.48-.54-2.31.11-1.1.35-.51.29L87,40l.07.39V36.6a12.87,12.87,0,0,0-.24,5.59c.53,2.78,4,5.64,6.94,5.29,1.8-.22-1.26-.74,1,0l-4.3-3.3.44.69-.73-5.55A10.71,10.71,0,0,0,90,45V41.12c-1.21,7.07,2.55,12.45,10.21,11.13H96.37l.55.13-5-8.86c-.45,3.06-.6,6,1.35,8.64.39.52,3.72,2.93,1.92,1.7,1,.68,1.77,1.27,2.79,1.85,3.09,1.74,6.12.89,8.73-1.13.3-.23,2.45-2.27,1.16-1.27l-5.09,2.11c-1,0-6.62-9.7-4.79-3.3a7.25,7.25,0,0,0,1.27,2.43V47.28q3.34-3.15.27-.62a5.29,5.29,0,0,0-1.3,1.82,7.3,7.3,0,0,0,8.13,10.58c.46-.09,3.78-1.82,3.53-1.92,0,0-4,1.72-1.26,1l-8.86-5,.37,1c.77,2.22,2.5,4.6,5,5a4.58,4.58,0,0,1,1.19.28L101,52.52a7.61,7.61,0,0,1,.07,1.51,7.15,7.15,0,0,0,3.57,6.22l1,.52-3.31-8.13c-.17,1-.32,2.06-.4,3.09-.27,4,3.53,7.11,7.2,7.2a4.74,4.74,0,0,0,1.13,0l-6.21-3.56c.8,1.25-.14-1.27.13.53V56A7.84,7.84,0,0,1,104,57.3a7.34,7.34,0,0,0,5,8.86l1.33.39L106,63.24a15.91,15.91,0,0,0,1.76,2.32c2.21,2.52,6,2.48,8.73,1.13.3-.15,2.53-1.77,1.48-1.15l-10.57-4.3a20.39,20.39,0,0,0,.45,2.33c.16.55,3,5.09,1.27,2.65,1.92,2.66,4.82,4.17,8.14,3.31.45-.12.9-.23,1.36-.33H114.8l1,.35-4.31-3.31c-.25-.92-.32-1.07-.19-.47V62l-.1.37c-.61,2.28-.1,5.43,1.85,7,.92.74,6.09,4.55,1.51.86l-1.12-8.73c-.62,1.26.95-.94,0,.19a7.28,7.28,0,0,0-2,6,10.39,10.39,0,0,0,1.5,3.7c1.41,2.74-3.18-4.88,0,.36,1.19,2,3.76,3.88,6.22,3.57l1.37-.18-7.2-7.2c-.18-1.44.12,3.3.21,3.84.82,4.61,6.88,6.51,10.58,4.3.91-.55,6-4.32,1.41-1.24l-8.73-1.13a9.33,9.33,0,0,0,2.27,2c.68.44,3.53,2,1.38.76l-3.31-4.3a2.77,2.77,0,0,1,.26,1.1c.32,2.35,2.86,4.48,5,5a11.91,11.91,0,0,0,5.18,0h-3.83l.55.14-5-8.86,1.24-2.14-1.12,1.45a13,13,0,0,0-.94,3.14c-.58,2.57-.13-1.45-.18,1.19a20.61,20.61,0,0,0,.19,3.32c.54,3.81,5.51,6,8.86,5,.55-.16,1.12-.3,1.66-.51l1.72-.72q3.24-2.35-.72.11l-9.12-6.95c0-1.47-.23,1.58-.21,1.93a7.35,7.35,0,0,0,7.2,7.2q2.27.19-1.86-.91l-2.58-9.85-.09-.07,8.73-1.12c2,2.12,2.19,2.17.53.16a14.54,14.54,0,0,0-1.91-1.42,7,7,0,0,0-7.27,0c-1.31.95,1.75-.29,1.45,0-.57.5-3.26.8-4,1.17-2.28,1.11-3.5,3.8-3.57,6.21a7.92,7.92,0,0,0,.43,2.82L121,71.48c1.3-1-1.25.58-1.56.81-3.63,2.79-5,7.67-1.45,11.31a10.9,10.9,0,0,0,2.62,1.8c2.27,1.27.82.78-.62-.68l-2.11-5.09q9.23-5.1,4.55-5.13a7.28,7.28,0,0,0-3.64,1c-1.34.38,1.55-.62-.26.07-2,.77-3.54,1.52-4.69,3.43a17.64,17.64,0,0,0-.9,2.21c.42-1,.45-1.12.09-.47l8.13-3.31-1.45-.29c-4.78-.93-8.81,2-9.12,6.95,0,.38.16,3.15.22,2.14l9.12-6.95c1.44.27-.57-.48-.93-.62A12,12,0,0,0,115.8,78c-3.81-.41-7.29,3.63-7.2,7.2,0,.93.07,1.79,0,2.71l5.29-6.94c-.44.11-.88.24-1.32.38a7.36,7.36,0,0,0-5,8.85,6.45,6.45,0,0,0,.84,2.22q2.36,3.23-.17-.69V87.87l-.35,1,3.31-4.31-2.45,1.09c-3.5,1.58-4.43,6.8-2.58,9.85l.64,1,1.12-8.73a9.2,9.2,0,0,0-2.74,5.8c-.08.85.3,2.93.09.82,0,.5,0,3.55.18,1.77L116.27,90c1.51.64-1.06-.71-1.43-.91a9.9,9.9,0,0,0-2.75-.92c-4.88-1-8.68,2-9.11,6.94,0,.37,0,3.49.13,1.8l7.2-7.2a10.75,10.75,0,0,0-8.94,3.61,8.17,8.17,0,0,0-2,5.14,8.29,8.29,0,0,0,1,3.64c.18.34,1.86,3,.94,1.24l4.3-10.58c-.91.37-1.94.72-2.8,1.16-1.88,1.36-2,1.49-.19.39s1.67-1-.46,0a8.73,8.73,0,0,0-3.31,4.31l-.18.55q-.69,4.11.46-.54l11.31-1.45c.79.77-1-1.93-1.43-2.39a7.28,7.28,0,0,0-11.31,1.46,10.91,10.91,0,0,0-1.07,3c-.67,2.65-.48.87.53-.85L107,95.85c1.65.92-2.66-1.53-3.06-1.69-2.41-.92-5.23.23-7,1.86a8.6,8.6,0,0,0-2.81,7.4l7.2-7.2a37.32,37.32,0,0,0-4,.21c-4.29.85-6.93,6.94-4.31,10.57.6.83,2.68,2.86,2.71,2.9V99.72l-1,.88c-3.08,2.68-2.4,7.41,0,10.18l.88,1-1.12-8.73q-1.29,2.34,2.61-1.9c-2.91,1-5.43,3.69-5.28,6.94a13.1,13.1,0,0,0,.28,2.42c1,2.55,1,2.28.08-.79l7.2-7.2c1.82-.08-1.41-.27-1.8-.27a7.31,7.31,0,0,0-7.2,7.2c0,.49,0,1,0,1.46l3.57-6.21q-1.86.9,2-.44c-.86.08-1.71.21-2.55.37-5,.9-6,6.75-4.31,10.57a11.47,11.47,0,0,0,.62,1.27L94,105.91a12.48,12.48,0,0,0-3.79,1.62,7.4,7.4,0,0,0-2.58,9.86l-.26-.77,6.94-9.11c1.7.11-2.86,0-3.17.1a8.56,8.56,0,0,0-3.58,2.21c-2.12,2.06-2.43,4.17-2.72,7L87,111.68a16.62,16.62,0,0,0-1.7,2.23l4.3-3.31-1.42.29c-4,.82-5.69,5.25-5,8.86.28,1.57.45,4.43.31.08l9.11-6.94q3.63,2.28,1.49.7a3.68,3.68,0,0,0-1.23-.8C89,111,85.43,112,82.93,115.37l-.85,1.13,9.85-2.58a15.8,15.8,0,0,0-2.18-1.17c-3.59-1.58-7.7-1-9.85,2.58-1.83,3-1,8.29,2.58,9.85a16.31,16.31,0,0,1,2.18,1.17c3.56,2.25,7.58.44,9.85-2.58l.85-1.13-9.85,2.58a28.17,28.17,0,0,0,3.18,1.55c4.4,1.06,9.27-2.12,9.12-6.94a12,12,0,0,0-.28-2.46c-.87-1.76-1-2.25-.55-1.45l-5,8.86a10.5,10.5,0,0,0,5.45-3.26c-.55.72,1.43-2.46,1.57-2.83,1.8-4.62-2.6,2.51-.84,1l-7,1.85a30.52,30.52,0,0,0,3.17.41c4.27.27,8.69-4.89,6.94-9.12a26.49,26.49,0,0,0-1.19-2.67L97.48,120c1.21-.83-1.49.33.35-.17a7.3,7.3,0,0,0,4.31-10.58,10.5,10.5,0,0,1-.62-1.26l-4.31,10.57c-1.85.34,1.68-.34,2.2-.53a17.21,17.21,0,0,0,1.79-.85,7.23,7.23,0,0,0,3.56-6.22c0-.48,0-1,0-1.46l-7.2,7.2c-1.77,0,1.43.28,1.8.27,3.76-.16,7.39-3.17,7.2-7.2a13.1,13.1,0,0,0-.28-2.42q-1.45-3.82-.08.79l-5.29,6.94c2.6-.86,4.73-2.17,6-4.71a7.52,7.52,0,0,0-1.13-8.72l-.88-1v10.18l1-.88c3-2.65,2.46-7.45,0-10.18-.84-.94-3.07-3.61-.45,0l-4.31,10.57.56-.11H97.89a11.12,11.12,0,0,0,3.44.42c3.71-.3,7.42-3.06,7.2-7.2q0-2.94-1.41,2.78l-7,1.85c-4.54-1.74-1.76-.55-.38.23a7.32,7.32,0,0,0,9.85-2.58,11,11,0,0,0,1.07-3c.67-2.65.48-.86-.53.85L98.81,105c-.79-.77,1,1.93,1.44,2.39a7.28,7.28,0,0,0,11.31-1.46c.25-.44,1.7-5.1,1.17-3.46l-5,5a14,14,0,0,0,2.84-1.43c2.9-1.8-3.38,1.54-1.11.62,4.4-1.79,6.66-6.09,4.31-10.58-.19-.35-1.87-3-.95-1.24v7.27c.88-2-2.61,2.77-2.6,1.94,0-.12-1,0,.12.07,4.09.27,6.92-3.54,7.2-7.2,0-.39,0-3.51-.13-1.8l-9.12,6.94q1.71.44-1.16-.94a4.61,4.61,0,0,0,1.9,1.32c5.3,2.26,10.19-.42,10.83-6.22,0-.42-.4-3.41-.18-1.77-.12-.9-.14-1.84-.35-2.74l-1.85,7,.63-.71a7.39,7.39,0,0,0,1.13-8.72l-.64-1L116,98.08c-1.74.79,2.09-.85,2.45-1.08a7.93,7.93,0,0,0,3.39-4.55,8.2,8.2,0,0,0,.26-4.58,7.78,7.78,0,0,0-.85-2.22q-2.38-3.24.19.7l-5,8.85c.43-.14.87-.26,1.32-.38,3.24-.88,5-3.75,5.28-6.94.07-.92,0-1.78,0-2.71l-7.2,7.2c-5.09-.54-1.38.46.31.78,4.78.89,8.81-2,9.11-6.94,0-.39-.15-3.16-.22-2.14L115.89,91l1.45.29A7.43,7.43,0,0,0,125.47,88,18.16,18.16,0,0,0,127,84.53l-5,5c1.2-.35,5-2.48,2.45-1-1.5.29-1.66.43-.49.42a7.11,7.11,0,0,0,3.63-1,9.58,9.58,0,0,0,2.54-2A9,9,0,0,0,132,77.71a7.67,7.67,0,0,0-2.15-3.48,7.21,7.21,0,0,0-3.18-1.85c-1.47-.58-1-.24,1.48,1l-1.46,11.31c-1.3,1,1.25-.58,1.56-.82,2.38-1.83,4.49-4.92,3.3-8.13l.09,1L128.11,83c-4.73,2.32-2.1.88-.19.26a9.3,9.3,0,0,0,2.75-1.41H123.4q-3-3.18-.54-.16a14,14,0,0,0,1.92,1.42C127.7,85,131.05,84,133.5,82a10,10,0,0,0,2.34-2.86c1.81-3.06,1-8.28-2.58-9.85a13.2,13.2,0,0,0-5.41-1.05l7.2,7.2c.06,1.48.23-1.57.21-1.93-.18-4.45-4.48-8.46-9.11-6.94-.6.2-3.53,2-3.63,2,.47.05,3.7-1.69,1-.87l8.86,5-.07-.46V76.1a5.69,5.69,0,0,0,.33-1.63c.39-2.23-.1-1.36-1.45,2.63.71.13,1.92-3.42,2-3.68a7.3,7.3,0,0,0-5-8.86,11.91,11.91,0,0,0-5.18,0h3.83l-.55-.14,5,5a7.79,7.79,0,0,0-3.57-5.4c-.66-.43-1.46-.56-2.12-1,.24.15,2.13,1.34,1.39.45-1.93-2.31-6.26-2.77-8.73-1.13a17.71,17.71,0,0,0-1.92,1.43q-2.48,3,.51-.19L127.4,68l-.1-.54v3.83a9,9,0,0,0,.4-3.3c-.44-3.46-3-7.75-7.2-7.2l-1.37.18,6.21,3.56c.65,1.45.55,1.17-.32-.84q-2.52-3.47.4,1.18l-1.85,7a12.83,12.83,0,0,0,2.29-3.1c1.28-2.64,1.45-6.65-1.13-8.73-.92-.74-6.09-4.55-1.51-.86l1.85,7c2-7.35-5-12.22-11.63-10.5l8.13,3.3c-2.47-3.42.32.23.1.48a8.33,8.33,0,0,0-.38-2c-.79-4.65-6.89-6.47-10.57-4.3-.31.18-2.78,1.77-1.49,1.15L118,55.38c1.35,1.54-1.81-1.83-2.08-2a13,13,0,0,0-3.05-1.12l5,8.86a10.86,10.86,0,0,0-1.28-9.07c-1.29-2-3.68-3.78-6.22-3.57a4.74,4.74,0,0,1-1.13,0l7.2,7.2-.11.74c.5-3-.29-6.62-3.31-8.13l-1-.53L115.51,54a7.61,7.61,0,0,0-.07-1.51c-.32-3.3-2-5.93-5.29-7a4.8,4.8,0,0,0-1.19-.28l5,5-.36-1c-1.29-3.69-4.88-6.09-8.86-5-.49.14-1,.26-1.44.43l-1.72.73q-3.33,2.42.89-.24l8.13,10.58q-3.5,3.22-.37.68a15.8,15.8,0,0,0,1.4-1.88c1.27-1.92,1.46-5.37,0-7.27-1.16-1.52.31,3.73.45,2.27a6.69,6.69,0,0,0-.62-3,9,9,0,0,0-4.7-4.82,9.18,9.18,0,0,0-6-.46,8.52,8.52,0,0,0-3.17,1.85c-.3.27-2.45,2.26-1.16,1.27l8.72-1.13c-.25-.14-1.84-.8-.32.06l-1.46-1.13a4.93,4.93,0,0,1,2.34,5.15c.54-3.72-.87-7.91-5-8.86a12.13,12.13,0,0,0-5.16,0h3.83l-.51-.15,5,5-.27-1v3.83a17.41,17.41,0,0,0,0-5.85v3.83c2.06-6.5-3.62-11.85-10-11.08l6.94,5.28-.07-.38v3.83a12.91,12.91,0,0,0,.24-5.6c-.53-2.8-4-5.61-6.94-5.28-.74.08-1.45.05-2.2.18A5.41,5.41,0,0,0,89,32c3.95,0,5-.28,3.27-.78l5,8.85c.06-.5.14-1,.23-1.5.6-3.69-.92-7.94-5-8.86q-.72-.15-1.41-.33l5,8.85c.59-3.31.64-6.61-2.2-9L96,34.33c.17,1.45.1-.33.14-1A10.48,10.48,0,0,0,96,30.11c-1-4.25-6.78-6.95-10.57-4.3-.94.65-5.95,4.49-1.35,1.29l5.54-.72c-1.21-.29-.63.1,1.74,1.19q-2.44-2-.86-.55l1.13,8.73a16.25,16.25,0,0,0,1.6-6.4c.46-9.27-13.94-9.24-14.4,0Z" style="fill:#fff"/><path d="M25.28,81.06l1-.49-8.72-1.13c-1.23-1,.87,1.12,1.16,1.35,2.31,1.9,6,3.07,8.72,1.13a10,10,0,0,1,1-.68H21.16a11.59,11.59,0,0,0,3.47,1.62,8,8,0,0,0,3.11.2c3.08-.39-4-1.39-2.63-.33,2,1.51,5.21,1.16,7.27,0a8.38,8.38,0,0,0,1.91-1.38q2.52-3.09-.6.3l-9.85-2.59c-.65-2.92-.76-3-.33-.37a8.72,8.72,0,0,0,1,2.21,7.29,7.29,0,0,0,11.31,1.45,8.07,8.07,0,0,0,1.54-1.85c1.08-2.38,1-2.3-.37.22H26.83a8.93,8.93,0,0,0,9.64,3.06c3.44-.91,4.83-2.9,6.4-5.78l-6.22,3.57c-1.89-.14,2.81,0,3.11-.11a15.08,15.08,0,0,0,2.7-1.19H35.2a8.76,8.76,0,0,0,4.67,1.62c4.82.09.48-.18-.61-.73L36,76.86a2.56,2.56,0,0,1,.24.87c.8,4.11,5.25,5.59,8.85,5a7.51,7.51,0,0,0,2.83-.9c.57-.29,3-1.71,1.65-1.09l-10.58-4.3.1.62V73.26a11.46,11.46,0,0,0,0,5.21c1.38,4.78,6.38,6.27,10.57,4.3a9.62,9.62,0,0,0,3-2.4L47.5,82.48c1.65-.14-3.26-1.58-2-.67,3.43,2.44,7.7.3,9.85-2.58.86-1.13,2.9-3.49,0-.37L46.59,80c1.48.85-1-1,.35.25,2.29,2.1,6,2.88,8.73,1.12.36-.22.72-.45,1.06-.7L48,79.53c-3.64-4.45.17.72.91,1.63,2.65,3.25,7.39,2.19,10.18,0,.3-.24,2.37-2.6,1-1.25l-7,1.85a10.78,10.78,0,0,0,2.33.37C54.26,82,54.1,82,55,82.26c3.56,1.23,8-1.42,8.85-5a13.38,13.38,0,0,0-.18-5.74v3.82l.1-.41L53.14,79.21c3,1.45-.51-1.2,0-.29,1.67,3,5,3.87,8.13,3.31l1-.18-8.86-5c-.57-1.94.09,1.27.21,1.65C55,83,60.12,85.44,64.21,83a7.7,7.7,0,0,0,3.13-3.09c.33-.72-3.17,2.65-.4.57L56.36,76.15c-.74-2.3.4,2,.61,2.51a7.88,7.88,0,0,0,2.54,3.14,15.61,15.61,0,0,0,4.72,2.71c6.61,1.8,10.75-4.2,10.9-10L73,79.6l.63-.78-5.09,2.11a3.42,3.42,0,0,1,1.59,0L64,77.35c.44.64.73,1.34,1.17,2,2.36,3.47,6.09,4.28,9.85,2.58.34-.15,2.67-1.54,1.64-1.07l-8.73-1.13a6.83,6.83,0,0,0,3.34,2.06c-2.87-1.78-3.53-2.1-2-.94a3.63,3.63,0,0,0,1,.7c1,.56,3,1.4,4.07,1-.86.34-6.7-2.76-1.87.1,3.88,2.3,9.51.23,10.58-4.3.09-.39.75-3.54.18-1.81l-3.31,4.3A7,7,0,0,1,81.16,80l-9.85-2.58c-1.31-1.87.88,1.71.7,1.35a18.24,18.24,0,0,0,2.24,3.42c2,2.1,6.28,3,8.72,1.13l2.08-1.6q-3.43,1.62-1.57,1a7.12,7.12,0,0,0,3.17-1.85q1.83-2.51.77-.9L78.7,81.06c-1.65-1,2.56,1.31,3.54,1.71,2.45,1,5.17-.33,7-1.85a8,8,0,0,0,2.11-3.39c.73-1.85,1.19-1.51-1,.84H80.17a6.91,6.91,0,0,0,3.34,2c6.11,1.74-2.13-1.45.48.12a7.31,7.31,0,0,0,9.85-2.58c.39-.65,2.15-3.68,1.33-2.53L85.32,78c-1.16-.8-2.79-2.44-.92-.26a12.07,12.07,0,0,0,2.39,2.12c2.59,1.78,6.61,1,8.73-1.13,1.19-1.2,3.43-2.66-.17-.31l-8.73-1.13c-.75-1.71-.94-2.07-.59-1.07.94,2.8,3.72,5.56,7,5.29l1.46-.13L87.5,72.21l-.23,1.44c-.63,3.86,1,7.71,5,8.86a7.45,7.45,0,0,0,4.36,0l-7-1.85A14.14,14.14,0,0,0,91.41,82c2.24,1.09,2.29,1,.18-.34q-2.88-2.34-.42.39.94.75,1.92,1.47c2.88,2.11,8.43.73,9.85-2.59.33-.76.65-1.52,1-2.28.22-2,.3-2.55.24-1.57l-6.94,5.28a25.21,25.21,0,0,0,3.65-.5,7,7,0,0,0,5-5l.25-1.3-5,5,1.18-.42-7-1.85c-3-3.74-1.14-1.2-.36.11,2.51,4.21,7.81,4.47,11.31,1.45l1.1-1-12-3.18c-.63-1.74.19,1.32.33,1.69C97.27,82,101.82,84,106.2,81.74a9.39,9.39,0,0,0,4.67-5.89l-6.94,5.28,1.06.14c3.06.38,6.2-2.51,6.94-5.29l.33-1.21-5,5,1.38-.29-5.54-.73-.35-.3-2.11-5.09c.21,3.64,1.32,5.83,4.39,7.87l-3.31-8.13-.22,1.42c-.87,5.59,3.1,10,8.85,8.86.55-.1,4.64-2.64,2.92-1.54H106c-1.86-1.12,1,.77,1.65,1a11.42,11.42,0,0,0,3.13.66c3.82.48,7.26-3.69,7.2-7.2a11.58,11.58,0,0,0-.27-2.49c-1-2.47-1-2.29-.1.52l-9.11,7c-1.3-.21,1.46.55,1.82.61,5,.79,8.51-1.93,9.12-6.94a12.48,12.48,0,0,0-.34-3.54v3.83l.15-.56-10.58,4.3c1.26.55,3,2.43.7-.4-3.11-3.85.41,1.36,1,2.06,1.76,2.26,6.43,2.86,8.73,1.13.41-.31.86-.56,1.28-.86l1.45-1.13q2.53-3.1-.62.34l-5.55.72c1.34.49-3.06-2-2.63-2.07.26,0,.72,1.42.78,1.56,1,2.42,3.88,3.32,6.22,3.56a7.39,7.39,0,0,0,5.89-2c1-1,4.62-6.63,1-2.15l-5.09,2.11a1.94,1.94,0,0,0,.76,0l-5.09-2.1c-1.09-.85,1,1.12,1.25,1.38a24.06,24.06,0,0,0,2.62,2c7.58,5.35,14.79-7.13,7.26-12.44-1.29-.91.3.33.61.72a13.43,13.43,0,0,0-1.56-1.8A8.06,8.06,0,0,0,122,67.53a7.56,7.56,0,0,0-5.42,2.26,10.69,10.69,0,0,0-1.63,2.49c-1.08,2-1.19,1.59.73-.51l5.09-2.11-.8-.09,6.22,3.57a10.24,10.24,0,0,0-6.38-6,7.7,7.7,0,0,0-6.13.71c-1.38.81-1.72,1.75-2.79,2.7.54-.48,2.8-2.61.88-1.17l8.73,1.13c1.07,1.37,2.28,2.91.69.46A10.61,10.61,0,0,0,119,68.63a12.55,12.55,0,0,0-3.1-2c-4.12-1.81-9.3-.62-10.58,4.3a10.88,10.88,0,0,0-.4,2.48c.53,1.93.56,2.47.08,1.62l9.11-7c1.3.21-1.46-.55-1.83-.61-4.46-.7-9.2,1.84-9.11,6.94a10.58,10.58,0,0,0,.27,2.5c1,2.46,1,2.29.1-.53l7.2-7.2-.36,0,5.09,2.1a8.91,8.91,0,0,0-2.24-1.8,7.17,7.17,0,0,0-7.27,0,8.79,8.79,0,0,0-1.16.84c-1.49,1.09-.92.84,1.69-.75l8.85,8.85.23-1.42c.52-3.38-.41-6.21-3.31-8.14l-.76-.5,3.57,6.22c-.4-6.7-5.24-10-11.68-8.63a7.14,7.14,0,0,0-5,5l-.32,1.21L105,66.87l-1.06-.14c-3.2-.39-6,2.54-6.94,5.29q4.29-4,1.94-2.72l10.58,4.3c.64,1.75-.19-1.32-.32-1.69-1.92-5.26-7.76-6.87-12-3.17l-1.1,1,11.3,1.46c.86,1.43-1.61-2.69-1.88-3a7,7,0,0,0-7-1.85C94.88,67.55,92.75,69.21,92,73l5-5c-.63.11-1.94.06.18,0a7.52,7.52,0,0,0-6.95,5.29c-.41,1.12-1.62,4.77.25.42l9.85-2.59c4.48,3.29-.26-.65-.9-1.07-.89-.6-3.92-1.92-.91-.33,3.46,1.83-1.5-1-1.9-1.12a7.56,7.56,0,0,0-4.14.1h3.83l-.22-.06,5,8.86.23-1.44c.69-4.18-1.83-9.55-6.94-9.11L93,67.06l6.94,5.28a12.26,12.26,0,0,0-3.12-5.28c-2.21-2.13-6-2.88-8.72-1.13-.63.42-3.33,3.16-2.74,2.57l8.72-1.13c1.16.8,2.79,2.45.92.26a11.75,11.75,0,0,0-2.39-2.11c-3.41-2.36-7.73-.38-9.85,2.58-.37.51-1.22,3.1-.9,1.88.2-.73-.35.51-.43.65l9.85-2.58a12.13,12.13,0,0,0-3-1.48l-1.91-.26q-3.1-.39,4,1.88c-2.41-2.93-7.74-2.64-10.18,0a10.2,10.2,0,0,0-2.12,3.47c-.91,2.24-.81.59,1-.92l7-1.85c-1.29-.55-.69-.18,1.78,1.11A8.66,8.66,0,0,0,86,68.62a7.36,7.36,0,0,0-8.73,1.13,25.23,25.23,0,0,0-1.89,2.35l4.3-3.31a16.67,16.67,0,0,0-4,2.06L84.43,72c2.84,3,.72,1.17,0-.32.75,1.64-.27-.9-.73-1.54-2.24-3.19-6.24-4.66-9.85-2.58a10.15,10.15,0,0,0-3.84,3.4c-.23.39-1.3,5.18-.91,3.53l10.58-4.3c1.35.8-.38-.56-1.12-1s-3-1.52-3.85-1.11c-1.71.8,4.22,1.54,3.68,1.74a5.49,5.49,0,0,0-2.32-1.49c-1.84-.81-1.19-.41,2,1.22C76,66.86,72,67.21,69.34,68.41c-.33.15-2.67,1.54-1.63,1.08l9.85,2.58c-2.31-3.4-4.4-5.9-9-5.54A7.88,7.88,0,0,0,63,69.22a8.63,8.63,0,0,0-2,3.38l-.26,1.91q-.13,2,.42-.93l4.3-3.31a2.91,2.91,0,0,1-1.22.35l5.55.73a7.43,7.43,0,0,0-1.71-1.07c-.46-.17,4.15,8.13,2.18,2C69,68.37,63.59,65.07,59.67,68c-.75.56-1.57,1.07-2.27,1.68a5.4,5.4,0,0,0-1.86,2c-.94,1.27-.48.88,1.4-1.18l10.58,4.31c.6,1.94-.1-1.26-.22-1.65-1.16-4-5-5.72-8.85-5l-1,.18,8.13,3.3a11.6,11.6,0,0,0-5.16-4.88c-4-1.93-9.48-.52-10.58,4.31A13.55,13.55,0,0,0,50,76.82V73l-.09.41,8.85-5a15.63,15.63,0,0,0-3-.61c2.51.42-.74-.15-1.77,0a7.31,7.31,0,0,0-4.14,2c-.59.54-2.63,2.53-1,1.24H59.1c3.63,4.46-.18-.71-.91-1.62-1.87-2.29-6.31-2.79-8.73-1.13-.34.25-.7.49-1.06.71l8.73,1.13a18.17,18.17,0,0,0-3.28-2.51,7.32,7.32,0,0,0-8.72,1.13,11.94,11.94,0,0,0-1.52,1.87c-.6,1.85-.83,2.33-.68,1.41l9.85-2.58a7.88,7.88,0,0,0-5.28-1.3,7.84,7.84,0,0,0-5.09,2.11c-.48.44-1.25.71-.06.15l10.57,4.3-.13-.47V78a16.34,16.34,0,0,0,0-5.36c-.79-5-6.83-6-10.57-4.3a5.21,5.21,0,0,0-2,1.36c1.73-.8,2-1.08.94-.83l8.85,5C48.89,67.87,43,67,38,67.74l5.55.73c-3.32-1.94-5.86-1.78-9.28-.17l5.54-.73a29.71,29.71,0,0,0-3.11-.4,7.06,7.06,0,0,0-6.22,3.56c-.38.7-.7,1.43-1.05,2.15l4.31-3.3a4.44,4.44,0,0,1-1,.31c-.4,0,5.9,2.54,4.37.65-2.43-3-7.68-2.55-10.18,0a10,10,0,0,0-1.54,1.88q-1.62,3.57.37-.25L37,73.63q1,4.43.32.39a10.91,10.91,0,0,0-1-2.23,7.33,7.33,0,0,0-9.86-2.58,8.6,8.6,0,0,0-1.91,1.38q-2.52,3.09.6-.3h7.27c-2.44-1.81-4.66-1.67-7.51-1.24H28.7c-1.53-.44,1.24.72-.27-.24a7.12,7.12,0,0,0-7.27,0,11.19,11.19,0,0,0-1,.67l8.73,1.13c1.22,1-.88-1.12-1.16-1.35A7.58,7.58,0,0,0,19,68.13l-1,.5c-8.25,4.24-1,16.67,7.26,12.43Z" style="fill:#fff"/></svg>