<svg id="레이어_1" data-name="레이어 1" xmlns="http://www.w3.org/2000/svg" viewBox="0 0 150 150"><path d="M22.88,115.33c.23.44.94.61,1.21,1s1.17.38,1.47.79-1.07,2.08-.74,2.47,1.47.11,1.81.48.07,1.41.43,1.75,1.68-.34,2.07,0,1.08.2,1.49.5.35,1.21.77,1.49,1,.26,1.45.52.4,1.34.85,1.58.67,1,1.13,1.21,1.25-.24,1.71,0,.9.51,1.38.69,1.08,0,1.56.19.67,1.28,1.15,1.43,1.32-.87,1.81-.74.94.4,1.43.52,1.19-.7,1.69-.59.8,1.09,1.3,1.18,1-.11,1.54,0,1-.19,1.55-.11.86,1.13,1.36,1.19,1,0,1.53.09,1.07-.54,1.58-.49.91,1.17,1.41,1.21,1.07-.46,1.57-.42,1,.52,1.49.55l1.52.09c.51,0,1,.45,1.51.48s1-.59,1.54-.57,1.06-1.27,1.56-1.25S66,132,66.52,132s1-.58,1.56-.58,1-.31,1.54-.31,1,0,1.54,0,1,.39,1.56.37,1,.22,1.57.19.94-1.24,1.46-1.28,1,.22,1.55.18,1.11.7,1.62.64,1-.5,1.5-.57,1.1.43,1.61.36.9-.95,1.41-1,1.26,1.26,1.77,1.17.81-1.37,1.31-1.46,1.15.45,1.65.35.94-.6,1.44-.71.91-.66,1.41-.78,1.25.75,1.75.63.72-1.33,1.22-1.46.9-.6,1.39-.74,1-.12,1.53-.27,1.16.27,1.65.12.68-1.21,1.17-1.37,1.15.2,1.64,0,1.14.11,1.62-.07.86-.64,1.34-.83.71-1,1.18-1.2,1.17.15,1.65,0,1.48.81,2,.6,1-.38,1.45-.59,1-.38,1.4-.6.42-1.42.86-1.64,1.31.31,1.75.08-.07-2.15.37-2.4,1-.17,1.45-.44.6-.83,1-1.11.91-.38,1.31-.68,1-.34,1.35-.66,1.77.49,2.14.15.22-1.24.57-1.61,1.21-.3,1.53-.68.79-.73,1.09-1.14.23-1.13.5-1.55.15-1.1.4-1.54.74-.77.95-1.23.62-.86.81-1.33-.82-1.38-.66-1.85.3-.93.44-1.42.69-.83.82-1.32,1.19-.76,1.3-1.26-.4-1.11-.31-1.61.49-.94.57-1.44-1.32-1.2-1.26-1.7,0-1,.07-1.49.17-1,.22-1.47,1.55-.88,1.58-1.37.72-1,.75-1.49-.19-1-.16-1.55-.64-1.06-.61-1.57-1-1.06-1-1.57.67-1,.68-1.5,1.13-1,1.14-1.5-.87-1-.87-1.55-.15-1-.15-1.52-.31-1-.32-1.52.43-1,.41-1.54-.63-1-.65-1.5,1.65-1.11,1.62-1.62-.3-1-.34-1.52-.61-1-.66-1.49-.79-.94-.84-1.45-.32-1-.38-1.49-.21-1-.28-1.49.32-1.07.24-1.57.93-1.19.84-1.7-.72-.91-.82-1.41.52-1.16.41-1.66-2.06-.59-2.17-1.08,1.31-1.37,1.19-1.86-1-.81-1.11-1.3.72-1.29.57-1.78-.24-1-.4-1.53-.41-1-.58-1.47-.46-1-.65-1.45-1.7-.44-1.9-.91-.43-.93-.65-1.4-.34-1-.58-1.42-.43-.92-.68-1.37-1-.61-1.23-1-.62-.78-.91-1.2.76-1.83.45-2.24-1.82.15-2.15-.25-.16-1.21-.51-1.59-1.33-.07-1.71-.42,0-1.49-.43-1.82-1.17-.06-1.58-.34a11.74,11.74,0,0,0-1.3-.59c-.44-.23-.21-1.95-.68-2.12a8.93,8.93,0,0,0-1.64-.1c-.49-.08-1.06.42-1.56.46s-1.24-.63-1.71-.47a6.77,6.77,0,0,0-1.39,1c-.4.28-.66,2.06-1,2.48-.1-.49-1-1.69-1.12-2.17s.24-1.07,0-1.53.58-1.36.36-1.81-.6-.86-.86-1.28-.37-1-.66-1.41-1.45-.14-1.77-.51,0-1.45-.31-1.79-1.14-.27-1.52-.58-.58-.93-1-1.21-1.37.31-1.8.06-1-.21-1.4-.42a12.92,12.92,0,0,0-1.25-.71c-.46-.17-.58-1.48-1.06-1.6s-1-.23-1.51-.31-1-.36-1.52-.4-1.06-.06-1.56-.05-1,.42-1.52.47-.87.94-1.36,1-1-.1-1.5,0-1,.23-1.43.4-.52,1.25-1,1.45-.86.32-1.29.56a13.21,13.21,0,0,0-1.15.81c-.42.28-1.91-.93-2.3-.62s.09,1.62-.27,2-.95-.39-1.28,0c-.29-.44-1.44.52-1.78.12a11.44,11.44,0,0,0-1.06-1c-.38-.37-.11-1.39-.53-1.72s-.36-1.36-.8-1.65-.9-.72-1.37-1-1.46.59-2,.39-1.1.08-1.6-.07-.87-.73-1.38-.83-1.08.41-1.6.36-1-2-1.52-2-.95,2-1.48,2.05-1-.22-1.55-.1-1.29-.69-1.79-.52-1.25-.06-1.72.17-.4,1.59-.85,1.86-1.56-.39-2-.07.21,1.94-.18,2.29-.82.57-1.18,1-.35,1-.67,1.41-.92.55-1.2,1-1.77.24-2,.72.78,1.5.6,2-.72.85-.85,1.36a15.93,15.93,0,0,0-.38,1.66,8,8,0,0,0-1-1.31c-.37-.33-1.06-.18-1.49-.43s-.95,0-1.42-.21a8.15,8.15,0,0,0-1.32-.29c-.49-.09-.77-2-1.27-2a12.74,12.74,0,0,0-1.61.23c-.49.05-.76,1.49-1.24,1.61a8.66,8.66,0,0,0-1.26.62c-.46.19-1.61-1-2.05-.78s-.41,1.28-.82,1.57-.72.68-1.1,1-.75.64-1.1,1-1.45.08-1.77.47.68,1.79.39,2.2-1.79,0-2.06.41-.59.86-.84,1.3.5,1.47.25,1.93-.53.9-.75,1.37.25,1.24,0,1.72-2,.3-2.22.78-.76.87-.93,1.37-.38,1-.54,1.51,1.67,1.61,1.53,2.11-1.53.66-1.66,1.17-.38,1-.5,1.51-.29,1-.4,1.53,1.27,1.32,1.17,1.84-.26,1-.35,1.52S21,58.24,21,58.76s.12,1.08.05,1.6.26,1.09.19,1.61-.26,1-.32,1.55-.46,1-.52,1.52-.94.91-1,1.41,1.53,1.17,1.48,1.67-1.68.86-1.73,1.36-.33,1-.37,1.49,1.78,1.15,1.75,1.65-1.13.93-1.17,1.43-.63,1-.66,1.48.07,1,0,1.52,1.19,1.07,1.16,1.57-.5,1-.52,1.49-.9,1-.91,1.48.34,1,.33,1.52.3,1,.3,1.52.75,1,.75,1.52.11,1,.11,1.5-1.84,1-1.83,1.53,1.24,1,1.25,1.49-.48,1-.46,1.52-.17,1-.15,1.53,1.46,1,1.48,1.51-.14,1.06-.12,1.58-.51,1.07-.48,1.6-.05,1,0,1.57.53,1,.57,1.54-.34,1.08-.29,1.6-.31,1.1-.24,1.62.72,1,.81,1.47-.91,1.26-.8,1.77,2.05.6,2.18,1.11.07,1,.22,1.52-.1,1.11.09,1.61-.07,1.15.14,1.63S22.63,114.87,22.88,115.33Z" style="fill:#d2bea2"/><path d="M26.39,121c.7,0,1.39-.23,2.09-.25l-2.7-2.7c0,.29,0,.58.06.86.1,1.32,1.16,2.89,2.7,2.7.7-.08,1.39-.36,2.06-.44L28,117.76a14.68,14.68,0,0,0-1.25,4.42c-.13,1.84,1.82,3,3.42,2.6.92-.2,1.63-1,2.52-1.17l-3.32-3.33c-.23.65-.84,1.23-1.09,1.93-.73,2,1.46,3.78,3.32,3.32.73-.18,1.31-.71,2-.89l-3.32-3.32L30,122.63a2.76,2.76,0,0,0,1.24,3.05l.68.34-1.24-3c-.11.57-.37,1-.47,1.61a2.74,2.74,0,0,0,4,3c.68-.3,1.12-.86,1.77-1.21-.87.47-1.92-.15-.29.52l-1.89-3.32c-.26,1.2-1.3,2.17-1.56,3.4a2.74,2.74,0,0,0,3.32,3.32,10.58,10.58,0,0,0,3.27-1.55l-4-1.62a4.54,4.54,0,0,1,.28,1.56c.07,1.83,2.32,3.66,4.06,2.33.82-.62,1.26-1.71,2-2.28l-4.06-2.33c-.06,1.07-.73,2.12-.79,3.25-.1,1.91,2.43,3.54,4.07,2.33.5-.38.9-.9,1.38-1.26l-4.07-2.33c0,.71-.11,1.38-.07,2.09a2.76,2.76,0,0,0,2,2.6c2.07.48,2.48,0,4-1.12H40.83c-.8-.41-.68-.95-.31.39.49,1.84,3.17,2.78,4.51,1.19.58-.69.85-1.62,1.41-2.28l-4.52-1.19c.13.66.08,1.38.22,2.06a2.71,2.71,0,0,0,4.51,1.19c.53-.64.75-1.51,1.24-2.11l-4.51-1.19a11.69,11.69,0,0,0,2.31,4.17,2.74,2.74,0,0,0,4.24-.54,23.71,23.71,0,0,1,1.54-2.8l-4.24-.55a14.29,14.29,0,0,1,.75,2.57c.58,1.5,2.4,2.68,4,1.61,1.81-1.23,1.72-2.26,2.7-4.05l-4.93-.65c.34,1,.09,2.18.44,3.22.57,1.7,3.17,2.92,4.51,1.19l.8-1-4.24-.55c.24.51.35,1.13.61,1.66.89,1.84,3.72,1.69,4.66,0,.41-.73.46-1.62.85-2.33l-4.93-.64c.32.86.25,1.78.58,2.64.76,2,3.78,2.88,4.93.65a5.61,5.61,0,0,0,.61-1.69c.2-1.29-.46-.43,0-.67l-3.7-1c.81,1.65.7,2.42,2.31,3.64a2.71,2.71,0,0,0,3.69-1c.45-.88.37-2,.79-2.83l-4.93-.64c.46,1.17.14,2.58.61,3.76.75,1.9,3.85,3,4.93.64a13,13,0,0,0,.55-2.2l-3.7-1c.28.45.4,1,.68,1.45a2.72,2.72,0,0,0,4.66,0c.31-.52.45-1.12.76-1.63l-4.94-.65c.41,1.05.22,2.24.63,3.28a2.77,2.77,0,0,0,3.32,1.89c1.65-.49,2.22-1.26,3.1-2.7H62.63l.69,1.13c1,1.61,3.77,1.9,4.66,0,.48-1,.39-2.25.84-3.21H64.16a13.75,13.75,0,0,1,2,3.52,2.73,2.73,0,0,0,4.67,0c.47-.93.38-2.1.82-3H67c.86,1.17,1.54,2.38,2.5,3.48a2.72,2.72,0,0,0,3.82,0c1.16-1.33,1.2-2.28,2-3.75H70.67c.27.53.4,1.17.68,1.71a2.72,2.72,0,0,0,4.66,0c.38-.66.41-1.49.78-2.13H72.12c.43,1,.17,2.41.65,3.5.81,1.86,3.79,1.68,4.66,0,.31-.6.46-1.28.76-1.87H73.53l.71,1.08a2.74,2.74,0,0,0,4.66,0c.3-.43.44-.92.74-1.34H75c.34.67.34,1.55.7,2.26a2.72,2.72,0,0,0,4.24.55c.78-.75,1.54-2.8,2.35-3.15L79,131.76a16.44,16.44,0,0,1,1.81,2.83,2.8,2.8,0,0,0,3,1.24c2.07-.49,2.13-1.39,3-3.05H82.19c.39.75.43,1.69.84,2.48a2.72,2.72,0,0,0,4.66,0c.6-1.1.77-2.31,1.28-3.36H84.31c.46.82.41,1.95.9,2.82a2.74,2.74,0,0,0,4.24.55,8.32,8.32,0,0,0,2-1.8c.74-1.12.11-1.31.76-1.81l-3.27-.42a11.93,11.93,0,0,0,2,2.48c.47.35,1.26.29,1.64.58-1-.76-1-.27-.25.47a2.73,2.73,0,0,0,4.51-1.19,5,5,0,0,0,.24-1.72c-.09-1.35-.51-.05,0-.57l-2.62.69a11.35,11.35,0,0,0,2.18.22l-2.33-1.34c1.32,1.81,2,4.63,5,3.56,2.48-.87,2.14-3,2.66-5L100,131.34c-1.1-.38-1.27-.36-.52,0a2.76,2.76,0,0,0,3.69-1l.54-.71-4.24.54c.5.48.74,1.22,1.26,1.71,1.61,1.52,3.75.67,4.51-1.19.15-.35.3-.71.44-1.06l-4.51,1.19c.53.48.78,1.21,1.32,1.69,1.14,1,3.52,1.16,4.24-.54.79-1.87.24-3.65.9-5.37l-4.52,1.2c1,1,1.19,2.69,2.23,3.73a2.77,2.77,0,0,0,3.82,0c1.18-1,1-1.62,1.48-2.82-.56,1.29.37-.62.68-1.15L109,129c3.75-.14,4.67-2.15,4.26-5.39l-4.06,2.33c.52.26.92.65,1.45.9,2.27,1.08,4.29-.69,4-3-.22-1.58-.24.13,0-.83l-4,1.61c.95.52,1.57,1.53,2.54,2a2.73,2.73,0,0,0,4-1.61c.08-.29.16-.57.23-.86l-2.6,2,1,0a2.72,2.72,0,0,0,2.61-3.41c-.33-1-1.2-1.8-1.51-2.76l-4,3.05c.83.35,1.42,1,2.25,1.4,2,.85,4.76-.58,4-3-.2-.65-.59-1.24-.79-1.88l-4,3c1,.45,1.77,1.42,2.81,1.87,1.71.73,4.22-.07,4.07-2.33-.08-1.13-.3-2.23-.31-3.35l-3.42,2.6c.8.26,1.47.89,2.3,1.16a2.73,2.73,0,0,0,3.42-2.6c.07-2.26-1.24-2.94-2-4.83v2.72l.39-.59-3,1.24c1,.3,1.78,1.18,2.81,1.5,2.47.76,3.93-2,3.05-4-.28-.64-.72-1.16-1-1.81l-3.05,4c.64.14,1.2.46,1.84.6a2.73,2.73,0,0,0,3-4c-.3-.65-.76-1.17-1.07-1.81l-3,4c.84.21,1.54.79,2.39,1a2.73,2.73,0,0,0,3-4c-.6-1.28-1.69-2.32-2.26-3.59l-3,4c2.56.66,3.12,2.06,5.86.8a2.75,2.75,0,0,0,1.24-3c-.08-.58.14-1.1,0-2l-2,2.6,1.12-.21c1.83-.35,2.31-2.53,1.61-4a25.8,25.8,0,0,0-1.54-2.4l-2.33,4.07c1.11-.09,2.22,0,3.31-.11,1.9-.17,3.55-2.2,2.33-4.06-.52-.81-1.21-1.49-1.8-2.25l-2.33,4.06c.87-.09,1.71.21,2.58.11a2.75,2.75,0,0,0,2.33-4.06,9.23,9.23,0,0,0-3-3.56l-1.19,4.51,1.33-.39a2.79,2.79,0,0,0,1.89-3.32l-.12-.75-1.88,3.32c1-.21,2.17.17,3.24,0a2.72,2.72,0,0,0,1.19-4.51c-1-.88-2.16-1.33-3.12-2.09l-1.19,4.51c.63-.2,1.27-.21,1.9-.41a2.73,2.73,0,0,0,.64-4.93c-.53-.39-1.14-.6-1.68-1L131,97.5c-.17,1.57-.71.54.69.4a6,6,0,0,0,2-.51c1.92-.82,1.59-3.75,0-4.66-1-.55-2.17-.53-3.09-1.06l-.65,4.94c.75-.31,1.56-.22,2.31-.52,1.48-.6,2.7-2.38,1.61-4l-.54-.79-1,3.7,1-.66a2.74,2.74,0,0,0,1.24-3c-.73-2.25-1.72-2.08-3.43-3.23v4.67l1.1-.65a2.73,2.73,0,0,0,0-4.66l-1.18-.8L132.37,89l0-.72L131,90.62c.44-.26,1-.38,1.4-.64a2.74,2.74,0,0,0,0-4.67c-.66-.39-1.47-.44-2.11-.82v4.67c1.22-.53,2.59-.73,3.82-1.29,1.7-.77,1.56-3.05.54-4.24-.38-.44-.39-1.64-1.35-2.42s-2-.48-3-1V84.9c.6-.33,1.4-.34,2-.69,1.69-.93,1.83-3.78,0-4.67-.62-.3-1.32-.43-1.92-.72v4.66c.56-.29,1.23-.42,1.81-.71a2.73,2.73,0,0,0,0-4.67l-1.19-.71,1.34,2.34c0,1-.33,1,.89.13a2.74,2.74,0,0,0,0-4.66c-.43-.28-.91-.41-1.34-.69v4.67c.61-.32,1.31-.47,1.92-.8,2.23-1.16,1.38-4.17-.64-4.93-1.06-.4-2.26-.19-3.3-.58l1.61,4c.44-.86-.72.34.43-.53,1.4-1,2.09-3.78,0-4.66-.6-.26-1.3-.36-1.87-.6V75.7c1.16-.73,2.59-1,3.73-1.71,1.61-1,1.89-3.7,0-4.66-1.63-.84-3.13-.75-4.73-1.37l.64,4.94c2.13-1.22,3.76-1,3.82-4a2.77,2.77,0,0,0-2-2.6c-.65-.23-1.32-.27-2-.51l.65,4.94c.75-.51,1.78-.5,2.55-1,1.55-1.05,1.95-3.7,0-4.66-1.52-.75-2.72-.74-4.27-1.25l.65,4.94a40.43,40.43,0,0,0,4.36-3.18c1.67-1.46.56-3.84-1.19-4.51a9.29,9.29,0,0,0-2.08-.57,8.93,8.93,0,0,0-1.55-.14c.51.45.57.45.19,0l-.55,4.24c1.47-1,3.08-1.44,4.46-2.65a2.73,2.73,0,0,0-.55-4.24c-1.69-1.07-3.33-1-5.2-1.48l1.62,4a3.7,3.7,0,0,0,.63-3.61l-.69,2.63c.91-1,1.93-2,2.83-3a2.72,2.72,0,0,0-1.19-4.51,12.69,12.69,0,0,1-1.82-.54l.54,4.24c.51-.53,1.28-.79,1.8-1.34a2.73,2.73,0,0,0-.54-4.24c-2-1.3-3.21-.38-5.33-.59l1.91,4.61c.83-.8,2.21-1,3.08-1.86A2.73,2.73,0,0,0,128,47.33c-1.35-.06-2.63.73-4,.68l2.34,4.06c.49-.85,1.3-1.19,1.92-1.92a2.74,2.74,0,0,0-1.91-4.61c-.75-.09-1.46.22-2.21.14l2.6,2a6.37,6.37,0,0,0-1.49-2.42l-.42,3.28c.63-.81,1.7-1.18,2.33-2,1.37-1.74.64-4.63-1.91-4.61-1,0-1.86.62-2.77.63l2.33,4.06c.52-.68,1.38-1.16,1.93-1.89,1.39-1.83-.58-3.84-2.33-4.06l-1.24-.15,2.33,4.06c.2-.4.39-.81.58-1.22a2.74,2.74,0,0,0-2.33-4.06,20.14,20.14,0,0,0-4.19.17l2.33,4.07c.69-1.19,2.26-1.81,3-3.06,1.29-2.25-.83-4.27-3-4-.75.11-1.37.58-2.13.68l3,4c.28-.63.71-1.13,1-1.76.94-2.12-.61-4.54-3-4-1.41.33-2.38,1.19-3.85,1.41l3.32,3.32c.17-.53.5-1,.66-1.57a2.73,2.73,0,0,0-2.6-3.42l-1,0,2.6,3.42a18.88,18.88,0,0,0,1-3.28c.29-1.94-1.15-4-3.32-3.33-.54.16-1,.48-1.54.64l3,1.24-.45-.69a2.67,2.67,0,0,0-2.33-1.34l-1,.12,2.7,2.7c0-.68.42-1.38.44-2.12a2.73,2.73,0,0,0-4.07-2.33c-.73.46-1.21,1.23-1.91,1.68l3.28.42-.54-.58a2.74,2.74,0,0,0-3.82,0c-.5.47-.84,1.05-1.34,1.52l4.51,1.19c-.08-.6,0-1.28-.09-1.92-.28-1.81-2.59-2.34-4-1.61a8.64,8.64,0,0,0-2,1.51l4.24.55c-.3-.63-.42-1.34-.74-2a2.69,2.69,0,0,0-3-1.24c-2.15.85-2.3,1.64-3,3.64l4.52-1.19c-.79-.63-1.26-1.49-2.08-2.11-1.84-1.42-3.83.59-4.06,2.33-.07.45-.12.91-.16,1.37l3.41-2.6c-.64-.09-1.28-.18-1.93-.25-3-.32-3.22,3.64-1.36,5a5.76,5.76,0,0,0,3.88.41c2.65-.66,2.5-4.48,0-5.21-1.83-.54-3-.19-4.83-.35l1.91,4.61c.65-.67,1.7-.91,2.38-1.62,1.26-1.32.92-4.19-1.2-4.51s-.37,1.4-.33,1.38c.27-.1.25-1.56.28-1.87.17-1.92-1.85-2.85-3.42-2.61-.82.13-1.5.64-2.33.77L104,29.55c.07-.59.58-1.11.83-1.73.67-1.69-1-3.39-2.61-3.42h-1.06l2.6,3.42c.12-.44.23-.87.33-1.31a2.72,2.72,0,0,0-3.32-3.32c-.57.17-1.08.5-1.64.67l3.32,3.32c.27-.92,1.11-1.66,1.38-2.62.7-2.46-1.93-4-4-3.05-.79.35-1.34,1-2.12,1.39l4.06,2.33c0-.48.22-1,.24-1.5a2.73,2.73,0,0,0-3.42-2.6,17.6,17.6,0,0,0-2.12.6l3.42,2.6c0-.69.4-1.39.41-2.12a2.71,2.71,0,0,0-4.06-2.33c-.69.47-1.21,1.4-1.92,1.66l2.63.7c-.43-.54.22.51,0-.75-.3-2-3.23-2.55-4.51-1.19-.46.49-.78,1.1-1.23,1.58l4.52,1.19A16.39,16.39,0,0,0,95,20.69c-.66-1.6-2.3-2.56-4-1.61a7.42,7.42,0,0,0-2.2,2.12l4.24.55c-1.45-3.35-.71-4.95-5-5.49a2.58,2.58,0,0,0-2.33,1.33c-.33.71-.32,1.58-.62,2.23h4.67c-.37-.54-.56-1.14-.93-1.69-1.26-1.84-4.32-1.72-4.94.65-.33,1.27.17,2.67-.15,3.89l4.52-1.19-.78-.63c-1.29-1-3.34-1.12-4.24.55-.16.29-.31.58-.46.87l3-1.24c-1-.35-1.32-1.82-2.08-2.6a2.72,2.72,0,0,0-4.51,1.19c-.11.55-.06,1.14-.16,1.67l4-1.62c-1.33-.78-1.8-1.37-3.47-1.23a2.78,2.78,0,0,0-2.6,2c-.16.77-.31,1.55-.43,2.34l2.6-2a7.82,7.82,0,0,0-1.81,0c-1.76.23-3.06,1.54-2.61,3.42.21.87.79,1.59,1,2.45l.7-2.63-.49.46,2.63-.7a19.16,19.16,0,0,1-3-1c-1.81-.61-4.1,1.42-3.32,3.32.1.25,1.06,2.07.72,1.26.78,1.87,3.84,3,4.93.65l.39-.84a2.75,2.75,0,0,0-3-4,4.3,4.3,0,0,0-1.64.69c-1.23,1.19.33,3.3,1.76,2.35,1-.63,1.11-2.46,1.25-3.43A2.75,2.75,0,0,0,74,19.38c-2.54-.25-3.51,1.24-5.5,2.33L72.55,24c0-1.26.44-2.5.43-3.74,0-1.9-2.34-3.56-4.06-2.33a7.76,7.76,0,0,1-2.45,1.3l3.32,1.89-.39-1.09a2.74,2.74,0,0,0-4.52-1.19l-1,.95L68.41,21c-.25-1.06.3-2.34,0-3.5a2.7,2.7,0,0,0-3.32-1.88c-1.61.57-2.92,2.86-4,3.15l2.63.7c-.61-.76-.75-1.7-1.29-2.49-1.07-1.58-3.67-1.92-4.66,0-.21.4-.42.8-.62,1.2l4.24-.54c-.4-.39-.67-.89-1.08-1.28-1.34-1.28-4.16-.9-4.51,1.19-.22,1.3.41,2.67.21,3.86l4.52-1.19c-.69-.79-.91-2-1.64-2.84a2.72,2.72,0,0,0-4.51,1.2c-.13.54-.09,1.13-.21,1.66l4-1.61c-2.2-1.65-3.65-2.93-6.26-.41a3.51,3.51,0,0,0-1.34,2.84,4.14,4.14,0,0,0,.63,2c-.25-.25,2.3-2.44-.16-.79a2.83,2.83,0,0,0-1.25,3.05c.11.9.19.82.22-.23L53,23.9c-1.05-.3-1.87-1.38-3-1.69a2.73,2.73,0,0,0-3.05,4c.47,1,1.45,1.55,1.92,2.48l2.33-4.06c-.48,0-1-.23-1.51-.26a2.72,2.72,0,0,0-2.33,4.06c.32.56.8,1,1.12,1.57l2.33-4.06c-.71-.06-1.45-.5-2.22-.56-2.15-.15-3.22,2.38-2.33,4.06.71,1.36.52.19.56.69l2.7-2.7c-1.11,0-2.19-.65-3.34-.66a2.73,2.73,0,0,0-2.6,3.42A8.08,8.08,0,0,0,45,32.8l1.62-4c-.58.16-1.18.15-1.76.31a2.73,2.73,0,0,0-1.88,3.32c.44,1.36,1.25,2.48,1.75,3.79l4-3c-.81-.47-1.68-.78-2.5-1.22L47.39,35a24.44,24.44,0,0,0,1.24-3.3,2.77,2.77,0,0,0-1.88-3.32c.63.71.74.75.34.14a2.72,2.72,0,0,0-3.7-1c-.61.46-1,1.21-1.55,1.63l4,1.62c-.11-.65.12-1.45,0-2.17-.4-2.13-3.12-2.42-4.51-1.19-.36.31-.71.62-1.05.94l4.24.54-.6-.86a2.74,2.74,0,0,0-4.66,0,4.63,4.63,0,0,0-.74,1.61c.17-.71.35-.33-.42.28l3.27-.42a2.88,2.88,0,0,0-.56-1.74,2.79,2.79,0,0,0-3-1.25c-3.38.63-4.53,1-4.86,5.54l3.42-2.61a4.78,4.78,0,0,0-3.61.34,2.75,2.75,0,0,0-1.24,3.05c.12.7.42,1.31.55,2l1.89-3.33a4.68,4.68,0,0,0-2.57,2l3.7-1c-1.13-.54-1.85-1.78-3-2.32-1.9-.89-4.86.63-4,3.05.31.86,1,1.55,1.29,2.37l3.32-3.32c-.79-.28-1.46-.91-2.28-1.19-2.46-.83-3.92,2-3.05,4,.49,1.09,1.67,1.77,2.15,2.84V35.28l-.29.59,3.05-1.24c-2.36-.55-4.23-1.85-6.53-.37a2.75,2.75,0,0,0-1,3.69c.5.85,1.35,1.4,1.71,2.3L29,36.84l-1.19.1A2.73,2.73,0,0,0,25.51,41c.22.39.44.79.67,1.18l2.33-4.06c-1.21-.11-2.4-1-3.7-1.15-2.55-.22-3.27,3-1.91,4.6.86,1,2.3,1.44,3.16,2.44l1.19-4.51c-1.25.41-2.9.09-4.27.4-2.09.47-2.47,3.08-1.19,4.51.59.66,1.43,1,2,1.67l1.91-4.61c-.82.06-1.6-.27-2.43-.21a2.74,2.74,0,0,0-1.91,4.61c.78.85,2.09,1.08,2.84,1.89V44l-.52.55a2.79,2.79,0,0,0-.42,3.27l.51.93,1.61-4c-1.31.5-2.52,0-3.94.2-2.09.3-2.49,3.22-1.19,4.51.66.67,1.7.87,2.33,1.5l.55-4.24a6.27,6.27,0,0,0-2.28,2.16,2.76,2.76,0,0,0,0,3.82c.21.24.68,1,.69.66l2-2.6c-1.17.22-2.55-.36-3.81-.12a2.73,2.73,0,0,0-1.89,3.32A4,4,0,0,0,19,56.13a3.26,3.26,0,0,0,1.19.7c1.12.39.48-.64.67,0l1.89-3.32c-1,.23-2.2-.13-3.29.11-1.83.42-2.79,3.26-1.19,4.52,1.09.85.51.82.78-.16L20.9,56c-.69.26-1.44.14-2.13.41a2.73,2.73,0,0,0-.65,4.93c1,.6,2.2.63,3.15,1.21l.65-4.94c-2.43.74-4.27-.3-5.1,2.9a2.76,2.76,0,0,0,1.24,3c.67.47,1.51.57,2.18,1l-1.24-3-.23.69a2.62,2.62,0,0,0,.69,2.63c.44.34,1,.57,1.41.89l1.19-4.51c-2.71.88-5.72-.3-6.51,3.53a2.79,2.79,0,0,0,1.24,3c1.24.72,2.9.48,4.08,1.16l.64-4.93c-2.69.87-4.2.43-5,3.73a2.75,2.75,0,0,0,1.24,3c.92.53,2.07.5,2.95,1l-1.24-3-.2.7,1.88-1.89c-.84.3-1.74.2-2.58.49-1.54.54-2.65,2.43-1.62,4a14.79,14.79,0,0,0,1.7,2.09l-.43-3.27c-.28.66-1.12.68-1.78,1a2.71,2.71,0,0,0,0,4.66c1,.51,2.27.45,3.25.94l.64-4.94c-2.44.88-3.63.18-5.38,2.46a2.71,2.71,0,0,0,1,3.69c1.16.57,2.63.38,3.72.92V75c-1.06.5-2.22.64-3.32,1.27a2.76,2.76,0,0,0-1.24,3C15.8,81.78,17,81.42,19,82.44V77.77a17.91,17.91,0,0,1-2.7,1.35,2.72,2.72,0,0,0-.54,4.24,19,19,0,0,0,1.35,1.48c.86.72,1.43,1.58,1,.27L20,81.79c-1.17.48-2.56.18-3.73.67-1.88.79-3,3.82-.64,4.94.78.37,1.72.38,2.46.74V83.47a6.89,6.89,0,0,0-2.39,2.41,2.74,2.74,0,0,0,1,3.69c.9.43,2,.31,2.85.71l-1-3.7c-.16.32-1.53,1.33-1.93,2.81a2.81,2.81,0,0,0,1.24,3l.94.69-.55-4.24-1.68,1.48a2.72,2.72,0,0,0,.54,4.24l1.2.68V90.63c-.66.37-1.5.41-2.19.81-2.15,1.22-1.45,4.17.64,4.93,1.21.44,2.62.06,3.8.49L19,92.9c-.65,1.31-2,1.95-3,2.89-1.6,1.43-.62,3.9,1.19,4.51l1.39.47-2-2.6c.54-.82.49-.86-.14-.11-1.27,1.31-.92,4.21,1.19,4.51,1.37.2,3-.63,4.15-.46l-1.62-4-.64.93a2.65,2.65,0,0,0,0,2.73l.4.61V99.69c-.41.55-.84,1.07-1.28,1.6-1.17,1.38-1,4.15,1.19,4.51,1,.17,2,.16,3,.39l-1.19-4.51c-.63.71-1.67,1-2.31,1.72A2.74,2.74,0,0,0,21.19,108c.71,0,1.39-.13,2.1-.09L21,103.85c-.38.51-1.14.89-1.57,1.48-1.27,1.7.46,4,2.33,4.06.91,0,1.76-.39,2.66-.38l-1.91-4.61c-1.16,1.44-2.15,2-2.89,3.8a2.65,2.65,0,0,0,.69,2.63,7.08,7.08,0,0,0,2,1.38l-1-3.7c-.26.45-.66.82-.93,1.27a2.74,2.74,0,0,0,2.34,4.07c.94,0,1.71-.34,2.63-.13l-1.61-4c-.32.48-.81.89-1.14,1.39-1.17,1.79.39,4,2.33,4.07,1,0,1.33.29.53-.41L25,111.54l-.5,1.08a2.74,2.74,0,0,0,2.33,4.06c.59,0,1.15-.12,1.74-.1l-2.33-4.06c-.86,1.18-2,1.28-2.54,2.87a5,5,0,0,0-.22,1.79c.11,2.25.51-.79.3.41C23.2,121,28.4,122.45,29,119c.14-.83.44-3.28-.13-2.47s1.77-.93,2-1.31c1.29-1.76-.47-4-2.33-4.07-.59,0-1.15.13-1.74.1l2.33,4.06c.17-.35.34-.71.5-1.07a2.79,2.79,0,0,0-.42-3.28c-1.64-1.41-2.36-1.11-4.35-1.17l2.34,4.06c.32-.49.8-.9,1.13-1.4a2.72,2.72,0,0,0-1.61-4c-1.58-.37-2.54,0-4.07-.07L25,112.51c.26-.45.66-.81.92-1.27a2.73,2.73,0,0,0-1-3.7,2.72,2.72,0,0,1-.88-.53l.7,2.62c.21-.52.71-.43,1.5-1.41,1.4-1.76.6-4.59-1.91-4.61-.91,0-1.77.39-2.66.38l2.33,4.06c.38-.51,1.14-.89,1.57-1.47,1.31-1.75-.5-4-2.33-4.06-.71,0-1.39.12-2.1.09l1.91,4.61c.62-.72,1.66-1,2.31-1.72,1.26-1.44.9-4-1.2-4.51-1-.24-2-.23-3-.4l1.2,4.52c.74-.88,1.44-1.77,2.12-2.69a2.63,2.63,0,0,0,0-2.73l-.4-.61v2.73c.21-.32.43-.63.65-.94.91-1.31,0-3.72-1.62-4-1.37-.2-3,.62-4.15.45l1.19,4.52c1.14-1.18,2-2,1.73-3.71a2.86,2.86,0,0,0-2-2.61l-1.39-.46,1.19,4.51c1.42-1.28,3-2.2,3.86-4a2.74,2.74,0,0,0-1.61-4c-1.21-.44-2.62-.07-3.8-.5l.65,4.94c.65-.38,1.5-.42,2.18-.81a2.72,2.72,0,0,0,0-4.66L19.84,90l.55,4.24,1.68-1.48c1.44-1.24.75-3.29-.54-4.24l-1-.69,1.25,3c-.19.68-.16.71.59-.25a7.89,7.89,0,0,0,.8-1.26,2.75,2.75,0,0,0-1-3.7c-.9-.42-2-.31-2.85-.7l1,3.69c.46-.84-.7.34.45-.46,1.51-1.06,2-3.72,0-4.67-.79-.37-1.73-.38-2.47-.74l-.64,4.94c1.16-.49,2.56-.19,3.72-.68a2.77,2.77,0,0,0,1.89-3.32C22.68,81.53,21,81,19.53,79.54L19,83.78a17.85,17.85,0,0,0,2.7-1.34c1.53-1.1,1.95-3.67,0-4.67-1-.51-1.87-1.38-1.43.07l-1.24,3c1.09-.63,2.17-.74,3.31-1.28a2.71,2.71,0,0,0,0-4.66c-1.16-.57-2.63-.38-3.71-.92l1,3.69c.26-.34-1.46.11.29.34a4.7,4.7,0,0,0,1.86-.31c2-.72,2.88-3.82.64-4.94-1-.5-2.27-.44-3.25-.93v4.66c1.65-.77,2.93-1.08,3.73-2.93a2.83,2.83,0,0,0-.43-3.27,6.65,6.65,0,0,1-.84-1l-1.62,4c2.29-.8,3.86-.32,4.68-3.07a2.73,2.73,0,0,0-1.24-3c-.92-.53-2.07-.49-2.95-1l1.24,3c-1.1.39-1.06.49.11.28A3.23,3.23,0,0,0,23,69.28a2.73,2.73,0,0,0,.64-4.93c-1.23-.71-2.9-.48-4.07-1.16l1.24,3c-.22,1.05-1.24.36.65.48a5.82,5.82,0,0,0,2.08-.24c1.74-.57,2.89-3.17,1.2-4.51-.44-.35-1-.58-1.41-.9L24,63.7l.23-.7A2.76,2.76,0,0,0,23,60c-.68-.46-1.52-.56-2.19-1L22,62l.19-.71-1.89,1.88c1-.29,2.05,0,3-.29A2.74,2.74,0,0,0,24,57.92c-1-.59-2.2-.62-3.15-1.2l-.65,4.93c1.9-.72,3.38-.21,4.12-2.63s-.59-3.44-2.27-4.75l-1.19,4.51c1-.23,2.2.13,3.28-.12A2.72,2.72,0,0,0,26,55.34a4.53,4.53,0,0,0-1.2-2.16,3.43,3.43,0,0,0-1.19-.71c-1.12-.4-.46.63-.6,0l-1.89,3.32c1.17-.23,2.55.36,3.81.12a2.73,2.73,0,0,0,2-2.61c0-2-1-3.07-2.27-4.48v3.82c.13-.12,1-1.12,1-1.13l.28-.64c-.82.71-.87.86-.14.45,1.61-.74,1.68-3.12.55-4.24-.66-.66-1.71-.87-2.33-1.5l-1.2,4.52c1.46-.21,2.41.38,3.94-.2a2.75,2.75,0,0,0,1.62-4l-.51-.92-.42,3.27.52-.56A2.74,2.74,0,0,0,28,44c-.78-.85-2.09-1.08-2.84-1.9l-1.91,4.61c.82-.06,1.61.27,2.43.21a2.74,2.74,0,0,0,1.91-4.61c-.59-.66-1.43-1-2-1.67l-1.19,4.52c1.46-.33,2.76.08,4.26-.4a2.75,2.75,0,0,0,1.2-4.52c-.87-1-2.31-1.43-3.16-2.43l-1.91,4.61c1.21.1,2.4,1,3.7,1.15,2.11.18,3.27-2.41,2.33-4.06l-.67-1.19-2.33,4.07,1.19-.1c1.55-.13,3.3-1.65,2.6-3.42-.61-1.53-1.45-2.24-2.26-3.59l-1,3.69c-.84.54-.9-.21.45.28a16.41,16.41,0,0,0,1.91.63,2.75,2.75,0,0,0,3.05-1.24c1.6-3.13-.74-3.63-1.86-6.15l-3.05,4c.79.26,1.47.9,2.29,1.18a2.71,2.71,0,0,0,3.32-3.32c-.32-.85-1-1.55-1.3-2.37l-4,3.05c1.13.53,1.86,1.77,3,2.32a2.79,2.79,0,0,0,3.7-1l-.67.48a2.79,2.79,0,0,0,1.89-3.32c-.13-.7-.43-1.31-.55-2L35.39,34.5c-1.14,0-1.33.07-.56.21a2.74,2.74,0,0,0,3.42-2.6c.17-2.29-.19,0-1.75-.32a6.19,6.19,0,0,0,2.64,0l-3-1.24c.91,1.59.76,2.67,2.49,3.69a2.8,2.8,0,0,0,3.28-.43c1.18-.95,1.16-1.83,2-3H39.21l.59.87a2.76,2.76,0,0,0,4.25.55c.34-.32.69-.63,1-.94L40.58,30.1c.12.63-.1,1.46,0,2.16a2.71,2.71,0,0,0,4,1.62c.6-.46,1-1.23,1.56-1.64l-3.7-1a4.4,4.4,0,0,0,2.89,2.34L43.43,30.3a28,28,0,0,1-1.24,3.29,2.71,2.71,0,0,0,1.24,3c.81.44,1.69.76,2.49,1.22,1.89,1.1,4.85-.76,4-3-.51-1.31-1.32-2.45-1.76-3.78l-1.88,3.32c.57-.16,1.18-.15,1.75-.31,1.53-.43,2.68-2.54,1.62-4a4,4,0,0,1-.8-1.36l-2.61,3.42c1.12,0,2.19.64,3.34.66a2.72,2.72,0,0,0,2.7-2.7A7.3,7.3,0,0,0,51,26.68l-2.33,4.06c.7.05,1.46.5,2.22.56,2.09.16,3.3-2.4,2.33-4.07-.32-.55-.8-1-1.12-1.57l-2.33,4.07c.47,0,1,.23,1.51.26,2.18.14,3.19-2.36,2.33-4.06-.47-.95-1.46-1.55-1.92-2.48l-3,4c1,.28,1.88,1.37,3,1.68a2.72,2.72,0,0,0,3-1.24A5.34,5.34,0,0,0,55,23.93L53.72,27c1.58-1.05,3.1-1.58,3.07-3.77a3.09,3.09,0,0,0-.36-1.39c-.2-.94-.45-.86-.74.24-2.23.26-1.62.25-.28,1.25s3.6,0,4-1.61c.13-.54.09-1.14.22-1.67l-4.52,1.19c.69.79.92,2,1.64,2.84,1.25,1.45,4.19.77,4.51-1.19.21-1.28-.41-2.68-.21-3.86L56.5,20.2c.39.38.67.89,1.07,1.28a2.73,2.73,0,0,0,4.24-.55c.2-.41.41-.81.62-1.21H57.77c.81,1.2,1.18,2.41,2.13,3.59a2.68,2.68,0,0,0,2.63.69c2-.52,3.28-2.89,4-3.16L63.24,19c.24,1.05-.3,2.35,0,3.5a2.72,2.72,0,0,0,4.51,1.19l1-.95-4.51-1.19.39,1.08C65,23.87,66.45,25,67.9,24.48a12.44,12.44,0,0,0,3.74-1.85L67.58,20.3c0,1.18-.38,2.52-.43,3.74a2.72,2.72,0,0,0,4.06,2.33c1-.53,1.58-1.71,2.78-1.59l-2.6-3.42c-.37,2.43-2.9,4.22-1.13,6.73,2.06,2.94,3.94.87,6.39.31l-3.05-4c-.12.28-.25.56-.38.84l4.94.65c-.1-.25-1.06-2.1-.72-1.27L74.12,28c2.34.79,4,1.86,6.12-.13a2.74,2.74,0,0,0,.7-2.63c-.21-.86-.79-1.58-1-2.44l-2.6,3.41a7.82,7.82,0,0,1,1.81,0,2.69,2.69,0,0,0,2.6-2c.13-.78.27-1.56.43-2.34l-2.6,2c.61-.05-.61-.3.74.5a2.73,2.73,0,0,0,4-1.62c.1-.54,0-1.14.16-1.66l-4.52,1.19c1.79,1.83,1.83,3.08,4.46,4a2.72,2.72,0,0,0,3-1.24c.15-.3.31-.59.46-.88l-4.24.55c.26.21.52.41.78.63,1.5,1.22,4,.93,4.51-1.2.32-1.27-.17-2.67.15-3.89l-4.94.65c.38.54.57,1.15.93,1.69,1,1.52,3.76,2,4.67,0,.32-.71.31-1.59.61-2.23L88,21.66c-1.13-.14-.88-.8-.42,1a13,13,0,0,0,.8,1.84c.66,1.54,3.2,1.76,4.24.54.4-.46.61-1,1.1-1.28l-4-1.61a14.91,14.91,0,0,1,.77,2.37,2.72,2.72,0,0,0,4.51,1.19c.46-.49.78-1.1,1.23-1.58l-4.52-1.19a5.76,5.76,0,0,0,1.36,3.13,2.62,2.62,0,0,0,2.63.69c1.53-.57,1.94-1.35,3.21-2.21L94.91,22.2c0,.68-.4,1.39-.41,2.12a2.72,2.72,0,0,0,3.41,2.61,17.8,17.8,0,0,1,2.13-.61l-3.42-2.6c0,.48-.21,1-.24,1.5-.11,2.22,2.34,3.12,4.06,2.33.79-.36,1.34-1,2.12-1.39l-4-3.05c-.26.92-1.09,1.67-1.37,2.63a2.72,2.72,0,0,0,3.32,3.32c.56-.17,1.08-.51,1.64-.67l-3.32-3.32c-.11.43-.22.87-.34,1.3a2.74,2.74,0,0,0,2.61,3.42h1.06l-2.6-3.42a10.9,10.9,0,0,0-1,3.17c-.22,1.91,1.9,2.85,3.42,2.6.82-.14,1.5-.64,2.32-.77l-3.41-2.6c-.3,3.39.14,5.12,4,5.7L103.73,30c-.65.68-1.71.93-2.38,1.62a2.73,2.73,0,0,0,1.91,4.61c1.28.11,2.14-.21,3.4.16V31.14c-.43.11-1,0-1.44.15l2.62.69-.91-.7-1.36,5,.5.06a2.78,2.78,0,0,0,3.42-2.61c0-.46.09-.92.16-1.37l-4.06,2.33c-.52-.4.76,1.1,1,1.27a2.74,2.74,0,0,0,4.51-1.19c.17-.48.17-1,.35-1.46l-1.89,1.89.77-.31-3-1.24c.29.6.44,1.35.73,2,.77,1.62,3.08,1.66,4.24.55a3.33,3.33,0,0,1,1-.67l-4-1.61c.1.59,0,1.3.09,1.92.31,2.12,3.2,2.44,4.52,1.19.49-.47.84-1.06,1.34-1.52h-3.82l.54.58a2.71,2.71,0,0,0,3.27.42c.72-.46,1.21-1.24,1.91-1.68L113,32.5c0,.68-.42,1.4-.44,2.12a2.7,2.7,0,0,0,2.7,2.7l1-.12L114,35.87l.44.68a2.78,2.78,0,0,0,3,1.25c.54-.16,1-.49,1.55-.64l-3.33-3.32a19.46,19.46,0,0,1-1,3.28,2.73,2.73,0,0,0,2.6,3.42l1,0-2.6-3.42c-.16.54-.5,1-.66,1.58-.66,2.16,1.4,3.61,3.32,3.32,1.49-.22,2.46-1.09,3.84-1.42l-3-4c-.28.63-.71,1.13-1,1.76a2.74,2.74,0,0,0,3,4c.75-.11,1.37-.58,2.13-.68l-3-4c-.68,1.19-2.25,1.82-3,3.06-1,1.65.23,4.24,2.33,4.06a19.53,19.53,0,0,1,4.19-.17l-2.33-4.06c-.19.4-.38.81-.58,1.22a2.74,2.74,0,0,0,2.33,4.06l1.24.15L122.13,42c-.52.68-1.38,1.16-1.93,1.88-1.27,1.68.46,4.09,2.33,4.07,1,0,1.87-.62,2.77-.63l-1.91-4.61c-.63.81-1.69,1.18-2.33,2S119.88,47,120.64,48c.22.3,1.13,1.83.94,1.13a2.8,2.8,0,0,0,2.61,2c.75.08,1.46-.22,2.21-.14l-1.91-4.61c-1,1.17-2,1.62-2.77,3a2.73,2.73,0,0,0,2.33,4.06c1.35.05,2.63-.73,4-.68l-1.91-4.61c-.82.81-2.21,1-3.07,1.86-1.81,1.77-.31,4.39,1.9,4.61a5.76,5.76,0,0,0,1.85-.17c1.32-.34.16-.36.75,0L127,50.2c-.51.54-1.28.79-1.81,1.34-1.07,1.12-1.11,3.53.55,4.24a22.59,22.59,0,0,0,3.12,1.09l-1.19-4.52A29.45,29.45,0,0,0,125.09,55a16.87,16.87,0,0,0-1,1.51,2.67,2.67,0,0,0,0,1.43c.34-1.09.31-1.27-.1-.54a2.72,2.72,0,0,0,1.62,4c1.29.33,2.76.22,3.91.94L129,58.1c-1,.86-2.32,1.1-3.36,1.81a2.75,2.75,0,0,0-.55,4.24c1.54,1.94,3.74,1.27,5.83,2.08l-1.19-4.52a29.68,29.68,0,0,1-3.28,2.34A2.73,2.73,0,0,0,127.1,69a21.85,21.85,0,0,1,3,.7V65c-.75.51-1.79.5-2.56,1a2.73,2.73,0,0,0,.65,4.93c.65.23,1.31.27,2,.5l-2-2.6v.73l1.33-2.33c-.75.43-1.69.51-2.47,1-2.17,1.24-1.41,4.14.65,4.94,1.16.44,2.31.24,3.44.82V69.33c-1.11.72-2.58,1-3.73,1.71-1.53,1-2,3.82,0,4.66.6.26,1.3.35,1.88.6V71.64a7,7,0,0,0-2.37,2.47,2.74,2.74,0,0,0,1.61,4c1.06.4,2.25.19,3.3.59l-.64-4.94c-.61.32-1.31.47-1.92.79-1.9,1-1.6,3.61,0,4.67.42.28.91.4,1.33.68V75.2c-1.91,1.34-3.43,1.87-3.56,4.53a2.68,2.68,0,0,0,1.34,2.33l1.18.71V78.1c-.56.29-1.23.42-1.81.72a2.72,2.72,0,0,0,0,4.66c.62.3,1.33.44,1.93.73V79.54c-.6.33-1.41.34-2,.69a2.73,2.73,0,0,0,0,4.67c.65.34,3.38,1.52,1.78-.12.52.54.84,1.94,1.46,2.67l.55-4.24c-1.2.55-2.58.75-3.82,1.28-1.94.84-1.57,3.73,0,4.67.66.39,1.48.44,2.12.82V85.31c-.44.26-1,.38-1.4.65a2.69,2.69,0,0,0-1.34,2.33c.1,2.11.88,2.71,2.55,3.84V87.47l-1.09.64a2.73,2.73,0,0,0,0,4.67c1.2.81,1.33,1.18.94,0l1.24-3-1,.65a2.73,2.73,0,0,0-1,3.7l.54.78,1.61-4c-.75.31-1.56.22-2.31.52-2,.82-2.83,3.68-.64,4.93,1,.55,2.17.53,3.09,1.06V92.73c-2.94,1.24-4.86.77-5.31,4.77a2.72,2.72,0,0,0,1.34,2.33c.54.39,1.14.6,1.68,1l.64-4.93c-.62.19-1.27.21-1.89.4-1.75.56-2.89,3.18-1.2,4.52,1,.81,2.13,1.2,3.12,2.08l1.19-4.51c-1,.21-2.17-.17-3.24.05a2.77,2.77,0,0,0-1.88,3.32l.11.76,1.88-3.32-1.32.38c-1.84.54-2.77,3.14-1.19,4.52a6.35,6.35,0,0,1,2.16,2.47l2.34-4.07c-.87.1-1.71-.2-2.58-.11-1.76.19-3.72,2.25-2.33,4.06.56.73,1.3,1.5,1.8,2.26l2.33-4.07c-1.09.1-2.2,0-3.31.11a2.72,2.72,0,0,0-2.33,4.06,27.2,27.2,0,0,1,1.54,2.4l1.61-4c-.37.08-.74.15-1.12.21a2.7,2.7,0,0,0-2,2.61c.15,1.16,0,2.28.17,3.46l1.24-3.05c-.2.1,1.31.56,0-.6a4.58,4.58,0,0,0-1.74-.75c-2.44-.63-4,1.89-3.05,4,.58,1.27,1.67,2.3,2.27,3.58l3-4c-.84-.22-1.54-.79-2.39-1a2.74,2.74,0,0,0-3,4c.31.65.76,1.16,1.07,1.81l3-4c-.64-.15-1.2-.46-1.85-.61a2.74,2.74,0,0,0-3,4c.29.64.72,1.16,1,1.81l3.05-4c-1-.3-1.79-1.18-2.82-1.5a2.76,2.76,0,0,0-3,1.25c-1.84,2.81,1,3.28.92,5.42l3.42-2.6c-.8-.26-1.47-.9-2.3-1.17a2.72,2.72,0,0,0-3.42,2.61c0,1.13.23,2.22.31,3.35l4.06-2.34c-1-.44-1.77-1.42-2.81-1.86-2-.86-4.77.57-4,3,.21.65.59,1.25.8,1.88l4-3.05c-.82-.35-1.42-1-2.24-1.4-2-.86-4.75.59-4,3,.32,1,1.2,1.8,1.51,2.76l2.6-3.42-1,0a2.74,2.74,0,0,0-2.6,2c-.08.29-.16.58-.23.86l4-1.61c-1-.51-1.57-1.53-2.53-2a2.74,2.74,0,0,0-4,1.61,8.6,8.6,0,0,0,0,3.71l4-3c-.52-.25-.92-.64-1.44-.9-1.61-.79-4.35.12-4.07,2.33s1.68-.18.42.09c-.88.18-1.2.82-1.73,1.43s-1.52,3-1.2,2.68h3.82c-1-1-1.2-2.69-2.23-3.73a2.73,2.73,0,0,0-4.51,1.19c-.51,1.31.11,3-.35,4.07l4.24-.55c-.53-.47-.78-1.2-1.33-1.69a2.75,2.75,0,0,0-4.51,1.2c-.14.35-.29.7-.43,1.06l4.51-1.2c-.5-.47-.74-1.21-1.26-1.71a2.76,2.76,0,0,0-4.24.55l-.54.71,3.69-1c-1.43-.93-3.09-1.39-4.55-.12s-.61,2.61-1.46,3.84l2.33-1.34-.76,0,2.33,1.33c-1.51-2.06-2.34-4.77-5.72-3.68-2.81.89-2.1,3.25-2.79,5.36L96.09,131A19.19,19.19,0,0,0,93.62,129c-.9-.7,1.17,1.26,0-.19-.32-.39-.54-1-.87-1.39a2.69,2.69,0,0,0-3.28-.42c-1.89,1.43-2.24,2.59-3.1,4.71l1.89-1.88a6.89,6.89,0,0,0-2.6,1.62l4.24.54c-.46-.82-.41-2-.9-2.82-.94-1.67-3.77-1.85-4.66,0-.55,1.13-.67,2.25-1.28,3.37h4.66c-.39-.76-.43-1.7-.83-2.49a2.73,2.73,0,0,0-4.67,0c-.58,1.1-.76.8.22.57l3,1.24a20.92,20.92,0,0,0-2.65-3.92,2.81,2.81,0,0,0-3.27-.42c-2,.88-2.07,2.67-3.44,4l4.25.55c-.34-.67-.35-1.55-.71-2.27-1-2-3.58-1.52-4.66,0-.3.43-.44.92-.74,1.34H78.9l-.71-1.08c-1-1.6-3.68-1.89-4.66,0-.31.6-.46,1.29-.76,1.88h4.66c-.43-1-.16-2.41-.64-3.5-.84-1.91-3.74-1.62-4.67,0-.38.66-.41,1.49-.77,2.13H76c-.27-.53-.4-1.17-.68-1.72a2.72,2.72,0,0,0-4.66,0c-.46.87-.49,1.93-1.13,2.66h3.82c-.63-.72-1.09-1.6-1.66-2.38-1.1-1.51-3.66-2-4.66,0-.47.93-.38,2.1-.83,3h4.67a18,18,0,0,0-2.06-3.51c-1.09-1.45-3.7-2-4.66,0-.48,1-.39,2.25-.84,3.21H68c-.23-.38-.46-.76-.68-1.14a2.74,2.74,0,0,0-4.67,0c-.55.76-.51.83.14.22l3.32,1.88c-.41-1-.22-2.23-.63-3.27-.81-2.08-3.67-2.79-4.93-.65-.31.52-.46,1.12-.76,1.64h4.66c-.27-.46-.4-1-.68-1.46a2.71,2.71,0,0,0-3.69-1c-1.8,1.34-1.61,2.25-2.48,4.14l4.94.64c-.47-1.17-.15-2.57-.61-3.76-.79-2-3.77-2.9-4.94-.64-.46.88-.37,2-.79,2.82l3.69-1a2.58,2.58,0,0,0-.36-1.7,2.75,2.75,0,0,0-3.7-1c-2.16,1.12-1.59,2.44-2.54,4.29l4.94.64c-.33-.85-.26-1.78-.58-2.64-.78-2-3.73-2.82-4.94-.64-.41.73-.46,1.62-.85,2.33H56.5c-.25-.51-.35-1.14-.61-1.66-.7-1.44-3.21-1.88-4.24-.55l-.8,1,4.51,1.19c-.34-1-.09-2.18-.44-3.21-.7-2.11-3.76-2.78-4.93-.65-.54,1-.51,1.95-.77,2.12l4,1.61c-.54-1.41-.49-2.49-1.3-3.86a2.72,2.72,0,0,0-4.24-.54c-1.13,1.29-1.46,2.51-2.38,3.89l4.24-.54a5,5,0,0,1-.92-1.8c-.67-1.68-3.09-2.93-4.52-1.19-.52.64-.75,1.52-1.24,2.12l4.51,1.19c-.13-.66-.08-1.39-.21-2.07a2.71,2.71,0,0,0-4.51-1.19c-.58.7-.86,1.63-1.41,2.28l4.51,1.2c-.47-1.76-.31-2.68-2.16-3.62a2.69,2.69,0,0,0-2.73,0c-1,.75-1,.3.17.57l2,2.61c0-.71.11-1.38.07-2.09-.09-1.83-2.3-3.65-4.06-2.33-.49.37-.91.9-1.38,1.25l4.06,2.34c.06-1.08.73-2.13.79-3.25.1-1.89-2.44-3.59-4.07-2.34-.8.63-1.26,1.73-2,2.29l4.07,2.33a9.74,9.74,0,0,0-.47-3,2.74,2.74,0,0,0-4-1.61,6.78,6.78,0,0,1-2,1l3.32,3.32c.25-1.2,1.29-2.16,1.56-3.39A2.8,2.8,0,0,0,37,121.74c-2.54-1.06-3.45.26-5.63,1.23l4,3c.11-.57.37-1,.47-1.62a2.76,2.76,0,0,0-1.24-3l-.67-.34,1.24,3,.33-1.32a2.74,2.74,0,0,0-3.33-3.32c-.72.19-1.31.72-2,.89l3.32,3.33c.24-.65.84-1.23,1.1-1.93.73-2-1.47-3.76-3.32-3.32-.92.21-1.64,1-2.53,1.18l3.42,2.6a10.58,10.58,0,0,1,1.05-3,2.71,2.71,0,0,0-2.6-3.42c-.7.09-1.39.36-2.06.44l2.7,2.7c0-.28,0-.57-.06-.86a2.75,2.75,0,0,0-2.7-2.7c-.71,0-1.4.23-2.09.25C22.92,115.7,22.91,121.1,26.39,121Z" style="fill:#1c1b1f"/><path d="M70.61,47.63c0,.22-.18.45-.2.66s-.09.44-.13.65.18.49.13.7-.41.35-.47.56.06.5,0,.7-.16.42-.26.62-.43.27-.55.45-.21.39-.33.57-.33.3-.46.47-.12.47-.27.63-.43.19-.58.34-.43.17-.59.31-.19.45-.37.58-.39.21-.57.32-.29.41-.48.5a5.13,5.13,0,0,1-.66.13,5.27,5.27,0,0,1-.64.14,2.94,2.94,0,0,1-.65.07,4.16,4.16,0,0,1-.63-.16c-.2,0-.48.13-.69.06s-.24-.52-.45-.61-.46,0-.65-.14-.45-.09-.63-.22-.41-.2-.58-.34l-.5-.44c-.15-.15-.2-.42-.35-.58s-.21-.39-.35-.57-.45-.21-.58-.39.13-.59,0-.78-.46-.24-.56-.43-.35-.33-.44-.53,0-.46-.11-.67-.12-.42-.18-.64,0-.44,0-.66-.1-.42-.12-.64-.31-.44-.31-.66.42-.41.44-.62-.17-.44-.15-.65-.15-.46-.11-.67.38-.35.44-.56.06-.42.13-.62.09-.42.17-.61.24-.36.33-.55.23-.35.33-.54.25-.34.37-.51.08-.47.21-.63.3-.31.44-.46a6.3,6.3,0,0,1,.53-.37,6.14,6.14,0,0,1,.47-.42,5.37,5.37,0,0,1,.53-.35c.18-.11.43-.08.62-.17a4,4,0,0,1,.58-.2c.2-.07.31-.45.52-.5s.46.12.67.1a4.21,4.21,0,0,1,.62,0c.22,0,.4.22.61.25s.46-.24.66-.19a4.44,4.44,0,0,1,.63.15,5,5,0,0,1,.66.11c.19.08.27.4.45.51s.47.07.64.2.08.57.24.71.48.09.63.25.38.23.51.4.3.31.42.49,0,.53.06.71.18.37.28.57.06.41.14.61.23.35.3.55.39.32.44.53.12.41.16.62.07.42.1.63l.06.64C70.51,47.2,70.61,47.42,70.61,47.63Z" style="fill:#1c1b1f"/><path d="M69.31,47.28a5.48,5.48,0,0,0-.2,2.72l.35-1.31c-1.09,1.33-1.34,2.83-2.67,4.13A10.71,10.71,0,0,1,65,54.24c-.66.36-3.25,0-1.86.71a23,23,0,0,1-2.94-2,8.32,8.32,0,0,1-.83-1.05c-.61-.87.63,1.09.1,0-.3-.63-.75-1.09-1.05-1.68-.49-1-.42-2.21-.88-3.22v1.35c1-1.43.45-2.62,1.25-4.28,1-2.11,2.82-2.44,4.39-3.88l-1.31.34c1.06.16,2.21.08,3.19.26a3,3,0,0,1,1.11.63c-.65-.52.14.39.42.66s.9.32,1,.5S67.9,43.66,68,44a22.45,22.45,0,0,1,1.31,4c.29,1.7,2.88,1,2.59-.71a17.75,17.75,0,0,0-1.88-6c-.31-.51-2.49-2.2-1.44-1-.57-.62-.73-1.22-1.56-1.65a7,7,0,0,0-2.76-.57s.31-.06-.39-.1A6.63,6.63,0,0,0,62,37.88a9.31,9.31,0,0,0-4.81,3.43c-2.38,3.51-3,7.77-.35,11.29.58.76-.63-.9-.1.22.16.33.33.58.51.88A7.26,7.26,0,0,0,59.49,56a7.35,7.35,0,0,0,5,1.31c2.37-.32,4.31-2.47,5.62-4.3,1.52-2.12,1-2.45,1.76-5A1.34,1.34,0,0,0,69.31,47.28Z" style="fill:#1c1b1f"/><path d="M50.73,61.9c0,.22.11.46.09.68s-.33.41-.37.63-.12.42-.17.63.12.5,0,.71-.31.36-.39.56-.22.38-.32.58,0,.52-.08.71-.49.22-.61.4-.07.49-.21.66-.26.37-.41.53-.5.14-.65.29-.31.32-.47.46-.4.2-.57.32-.25.42-.44.53-.47.06-.66.15-.45,0-.65.09-.35.35-.55.39a3.54,3.54,0,0,1-.65,0c-.21,0-.45.2-.67.16s-.4-.23-.61-.31a6.05,6.05,0,0,1-.6-.26c-.19-.1-.38-.19-.58-.31s-.3-.31-.48-.44-.49-.07-.66-.21-.06-.58-.22-.74-.44-.16-.59-.32-.4-.23-.54-.4-.35-.3-.47-.48-.25-.37-.36-.56-.09-.46-.19-.66-.09-.43-.18-.63-.38-.33-.45-.54.29-.53.24-.75-.38-.35-.41-.57-.24-.42-.26-.64.1-.45.1-.67,0-.43,0-.64.13-.41.16-.62,0-.42.06-.63-.19-.48-.14-.69.51-.29.58-.49,0-.47,0-.66,0-.49.06-.68.46-.24.57-.42.18-.39.3-.56.21-.38.34-.54.34-.27.48-.42a6.12,6.12,0,0,1,.48-.41c.16-.14.34-.25.5-.37s.24-.42.42-.52a4.35,4.35,0,0,1,.58-.27,6.42,6.42,0,0,1,.63-.15,6,6,0,0,1,.6-.2l.62-.11c.21,0,.42.11.63.11a4.2,4.2,0,0,1,.62.07c.21,0,.47-.28.68-.24s.36.31.56.38a6,6,0,0,1,.59.22c.19.09.26.38.44.49s.52,0,.69.09a6.28,6.28,0,0,1,.52.38c.15.14.41.19.56.35s.11.47.24.64.42.22.54.4-.12.57,0,.75.43.24.52.43.3.34.37.54.2.39.27.59-.2.49-.14.7.07.41.11.62,0,.42,0,.63a6,6,0,0,1,.15.61C50.37,61.49,50.73,61.69,50.73,61.9Z" style="fill:#1c1b1f"/><path d="M49.39,61.9A8.42,8.42,0,0,1,49,64.2c-.1.32-1.32,2.69-.41,1.24a8.62,8.62,0,0,1-3.72,3,3.32,3.32,0,0,1-4.09-.82c1.19,1.22-.57-.8-.81-1-.87-.9-1.13-2.1-1.92-3.06l.34,1.31c.43-1.39-.18-1.41-.32-2.63s.33-2.14.1-3.29l-.34,1.3c1-.85.65-1.42.84-2a26.11,26.11,0,0,1,2.23-2.37A4.15,4.15,0,0,1,44.29,55c1,.12.41.05,1.46.56a3.9,3.9,0,0,1,1.66,1.09c.16.16.78,1,.35.09.15.3,0,.71.18,1.06.56.85.68.72.83,1.58a8.38,8.38,0,0,0,.8,3.16,1.35,1.35,0,0,0,2.32-1.36c-.54-.93-.12-1.77-.31-2.68a5.83,5.83,0,0,0-.8-1.62c-.38-.67-.31-.29-.33-.33a6.76,6.76,0,0,0-3.18-3.3c-.62-.37.52.2-.34-.28a6.46,6.46,0,0,0-1.44-.77,9.35,9.35,0,0,0-3.12,0c-2.36.32-4.31,2.14-5.53,4a9.32,9.32,0,0,0-1.39,4.76,7.11,7.11,0,0,0,.49,3.09c-.19-.8-.27.26-.19.53.13.43.43.66.59,1C37.71,69,41,72.38,45,71.38a8.76,8.76,0,0,0,3.67-2.08,7,7,0,0,0,1.11-1c.38-.49.35-.72.29-.62,1-1.59,2.28-3.7,2-5.76C51.85,60.21,49.16,60.19,49.39,61.9Z" style="fill:#1c1b1f"/><path d="M81.64,47.63c0,.22-.18.46-.16.67s.07.45.1.66.09.45.14.66.43.33.5.53a6.42,6.42,0,0,0,.34.56c.08.2-.09.51,0,.71s.17.4.28.59.44.24.56.42.11.45.25.62.24.37.38.53.49.13.64.28.12.51.28.65.48.1.66.22a6.16,6.16,0,0,0,.55.33c.19.11.25.45.44.54s.42.16.62.23a5.45,5.45,0,0,0,.62.26c.22,0,.46-.14.67-.14s.44.16.66.12.49,0,.7,0,.33-.38.53-.47a5.28,5.28,0,0,0,.6-.27c.19-.11.25-.41.43-.54s.42-.15.59-.29.35-.27.51-.42l.45-.48c.14-.16.37-.26.5-.43s.08-.49.2-.67.58-.15.69-.34.06-.48.15-.68,0-.46.13-.66.07-.43.14-.64.13-.41.18-.62.24-.39.28-.6.16-.42.18-.64-.21-.45-.21-.67.44-.44.42-.65-.32-.4-.34-.61-.23-.39-.27-.59,0-.44,0-.64a6.09,6.09,0,0,0-.17-.61c-.07-.2,0-.44-.12-.63s-.2-.38-.29-.57-.44-.23-.55-.41.14-.59,0-.76-.41-.23-.54-.39-.43-.17-.57-.33-.08-.51-.24-.65a6,6,0,0,0-.52-.36,6,6,0,0,0-.55-.31,3.5,3.5,0,0,0-1.1-.64,6.26,6.26,0,0,0-.61-.21c-.2,0-.44.12-.65.1s-.41-.07-.62-.07-.43-.08-.64-.06-.41.09-.62.13a6.13,6.13,0,0,0-.61.18c-.2.07-.45,0-.64.11a4.47,4.47,0,0,0-.59.27c-.18.11-.17.51-.34.63s-.46.1-.62.24a3.75,3.75,0,0,0-.44.45c-.15.15-.46.17-.59.34s0,.52-.14.69a6,6,0,0,0-.31.55c-.11.18-.07.42-.17.61s-.39.28-.47.48,0,.45,0,.65-.51.29-.57.5.16.47.12.68,0,.43,0,.64,0,.41,0,.62S81.64,47.42,81.64,47.63Z" style="fill:#1c1b1f"/><path d="M80.35,47.28c-.54,2.16,1,5.3,2.33,6.71.4.43.95.65,1.31,1-.87-.9-.24.2.15.55a8.54,8.54,0,0,0,3.7,1.86c2.49.37,5.08-1.45,6.59-3.33a4.71,4.71,0,0,0,1.46-2.61c.24-.94.69-1.89.84-2.84,0-.23,0-.5,0-.71.19-1-.58.75.07-.28a1.35,1.35,0,0,0,0-1.36c-.65-1.19-.57-2.59-1.31-3.78-.11-.19-.41-.27-.51-.45-.3-.6.56.93.27.28a6.09,6.09,0,0,0-.53-1.24,7.26,7.26,0,0,0-1-1A9.89,9.89,0,0,0,92.17,39a6.64,6.64,0,0,0-4.48-1,7.82,7.82,0,0,0-5.57,3.31c-.48.8-.7,1.88-1.14,2.69-.51,1-.2,2.07-.63,3.36-.56,1.64,2,2.34,2.59.71A6.62,6.62,0,0,0,83,44.71L82.67,46c1.31-1.17,1-2.25,2-3.73-.46.66.9-.44,1.24-.67a3.58,3.58,0,0,1,2.94-.94,5.14,5.14,0,0,1,2.57.79c.14.13,1.83,1.94,1.17,1.06a24.55,24.55,0,0,1,1,2.36,18.73,18.73,0,0,0,.92,2.77V46.3a6,6,0,0,0-.67,2.56,11,11,0,0,1-.58,2.24c0-.07-.4.27-.5.43-1,1.5-2.76,3.54-4.58,3.12A6.45,6.45,0,0,1,85,52.56c-.78-.93-2.41-3.27-2.09-4.57C83.35,46.31,80.76,45.6,80.35,47.28Z" style="fill:#1c1b1f"/><path d="M101.48,61.9c0,.22,0,.44,0,.66s.28.39.32.61,0,.44,0,.65,0,.45.09.65,0,.49.06.69.2.4.3.6l.32.58c.11.19.51.2.63.37s.34.28.47.45.06.52.2.68.27.35.43.5.48.11.64.25.24.4.41.53.34.29.52.4.5,0,.69.07.28.45.48.52.48-.1.68-.06a2.65,2.65,0,0,0,.62,0c.21,0,.43.24.65.19a3.78,3.78,0,0,0,.63-.19c.2-.07.45-.07.65-.16s.29-.38.48-.49.47-.08.65-.21.46-.14.63-.28.17-.46.33-.62.35-.27.5-.43.11-.47.25-.64.37-.26.5-.45.26-.35.37-.54.21-.38.31-.58a6.61,6.61,0,0,0,.37-.55c.09-.2-.06-.49,0-.7s.51-.31.56-.52-.08-.48,0-.7-.09-.45-.07-.67-.07-.43-.07-.65,0-.41,0-.62.12-.43.09-.64,0-.44,0-.64-.31-.37-.36-.57.31-.54.24-.73-.41-.32-.49-.51-.32-.31-.42-.5-.07-.43-.17-.61-.21-.37-.33-.54-.17-.41-.3-.57a4.78,4.78,0,0,0-.45-.45c-.14-.16-.48-.09-.64-.23s-.06-.6-.23-.72-.46-.08-.64-.19-.46,0-.65-.1-.26-.44-.46-.51a6.19,6.19,0,0,0-.62-.13c-.2,0-.42,0-.63-.06s-.41-.11-.62-.11a4.55,4.55,0,0,0-.64,0,4.48,4.48,0,0,0-.64.07c-.21.05-.36.3-.56.37s-.39.11-.59.2a6.08,6.08,0,0,0-.6.21c-.18.11-.34.25-.51.37l-.49.4c-.16.14-.41.19-.56.35s-.31.3-.45.46,0,.54-.1.71-.41.24-.51.42-.19.38-.29.57-.38.3-.45.5.12.5.06.7-.1.41-.15.61,0,.43,0,.64-.31.37-.33.58.14.43.13.65S101.48,61.69,101.48,61.9Z" style="fill:#1c1b1f"/><path d="M100.14,61.9a10.44,10.44,0,0,0,3.35,7.49A6.83,6.83,0,0,0,109,71.63c3-.19,5.19-2.85,6.46-5.26.75-1.42,1-1.36,1.08-3.15a21.53,21.53,0,0,0-.07-2.9c0-.32-.16-.7-.19-1-.06-.83-.32.78,0-.27a1.36,1.36,0,0,0-.35-1.3c-.89-1-1.2-2.25-2.16-3.18-.22-.23-.72-.26-.91-.47,1.09,1.22.27-.31,0-.48-.49-.35-1-.33-1.55-.59-.73-.38.58.09-.2-.21a7.41,7.41,0,0,0-3.78-.66,8.46,8.46,0,0,0-5.64,3.92c-1.29,1.88-.94,3.42-1.57,5.46-.5,1.66,2.09,2.37,2.6.72a9.32,9.32,0,0,0,.39-1.85c0-.34.34-2.44,0-1.61a7.16,7.16,0,0,1,4.32-3.86c1.28-.27,1.58.31,2.56.5a3.86,3.86,0,0,1,1,.24c-.43-.3-.31-.09,0,.12,1.38.94,1.89,2.58,3.08,3.85l-.34-1.31a6.22,6.22,0,0,0,0,2.94c0,.34.33,1.91.32,1.95,0,.2-.53.56-.63.85-.61,1.84-2.11,4.32-4.23,4.77a5.71,5.71,0,0,1-1.42-.14c-.72-.16.63.27-.48-.28a5.74,5.74,0,0,1-2.1-1.2,8.62,8.62,0,0,1-2.33-5.33A1.34,1.34,0,0,0,100.14,61.9Z" style="fill:#1c1b1f"/><path d="M89.55,71.39c-.17-.13,0-.72-.2-.85s-.55,0-.73-.07-.37-.22-.56-.34-.47,0-.66-.15,0-.88-.18-1-.77.49-1,.39-.26-.43-.45-.53-.44-.07-.64-.17-.46,0-.65-.12-.28-.43-.48-.52-.3-.4-.49-.48-.57.26-.78.18-.23-.62-.43-.69-.63.49-.83.42-.23-.67-.44-.74-.48.08-.68,0-.37-.3-.58-.36-.45,0-.66,0-.37-.33-.58-.37-.52.43-.74.39-.45.14-.66.11-.38-.37-.59-.4-.42-.19-.63-.21-.44.15-.66.14-.41-.33-.63-.34S74.22,66,74,66s-.42.31-.64.32-.43-.33-.65-.32-.41.15-.63.17-.43,0-.64,0-.41.11-.63.14-.52-.55-.73-.51-.35.5-.56.54-.4.17-.61.22-.48-.17-.69-.12-.51-.19-.72-.12-.4.18-.61.24-.26.59-.46.66-.3.4-.5.48-.68-.51-.88-.43-.51,0-.7,0-.39.22-.59.32-.21.53-.4.64-.22.48-.41.59-.66-.25-.84-.13-.37.25-.55.37.15,1,0,1.11-.44.11-.62.24-.5,0-.67.18-.42.16-.59.3a6.45,6.45,0,0,0-.54.37c-.17.13.09.75-.08.9s-1-.46-1.15-.31.08.72-.08.87-.11.5-.27.65-.66-.06-.82.1,0,.62-.13.77-.7-.06-.85.1.21.76.06.92-.3.31-.44.47-.78-.09-.92.08.15.68,0,.85-.09.47-.22.64-1-.21-1.13,0,.14.65,0,.83,0,.51-.14.69-.64.08-.76.26.08.58,0,.76-.8,0-.92.19,0,.49-.16.67.08.55,0,.74-.53.2-.64.39.27.64.17.83-.14.41-.24.61-.5.23-.59.43-.29.34-.38.54,0,.47-.1.67-.77.17-.85.37.31.59.24.79-.35.34-.42.55.42.59.35.79-.51.3-.57.51.41.55.36.76-.77.27-.82.48.36.51.32.73-.52.35-.55.57.39.48.37.7.07.41.06.63.12.4.11.62-.5.42-.49.63-.41.46-.4.67,0,.45,0,.66.32.39.36.6.62.3.67.5.26.35.32.56-.46.58-.39.78.15.4.23.6.72.13.81.32,0,.48.06.66-.2.6-.09.78.69.06.81.24-.28.71-.15.88.73,0,.87.13.37.21.51.37-.38.95-.23,1.1.79-.2,1-.06-.12.86.06,1,.69-.21.88-.09.2.51.39.62.28.41.48.51.7-.44.9-.34.14.76.34.84.58-.26.78-.18.5-.12.7-.05.46,0,.67,0l.6.17c.22.06.26.81.47.85s.52-.37.73-.33.31.8.52.82.5-.54.72-.52.4.42.61.43.44-.46.66-.46.41-.26.62-.27.43.33.65.31.45.23.66.2.41-.18.62-.22.51.35.72.31.35-.43.56-.48.33-.4.54-.46.37-.2.58-.26.56.3.76.23.3-.37.49-.46.62.32.81.22-.08-1,.1-1.13.71.4.89.3.3-.3.48-.4.13-.63.31-.73.4-.15.59-.25.53.13.72,0,.42-.07.61-.15.31-.35.5-.42.53.35.73.3.26-.65.47-.69.4-.5.61-.51.44.45.65.47a3.36,3.36,0,0,1,.63.06c.2,0,.26.52.47.59s.37.2.58.29.34.28.54.37l.59.28c.2.11.84-.6,1-.49s.38.24.57.35.17.61.36.72.16.65.36.76.59-.14.79,0,.6-.26.81-.17a6.36,6.36,0,0,0,.58.3c.2.08.36.24.57.31s.45,0,.66,0,.2,1,.41,1,.51-.27.73-.23.48-.21.69-.17l.64.1c.21,0,.36.62.57.64s.47-.31.69-.29.42.38.63.39.45,0,.67,0,.43-.36.65-.37.44.08.65.07.38-.63.59-.65l.63-.07.62-.11c.21,0,.51.41.72.36s.32-.47.53-.53a6,6,0,0,0,.57-.28c.21-.06.44,0,.64-.08s.36-.22.56-.3.55.21.75.12.24-.45.43-.56.27-.35.46-.46.36-.18.54-.31.55.05.72-.08.53,0,.7-.18.49-.13.64-.29-.06-.66.09-.82.6-.06.74-.23-.34-.79-.21-1,.2-.35.32-.53.53-.17.64-.36.42-.27.52-.47-.06-.5,0-.7.28-.35.35-.55-.1-.47,0-.68.11-.4.16-.61.06-.42.09-.63.13-.4.16-.62.23-.4.25-.62-.35-.44-.34-.65.28-.42.28-.63.06-.43.05-.65-.06-.42-.08-.64-.43-.38-.45-.59.53-.49.5-.71-.4-.37-.43-.58.39-.51.35-.72-.46-.35-.5-.56S101,88.22,101,88s.63-.61.57-.81.1-.49,0-.69-.15-.42-.22-.63-.74-.2-.81-.4,0-.46-.09-.65-.48-.28-.56-.48-.26-.35-.34-.55.27-.6.18-.8,0-.47-.11-.67-.84,0-.94-.24,0-.5-.1-.69,0-.48-.13-.67.22-.65.11-.83-.84,0-1-.17l-.37-.53c-.12-.18-.42-.23-.55-.4s.19-.68.06-.85,0-.52-.17-.7-.65,0-.79-.2.2-.74.06-.9-.76.07-.9-.09-.06-.54-.2-.7-.13-.49-.28-.65-.74.12-.9,0,.11-.74,0-.89-.41-.21-.57-.35-.86.3-1,.15.31-1,.15-1.17-.76.23-.93.09-.3-.31-.47-.45l-.52-.4C90,71.52,89.73,71.51,89.55,71.39Z" style="fill:#1c1b1f"/><path d="M90.85,71c-.07-.28-.13-.56-.2-.84a1.41,1.41,0,0,0-1.3-1c-1-.11-.77-.21-.83-.57a1.35,1.35,0,0,0-1.65-.94c-1.21.49.37.22-.38,0s-1.17-.62-1.75-.84c-1.07-.41-1-.72-2.32-.41l1.51.62c-.14-.23-.28-.46-.43-.69a1.38,1.38,0,0,0-1.84-.49l-.83.43,1.84.49-.44-.75a1.37,1.37,0,0,0-1.16-.66,5.67,5.67,0,0,1-1.83-.58,1.36,1.36,0,0,0-1.35,0c-1,.51-2.47-.65-3.75-.38-.33.07-.64.4-1,.44-.52,0,1.27-.22.07-.15-.75,0-1.95.24-2.47-.12a1.35,1.35,0,0,0-1.63.21c-.64.61-1.25-.11-2,.17-1.1.41-1.35,1-2.17,1.73l1.63-.21c-2.32-1.13-3.49-.29-4.82,1.65l1.52-.62c-2.16-.34-3.07.51-3.12,2.65l1-1.3c-2,.76-3.31,1-3.49,3.29l1.7-1.3-1.16-.31a1.37,1.37,0,0,0-1.7,1.3A2.46,2.46,0,0,1,56.25,73l1.29-1-.82.1a1.36,1.36,0,0,0-1.29,1c0,.26-.09.52-.13.78l1.29-1-.85.09a1.37,1.37,0,0,0-1.34,1.35c.05.76.82.06,0,.12a1.38,1.38,0,0,0-1.35,1.35A2.35,2.35,0,0,1,52.93,77l1.3-1-1.13,0a1.36,1.36,0,0,0-1.35,1.34c0,.67.76.25.1.49a1.39,1.39,0,0,0-1,1.29c0,.26,0,.51,0,.76l1-1.3-.93.19a1.32,1.32,0,0,0-.93.94,7.75,7.75,0,0,1-.22,1.22c-.23.46.93-.79,0-.22a1.41,1.41,0,0,0-.61,1.52s-.57,1.58-1.37,1.93a1.34,1.34,0,0,0-.62,1.51c.21.4.2.5,0,.31a1.37,1.37,0,0,0,0,1.36c.12.26.23.53.35.79l.21-1.63-.57.51a1.39,1.39,0,0,0-.21,1.63l.36.76.48-1.84-.81.48a1.39,1.39,0,0,0-.49,1.84l.32.72L47,88.91c-.18.18-.37.37-.55.57a1.38,1.38,0,0,0-.21,1.62c.73,1.4.16.26-.15,1.57a3.35,3.35,0,0,0,.32,3.08c.16.33,1.1,1.19.68,0,.09.26-.45.84-.35,1.25.32,1.28.84,1.58,2,2l-1-1.3a6.28,6.28,0,0,1,0,1.44,1.36,1.36,0,0,0,1,1.3l.8.24L48.53,99l-.15.89c-.1.64.16,1.53.94,1.65a1.85,1.85,0,0,1,1.06.36l-.62-1.52c-.08.37-.15.74-.23,1.1a1.36,1.36,0,0,0,1.3,1.7l1,0-1.34-1.35q0,.49.06,1a1.35,1.35,0,0,0,1.34,1.34c.94-.09-.32-.48,0-.29a9,9,0,0,1,.79.94,1.31,1.31,0,0,0,1.3.34l.91-.34-1.66-.94c.11.29.23.57.35.85a1.4,1.4,0,0,0,1.65.94c.72-.17,1.33-.49,1.7.19a1.37,1.37,0,0,0,1.84.48l.73-.33-1.84-.49.52.83a1.35,1.35,0,0,0,1.84.48c.7-.51-.61-.49,0-.09a1.33,1.33,0,0,0,1.36,0c1.19-.82-.33-.31,1.22-.18.84.07,1-.1,1.67.18a1.36,1.36,0,0,0,1.31-.34,4.86,4.86,0,0,1,2.43-.86,1.37,1.37,0,0,0,1.7-1.3c0-.38.07-.76.11-1.13l-1.7,1.29c1.7.6,1.52,0,2.88-.72.32-.15,2.18-.48,1.62-.72a1.4,1.4,0,0,0,1.84-.48,3.66,3.66,0,0,1,.87-.93l-1.63.21a13,13,0,0,0,3.17,1.92c.49.15,1.32,0,1.65.14.71.25.12-.14-.06-.26a4.64,4.64,0,0,1,.54,1.12,1.32,1.32,0,0,0,1.16.66c1.41-.07,2,.37,3.41.41l-1.29-1c.13.33.26.67.4,1a1.37,1.37,0,0,0,1.65.94c.7-.22.9-.49,1.33,0a1.31,1.31,0,0,0,1.31.35c1.42-.6-.66.06.45,0a7.25,7.25,0,0,0,2-.18c.78-.21,1.82-.94,2.34-.68a1.39,1.39,0,0,0,1.63-.21,2.92,2.92,0,0,1,1.74-.73,1.36,1.36,0,0,0,1.31-.34c1.42-1.78,3.7-.84,4-3.65l-1,1.29.73-.23a1.36,1.36,0,0,0,.94-1.65c-.24-1.16-.11.49.41-.55.16-.32.66-.69.87-1.06a12.26,12.26,0,0,0,.86-4.1,13.9,13.9,0,0,0,.09-1.78c-.06-1.37,0-1.91-.85-3l.21,1.62.5-.7a1.29,1.29,0,0,0,0-1.35c-.45-.61-.45.82-.08,0a1.42,1.42,0,0,0-.21-1.63c-.33-.36-.64-.73-.94-1.11l.21,1.63a2.93,2.93,0,0,0-.09-4c-.85-1.1-.82-1-1.12-2.75A1.3,1.3,0,0,0,100,81c-.42-.12-.2-.13-.07-1.14a1.34,1.34,0,0,0-1-1.3c-1.37-.24-.72-.36-1.06-1.7a1.34,1.34,0,0,0-.93-.94l-.79-.21,1,1.3.06-.9a1.38,1.38,0,0,0-1.34-1.35l-.9-.09,1.29,1A12.73,12.73,0,0,0,95.62,74a1.33,1.33,0,0,0-1.16-.67l-.9,0,1.35,1.34c-.11-2.17-1.28-2.7-3.34-2.38l1.7,1.29.15-1.17a1.34,1.34,0,0,0-1.34-1.34c-.7.07-1.17-.55-1.85-.84-1.57-.69-2.94,1.62-1.35,2.32s1.51,1.37,3.2,1.21l-1.35-1.35c0,.39-.09.78-.14,1.17-.13,1,1,1.42,1.7,1.3.91-.14-.11-1-.07-.21A1.39,1.39,0,0,0,93.56,76c.83,0-.09-.21.08.39a1.39,1.39,0,0,0,1.3,1l.9.09-1.35-1.34c0,.3,0,.6,0,.9a1.35,1.35,0,0,0,1,1.29,2.36,2.36,0,0,0,.45,1.51,3,3,0,0,0,2.33,1.34l-1-1.29a8.37,8.37,0,0,0,.16,2.54,1.32,1.32,0,0,0,.94.94c1.29.34-.62-.85-.12.42a10.43,10.43,0,0,0,.74,1.5c.51.89,1.38,1.3.86,2A1.35,1.35,0,0,0,100,89c.3.38.61.75.94,1.11l-.21-1.63-.35.72a1.33,1.33,0,0,0,0,1.36c.41.55.43-.77-.07-.07a1.37,1.37,0,0,0,.21,1.63c.58.75-.26,4.17-.58,5-.7,1.73-2,2.18-1.49,4.33l.94-1.65-.74.23a1.41,1.41,0,0,0-1,1.3c0,.5-.34-.33-1.32.15-.43.21-2.45,2-.93,1.2-1.28.66-2.66.18-4,1.47l1.63-.21c-2-1-3.58.15-5,.5,0,0-1.1-.22-1.2-.24-.68-.13,1.13,0-.22-.21a5.64,5.64,0,0,0-3.1.16l1.65.94c-.14-.33-.27-.67-.4-1a1.42,1.42,0,0,0-1.3-1,29.67,29.67,0,0,1-3-.44c1.39.61-.48-1.51-1.16-1.69-.43-.12-.86.13-1.2.07-.92-.19.33.29-1-.22A16,16,0,0,1,75,99.4a1.36,1.36,0,0,0-1.63.21,6,6,0,0,0-1.29,1.47l1.83-.48-1-.44a1.35,1.35,0,0,0-1.31.35c-.36.3-1.64.34-2.15.57-1.11.52.2,1-.64.69a1.36,1.36,0,0,0-1.7,1.3c0,.37-.07.75-.11,1.13l1.7-1.3c-2.33-.61-2.08.16-4.48,1.08-.84.32,1.14,0-.33-.22a11.34,11.34,0,0,0-1.25-.11,3.66,3.66,0,0,0-1.36,0c-1.78.48.1.75-.54.3a1.29,1.29,0,0,0-1.35,0l-.71.52,1.83.49-.52-.83a1.38,1.38,0,0,0-1.84-.48c-.24.11-.48.23-.73.33l1.84.49c-1.06-1.94-2.69-1.9-4.73-1.44l1.65.94-.35-.84a1.37,1.37,0,0,0-1.65-.94c-.78.3,0,.32-.25-.17a1.34,1.34,0,0,0-1.16-.67l-.88.1,1.34,1.34c0-.33,0-.66,0-1a1.37,1.37,0,0,0-1.35-1.34l-1,.06,1.29,1.7c.08-.37.15-.74.24-1.1a1.42,1.42,0,0,0-.62-1.52A3.14,3.14,0,0,0,50,99l.93,1.65.15-.88a1.36,1.36,0,0,0-.94-1.65l-.8-.24,1,1.29a6.91,6.91,0,0,0,0-1.44,1.42,1.42,0,0,0-1-1.29c-1.22-.48.4,1.2.15.26-.06-.22.22-.7.13-1-.13-.53-1.27-1.33-1.3-1.61s.77-1.14.85-1.65a4.56,4.56,0,0,0-.73-2.63l-.21,1.63c.18-.2.37-.39.55-.57a1.41,1.41,0,0,0,.21-1.63c-.11-.24-.21-.48-.32-.73l-.48,1.84.82-.48A1.39,1.39,0,0,0,49.56,88l-.36-.76L49,88.84l.57-.51a1.37,1.37,0,0,0,.21-1.63,2.6,2.6,0,0,0,0-1.81l-.62,1.52a4.71,4.71,0,0,0,2.61-5L51.11,83a5.08,5.08,0,0,0,1.18-1c.83-.89-.8-.61.24-.83a1.37,1.37,0,0,0,1-1.29l0-.76-1,1.3c1.62-.58,1.9-1.35,1.87-3.08L53.1,78.62l1.13,0a1.37,1.37,0,0,0,1.29-1,4.67,4.67,0,0,0,.26-1.85l-1.34,1.34c1.86-.15,2.77-.87,2.64-2.81l-1.34,1.34.85-.09a1.39,1.39,0,0,0,1.3-1c0-.26.08-.52.13-.77l-1.3,1,.82-.1a1.43,1.43,0,0,0,1.3-1,5.84,5.84,0,0,0,.39-1.88l-1.7,1.29,1.16.31a1.36,1.36,0,0,0,1.7-1.29c.07-.57,0-.61,0-.11.52-.19,1-.38,1.56-.59a1.4,1.4,0,0,0,1-1.29c0-1-1-.16-.29-.06a1.42,1.42,0,0,0,1.52-.61c.43-.64.4-1.06,1.14-.69a1.41,1.41,0,0,0,1.63-.21c1.63-1.55,0-.36,1.85-.77A3.82,3.82,0,0,0,71,66.71l-1.63.21a4.39,4.39,0,0,0,3.28.51c.43-.05,1.24-.14,1.68-.16,1.5-.08-.88-.29.4,0a24.29,24.29,0,0,0,3.58.37,6.35,6.35,0,0,1,2,.56,1.37,1.37,0,0,0,1.84.48l.83-.42-1.84-.49c.15.23.29.47.43.7a1.38,1.38,0,0,0,1.52.61c-.61.15,1.7.73,2.18,1.3a1.3,1.3,0,0,0,1.31.34l1-.39-1.65-.93c.06.33.12.66.17,1a1.3,1.3,0,0,0,.94.93,18.76,18.76,0,0,0,2.31.62l-1.29-1c.07.28.13.56.2.84C88.66,73.43,91.25,72.71,90.85,71Z" style="fill:#1c1b1f"/></svg>