<svg id="레이어_1" data-name="레이어 1" xmlns="http://www.w3.org/2000/svg" viewBox="0 0 150 150"><path d="M127.14,61.32c-.3-.18-2.14-1-1.68-.72l2.15,8.21c.63-.9-.48.49.08,0a7.11,7.11,0,0,0,1.72-2.83,10.4,10.4,0,0,0,.5-3,6,6,0,0,0-3-5.18L125.8,57,127,66.41c-3.82,3,.58-.14,1.34-.73,3.26-2.52,1.62-7.52-1.22-9.42l-1.08-.72V65.9l1.21-.73A6.17,6.17,0,0,0,130,58.4c-.67-3-3.14-4.14-4.5-5l2.15,8.21a5.34,5.34,0,0,0,1.16-2.16c.42-1.58-2.11,2.68-.76,1.2,2.82-3.11,1.95-7-1.22-9.42-.24-.18-2.31-1.42-1.38-.72V60.84c-.85.61,1.2-.55,1.45-.73,3.89-2.79,3.76-7.55,0-10.36-.25-.18-2.31-1.41-1.4-.72l3,5.18a4.44,4.44,0,0,1,0-1.09c-.15.85-2,3.55-.65,2.43,2.5-2.1,2.1-6.32,0-8.48l-.71-.73-1.22,9.42c-.91.69,1.15-.54,1.39-.72,2-1.48,3.76-4.14,2.76-6.78a21.26,21.26,0,0,0-1.29-2.88l-.94,7.27A7.94,7.94,0,0,0,130.38,47a5.85,5.85,0,0,0-3-5.18c-.49-.26-1.8-.64-2-.72V51.42c-.63.4,1.33-.55,1.59-.72a6.12,6.12,0,0,0,2.15-8.21,8.91,8.91,0,0,0-1.35-1.94c-1.26-1.31,1.23,2.83.72,1.19l-2.75,6.78L127,47.8c2.56-1.53,4.11-5.58,2.15-8.21A21.75,21.75,0,0,0,127,36.92v8.49l.88-.73a5.78,5.78,0,0,0,1.54-5.84,13.4,13.4,0,0,0-2.51-4.1l.94,7.27c.6-1.39.17-.53.69-1,2.5-2.09,2.12-6.34,0-8.49l-.71-.72,1.54,5.83c.26-1.18-.7,1.14,0,0a6.17,6.17,0,0,0-.93-7.28l-.65-.73.94,7.27.55-.73c1.33-1.79.84-4.23,0-6.06-1.08-2.35-3-3.17-5.25-4l2.65,10c-.51.58,1-.91,1.22-1.15,2.79-3.34,2-8.81-2.65-10-1.76-.46.69.51-.47-.06l2.76,6.77c.19-.45.37-.9.55-1.36,1.59-4-2.36-7.17-5.79-7.6-1.75-.21-1.66-.87.6.34l2.75,3.59c-1.36-3.37-3.29-5.08-6.83-5.47-1.26-.14-3.5-.42-4.74.69.19-.17,3.35-.4,1-.5l4.24,1.75-.72-.69c-1.42-1.37-3.88-2.32-5.84-1.55q-1.7.6,2.11.22,3,2,1.57.87c-2.33-1.93-6.24-2.66-8.49,0-1,1.24.87-.34-.22.42l4.62-.6a6.36,6.36,0,0,0-6.06.79l8.21,2.15c.73,1-.34-.83-.46-1a9.73,9.73,0,0,0-1.2-1.57,7.46,7.46,0,0,0-4.17-1.9c-3.42-.43-5.51,1.85-7.41,4.33h10.36l-.72-1.26c-1.86-3.25-6.8-4-9.42-1.21-1,1.13,1.32-.57,1.56-.64.56-.14,4-.08,1.32-.21a6.47,6.47,0,0,0-4.55,1.26h6.06a10,10,0,0,0-4.47-1.21l5.18,3-.72-1.06c-1.14-1.66-3-3.15-5.18-3-3.08.26-4.94,1.41-7.13,3.51L103,25c.39.6-.55-1.34-.73-1.61a6.08,6.08,0,0,0-10.36,0c-.17.25-1.21,2.26-.72,1.54l9.42-1.22-.72-.86c-2.15-2.56-6.26-2-8.48,0l-.73.66,7.27-.94L97.21,22c-2-1.52-5.6-.85-7.27.94l-.72.77,7.27-.94A10.59,10.59,0,0,0,92,21.56l5.18,3c.52.77-.55-1.26-.72-1.51-2.68-3.94-7.65-3.75-10.36,0-.18.24-1.36,2.31-.72,1.42l9.42-1.22c3,3.83-.12-.55-.72-1.32-2-2.53-6.45-2.11-8.48,0l-.72.75h8.48l-.72-.87c-2-2.42-6.45-2.22-8.48,0l-.73.79h8.49c-3.85-4.15-8.57-2.66-11.59,1.46l9.43-1.21L89.05,22c-2.1-2.49-6.33-2.12-8.48,0-.48.47-1,.93-1.45,1.38h8.49l-.72-.8c-2.24-2.48-6.2-2.11-8.49,0l-.72.67h8.48c2.53,3.24-.11-.88-1.33-1.8a7.52,7.52,0,0,0-4.35-1.33,5.91,5.91,0,0,0-5.18,3A18.28,18.28,0,0,0,74.58,25L84,23.73a10.55,10.55,0,0,0-2.65-2.33c-2.88-1.91-6.41-.36-8.21,2.15l-.72,1,9.43-1.21-.72-.74a6.1,6.1,0,0,0-8.49,0c-1.06,1,.87-.4-.22.08l7.27.94a7.22,7.22,0,0,0-4.17-2.46c-3-.66,2.21,1.55,1.28.64-2.22-2.17-6.31-2.45-8.49,0-1.91,2.15.38.32.49.29l6.77,2.76-.72-1.15c-1.67-2.66-5.4-3.94-8.2-2.15l-.72.46,8.21,2.15-.72-1.1a6.2,6.2,0,0,0-6.78-2.76,7.53,7.53,0,0,0-4.09,2.51l4.25-1.76a6.72,6.72,0,0,0-5.68,2.5l7.27-.93a14.22,14.22,0,0,0-6.64-2.19,6,6,0,0,0-5.18,3l-.73,1.17H66.21c.51.76-.56-1.26-.73-1.51-2.44-3.59-8-4.17-10.36,0a16,16,0,0,0-.72,1.85l8.21-2.15c-.48-.3-1-.58-1.45-.86a6,6,0,0,0-6,0c-1.32.85,2.93-.34,1.58-.37l4.24,1.76-.72-.56c-1.91-1.49-5-2.65-7.27-.94l-.72.55,8.21,2.15L59.7,23.4c-1.64-2.46-4-3.17-6.77-2.75-2.46.36-3.66,2-5,3.86l5.18-3-.72.06,5.18,3c.66.9-.54-1.16-.72-1.41-2-2.74-6.8-4.55-9.43-1.21l-.72.92h8.49A18.47,18.47,0,0,0,52.49,21c-2-1.09.18.27-.73-.2-3.14-1.62-6.18-.57-8.21,2.15-.19.24-1.42,2.3-.73,1.38l3.59-2.76-.73.3,5.84,1.55-.72-.67A6,6,0,0,0,45,21.24l-.72.26L51,24.25c-1.45-2-2.59-3.28-5-3.92a6.19,6.19,0,0,0-6.78,2.76c-.17.24-1.23,2.26-.72,1.52l9.42-1.22-.73-.8a6,6,0,0,0-8.48,0l-.72.78h8.48C42,19.19,36.7,19.46,33.41,24.83l9.42-1.21a9.14,9.14,0,0,0-4.1-2.69c-2.54-1-5.43.67-6.78,2.76l-.73,1.12H41.59c.51.75-.56-1.27-.73-1.52-1.76-2.58-5.33-4-8.21-2.15a7.8,7.8,0,0,0-.91.58c-.51.45,1.24-.37.15-.06l5.84,1.54L37,22.57c-1.56-1.33-3.76-2.3-5.84-1.54l-.74.27,4.63.6-.92-.65c-2.19-1.5-5.47-.82-7.27.94A10.34,10.34,0,0,0,25,24.78a4.19,4.19,0,0,0-.45,1.27c.33-.66.36-.74.07-.24l8.21-2.15c-1-.46-2-1.06-3.08-1.51-3.46-1.44-7.89,2.21-7.59,5.78,0,.41.07.82.11,1.23l6-6c-6.39.11-8.14,4.74-6.89,10.19l1.54-5.83c-.21.2-.41.4-.6.62a6.31,6.31,0,0,0-.93,7.28c.1.25.22.5.35.75L23.87,28l-1.08.72a6.07,6.07,0,0,0,0,10.36c1.83,1.17-1.32-2-.65-.72l-.6-4.62c-.27,1.58,2-3.46.29-.61a9.94,9.94,0,0,0-1.24,2.76,6.24,6.24,0,0,0,2.76,6.78l1.08.72V33c.95-.71-1.12.54-1.37.72-3.68,2.78-4,7.64,0,10.36.25.17,2.29,1.26,1.5.72V34.42l-1.17.72c-2.54,1.56-4.11,5.54-2.15,8.21l.53.72V38l-.42.72a6,6,0,0,0,0,6.05l.47.72.94-7.27-.85.72c-2.28,1.92-2.4,6.59,0,8.48.76.61,5.12,3.74,1.29.72l1.22-9.42c-1.14.78-3.79,2.08-4.41,5a6.2,6.2,0,0,0,2.76,6.77c.29.18,2.14,1,1.67.72V40.88a8.19,8.19,0,0,0-1.7.71c-4.1,2.45-3.64,7.82,0,10.36.24.17,2.3,1.31,1.46.72L23,43.25a7,7,0,0,0-2.59,4.08,6.26,6.26,0,0,0,2.76,6.77l1,.72L22.92,45.4l-.75.71c-2.07,2-2.06,4.88-.94,7.27l.34.72V48c-1.83,3.81-1.76,7.24,1.59,10.14l1.21-9.42-1.08.72a6.08,6.08,0,0,0,0,10.36l1.07.72-1.22-9.43-.87.72c-2.49,2.06-2.14,6.38,0,8.49l.73.72V52.57l-.82.72c-2.48,2.17-2.13,6.27,0,8.49l.69.72V54c3.9-3-.72.08-1.33.72a6.24,6.24,0,0,0-1.73,4.6,8.32,8.32,0,0,0,3,6l-.93-7.27A8.61,8.61,0,0,0,22,67l.93-7.28c-3.93,3.77-3.64,8.13-.16,12.08V63.34l-.66.72a6.09,6.09,0,0,0,1.22,9.43l1.27.71V63.84c.53-.33-1.36.55-1.65.72-4.14,2.6-3.54,7.66,0,10.36,1.47,1.12-.69-.64.45.51l-.94-7.28c-.4.84,4.28-3.36.24-.71a6.07,6.07,0,0,0-1.21,9.42l.73.72-.94-7.27a7.48,7.48,0,0,0,0,7.49l.94-7.27-.75.71a6.06,6.06,0,0,0,1.22,9.43c.47.25,1.83.66,1.92.71V71a9.33,9.33,0,0,0-4.17,5A5.78,5.78,0,0,0,22,81.88c1.15.94-.19-.76.28.22l2.15-8.21-1.24.72c-4.25,2.46-3.46,7.75,0,10.36l.95.72L21.34,82.1l.24.72,2.76-6.77c.7-.47-1.3.55-1.55.72a6.07,6.07,0,0,0,0,10.36,8.72,8.72,0,0,0,1.72.71V77.48l-1.26.72c-4.22,2.41-3.5,7.81,0,10.36l1,.72-3-5.18,0,.71,3-5.18c-4.64,3.46-5.07,8-1.33,12.29l1.21-9.42c.88-.63-1.19.54-1.43.71-2.85,2-4.44,6.75-1.21,9.43l.86.71-.94-7.27c-1.69,2.86-2,5.12-.5,8.22V88.24l-.39.72a6,6,0,0,0,0,6.06,12.45,12.45,0,0,0,3.71,3.59V88.25L23,89c-4.22,2.42-3.5,7.79,0,10.36l1,.72-1.21-9.43-.72.72a6.14,6.14,0,0,0-.94,7.27l.41.72-.61-4.62a8.73,8.73,0,0,0,2.48,8.72L24.58,94a19.09,19.09,0,0,0-3,2.38,6.08,6.08,0,0,0,1.21,9.43c.28.17,2.19,1.07,1.63.72V96.17c.94-.7-1.13.53-1.37.72-2.91,2.17-4.36,6.58-1.22,9.42l.8.72-1.76-4.24-.06.72,1.76-4.24a29.67,29.67,0,0,0-2.09,2.65c-2,2.8-.34,6.5,2.15,8.21.25.17,2.29,1.27,1.5.73V100.49l-1.22.72a6.07,6.07,0,0,0,0,10.37l1.14.72-1.21-9.43-.68.72c-1.72,1.81-2.47,5.07-.94,7.27l.5.72.94-7.27c3.82-3-.53.11-1.3.72-3.07,2.44-1.83,7.67,1.22,9.42a12.71,12.71,0,0,0,1.8.72l-3-5.18c-.06.64.39-3.5-.41.57a7.12,7.12,0,0,0,1,5.35l-.61-4.63-.22.73L24,108.42l-.94.72c-3.66,2.81-4,7.62,0,10.37,1.06.77.75.42-.94-1.07-.5-2.45-.7-3.09-.6-1.94l3-5.18L23.2,112A6.08,6.08,0,0,0,22,121.47c1.28,1.4-1.18-2.69-.6-1.2l.61-4.63c-.29.54-.21.5.23-.12a7.65,7.65,0,0,0-1.31,1.58,8.13,8.13,0,0,0-1,3A6.88,6.88,0,0,0,24,127.45l-3-5.18a6.8,6.8,0,0,0,5.65,7.45l-4.19-7.38a12.75,12.75,0,0,0-.87,1.65c-1.88,4.72,3.43,8,7.38,7.38.3-.05,2.54-.63,1.54-.45l-7.38-4.19c.05.32.12.62.19.93.95,4.11,5.48,5.09,8.82,3.59l1.14-.53H27.27c-1.35-1.54-1.74-1.83-1.17-.85,1.34,2.58,4.2,3.11,6.78,2.75l.76-.1L27.8,131c.23.24.46.46.71.68,2.27,2.07,6.27,2.53,8.49,0l.71-.81H29.22A7.47,7.47,0,0,0,34,133.5c2.73.45,5.25-.32,6.77-2.76,1.19-1.9-2,1.35-.72.56l-7.27-.94a7.72,7.72,0,0,0,5.67,2.6l-4.24-1.76.72.57c2.18,1.72,4.72,2.33,7.27.94l.72-.4-4.63.61c2.28.8,3.94.25,6.06-.67l-4.63.61.72.24c2.73.9,5.22-.68,6.77-2.76l.72-1-9.43,1.22.72.72c3,3,7.16,1.8,9.42-1.21l.71-1-8.2,2.15c1.14.57-3.2-2.84.21.39a9.07,9.07,0,0,0,3.36,1.81A5.82,5.82,0,0,0,50.57,132a14.55,14.55,0,0,1,1.43-1.4l-9.43-1.22c.53.72,1.91,3.37,4.48,4.2a6.24,6.24,0,0,0,5.88-1l-7.27-.94.72.57c2.89,2.3,7.4,2.49,9.42-1.21.24-.45.71-1.86.72-1.88H46.16c-.25-.41.53,1.39.71,1.7a6.08,6.08,0,0,0,10.37,0l.71-1.11-9.42,1.22a9.54,9.54,0,0,0,2.65,1.9,6.38,6.38,0,0,0,7.27-.94c1.2-1-1,.72.21-.19h-6l.71.5a5.84,5.84,0,0,0,6.06,0l.72-.5-8.21-2.16c3.13,5.08,8.73,5.31,13,1.53l-7.28.94.72.35c1.85.89,4.23,1.27,6.06,0,1.16-.81-1.81.3-1.95.3-2.92,0-2.85-1.07-1.77-.29a6.4,6.4,0,0,0,2.69,1c3.74.71,6.36-1.31,8.21-4.36l-8.21,2.15c1.12.75-.87-.86.22.31,2.83,3.05,7.28,1.79,9.42-1.22l.72-1H63.38c-.52-.76.55,1.27.72,1.52,2.45,3.6,8,4.15,10.36,0l.72-1.28-9.43,1.21a7,7,0,0,0,9.43,1.44l-4.62.6a8.41,8.41,0,0,0,5.36.06l-5.84-1.55c1.76,1.44,3.35,2.46,5.68,2.28A6.53,6.53,0,0,0,80,131.79a25.8,25.8,0,0,0,1.65-2.69H71.3a17,17,0,0,0,.73,1.83c2.33,4.15,7.91,3.61,10.36,0l.72-1.06-3.58,2.75A10.45,10.45,0,0,1,81,132.2c7.56-1.53,4.36-13.1-3.19-11.57-2.65.54-4.28,2.06-5.76,4.25H82.39a14.41,14.41,0,0,0-.73-1.84c-2.34-4.18-7.88-3.57-10.36,0-.17.24-1.28,2.29-.72,1.48l5.18-3-.72.07,4.25,1.76-.73-.59c-1.57-1.28-3.75-2.35-5.83-1.54-1.08.41,2.74.62,1.74.13a4.56,4.56,0,0,0-1.52-.3,6.92,6.92,0,0,0-3.82.71c-1.59.79,3.3-.24,1.58-.45L75,123.1l-.72-.86c-2.48-3-7.67-1.92-9.42,1.21l-.72,1.28H74.46c.52.76-.55-1.27-.72-1.51-2.67-3.92-7.68-3.78-10.36,0l-.72,1L72.08,123a14.18,14.18,0,0,0-2.64-2.18c-2.74-1.81-6.6-.5-8.21,2.15-1.16,1.91,2-1.28.72-.54l4.62-.61c-1.08-.15.92.76,0,.09a6.68,6.68,0,0,0-2.95-1.16A7.22,7.22,0,0,0,58.35,122h6.06l-.72-.34a6.26,6.26,0,0,0-7.27.94c-.71.62,1.76-.74,2.45-.88a4.34,4.34,0,0,1-1.08,0l5.18,3-.72-1.16c-1.6-2.59-5.5-4.06-8.21-2.15l-.72.5h6.06l-.72-.5a5.8,5.8,0,0,0-6,0c-.9.67-1.79,1.35-2.65,2.07l7.27-.94c-1.11-.47.86,1-.21,0a6.1,6.1,0,0,0-9.43,1.22l-.72,1.1H57.24a8.77,8.77,0,0,0-.72-1.7c-2.27-3.76-8.16-4-10.36,0a17.71,17.71,0,0,0-.72,1.88l9.42-1.21-.72-.57c-1.92-1.53-5-2.62-7.27-.94l-.71.53,4.62-.61-.72-.23,3.59,2.76c.69.94-.54-1.14-.72-1.38-2.4-3.25-6.27-4-9.42-1.22a17.29,17.29,0,0,0-1.43,1.41l5.84-1.55-.71-.27,3.58,2.76A10.11,10.11,0,0,0,47.21,121c-3.15-1.59-6.15-.59-8.21,2.15l-.71,1,9.42-1.21-.71-.73c-3-3-7.17-1.81-9.42,1.21l-.72,1,6.78-2.76c-2.3-.75-3.93-.24-6,.68l4.62-.6a6.92,6.92,0,0,0-6.06.74l7.27.94a9.34,9.34,0,0,0-5.67-2.39L42,122.65l-.72-.78a6.06,6.06,0,0,0-7.27-.93,11,11,0,0,0-3.58,3.74l6.78-2.75c-2.51-.41,1.25,1.3.51.42-2-2.36-6.48-2.29-8.49,0l-.71.82H37c-2.38-2.17-4.1-2.57-7.31-2.12l6.77,2.76a9.59,9.59,0,0,0-3.13-3.45c-1.78-1.32-4.24-.86-6.06,0-.37.18-.75.36-1.14.53L35,124.47c-.08-.31-.15-.61-.2-.93-.65-3.36-4.4-4.74-7.38-4.19-.33.06-2.56.61-1.54.45l7.38,7.38a11.87,11.87,0,0,0,.87-1.65c1.17-2.8-1.28-6.89-4.19-7.38l-1-.19,4.19,4.19v.12a5.81,5.81,0,0,0-3-5.19c-.39-.18-.77-.37-1.15-.57l3,5.18c.08.64-2.16,4.35.1.74a7.51,7.51,0,0,0,1.05-3c.35-2.56-.93-4.66-2.59-6.49l-1.22,9.42,1.27-.72a5.93,5.93,0,0,0,3-5.18c-.24-3.49-1.56-5.4-4.41-7.36v10.37c3.53-2.72,5.42-6.13,2.89-10.38v6.05A12.38,12.38,0,0,0,33.42,110a5.84,5.84,0,0,0-3-5.18,12.75,12.75,0,0,0-1.79-.72l1.21,9.42c-3.82,3,.53-.11,1.29-.72,1.93-1.52,2.33-5.28.94-7.27l-.5-.72-.94,7.28.68-.72a6.08,6.08,0,0,0-1.21-9.42L29,101.21v10.37l1.22-.72c4.09-2.42,3.64-7.86,0-10.37-.25-.17-2.29-1.26-1.5-.72L30.86,108c.75-1.06-.64.71.22-.23a6.87,6.87,0,0,0-.74-9.92l-1.22,9.42c-.93.7,1.13-.54,1.38-.72,3.59-2.69,4.1-7.77,0-10.36-.28-.18-2.19-1.08-1.63-.72l1.21,9.42c1.05-1.08-1,.53.56-.51,3.12-2.11,4.14-6.58,1.21-9.42-1.29-1.25.92,2.53.55,1.21-.41-1.5.6,2.5,0,1.93.09.08,0-3.52,0-3.37a8.79,8.79,0,0,0-1-2.15l-.94,7.27.72-.72c3-3,1.86-7.18-1.21-9.42L29,89V99.33l1.25-.72c4.09-2.34,3.67-7.93,0-10.36-1.86-1.24,1.48,2,.59.71V95c1.47-2.68,1.37-4.79,0-7.5v6.06c.29-.48.57-1,.85-1.44,1.25-2.11,1.08-5.6-.94-7.27L30,84.15l-1.21,9.42c-.88.63,1.19-.54,1.43-.71,3.29-2.35,3.91-6.31,1.21-9.43-1.1-1.26.91,2.88.91,2.1l-3,5.18c5.05-3.76,5.13-8.74,0-12.51V88.56l1.26-.72a6.06,6.06,0,0,0,0-10.36,8.7,8.7,0,0,0-1.73-.71V87.13c-.7.46,1.3-.55,1.56-.72,2.11-1.39,3.65-4.2,2.76-6.78a9.64,9.64,0,0,0-4-5V85l1.24-.72C33.41,82.53,34,79,32.59,76a7.67,7.67,0,0,0-2.15-2.65L32,79.23l.29-.72L29.52,82.1l1.12-.72c3.63-2.32,4.14-8.16,0-10.36-.47-.25-1.83-.67-1.92-.72l1.21,9.43.75-.72a6.17,6.17,0,0,0,.94-7.27L31.26,71v6.06l.35-.72a6.21,6.21,0,0,0-.94-7.27l-.73-.72L28.73,77.8c.92-.61,3.06-1.51,4.06-3.59a6.21,6.21,0,0,0-.94-7.27A26.26,26.26,0,0,0,29,64.56V74.92c-.53.34,1.36-.54,1.64-.72,3.75-2.34,4-8.07,0-10.36l-1.26-.72,1.21,9.43.66-.72a6.17,6.17,0,0,0,0-8.49c-1.06-1.2.69,1-.25-.22l.61,4.63c.22-1.07-1.28,1.52-.2.49A6.07,6.07,0,0,0,32.33,61a4.19,4.19,0,0,1-.14,3.19,6.17,6.17,0,0,0-.94-7.28c-1-1,.64,3.5.53,2.09L30,63.22c-3.84,3,.56-.13,1.32-.72,2.61-2,2-6.38,0-8.49l-.69-.72v8.49l.83-.72c2.42-2.13,2.19-6.33,0-8.49l-.73-.72v8.49l.87-.72c3.17-2.62,1.7-7.46-1.22-9.42l-1.07-.72V59.84l1.09-.72c3-2,4.29-6.75,1.21-9.42-1.19-1,.34.85-.33-.22l.6,4.62c.29-.75,0,.13-.15.36a6,6,0,0,0,.88-2.59,7.81,7.81,0,0,0-1.05-4.54l-.94,7.27.76-.72c3-2.89,1.78-7.23-1.22-9.42l-1-.72L32,50.52c.26-1.16-1.91,2.36-.5,1.21,3.23-2.63,1.64-7.43-1.21-9.42C30,42.14,28,41,28.79,41.59V52c-.39.24,1.4-.52,1.71-.71a6.06,6.06,0,0,0,0-10.36c-.3-.19-2.14-1-1.68-.72l2.76,6.78.15-.72L29,49.8c-.79.54,1.25-.54,1.5-.71,2.84-1.94,4.46-6.85,1.21-9.43-.76-.6-5.12-3.74-1.3-.71v8.48l.85-.71a6,6,0,0,0,.94-7.28l-.47-.71v6.05l.42-.71c1-1.71,1.24-4.38,0-6.06l-.53-.72L29.45,45.5l1.17-.72c4-2.47,3.71-7.82,0-10.36-.25-.17-2.29-1.26-1.5-.72V44.06c-.95.72,1.12-.53,1.36-.71,3.66-2.76,4-7.68,0-10.37l-1.07-.72L32.17,39c.34-1.48-2.18,4.25.21,0a8.3,8.3,0,0,0,.94-3.75c-.09-3.09-2-5.05-4.47-6.61V39l1.08-.72a6.16,6.16,0,0,0,2.15-8.21,7.27,7.27,0,0,1-.35-.75l-.94,7.27a7.45,7.45,0,0,0,1.56-8.33l-.6,4.62.47-.7-5.18,3c.4,0,.81,0,1.21,0,3-.06,6.35-2.72,6-6,0-.41-.08-.82-.11-1.23l-7.6,5.79c-.42.08-.35.18.22.3,3,1.31,6.37.88,8.21-2.16a6.46,6.46,0,0,0,1-2c.49-1.93-1.92,2.13-.62.86l-7.27.94a6.46,6.46,0,0,0,6.28,1l-5.84-1.54c3.39,2.9,6.64,2.74,10.2.44L30.5,29.35c-.51-.75.55,1.27.72,1.52a6.09,6.09,0,0,0,10.37,0l.72-1.13L35.54,32.5c1.3.49-2.44-1.88-1.19-.4,2.56,3.06,7.55,1.84,9.42-1.21l.73-1.19-3.59,2.76c.48-.18,1-.33,1.45-.46l-5.83-1.54L38,31.85a6.07,6.07,0,0,0,8.48,0l.72-.78H38.7l.73.81c2.75,3.05,7.37,1.81,9.42-1.22.17-.24,1.23-2.26.72-1.52L42.8,31.9l.72.19-3.59-2.76.72,1c1.5,2,4.13,3.71,6.78,2.76l.72-.26-5.84-1.54.73.66c1.44,1.33,3.87,2.36,5.83,1.54a9.87,9.87,0,0,0,3.38-1.84s2.58-3.83,1.66-2.6L45.7,31.19a8.66,8.66,0,0,0,2.16,1c1.59.11-2.68-2-1.2-.83,2.29,1.84,6.31,2.76,8.49,0l.72-.92-9.43-1.21c.91,1.23,2.53,4.29,6.09,4.36,3.11.07,4.77-1.69,6.45-4l-3.59,2.76.73-.11-6.78-2.76.73,1.09c1.63,2.45,5.5,4.21,8.2,2.15l.73-.55-7.27-.94c3,2.33,6.05,3.22,9.43,1.06h-6c.49.27,1,.55,1.44.85A6.06,6.06,0,0,0,64.76,31a15.3,15.3,0,0,0,.72-1.86H55.12c-.51-.75.55,1.27.72,1.52,2.54,3.72,7.89,4,10.37,0l.72-1.17-5.18,3c.7,0-1.33-.94-.86-.28.24.34,1.07.62,1.44.83A6.12,6.12,0,0,0,69.6,32l.72-.78L66.08,33a6.54,6.54,0,0,0,3.75-.78c4.07-2.4-1.21-.09,0-.37l-6.78-2.76.72,1.11c1.72,2.63,5.37,4,8.21,2.15l.72-.46-8.21-2.15.72,1.15A6.17,6.17,0,0,0,72,33.66a9.54,9.54,0,0,0,4.81-3.38H68.31a8.74,8.74,0,0,0,6.41,2.77l-4.24-1.76.72.81c1.91,2.15,4.91,2,7.27.94a9.28,9.28,0,0,0,2.66-1.95H72.64l.72.73c2.91,3,7.23,1.85,9.43-1.21l.71-1-8.21,2.15c1,.67-.75-.79.22.46,2.38,3.06,7.75,1.86,9.43-1.22.24-.45.69-1.84.72-1.89l-5.18,3,.72.05L77,30.37c-3-3.83.13.56.72,1.32,2,2.63,6.34,2,8.48,0l.73-.67H78.4l.72.81c2.24,2.47,6.2,2.1,8.49,0,.49-.46,1-.91,1.44-1.38H80.57l.72.85c2.72,3.23,7.35,1.63,9.42-1.21l.73-1-5.18,3L87,32l-4.25-1.75.72.77a6.06,6.06,0,0,0,8.49,0l.72-.79H84.18l.72.88c2,2.47,6.39,2.16,8.48,0l.72-.75H85.62c-3-3.83.12.56.72,1.32,2.6,3.34,7.43,1.53,9.42-1.21.18-.25,1.36-2.31.72-1.43H86.12c-.63-.91.26.83.59,1.32A7.11,7.11,0,0,0,89,32.74a7,7,0,0,0,3,.82c1.54.12-3.09-1.19-1.59-.41a6.18,6.18,0,0,0,7.28-.94l.72-.78-7.27.94.72.53c2.18,1.62,5.45.73,7.27-.93l.72-.66H91.39l.72.86c2.64,3.14,7.44,1.72,9.42-1.22.17-.25,1.21-2.26.72-1.53H91.89c-.39-.61.55,1.34.72,1.6A6.09,6.09,0,0,0,102,32.24c2.14-2.05-1.3,0-1.36,0l-5.18-3c1,1.45,1.89,2.79,3.59,3.51a4.83,4.83,0,0,0,2.49.52c.56-.14-3-1.06-1.77-.42,1.75.9,4.35,1.3,6.06,0l.72-.55-4.62.6a7.41,7.41,0,0,0,8-2.35l-9.42-1.21.72,1.26c2.45,4.28,7.74,3.42,10.36,0,1.34-1.75-2.14,1.73-.71.68l-4.63.61.72.25-3.58-2.76c-.74-1,.53,1.1.72,1.35,1.89,2.48,5.22,4.09,8.2,2.15l.72-.46-4.62.6c3.09,1.2,6-.24,8-2.62H108c2.33,1.93,5,3.2,8,2l-5.83-1.55c3.06,3,6.49,3,10.16,1.24l-4.63.6a13.24,13.24,0,0,0,2.21.39l-3.59-2.76c-.61-1.37,1.09,1.87,1.32,2.11A7.31,7.31,0,0,0,118.11,34a16.58,16.58,0,0,0,4.15.67l-5.78-7.59c-.18.46-.36.91-.55,1.36-.94,2.29.6,5.7,2.76,6.78A17.19,17.19,0,0,0,122,36.51l-2.65-10c.53-.63-1,.91-1.22,1.15-3.11,3.57-1.71,8.42,2.65,10,.43.15.86.31,1.28.49l-3.59-2.76q.21.38.39.78V30.11l-.55.74c-1.65,2.21-.68,5.41.94,7.27l.64.73L119,31.58c-2,3.31-1.71,6.65,1.06,9.46V32.55a8.83,8.83,0,0,0-2.57,3.4c-1.11,2.61-1,5.11.94,7.27,1.29,1.43-1.21-2.69-.58-1.19l1.55-5.84-.89.73c-2.48,2.06-2.13,6.38,0,8.49,1.17,1.15-.54-.95.34.23L121,37.43l-1.21.73A6.11,6.11,0,0,0,117,44.93a13.74,13.74,0,0,0,1.3,2.77c1,1.69.16.19.54.84L121,40.33c.63-.4-1.33.56-1.6.73-3.6,2.33-4.17,8.16,0,10.36.5.26,1.8.64,1.95.72l-3-5.18-.07.72,1.76-4.24-.75.72a6.12,6.12,0,0,0-.94,7.27c.71,1.24-.39-1.23.09,0l2.76-6.77c.91-.69-1.15.54-1.39.72-3.08,2.3-4.16,6.42-1.22,9.43l.71.72V47.07a8,8,0,0,0-2.88,6.41,7.71,7.71,0,0,0,.88,3.75,7.49,7.49,0,0,0,2.33,2.29c.16.11,2.18,1.32,1.21.59V49.75c.85-.61-1.2.55-1.45.73-3.89,2.79-3.76,7.54,0,10.36.25.18,2.31,1.42,1.38.72l-1.21-9.42a17.56,17.56,0,0,0-1.9,2.65c-1.22,2,.39-.26-.37.73-2,2.66-.29,6.62,2.15,8.21.26.17,2.23,1.14,1.58.72l-2.76-3.58.16.72,2.76-6.78-1.21.73c-4,2.41-3.71,7.88,0,10.36l1.09.72-1.22-9.42c3.82-3-.58.14-1.34.72-3.22,2.5-1.67,7.58,1.22,9.43l1.13.72-3-5.18c0,.61,1.23-2.4,1-2.25-.67.34-1.15,1.45-1.61,2.11-1.87,2.71-.44,6.62,2.15,8.21.3.18,2.14,1,1.68.72,6.6,4,12.64-6.33,6.06-10.36Z" style="fill:#1c1b1f"/><path d="M27,57.13l.72-.05-5.19-3a13.09,13.09,0,0,0,1.66,2.64,7.44,7.44,0,0,0,4.16,1.91,7.26,7.26,0,0,0,3.82-.59,6,6,0,0,0,2.11-1.47c.64-.7-1.07.5,0-.16l-7.27-.94.72.88a5.79,5.79,0,0,0,5.84,1.54,22.45,22.45,0,0,0,3.58-1.51l-7.27-.94.72.73c2.46,2.51,6,2,8.48,0,1.43-1.12-2.7,1.21-1.21.77l-6.77-2.76a8.62,8.62,0,0,0,.72,1.72c1.85,3.09,6.86,4.22,9.42,1.21l.72-.85-7.27.94a9.38,9.38,0,0,0,5,1.68,6.24,6.24,0,0,0,4.43-1.74s2.61-3.85,1.65-2.58H35.45l.72,1.19A6.07,6.07,0,0,0,45.59,57c.47-.48.93-.92,1.44-1.36H38.54l.72.67a6.09,6.09,0,0,0,8.48,0l.72-.72L39,54.36l.71,1.12a6.07,6.07,0,0,0,10.37,0l.71-1.22H40.47c-.6-.85.55,1.21.72,1.45,2.73,3.88,7.62,3.8,10.36,0,.18-.24,1.36-2.31.72-1.42H41.91c-.6-.84.54,1.22.71,1.46,2.72,3.87,7.64,3.81,10.36,0l.72-1-3.59,2.76.72-.19-6.77-2.76c2,2.67,4.68,4.78,8.21,3.82a6.55,6.55,0,0,0,2.64-1.55c1.22-1.12-1.47.83-1.57.71.16.2,1.71-.65,2-.81.62-.36-1.32.4-.17.18l-6.78-2.76.72,1.14a6.18,6.18,0,0,0,6.77,2.76l.72-.16L52,57.28l.72.48a5.84,5.84,0,0,0,6.06,0l.72-.5-7.28-.94.72.84a6,6,0,0,0,7.28.94,15.05,15.05,0,0,0,3.59-3.62l-8.21,2.15a5.4,5.4,0,0,0,2.15,1.13c1.58.39-2.68-2.12-1.21-.77,2.16,2,6.43,2.64,8.48,0,.6-.76,3.71-5.15.72-1.32l-9.42-1.21L57,55.67c2.43,4.11,7.83,3.63,10.36,0,.17-.24,1.3-2.3.72-1.46l-9.43,1.21c3.55,3,7.12,3.13,10.64,0l-9.42-1.22.72,1.22a6.06,6.06,0,0,0,10.36,0l.72-1.24-6.78,2.75.72.28L62,54.44c-.7-.94.54,1.13.72,1.37,2.8,3.74,7.6,3.93,10.36,0,1.28-1.81-2.08,1.58-.71.63l-8.21-2.15c-.56-.8.55,1.24.72,1.49,1.77,2.55,5.34,4,8.21,2.15,1-.62-1.26.84.72-.34a10.54,10.54,0,0,0,2.65-2l-9.42-1.21c-.65-.9.54,1.17.72,1.41,2.67,3.68,7.75,4,10.36,0l.72-1.1-5.18,3a13.06,13.06,0,0,0,4.46-1.23l-8.21-2.16.71,1c1.15,1.62,3,3.19,5.18,3C77,58.11,73,57,74.22,57.87c2.61,2,6.69.38,8.21-2.15l.72-1.2-9.43,1.22.72.75c2.33,2.44,6.11,2.12,8.49,0l.72-.64-7.27.94c1.15.86-.89-.83.22.37C79.41,60.18,83.92,59,86,56c.85-1.23-1.2.95-1.79,1.21-.39.16-2.37-.12-1.4.09l-3.59-2.76L80,55.64c1.65,2.66,5.42,4,8.21,2.15,1.7-1.1-4,1.15-.8.31a12.25,12.25,0,0,0,3-1.11l-7.27-.94c3.84,4.73,9.49,2.39,12.29-1.95H85l.72,1.2a5.92,5.92,0,0,0,5.18,3c1.27-.13-1.44-.31-.15-.14a15.08,15.08,0,0,0,1.52.27A7.26,7.26,0,0,0,98,56.06L90.75,57c.61.36.1.11-.14-.18a6,6,0,0,0,1.57,1.28,6.91,6.91,0,0,0,4.55.66,8.59,8.59,0,0,0,5.6-3l-9.42-1.21c-.65-.89.54,1.17.72,1.42,2,2.73,5.08,3.76,8.21,2.15a6.21,6.21,0,0,0,1.94-1.31c1.29-1.43-2.81,1-1.21.49L98,56.66c.52.36.48.35-.14,0a3.71,3.71,0,0,0,1,.88,6.58,6.58,0,0,0,2.76,1.18c2.86.42,5.12-.34,6.78-2.76.17-.25,1.25-2.28.72-1.51l-8.21,2.15a7.16,7.16,0,0,0,6.07.87l-6.77-2.76.72,1.11a6.08,6.08,0,0,0,10.36,0c.17-.25,1.24-2.28.72-1.51l-6.78,2.75.72.23-3.58-2.75c-.68-.93.53,1.14.71,1.39,2.77,3.77,7.61,3.9,10.36,0,.18-.24,1.32-2.3.72-1.46l-9.42,1.22.72.59c2.52,2.08,6,2.45,8.49,0l.72-.71-4.24,1.76a6.79,6.79,0,0,0,2.32-.14c1.14-.2-1.39.06-.16.14l-4.24-1.76.73.82a5.89,5.89,0,0,0,5.83,1.54l.73-.22-4.63-.61a7.27,7.27,0,0,0,6.08.81,12.84,12.84,0,0,0,2.16-1c1.1-.45.45-.28-2,.53-2.31-.85-3-.93-1.94-.24a5.84,5.84,0,0,0,6.06,0c1.35-.87-3,.36-1.57.33l-4.24-1.75.73.59c5.93,4.86,14.46-3.58,8.48-8.48-2.93-2.4-6.1-3.23-9.46-1.05h6.06a6.87,6.87,0,0,0-5.28-1.31,8.34,8.34,0,0,0-2.77.94c-1.33.75.88-.27-.2,0l4.62.6a7,7,0,0,0-6.07-.79l5.84,1.55c-2.16-2.44-4.31-2.57-7.28-2.41-.66.11-.49.07.51-.13a4.23,4.23,0,0,0-2,.17,9.67,9.67,0,0,0-3.37,2.26h8.49l-.72-.6c-3.16-2.6-7.05-2.15-9.43,1.22-.17.24-1.31,2.3-.72,1.45h10.36c-.68-.93-2.25-3.49-5-4.38s-5.31.61-6.77,2.76c-.17.25-1.24,2.27-.72,1.51h10.36l-.72-1.11a6.19,6.19,0,0,0-6.78-2.75l-.72.18,4.62.6-.72-.44c-2.91-1.78-6.41-.48-8.21,2.15-.17.25-1.25,2.28-.72,1.51l6.77-2.75c-.78-.12,3.66,2.23,0-.31A6.3,6.3,0,0,0,101,45.47a8.41,8.41,0,0,0-3.75,1.07,5.66,5.66,0,0,0-1.58,1.34c.62-.4.66-.46.13-.16L104,49.87c.65.89-.54-1.17-.72-1.42-2.06-2.83-6.72-4.45-9.42-1.21-.67.79,1.83-.36,1.36-.32l4.24,1.76a15,15,0,0,0-2.65-2,6.14,6.14,0,0,0-7.27.94l-.72.69,5.84-1.54a11.68,11.68,0,0,0-3.76-.45l5.18,3L95.35,48A6.07,6.07,0,0,0,85,48q-1.14,1.62,1.07-.82c2.45-.48,3.1-.65,2-.53l4.25,1.76-.72-.88c-1.68-2.07-5.12-2.14-7.27-.94-1.73,1,4-1.19.8-.38a9.31,9.31,0,0,0-2.95,1.18l8.21,2.15c-3.81-6.11-10.86-5.16-14.67.31l9.43-1.22a19,19,0,0,0-2.66-2.24c-2.19-1.64-5.43-.7-7.27.93l-.72.64h8.49l-.72-.75a6.07,6.07,0,0,0-9.43,1.22l-.71,1.19,8.21-2.15a6.2,6.2,0,0,0-4.47-1.28l5.19,3-.72-1A6.21,6.21,0,0,0,72.07,46c-1.4.66,2.12-.59,2-.45-.5.43-1.92.24-2.67.56a8.23,8.23,0,0,0-3.59,3.56H78.13c.65.89-.54-1.17-.72-1.42C75.28,45.35,70.8,44,68,47.07c-1.24,1.37,2.47-.93,1.21-.58A7.67,7.67,0,0,0,67,47.57l8.21,2.15c.56.81-.55-1.24-.72-1.48-1.73-2.51-5.37-4.12-8.21-2.16a14,14,0,0,0-3.59,3.68H73.09c-.67-.91-2.34-3.39-5-4.41-2.43-.93-5.54.62-6.77,2.76l-.72,1.24H70.94l-.72-1.22a6.08,6.08,0,0,0-9.42-1.21l-.72.64,4.24-1.75-.72,0,4.25,1.76-.72-.61a6.12,6.12,0,0,0-9.42,1.22c-.18.24-1.3,2.3-.72,1.47H67.35l-.72-1.22c-1.77-3-7-4.34-9.42-1.21-.6.76-3.71,5.15-.72,1.32H65a14.9,14.9,0,0,0-2.64-1.91c-2-1.2.27.4-.73-.33-2.81-2.05-6.44-.23-8.2,2.15-1.31,1.77,2.11-1.64.71-.68l7.27.94-.72-.85a6,6,0,0,0-7.27-.93l-.72.5h6.06a7.09,7.09,0,0,0-6.07-.92l6.78,2.76-.72-1.15A6.21,6.21,0,0,0,52,45.34c-.72.14-3.44,1.45-1.8.63a12.37,12.37,0,0,0-3.72,2.38l4.24-1.76-.72-.1,5.18,3-.71-1c-1.63-2.18-4-3.49-6.78-2.75-2.44.64-3.59,2-5,3.94H53c.6.85-.54-1.21-.71-1.46-2.72-3.88-7.63-3.79-10.36,0-.18.25-1.36,2.32-.72,1.43H51.55c.6.85-.55-1.22-.72-1.46-2.53-3.6-7.93-4.13-10.36,0l-.72,1.22H50.12l-.72-1.11A6.07,6.07,0,0,0,40,47.09l-.72.73h8.48L47,47.15a6.16,6.16,0,0,0-8.49,0c-.5.43-1,.88-1.43,1.35l9.42,1.22-.72-1.19c-2.53-4.17-7.71-3.52-10.36,0-.19.25-1.43,2.32-.72,1.37l5.18-3c-.73-.09,3.23,1.39.87-.06-2.1-1.29-5.59-1-7.27.94l-.72.85,9.43,1.21a9.34,9.34,0,0,0-.72-1.72,6.12,6.12,0,0,0-6.78-2.75,11.75,11.75,0,0,0-4.08,2.32h8.48L38.41,47a6.1,6.1,0,0,0-7.27-.94c-.53.32.85-.31-.72.3l5.83,1.54L35.54,47c-1.65-2-5.16-2.19-7.27-.93-.7.41-1.8.84-2.11,1.59-.66.76-.07.5,1.75-.78q3.82.38,2.12-.17l3.58,2.76c-1-1.37-2.88-4.58-6.61-4.35-7.67.47-7.73,12.47,0,12Z" style="fill:#1c1b1f"/><path d="M131.88,83.8A11.32,11.32,0,0,0,129.31,81c-4.35-3.47,1.79,3.4.44.79-1.6-3.11-5.12-3.72-8.21-3.09l4.62.6c-2.89-1.76-5.77-1.61-8.88-.22l4.63-.61c-3.9-1.48-9.48.14-11.39,4.07l3.59-2.76c.54-.07.52-.1-.08-.08a6.1,6.1,0,0,0-5.78,4.41c-.08.28-.16.57-.22.85l4.19-4.19-.74.31c-2.35,1-4.57,2.94-4.4,5.79,0,.32,0,.65.06,1l1.76-4.24A7.41,7.41,0,0,0,107.13,86l3.58-2.76a7,7,0,0,0-4,2.4,8.57,8.57,0,0,0-1.18,2.41c.37-1,.47-.34.07-.25.85-.19,1.25-1.84-.51.18a8.35,8.35,0,0,0-1.86,5.07l3-5.19a10,10,0,0,0-3.14,3.23c-.54.86-.46,2.57-.48,1,0,.25-.48.72-.61.9l3.59-2.76a7.89,7.89,0,0,0-3.5,1.81,6,6,0,0,0-1.55,2.64c-.33,1.12,0,.56,1.07-1.66-.09-.14-2.1,2.63-1.7,2a4.15,4.15,0,0,0-.67,1.84c.42-.82.48-1,.17-.4L103,93.7a6.37,6.37,0,0,0-3.64,1.71,6,6,0,0,0-1.54,2.65c-.19.48-.19.46,0,0,1.76-.11,2.37-3.91.31-.82a12.58,12.58,0,0,0-1.78,3.38l4.19-4.19-.8.31a6.22,6.22,0,0,0-4.19,7.38l.19,1,1.54-5.84c-.47.6.18,0,.44-.16a6.65,6.65,0,0,0-2,1.76,5.1,5.1,0,0,0-1.13,2.22c.09-1.21,2.32-1.87,3.08-3-.77,1.12-3,1.4-4,2.9a11.64,11.64,0,0,0-1.12,2.87l4.19-4.19c-4.72,1.43-8,7.85-3.71,11.77l-1.76-4.24c.1,1.18.43-1.36.14-.22a13.5,13.5,0,0,0-.26,2.29l1.76-4.25-.62.64a6.12,6.12,0,0,0,0,8.48L93,117,92,109.69c-.48,1.07,1-.91,0,.09a6.12,6.12,0,0,0,0,8.48l.72.77v-8.49a6.88,6.88,0,0,0-2.3,4.08,5,5,0,0,0,.15,2.58c.23.44-.18-4.52.51-3,.15.33-1.06,3-1.07,3.73a9.42,9.42,0,0,0,1.14,4.16l.94-7.27-.65.67c-1.7,1.77-2.49,5.11-.93,7.27l.56.78v-6A8.62,8.62,0,0,0,90,121.22c0,4.51.88-1.77,1.46-2.26-2.19,1.86-2.1,5-1.42,7.51l.6-4.62c-1.74,2.89-1.26,5.52.14,8.42a5.81,5.81,0,0,0,5.18,3c.69-.06,1.37-.15,2.06-.26-2.41-.11-3-.07-1.89.11a6.67,6.67,0,0,0,4.62-.61,7,7,0,0,0,2-1.38c-.25.25-.81-.11.12-.12-4.17,0-1.95.72-.35.38,2.85-.61,1.45-.45.16-.33,2.93-.27,4.37-1.37,6.06-3.68L102,130.11l1,.39c2,.85,4.29-.29,5.83-1.54a9.06,9.06,0,0,0,1.14-1.09l-4.25,1.75c2.79-.32,4.95-.59,6.85-2.89l-5.84,1.54a6.52,6.52,0,0,0,4.78,0,5.94,5.94,0,0,0,2.07-1.35c.19-.22-2.51,1-1.57,1,2.23.1,4.4-2.21,5.35-3.94l-5.18,3c3.59.14,6-1.89,7-5.33l-4.19,4.19c2.21-.31,3.43-1.66,4.6-3.44.64-1-.45,1-.12,0a4.78,4.78,0,0,0,1.1-1.54q-2.73,2.22-1.44,1.56c0,.53,4.74-5.88,2.5-3a10.91,10.91,0,0,0,1.3-1.83,9.71,9.71,0,0,0,.58-3.16l-1.76,4.24c.76-.83-1.11.57,0,.07,2-.86,2.83-3.23,3-5.18l.06-.86-4.4,5.79.93-.22a6.08,6.08,0,0,0,4.4-5.78c0-1.05-.4,1-.65,1.37-.55.78-2.68,2.16-2.18,2a6.12,6.12,0,0,0,4.4-5.78l0-.92L122.76,115a13.89,13.89,0,0,0,3.47-1.83c.75-.53,2.63-3.91-.54.08,1.78-2.23,3.2-3,3.31-6.28l-3,5.18.76-.34c1.89-.82,2.94-3.25,3-5.18l0-.89-4.41,5.79,1-.16c2.46-.39,4.53-3.38,4.41-5.79l0-.93-4.41,5.78a9.3,9.3,0,0,0,5.21-4.31c1.07-1.7.15,0,.35-.6a16.15,16.15,0,0,0,.91-3.87l-3,5.18c1-.75-1.31.4,0-.13a6.61,6.61,0,0,0,3.58-2.76,7.81,7.81,0,0,0,1.08-4.65l-1.75,4.24a6.76,6.76,0,0,1,1.66-1.52c1.6-1.26,2.1-4,1.54-5.84-.51-1.68.57,3.66.35.28-.3-4.64-.77,2.59.1-.75a7.06,7.06,0,0,0,.05-4.63,6,6,0,0,0-1.55-2.64c-.72-.81-.46-.35.78,1.35l-.6,4.63c.33-.78.66-1.57,1-2.35.82-2-.24-4.35-1.54-5.84a8.73,8.73,0,0,0-2.46-1.94L134.84,91c.06-.33.11-.65.15-1,.5-3.29-.78-6.33-4.19-7.38-.54-.18-.56-.18-.08,0l3,5.19c0-.35,0-.69,0-1a6.1,6.1,0,0,0-6-6c-.32,0-.64,0-1,0-7.69.32-7.73,12.32,0,12,.32,0,.64,0,1,0l-6-6c0,.34,0,.68,0,1a6,6,0,0,0,3,5.18,16.79,16.79,0,0,0,3,1.21l-4.19-7.38c0,.33-.1.65-.16,1-.45,2.58.28,5.43,2.76,6.77.49.25.5.27,0,.06l-1.55-5.83c.54-1.33-.34.64-.38.91a8,8,0,0,0,.09,3.53,9.06,9.06,0,0,0,1.16,2.38c1,1.72.23.6-.23-.71l.6-4.62a11.65,11.65,0,0,0-1.35,9L126,93.47c1.29-1-.4.19-1,.74a9.55,9.55,0,0,0-1.66,2,6.54,6.54,0,0,0-.82,3c0,1.82,1.18-2.8.56-1.4l3.59-2.76c-3,1-5,2.51-5.77,5.72-.55,2.2.4.28.14.07.42-1.16.49-1.49.2-1a2.86,2.86,0,0,0-.4.87c.58.66-2.07,2,.14.06.53-.49,2.7-2.21,2.16-2-2.38,1-4.54,3-4.4,5.79l.05.93,4.4-5.78-1,.16c-2.59.41-4.36,3.36-4.4,5.78l0,.89,3-5.18-.76.34c-1.92.83-2.91,3.24-3,5.18l0,.88,3-5.18a10.37,10.37,0,0,0-3.13,3.23l3.58-2.76-.82.29c-2.43.87-4.51,3-4.4,5.79l0,.92,4.41-5.79a8.24,8.24,0,0,0-6,8.21l4.41-5.79-.93.22c-2.7.61-4.23,3.21-4.41,5.78l-.06.86,3-5.18c-2.89,1.26-4.07,3.87-4.29,6.9l1.76-4.25a8.31,8.31,0,0,0-2.71,4.49l2.76-3.58a6.53,6.53,0,0,0-1.95,1.29c-.21.19-1.46,2.12-.83,1.24s-1.22,1.77-1.5,2.4l3.58-2.76-.76.11c-2,.28-3.69,2.38-4.19,4.19-.08.31-.16.61-.26.91l4.19-4.19c1.18-.13,1.4-.2.67-.2a5.94,5.94,0,0,0-5.19,3l-.42.78,3.58-2.76a14.52,14.52,0,0,0-5.2,2.59l5.84-1.54-.87-.29a5.82,5.82,0,0,0-5.83,1.54,10.82,10.82,0,0,1-1,1.1l4.24-1.75c-3-.19-4.76,1.11-6.94,2.88l5.84-1.54-1-.39c-2.61-1.08-5.33.78-6.78,2.75l-.5.69,5.18-3a14,14,0,0,0-2.89.41c-5.41,1.58,2.7-.52-.81.29a9.48,9.48,0,0,0-3.17,1.3,10.11,10.11,0,0,0-1.52,1.15c-.91.91,1.09-.52,0,0l4.62-.61a13.49,13.49,0,0,0-1.61-.35c-.37,0-3.43.25-1.75.08l5.18,3,0-.23-.6,4.62a7.09,7.09,0,0,0,1.23-3.73c0-3.4-.21-.88-.26-1.49l-1.76,4.24c1.89-2.37,3.24-4.93,2-8l-.61,4.62.34-.7c.89-1.82,1.29-4.26,0-6l-.56-.79L100,124l.64-.67c2-2.09,2.08-4.77.94-7.27-.32-.75-.27-.5.17.76a3.45,3.45,0,0,1-.24,3.46c-.13-.28.83-2,.92-2.57a10.27,10.27,0,0,0-.26-3.86l-1.55,5.83.66-.63a6.12,6.12,0,0,0,0-8.49l-.72-.76v8.48a9.35,9.35,0,0,0,1.83-2.51c1.14-2.55,1-5.16-.94-7.28l-.7-.75v8.48a10.48,10.48,0,0,0,2.15-3.28c.59-1.32.29-2.51.15-1.2.27-2.52.35-4.93-1.74-6.86l1.55,5.84-.11.07-3.58,2.76a7.17,7.17,0,0,0,3.84-2.38,6.23,6.23,0,0,0,1.13-2.22c.2-.75-.64,1.36-.13.18l-3.59,2.76a8.21,8.21,0,0,0,5.78-5.74l-2.76,3.59c3.33-2.14,4.38-4.89,3.67-8.82l-4.19,7.38c2.77-1.07,4.3-2.33,5.22-5.23l-2.75,3.59a11.27,11.27,0,0,0,4-5.39l-4.19,4.19c2.07-.35,5.74-2.55,5.58-5.19,0-.22-2,2.75-.55,1.14a8,8,0,0,0,1.88-3.52l-4.19,4.19c2.58-.79,5.18-2.85,5.85-5.65.18-.78-3.07,3.55-.88,1.36a7.91,7.91,0,0,0,2.47-5.54l-3,5.18a10.66,10.66,0,0,0,4.85-6.53L113,95.07a10.09,10.09,0,0,0,2.32-.85c.51-.31,2.64-3,2-2.18a19.47,19.47,0,0,0,1.25-1.87,7.19,7.19,0,0,0,.45-3.28l-4.41,5.78c2.82-1.18,4.33-2.35,5.15-5.35L114,91.72A8.23,8.23,0,0,0,120,89.83c1.13-1,2.35-2.34-.68-.53-4,2.42-.4.78-.47.77a12,12,0,0,0,3.11,0c2-.69,1.91-.81-.17-.35q-3.19.27,0,.46l-1.63-.49a5.83,5.83,0,0,0,3,.82,12.84,12.84,0,0,0,2.45-.37l-5.84-1.54c-.64-.54,1,1.27,1.52,1.7a6.84,6.84,0,0,0,3.43,1.7l-3.59-2.76.42.63C125.77,96.26,136.17,90.26,131.88,83.8Z" style="fill:#1c1b1f"/><path d="M129,99.57c.15-.2.13-.5.26-.71a61107412116696.65,61107412116696.65,0,0,1,.6-1.3c.09-.22.22-.42.29-.65s0-.48.1-.71.12-.46.15-.7.34-.44.36-.68a6,6,0,0,0-.06-.73c0-.25,0-.49,0-.73s-.06-.48-.1-.71-.06-.49-.11-.72-.31-.41-.38-.64.14-.57.05-.79-.39-.35-.5-.57-.05-.52-.18-.73a5.28,5.28,0,0,0-.83-1.21c-.16-.18-.5-.2-.67-.38s-.33-.34-.51-.5-.44-.21-.63-.36-.23-.28-.52-.49-.33-.16-.61-.37-.29-.43-.5-.56-.36-.36-.57-.47-.55,0-.77-.08-.39-.33-.61-.41-.45-.23-.68-.29-.51.06-.75,0-.49.05-.72,0-.47-.25-.71-.25-.47.26-.71.28-.5-.18-.74-.15-.44.26-.67.31-.47.07-.7.14-.42.22-.65.3-.57-.11-.79,0-.31.44-.52.56-.43.21-.63.35a5.75,5.75,0,0,0-.65.34c-.18.15-.27.42-.44.59s-.53.16-.69.34-.25.44-.39.63-.06.38-.26.66-.38.14-.58.41,0,.4-.25.67-.33.17-.53.45-.29.21-.49.49-.06.38-.27.65-.17.3-.37.58-.32.18-.26.52.23.09.52.3.06.51.35.73.33.14.62.36.34.12.63.33.37.11.65.32.14.41.42.63l.58.42c.28.21.36.1.64.31s.37.1.66.31.1.45.38.66l.57.43c.28.21.5-.09.79.13s.17.36.46.57.39.07.68.28.23.29.51.5.31.18.6.39.3.2.58.41.32.17.61.38.14.41.43.62.42,0,.71.25l.56.43c.29.22.14.42.42.64s.37.1.66.31l.58.42c.29.21.26.25.54.47s.27.24.56.45.32.17.61.39.19.35.55.3.31-.06.51-.33.18-.29.38-.57.12-.33.32-.61.35-.16.56-.43.11-.34.31-.62.31-.2.51-.47a2.61,2.61,0,0,1,.41-.52C128.84,99.92,128.77,99.84,129,99.57Z" style="fill:#1c1b1f"/></svg>