<svg id="레이어_1" data-name="레이어 1" xmlns="http://www.w3.org/2000/svg" viewBox="0 0 150 150"><path d="M126,119a23.18,23.18,0,0,1-4-4c1.67,2.25-.3-.74-.73-1.34a26.93,26.93,0,0,0-2.66-3.19,10.9,10.9,0,0,0-4-2.48,16.75,16.75,0,0,0-1.67-.62c-2.56-.66,2.49,2.33,1.58,1-1.26-1.81-4-3.12-5.76-4.29l3.3,4.3c-.67-2.2-1.15-4.71-2.84-6.4s-4.18-2.17-6.37-2.87l4.3,3.31c-2.56-3.9-4.85-6.75-9.16-8.66l3.31,4.31c-1.27-3.21-2.38-6.61-4.65-9.25-3-3.51-6.29-4-10.64-4.56l6.94,5.28c-.93-3-1.64-5.92-4.6-7.66a19,19,0,0,0-2.29-1c.48-.38,2.58,3.78,1.69,1.55A11.28,11.28,0,0,0,84,78.06a7.9,7.9,0,0,0-1.55-1c-2.24-.52,1.71,2.63,1.29,1.43a10.93,10.93,0,0,0-3.12-4c-1.41-1.09-3.17-1.45-4.74-2.26-1.17-.6,1.68,1.06.15-.15-.51-.4-1.1-.72-1.64-1.08L78,77.25c0-4.35.13-7.53-3.69-10.51a21.17,21.17,0,0,0-7.36-3.3l4.3,3.31c-2.27-4-4.74-5.63-9-7l5.29,7-.06-4.17c0-4.25-3.28-6.7-7.2-7.2l-3.75-.47,5.1,2.11a24.16,24.16,0,0,1-1.74-2c1.36,2,.1-.5-.33-1.3A16.93,16.93,0,0,0,55.09,48a28.79,28.79,0,0,0-9.92-5l4.3,3.31c-2.06-4.35-3.81-7.4-8.37-9.46l3.57,6.22c-.45-3.87-.71-7-3.6-9.94S35,30,31.14,29.5l5.09,2.11c-.41-.39-2.59-2.33-1.59-1.35s-.89-1.18-1.26-1.68C31,25.44,27.17,23.92,23.52,26c-3.09,1.76-4.89,6.73-2.58,9.85a34.77,34.77,0,0,0,4.89,5.73c2.67,2.32,5.77,2.37,9.1,2.76l-5.09-2.11,2.09,2.14-2.1-5.09c.27,2.36.21,5.34,1.42,7.41a7.58,7.58,0,0,0,4,3.24c1,.35,1.82,1.41.09-.56-2.1-2.38-.71-.67-.46,0A21.44,21.44,0,0,0,37.6,54.3a8.51,8.51,0,0,0,4.28,2.75c.82.29,3.72,1.61,1.23.28,1.23.66,3.32,2.66,4.59,3-.76-.19-2.39-3.4-1.78-1.46a9.21,9.21,0,0,0,.85,1.44c.39.68.7,1.41,1.08,2.1a16.76,16.76,0,0,0,4.28,5.29c2.27,1.7,5.37,1.68,8.11,2L53,62.5l.06,4.17a7.4,7.4,0,0,0,5.28,6.94l3.18,1-4.3-3.31c1.58,2.75,2.88,4.93,6.08,6.06.9.32,1.87.48,2.76.83-2.41-1,.18.45,1.05,1L63.58,73c0,4.21-.11,7.56,3.57,10.43a30.13,30.13,0,0,0,7.23,3.65l-4.31-3.31a23.06,23.06,0,0,0,2.76,4c.65.65,5.24,4.13,2.73,1.48s1,2.13,1.57,2.65a14.48,14.48,0,0,0,4.35,2.45l-3.31-4.3,1,3.22c1,3.38,3.66,4.86,6.94,5.29l3.72.49L84.74,97c.73.78,2.16,3.19,1.06,1a6.85,6.85,0,0,1,.75,1.54c.37,1.89-.44-1.19,0,0,1.27,3,2.46,6.65,6.12,7.47,1.14.25.5.21-.22-.44a10.49,10.49,0,0,1,1.33,1.49c.84,1.16-1.46-2.14-.09,0,.31.46.6.93.92,1.38,2,2.83,4.55,3.6,7.67,4.59l-5-5c1.06,3.46,2,6,5.2,8.11.38.25,2.69,1.93.43.15.53.41,1,.88,1.51,1.3a14.34,14.34,0,0,0,4.78,2.7c.71.23,3.44,1.3.35-.13-3.24-1.5-.31-.38-.25.47.61.71.65.74.12.07s-.5-.64,0,.16c.37.54.69,1.11,1.07,1.65a29.33,29.33,0,0,0,5.32,5.69C123,135,133.19,124.87,126,119Z" style="fill:#fff"/><path d="M33.23,130.18a22.22,22.22,0,0,1,4-4c-2.25,1.68.73-.29,1.34-.73a26,26,0,0,0,3.18-2.65,10.72,10.72,0,0,0,2.48-4,12.92,12.92,0,0,0,.62-1.67c.66-2.56-2.32,2.49-1,1.57,1.81-1.25,3.12-3.94,4.29-5.76l-4.31,3.31c2.21-.68,4.72-1.15,6.41-2.84s2.17-4.19,2.87-6.37l-3.31,4.3c3.89-2.56,6.74-4.85,8.65-9.16l-4.3,3.31c3.2-1.28,6.6-2.38,9.25-4.65,3.51-3,4-6.29,4.56-10.64l-5.29,6.94c3-.94,5.92-1.64,7.67-4.6a20.69,20.69,0,0,0,1-2.29c.38.48-3.78,2.58-1.56,1.68a11.2,11.2,0,0,0,4.31-3.81,7.68,7.68,0,0,0,1-1.56c.52-2.23-2.63,1.72-1.43,1.29a11.09,11.09,0,0,0,4-3.11c1.09-1.41,1.44-3.17,2.25-4.74.61-1.17-1,1.68.15.15.41-.51.73-1.1,1.09-1.65l-6.22,3.57c4.35,0,7.54.12,10.52-3.7a21.28,21.28,0,0,0,3.3-7.36l-3.31,4.31c4-2.27,5.63-4.74,7-9l-6.94,5.28,4.16,0c4.26,0,6.71-3.28,7.2-7.2l.48-3.75-2.11,5.09a25.56,25.56,0,0,1,2-1.73c-2,1.36.51.1,1.31-.33a17.26,17.26,0,0,0,5.62-4.43,28.94,28.94,0,0,0,5-9.92l-3.31,4.3c4.35-2.06,7.41-3.82,9.46-8.37l-6.21,3.57c3.87-.46,7-.72,9.94-3.6s3.17-6.05,3.61-9.93l-2.1,5.09c.38-.41,2.33-2.59,1.34-1.6s1.19-.89,1.69-1.26c3.14-2.33,4.65-6.2,2.58-9.85-1.76-3.1-6.74-4.89-9.85-2.58A33.84,33.84,0,0,0,110.61,30c-2.32,2.67-2.38,5.78-2.76,9.11L110,34l-2.14,2.09L112.91,34c-2.36.28-5.35.22-7.42,1.43a7.63,7.63,0,0,0-3.24,4c-.34,1-1.4,1.82.57.09,2.38-2.11.67-.71,0-.46a20.52,20.52,0,0,0-4.94,2.68A8.46,8.46,0,0,0,95.14,46c-.3.83-1.61,3.72-.28,1.24-.66,1.23-2.67,3.32-3,4.58.19-.76,3.39-2.38,1.46-1.77a9.21,9.21,0,0,0-1.44.85c-.69.38-1.41.69-2.1,1.08a16.91,16.91,0,0,0-5.3,4.28c-1.69,2.27-1.67,5.37-2,8.11l7.2-7.2-4.16,0a7.41,7.41,0,0,0-6.94,5.29l-1,3.18,3.31-4.3c-2.76,1.58-4.93,2.88-6.06,6.08-.32.9-.48,1.87-.83,2.76,1-2.41-.45.18-1,1.05l6.21-3.57c-4.21,0-7.55-.11-10.42,3.57C67,73.45,66.12,76,65.06,78.51l3.31-4.3a22.72,22.72,0,0,0-4,2.76c-.64.64-4.12,5.23-1.48,2.73s-2.12,1-2.64,1.57a14.48,14.48,0,0,0-2.45,4.35l4.3-3.31-3.23,1c-3.38,1-4.85,3.66-5.28,7L53.06,94l2.1-5.09c-.77.72-3.18,2.16-1,1.05a7.35,7.35,0,0,1-1.54.76c-1.88.37,1.19-.45,0,0-3,1.28-6.65,2.46-7.47,6.13-.25,1.14-.21.49.44-.22A11.79,11.79,0,0,1,44.12,98c-1.17.84,2.14-1.47.05-.09-.46.31-.93.59-1.38.91-2.83,2-3.6,4.55-4.6,7.68l5-5c-3.46,1.06-6,2-8.11,5.2-.25.38-1.93,2.68-.15.43-.41.52-.88,1-1.3,1.51a14.24,14.24,0,0,0-2.7,4.78c-.24.7-1.3,3.44.13.35,1.5-3.25.38-.31-.47-.25-.72.61-.74.65-.07.11s.63-.5-.16,0c-.54.38-1.12.7-1.65,1.08A29.33,29.33,0,0,0,23.05,120c-5.86,7.09,4.27,17.33,10.18,10.18Z" style="fill:#fff"/></svg>