<svg id="레이어_1" data-name="레이어 1" xmlns="http://www.w3.org/2000/svg" viewBox="0 0 150 150"><path d="M129.07,84.71s0-.09-.07-.13a6.05,6.05,0,0,0,.23-1.89c1.78-3.39.52-7.55-3.86-10.37-4.57-2.94-8.89,1.28-8.83,5.51a5.51,5.51,0,0,0-1,4.71,5.34,5.34,0,0,0,.49,4.22l-.1,0a5,5,0,0,0-2.82,5.45l-.47.85a6.29,6.29,0,0,0-.75,2.53,6.55,6.55,0,0,0-.62,1.17,6.13,6.13,0,0,0-.65.7,5.52,5.52,0,0,0-2.37,3.32,6.7,6.7,0,0,0-1.2,1.24,6.53,6.53,0,0,0-2.28,4,5.81,5.81,0,0,0-3.32,2.61,1.19,1.19,0,0,0-.09.15,5.76,5.76,0,0,0-4.78,3.34,6.69,6.69,0,0,0-5.2,2.91l0,0a5.84,5.84,0,0,0-.76.45,8.65,8.65,0,0,0-2.06-.13c-.25,0-.48.06-.72.09A5.69,5.69,0,0,0,83,116.72a8.59,8.59,0,0,0-1.77.55,7.49,7.49,0,0,0-.93.52,5.74,5.74,0,0,0-5.23-1,1.72,1.72,0,0,0-.27.13,6.73,6.73,0,0,0-2,.28,5.61,5.61,0,0,0-1.89-.11c-.22-.07-.44-.14-.66-.19a6.35,6.35,0,0,0-4.64-.52,5.88,5.88,0,0,0-1.49-.57,6,6,0,0,0-5.85-1,6.29,6.29,0,0,0-2.35-1.15,6.08,6.08,0,0,0-3.69-2.77c-.11-.08-.22-.18-.35-.26a7.68,7.68,0,0,0-2.54-1,5.56,5.56,0,0,0-2.25-1,5.86,5.86,0,0,0-1.66-2,6,6,0,0,0-3.45-2.84,6.25,6.25,0,0,0-1.84-2.39,3.74,3.74,0,0,0-.33-.58s0-.06,0-.1c.38-2.93-2-5.09-4.66-5.73,0-.12,0-.24-.07-.36a6.36,6.36,0,0,0-2.1-5.69,6.35,6.35,0,0,0-.86-5.62A7.59,7.59,0,0,0,31.85,80a6.27,6.27,0,0,0-.62-2.74,6.43,6.43,0,0,0,0-3.4,11.77,11.77,0,0,0,.23-1.46,4.39,4.39,0,0,0-.27-2,6,6,0,0,0,0-2.88,6,6,0,0,0,1.19-3.65c0-.1,0-.18,0-.25a2.63,2.63,0,0,0,.11-.29A5.22,5.22,0,0,0,32.65,61a4.68,4.68,0,0,0,.28-4l-.06-.15c.08-.31.15-.62.21-.91a10.27,10.27,0,0,0,.42-1.4c0-.21.09-.39.12-.55a6.07,6.07,0,0,0,3.24-3.64,6,6,0,0,0,2-1.88,6.11,6.11,0,0,0,2.38-3.55,5.2,5.2,0,0,0,3.68-5,6.85,6.85,0,0,0,4.79-1.73,2.84,2.84,0,0,0,.41-.4l0,0c.23-.18.45-.36.66-.55a5.93,5.93,0,0,0,2.71-1.9,6.4,6.4,0,0,0,4.68-3.58,6.21,6.21,0,0,0,6.46-1.24,5.6,5.6,0,0,0,2.61-1,5.93,5.93,0,0,0,3.25.67A6.07,6.07,0,0,0,76,29.44a6.41,6.41,0,0,0,3,.64,5.45,5.45,0,0,0,2.94.81h1.09a6.59,6.59,0,0,0,1.47-.2,6.5,6.5,0,0,0,3.38,1.59,10.53,10.53,0,0,0,3,1.45,7.76,7.76,0,0,0,4.31.2,5.56,5.56,0,0,0,1.08.2,4.29,4.29,0,0,0,1.47,2.4l.86.66a8.4,8.4,0,0,0,.89.62,4.47,4.47,0,0,0-.52,0,6.38,6.38,0,0,0-3-.31,5.77,5.77,0,0,0-6.67,1.08c-2.09,2-2.56,6.5,0,8.48s4.67,3,7.18,2.66a4.09,4.09,0,0,0,1.65.26l.94.06a7.3,7.3,0,0,0,4.59.86,5.32,5.32,0,0,0,1.84.61,7.68,7.68,0,0,0,2.14,0,5.43,5.43,0,0,0,2.82.79c.74.41,3.15.41,5.2.32a6.23,6.23,0,0,0,2.36.54c3.89,1.94,8-1.7,8.32-5.6a9.27,9.27,0,0,0-.61-4.29,6.39,6.39,0,0,0-.25-1.79,6.65,6.65,0,0,0-.17-1.94,8.06,8.06,0,0,0-.56-4.16c0-.21,0-.43,0-.65v-.1a5.76,5.76,0,0,0-1.06-4.83c0-.14,0-.29,0-.47a6,6,0,0,0-.22-1,5.94,5.94,0,0,0-.64-4.47,14.29,14.29,0,0,0-.35-2.12c-.07-1,.33,1.4.13-.35a20.09,20.09,0,0,0-.5-2.68c-2-7.46-13.56-4.29-11.57,3.19,0,0,.17,3,.15,2.83a10.92,10.92,0,0,0,.68,2.81,2.48,2.48,0,0,0,0,.27,5.57,5.57,0,0,0-2.95-.75c-.2-.12-.4-.22-.61-.32a5.88,5.88,0,0,0-4.3-3,6.5,6.5,0,0,0-1.62-1.48A6.3,6.3,0,0,0,94.41,20,5.34,5.34,0,0,0,92,18.56,7.57,7.57,0,0,0,90,17.16a6.45,6.45,0,0,0-3.26-.75A6,6,0,0,0,83.4,16a6.3,6.3,0,0,0-7.12.42,7,7,0,0,0-1.94.1,6.73,6.73,0,0,0-2.4.12,5.86,5.86,0,0,0-1.62,0,5.67,5.67,0,0,0-4.72-.2,6.7,6.7,0,0,0-2.32-.07,6,6,0,0,0-6,2,7.87,7.87,0,0,0-1.26.55l-.46-.05a6.92,6.92,0,0,0-5.74,1.87l-.44.44a11.54,11.54,0,0,0-1.92.22A5.8,5.8,0,0,0,44,23.93a5.82,5.82,0,0,0-2.87,2.4A6,6,0,0,0,38.25,28,6.16,6.16,0,0,0,34,32.39a7.31,7.31,0,0,0-2.24,1.06,6.07,6.07,0,0,0-2.84,5,5.88,5.88,0,0,0-.67,3.19,6,6,0,0,0-.38.47c-3.51-.2-5.42,3.07-5.41,6.19A6.9,6.9,0,0,0,22,49.48a6.14,6.14,0,0,0-.39,2.58c0,.1-.05.18-.08.29s-.1.41-.14.58a15.9,15.9,0,0,0-.7,2.61l-.37.33A6.54,6.54,0,0,0,19,62.61a15.46,15.46,0,0,0-1.59,3.68,5,5,0,0,0-.2,1.15A6,6,0,0,0,17,75.11a6.38,6.38,0,0,0,1.51,7.41,7.34,7.34,0,0,0-.6,1.82,6.85,6.85,0,0,0,.45,4.2,6,6,0,0,0,1.41,5.23,7.23,7.23,0,0,0,.77,1.32c0,.08.06.15.08.22A6.31,6.31,0,0,0,22.46,100a6.28,6.28,0,0,0,1.54,3,8,8,0,0,0,2.53,3,7.31,7.31,0,0,0,1.29.77,6.44,6.44,0,0,0,.05.87,7.41,7.41,0,0,0,3.47,5.5,5.49,5.49,0,0,0,3.61,2,6.06,6.06,0,0,0,4.25,4.28,5.74,5.74,0,0,0,3.68,1.83,6.18,6.18,0,0,0,2.66,3,6,6,0,0,0,5.71,2,4.68,4.68,0,0,0,1.67.8c.54.46,1.21.85,1.76,1.26a4.76,4.76,0,0,0,4.62.53,8.22,8.22,0,0,0,.83.11h.62c2.1,2.36,5.76,3,8.23,1.2a6,6,0,0,0,7.83,1c.21.09.41.17.65.25a5.11,5.11,0,0,0,3.5-.14,5.14,5.14,0,0,0,3.65-.37,6.05,6.05,0,0,0,6-2.43l.29-.2a6.21,6.21,0,0,0,2.13.12,7.08,7.08,0,0,0,1.55-.42A5.89,5.89,0,0,0,99.91,126a5.46,5.46,0,0,0,4.44-3.42,6.05,6.05,0,0,0,.72-.53,6.12,6.12,0,0,0,3.69-2,6.74,6.74,0,0,0,1.73-1.19,5.93,5.93,0,0,0,3.52-2.43,6.14,6.14,0,0,0,3.69-4,6.71,6.71,0,0,0,1.49-2,5.43,5.43,0,0,0,2.54-5.31,5.9,5.9,0,0,0,.92-1.26,7.24,7.24,0,0,0,1.35-1.27A7.08,7.08,0,0,0,125.64,99,6.13,6.13,0,0,0,127,94.89a6.42,6.42,0,0,0,1.58-3.54A6,6,0,0,0,129.07,84.71Zm-6.79,12.36.4,0v0Zm-2.55-21.19-.23.09a1.83,1.83,0,0,1,.26-.11ZM32.05,58.61c.15.09.36-.32.55-.9C32.63,58.38,32.55,58.93,32.05,58.61Zm78.25-6.83a.34.34,0,0,0,0,.19A.24.24,0,0,1,110.3,51.78Zm.5.46.66,0C112.92,52.08,111.62,52.35,110.8,52.24Z" style="fill:#fff"/></svg>