<svg id="레이어_1" data-name="레이어 1" xmlns="http://www.w3.org/2000/svg" viewBox="0 0 150 150"><path d="M11.07,59.23c.06-.49,1.33-.41,1.82-.51s.56.3,1,.2.36-.71.84-.81.38-.64.86-.74.51,0,1-.06.54.2,1,.1.68.9,1.16.8.58.39,1.06.29.17-1.7.65-1.79.64.69,1.13.59.66.82,1.15.72.56.32,1.05.22.23-1.38.71-1.48.49-.08,1-.18.38-.6.87-.69.42-.42.9-.52l1-.2c.48-.09.45-.24.94-.33s.71,1,1.19.95.65.75,1.14.65.06-2.23.54-2.33.6.49,1.08.39.54.19,1,.1.51,0,1-.05.41-.47.89-.57.82,1.6,1.31,1.5.36-.69.84-.79.17-1.7.65-1.8.61.55,1.1.46.42-.4.9-.5.43-.38.91-.48.89,1.93,1.37,1.83.39-.55.88-.64.47-.18,1-.28.54.17,1,.08.52.1,1,0,.43-.35.92-.45.3-1,.78-1.12.38-.63.87-.73.67.86,1.16.76.32-.89.81-1,.4-.49.89-.59.62.61,1.11.52.5,0,1-.1.75,1.28,1.24,1.18,0-2.37.51-2.47.82,1.56,1.3,1.46.49-.08,1-.18.53.15,1,.05.29-1.05.78-1.15.54.23,1,.13.66.78,1.14.69.35-.77.83-.87.24-1.36.72-1.46.51,0,1-.07.67.8,1.15.71.61.53,1.1.43.4-.51.89-.6.6.47,1.08.37.25-1.26.74-1.36.74,1.2,1.23,1.1.51.07,1,0,.45-.28.93-.37.25-1.28.74-1.38.43-.36.91-.45.39-.58.88-.68.57.35,1,.25.7,1,1.19.9.58.38,1.06.28.36-.76.84-.85.18-1.65.67-1.75.57.36,1.06.26.43-.38.91-.47.77,1.34,1.26,1.24.6.49,1.08.39.09-2.1.57-2.2.88,1.85,1.36,1.76.16-1.74.65-1.83.67.86,1.15.77.36-.74.84-.83.65.73,1.13.64.27-1.18.75-1.28.75,1.26,1.24,1.17.47-.13,1-.23.3-1,.78-1.11.71,1,1.2.94.22-1.4.71-1.49.74,1.19,1.23,1.09.09-2.09.57-2.18.66.75,1.14.65.43-.39.91-.49.5,0,1-.11.47-.15,1-.24.35-.74.84-.84.68.89,1.16.8.39-.56.88-.66.58.38,1.06.28.7,1,1.19.89.36-.76.84-.85.25-1.3.74-1.4.74,1.22,1.23,1.12.24-1.32.73-1.42.42-.4.9-.5.54.16,1,.06.79,1.46,1.28,1.36.56.27,1,.18.06-2.2.55-2.3.61.52,1.09.42.57.29,1,.19.55.21,1,.12.64.66,1.12.56.07-2.23.55-2.32.63.62,1.12.52.55.21,1,.11.4-.53.89-.62.45-.29.93-.39.59.42,1.07.32.4-.56.89-.66.68.88,1.17.78.54.21,1,.11.53.11,1,0,.18-1.61.67-1.71.45-.31.93-.4.79,1.4,1.28,1.31.2-1.55.69-1.65.86,1.8,1.35,1.7.5-.07,1-.17-.07-1.2.26-.82-.52-.3-.69.16.28.63.11,1.09-.49.35-.66.81-.23.44-.4.9-.46.35-.63.81,1.93,1.24,1.76,1.7-1.68-.09-1.85.37.29.63.12,1.09-.67.28-.84.74-.65.28-.82.74.93.87.76,1.33-.3.42-.47.88-.77.24-.94.7,0,.53-.14,1,1.16,1,1,1.41-1,.17-1.14.63-.52.34-.69.8.33.65.16,1.11.69.78.52,1.24-.14.47-.31.94-1.36,0-1.53.48-.73.26-.9.72,1,.88.81,1.35.13.57,0,1-.32.41-.49.87-.55.32-.72.78-.64.29-.81.75-.44.37-.61.83-.73.26-.9.72,1.68,1.14,1.51,1.61-.28.42-.45.88-2.09-.24-2.26.22.74.8.57,1.26,0,.53-.15,1-1.15.1-1.32.56.12.56,0,1,.3.64.13,1.1.24.61.07,1.07.63.75.46,1.21-.29.42-.46.88-1.4,0-1.57.46.83.83.66,1.29-1.53,0-1.7.42,1,.9.84,1.36-1,.17-1.14.63-.79.23-1,.69,1.3,1,1.13,1.47.53.72.36,1.19-1.87-.16-2,.3-.48.35-.65.81,1.46,1.06,1.29,1.52-.47.35-.64.82-.56.31-.73.77.71.79.54,1.25-.33.41-.5.87-1.56-.05-1.73.41.19.6,0,1.06-.38.39-.55.85-.69.28-.86.74,1,.88.8,1.35-1.42,0-1.59.46,1.78,1.18,1.61,1.65-1.22.07-1.39.54-.52.33-.7.79,1.33,1,1.16,1.48,0,.52-.19,1-.68.27-.85.74-.34.4-.51.86-.2.45-.37.92-.42.37-.59.84-1.31,0-1.48.5.41.68.24,1.15-.44.36-.62.83-.6.3-.77.76,2,1.24,1.78,1.71-1.61-.07-1.78.39-.8.23-1,.7.08.56-.09,1,1.28,1,1.11,1.46-1.63-.07-1.8.4,1.08.92.91,1.39.09.56-.08,1-2-.21-2.18.26,1.18,1,1,1.43-1.23.07-1.4.54,0,.52-.21,1,.6.4.13.55-.84,1.31-1.25,1,.67-1.89.26-2.16-.89.44-1.3.17-.3-.43-.71-.71-.54-.07-1-.34-.45-.21-.86-.48-.53-.09-.93-.37-.72.19-1.13-.09,0-.92-.38-1.2-1,.56-1.38.29-.21-.57-.62-.84.68-1.9.27-2.17-.75.23-1.16,0-.63,0-1-.23-1.11.79-1.52.52.09-1-.32-1.29-.51-.12-.93-.39-.21-.56-.62-.84-.26-.49-.67-.76-1.13.8-1.54.53.4-1.48,0-1.75-1,.68-1.46.41.44-1.55,0-1.83-1.34,1.12-1.75.85.52-1.67.11-2-1.2.91-1.61.64-.55-.06-1-.34.5-1.64.09-1.92-.34-.38-.75-.66-1.43,1.25-1.85,1,.22-1.13-.27-1.14,0,.72-.38,1-.38.32-.79.59-1.57-1.47-2-1.19.3,1.35-.11,1.62-1.1-.78-1.51-.5.25,1.27-.16,1.54-.2.6-.61.87-.21.58-.62.85-.71-.18-1.13.09-.31.43-.72.7-.7-.16-1.11.11-.34.39-.75.66-.44.23-.85.5-.65-.08-1.06.19-.43.25-.84.53.08,1-.33,1.28-.56,0-1,.32,0,.85-.43,1.12-.94-.52-1.35-.25.23,1.26-.18,1.53-1.49-1.35-1.9-1.08,0,.92-.4,1.19-.75-.24-1.16,0,.41,1.52,0,1.79-1.39-1.2-1.81-.93.23,1.24-.19,1.51-.84-.37-1.25-.1-.59,0-1,.29.77,2.07.36,2.34-.9-.45-1.32-.18-.55.5-1,.32-.23-.48-.32-1-1.08-.3-1.16-.78,2.19-.89,2.1-1.37-1-.31-1.09-.79.7-.62.61-1.09-.43-.42-.52-.9-.79-.35-.87-.82.1-.52,0-1-1.33-.25-1.42-.73,1.34-.74,1.25-1.22-.74-.36-.83-.84-.81-.34-.9-.82,2.05-.87,2-1.35-1.48-.22-1.57-.7-.78-.35-.87-.83,2-.85,1.87-1.33S52.13,99.48,52,99s.43-.57.34-1,.92-.67.83-1.14-1.89-.16-2-.64,1.76-.81,1.68-1.29-.87-.34-1-.82.75-.63.66-1.11-2.16-.1-2.25-.58.67-.62.59-1.1-.92-.32-1-.8-.08-.48-.16-1,1-.68.89-1.16-.88-.33-1-.81-.05-.49-.14-1,1.78-.82,1.69-1.3-2.14-.11-2.23-.59.49-.58.4-1.07.49-.58.4-1.06-1.38-.24-1.47-.72.77-.64.69-1.13,0-.5,0-1,.36-.73.07-1.12-.57-.23-1-.46-.17-.74-.61-1-1,.91-1.48.68-.09-.89-.52-1.12-.91.65-1.34.42-.21-.66-.65-.89.25-1.53-.19-1.76-1.42,1.63-1.86,1.4-.56,0-1-.21-.1-.86-.54-1.09.24-1.52-.2-1.75-.73.33-1.17.1-1.13,1.08-1.57.84.5-2,.06-2.23-1.32,1.44-1.75,1.2.09-1.23-.35-1.46-.34-.43-.77-.66-.9.65-1.34.42.21-1.47-.23-1.7-.54,0-1-.27-.42-.27-.86-.5-.73.33-1.17.1-.72.3-1.16.07.45-1.91,0-2.14-.6.08-1-.15S26,68.07,25.51,67.84s.31-1.66-.13-1.89-.33-.43-.77-.66-.38-.34-.82-.57-.58,0-1-.19-.81.47-1.24.24-.57,0-1-.23-.59.06-1-.17.13-1.3-.31-1.53-.93.7-1.37.46.06-1.18-.38-1.41-1,.83-1.44.59.09-1.23-.35-1.46-.58,0-1-.19-.5-.12-.94-.35-.17-1.14-.66-1.24C12,59.05,11,59.73,11.07,59.23Z" style="fill:#fff"/><path d="M14.25,62.41c-.79.67-3.14.58-.92.93a4.51,4.51,0,0,0,2.87-.53,16.86,16.86,0,0,0,2.61-2.25l-3.18,1.31c1.15-.07,2.12.56.33-.17a23.56,23.56,0,0,0,2.72,1.14,4.58,4.58,0,0,0,5.08-2.07c.29-.51,1.91-4,.65-1.79l-6.16,1.61a16.45,16.45,0,0,0,4.4,2,4.72,4.72,0,0,0,5.08-2.07c.32-.44.46-1.12.72-1.48L25.76,61.1c2-.38,3.14-1.38,4.65-1.92L26,58a26.24,26.24,0,0,0,3.25,2.31,4.56,4.56,0,0,0,6.15-1.62c.38-.67,1.89-4.7.55-2.32l-5.09,2.06a8.22,8.22,0,0,0,7.46-.58l-5.45-.71c.5.41.79,1.08,1.3,1.51a4.64,4.64,0,0,0,6.37,0,8.54,8.54,0,0,0,1.69-2c.23-.41,1.79-3.83.51-1.56l-5.09,2.07c2.44,1,4.22.17,6.38-1H39.52c-2.11-1.56.63,1.28,1.37,1.83a4.36,4.36,0,0,0,4.54,0c.49-.36,1.71-.06,3.32-.62,1.82-.63,2.67-2.09,4-3.22l-5.46.7,1.17.76A4.51,4.51,0,0,0,53.93,55c.52-.63.17-.46.79-.87H50.18c1,.48,2.46,1.41,3.63,1.1.16,0-2.65-2.33-2-.95a4.69,4.69,0,0,0,1.7,1.45,4.53,4.53,0,0,0,6.15-1.62c.35-.66,1.73-4.78.52-2.47l-7.07.91c2.32,1.87,2.86,2.86,6.16,2.53a6.53,6.53,0,0,0,5-3.26l-3.88,2.23c1.59.2-1.81-.82-.1.2a4.57,4.57,0,0,0,5.45-.7A26.88,26.88,0,0,0,68,50.31l-3.89,2.23c1.56-.12-2-.81-.13,0a11.17,11.17,0,0,0,1.9.78,5.25,5.25,0,0,0,4.63-1L67,52.85l1.09.37a4.53,4.53,0,0,0,5.08-2.06l.74-1.37-6.16,1.62c-2.13-1.32-.15.16.34.48a7.06,7.06,0,0,0,2,1.07,7,7,0,0,0,3.86-.22c1.6-.51,2.25-1.48,3.34-2.6s-1.28,1.12-.15.13c.57-.48,1.2-.92,1.79-1.38l-4.38,1.16c1.11.26,2.09,1.1,3.31,1.43a4.55,4.55,0,0,0,4.38-1.16,10.08,10.08,0,0,0,1.68-2c.25-.45,1.87-3.78.52-1.51l-5.08,2.07a6.7,6.7,0,0,0,5.44-.67H80.24c-2.27-1.58.66.86,1,1.1a11.6,11.6,0,0,0,2.38,1,4.55,4.55,0,0,0,5.08-2.07,7.62,7.62,0,0,0,.76-2c.33-1.18.68-1.58-.19-.15l-6.16,1.61c-2.17-1.54.59,1.2,1.36,1.75,2,1.39,5,.37,6.16-1.61.28-.51,1.87-4,.64-1.83l-6.15,1.61,1.15.77a4.55,4.55,0,0,0,5.45-.7l.84-.83-5.45.7,1.13.64a4.58,4.58,0,0,0,6.16-1.61l.75-1.28L89,46.88c-2.36-1.55.73.9,1.24,1.16a5.11,5.11,0,0,0,3.46.46c2.14-.37,3.24-1.72,4.44-3.41L91.1,46l1.19.94c2.42,1.91,5.25,1.65,7.07-.91.32-.44.45-1.12.71-1.49l-6.15,1.61c-2.43-1.49.69.77,1.22,1.1a4.57,4.57,0,0,0,6.16-1.62,7.5,7.5,0,0,0,.76-2c.34-1.19.68-1.55-.18-.14l-6.16,1.61a6.83,6.83,0,0,0,3.41,1.27c.71,0,4.64-1.31,1.4-.54,2.31-.55,3.68-.68,5.48-2.45l-5.45.7,1.16.79a4.34,4.34,0,0,0,4.54,0l.88-.65-3.47.45c.71.19.53.23,1.18.72,1.56,1.17,4.17.6,5.45-.71a12.61,12.61,0,0,0,2.28-3.15l-6.15,1.61c-2.41-1.51.7.79,1.23,1.12,2.24,1.4,4.72.27,6.15-1.62a2.08,2.08,0,0,0,.53-.92q.76-1.62-1,.87c-1.46.4-4.08-1.3-3.49-.32a5.49,5.49,0,0,0,3.83,2.12,4.7,4.7,0,0,0,5.08-2.07,7.88,7.88,0,0,0,.76-2.06c.28-1.06.69-1.79-.2-.24l-5.09,2.07a16.4,16.4,0,0,0,2.15.61c3.51.82-.46-.54,1.08.23a4.59,4.59,0,0,0,6.16-1.62,8,8,0,0,0,.76-2.06c.26-1,.69-1.85-.21-.26l-6.16,1.61c1.82.86,5.1,2.19,6.92.48.66-.63-2.75.14-.2,0a6,6,0,0,0,3.75-1.19H124a8.3,8.3,0,0,0,5.49,1.51,4.94,4.94,0,0,0,3.88-2.23c2.14-2.75-1.12,0,0-.5H128.8c-2.14-1.55.83,1,1.27,1.31,2,1.47,5,.27,6.16-1.61.3-.47.45-1.27.69-1.65l-7.07.91c2,1.86,3,3.61,6.23,2.77a4.92,4.92,0,0,0,4-5.22l-3.31,4.34.11,0-5.7-4.34v.1l5.7-4.34a5.31,5.31,0,0,0-4.16.52,4.35,4.35,0,0,0-2.23,3.88l.11,1.09,1.32-3.18c-.72.87-1.33,2.06-1.7,2.52a4.7,4.7,0,0,0-.7,5.45,8,8,0,0,0,1.39,1.66c.69.69,1.24,1.55.38,0l2.69-6.61c-.58.22-1.26.14-1.85.37-1.71.65-3.53,2.28-3.31,4.34l.12,1.09,1.32-3.18-1.67,1.48a4.56,4.56,0,0,0-.7,5.45l.76,1.33V42.59c-.47.77-.24.64.68-.39-.47.35-.93.7-1.38,1.06a6.71,6.71,0,0,0-1.23,2.48c-.57,2.33.48,3.47,1.37,5.38L129.67,45c-1.64.9-3.37,2.2-3.9,4.11a6.14,6.14,0,0,0,.08,3c.59,2.35.62-.64.29.34l2.07-2.69c2.75-1.45-.79.11-1.31.37a13.07,13.07,0,0,0-2,1.54c-1.53,1.21-1.65,3.88-.71,5.45,1.52,2.53-.76-2.71.53-1.72a1.08,1.08,0,0,1-.46.49c-.89.51-1.52,1.62-2.13,2.11a4.5,4.5,0,0,0-.7,5.45c.26.38,2.6,3.2,1.51,1.61V60.43l-.45.89,2.69-2.07a14.82,14.82,0,0,0-2.25.22c-2.88,1.18-4,3.73-2.69,6.61l.57,1.26-.46-3.46-.15,1,2.07-2.69-1.32.56c-1.45.62-2.16,2.44-2.23,3.89a14.17,14.17,0,0,0,.77,5.6l.45-3.47c-.93,1.78,4-1.33,1.71-1a6.49,6.49,0,0,0-2.12.76c-2.26,1.13-2.66,4.1-1.61,6.15l.65,1.29,1.61-6.16c2.69-1.19-1.14.18-1.69.43a4.49,4.49,0,0,0-2.07,5.08c.23.58,2,4.19.84,1.36l2.07-5.09a20.19,20.19,0,0,0-2.11,1.33A4.62,4.62,0,0,0,115.58,79c.65,1.25.85,1,1,1.58l3.14-5.53c-2,.65-3.17.4-4.67,2.27a4.68,4.68,0,0,0-.7,5.45c.27.46,2.44,3.46,1.29,1.52l.7-5.45c-.44.56-.89,1.08-1.37,1.59a4.73,4.73,0,0,0-.71,5.46l.54,1.24V82.62c-1,1.71,3.83-1.22,1.55-1.08a6.77,6.77,0,0,0-2.16.75A4.41,4.41,0,0,0,112,86.17c0,1.53,1.17-1.6-.07-.53a4.52,4.52,0,0,0-.7,5.45l.8,1.35,1.61-6.16c2.72-1.35-1,.18-1.59.47-2.25,1.11-2.69,4.12-1.62,6.15a7,7,0,0,0,1.37,1.65c.8.84,1,1.38.25,0l2.68-6.61a9.33,9.33,0,0,0-4.07,2.49,4.66,4.66,0,0,0-.7,5.45c.28.53.91,1,1.15,1.48l-.45-3.46c-.28,1.47,1-1.32.33-.45-.38.51-.83,1-1.17,1.53-.55.89-.86,1.68-1.22,2.18l2.69-2.06-1.48.5a4.63,4.63,0,0,0-3.14,5.54l.24,1.14.45-3.46c-.68.92.17-.16-.68.68A4.58,4.58,0,0,0,106,105a7.39,7.39,0,0,0,1.39,1.66c.68.68,1.25,1.55.38,0l2.69-6.61c-2.27.93-4.5,1-5.67,3.7s.12,4.31,1.25,6.48l2.69-6.61c-.57.23-1.22.16-1.81.4-2.93,1.19-3.92,3.71-2.68,6.61,1.42,3.33.32-1.24.21.14l3.3-4.34c-.62.18-1.49.06-2.18.26-3,.83-3.91,4-2.68,6.61.24.53.77.94,1,1.43l2.69-6.61c-4.14,1.61-7.48,7-2.41,10.2l-.92-7.07a10.81,10.81,0,0,0-1.68,2l2.69-2.07-.4.11,5.69,4.34c0-.67.29-1.44.26-2.16-.09-2.19-2-4.83-4.5-4.5l-1.3.17,3.19,1.32a11.83,11.83,0,0,0-7.77-3.31l4.34,3.31-.38-1.2a4.62,4.62,0,0,0-5.54-3.14l-1.37.28,5.08,2.07c-.46-.62.37,2.45.26-.74a4.59,4.59,0,0,0-4.5-4.5,29,29,0,0,0-4.91.41l5.53,3.14c-.67-2.71-1.86-3.76-4.39-4.82L96.22,104c-2.51-3.36-4-3.76-7.91-3.14L93.84,104c.55,2.93.1-1.15,0-1.76-.44-2.38-3.36-3.76-5.54-3.14l-1.46.41,5.54,3.14c.44,2.87.12-1.23,0-1.82C92,98.43,89,97.06,86.86,97.68c-.53.15-4,1.5-1.75.84l5.7,4.34c-.07-.64.18-1.28.11-2-.33-3-2.6-5-5.7-4.34-3.5.72,1,.7-.18.3l3.31,4.34c-.29-2.38.18-4-2-5.76A4.81,4.81,0,0,0,82,94.29c-.49.11-3.91,1.67-1.84,1l5.53,3.15c-.12,1.68-.12,2,0,.89a3.55,3.55,0,0,0-.08-1.8,5.93,5.93,0,0,0-1.36-2.22c-1.88-2.19-5.74-1.48-7.07.91a8.69,8.69,0,0,0-.82,2.06l2.06-2.69-.79.6,3.47-.46c1.19.31,1.2.43,0-.28a7.55,7.55,0,0,0-1.95-.91,4.57,4.57,0,0,0-5.54,3.14c-.16.67-.85,4.64-.11,1.62L79,96.13c-.32,0-1-.43-1.52-.5-3.1-.45-5.36,1.16-5.69,4.34-.16,1.51-.1-.2,0-.08A10.47,10.47,0,0,1,71,101l3.89-2.23a7,7,0,0,0-5,2.11l3.18-1.32c-3.83.38-8.18,2.33-9.28,6.58L66.92,103c-2.61.85-3.58,2.08-4.55,4.59l5.53-3.14-1.35-.26c-3.11-.58-5.35,1.28-5.69,4.34L60.68,110l5.7-4.34c1.89.71-1.47-.91-1.9-1.08-2.37-.88-4.83,1-5.54,3.14l-.4,1.2,4.34-3.31-1.16,0c-1.83,0-4,1.34-4.34,3.3-.11.6-.51,4.68,0,1.79l5.53-3.14c2.16.69-1.31-.77-1.8-.92-3.08-1-5.36,1.6-5.7,4.33l-.19,1.51,4.5-4.5a9.16,9.16,0,0,0-3.45.35,4.38,4.38,0,0,0-3.14,3.14c-.1.75,0,5.31.36,2.35L59,110.72a15.9,15.9,0,0,0-2.51-.34c-.84.06-3.93.23-1,.32L58.68,112l-.29-.37,1.31,3.18c-.09-2.72-1.28-3.83-3.41-5.24l.91,7.06c.4-.46,1.56-.75,2.1-1.37a4.58,4.58,0,0,0-.91-7.06l-1.09-.79,1.61,6.16c1.81-3.25,1.13-5.81-1.48-8.28l1.32,3.19c.07-3.24-1.58-4-3.63-5.62L56.74,109c-1.62,2.24.92-.76,1.25-1.22,1.16-1.6.6-4.13-.7-5.45-.57-.57-1.14-1.12-1.74-1.66v6.36c.37-.45,1.46-.73,2-1.34a4.59,4.59,0,0,0-.91-7.07,4.21,4.21,0,0,0-1.5-.74q.84.69,0-.09v6.36c.35-.44,1.4-.72,1.88-1.33,1.77-2.27,1.8-5.43-.92-7.07-.49-.3-1.33-.44-1.72-.68l2.07,5.08c.22-.69.25-.47.72-1.11,1.38-1.89.39-5.14-1.61-6.16-.47-.24-4.07-1.69-2-.63l.91,7.07c.44-.47,1.2-.79,1.68-1.3,1.56-1.67,1.9-4.74,0-6.37l-1-.81.71,5.45.66-1.11a4.58,4.58,0,0,0-1.62-6.16,7.91,7.91,0,0,0-2-.76c-1.11-.31-1.68-.7-.2.18l1.61,6.16.59-1.1c.86-1.6.87-4.2-.7-5.45-1.31-1,.19,1.46,0,.22L53,92.69l.89-1.16c1.39-1.78,2-4.65,0-6.36-1.27-1.07.23,1.46,0,.2l-1.15,4.38c.44-.47,1.2-.79,1.69-1.3a4.57,4.57,0,0,0-.91-7.07,7.81,7.81,0,0,0-2-.76c-1.15-.32-1.62-.7-.18.18l2.06,5.08c.27-.71.54-1.42.8-2.13.75-2-.55-4-2.07-5.08-.44-.33-1.09-.45-1.47-.73l1.61,6.16c2.26-3.69,2-8.86-3-10.31L52,75.86l-.6-1a4.62,4.62,0,0,0-5.08-2.06c-.64.16-4.24,1.4-1.48.68l5.08,2.07-.53-1.13a4.51,4.51,0,0,0-5.08-2.06l-1.34.42L48,74.87c-1.08-1.5,0,2.78-.16.72a9.49,9.49,0,0,0-.22-2.3c-.63-2.18-3.23-4-5.54-3.14a5.82,5.82,0,0,0-2.4,1.31c-1.65,1.78,3.92.3,1.94-.12l2.69,2.07c-.37-.71-.37-.73,0-.07a5.8,5.8,0,0,0-.31-1.7c-.52-1.76-2.37-3.48-4.34-3.3a12.71,12.71,0,0,0-2.62.35c-.44.13-3.93,1.62-1.31.75l5.53,3.15c.32,1.16.25,1.57.25,0a7.88,7.88,0,0,0-.19-2.21c-.83-3-4-3.91-6.61-2.68-.65.3-1.13.9-1.76,1.2l6.62,2.69c-1-4.06-3.85-6.13-8-4.85l5.54,3.14c-.82-2.56-1-3.74-3.86-5a12,12,0,0,0-4.88-.62l4.34,3.31c.37,2.33.09-1.65,0-2.15a4.3,4.3,0,0,0-3.14-3.14A8.48,8.48,0,0,0,26,62.2c-.77.21-4.21,2.24-1.64,1.3l5.54,3.14c.62,2.58.08-1,0-1.34a5.7,5.7,0,0,0-.58-1.62,8.49,8.49,0,0,0-3-2.7,7.78,7.78,0,0,0-4.08-.87c-2.59,0,1.6.45-1.49-.08l3.14,3.14-.31-1.53A4.54,4.54,0,0,0,18,58.5L16.61,59l5.54,3.14-.38-1.42c-.57-2.13-3.29-4.07-5.54-3.14l-1.43.59,5.53,3.15L20,59.83a4.43,4.43,0,0,0-3.14-3.15,10.26,10.26,0,0,1-2-.54l2.69,2.07C16,55,13.41,54.4,10.13,55.07l3.46.46-.25-.18C8.6,52,4.1,59.8,8.8,63.12c1.39,1,2.66.66,4.21.62L9.12,61.51a7.25,7.25,0,0,0,5.32,3.85L11.3,62.22l.35,1.46c.52,2.15,3.34,4.06,5.54,3.14l1.43-.59-5.53-3.14.38,1.41A4.54,4.54,0,0,0,19,67.64l1.37-.46L14.84,64l.31,1.52a4.39,4.39,0,0,0,3.15,3.15c1.19.2,4.05,1.21,5.05.28.17-.16-1.27.21-1.54-.19q-.75-4.67-.93-1.5A8.55,8.55,0,0,0,21.17,69c.54,2.22,3.3,4,5.54,3.14a5.78,5.78,0,0,0,2.39-1.31c1.64-1.78-4-.22-1.9.08L24.06,67.8c-.37-2.32-.09,1.65,0,2.15a4.49,4.49,0,0,0,4.34,3.3c.74,0,3.27.1.49-.54.81.19,1.64.74,2.49,1l-3.15-3.15c.1.3.08,1.22.23,1.7A4.58,4.58,0,0,0,34,75.39L35.32,75l-4.38-1.15c1,.83-.48-1.75,0,.13.71,3,4.1,3.88,6.61,2.69.65-.31,1.12-.91,1.75-1.2l-6.61-2.69c-.32-1.17-.25-1.58-.25,0A7.85,7.85,0,0,0,32.6,75a4.55,4.55,0,0,0,5.54,3.14,6.56,6.56,0,0,0,2-1c1.41-1.08-2.29.35-.49.19L35.34,74c.73,2.48.85,4.9,3.88,6a6.26,6.26,0,0,0,3.4.21c.72-.18,4.46-2.38,1.85-1.4l-5.53-3.14c-.79-2.75,0,1,.12,1.5a6.48,6.48,0,0,0,1.17,2.22,4.65,4.65,0,0,0,5.08,2.07l1.34-.43L41.57,79l.53,1.12c.84,1.79,3.28,2.54,5.08,2.07.64-.17,4.24-1.41,1.48-.69l-5.08-2.06a8.94,8.94,0,0,0,3.22,3l-2.23-3.88c0-.59,0,1.36-.06,1.37s.74-1.67,0-.41c-1.36,2.24-.31,4.74,1.62,6.16.44.33,1.09.45,1.47.73l-2.07-5.08-.79,2.13c-.7,1.86.47,4.11,2.06,5.08a7.69,7.69,0,0,0,2.05.76c1.15.32,1.62.7.18-.18l-.91-7.06c-1.63,1.73-3.07,2.18-2.93,5.08a5.66,5.66,0,0,0,2.35,4.36V85.17c-2.43,3.14-3.15,6.55.27,9.28L47.07,89l-.59,1.1a4.58,4.58,0,0,0,1.62,6.15,7.56,7.56,0,0,0,2,.76c1.11.31,1.68.71.2-.18l-1.61-6.15-.67,1.11a4.55,4.55,0,0,0,.71,5.45l.95.82V91.69c-.44.47-1.2.79-1.68,1.3-1.87,2-1.76,5.71.92,7.07.46.24,4.06,1.69,2,.63l-1.61-6.16A10.78,10.78,0,0,0,47.7,97.8a4.57,4.57,0,0,0,2.07,5.08c.49.3,1.33.45,1.72.68l-.91-7.07c-.34.45-1.4.73-1.87,1.34-1.47,1.88-1.93,4.52,0,6.36a22.23,22.23,0,0,0,3.35,2.24l-.91-7.07c-.37.46-1.46.74-2,1.35-1.48,1.81-1.95,4.6,0,6.36.59.54,1.17,1.09,1.73,1.66l-.7-5.45c1.62-2.25-.92.75-1.25,1.22-1.55,2.14-.16,4.79,1.61,6.15.4.31,1.16.54,1.42.74l-2.23-3.89c-.05,2.29,1,3.33,2,5V108L51.14,109a4.64,4.64,0,0,0,1.62,6.16l1.09.79-.91-7.07c-.41.46-1.56.75-2.1,1.37a4.58,4.58,0,0,0,.91,7.07l1.16.77-2.23-3.88c.15,4.2,4.33,7.06,8.1,4.52l-3.46.45,1.31.18c2.15.29,5.18-.49,5.54-3.14.1-.75,0-5.31-.36-2.35l-3.15,3.14c.77-.21.17-.09,1.06,0,2.64.22,4.22-2.25,4.5-4.5l.19-1.51-5.69,4.34c-2.17-.69,1.31.77,1.8.93,2.16.69,5.13-.81,5.53-3.14.11-.61.51-4.69,0-1.8l-4.34,3.31,1.16,0a4.64,4.64,0,0,0,4.34-3.3l.4-1.19-5.54,3.14c-1.89-.71,1.47.91,1.91,1.08,3,1.12,5.39-1.72,5.69-4.34l.18-1.53-5.7,4.34,1.35.25a4.66,4.66,0,0,0,5.54-3.14l.43-1.13L68.34,112a5.82,5.82,0,0,0,4.45-4.75l-2.07,2.69c1.07-.67,3-1.34,4.41-2.58L72,108.63a7.12,7.12,0,0,0,5-2.13l-3.18,1.32c4.67-.37,6.56-3.5,7-7.85l-5.7,4.34c.33,0,1,.42,1.52.5,2.36.34,4.89-.55,5.53-3.15.17-.67.86-4.63.11-1.62l-5.53,3.15c-2.65-.69.87.86,1.55,1.08a4.93,4.93,0,0,0,2.82.11c1.94-.54,3.14-2.35,3.85-3.65l-7.07.92.21.23L76.93,97.5a6.48,6.48,0,0,0,.08,3.3c.76,2.2,3.1,4,5.53,3.14.48-.16,3.91-1.66,1.84-1L80,101.81l.75.66-1.32-3.18c.08.64-.17,1.26-.09,1.92a4.76,4.76,0,0,0,3.3,4.34c2.13.75,3,.1,5-.3l-5.69-4.34c.07.65-.19,1.29-.11,2,.31,2.82,2.63,5.23,5.69,4.34.53-.15,4-1.51,1.75-.85l-5.53-3.14c-.45-2.87-.12,1.24,0,1.83.37,2.39,3.41,3.74,5.53,3.14l1.46-.42-5.53-3.14c-.55-2.93-.1,1.14,0,1.76.48,2.57,3.31,3.49,5.54,3.14.54-.08,1.11-.46,1.54-.53l-4.38-1.16A11.28,11.28,0,0,0,92.07,111l-3.15-3.15.32,1.29c.64,2.56,3.18,3.5,5.54,3.15,3.24-.49-.31-.5-.1-.35.57.4,1.9.23,2.62.26l-4.5-4.5c.07,2.2-.51,3.29,1,5.28A4.75,4.75,0,0,0,98.85,115l1.37-.29-5.53-3.14.38,1.2a4.68,4.68,0,0,0,4.34,3.3s2.84,1.41,1.62.64.7.75,1.23,1a5.49,5.49,0,0,0,3,.22l-4.5-4.5c0,.67-.28,1.44-.26,2.16a4.56,4.56,0,0,0,5.7,4.34c1.49-.42,2.27-1.43,3.37-2.3,2.38-1.89,1.29-5.68-.91-7.07l-.2-.13,2.06,2.69c-.07,1.74,0,2.1.15,1.09l-3.14,3.14,1.4-.55a4.6,4.6,0,0,0,2.69-6.61c-.25-.52-.78-.94-1-1.43L108,115.37c.62-.18,1.48-.06,2.17-.26a4.65,4.65,0,0,0,3.31-4.34c.18-2.16-.68-2.9-1.44-4.68l-2.69,6.61c.57-.23,1.21-.16,1.8-.4,2.76-1.12,4.15-3.79,2.69-6.61-1.57-3-.5.84-.41-.21l-2.22,3.89c.66-.37.65-.46,0-.28a3.48,3.48,0,0,0,1.69-.36c2.65-1.09,4.29-3.85,2.69-6.62a7.34,7.34,0,0,0-1.39-1.65c-.68-.68-1.25-1.55-.38,0l-.7,5.45c2.19-2.18,3-4,2.3-7.11l-3.15,5.53a10.24,10.24,0,0,0,5.37-4.65c2.24-3.42,2-4.78.16-8.29l-.7,5.45c1-1.15-1.85.59.1-.17,2.76-1.08,4.15-3.84,2.69-6.62a7.2,7.2,0,0,0-1.37-1.64c-.8-.85-1-1.38-.25,0l-1.61,6.16c-2.72,1.34,1-.18,1.59-.47a4.55,4.55,0,0,0,1.62-6.15l-.8-1.35L118.29,92A7,7,0,0,0,121,86.17l-2.22,3.89c-2.66,1.15,1.21-.09,1.73-.41a5.82,5.82,0,0,0,1.86-2.05c1.29-2.22.66-4-.3-6.23l-.7,5.46c.48-.52.93-1,1.37-1.59a4.7,4.7,0,0,0,.71-5.46c-.28-.46-2.44-3.45-1.29-1.52l-.71,5.45c.54-.66-2.41,1,.7.05a4.57,4.57,0,0,0,3.14-5.54,19.34,19.34,0,0,0-1.94-3.73l-1.61,6.16a20.68,20.68,0,0,1,2.1-1.33c1.58-.87,2.78-3.29,2.07-5.08-.23-.58-2-4.19-.84-1.35L123,78c-2.68,1.19,1.15-.18,1.7-.42,2.31-1,2.61-4.19,1.61-6.16l-.65-1.29L124,76.26c-2.35,1.18,1.21-.15,2-.82a6.52,6.52,0,0,0,2.07-3.21c.46-2-.54-3.59-.45-5.6l-2.23,3.88c4.1-1.73,4.16-5.33,2.52-9l-2.69,6.61c.46-.19,1.95,0,2.79-.45a5.42,5.42,0,0,0,2.6-2.72,4.54,4.54,0,0,0,0-4.55c-.26-.38-2.59-3.2-1.51-1.6l-.7,5.45c3.69-2.94,6.32-7,3.47-11.78L131.23,58q1.41-1-1.18.34a4.44,4.44,0,0,0,2.27-.61,5,5,0,0,0,2.5-2.92c.82-2.13-.08-3.63-.37-5.68l-1.16,4.38c.49-.56.2-.32.92-.72,2.26-1.26,2.62-4,1.61-6.16-.24-.52-.76-.93-1-1.41l.46,3.46.14-1-2.07,2.68c3.37-2.49,4.46-5.23,2.26-9.06l-.7,5.45c1.87-1.68,3.15-3.07,2.86-5.75l-3.3,4.34c.57-.22,1.25-.14,1.85-.37,2.68-1,4.25-3.9,2.69-6.61a8.23,8.23,0,0,0-1.39-1.66c-.69-.68-1.25-1.54-.38,0l-.7,5.46c1.54-2,3.19-4,2.9-6.8l-2.23,3.89.33-.17-3.47.45.37.11a4.54,4.54,0,0,0,5.69-4.34v-.1a4.55,4.55,0,0,0-5.69-4.34l-.11,0c-1.73.4-3.53,2.47-3.3,4.34l.45-1.47,2.69-2.07-1,.17,4.38,1.16c-.5-.46-.82-1.21-1.35-1.7a4.58,4.58,0,0,0-7.07.91c-.3.47-.45,1.27-.69,1.64l6.16-1.61c2.13,1.55-.78-1.05-1.27-1.31a4.77,4.77,0,0,0-4-.23c-2.28.72-2.7,2.22-3.76,4l3.89-2.23-1.28,0c0-.08,1.51.53.33-.25a4.36,4.36,0,0,0-4.54,0l-.89.65,3.47-.45a6.87,6.87,0,0,0-4.16,0c-.26.07-1.74.57-1.75.86,0-.94,3.86.58,1.94-.32a4.59,4.59,0,0,0-6.15,1.61,8.18,8.18,0,0,0-.76,2.07c-.27,1-.69,1.85.21.26l6.16-1.61c-2-1-3.59-1.06-5.38-1.75a4.52,4.52,0,0,0-5.08,2.07,7.62,7.62,0,0,0-.76,2.06c-.28,1.06-.7,1.79.2.23l5.08-2.06c-1.26-.22.5.59.8.86-.67-.6-1-1.3-1.83-1.78a6.22,6.22,0,0,0-3.52-.84c-3,.23-4,2.18-5.52,4.15l6.16-1.61c2.4,1.5-.71-.79-1.23-1.12a4.55,4.55,0,0,0-6.16,1.61,3.93,3.93,0,0,1-.87,1.34l5.45-.7c-2.4-1.81-5.11-2.44-7.67-.52h4.54l-1.16-.79a4.56,4.56,0,0,0-5.46.7c-1.34,1.33,1.92-.52.4-.13a12.89,12.89,0,0,0-3.18,1.1h4.54l-1.14-.65a4.58,4.58,0,0,0-6.15,1.61A7.71,7.71,0,0,0,93.34,41c-.33,1.19-.67,1.55.19.14l6.16-1.61c2.42,1.49-.7-.77-1.23-1.1C96.25,37,93.69,38.05,92.3,40c-.32.45-.45,1.13-.71,1.5l7.07-.91-1.2-.95c-2.4-1.89-5.26-1.65-7.06.92l-.79,1.11,2.69-2.07-1,.23,3.47.45c2.34,1.54-.74-.84-1.24-1.17a4.57,4.57,0,0,0-6.16,1.62L86.67,42l6.15-1.62-1.13-.64a4.61,4.61,0,0,0-5.45.7l-.84.83,5.45-.7L89.7,39.8a4.55,4.55,0,0,0-6.16,1.62c-.28.5-1.87,4-.64,1.82l6.15-1.61c2.18,1.54-.58-1.2-1.35-1.75-2-1.42-5-.32-6.16,1.61a7.69,7.69,0,0,0-.76,2c-.33,1.17-.68,1.58.19.15l5.08-2.07c-1.68-.6,1.51,1.84.43.28a6.3,6.3,0,0,0-1.7-1.46,4.5,4.5,0,0,0-4.54,0l-.91.48,3.46-.46-1.06-.26a4.63,4.63,0,0,0-5.08,2.07,7.67,7.67,0,0,0-.81,2.15c-.48,1.83,1.34-1.82,0-.46l4.38-1.16C78,42.2,76.72,40.51,74,41.6a9.08,9.08,0,0,0-4.67,4.34L72,43.88c-1.54.62,2.46-.22,2.34,1.63,0-.66-1.62-1.62-2-1.88a4.56,4.56,0,0,0-6.16,1.62l-.73,1.36,5.08-2.06a5.35,5.35,0,0,0-5.44.68l3.47-.46c-1.71-.68-3-1.59-5-1.15a5.07,5.07,0,0,0-3.28,2.15,3.53,3.53,0,0,0-.75,1.48c.45-.64.42-.66-.1-.07l5.45-.7a10.56,10.56,0,0,0-4.44-1.43c-1.6-.2-3.07,1-3.89,2.23l-.78,1.15,3.89-2.23a13.68,13.68,0,0,0-3.19.29l4.38,1.16c-.5-.4-.78-1-1.29-1.46-2.13-1.71-5.6-1.89-7.07.91-.35.66-1.73,4.78-.52,2.47L58.06,48c2,1.32-.85-1.06-1.78-1.42a7.93,7.93,0,0,0-2-.36c-1-.13,2.44.64.42.18-3.12-.73-5-.3-7.16,2.28l5.46-.7-1.16-.76a4.62,4.62,0,0,0-5.46.7c-.37.31-2.18,1.82-2,2.2-.74-1.23,3.72-.79,1.32-1.24a6.59,6.59,0,0,0-4.87,1.48h4.54c2.12,1.56-.62-1.28-1.37-1.83a4.45,4.45,0,0,0-4.54,0l-1.82,1L41.17,49l-1.09-.46c-1.79-.74-4.2.49-5.08,2.07a7.74,7.74,0,0,0-.81,2.16c-.44,1.79,1.32-1.7,0-.48h6.37c-.5-.41-.79-1.07-1.31-1.5a4.64,4.64,0,0,0-5.45-.71c-1,.66,1.5.32.39,0a6.35,6.35,0,0,1-.91-.32,4.53,4.53,0,0,0-5.09,2.06c-.37.67-1.88,4.7-.54,2.33l6.16-1.61c-3.13-1.79-5.3-2.75-8.78-1.07-.67.32-1.18.85-1.82,1.21-1.5.87,1.76-.9.15-.28-2.08.8-2.3,2-3.41,3.55L25,53.9a9.12,9.12,0,0,1-2.25-1.08,4.58,4.58,0,0,0-6.15,1.61c-.29.52-1.92,4-.65,1.8l5.08-2.07c-4.4-1.21-6.55-2-10.32,1.58l4.38-1.16c-2.73-.52-5.07-.36-7.24,1.47C3.45,59.78,9.84,66.12,14.25,62.41Z" style="fill:#ff9b50"/><path d="M49.1,79.2c.44-.22.41-.29.85-.51s.45-.19.89-.41.21-.67.65-.9.69.27,1.12.05.57,0,1-.21-.18-1.45.26-1.67.33-.46.77-.68.92.74,1.36.52.6.08,1-.14.46-.18.9-.4-.22-1.54.22-1.77,1.18,1.26,1.62,1l.88-.45c.44-.23,0-1.16.4-1.38s.52-.08,1-.3.7.29,1.14.07.54,0,1-.25-.06-1.2.38-1.42.48-.15.92-.37.64.17,1.08-.05.66.21,1.1,0,.54,0,1-.23-.28-1.65.16-1.87.4-.3.84-.53,1.09,1.07,1.53.85.36-.38.8-.61l.89-.44c.44-.22,0-1.16.4-1.38s.61.12,1.06-.11.25-.59.69-.82.6.1,1-.12.57,0,1-.2.24-.61.68-.84.26-.57.7-.79.48-.14.92-.36.54,0,1-.26.76.41,1.2.19.6.09,1-.13-.08-1.25.36-1.48.69.29,1.14.06.73.37,1.17.14.58,0,1-.18,0-1,.46-1.27l.89-.43c.44-.23.28-.55.72-.77s.33-.43.77-.65l.88-.45c.44-.22.39-.31.83-.53s.81.51,1.25.29.71.32,1.15.09-.26-1.58.18-1.8.63.14,1.07-.08.53,0,1-.25.48-.13.92-.35.32-.47.76-.69,1,.86,1.42.64.25-.61.69-.83-.08-1.25.36-1.47.65.19,1.1,0,.34-.42.78-.64.35-.41.79-.63,1.09,1.07,1.53.85.3-.52.74-.74.41-.27.85-.49.53-.06,1-.28.5-.1.94-.32.36-.38.8-.61.14-.81.58-1,.27-.57.71-.79.75.38,1.2.16.18-.73.62-1,.31-.47.76-.7.67.23,1.11,0,.47-.16.91-.39.88.66,1.33.44-.3-1.68.14-1.9,1,.83,1.42.61.45-.22.89-.44.52-.07,1-.29.14-.84.58-1.06.54,0,1-.24.72.34,1.16.11.23-.65.67-.87,0-1,.48-1.26.48-.15.92-.37.73.35,1.17.13.65.18,1.09,0,.31-.49.75-.71.62.14,1.07-.09.06-1,.5-1.19.87.6,1.31.38.49-.12.94-.34.38-.34.82-.57.07-1,.51-1.2.36-.39.8-.61.29-.54.73-.76.59.06,1-.17.8.47,1.25.25-.22-.81.07-.4,0-.38-.35-.09.26,1.19-.14,1.48-.59,0-1,.32-.28.46-.68.75-1-.54-1.41-.25-.65,0-1,.24.45,1.45,0,1.75-1.22-.84-1.62-.55.29,1.24-.1,1.53-.81-.26-1.21,0-.13.66-.53,1-.75-.19-1.15.1.06.92-.34,1.21-1-.5-1.37-.21-.38.32-.78.61,0,.82-.41,1.11-.88-.36-1.28-.07.15,1-.25,1.33-.94-.45-1.34-.16.44,1.45,0,1.74-.76-.2-1.16.09-.27.47-.67.76-.44.24-.84.53-.38.33-.78.62-.13.66-.53,1-.81-.28-1.21,0-.2.56-.6.85-.6,0-1,.31-.86-.33-1.26,0-.12.67-.52,1,.11,1-.29,1.28-1-.47-1.35-.17.11,1-.29,1.29-.27.47-.67.76-.51.14-.91.44-1-.61-1.45-.32-.55.08-1,.37.49,1.51.09,1.8-.66-.07-1.06.22-.56.07-1,.36-.53.11-.93.4-.72-.15-1.12.14.51,1.53.11,1.82-.7-.13-1.1.16-.53.12-.93.41-.21.54-.61.83-.32.4-.72.69-.61,0-1,.29-.21.56-.61.85-.81-.27-1.21,0-.53.12-.93.41-.49.18-.89.47.25,1.17-.15,1.46-.32.41-.72.71-1-.58-1.43-.29.21,1.13-.19,1.42-1.2-.81-1.59-.52-.41.28-.81.58-.23.53-.63.82-.5.15-.9.44-.2.57-.61.86-.54.1-.94.39-.42.26-.82.56-.54.11-.94.4.53,1.57.13,1.86-1.06-.62-1.47-.33-.19.57-.6.86-.62,0-1,.29-.61,0-1,.29.08,1-.32,1.25-.46.22-.86.51-.67-.08-1.07.22-.31.41-.71.7.19,1.1-.21,1.39-.76-.19-1.16.1-.55.08-1,.38-.17.59-.57.89,0,.81-.42,1.1-.39.31-.79.6-.93-.42-1.33-.13-.65,0-1,.25.1,1-.3,1.28-.27.48-.67.77-.47.2-.87.5-.57.06-1,.35-.61,0-1,.3-.53.13-.93.43-.65-.05-1.06.25.42,1.41,0,1.71-.64-.45-.62,0-.62,1-.2,1.3.8-.3,1.22,0,.5.15.92.43,0,.89.45,1.16.54.1,1,.37.62,0,1,.26.59,0,1,.29.75-.23,1.17,0,.37.35.79.62S72,92.7,72.4,93s.83-.34,1.25-.07-.13,1.13.3,1.4.9-.46,1.33-.19.09.78.52,1.06.17.66.59.94,1-.65,1.45-.38.71-.16,1.13.12-.26,1.34.16,1.61.3.48.73.75,1.09-.74,1.52-.47" style="fill:#fff"/><path d="M51.37,83.08a11.87,11.87,0,0,0,4-3.42l-3.89,2.22a7.29,7.29,0,0,0,4.85-1.13A5.42,5.42,0,0,0,58,78.18c1.47-3.58-1.61,1.1-.22-.13l-4.38,1.16A7.1,7.1,0,0,0,59.53,79c2.39-1.2,2.33-2.64,3-4.75L57,77.42c-2.31-1,1.07.9,1.63,1A5.07,5.07,0,0,0,62.05,78c2-.92,2.75-2.5,3.35-4.53l-3.14,3.15c.68-.22,1.95-.19,3.07-.48A4.53,4.53,0,0,0,68.48,73l.38-1.42-3.14,3.14c.8-.32,2.65-.33,4.08-.66a4.48,4.48,0,0,0,3.14-3.14c.16-.61.85-4.48.16-1.87L71,71.74l.83-.53-3.46.45c-2.63-.9,1,.72,1.53.85a5,5,0,0,0,3.86-.76,6.88,6.88,0,0,0,3.76-4.81l-4.34,3.3c2.15-.22,3.49-.54,4.93-2.24L75,69.31c2.21-.27,4.59-.39,5.91-2.47.79-1.24-1.38,1.31.13-.13-.26.24-2.32.16-.11.14a15.05,15.05,0,0,0,1.64,0c1.95-.26,3.82-1.22,4.34-3.31L87.24,62l-4.34,3.3c4.16.22,6.56-.3,8.13-4.55L89,63.46a35.62,35.62,0,0,0,4.08-2.84l-3.47.46a24.24,24.24,0,0,0,3.6.54,4.51,4.51,0,0,0,4.33-3.3c.18-.63.94-4.47.19-1.81l-4.34,3.31a10.45,10.45,0,0,0,6.9-2.69l-5.45.71,1.42.64c1.7.76,4.11.92,5.46-.71a9.83,9.83,0,0,0,2.2-4.29l-4.34,3.31c2.5-.07,4-1.13,5.85-2.62L101,55.33c-2.6-.9,1,.65,1.54.85A4.48,4.48,0,0,0,106.94,55c.4-.41,1.3-.4,2.58-1.12s2.11-2.14,3-3.14l-4.38,1.16,1.19.16A4.76,4.76,0,0,0,114.42,50c.53-.8,0-.14.68-.75l-3.18,1.32a10,10,0,0,0,4.29-1l-3.47.45,1.33.44a4.55,4.55,0,0,0,5.54-3.14c.14-.59.79-4.48.14-1.91l-6.61,2.69c4,1.72,7.8,1.25,10-2.79l-2.69,2.07c1.19-.29,2.75,0,4.15-1.29A10.08,10.08,0,0,0,126.9,42l-3.15,3.14c1.69-.68,3.9-.24,5.92-2.15l-3.18,1.32,1.07-.09c1.45-.11,3.26-.74,3.88-2.22l.51-1.2-5.08,2.07c4.41,1.29,7.41-.84,9.11-4.87l-2.07,2.68c.47-.35,1.78-1,1.89-1.5-.07.29-2.9.4-1.55.67a4.63,4.63,0,0,0,5.08-2.07,5,5,0,0,0,0-5.07c-2.45-4.34-9.94-1.44-8.22,3.47l.05.13a4.59,4.59,0,0,0,4.34,3.3h.08c4.8-.3,6.43-7.73,1.2-8.84l-.43-.09C133.3,30,131,32,130.67,35l-.14,1.48,3.3-4.34a7.68,7.68,0,0,0-3.66,2.23l4.38-1.16a11.13,11.13,0,0,0-4.84,0,4.38,4.38,0,0,0-3.14,3.15c-.09.61-.4,4.75,0,1.74L132.15,35c-.56-.09-1-.46-1.62-.55-3-.45-5.47,1.17-5.7,4.34l-.1,1.53,4.5-4.5c-2.7.06-4.29.81-5.62,3.21l3.88-2.23-1.15.1a4.68,4.68,0,0,0-4.34,3.3l-.33,1.21,5.53-3.14c-4.19-.62-6.61.59-8.1,4.66l4.34-3.31-1.28-.07a4.51,4.51,0,0,0-4.34,3.3l-.25,1.34,4.34-3.31-1.34-.16a4.47,4.47,0,0,0-4.34,3.3c-.1.62-.42,4.75,0,1.74l4.34-3.3a9.64,9.64,0,0,0-7.86,5.18l3.88-2.23c-2.75,0-4.13.87-5.7,3.09l2.69-2.07c-.76.24-.16.14-1.06.11a4.42,4.42,0,0,0-3.88,2.23,12.45,12.45,0,0,0-1.27,3.31l4.34-3.3-1.35-.17c-1.85-.24-4,1.56-4.34,3.3s1.43-.79.2-.2l3.47-.45a7.72,7.72,0,0,0-4.8.05,4.79,4.79,0,0,0-3.3,4.34c-.08.62.16,1.2.09,1.8l3.3-4.34a17.72,17.72,0,0,0-2,.58c-3.34,1.15.67.19-.85.38a4.7,4.7,0,0,0-4.5,4.5c-.07.62.18,1.22.11,1.82l3.3-4.34c-2.55.38-3.18,1.55-5,3,1.77-1.44.6-1-.42-.22a11.08,11.08,0,0,0-2.22,2.47l3.88-2.23c-4.59.08-7.19,2.29-7.68,6.86l1.31-3.18-.71.7,4.38-1.15L93.16,62c-3.15-.63-5.3,1.32-5.7,4.34l-.19,1.42L93,63.45c-2.51-.34-4.11-1-6.33.86-.49.42-.82,1.11-1.32,1.47-.89.66,1.35-1.33.47-.66a10.68,10.68,0,0,0-2.44,2.58L86,65.63c-1.31.55-2.49,1.25-3.78,1.8-1.5.66-2.08,2.42-2.23,3.89-.06.63.19,1.25.13,1.86l5.7-4.34-1.47-.33a4.68,4.68,0,0,0-5.08,2.07l-.6.86,2.69-2.07c-3,.83-4.69,1.78-5.5,5L78,71.65c-2.26,1.35-4.39,2-4.92,5.52l4.34-3.31c-4,.36-6,2-7.45,5.78L72,77c-1.29,1,2.14-.4.15-.15a21.2,21.2,0,0,0-2.25.41,4.45,4.45,0,0,0-3.14,3.14c-.34,1.46.24-.11.66-.39s-.4.23-.58.23a11.58,11.58,0,0,0-2.74.9A4.41,4.41,0,0,0,61,84.23c-.1.63-.51,4.74,0,1.71l4.34-3.3c-3.24-.35-5.62,2.8-5.32,5.85.24,2.39,1.87,4.55,4.5,4.5,1.85,0-1.57-.87-.13-.21L62.3,90.09c1.55,4.08,4.82,5.27,9,5.44l-3.18-1.32c1,.83-.48-1.8,0,0a4.54,4.54,0,0,0,4.34,3.3l1.25-.07-4.34-3.3.3,1.4c.54,2.59,3.25,3.46,5.53,3.14l1.33-.19-5.08-2.06a21.48,21.48,0,0,0,1.11,2,4.64,4.64,0,0,0,5.09,2.07,2.15,2.15,0,0,1,1.38-.1L74.63,97c-.84-3,0,1,.17,1.62a7,7,0,0,0,1.88,2.74,4.46,4.46,0,0,0,4.38,1.15l1.52-.47c5.51-1.7,3.16-10.39-2.4-8.67l-1.52.46L83,95c-1.47-1.52.26,4.28.49,1.9a5.86,5.86,0,0,0-.22-2.28A4.65,4.65,0,0,0,79,91.35a10.1,10.1,0,0,0-3.78.42l5.09,2.07c-.41-.66-.78-1.31-1.12-2-1-1.94-3.18-2.33-5.08-2.07L72.75,90l5.54,3.15L78,91.7a4.52,4.52,0,0,0-4.34-3.3l-1.25.07,4.34,3.31c-1.27-4.88-4.7-4.62-8.46-6.06l3.14,3.15c-1.28-3.37-3.24-5-6.93-4.88l4.5,4.5,0-.1L67,91.08l-1.65.56a4.48,4.48,0,0,0,4.34-3.3c.11-.63.52-4.74,0-1.72L66.5,89.77c3.8-.9,7.9-2.51,9-7L72.3,85.89c1.31-.31,2.61-.06,4-1s2-2.51,2.81-3.76l-2.69,2.07c1-.38-.2-.22.92-.32,1.79-.16,4-1.27,4.34-3.3s-.84,1.82-1.69.94c.24.25,1.8-.68,2-.82a5.9,5.9,0,0,0,2.81-4.2l-3.14,3.15c2.4-.69,3.87-1.41,5.33-3.51L82,77.19l1.47.33c3.07.69,5.39-1.36,5.69-4.34.07-.63-.19-1.26-.13-1.86l-2.22,3.89a15.82,15.82,0,0,0,4.31-3c.88-.76-2,1.28.8-.39l1-1.32c-1.06,1-1.23,1.19-.49.63L89,71.61c.54.08,1,.44,1.6.52,3.17.43,5.28-1.17,5.69-4.34l.19-1.42-5.7,4.34c5,1,7.48-1.4,8-6.22l-2.23,3.88c2.47-1.3-.9.34,1.36-.36a6.62,6.62,0,0,0,3.89-3l-2.69,2.07a8.88,8.88,0,0,0,3.54-2c.42-.36.73-1.27,1.19-1.5-.44.22-1.52,1.25-.36,1.08,2.09-.31,3.1-2.53,3.31-4.34.07-.62-.18-1.22-.11-1.82l-4.5,4.5a51.4,51.4,0,0,0,5.26-1.28c2.1-.45,3.07-2.43,3.3-4.34.08-.62-.16-1.21-.09-1.8L107.32,60c.86-.26.63-.33-.71-.21a13.74,13.74,0,0,0,1.92.32,7.67,7.67,0,0,0,3-.94,7,7,0,0,0,3.24-4.86l-4.33,3.31,1.35.17c1.85.24,3.94-1.56,4.34-3.3.18-.79,0-.52.36-1.17l-3.89,2.23a7,7,0,0,0,6.74-3.35l-3.88,2.23h1.21a4.52,4.52,0,0,0,3.89-2.23c.21-.38,1.25-1,2.11-1.94l-3.18,1.31,1.16-.09c1.79-.14,4-1.28,4.34-3.3.09-.62.41-4.75,0-1.74l-4.33,3.3,1.34.16a4.48,4.48,0,0,0,4.34-3.3l.25-1.34-4.34,3.31,1.28.07c2.08.13,3.68-1.5,4.34-3.3l.41-1.12-2.07,2.69.78-.6-3.46.45,1.37.21c2.41.36,4.81-.57,5.53-3.14l.34-1.22-4.34,3.31c2.67-.23,4.23-.87,5.57-3.28L128,44.82l1.21,0a4.61,4.61,0,0,0,4.5-4.5l.1-1.53-5.69,4.34c.55.09,1,.46,1.62.55,2.16.32,5.15-.52,5.53-3.15.09-.61.4-4.75,0-1.74L132.1,41.9c1.54-.36-1.59-.06-.29-.06,1,0,1.66.36,2.74.07a7.21,7.21,0,0,0,2-1.16c1.51-1-2.11.67-.32.09a4.72,4.72,0,0,0,3.31-4.34l.14-1.48L134,39.36l.42.09,1.2-8.84h-.08l4.33,3.31,0-.13-8.23,3.46.13.23V32.94l-.15.29,5.08-2.06c-5-1-8,1.21-9.84,5.64l2.06-2.69c-1.16.79,2.21.6.4.07s-4.33.29-5.08,2.07l-.51,1.19,3.89-2.23a7,7,0,0,0-5,2.12L125.74,36c-1.58.06-2.88-.16-4.38.44-2.2.89-2.57,2.55-3.83,4.2l3.88-2.23a6.15,6.15,0,0,0-6.61,3.42l2.69-2.07A19.5,19.5,0,0,0,114.56,41h4.54l-1.41-.61c-2.57-1.1-5.84-.41-6.62,2.69-.14.59-.79,4.48-.14,1.9l5.53-3.14a8.36,8.36,0,0,0-3.72-.43l-1.53.64c1.46-.34,1.69-.48.71-.43-2.59.49-3.87,1.75-5.27,3.89l5.08-2.07c-1.61-.22-3.16-.55-4.66.29a6.57,6.57,0,0,0-1.62,1.49c-.22.25-1.75,2-.53,1s-.74,0-1.31.27a10.16,10.16,0,0,0-3,2.16L105,47.5c2.6.89-.75-.58-1-.68a4.91,4.91,0,0,0-2.89-.17c-1.37.38-2.47,1.54-3.56,2.43l3.19-1.32-1.1,0a4.59,4.59,0,0,0-4.34,3.3c-.49,2,1.09-.86.11.32l5.46-.7-1.43-.65a4.74,4.74,0,0,0-5.45.71c-1,.92,1.64-.28.3-.12-.82.09.11.1-.84.17A4.65,4.65,0,0,0,89,54.12c-.17.63-.93,4.47-.18,1.81l4.34-3.31c-2.71-.22-4.52-.12-6.83,1.57a10.71,10.71,0,0,0-4.46,5.45L85,56.5a12.36,12.36,0,0,1-2.13-.18,4.55,4.55,0,0,0-4.34,3.31L78.2,61.1l4.34-3.3c-2.39.3-5,0-7.32,1.88-1.36,1.1-1.23.92.27.57-1.89.44-3.08.65-4.4,2.2l3.19-1.32-1.06.11a4.71,4.71,0,0,0-4.34,3.3l-.4,1.39,2.06-2.69a11.18,11.18,0,0,0-1.68,1l3.47-.45c2.63.9-1-.72-1.53-.85a5,5,0,0,0-3.89.72,5.21,5.21,0,0,0-2.49,3c-.18.56-.84,4.5-.16,1.86l3.15-3.14c-3.34.78-6.32.48-7.61,5.22l3.14-3.14c-3,.78-5.39.84-6.62,5l2.07-2.69-.88.46L61,69.77c2.33,1-1.15-.82-1.63-1-2.28-1-4.9,1-5.53,3.14-.16.51-.11,1.4-.22,1.76L55.67,71c-1.18.52,2,.28.16-.43a4.51,4.51,0,0,0-4.38,1.16c-1.64,1.46-1.58,2.58-2.17,4.33l3.14-3.14a9.3,9.3,0,0,0-4.11,1.32c-.52.37-2.45,1.92-.19.4-.39.27-.88.46-1.29.71-5,3-.44,10.77,4.54,7.77Z" style="fill:#ff9b50"/><path d="M64,88.22c-.14.46-.13.47-.28.93s-.4.38-.54.85.15.55,0,1-.1.47-.25.94-.51.34-.66.81-.12.47-.26.94-.16.46-.3.92,0,.51-.14,1-.3.41-.44.88-.23.44-.37.9.26.59.12,1.06-.07.49-.21,1-.46.37-.6.84-.25.43-.39.9-.16.46-.3.92.29.6.15,1.07-.63.31-.78.77l-.28.93c-.14.47.17.56,0,1s-.19.45-.33.92-.32.41-.46.87-.21.45-.35.92.18.56,0,1-.17.46-.32.93-.27.42-.41.89-.29.42-.44.89-.21.44-.35.91.32.61.18,1.08-.12.48-.26,1" style="fill:#fff"/><path d="M59.63,87c-.24.82-1.81,5-.4,2.36A33.72,33.72,0,0,0,57.32,94c-1.11,3.36-2.76,6.12-2.16,10.32l1.16-4.38c-1.55,1.56-1.86,2.9-2.38,4.89,0,.17-.71,1.84-1,3.14a12.12,12.12,0,0,1-.82,2.6,10.31,10.31,0,0,0-.74,2.65c-.51,3.62.47-.59.08.83-1.55,5.6,7.13,8,8.68,2.4a9.14,9.14,0,0,0,.26-3.34c-.1-1.18-.73,1.17.15.58,1-.69,1.25-4.15,1.32-4.38s1.09-3.73,1.09-3.75c-.79,2.94.72-.53.92-1.24.15-.56.54-3.78,0-2.22s.15.35.42,0a5.7,5.7,0,0,0,1-2.44c.37-1.82.35-1.57.83-3.82.11-.52.94-3-.26-.29.45-1,1.27-1.69,1.61-2.86.25-.86,1-3.63-.06-.83.3-.82.75-1.58,1-2.44,1.68-5.55-7-7.93-8.68-2.39Z" style="fill:#ff9b50"/></svg>