<svg id="레이어_1" data-name="레이어 1" xmlns="http://www.w3.org/2000/svg" viewBox="0 0 150 150"><path d="M11.07,59.23c.06-.49,1.33-.41,1.82-.51s.56.3,1,.2.36-.71.84-.81.38-.64.86-.74.51,0,1-.06.54.2,1,.1.68.9,1.16.8.58.39,1.06.29.17-1.7.65-1.79.64.69,1.13.59.66.82,1.15.72.56.32,1.05.22.23-1.38.71-1.48.49-.08,1-.18.38-.6.87-.69.42-.42.9-.52l1-.2c.48-.09.45-.24.94-.33s.71,1,1.19.95.65.75,1.14.65.06-2.23.54-2.33.6.49,1.08.39.54.19,1,.1.51,0,1-.05.41-.47.89-.57.82,1.6,1.31,1.5.36-.69.84-.79.17-1.7.65-1.8.61.55,1.1.46.42-.4.9-.5.43-.38.91-.48.89,1.93,1.37,1.83.39-.55.88-.64.47-.18,1-.28.54.17,1,.08.52.1,1,0,.43-.35.92-.45.3-1,.78-1.12.38-.63.87-.73.67.86,1.16.76.32-.89.81-1,.4-.49.89-.59.62.61,1.11.52.5,0,1-.1.75,1.28,1.24,1.18,0-2.37.51-2.47.82,1.56,1.3,1.46.49-.08,1-.18.53.15,1,.05.29-1.05.78-1.15.54.23,1,.13.66.78,1.14.69.35-.77.83-.87.24-1.36.72-1.46.51,0,1-.07.67.8,1.15.71.61.53,1.1.43.4-.51.89-.6.6.47,1.08.37.25-1.26.74-1.36.74,1.2,1.23,1.1.51.07,1,0,.45-.28.93-.37.25-1.28.74-1.38.43-.36.91-.45.39-.58.88-.68.57.35,1,.25.7,1,1.19.9.58.38,1.06.28.36-.76.84-.85.18-1.65.67-1.75.57.36,1.06.26.43-.38.91-.47.77,1.34,1.26,1.24.6.49,1.08.39.09-2.1.57-2.2.88,1.85,1.36,1.76.16-1.74.65-1.83.67.86,1.15.77.36-.74.84-.83.65.73,1.13.64.27-1.18.75-1.28.75,1.26,1.24,1.17.47-.13,1-.23.3-1,.78-1.11.71,1,1.2.94.22-1.4.71-1.49.74,1.19,1.23,1.09.09-2.09.57-2.18.66.75,1.14.65.43-.39.91-.49.5,0,1-.11.47-.15,1-.24.35-.74.84-.84.68.89,1.16.8.39-.56.88-.66.58.38,1.06.28.7,1,1.19.89.36-.76.84-.85.25-1.3.74-1.4.74,1.22,1.23,1.12.24-1.32.73-1.42.42-.4.9-.5.54.16,1,.06.79,1.46,1.28,1.36.56.27,1,.18.06-2.2.55-2.3.61.52,1.09.42.57.29,1,.19.55.21,1,.12.64.66,1.12.56.07-2.23.55-2.32.63.62,1.12.52.55.21,1,.11.4-.53.89-.62.45-.29.93-.39.59.42,1.07.32.4-.56.89-.66.68.88,1.17.78.54.21,1,.11.53.11,1,0,.18-1.61.67-1.71.45-.31.93-.4.79,1.4,1.28,1.31.2-1.55.69-1.65.86,1.8,1.35,1.7.5-.07,1-.17-.07-1.2.26-.82-.52-.3-.69.16.28.63.11,1.09-.49.35-.66.81-.23.44-.4.9-.46.35-.63.81,1.93,1.24,1.76,1.7-1.68-.09-1.85.37.29.63.12,1.09-.67.28-.84.74-.65.28-.82.74.93.87.76,1.33-.3.42-.47.88-.77.24-.94.7,0,.53-.14,1,1.16,1,1,1.41-1,.17-1.14.63-.52.34-.69.8.33.65.16,1.11.69.78.52,1.24-.14.47-.31.94-1.36,0-1.53.48-.73.26-.9.72,1,.88.81,1.35.13.57,0,1-.32.41-.49.87-.55.32-.72.78-.64.29-.81.75-.44.37-.61.83-.73.26-.9.72,1.68,1.14,1.51,1.61-.28.42-.45.88-2.09-.24-2.26.22.74.8.57,1.26,0,.53-.15,1-1.15.1-1.32.56.12.56,0,1,.3.64.13,1.1.24.61.07,1.07.63.75.46,1.21-.29.42-.46.88-1.4,0-1.57.46.83.83.66,1.29-1.53,0-1.7.42,1,.9.84,1.36-1,.17-1.14.63-.79.23-1,.69,1.3,1,1.13,1.47.53.72.36,1.19-1.87-.16-2,.3-.48.35-.65.81,1.46,1.06,1.29,1.52-.47.35-.64.82-.56.31-.73.77.71.79.54,1.25-.33.41-.5.87-1.56-.05-1.73.41.19.6,0,1.06-.38.39-.55.85-.69.28-.86.74,1,.88.8,1.35-1.42,0-1.59.46,1.78,1.18,1.61,1.65-1.22.07-1.39.54-.52.33-.7.79,1.33,1,1.16,1.48,0,.52-.19,1-.68.27-.85.74-.34.4-.51.86-.2.45-.37.92-.42.37-.59.84-1.31,0-1.48.5.41.68.24,1.15-.44.36-.62.83-.6.3-.77.76,2,1.24,1.78,1.71-1.61-.07-1.78.39-.8.23-1,.7.08.56-.09,1,1.28,1,1.11,1.46-1.63-.07-1.8.4,1.08.92.91,1.39.09.56-.08,1-2-.21-2.18.26,1.18,1,1,1.43-1.23.07-1.4.54,0,.52-.21,1,.6.4.13.55-.84,1.31-1.25,1,.67-1.89.26-2.16-.89.44-1.3.17-.3-.43-.71-.71-.54-.07-1-.34-.45-.21-.86-.48-.53-.09-.93-.37-.72.19-1.13-.09,0-.92-.38-1.2-1,.56-1.38.29-.21-.57-.62-.84.68-1.9.27-2.17-.75.23-1.16,0-.63,0-1-.23-1.11.79-1.52.52.09-1-.32-1.29-.51-.12-.93-.39-.21-.56-.62-.84-.26-.49-.67-.76-1.13.8-1.54.53.4-1.48,0-1.75-1,.68-1.46.41.44-1.55,0-1.83-1.34,1.12-1.75.85.52-1.67.11-2-1.2.91-1.61.64-.55-.06-1-.34.5-1.64.09-1.92-.34-.38-.75-.66-1.43,1.25-1.85,1,.22-1.13-.27-1.14,0,.72-.38,1-.38.32-.79.59-1.57-1.47-2-1.19.3,1.35-.11,1.62-1.1-.78-1.51-.5.25,1.27-.16,1.54-.2.6-.61.87-.21.58-.62.85-.71-.18-1.13.09-.31.43-.72.7-.7-.16-1.11.11-.34.39-.75.66-.44.23-.85.5-.65-.08-1.06.19-.43.25-.84.53.08,1-.33,1.28-.56,0-1,.32,0,.85-.43,1.12-.94-.52-1.35-.25.23,1.26-.18,1.53-1.49-1.35-1.9-1.08,0,.92-.4,1.19-.75-.24-1.16,0,.41,1.52,0,1.79-1.39-1.2-1.81-.93.23,1.24-.19,1.51-.84-.37-1.25-.1-.59,0-1,.29.77,2.07.36,2.34-.9-.45-1.32-.18-.55.5-1,.32-.23-.48-.32-1-1.08-.3-1.16-.78,2.19-.89,2.1-1.37-1-.31-1.09-.79.7-.62.61-1.09-.43-.42-.52-.9-.79-.35-.87-.82.1-.52,0-1-1.33-.25-1.42-.73,1.34-.74,1.25-1.22-.74-.36-.83-.84-.81-.34-.9-.82,2.05-.87,2-1.35-1.48-.22-1.57-.7-.78-.35-.87-.83,2-.85,1.87-1.33S52.13,99.48,52,99s.43-.57.34-1,.92-.67.83-1.14-1.89-.16-2-.64,1.76-.81,1.68-1.29-.87-.34-1-.82.75-.63.66-1.11-2.16-.1-2.25-.58.67-.62.59-1.1-.92-.32-1-.8-.08-.48-.16-1,1-.68.89-1.16-.88-.33-1-.81-.05-.49-.14-1,1.78-.82,1.69-1.3-2.14-.11-2.23-.59.49-.58.4-1.07.49-.58.4-1.06-1.38-.24-1.47-.72.77-.64.69-1.13,0-.5,0-1,.36-.73.07-1.12-.57-.23-1-.46-.17-.74-.61-1-1,.91-1.48.68-.09-.89-.52-1.12-.91.65-1.34.42-.21-.66-.65-.89.25-1.53-.19-1.76-1.42,1.63-1.86,1.4-.56,0-1-.21-.1-.86-.54-1.09.24-1.52-.2-1.75-.73.33-1.17.1-1.13,1.08-1.57.84.5-2,.06-2.23-1.32,1.44-1.75,1.2.09-1.23-.35-1.46-.34-.43-.77-.66-.9.65-1.34.42.21-1.47-.23-1.7-.54,0-1-.27-.42-.27-.86-.5-.73.33-1.17.1-.72.3-1.16.07.45-1.91,0-2.14-.6.08-1-.15S26,68.07,25.51,67.84s.31-1.66-.13-1.89-.33-.43-.77-.66-.38-.34-.82-.57-.58,0-1-.19-.81.47-1.24.24-.57,0-1-.23-.59.06-1-.17.13-1.3-.31-1.53-.93.7-1.37.46.06-1.18-.38-1.41-1,.83-1.44.59.09-1.23-.35-1.46-.58,0-1-.19-.5-.12-.94-.35-.17-1.14-.66-1.24C12,59.05,11,59.73,11.07,59.23Z" style="fill:#fff"/><path d="M13.19,61.35c-1,.82.74.69,1.54.46a5.89,5.89,0,0,0,2.38-1.76c-.58.6-.74-.19-.19.33a7.5,7.5,0,0,0,2.16,1A3.06,3.06,0,0,0,22.46,60a8,8,0,0,0,.65-1.8L19,59.3a15,15,0,0,0,4,1.83,3.14,3.14,0,0,0,3.39-1.38c.76-1,1.18-1.32-.59-.18a20.06,20.06,0,0,1,1.81-.87c.79-.35,1.5-.66,2.35-1L27.1,57A23.1,23.1,0,0,0,30,59,3.05,3.05,0,0,0,34.14,58c.3-.54.88-2.92.54-2.33L31.29,57a6.8,6.8,0,0,0,6.31-.44L34,56.1c.5.42.78,1.07,1.31,1.51a3.09,3.09,0,0,0,4.24,0,10.75,10.75,0,0,0,2-3.2l-3.39,1.37c2.09.87,3.37.17,5.23-.82h-3c-.74-.54.92,1.5,1.37,1.83a2.9,2.9,0,0,0,3,0c1-.77,2.24-.28,3.49-.69,1.64-.54,2.3-1.87,3.54-2.91l-3.64.46,1.16.76a3,3,0,0,0,3.64-.47A4.6,4.6,0,0,1,54,52.83h-3a8.41,8.41,0,0,0,2.88.9c.85.1-1.73-1.27-.81-.36a7.6,7.6,0,0,0,1.27,1.06,3,3,0,0,0,4.11-1.07c.31-.59.73-2.88.51-2.47l-4.71.6c1.85,1.49,2,2.39,4.7,2.14,2.18-.2,2.83-.73,4.08-2.56l-2.59,1.48c1.19.15-.63-.36.66.41a3.06,3.06,0,0,0,3.63-.47,23.94,23.94,0,0,0,2-2.93L64.09,51c.92-.07-.42-.5.63.23a8.09,8.09,0,0,0,1.81.74,8.05,8.05,0,0,0,2.31-.31c1.58-.18-2.18-.56-.34.08a3,3,0,0,0,3.39-1.38L72.63,49l-4.1,1.08c-.46-.28,1.21,1.19,1.94,1.41a5.5,5.5,0,0,0,3.06-.22c2.27-.78,2.61-2.14,4.32-3.47l-2.92.78c1.17.27,2.09,1.1,3.31,1.42a3,3,0,0,0,2.92-.77,14.37,14.37,0,0,0,2-3.2l-3.39,1.38A5.14,5.14,0,0,0,84,46.92H81a13.06,13.06,0,0,0,3.06,1.93,3,3,0,0,0,3.38-1.37c.31-.51,1-2.93.58-2.2l-4.11,1.07c-.82-.58.91,1.44,1.36,1.76A3,3,0,0,0,89.37,47,9.3,9.3,0,0,0,90,45.2l-4.11,1.08,1.16.77a3,3,0,0,0,3.63-.47l.84-.83-3.63.47,1.13.64a3,3,0,0,0,4.1-1.08l.75-1.28-4.1,1.08c.5.33,1.62,1.73,3.54,1.47,1.75-.23,2.58-1.35,3.54-2.72l-4.71.61,1.19.94a3.07,3.07,0,0,0,4.72-.6c.32-.46.4-1.07.71-1.5l-4.11,1.08c-.84-.53,1,.93,1.23,1.09A3.06,3.06,0,0,0,100,44.88c.31-.51,1-2.93.57-2.19l-4.1,1.08c3,1.71,6,1,8.47-1.49l-3.64.46,1.17.8a2.92,2.92,0,0,0,3,0c.6-.45-1.65-.8.1.51a3,3,0,0,0,3.63-.47,11.11,11.11,0,0,0,2.05-2.85l-4.11,1.08c-.82-.52,1,.94,1.23,1.11a3.09,3.09,0,0,0,4.11-1.07c1-1.27.19-.55.1-.6-.3-.18-1.69-.53-1.55.07.25,1,2.23,1.44,3.05,1.58a3.14,3.14,0,0,0,3.39-1.38c.3-.53.91-2.92.55-2.3l-3.39,1.38a20.91,20.91,0,0,0,2.15.61c1.76.49.43-.12,1.44.38a3,3,0,0,0,4.1-1.07c.31-.54.89-2.92.55-2.33l-4.1,1.08a6.53,6.53,0,0,0,5.4.47c1-.25-.75.19.76-.17a6.07,6.07,0,0,0,2.79-1h-3a6.75,6.75,0,0,0,4.74,1.31,3.81,3.81,0,0,0,2.59-1.48c1.26-1.29-.3-.69.53-1h-3c-.48-.35,1,1.1,1.27,1.31,1.35,1,3.3.17,4.11-1.08.32-.5.39-1.19.69-1.64l-4.72.6c1.64,1.49,2.11,3,4.77,2.39a3.46,3.46,0,0,0,2.86-3.78L136.33,38l.11,0-3.8-2.89v.1l3.8-2.89a3.74,3.74,0,0,0-3,.36A2.92,2.92,0,0,0,132,35.28c.15,1.46,1.37-1.61.09.08-.35.46-.44,1-.8,1.41a3.13,3.13,0,0,0-.46,3.64c.33.57,2,2,1.76,1.7l1.8-4.41c-.58.22-1.26.14-1.86.37-1.13.43-2.35,1.52-2.2,2.89s1-1.07.37-.48c-.34.32-.69.62-1,.93a3,3,0,0,0-.47,3.64l.76,1.33v-3c-.36.53-.31.58.14.15-.37.26-.73.54-1.08.82a5.4,5.4,0,0,0-.84,1.82c-.46,1.91.49,2.67,1.22,4.23l1.07-4.11c-1.91,1.07-4,2.88-3.12,5.37.08.24,0,1,.34,1.18-.92-.4,2.89-1.82,1.35-1.93-1.09-.09-2.3,1.16-3.06,1.77a3,3,0,0,0-.47,3.63c.66,1.1.9-.75-.17.59A13.71,13.71,0,0,1,123.16,59a3,3,0,0,0-.46,3.63c.4.6,1.15,1.09,1.51,1.61v-3c-.62,1.23,1.71-.25.65-.52a2.76,2.76,0,0,0-1.57.25,3.07,3.07,0,0,0-1.79,4.41c.46,1,1.18-1.72.18-1.29a3,3,0,0,0-1.49,2.59,11.08,11.08,0,0,0,.2,3.59,2.36,2.36,0,0,0,.29,1,1.39,1.39,0,0,1,.92-1.67c.88-.45.82-.54-.18-.29a9.31,9.31,0,0,0-1.16.52,3.06,3.06,0,0,0-1.08,4.11l.66,1.28,1.07-4.1c.89-.39-1.41.29-1.69.42a3,3,0,0,0-1.38,3.39c.11.29,1.28,2.48.84,1.36l1.38-3.39A21.9,21.9,0,0,0,118,74.17a3.09,3.09,0,0,0-1.07,4.11,11.75,11.75,0,0,1,1.18,1.93l2.1-3.69c-1.82.59-2.68.24-4,1.89a3.12,3.12,0,0,0-.47,3.63c.3.5,1.19,1.36,1.29,1.53l.47-3.64c-.44.56-.89,1.08-1.37,1.59a3.15,3.15,0,0,0-.47,3.64l.54,1.25v-3c-.72,1.25,1.73-.54.45-.36a6.22,6.22,0,0,0-1.6.56,2.94,2.94,0,0,0-1.49,2.59c0,.89.55-.38-.51.53a3,3,0,0,0-.47,3.63l.8,1.35,1.08-4.1c1-.51-1.31.32-1.6.46a3.06,3.06,0,0,0-1.07,4.11c.28.54,1.91,2.2,1.61,1.64l1.79-4.41a7.77,7.77,0,0,0-3.41,2.11,3.13,3.13,0,0,0-.47,3.64c1.14,2.1,1.59-2.13,0,.39-.32.5-.47,1.1-.78,1.59-.68,1.09,1.7-.73-.25-.06a3.08,3.08,0,0,0-2.09,3.69c.28,1.36.93-1.48-.38-.18a3.09,3.09,0,0,0-.47,3.64c.34.57,2,2,1.78,1.7l1.79-4.41c-4.54,1.88-5.91,3.39-3.53,8l1.79-4.41c-.56.23-1.21.16-1.8.39a3.08,3.08,0,0,0-1.79,4.41,2.46,2.46,0,0,0,.67,1.07c-.17-.85-.26-.91-.25-.17l2.2-2.89c-.66.19-1.47.06-2.18.25a3.05,3.05,0,0,0-1.79,4.41c.25.54.77.92,1,1.43l1.79-4.41c-2.95,1.15-5.91,5-2.06,7.46l-.6-4.71c-1.06.84-1.78.87-.06.38l3.79,2.89c0-.69.29-1.43.26-2.16-.06-1.46-1.34-3.22-3-3s1.88,1.25-.49-.13c-.43-.24-.94-.37-1.38-.58a10.48,10.48,0,0,0-4-1.11l2.9,2.21-.39-1.2a3.08,3.08,0,0,0-3.69-2.1l-1.37.29,3.38,1.37c-.35-.48.1-.13.06-1.49a3.07,3.07,0,0,0-3-3,22.4,22.4,0,0,0-4.51.35l3.69,2.1a5.64,5.64,0,0,0-1.4-2.85c-.4-.43-1-.42-1.48-.73.79.54,1.25,1.17.47,0-1.65-2.35-3-1.68-5.36-1.31l3.69,2.09c.18,1,0-1.43,0-1.75a3,3,0,0,0-3.69-2.1l-1.46.42L90.92,103c.13.84.08-1.49,0-1.82-.25-1.59-2.27-2.51-3.69-2.1a12.49,12.49,0,0,0-1.75.85l3.8,2.89c-.07-.64.18-1.28.11-2A3.06,3.06,0,0,0,85.62,98a3.15,3.15,0,0,0-1.22.41c.88.13,1,.1.25-.11l2.2,2.89c-.24-2,.34-3.29-1.54-4.7s-3-.4-4.76.2l3.69,2.1c.63,1.81-.11-1-.08-.91a7.94,7.94,0,0,0-1-1.56,3,3,0,0,0-4.71.61A5.1,5.1,0,0,0,78,98.06c.65-1.19,1.67-1.43,3.07-.74.17-.43-2-1.29-2.31-1.37A3,3,0,0,0,75,98.05c-.08.33-.41,2.82-.11,1.62l3.69-2.09c-.52-.08-1-.43-1.51-.51a3.08,3.08,0,0,0-3.8,2.9c-.09.83-.2.68-1,1.75l2.59-1.49a7.84,7.84,0,0,0-3.61,1.32c2.46-1.35-.86.27-1.66.62-2.31,1-3.71,1.6-4.41,4.32l2.09-2.09c-2.08.67-2.73,1.54-3.51,3.54l3.69-2.1-1.35-.25a3.06,3.06,0,0,0-3.79,2.89L62.18,110l3.8-2.9c-.51-.18-1.25-.83-1.9-1.07-1.58-.59-3.22.67-3.69,2.09l-.4,1.19,2.89-2.2-1.16,0a3,3,0,0,0-2.9,2.2c0,.32-.15,2.69,0,1.79l3.69-2.09a20,20,0,0,0-1.8-.93c-2.05-.66-3.57,1.07-3.8,2.89l-.19,1.51,3-3a8.05,8.05,0,0,0-3,.29,3,3,0,0,0-2.1,2.1c-.08.58.24,3.27.37,2.34l3.69-2.09a13,13,0,0,0-2.12-.29c-3.71.29,2.05,1.27,1.67,2.37.51-1.49-1.72-2.75-2.65-3.37l.61,4.71c.51-.58,1.52-.71,2.1-1.37a3.06,3.06,0,0,0-.6-4.71l-1.1-.79,1.08,4.11c1.31-2.35,1.06-3.77-.6-5.83-.77-1,.64,1.71.24.75-.22-.53-.09-1.2-.4-1.76-.59-1-1.65-1.16-2.49-1.81l1.07,4.1c-.47.65,1.07-1,1.25-1.22a3,3,0,0,0-.47-3.63c-.56-.57-1.14-1.12-1.73-1.66V106c.47-.57,1.43-.7,2-1.34a3.06,3.06,0,0,0-.61-4.72A11.8,11.8,0,0,1,54,98.89v4.24c.44-.56,1.38-.7,1.88-1.33,1.18-1.52,1.2-3.62-.61-4.72-.53-.31-1.25-.38-1.72-.67l1.38,3.39a4.55,4.55,0,0,1,.87-1.48,3,3,0,0,0-1.08-4.11c-.55-.27-1.74-.51-2-.63l.61,4.72c.46-.49,1.19-.78,1.68-1.3a3,3,0,0,0,0-4.24l-1-.82.47,3.63.66-1.11a3,3,0,0,0-1.07-4.1c-.52-.31-2.91-1-2.26-.58L53,93.88l.59-1.09a3.05,3.05,0,0,0-.47-3.64c-1-.78-.24.49-.4-.44l-.77,2.92.89-1.16c.93-1.19,1.37-3.1,0-4.24-.95-.8-.2.49-.33-.46l-.77,2.92c.46-.49,1.19-.78,1.69-1.3a3,3,0,0,0-.61-4.71c-.52-.31-2.91-1-2.23-.59l1.38,3.39.79-2.13A3.06,3.06,0,0,0,51.35,80c-.45-.33-1.05-.41-1.48-.73L51,83.34a6.82,6.82,0,0,0,1.12-4.75A4.1,4.1,0,0,0,50.59,76c-1.84-2,.29,1-.54-.36a3.09,3.09,0,0,0-3.39-1.38c-.32.09-2.47.94-1.47.68l3.38,1.38-.52-1.12a3,3,0,0,0-3.39-1.38l-1.34.43,3.39,1.37c-.67-.92-.37.7-.34-.23a5,5,0,0,0-.2-1.7,3,3,0,0,0-3.69-2.09,6.49,6.49,0,0,0-1.13.45l-.61.47c-.76.58-.68.73.24.46,0,0,2,.3,1.81.5.21-.24-.14-1.2-.22-1.44a3,3,0,0,0-2.89-2.2,16,16,0,0,0-3.54,1l3.7,2.1c.28,1,.21-1.68,0-2.24A3,3,0,0,0,35.48,69c-.65.31-1.12.91-1.75,1.2L38.14,72c-.78-3.3-2.78-4.85-6.15-3.81l3.69,2.1c-.68-2.14-.47-2.93-2.81-3.93a8.46,8.46,0,0,0-4.48-.57L31.29,68c0-.23.1-1.55,0-2.15a2.88,2.88,0,0,0-2.09-2.09,6.53,6.53,0,0,0-2.85-.08c-.58.17-2.4,1.59-1.64,1.31L28.4,67c-.35-1.44-.48-3.49-2.89-4.77-2.25-1.18-3.59-.52-5.22-.8l2.1,2.1L22.07,62A3,3,0,0,0,18.38,60L17,60.41l3.69,2.1-.38-1.42c-.38-1.42-2.19-2.71-3.69-2.09l-1.43.59,3.69,2.1-.36-1.46a2.92,2.92,0,0,0-2.09-2.1c-2.77-.51.8.53-1.31-1A5.37,5.37,0,0,0,13,56.24l-1,0c-1.24.08-1.07.21.53.38-3.16-2.23-6.16,3-3,5.18,1.15.81,2.17.45,3.46.42l-2.6-1.48a5.77,5.77,0,0,0,4.43,3.16l-2.09-2.1.35,1.46c.35,1.44,2.22,2.71,3.69,2.1l1.44-.6-3.69-2.09.37,1.41a3,3,0,0,0,3.69,2.1L20,65.73l-3.69-2.09.32,1.52a2.9,2.9,0,0,0,2.1,2.1c1.1.19,3.2,1,4.25.28-.69.47,0,.16-.08.2-.28-1.51-.44-1.66-.49-.44a6.18,6.18,0,0,0,.24,1.34,3,3,0,0,0,3.69,2.09c.53-.19,1.41-.42,1.73-.92.88-1.36-1.62-.48-.44-.31l-2.09-2.09c0,.22-.1,1.54,0,2.14a3,3,0,0,0,2.89,2.2c2.21-.14.95-.18,3.38.49l-2.1-2.1c.16.5,0,1.16.23,1.7a3.05,3.05,0,0,0,3.69,2.1l1.33-.41L32,72.75c.7.59,0-.49.35.8a3.05,3.05,0,0,0,4.41,1.8c.65-.31,1.12-.91,1.75-1.21L34.1,72.35c-.28-1-.21,1.67-.05,2.23a3,3,0,0,0,3.69,2.1c1.52-.51,1.48-.8,1.94-.84l-2.89-2.21c.6,2,.47,4,2.83,4.94a4.82,4.82,0,0,0,2.6.22c.68-.16,2.53-1.66,1.86-1.41l-3.69-2.09c-.27-.93,0,1.26.11,1.5a6.76,6.76,0,0,0,1,1.86A3.08,3.08,0,0,0,44.91,80l1.34-.42-3.38-1.38.52,1.12a3,3,0,0,0,3.39,1.38c.33-.09,2.47-.94,1.48-.68l-3.39-1.38a7,7,0,0,0,2.69,2.51l-1.49-2.59c.13,1.59,0,1.2-.3,1.72a3.09,3.09,0,0,0,1.07,4.11c.45.33,1,.41,1.48.72l-1.38-3.39-.8,2.13a3,3,0,0,0,1.38,3.39c.51.31,2.91,1,2.23.59l-.61-4.71c-1.32,1.41-2.51,1.5-2.51,3.82a4.27,4.27,0,0,0,1.93,3.5V86.23c-2,2.54-2.48,5,.27,7.16l-.46-3.63-.59,1.09A3.07,3.07,0,0,0,48.85,95c.52.31,2.91,1,2.26.58L50,91.43l-.66,1.12a3,3,0,0,0,.47,3.63l.95.82V92.76c-.45.48-1.19.77-1.67,1.29a3,3,0,0,0,.6,4.71c.55.28,1.75.52,2,.64l-1.08-4.11a9.73,9.73,0,0,0-1.47,2.91,3,3,0,0,0,1.38,3.39c.52.32,1.24.39,1.72.68l-.61-4.72c-.44.57-1.37.7-1.87,1.34a3.07,3.07,0,0,0,0,4.24,19.26,19.26,0,0,0,3,2l-.61-4.71c-.47.57-1.43.7-2,1.35a3,3,0,0,0,0,4.24c.59.54,1.17,1.09,1.73,1.66L51.51,104c.47-.66-1.06.95-1.25,1.21-1,1.43-.1,3.2,1.08,4.11.43.33,1,.41,1.41.73l-1.48-2.59c-.05,2,.86,2.64,1.78,4.23v-3l-.61,1.1a3.07,3.07,0,0,0,1.07,4.1l1.1.79L54,110c-.51.58-1.53.71-2.1,1.37a3.05,3.05,0,0,0,.6,4.71l1.17.78-1.49-2.59a3.84,3.84,0,0,0,2.16,3.69,4.74,4.74,0,0,0,2.08.22c2.68,0-1.27-.46.61-.21,1.43.2,3.45-.32,3.69-2.09.08-.58-.23-3.28-.36-2.35l-2.1,2.1a3.26,3.26,0,0,1,1.46-.08c1.76.15,2.82-1.5,3-3l.19-1.51-3.79,2.9c.23.07,1.23.74,1.8.92a3,3,0,0,0,3.69-2.09c.06-.33.16-2.69,0-1.8l-2.89,2.21,1.16,0a3.08,3.08,0,0,0,2.89-2.2l.4-1.19-3.69,2.09c.51.19,1.25.84,1.91,1.08,2,.75,3.59-1.14,3.79-2.89l.18-1.53-3.8,2.9,1.35.25a3.11,3.11,0,0,0,3.69-2.1l.44-1.12-2.1,2.09a5.48,5.48,0,0,0,2.54-1.39c.36-.38.32-1,.62-1.34.76-.93-1.13.82-.6.54.68-.37,1.51-.5,2.22-.93,2.35-1.41-1.35.37.74-.41.47-.18,2.93-1.45,1.48-.94-1.29.47,1.43-.14,2.09-.68,1.62-1.31,2.07-3.46,2.27-5.38l-3.8,2.89c.52.07,1,.42,1.52.5,1.57.23,3.26-.36,3.69-2.09.08-.34.4-2.83.1-1.63l-3.69,2.1c-.94-.25,1.24,1,1.56,1.08a3.65,3.65,0,0,0,2,.11c1.52-.36,2.28-1.74,3-3l-4.71.6.2.24-.78-2.92a5,5,0,0,0,.08,2.5,3,3,0,0,0,3.69,2.1c.63-.21,1.43-.84,1.84-1l-2.91-.77c.79.7-.54-2.12-.22.46a3.19,3.19,0,0,0,2.2,2.9c1.86.65,2.43,0,4.17-.3l-3.8-2.9c.07.65-.19,1.29-.11,2,.2,1.88,1.75,3.49,3.79,2.89a13.08,13.08,0,0,0,1.76-.84l-3.69-2.1c-.13-.83-.09,1.49,0,1.83.25,1.59,2.28,2.49,3.69,2.09l1.46-.41-3.69-2.1c-.18-1,0,1.44,0,1.76.32,1.72,2.21,2.33,3.69,2.09.55-.08,1-.44,1.54-.53l-2.92-.77a8.8,8.8,0,0,0,3.54,2.76l-2.09-2.09.32,1.28a3.08,3.08,0,0,0,3.69,2.1,2.46,2.46,0,0,0,1.2-.38c-.84-.07-1-.06-.5,0,.69,0,1.5.18,2.22.21l-3-3c.07,2-.55,2.77.76,4.52a3.16,3.16,0,0,0,3.39,1.38l1.37-.28-3.69-2.1.39,1.2a3.12,3.12,0,0,0,2.89,2.2c2.9.24,2.32,2.29,5.88,1.82l-3-3c0,.69-.29,1.43-.26,2.16a3,3,0,0,0,3.8,2.89c1.24-.35,1.76-1.16,2.71-1.92,1.59-1.26.86-3.78-.61-4.71q1,4,1.32,2l-2.09,2.09,1.4-.54a3.06,3.06,0,0,0,1.79-4.41c-.25-.53-.77-.92-1-1.43l-1.79,4.41c.66-.19,1.47-.06,2.17-.25a3.12,3.12,0,0,0,2.21-2.9c.16-1.89-.57-2.35-1.24-3.93l-1.79,4.41c.57-.23,1.21-.16,1.8-.39a3.06,3.06,0,0,0,1.79-4.41,3.45,3.45,0,0,0-.72-1.09c0,.8.08.84.11.12l-1.48,2.59a8,8,0,0,1,2-.79c1.76-.73,2.85-2.57,1.79-4.41-.33-.57-2-2-1.78-1.7L112,104.8c1.82-1.8,2.46-3.09,1.92-5.65l-2.09,3.69c2.62-.9,3.3-2.09,4.7-4.27,1.82-2.84,1.45-3.63-.07-6.47L116,95.73c.71-.81-.6,0,.76-.56a3.06,3.06,0,0,0,1.79-4.41c-.28-.54-1.91-2.2-1.61-1.64l-1.08,4.1c-1,.51,1.31-.32,1.6-.46a3,3,0,0,0,1.07-4.11l-.8-1.34-.47,3.63a5.58,5.58,0,0,0,2.27-4.77L118,88.76c-.78.34,1.4-.19,1.73-.41a4.18,4.18,0,0,0,1.32-1.51c1-1.72.45-3-.29-4.71l-.47,3.64c.48-.52.93-1,1.37-1.6a3.1,3.1,0,0,0,.47-3.63A19.22,19.22,0,0,0,120.86,79l-.47,3.63c.4-.49,0,.1,1.36-.34a3,3,0,0,0,2.1-3.69,17.72,17.72,0,0,0-1.79-3.37L121,79.35a20.6,20.6,0,0,1,2.1-1.32,3,3,0,0,0,1.38-3.39c-.11-.29-1.28-2.47-.84-1.35l-1.37,3.38c-.89.4,1.4-.29,1.69-.42,1.54-.68,1.74-2.79,1.08-4.1l-.66-1.29L123.29,75c-.8.4,1.37-.3,1.87-.7a4.87,4.87,0,0,0,1.53-2.43c.34-1.65-.58-3.46-.5-5.2l-1.48,2.59c3.28-1.4,3.32-4,2-6.92l-1.79,4.4c2-.83,3.27,0,4.5-2.48a3,3,0,0,0,0-3c-.41-.6-1.16-1.09-1.51-1.61l-.47,3.64c3.32-2.65,5.67-5.89,3.23-10l-.47,3.63c.64-.45.6-.48-.12-.1a3,3,0,0,0,1.51-.4,3.87,3.87,0,0,0,1.81-2c.78-1.8-.11-3.11-.37-4.88l-.77,2.92a3.72,3.72,0,0,1,1.22-1,3.07,3.07,0,0,0,1.08-4.1c-1.35-2.9.18,1.57-1.45,1.34.52.07,1.44-1.29,1.66-1.65,1.18-1.88.6-3.24-.41-5l-.47,3.63c1.61-1.45,2.67-2.39,2.42-4.69l-2.2,2.89c.58-.22,1.25-.14,1.85-.36a3,3,0,0,0,1.79-4.41c-.33-.57-2-2-1.76-1.7L135.49,41c1.35-1.72,2.69-3.46,2.46-5.73l-1.49,2.59-1.61.24a3,3,0,0,0,3.79-2.89v-.1a3,3,0,0,0-3.8-2.9l-.1,0a3,3,0,0,0-2.2,2.89c2-1.62,2.32-2.26,1.05-1.92l2.92.77c-.51-.47-.81-1.21-1.35-1.7a3,3,0,0,0-4.71.61c-.33.5-.4,1.18-.69,1.64l4.1-1.07c-.85-.62-1.73-2-3.94-1.47-2,.54-2.14,1.85-3,3.35l2.59-1.49c-1.58,0-1,0-1.71-.49a2.92,2.92,0,0,0-3,0c-1.46,1.1,2.07-.16.36,0a11.87,11.87,0,0,0-2.06.19c-.56.15-1.12.72-1.63.81.55-.1,1.48.17.44-.33a3.08,3.08,0,0,0-4.11,1.08c-.3.54-.88,2.91-.55,2.33l4.11-1.08c-1.64-.82-3.33-.94-5-1.59a3,3,0,0,0-3.39,1.37c-.31.54-.91,2.92-.55,2.3l3.38-1.38c-.78-.13-.27-.16-.09.18a3.6,3.6,0,0,0-1.3-1.24,4.8,4.8,0,0,0-2.76-.64c-2.38.22-3,1.76-4.22,3.41l4.1-1.08c.82.51-1-1-1.23-1.12a3,3,0,0,0-4.1,1.08A6.4,6.4,0,0,1,105,39.34l3.63-.47c-2-1.52-4-2.13-6.15-.51h3l-1.17-.8a3,3,0,0,0-3.63.47c-1.12,1.11.79-.29-.67.31a20.87,20.87,0,0,0-2.42.9h3l-1.13-.65a3.05,3.05,0,0,0-4.11,1.07c-.31.51-1,2.93-.57,2.19l4.1-1.08c.85.53-1-.93-1.23-1.09a3.06,3.06,0,0,0-4.1,1.07c-.33.46-.41,1.07-.71,1.5l4.71-.61-1.2-.94a3.06,3.06,0,0,0-4.71.6c-.55.67-.53.74.07.21.7-.74,1.55-.65,2.56.25.15-.33-1.32-1.24-1.51-1.36a3,3,0,0,0-4.1,1.08L88,42.75l4.11-1.07L90.93,41a3.05,3.05,0,0,0-3.63.46l-.84.83,3.64-.46-1.16-.77a3,3,0,0,0-4.1,1.07A9.3,9.3,0,0,0,84.19,44l4.11-1.08c.81.58-.91-1.43-1.36-1.75a3,3,0,0,0-4.11,1.08c-.3.51-1,2.93-.57,2.2l3.39-1.38c-1.06-.38.17.41-.35-.26A5.43,5.43,0,0,0,84,41.74a3,3,0,0,0-3,0c-1.25.65,1.78.26.33-.09A3.06,3.06,0,0,0,78,43a4.59,4.59,0,0,0-.64,1.59c-.15.83.48-.5-.4.4l2.92-.77c-2.85-.76-3.73-2.33-6.66-.32-.64.44-2.28,1-2.19,2.09-.09-1.14,4,1,.57-1.09A3,3,0,0,0,67.45,46l-.74,1.36L70.1,46c-1.37-.48-2.09-.15-3.4-.07-1.64.1,2,.65.47-.19A5.15,5.15,0,0,0,65.48,45c-2.93-.54-3.47,1.58-5.06,3.22l3.63-.46a8.47,8.47,0,0,0-3.68-1.23A3,3,0,0,0,57.77,48L57,49.18l2.59-1.48a11.37,11.37,0,0,0-2.79.24l2.92.77c-.5-.4-.78-1-1.29-1.46-1.42-1.14-3.74-1.26-4.72.61-.31.59-.73,2.88-.51,2.47l4.1-1.08c.47.32-1-1.07-1.6-1.34A2.53,2.53,0,0,0,54,47.65c-2.48-.27-3.62,0-5.34,2.05l3.64-.47-1.16-.76a3.09,3.09,0,0,0-3.64.47c-.59.5-1.13,1.52-1.72,1.9.62-.4,1.07-.6,0-.5a6.94,6.94,0,0,0-4.11,1.27h3c.73.55-.93-1.5-1.37-1.83a3,3,0,0,0-3,0c-.38.2-.75.45-1.14.61s2,.2.54-.39a3,3,0,0,0-3.39,1.38,5.14,5.14,0,0,0-.63,1.6c-.15.81.48-.43-.39.38h4.24c-.5-.41-.78-1.07-1.31-1.5a3.09,3.09,0,0,0-3.63-.47c-1,.65.76.23-.37.21a3.86,3.86,0,0,1-1.31-.38A3,3,0,0,0,29.5,52.6c-.3.54-.88,2.92-.54,2.33l4.1-1.08c-2.67-1.53-4.22-2.54-7.26-1.07-2.42,1.18-2.64,1.32-4.54,3.95l3.39-1.38A10.37,10.37,0,0,1,22,54.12a3.06,3.06,0,0,0-4.11,1.07,9.26,9.26,0,0,0-.65,1.8l3.39-1.38c-3.91-1.08-5.53-2-8.86,1.19L14.73,56c-2.15-.41-4.06-.37-5.78,1.08C6,59.6,10.25,63.83,13.19,61.35Z" style="fill:#1c1b1f"/><path d="M50.61,81.79a9.89,9.89,0,0,0,3.47-2.89l-2.59,1.48a6,6,0,0,0,3.94-.8,4.61,4.61,0,0,0,1.16-1.8c1-1.86-.78,0,.17-.79l-2.92.77a5.74,5.74,0,0,0,4.94,0c2-1,1.71-2,2.27-3.86L57.36,76c1.09.45,2,1.54,3.94.72,1.67-.69,2.17-2,2.66-3.63l-2.1,2.1c1-.31,2-.21,3.07-.48A3,3,0,0,0,67,72.6l.39-1.42-2.1,2.09c1.27-.51,2.72-.34,4.08-.66a3,3,0,0,0,2.1-2.09c.1-.39.43-1.34.19-1.73.94,1.5-3.16,1.26-3.17,1.33-.18.88,3,1,3.41.94a6.11,6.11,0,0,0,4.19-4.52l-2.9,2.2a6.76,6.76,0,0,0,3.52-1.39c-1.15.71-1.49.66.07.23a5.85,5.85,0,0,0,1.72-.5c.56-.33.8-.93,1.29-1.31,1-.78-.95.21.3-.38.24-.11.85.11,2.42-.09a3.13,3.13,0,0,0,2.89-2.21l.36-1.47-2.89,2.2a10.49,10.49,0,0,0,3.87,0,4.29,4.29,0,0,0,2-1.43c.38-.39,1.6-2.26-.17-.41.63-.65,1.83-1.11,2.37-1.85.7-.94,1.06-.25-.41-.31.83,0,1.72.27,2.57.34a3,3,0,0,0,2.89-2.2c.1-.36.39-2.52.19-1.81l-2.9,2.21a8.87,8.87,0,0,0,5.84-2.25l-3.64.47,1.43.64a3.08,3.08,0,0,0,3.64-.47,8.13,8.13,0,0,0,1.82-3.62l-2.9,2.2c2.1-.06,3.22-.92,4.79-2.18l-2.92.77c-.74-.25,1.23.74,1.54.85a3,3,0,0,0,2.92-.77c.82-.83,1.89-.78,2.89-1.36,1.24-.72,1.78-1.89,2.69-2.9l-2.91.77,1.19.16a3.19,3.19,0,0,0,3.39-1.38c.83-1.27-1.24-.44.3-.21.5.07.88-.46,1.34-.45.73,0-2.19-.18-.3.44a3,3,0,0,0,3.69-2.09c.1-.4.27-2.38.15-1.91l-4.41,1.8c3.74,1.61,4.55.29,7.52-1.46-1.63,1,.51.77,1.81-.08s1.74-2.43,2.22-3.69l-2.1,2.09c.91-.36,1.84,0,2.79-.23a10,10,0,0,0,1.72-.82c1.47-.64-2.16.23-.3.08a3,3,0,0,0,2.59-1.48l.5-1.2-3.38,1.38c2.09.61,4.4.46,6-1.3A8.27,8.27,0,0,0,134,38.8c1.12-1.81-.91.92-.28.13.12-.15.95-1,1.18-1-.43,0-1.44.24-.28.47A3.08,3.08,0,0,0,138,37a3.43,3.43,0,0,0,0-3.55c-1.63-2.89-6.63-1-5.48,2.31l0,.13a3.07,3.07,0,0,0,2.9,2.2h.08c3.2-.2,4.29-5.15.8-5.89l-.43-.09a3.05,3.05,0,0,0-3.8,2.89L132,36.5l2.2-2.89a6.22,6.22,0,0,0-3,1.84l2.92-.78a9.18,9.18,0,0,0-4,0,2.9,2.9,0,0,0-2.1,2.1c0,.31-.1,2.78.05,1.74l3.69-2.1c-.55-.08-1-.45-1.62-.54a3.07,3.07,0,0,0-3.8,2.89l-.1,1.53,3-3c-2.19.05-3.25.53-4.33,2.47l2.59-1.49-1.15.1a3.11,3.11,0,0,0-2.89,2.2l-.34,1.21,3.69-2.09c-3.31-.5-5.08.39-6.25,3.61l2.89-2.21L122.16,41a3,3,0,0,0-2.89,2.2L119,44.56l2.89-2.21-1.34-.16a3,3,0,0,0-2.9,2.2c0,.32-.11,2.8,0,1.74l2.9-2.2A8.45,8.45,0,0,0,114,48.37l2.59-1.49a5.68,5.68,0,0,0-3.33.89c-2.22,1.26,1.68.32-.74.24A3,3,0,0,0,110,49.49a11.29,11.29,0,0,0-1.12,3l2.9-2.2-1.35-.17a3,3,0,0,0-2.9,2.2c-.23,1.08.64.11.74.16a3.88,3.88,0,0,0-2.91.29,3.17,3.17,0,0,0-2.2,2.89c-.08.61.16,1.21.09,1.8l2.2-2.89a27.42,27.42,0,0,0-3.26,1,3.13,3.13,0,0,0-3,3c-.07.62.18,1.22.11,1.82l2.2-2.89c-2.08.31-2.61,1.18-4.12,2.36-.35.26-.26.22.26-.13a5.33,5.33,0,0,0-1.23.45,8.61,8.61,0,0,0-1.68,1.93l2.59-1.49A7.34,7.34,0,0,0,93,61.78a4.78,4.78,0,0,0-1.6,1.91c-.08.51-.14,1-.19,1.53q.94-1.66.09-.69l2.92-.77-1.43-.29a3.07,3.07,0,0,0-3.8,2.9l-.19,1.42,3.8-2.89c-1.48-.21-2.35-.91-3.91-.22a9.24,9.24,0,0,0-2,1.84c.43-.38-3.55,2.66-.66.76A20.07,20.07,0,0,1,83,68.73a3,3,0,0,0-1.49,2.59c-.06.63.19,1.25.13,1.86l3.8-2.89L84,70a3.13,3.13,0,0,0-3.39,1.37c-.85,1.24,1.6-.69.17-.23-.32.11-.71.15-1,.29A4,4,0,0,0,78,72.77c-.26.36-1.1,1.8-.06.89s-1.59.4-1.89.66a4.62,4.62,0,0,0-1.52,3.24l2.9-2.2c-2.15.19-3.72.58-5,2.41a3.19,3.19,0,0,0-.59,1.16c-.19,1.36,0-.45.57-.39.93.11-.18-.16-.61-.18a5.59,5.59,0,0,0-1.45.3,2.94,2.94,0,0,0-2.1,2.09c-.22,1,.39.17-1,.89a12.57,12.57,0,0,1-2.74.9,2.92,2.92,0,0,0-2.1,2.09c0,.32-.18,2.81,0,1.71l2.89-2.2c-2.48-.27-4.05,2-3.82,4.35a3.07,3.07,0,0,0,3,3c1.4,0-1.51-1.93-.15-.27a5.15,5.15,0,0,0,2.66,2,11.18,11.18,0,0,0,2.29.64c2.4.31-.08-1.24.22-.1A3,3,0,0,0,72.4,96l1.25-.07-2.89-2.2.29,1.4c.37,1.73,2.17,2.31,3.69,2.09L76.07,97l-3.38-1.38a21.48,21.48,0,0,0,1.11,2A3.08,3.08,0,0,0,77.19,99,4.32,4.32,0,0,1,79,98.85l-2.89-2.21c-.33-1.17,0,1.28.16,1.62a5.6,5.6,0,0,0,1.5,2.07,3,3,0,0,0,2.92.78l1.52-.47c3.68-1.14,2.11-6.93-1.6-5.79l-1.52.47,2.92.77c-1.1-1.14.18,2,.08.64a8,8,0,0,0-.19-1.68,3.11,3.11,0,0,0-2.9-2.2,9,9,0,0,0-3.38.37L79,94.6c-.41-.66-.77-1.31-1.11-2a3.08,3.08,0,0,0-3.39-1.38l-1.33.19,3.69,2.09-.29-1.4a3,3,0,0,0-2.9-2.2L72.4,90l2.89,2.21c-1.08-4.16-4-3.72-7.41-5L70,89.27c-1-2.73-2.5-3.83-5.48-3.78l3,3-2.18,1.65a3,3,0,0,0,2.89-2.2c.06-.32.19-2.81,0-1.71l-2.1,2.09c3.53-.83,7-2.13,7.9-6l-2.1,2.09c1.61-.37,2.84.06,4.19-1.25a7.93,7.93,0,0,0,1.29-2.11c.26-.45-1.77.44,0,.28,1.19-.1,2.68-.85,2.89-2.2.15-1,0-.62-.63-.11.32-.28,1.25-.39,1.68-.67a4.58,4.58,0,0,0,2.12-3.3l-2.1,2.1c2-.58,3.2-1,4.44-2.82L82.4,75.74l1.47.33a3.05,3.05,0,0,0,3.79-2.89c.07-.63-.19-1.25-.13-1.86l-1.48,2.59a14.46,14.46,0,0,0,4.08-2.85c-.85.75.94-.3,1.2-.88s-2.68.18-.35.5a3.07,3.07,0,0,0,3.79-2.89L95,66.37l-3.8,2.89c3.93.79,5.69-.94,6.1-4.77l-1.48,2.59c.23-.13,1.08-.7,1.35-.67-.57-.06-.4.38.16.18a9.59,9.59,0,0,0,2.12-.88c.21-.11,1.63-1.51.28-.62s1.38-.62,1.88-1c1.85-1.52-.18-.56,1.5-.81,1.39-.2,2.06-1.68,2.2-2.89.07-.62-.18-1.22-.11-1.82l-3,3c1.71-.21,3.19-.87,4.86-1.23a3.09,3.09,0,0,0,2.2-2.89c.08-.62-.16-1.21-.09-1.8l-2.2,2.89c.7-.27.14.31,1.6.06a6.16,6.16,0,0,0,2.2-.74,5.52,5.52,0,0,0,2.56-4l-2.89,2.21,1.35.17a3,3,0,0,0,2.89-2.2,5.3,5.3,0,0,1,.51-1.53L112.56,54a5.52,5.52,0,0,0,5.45-2.6l-2.59,1.48h1.21a3,3,0,0,0,2.59-1.49c.33-.58.75-.54,1.07-1a3.47,3.47,0,0,0,.94-.85c-1.41.41-1.62.54-.62.41,1.19-.1,2.69-.85,2.89-2.2,0-.32.12-2.79,0-1.74l-2.89,2.2,1.34.16a3,3,0,0,0,2.89-2.2l.25-1.34L122.16,47l1.28.07a3,3,0,0,0,2.89-2.2c.41-.9.21-.78-.58.38-1.46,0-1.64.09-.54.2a3.08,3.08,0,0,0,3.69-2.09l.34-1.21-2.9,2.2c2.15-.19,3.2-.61,4.27-2.54L128,43.32l1.21,0a3.08,3.08,0,0,0,3-3l.1-1.53-3.79,2.9c.55.08,1,.45,1.62.54,1.44.22,3.43-.35,3.69-2.1,0-.31.1-2.78,0-1.74l-2.1,2.1c.92-.22-.18-.24.51-.06a3.76,3.76,0,0,0,1.94.06,9.62,9.62,0,0,0,1.33-.77c1.51-.7-1.35.25.34-.3A3.14,3.14,0,0,0,138,36.5l.14-1.48-3.8,2.89.43.09.8-5.89h-.08l2.89,2.21,0-.13-5.48,2.31.13.23v-3l-.15.29,3.38-1.38c-2.34-.46-3.8-.34-5.64,1.18A8.35,8.35,0,0,0,128.75,36c-.39.61,1.13-.07.11-.36A3,3,0,0,0,125.47,37l-.5,1.2,2.59-1.49a7.56,7.56,0,0,0-3.19,1c-1.34.67,1.71,0,.55-.14a7.92,7.92,0,0,0-1.44-.12c-2.78.32-3.18,2.06-4.66,4l2.59-1.49a5.67,5.67,0,0,0-4.27,1c-.57.42-1.78,1.75.26.43-.57.37-1.44.57-2.08.89h3l-1.42-.61c-1.71-.74-3.89-.27-4.41,1.79-.1.39-.27,2.38-.15,1.9l3.69-2.09c-3.39-1.12-5.94-.34-8.11,3l3.38-1.38c-3.37-.46-3.75,1.08-5.39,2.39-.51.42-3.15,1.32-4.31,2.47l2.92-.77c-.41-.14-1.84-1.26-3.49-.69a4.5,4.5,0,0,0-1.55,1.09c-1.34,1.33,1.51-.09,0-.05a3.06,3.06,0,0,0-2.89,2.2c-.32,1.31.37.2-.28,1L100,52l-1.43-.64a3.15,3.15,0,0,0-3.63.47c-.2.18-.22.39-1.6.49a3.11,3.11,0,0,0-2.89,2.2c-.1.36-.39,2.52-.19,1.81l2.9-2.21c-2.46-.2-3.82-.27-5.93,1.25A9.52,9.52,0,0,0,83.33,60L85.43,58a11.4,11.4,0,0,1-2.53-.13A3,3,0,0,0,80,60l-.37,1.47,2.9-2.2c-2.53.32-4.28-.08-6.43,1.64-1.63,1.29.17.22-1.14.87-.65.33-1.43.52-2.12.88-1.44.76,2.22-.14.37.05a3.13,3.13,0,0,0-2.89,2.2c-.43,1.46.48,0,.31-.08-1.71-.49,1.4,1.43,1.58.51s-3-1-3.42-.94c-2.69.61-2.78,3.31-3.09,4.49l2.1-2.09c-3.34.78-5.47.12-6.57,4.17l2.1-2.09c-1.52.39-3.12,0-4.4,1.24a3,3,0,0,0-.77,1.33q-.6,1.51.54-.18c3.76,0,1.59-.55.24-1.11-1.52-.64-3.26.7-3.69,2.1-.63,2.07.81.51.71.17s1.06.12-.54-.48a3,3,0,0,0-2.92.77c-1.44,1.28-1.23,2-1.79,3.67l2.1-2.09a12.31,12.31,0,0,0-5.23,2.28c-3.31,2-.3,7.17,3,5.18Z" style="fill:#1c1b1f"/><path d="M61.08,87.42c-.23.76-.65,1.41-.88,2.18-.33,1.11.07.89.09.84-.49,1.39-1.19,2.88-1.67,4.31-1,2.87-2.45,6.08-2,9.17l.78-2.92c-1.82,1.82-2.28,4.75-3,7.17-.3,1-.52,1.93-.92,3a11.44,11.44,0,0,0-.61,2.07c0,.45.11.89.19,1.34,0-.74,0-.77-.17-.11-1,3.73,4.76,5.32,5.79,1.6.24-.87.11-1.72.26-2.54.28-1.5-.26,1.06.31-.58.46-1.35.76-2.7,1.17-4,.35-1.15.69-2.66,1.09-3.75-.48,1.32.82-.92.91-1.24s.17-2.43,0-1.82c1.57-4.53,3.45-9.56,4.52-13.08,1.11-3.71-4.68-5.29-5.79-1.6Z" style="fill:#1c1b1f"/></svg>