<svg width="132" height="123" viewBox="0 0 132 123" fill="none" xmlns="http://www.w3.org/2000/svg">
<path fill-rule="evenodd" clip-rule="evenodd" d="M103.655 26.462C100.191 38.3401 90.4935 45.96 81.9953 43.4817C73.4971 41.0034 69.4161 29.3652 72.8801 17.4872C76.3441 5.60921 86.0414 -2.01074 94.5396 0.467585C103.038 2.94591 107.119 14.584 103.655 26.462ZM43.6885 67.3072C52.9132 52.5476 61.0065 51.9875 66.2561 51.6581C74.8437 51.6581 80.258 56.8458 82.3996 60.5534L82.9506 61.4379C88.3546 70.1142 92.6409 76.9958 97.7192 80.9796C110.239 88.8865 111.907 102.065 109.909 108.983C103.847 125.72 87.1767 123.644 79.5992 120.514C66.2892 115.375 54.8351 118.373 50.7719 120.514C38.3844 126.049 29.3572 121.063 26.3921 117.879C14.5317 105.359 24.3055 89.0512 30.675 82.4621C33.6617 79.3724 40.4488 71.9196 43.6885 67.3072ZM108.038 67.1574C114.879 70.5249 124.24 65.5037 128.947 55.9421C133.654 46.3806 131.924 35.8996 125.083 32.5321C118.242 29.1646 108.881 34.1859 104.174 43.7474C99.4672 53.3089 101.197 63.79 108.038 67.1574ZM27.9431 26.462C31.4071 38.3401 41.1043 45.96 49.6025 43.4817C58.1007 41.0034 62.1817 29.3652 58.7177 17.4872C55.2537 5.60921 45.5564 -2.01074 37.0583 0.467585C28.5601 2.94591 24.4791 14.584 27.9431 26.462ZM23.5589 67.1574C16.7181 70.5249 7.35687 65.5037 2.65008 55.9421C-2.0567 46.3806 -0.326711 35.8996 6.51412 32.5321C13.3549 29.1646 22.7161 34.1859 27.4229 43.7474C32.1297 53.3089 30.3997 63.79 23.5589 67.1574Z" fill="#FF9B50"/>
</svg>
