<svg width="530" height="530" viewBox="0 0 530 530" fill="none" xmlns="http://www.w3.org/2000/svg">
<path d="M377 318.294C377 354.907 326.856 367 265 367C203.144 367 153 354.907 153 318.294C153 281.681 203.144 252 265 252C326.856 252 377 281.681 377 318.294Z" fill="#F9F9F9" stroke="#1C1B1F" stroke-width="15"/>
<path d="M263 232L263 250" stroke="#1C1B1F" stroke-width="15" stroke-linecap="round"/>
<path d="M334.055 344.464C268.408 305.923 208.33 324.758 179.243 343.465C175.402 345.935 176.211 351.483 180.505 353.038C250.898 378.545 307.311 366.348 333.813 353.83C337.763 351.964 337.822 346.676 334.055 344.464Z" fill="#F9F9F9" stroke="#1C1B1F" stroke-width="15" stroke-linecap="round"/>
<path d="M428 465L393 430" stroke="#1C1B1F" stroke-width="20" stroke-linecap="round"/>
<circle cx="335.082" cy="362.082" r="90.5819" fill="#F9F9F9" stroke="#1C1B1F" stroke-width="15"/>
<path d="M322.966 316.923L319.388 323.515L320.002 323.848L320.667 324.062L322.966 316.923ZM337.541 320.195L337.528 327.695L337.541 327.695L337.553 327.695L337.541 320.195ZM301.447 323.216L295.063 319.278L294.941 319.476L294.832 319.68L301.447 323.216ZM301.447 354.3L294.667 357.508L294.743 357.668L294.826 357.824L301.447 354.3ZM307.991 378.337L300.649 376.803L300.64 376.848L300.631 376.894L307.991 378.337ZM314.409 405.646L317.112 398.65L316.511 398.417L315.88 398.291L314.409 405.646ZM323.722 395.829L330.873 398.088L330.913 397.963L330.948 397.837L323.722 395.829ZM337.541 379.22L338.145 371.744L337.541 371.695L336.936 371.744L337.541 379.22ZM351.36 395.829L344.133 397.837L344.168 397.963L344.208 398.088L351.36 395.829ZM360.672 405.646L359.201 398.291L358.57 398.417L357.969 398.65L360.672 405.646ZM367.09 378.337L374.45 376.894L374.441 376.848L374.432 376.803L367.09 378.337ZM373.635 354.3L380.255 357.824L380.338 357.668L380.414 357.508L373.635 354.3ZM373.635 323.216L380.249 319.68L380.14 319.476L380.018 319.278L373.635 323.216ZM352.115 316.923L354.414 324.062L355.079 323.848L355.693 323.515L352.115 316.923ZM320.667 324.062C328.118 326.461 333.365 327.688 337.528 327.695L337.553 312.695C335.928 312.693 332.624 312.154 325.265 309.784L320.667 324.062ZM307.83 327.153C309.962 323.696 312.25 322.802 314.024 322.569C316.184 322.285 318.319 322.934 319.388 323.515L326.545 310.332C323.21 308.521 317.906 306.93 312.069 307.697C305.845 308.515 299.576 311.963 295.063 319.278L307.83 327.153ZM308.226 351.091C303.261 340.602 306.257 330.127 308.061 326.751L294.832 319.68C291.435 326.037 287.148 341.62 294.667 357.508L308.226 351.091ZM315.332 379.871C316.473 374.411 314.919 368.043 313.419 363.423C311.796 358.425 309.622 353.697 308.067 350.776L294.826 357.824C296.04 360.104 297.843 364.022 299.152 368.055C300.584 372.467 300.918 375.517 300.649 376.803L315.332 379.871ZM315.88 398.291C315.879 398.291 315.89 398.293 315.91 398.3C315.929 398.306 315.954 398.315 315.981 398.328C316.038 398.354 316.081 398.384 316.104 398.402C316.149 398.437 316.039 398.367 315.843 398.029C315.399 397.263 314.91 395.808 314.633 393.536C314.084 389.024 314.623 383.491 315.351 379.779L300.631 376.894C299.722 381.53 298.94 388.745 299.743 395.348C300.143 398.633 300.999 402.327 302.863 405.547C304.834 408.95 308.097 412.032 312.938 413L315.88 398.291ZM316.57 393.571C315.317 397.538 314.099 398.609 313.999 398.688C313.959 398.72 315.13 397.884 317.112 398.65L311.706 412.642C315.534 414.12 319.851 413.159 323.25 410.495C326.59 407.879 329.106 403.686 330.873 398.088L316.57 393.571ZM336.936 371.744C329.836 372.318 325.056 377.163 322.247 381.226C319.331 385.441 317.479 390.281 316.495 393.822L330.948 397.837C331.64 395.344 332.905 392.185 334.584 389.758C336.368 387.177 337.66 386.734 338.145 386.695L336.936 371.744ZM336.936 386.695C337.421 386.734 338.713 387.177 340.497 389.758C342.176 392.185 343.441 395.344 344.133 397.837L358.586 393.822C357.602 390.281 355.75 385.441 352.834 381.226C350.025 377.163 345.245 372.318 338.145 371.744L336.936 386.695ZM344.208 398.088C345.975 403.686 348.491 407.879 351.831 410.495C355.23 413.159 359.548 414.12 363.375 412.642L357.969 398.65C359.951 397.884 361.122 398.72 361.082 398.688C360.982 398.609 359.764 397.538 358.511 393.571L344.208 398.088ZM362.143 413C366.984 412.032 370.247 408.95 372.218 405.547C374.082 402.327 374.938 398.633 375.338 395.348C376.141 388.745 375.359 381.53 374.45 376.894L359.73 379.779C360.458 383.491 360.997 389.024 360.448 393.536C360.171 395.808 359.682 397.263 359.238 398.029C359.042 398.367 358.932 398.437 358.977 398.402C359 398.384 359.043 398.354 359.101 398.328C359.127 398.315 359.152 398.306 359.171 398.3C359.191 398.293 359.202 398.291 359.201 398.291L362.143 413ZM374.432 376.803C374.163 375.517 374.497 372.467 375.929 368.055C377.238 364.022 379.041 360.104 380.255 357.824L367.014 350.776C365.459 353.697 363.285 358.425 361.662 363.423C360.162 368.043 358.608 374.411 359.749 379.871L374.432 376.803ZM380.414 357.508C387.933 341.62 383.646 326.037 380.249 319.68L367.02 326.751C368.824 330.127 371.82 340.602 366.855 351.091L380.414 357.508ZM380.018 319.278C375.505 311.963 369.236 308.515 363.012 307.697C357.175 306.93 351.871 308.521 348.536 310.332L355.693 323.515C356.763 322.934 358.897 322.285 361.057 322.569C362.831 322.802 365.119 323.696 367.251 327.153L380.018 319.278ZM349.816 309.784C342.457 312.154 339.153 312.693 337.528 312.695L337.553 327.695C341.716 327.688 346.963 326.461 354.414 324.062L349.816 309.784Z" fill="#1C1B1F"/>
<path d="M187 181.541C197.763 179.808 221.699 178.425 231.344 186.755C221.898 187.532 200.942 192.447 192.679 205.887" stroke="#1C1B1F" stroke-width="10" stroke-linecap="round" stroke-linejoin="round"/>
<path d="M343.581 181.541C332.818 179.808 308.882 178.425 299.237 186.755C308.683 187.532 329.639 192.447 337.902 205.887" stroke="#1C1B1F" stroke-width="10" stroke-linecap="round" stroke-linejoin="round"/>
<path d="M156.059 129.726C166.545 111.09 190.057 73.3723 200.21 71.588C210.364 69.8038 228.993 110.926 237.039 131.71" stroke="#1C1B1F" stroke-width="15" stroke-linecap="round"/>
<path d="M371.001 131.643C361.897 112.456 341.188 73.4947 331.186 71.1434C321.183 68.7921 299.589 108.782 290.042 129.071" stroke="#1C1B1F" stroke-width="15" stroke-linecap="round"/>
<path d="M162.847 228.637L82 206" stroke="#1C1B1F" stroke-width="15" stroke-linecap="round"/>
<path d="M158.163 275.746L85.2344 282.028" stroke="#1C1B1F" stroke-width="15" stroke-linecap="round"/>
<path d="M366.583 228.637L447.43 206" stroke="#1C1B1F" stroke-width="15" stroke-linecap="round"/>
<path d="M371.267 275.746L444.195 282.028" stroke="#1C1B1F" stroke-width="15" stroke-linecap="round"/>
<path d="M291.252 213.421C268.337 200.612 246.847 206.953 236.19 213.34C234.514 214.345 234.479 216.663 236.029 217.852C244.886 224.642 258.352 233.89 263.846 233.89C270.624 233.89 283.728 224.52 291.631 218.062C293.18 216.796 292.998 214.397 291.252 213.421Z" fill="#1C1B1F"/>
</svg>
