<svg width="530" height="530" viewBox="0 0 530 530" fill="none" xmlns="http://www.w3.org/2000/svg">
<rect width="530" height="530" fill="white"/>
<ellipse cx="264.625" cy="188.787" rx="27.6254" ry="15.2222" fill="#1C1B1F"/>
<path d="M377 290.294C377 326.907 326.856 339 265 339C203.144 339 153 326.907 153 290.294C153 253.681 203.144 224 265 224C326.856 224 377 253.681 377 290.294Z" fill="#F9F9F9" stroke="#1C1B1F" stroke-width="15"/>
<path d="M111.091 83.7972C152.651 62.328 174.8 77.3127 182.779 90.5411C184.281 93.0305 183.177 96.1259 180.733 97.7C132.919 128.491 114.995 171.467 111.465 191.809C111.189 193.4 110.355 194.863 109.033 195.789C79.517 216.467 60.4643 193.846 57.7637 174.626C51.0277 126.683 90.5083 94.0974 111.091 83.7972Z" fill="#1C1B1F" stroke="#1C1B1F" stroke-width="15" stroke-linecap="round"/>
<path d="M418.909 83.7972C377.349 62.328 355.2 77.3127 347.221 90.5411C345.719 93.0305 346.823 96.1259 349.267 97.7C397.081 128.491 415.005 171.467 418.535 191.809C418.811 193.4 419.645 194.863 420.967 195.789C450.483 216.467 469.536 193.846 472.236 174.626C478.972 126.683 439.492 94.0974 418.909 83.7972Z" fill="#1C1B1F" stroke="#1C1B1F" stroke-width="15" stroke-linecap="round"/>
<path d="M263 204L263 222" stroke="#1C1B1F" stroke-width="15" stroke-linecap="round"/>
<path d="M334.055 316.464C268.408 277.923 208.33 296.758 179.243 315.465C175.402 317.935 176.211 323.483 180.505 325.038C250.898 350.545 307.311 338.348 333.813 325.83C337.763 323.964 337.822 318.676 334.055 316.464Z" fill="#F9F9F9" stroke="#1C1B1F" stroke-width="15" stroke-linecap="round"/>
<path d="M428 437L393 402" stroke="#1C1B1F" stroke-width="20" stroke-linecap="round"/>
<circle cx="335.082" cy="334.082" r="90.5819" fill="#F9F9F9" stroke="#1C1B1F" stroke-width="15"/>
<path d="M322.966 288.923L319.388 295.515L320.002 295.848L320.667 296.062L322.966 288.923ZM337.541 292.195L337.528 299.695L337.541 299.695L337.553 299.695L337.541 292.195ZM301.447 295.216L295.063 291.278L294.941 291.476L294.832 291.68L301.447 295.216ZM301.447 326.3L294.667 329.508L294.743 329.668L294.826 329.824L301.447 326.3ZM307.991 350.337L300.649 348.803L300.64 348.848L300.631 348.894L307.991 350.337ZM314.409 377.646L317.112 370.65L316.511 370.417L315.88 370.291L314.409 377.646ZM323.722 367.829L330.873 370.088L330.913 369.963L330.948 369.837L323.722 367.829ZM337.541 351.22L338.145 343.744L337.541 343.695L336.936 343.744L337.541 351.22ZM351.36 367.829L344.133 369.837L344.168 369.963L344.208 370.088L351.36 367.829ZM360.672 377.646L359.201 370.291L358.57 370.417L357.969 370.65L360.672 377.646ZM367.09 350.337L374.45 348.894L374.441 348.848L374.432 348.803L367.09 350.337ZM373.635 326.3L380.255 329.824L380.338 329.668L380.414 329.508L373.635 326.3ZM373.635 295.216L380.249 291.68L380.14 291.476L380.018 291.278L373.635 295.216ZM352.115 288.923L354.414 296.062L355.079 295.848L355.693 295.515L352.115 288.923ZM320.667 296.062C328.118 298.461 333.365 299.688 337.528 299.695L337.553 284.695C335.928 284.693 332.624 284.154 325.265 281.784L320.667 296.062ZM307.83 299.153C309.962 295.696 312.25 294.802 314.024 294.569C316.184 294.285 318.319 294.934 319.388 295.515L326.545 282.332C323.21 280.521 317.906 278.93 312.069 279.697C305.845 280.515 299.576 283.963 295.063 291.278L307.83 299.153ZM308.226 323.091C303.261 312.602 306.257 302.127 308.061 298.751L294.832 291.68C291.435 298.037 287.148 313.62 294.667 329.508L308.226 323.091ZM315.332 351.871C316.473 346.411 314.919 340.043 313.419 335.423C311.796 330.425 309.622 325.697 308.067 322.776L294.826 329.824C296.04 332.104 297.843 336.022 299.152 340.055C300.584 344.467 300.918 347.517 300.649 348.803L315.332 351.871ZM315.88 370.291C315.879 370.291 315.89 370.293 315.91 370.3C315.929 370.306 315.954 370.315 315.981 370.328C316.038 370.354 316.081 370.384 316.104 370.402C316.149 370.437 316.039 370.367 315.843 370.029C315.399 369.263 314.91 367.808 314.633 365.536C314.084 361.024 314.623 355.491 315.351 351.779L300.631 348.894C299.722 353.53 298.94 360.745 299.743 367.348C300.143 370.633 300.999 374.327 302.863 377.547C304.834 380.95 308.097 384.032 312.938 385L315.88 370.291ZM316.57 365.571C315.317 369.538 314.099 370.609 313.999 370.688C313.959 370.72 315.13 369.884 317.112 370.65L311.706 384.642C315.534 386.12 319.851 385.159 323.25 382.495C326.59 379.879 329.106 375.686 330.873 370.088L316.57 365.571ZM336.936 343.744C329.836 344.318 325.056 349.163 322.247 353.226C319.331 357.441 317.479 362.281 316.495 365.822L330.948 369.837C331.64 367.344 332.905 364.185 334.584 361.758C336.368 359.177 337.66 358.734 338.145 358.695L336.936 343.744ZM336.936 358.695C337.421 358.734 338.713 359.177 340.497 361.758C342.176 364.185 343.441 367.344 344.133 369.837L358.586 365.822C357.602 362.281 355.75 357.441 352.834 353.226C350.025 349.163 345.245 344.318 338.145 343.744L336.936 358.695ZM344.208 370.088C345.975 375.686 348.491 379.879 351.831 382.495C355.23 385.159 359.548 386.12 363.375 384.642L357.969 370.65C359.951 369.884 361.122 370.72 361.082 370.688C360.982 370.609 359.764 369.538 358.511 365.571L344.208 370.088ZM362.143 385C366.984 384.032 370.247 380.95 372.218 377.547C374.082 374.327 374.938 370.633 375.338 367.348C376.141 360.745 375.359 353.53 374.45 348.894L359.73 351.779C360.458 355.491 360.997 361.024 360.448 365.536C360.171 367.808 359.682 369.263 359.238 370.029C359.042 370.367 358.932 370.437 358.977 370.402C359 370.384 359.043 370.354 359.101 370.328C359.127 370.315 359.152 370.306 359.171 370.3C359.191 370.293 359.202 370.291 359.201 370.291L362.143 385ZM374.432 348.803C374.163 347.517 374.497 344.467 375.929 340.055C377.238 336.022 379.041 332.104 380.255 329.824L367.014 322.776C365.459 325.697 363.285 330.425 361.662 335.423C360.162 340.043 358.608 346.411 359.749 351.871L374.432 348.803ZM380.414 329.508C387.933 313.62 383.646 298.037 380.249 291.68L367.02 298.751C368.824 302.127 371.82 312.602 366.855 323.091L380.414 329.508ZM380.018 291.278C375.505 283.963 369.236 280.515 363.012 279.697C357.175 278.93 351.871 280.521 348.536 282.332L355.693 295.515C356.763 294.934 358.897 294.285 361.057 294.569C362.831 294.802 365.119 295.696 367.251 299.153L380.018 291.278ZM349.816 281.784C342.457 284.154 339.153 284.693 337.528 284.695L337.553 299.695C341.716 299.688 346.963 298.461 354.414 296.062L349.816 281.784Z" fill="#1C1B1F"/>
<path d="M187 153.541C197.763 151.808 221.699 150.425 231.344 158.755C221.898 159.532 200.942 164.446 192.679 177.887" stroke="#1C1B1F" stroke-width="10" stroke-linecap="round" stroke-linejoin="round"/>
<path d="M343.581 153.541C332.818 151.808 308.882 150.425 299.237 158.755C308.683 159.532 329.639 164.446 337.902 177.887" stroke="#1C1B1F" stroke-width="10" stroke-linecap="round" stroke-linejoin="round"/>
</svg>
