<svg id="레이어_2" data-name="레이어 2" xmlns="http://www.w3.org/2000/svg" viewBox="0 0 286 260"><path d="M142.43,120.58c-17.71-20.35-17.43-51.5-15.07-64.53,7.53-2.26,17.9,9.42,22.14,15.54a39.81,39.81,0,0,1,14.13-12.71c-4.24-6.6-7.07-17-7.54-22.61,73.48,13.56,88.08,73.16,86.19,101.27.38,50.49-35.64,78.5-53.69,86.19,10.17-13.94,10.52-46.63,9.42-61.23,0-17-10-20.57-15.07-20.25C163.63,139.89,150,129.06,142.43,120.58Z" style="fill:#ffc26f"/><path d="M152.93,32.78a4.68,4.68,0,0,1,4-1.14c38,7,61.2,26.08,74.5,47.31,13.14,21,16.52,43.81,15.56,58.73.31,52.88-37.41,82.22-56.56,90.38a4.71,4.71,0,0,1-5.66-7.11c4.29-5.87,6.85-16.41,8.06-28.08a180.05,180.05,0,0,0,.47-30c0-.12,0-.23,0-.35,0-7.52-2.2-11.3-4.19-13.19a8.19,8.19,0,0,0-5.88-2.36,4.91,4.91,0,0,1-.86,0c-20.81-2.54-35.44-14.19-43.46-23.21l0,0c-9.64-11.07-14.23-24.89-16.17-37.38a99.73,99.73,0,0,1,0-31.08A4.73,4.73,0,0,1,126,51.54a13.62,13.62,0,0,1,9.21.78,29.91,29.91,0,0,1,7.48,4.75A58.21,58.21,0,0,1,149.56,64a42.71,42.71,0,0,1,7.75-6.8,65.15,65.15,0,0,1-5.91-20.53A4.67,4.67,0,0,1,152.93,32.78Zm9,9.53a50.36,50.36,0,0,0,5.64,14,4.72,4.72,0,0,1-1.75,6.7,35.14,35.14,0,0,0-12.51,11.3,4.72,4.72,0,0,1-7.71,0,54.08,54.08,0,0,0-9-10,20.94,20.94,0,0,0-5-3.28l-.17-.07a94.2,94.2,0,0,0,.6,23.91c1.77,11.42,5.88,23.34,13.95,32.62,7,7.87,19.55,17.79,37.16,20.05a17.7,17.7,0,0,1,12.47,5c4.27,4.05,7.08,10.5,7.12,19.84a188.89,188.89,0,0,1-.51,31.53,108.6,108.6,0,0,1-3.44,18.74c17.39-12.1,39.09-36.77,38.8-75,0-.12,0-.23,0-.35.89-13.19-2.12-34.11-14.12-53.27C212.33,66.19,193.34,49.72,162,42.31Z" style="fill:#1c1b1f;fill-rule:evenodd"/><path d="M161.06,84.17A3.89,3.89,0,1,0,166.25,86,3.89,3.89,0,0,0,161.06,84.17Z" style="fill:#1c1b1f"/><path d="M182.27,75.64a3.9,3.9,0,1,0-1.84,5.19A3.91,3.91,0,0,0,182.27,75.64Z" style="fill:#1c1b1f"/><path d="M109.82,144a5.48,5.48,0,1,0,7.31,2.58A5.47,5.47,0,0,0,109.82,144Z" style="fill:#1c1b1f"/><path d="M138.66,130.7a5.48,5.48,0,1,0-2.58,7.3A5.48,5.48,0,0,0,138.66,130.7Z" style="fill:#1c1b1f"/><path d="M92,161.09C51.71,133.58,54.51,96.56,61,81.49,51.9,89.4,45.87,114,44,125.29,39.84,174.65,66.6,209.6,89.21,219c4.71,2,9.42,2.83,11.3,2.36,19.59-1.13,22.63-19.79,21.67-25.91C120,181.34,102.24,166.58,92,161.09Z" style="fill:#ff9b50"/><path d="M63.71,77.67a4.72,4.72,0,0,1,1.57,5.67c-5.7,13.33-8.74,47.7,29.21,73.72a85.7,85.7,0,0,1,19,14.69c6.2,6.37,12,14.46,13.36,23,.64,4.07,0,11.33-3.66,17.84-3.75,6.76-10.67,12.71-22,13.48a17.63,17.63,0,0,1-6.14-.33,42.21,42.21,0,0,1-7.6-2.36C62.64,213.06,35,176,39.3,124.9c0-.13,0-.26,0-.38a165.74,165.74,0,0,1,6-23.9,89.49,89.49,0,0,1,5.25-12.71,34.14,34.14,0,0,1,7.27-10A4.71,4.71,0,0,1,63.71,77.67Zm-15,48.21c-3.92,47.5,21.91,80.28,42.35,88.79a31.08,31.08,0,0,0,5.83,1.82,15.24,15.24,0,0,0,2,.29c.38,0,.55,0,.58,0a5.06,5.06,0,0,1,.78-.12c8-.46,12.3-4.35,14.69-8.66a21.11,21.11,0,0,0,2.59-11.81c-.88-5.6-5-11.95-10.79-17.87a76,76,0,0,0-16.93-13.1,2.91,2.91,0,0,1-.42-.25c-25.64-17.5-34.88-38.85-36.6-56.72A156.35,156.35,0,0,0,48.67,125.88Z" style="fill:#1c1b1f;fill-rule:evenodd"/><path d="M145.75,178.74c6,3.72,13.69,0,17.44-2.1a3.52,3.52,0,0,0,.56-.39c6.73-5.5,5.45-12.36,2.35-15.07-7.42-6.5-19.06-.28-21.83,5.57S143.83,177.18,145.75,178.74Z" style="fill:#ff9b50"/><path d="M178.82,169.69a3.77,3.77,0,0,0-4.87,2.17,6,6,0,0,1-4.25,3.49h0c4.34-6.23,3-13.38-1.11-17-5.06-4.43-11.4-4.32-16.39-2.56s-9.4,5.3-11.32,9.35c-3.52,7.43-.76,13.88,2.5,16.53l.18.15.21.13a16.17,16.17,0,0,0,12.39,1.61c.77-.18,1.52-.4,2.25-.63-.14.28-.28.56-.45.84a14.34,14.34,0,0,1-3.46,3.83c-8.62,4.09-13.69.11-14.92-1.56a3.77,3.77,0,0,0-6.07,4.47c3.22,4.36,12.25,9.78,24.61,3.71l.27-.14.25-.17a22.11,22.11,0,0,0,5.79-6.27,15.29,15.29,0,0,0,1.85-4.6,14.93,14.93,0,0,0,5.3-.37,13.48,13.48,0,0,0,9.41-8.1A3.77,3.77,0,0,0,178.82,169.69Zm-30.83,6c-.69-.73-2.19-3.36-.31-7.33.85-1.79,3.51-4.24,7-5.47s6.57-.94,8.92,1.12c.87.76,2,3.22.48,6.14a12.29,12.29,0,0,1-.28-3.72,2.36,2.36,0,0,0-4.71-.28,15.53,15.53,0,0,0,1.35,7.69c-.21.12-.43.23-.65.34a11.37,11.37,0,0,0-1.58-1.53,23.55,23.55,0,0,0-4.49-2.83,2.35,2.35,0,0,0-2,4.24,19.48,19.48,0,0,1,3.28,2l-.5.13A9,9,0,0,1,148,175.69Z" style="fill:#1c1b1f;fill-rule:evenodd"/><path d="M199.44,89.54A2.83,2.83,0,0,0,194.33,92c.54,1.14.44,4-2.57,7.15a7.19,7.19,0,0,1-4.42,1.52,4.68,4.68,0,0,1-2.5-.86,11.64,11.64,0,0,0,1.57-4.34l0-.16v-.16a6,6,0,0,0-.82-3.36A6,6,0,0,0,181.69,89a9.08,9.08,0,0,0-6.27,1.31A9.71,9.71,0,0,0,171,95.62a5.24,5.24,0,0,0,.09,3.37,6.29,6.29,0,0,0,3.44,3.74,11.66,11.66,0,0,0,4.19.82h.16a11.46,11.46,0,0,1-1,4.27A4.83,4.83,0,0,1,176,110a5,5,0,0,1-3.36.44,2.82,2.82,0,0,0-.87,5.58A9.91,9.91,0,0,0,183,110.24a16.37,16.37,0,0,0,1.32-4.47,10.35,10.35,0,0,0,2.78.51,13,13,0,0,0,8.23-2.76l.19-.14.16-.17C199.68,99.07,201.4,93.69,199.44,89.54Zm-22.85,7.85a.51.51,0,0,1-.09-.18.77.77,0,0,1,.2-.57A5.42,5.42,0,0,1,180,94.57c.29-.06.66-.06.81.2a.73.73,0,0,1,0,.56c-.34,1.08-1,2.6-2.36,2.59a4.53,4.53,0,0,1-1.25-.24A1.12,1.12,0,0,1,176.59,97.39Z" style="fill:#1c1b1f;fill-rule:evenodd"/><path d="M201.23,66a2.83,2.83,0,0,0-3.9.86L190.6,77.46a2.83,2.83,0,0,0,4.77,3l6.73-10.58A2.82,2.82,0,0,0,201.23,66Z" style="fill:#1c1b1f;fill-rule:evenodd"/><path d="M211.41,75.72a2.5,2.5,0,0,0-3.54-.69l-9.5,6.74a2.68,2.68,0,0,0-.66,3.66,2.49,2.49,0,0,0,3.53.68l9.51-6.74A2.69,2.69,0,0,0,211.41,75.72Z" style="fill:#1c1b1f;fill-rule:evenodd"/><path d="M143.93,103.16a2.83,2.83,0,0,1,2.33-3.38l10.12-2.1a3.1,3.1,0,0,1,3.7,2.13,2.83,2.83,0,0,1-2.33,3.38l-10.12,2.1A3.11,3.11,0,0,1,143.93,103.16Z" style="fill:#1c1b1f;fill-rule:evenodd"/><path d="M148.9,115.22a2.59,2.59,0,0,1,.84-3.59l9.84-6.08a2.65,2.65,0,0,1,3.63.81,2.57,2.57,0,0,1-.84,3.58L152.53,116A2.65,2.65,0,0,1,148.9,115.22Z" style="fill:#1c1b1f;fill-rule:evenodd"/></svg>