<svg width="1000" height="260" viewBox="0 0 1000 260" fill="none" xmlns="http://www.w3.org/2000/svg">
<path d="M262.58 239.1V216.1H271.58C276.82 216.1 279.8 219.3 279.8 223.84C279.8 228.38 276.75 231.58 271.46 231.58H267.33V239.07L262.58 239.1ZM267.34 227.77H270.7C273.53 227.77 274.89 226.19 274.89 223.87C274.89 221.55 273.53 220 270.7 220H267.34V227.77ZM300 239.45C294.74 239.45 291.5 236.02 291.5 230.56C291.5 225.1 294.77 221.65 299.81 221.65C304.35 221.65 307.9 224.5 307.9 230.37V231.71H296.12C296.12 234.31 297.68 235.93 300.12 235.93C300.767 235.987 301.415 235.851 301.985 235.539C302.554 235.228 303.019 234.755 303.32 234.18H307.8C307.1 237.35 304.25 239.45 300 239.45ZM296.13 228.76H303.46C303.484 228.286 303.409 227.812 303.24 227.368C303.07 226.924 302.81 226.521 302.476 226.183C302.142 225.845 301.742 225.581 301.3 225.406C300.858 225.232 300.385 225.151 299.91 225.17C299.425 225.157 298.943 225.239 298.49 225.412C298.037 225.586 297.623 225.846 297.271 226.18C296.919 226.513 296.636 226.913 296.439 227.355C296.241 227.798 296.133 228.275 296.12 228.76H296.13ZM329.68 221.87V225.39H326.44V233.8C326.44 235.16 327.11 235.51 328.06 235.55C328.53 235.55 329.36 235.55 329.93 235.45V239.16C329.1 239.287 328.26 239.341 327.42 239.32C324.03 239.32 321.71 237.8 321.74 234.47V225.39H319.36V221.87H321.74V217.75H326.44V221.87H329.68ZM359.68 216.13H365.58L372 231.71H372.26L378.63 216.13H384.53V239.13H379.9V224.13H379.71L373.71 239.07H370.54L364.54 224.07H364.35V239.17H359.71L359.68 216.13ZM405.82 239.45C400.55 239.45 397.32 236.02 397.32 230.56C397.32 225.1 400.59 221.65 405.63 221.65C410.17 221.65 413.72 224.5 413.72 230.37V231.71H402C402 234.31 403.55 235.93 406 235.93C406.646 235.984 407.294 235.847 407.863 235.536C408.432 235.225 408.897 234.753 409.2 234.18H413.67C412.94 237.35 410.08 239.45 405.83 239.45H405.82ZM402 228.76H409.33C409.354 228.286 409.279 227.812 409.11 227.368C408.94 226.924 408.68 226.521 408.346 226.183C408.012 225.845 407.612 225.581 407.17 225.406C406.728 225.232 406.255 225.151 405.78 225.17C404.803 225.146 403.856 225.51 403.148 226.183C402.439 226.856 402.026 227.783 402 228.76ZM432.81 239.39C428.88 239.39 425.81 236.24 425.81 230.5C425.81 224.6 429.02 221.65 432.81 221.65C433.847 221.596 434.875 221.867 435.752 222.424C436.628 222.982 437.309 223.798 437.7 224.76H437.86V216.13H442.55V239.13H437.92V236.37H437.7C437.281 237.313 436.585 238.107 435.704 238.646C434.824 239.185 433.801 239.445 432.77 239.39H432.81ZM434.27 235.64C436.62 235.64 437.95 233.58 437.95 230.47C437.95 227.36 436.62 225.39 434.27 225.39C431.92 225.39 430.62 227.46 430.62 230.47C430.62 233.48 431.85 235.64 434.23 235.64H434.27ZM456 239.1V221.87H460.69V239.1H456ZM458.34 219.62C457.872 219.593 457.421 219.429 457.045 219.148C456.669 218.867 456.383 218.482 456.223 218.041C456.064 217.6 456.037 217.121 456.146 216.665C456.256 216.208 456.497 215.794 456.839 215.473C457.182 215.152 457.611 214.938 458.073 214.859C458.536 214.779 459.012 214.837 459.442 215.025C459.872 215.213 460.237 215.523 460.493 215.917C460.749 216.311 460.883 216.771 460.88 217.24C460.852 217.883 460.575 218.49 460.109 218.934C459.643 219.377 459.024 219.623 458.38 219.62H458.34ZM481.83 239.45C476.56 239.45 473.39 235.8 473.39 230.53C473.39 225.26 476.59 221.65 481.83 221.65C486.27 221.65 489.29 224.25 489.47 228.19H485.1C485.041 227.394 484.68 226.651 484.091 226.114C483.501 225.576 482.728 225.285 481.93 225.3C479.68 225.3 478.19 227.2 478.19 230.47C478.19 233.74 479.65 235.7 481.93 235.7C482.724 235.726 483.497 235.443 484.088 234.912C484.679 234.381 485.041 233.642 485.1 232.85H489.51C489.29 236.75 486.44 239.45 481.87 239.45H481.83ZM501.32 234.28C501.32 230.44 504.43 229.17 507.72 228.98C508.96 228.9 511.28 228.79 512.01 228.76V227.36C512.01 225.93 511.01 225.08 509.25 225.08C507.49 225.08 506.65 225.81 506.39 226.98H502C502.28 223.98 504.89 221.65 509.45 221.65C513.2 221.65 516.75 223.33 516.75 227.49V239.1H512.31V236.72H512.18C511.689 237.598 510.958 238.319 510.073 238.797C509.187 239.275 508.184 239.491 507.18 239.42C503.8 239.42 501.36 237.7 501.36 234.28H501.32ZM505.82 234.15C505.82 235.48 506.9 236.15 508.39 236.15C508.843 236.188 509.3 236.134 509.731 235.989C510.162 235.845 510.56 235.614 510.899 235.311C511.238 235.007 511.511 234.638 511.702 234.225C511.893 233.812 511.998 233.365 512.01 232.91V231.65C511.29 231.65 509.3 231.79 508.49 231.87C506.91 232.06 505.86 232.82 505.86 234.15H505.82ZM534.7 216.15V239.15H530V216.15H534.7ZM577.89 222.72C577.7 220.91 576.24 219.83 573.89 219.83C571.54 219.83 570.14 220.94 570.11 222.46C570.08 223.98 571.82 224.87 573.79 225.32L575.85 225.83C579.79 226.71 582.74 228.71 582.74 232.55C582.74 236.77 579.44 239.44 573.85 239.44C568.26 239.44 564.75 236.87 564.62 231.95H569.25C569.41 234.27 571.25 235.44 573.79 235.44C576.33 235.44 577.92 234.27 577.92 232.55C577.92 231 576.49 230.27 573.98 229.63L571.48 229.03C567.61 228.08 565.23 226.14 565.23 222.78C565.23 218.59 568.91 215.83 573.92 215.83C578.93 215.83 582.36 218.66 582.42 222.72H577.89ZM603.35 239.47C598.08 239.47 594.84 236.04 594.84 230.58C594.84 225.12 598.11 221.67 603.15 221.67C607.69 221.67 611.25 224.52 611.25 230.39V231.73H599.51C599.51 234.33 601.07 235.95 603.51 235.95C604.157 236.007 604.805 235.871 605.375 235.559C605.944 235.248 606.409 234.775 606.71 234.2H611.19C610.49 237.35 607.64 239.45 603.39 239.45L603.35 239.47ZM599.47 228.78H606.8C606.824 228.306 606.749 227.832 606.58 227.388C606.41 226.944 606.15 226.541 605.816 226.203C605.482 225.865 605.082 225.601 604.64 225.426C604.198 225.252 603.725 225.171 603.25 225.19C602.283 225.177 601.35 225.543 600.65 226.211C599.951 226.878 599.541 227.794 599.51 228.76L599.47 228.78ZM624 239.1V221.87H628.54V224.87H628.73C628.949 223.937 629.482 223.108 630.239 222.52C630.996 221.932 631.932 221.622 632.89 221.64C633.391 221.641 633.89 221.694 634.38 221.8V226C633.724 225.845 633.054 225.761 632.38 225.75C631.898 225.727 631.417 225.803 630.966 225.974C630.514 226.145 630.103 226.407 629.758 226.743C629.413 227.08 629.141 227.485 628.959 227.932C628.776 228.378 628.689 228.858 628.7 229.34V239.14L624 239.1ZM662.94 221.87L656.88 239.1H651.61L645.61 221.87H650.61L654.23 234.25H654.42L658.04 221.87H662.94ZM674.94 239.1V221.87H679.64V239.1H674.94ZM677.29 219.62C676.821 219.593 676.371 219.429 675.995 219.148C675.619 218.867 675.333 218.482 675.173 218.041C675.014 217.6 674.987 217.121 675.096 216.665C675.206 216.208 675.447 215.794 675.789 215.473C676.132 215.152 676.561 214.938 677.023 214.859C677.486 214.779 677.962 214.837 678.392 215.025C678.822 215.213 679.187 215.523 679.443 215.917C679.699 216.311 679.833 216.771 679.83 217.24C679.804 217.889 679.524 218.502 679.051 218.947C678.578 219.392 677.949 219.634 677.3 219.62H677.29ZM700.77 239.45C695.5 239.45 692.33 235.8 692.33 230.53C692.33 225.26 695.54 221.65 700.77 221.65C705.21 221.65 708.23 224.25 708.42 228.19H704C703.939 227.395 703.577 226.654 702.988 226.117C702.399 225.58 701.627 225.288 700.83 225.3C698.57 225.3 697.08 227.2 697.08 230.47C697.08 233.74 698.54 235.7 700.83 235.7C701.623 235.723 702.395 235.44 702.985 234.909C703.575 234.379 703.939 233.641 704 232.85H708.41C708.21 236.75 705.35 239.45 700.78 239.45H700.77ZM728.89 239.45C723.62 239.45 720.39 236.02 720.39 230.56C720.39 225.1 723.65 221.65 728.7 221.65C733.24 221.65 736.79 224.5 736.79 230.37V231.71H725C725 234.31 726.55 235.93 729 235.93C729.648 235.986 730.298 235.85 730.869 235.539C731.439 235.227 731.906 234.755 732.21 234.18H736.68C736 237.35 733.15 239.45 728.9 239.45H728.89ZM725 228.76H732.33C732.353 228.285 732.276 227.811 732.106 227.367C731.935 226.923 731.674 226.52 731.34 226.182C731.005 225.845 730.603 225.58 730.161 225.406C729.719 225.232 729.245 225.152 728.77 225.17C727.795 225.149 726.851 225.514 726.144 226.187C725.438 226.86 725.026 227.785 725 228.76Z" fill="#666666"/>
<path fill-rule="evenodd" clip-rule="evenodd" d="M818.54 76.2799C812.334 72.4666 807.017 70.5599 802.59 70.5599C796.537 69.8599 789.084 70.5266 780.23 72.5599C770.126 74.9436 760.819 79.9246 753.23 87.0099C750.185 90.1212 747.878 93.8771 746.48 97.9999C741.454 113.42 739.33 128.293 740.11 142.62C740.155 145.131 740.396 147.636 740.83 150.11C742.697 166.777 744.82 176.303 747.2 178.69C753.56 184.321 761.797 187.368 770.29 187.23C772.22 187.246 774.135 186.89 775.93 186.18C778.724 184.327 780.26 180.297 780.54 174.09C782.8 174.09 785.04 174.03 787.15 173.86C787.77 179.193 788.897 182.817 790.53 184.73C794.711 189.643 800.394 193.042 806.7 194.4C809.578 195.119 812.612 194.866 815.33 193.68C821.964 188.347 826.707 179.183 829.56 166.19C831.765 152.487 832.942 138.638 833.08 124.76C832.627 112.76 831.574 103.84 829.92 97.9999C827.48 88.3666 823.687 81.1266 818.54 76.2799Z" fill="white"/>
<path d="M870.331 54.0799C877.538 53.0799 881.871 56.8565 883.331 65.4099C890.231 98.2699 894.241 121.32 889.681 143.81C897.561 139.81 898.421 139.34 898.451 139.61C909.784 135.61 918.474 133.277 924.521 132.61C932.521 132.27 938.161 133.633 941.441 136.7C942.831 138.11 943.851 141.07 944.501 145.6C946.501 158.62 945.991 169.62 942.971 178.6C939.964 182.96 935.494 185.873 929.561 187.34C916.654 191.271 903.322 193.638 889.851 194.39C876.811 195.89 865.454 193.557 855.781 187.39C850.501 178.763 847.248 166.853 846.021 151.66C840.688 105.5 839.254 79.0432 841.721 72.2899C842.721 67.0299 844.864 63.4299 848.151 61.4899C854.321 57.5199 858.831 55.3999 870.331 54.0799Z" fill="white"/>
<path d="M711.62 42.5195C720.46 42.5195 728.023 45.0595 734.31 50.1395C736.787 52.9014 738.51 56.2564 739.31 59.8795C741.103 77.9595 740.37 92.9195 737.11 104.76C735.723 110.206 733.2 114.316 729.54 117.09C724.913 119.23 714.286 119.96 697.66 119.28L698.83 146.18C698.463 163.92 697.076 176.273 694.67 183.24C692.33 188.86 689.33 192.6 685.67 194.46C683.17 196.08 679.583 196.873 674.91 196.84C666.183 196.273 660.463 194.803 657.75 192.43C654.603 190.896 651.423 183.06 648.21 168.92C646.066 158.689 644.994 148.262 645.01 137.81C645.01 131.41 645.366 123.236 646.08 113.29C641.136 112.671 636.248 111.668 631.46 110.29C624.168 108.825 617.32 105.678 611.46 101.1C608.28 97.6862 606.686 90.1062 606.68 78.3595C607.433 69.3929 610.226 63.0129 615.06 59.2195C619.76 55.7662 628.933 52.9762 642.58 50.8495C664.44 47.0962 687.453 44.3195 711.62 42.5195Z" fill="white"/>
<path d="M563.551 60.5397C571.331 60.5397 581.241 62.4097 593.281 66.1497C596.368 67.3102 598.903 69.592 600.381 72.5397C603.039 87.5179 601.548 102.938 596.071 117.13C592.858 123.356 586.651 126.473 577.451 126.48H573.001C565.936 126.349 558.967 124.826 552.491 122C551.477 121.557 550.395 121.294 549.291 121.22C549.291 121.5 549.161 121.64 548.891 121.64C549.431 126.113 549.971 128.346 550.511 128.34H558.001C563.821 128.34 566.731 129.723 566.731 132.49C567.001 132.49 567.131 132.98 567.131 133.94V134.72C567.131 141.26 563.021 146.643 554.801 150.87C551.661 151.18 550.081 151.79 550.081 152.69C550.631 153.1 552.721 153.48 556.381 153.83C558.001 153.83 568.568 152.463 588.081 149.73C593.968 149.73 598.061 151.73 600.361 155.73C604.42 161.14 606.642 167.707 606.701 174.47C606.968 181.463 604.854 186.846 600.361 190.62C595.834 195.36 584.351 198.213 565.911 199.18C554.553 199.041 543.237 197.772 532.131 195.39C527.658 194.35 522.278 193.123 515.991 191.71L506.101 187.19C504.608 186.25 503.408 183.516 502.501 178.99L499.001 158.72C497.441 151 496.644 140.876 496.611 128.35C496.111 122.883 496.248 114.903 497.021 104.41C498.881 86.4097 501.518 76.4097 504.931 74.4097C513.731 68.2097 524.824 64.0897 538.211 62.0497C546.609 60.9284 555.079 60.4237 563.551 60.5397Z" fill="white"/>
<path d="M318.48 51.2303C328.77 48.7003 335.48 49.2303 342.21 51.0803C347.61 53.7603 351.08 56.9903 352.32 61.9803C353.98 68.7203 354.79 76.3903 348.44 84.0703C345.58 86.7603 340.28 87.1203 332.93 86.7303C319.53 87.6303 311.75 93.7303 306.71 103.39C306.223 108.597 308.503 110.074 313.55 107.82C318.016 106.714 324.7 103.844 333.6 99.2103C347.766 93.3503 359.343 91.457 368.33 93.5303C379.183 98.237 385.683 105.8 387.83 116.22C389.456 123.554 389.123 131.887 386.83 141.22C384.3 148.168 380.899 154.768 376.71 160.86C368.71 171.467 352.91 183.434 329.31 196.76C324.228 199.19 318.945 201.174 313.52 202.69C303.393 205.184 295.123 205.724 288.71 204.31C281.503 202.35 277.123 198.217 275.57 191.91C274.101 186.361 273.321 180.651 273.25 174.91C272.85 170.47 273.563 164.82 275.39 157.96C277.503 153.334 279.606 150.76 281.7 150.24C283.793 149.227 292.883 148.344 308.97 147.59C319.989 146.102 330.522 142.11 339.76 135.92C350.513 127.207 355.363 121.36 354.31 118.38C353.643 115.714 350.71 115.477 345.51 117.67C339.63 119.964 329.816 125.12 316.07 133.14C311.32 135.649 306.283 137.573 301.07 138.87C293.503 141.257 287.03 140.31 281.65 136.03C276.438 130.185 272.689 123.187 270.71 115.61C266.543 98.6903 270.833 83.937 283.58 71.3503C285.473 68.1303 291.366 63.6803 301.26 58.0003C306.74 55.1328 312.514 52.8631 318.48 51.2303Z" fill="white"/>
<path d="M139.799 60.4902C152.359 60.4902 160.329 65.6702 163.709 76.0302C164.921 80.6023 165.688 85.2807 165.999 90.0002C166.773 99.8802 167.106 109.627 166.999 119.24C166.659 145.334 165.966 164.284 164.919 176.09C164.527 181.753 163.593 187.366 162.129 192.85C161.507 195.057 160.416 197.104 158.929 198.85C154.829 201.037 149.246 202.37 142.179 202.85C132.179 203.13 124.209 201.54 118.269 198.08C116.309 195.88 114.976 189.5 114.269 178.94V158.16C106.549 157.654 102.689 158.06 102.689 159.38C102.689 164.047 100.439 174.284 95.9394 190.09C93.606 194.864 90.9394 197.25 87.9394 197.25C75.7194 197.25 67.836 194.984 64.2894 190.45C61.5702 187.732 59.4424 184.48 58.0394 180.9C56.4194 177.18 55.086 165.134 54.0394 144.76C53.466 126.094 53.466 113.014 54.0394 105.52C55.6394 90.8002 57.896 82.2936 60.8094 80.0002C64.1427 74.3069 73.3327 70.4469 88.3794 68.4202C99.7127 66.7336 105.159 83.0669 104.719 117.42C104.719 118.374 107.649 119.304 113.509 120.21C114.589 120.21 115.383 107.977 115.889 83.5102C116.809 72.2369 118.536 65.5702 121.069 63.5102C126.149 61.4969 132.393 60.4902 139.799 60.4902Z" fill="white"/>
<path d="M265.79 114C263.79 103.7 259.947 94.9598 254.26 87.7798C253.48 87.0098 252.69 86.3098 251.89 85.6398C252.629 84.7173 252.986 83.5475 252.89 82.3698C252.32 74.2498 249.31 62.5798 240.3 63.9898C237.67 64.2998 231.19 67.7998 224.68 78.9898C224.55 79.2201 224.44 79.4609 224.35 79.7098C222.214 80.1134 220.121 80.7195 218.1 81.5198C217.887 80.7668 217.488 80.0792 216.94 79.5198C211 73.5998 200.65 66.3998 193.5 71.9998C190.42 74.4098 189.17 83.4498 191.26 97.1398C191.371 97.9406 191.685 98.6998 192.171 99.3455C192.658 99.9913 193.301 100.502 194.04 100.83C190.774 104.83 188.814 107.543 188.16 108.97C184.544 114.981 181.479 121.307 179 127.87C175.573 137.104 173.73 146.851 173.55 156.7C173.436 164.691 175.171 172.6 178.62 179.81C183.67 188.91 187.12 192.66 199.36 194.81C208.23 195.35 216.9 194.18 220.69 192.1C227.91 188.98 234.69 184.4 242.35 178.02C253.11 168.71 257.93 158.28 261.44 150.17C264.347 143.71 265.974 137.96 266.32 132.92C266.933 126.616 266.755 120.26 265.79 114ZM201 81.4598C201.67 81.2698 203.29 81.3998 205.62 82.6798C207.95 83.9598 208.62 87.2998 206.39 88.8998C205.451 89.5769 204.382 90.0535 203.25 90.2998C202.757 90.3794 202.252 90.3603 201.766 90.2437C201.28 90.1271 200.822 89.9153 200.419 89.6205C200.015 89.3257 199.674 88.9537 199.415 88.5262C199.156 88.0987 198.985 87.6241 198.91 87.1298C198.4 84.6598 198.57 81.9998 201 81.4598ZM239.92 74.6898C242.27 74.2998 243.4 76.5898 243.92 78.9698C244.045 79.543 244.045 80.1365 243.92 80.7098C242.223 80.0088 240.457 79.4893 238.65 79.1598C237.65 79.0798 236.59 79.0298 235.59 78.9898C235.734 78.4453 235.986 77.9353 236.33 77.4898C237.83 75.4898 239.23 74.7698 239.89 74.6898H239.92Z" fill="white"/>
<path d="M205.59 82.6799C203.26 81.3999 201.59 81.2699 200.97 81.4599C198.57 82.0199 198.4 84.6599 198.88 87.1299C198.954 87.6241 199.126 88.0988 199.385 88.5263C199.643 88.9538 199.985 89.3258 200.388 89.6206C200.792 89.9154 201.25 90.1272 201.736 90.2438C202.222 90.3604 202.726 90.3795 203.22 90.2999C204.351 90.0536 205.42 89.577 206.36 88.8999C208.61 87.2999 208 83.9999 205.59 82.6799Z" fill="#1C1B1F"/>
<path d="M239.889 74.6901C239.229 74.7701 237.829 75.4901 236.229 77.4901C234.629 79.4901 235.229 82.7301 237.849 83.3101C238.939 83.5638 240.069 83.591 241.169 83.3901C241.634 83.2785 242.073 83.0765 242.459 82.7955C242.846 82.5145 243.174 82.16 243.424 81.7523C243.673 81.3447 243.841 80.8918 243.915 80.4195C243.99 79.9473 243.971 79.465 243.859 79.0001C243.369 76.5901 242.239 74.3001 239.889 74.6901Z" fill="#1C1B1F"/>
<path d="M840.001 40.6997C841.646 42.4307 842.74 44.6112 843.145 46.9648C843.549 49.3185 843.246 51.7393 842.274 53.9204C841.301 56.1015 839.702 57.9447 837.681 59.2163C835.659 60.488 833.306 61.1308 830.919 61.0634C828.532 60.996 826.218 60.2214 824.272 58.8377C822.325 57.454 820.833 55.5236 819.985 53.291C819.137 51.0585 818.971 48.6245 819.508 46.2974C820.045 43.9704 821.26 41.8551 823.001 40.2197C825.323 38.0375 828.414 36.8631 831.6 36.9531C834.785 37.043 837.805 38.39 840.001 40.6997Z" fill="white"/>
<path d="M867.56 21.2696C869.206 22.9996 870.302 25.1795 870.708 27.5329C871.114 29.8863 870.812 32.3073 869.841 34.489C868.869 36.6707 867.272 38.5148 865.251 39.7877C863.231 41.0606 860.878 41.7048 858.49 41.6388C856.103 41.5728 853.789 40.7995 851.842 39.417C849.895 38.0344 848.402 36.1048 847.552 33.8728C846.703 31.6408 846.535 29.2068 847.071 26.8794C847.606 24.552 848.821 22.436 850.56 20.7996C852.881 18.6162 855.972 17.44 859.157 17.528C862.342 17.6161 865.363 18.9613 867.56 21.2696Z" fill="white"/>
<path d="M899.66 34.9999C901.306 36.7299 902.402 38.9098 902.808 41.2632C903.214 43.6166 902.912 46.0376 901.94 48.2193C900.969 50.401 899.372 52.2451 897.351 53.518C895.33 54.7909 892.977 55.4351 890.59 55.3691C888.203 55.3031 885.889 54.5298 883.941 53.1473C881.994 51.7647 880.501 49.8351 879.652 47.6031C878.802 45.371 878.635 42.9371 879.17 40.6097C879.706 38.2823 880.92 36.1663 882.66 34.5299C884.982 32.3489 888.072 31.1744 891.256 31.2624C894.441 31.3505 897.462 32.6939 899.66 34.9999Z" fill="white"/>
<path fill-rule="evenodd" clip-rule="evenodd" d="M788.509 107.74C787.048 107.207 785.483 107.02 783.937 107.194C782.391 107.367 780.906 107.896 779.599 108.74C778.249 109.55 776.399 113.29 776.529 119.11H775.789C773.039 119 767.169 119.5 765.789 122.35C765.135 123.734 764.837 125.259 764.923 126.787C765.008 128.315 765.474 129.798 766.279 131.1C767.079 132.45 771.279 134.47 777.129 134.34C777.314 137.009 777.722 139.659 778.349 142.26C778.559 143.83 780.709 146.77 787.579 145.99C788.979 145.93 791.729 143.59 791.469 134.65C791.469 134.4 791.469 134.13 791.469 133.85C794.434 133.666 797.378 133.231 800.269 132.55C801.769 132.35 803.939 130.37 803.429 124.14C803.38 123.6 803.238 123.072 803.009 122.58C802.009 120.44 800.699 119.2 792.659 119.43H791.799C791.799 118.69 791.799 118.14 791.799 117.83C791.859 115 791.359 109.17 788.509 107.74Z" fill="#1C1B1F"/>
<path d="M229.789 124.07C229.738 124.925 229.435 125.746 228.917 126.429C228.399 127.111 227.691 127.625 226.881 127.905C226.072 128.185 225.197 128.218 224.369 128.001C223.54 127.784 222.795 127.326 222.227 126.685C221.658 126.044 221.293 125.249 221.177 124.4C221.061 123.551 221.199 122.687 221.574 121.917C221.949 121.147 222.543 120.505 223.283 120.073C224.023 119.641 224.874 119.438 225.729 119.49C226.875 119.56 227.946 120.081 228.707 120.94C229.468 121.799 229.857 122.925 229.789 124.07Z" fill="#1C1B1F"/>
<path d="M250.521 122.08C250.468 122.935 250.163 123.754 249.644 124.436C249.125 125.117 248.417 125.629 247.607 125.907C246.797 126.186 245.923 126.218 245.096 125.999C244.268 125.781 243.523 125.322 242.956 124.681C242.389 124.04 242.024 123.245 241.909 122.397C241.793 121.548 241.932 120.685 242.307 119.915C242.682 119.146 243.277 118.505 244.016 118.073C244.756 117.641 245.606 117.439 246.461 117.49C247.029 117.525 247.585 117.671 248.096 117.92C248.608 118.17 249.065 118.517 249.442 118.944C249.82 119.37 250.109 119.866 250.294 120.405C250.479 120.943 250.556 121.512 250.521 122.08Z" fill="#1C1B1F"/>
<path d="M473.549 94.75C470.259 91.86 465.919 91.65 461.689 93.14C457.459 94.63 453.899 97.72 452.689 100.27C450.129 105.69 452.259 109.54 453.529 110.7C456.099 112.22 459.149 112.3 462.319 111.57C462.866 111.443 463.406 111.293 463.939 111.12C463.605 110.756 463.24 110.422 462.849 110.12C461.585 109.123 460.217 108.265 458.769 107.56C458.449 107.406 458.163 107.19 457.927 106.925C457.69 106.66 457.509 106.351 457.392 106.016C457.275 105.681 457.225 105.326 457.245 104.971C457.265 104.617 457.355 104.27 457.509 103.95C457.664 103.63 457.879 103.344 458.144 103.108C458.409 102.871 458.718 102.689 459.053 102.572C459.388 102.455 459.743 102.406 460.098 102.426C460.452 102.446 460.799 102.536 461.119 102.69C462.955 103.573 464.686 104.66 466.279 105.93C467.185 106.645 467.984 107.487 468.649 108.43C468.779 108.62 468.899 108.83 469.019 109.05L469.629 108.73C467.777 105.647 466.96 102.051 467.299 98.47C467.342 97.7539 467.667 97.084 468.203 96.6077C468.74 96.1313 469.443 95.8876 470.159 95.93C470.875 95.9724 471.545 96.2976 472.022 96.834C472.498 97.3703 472.742 98.0739 472.699 98.79C472.493 100.915 472.837 103.057 473.699 105.01C476.829 100.54 475.329 96.3 473.549 94.75Z" fill="white"/>
<path d="M474.181 116C473.941 118.246 473.199 120.409 472.011 122.33C470.404 124.951 468.298 127.231 465.811 129.04L465.631 129.17L465.431 129.27C451.991 135.87 442.431 129.93 439.171 125.5C438.96 125.213 438.807 124.888 438.721 124.543C438.635 124.197 438.618 123.839 438.671 123.487C438.724 123.135 438.846 122.797 439.029 122.492C439.213 122.187 439.455 121.921 439.741 121.71C440.027 121.498 440.352 121.345 440.698 121.26C441.043 121.174 441.402 121.157 441.754 121.21C442.106 121.263 442.444 121.384 442.749 121.568C443.054 121.752 443.32 121.993 443.531 122.28C445.371 124.78 452.081 129.69 462.841 124.51C464.645 123.138 466.178 121.443 467.361 119.51C468.211 118.183 468.71 116.662 468.811 115.09C467.108 115.825 465.345 116.414 463.541 116.85C459.541 117.77 454.791 117.85 450.541 115.2L450.391 115.11L450.261 115C447.091 112.42 444.111 105.81 447.831 97.9997C449.831 93.8297 454.621 89.9997 459.921 88.0897C465.221 86.1797 471.921 86.0897 477.151 90.7197C481.801 94.7997 483.151 103.72 475.901 110.83C477.234 111.033 478.595 110.965 479.901 110.63C481.23 110.341 482.469 109.736 483.514 108.865C484.559 107.995 485.378 106.885 485.901 105.63C486.088 105.14 486.415 104.715 486.841 104.41C485.97 97.3577 484.293 90.429 481.841 83.7597C474.201 67.9197 461.381 62.423 443.381 67.2697C435.921 68.503 425.794 72.2964 413.001 78.6497C404.474 82.9564 399.901 86.1764 399.281 88.3097C397.081 90.2297 397.018 100.17 399.091 118.13C402.584 147.563 407.951 171.156 415.191 188.91C417.671 194.556 420.164 197.453 422.671 197.6C444.224 191.2 454.451 184.173 453.351 176.52C450.351 165.94 447.404 155.57 444.511 145.41C454.984 145.976 462.481 145.89 467.001 145.15C475.081 143.97 481.131 138.7 485.151 129.34C486.621 123.896 487.351 118.279 487.321 112.64C485.565 114.165 483.476 115.258 481.221 115.83C478.92 116.436 476.509 116.494 474.181 116Z" fill="white"/>
<path d="M485.879 105.57C485.356 106.825 484.537 107.935 483.493 108.805C482.448 109.676 481.208 110.281 479.879 110.57C478.573 110.905 477.213 110.973 475.879 110.77C483.089 103.67 481.779 94.7697 477.129 90.6597C471.899 86.0797 465.289 86.1297 459.899 88.0297C454.509 89.9297 449.769 93.7797 447.799 97.9997C444.079 105.86 447.059 112.47 450.229 115L450.359 115.11L450.509 115.2C454.789 117.86 459.509 117.77 463.509 116.85C465.313 116.414 467.076 115.825 468.779 115.09C468.679 116.662 468.18 118.183 467.329 119.51C466.146 121.443 464.613 123.138 462.809 124.51C452.049 129.69 445.339 124.78 443.499 122.28C443.288 121.993 443.022 121.752 442.717 121.568C442.412 121.384 442.074 121.263 441.722 121.21C441.371 121.157 441.012 121.174 440.666 121.259C440.321 121.345 439.996 121.498 439.709 121.71C439.423 121.921 439.181 122.187 438.998 122.492C438.814 122.797 438.692 123.135 438.64 123.487C438.587 123.839 438.603 124.197 438.689 124.543C438.775 124.888 438.928 125.213 439.139 125.5C442.409 129.93 451.959 135.87 465.399 129.27L465.599 129.17L465.779 129.04C468.266 127.231 470.373 124.951 471.979 122.33C473.168 120.409 473.909 118.246 474.149 116C476.461 116.501 478.858 116.456 481.149 115.87C483.404 115.298 485.493 114.205 487.249 112.68C487.24 109.909 487.073 107.141 486.749 104.39C486.355 104.694 486.054 105.103 485.879 105.57ZM473.729 104.97C472.868 103.017 472.523 100.874 472.729 98.7497C472.75 98.3951 472.701 98.0399 472.585 97.7042C472.469 97.3686 472.288 97.0592 472.052 96.7936C471.816 96.528 471.53 96.3115 471.211 96.1564C470.891 96.0013 470.544 95.9107 470.189 95.8897C469.835 95.8687 469.48 95.9177 469.144 96.034C468.808 96.1502 468.499 96.3315 468.233 96.5673C467.968 96.8032 467.751 97.0891 467.596 97.4086C467.441 97.7281 467.35 98.0751 467.329 98.4297C466.99 102.011 467.807 105.606 469.659 108.69L468.999 109C468.879 108.78 468.759 108.57 468.629 108.38C467.964 107.437 467.166 106.595 466.259 105.88C464.666 104.61 462.935 103.523 461.099 102.64C460.78 102.485 460.433 102.396 460.078 102.375C459.724 102.355 459.369 102.405 459.034 102.522C458.698 102.639 458.389 102.821 458.124 103.057C457.86 103.294 457.644 103.58 457.489 103.9C457.335 104.219 457.245 104.566 457.225 104.921C457.205 105.275 457.255 105.63 457.372 105.966C457.489 106.301 457.671 106.61 457.907 106.875C458.143 107.14 458.43 107.355 458.749 107.51C460.197 108.214 461.565 109.073 462.829 110.07C463.221 110.371 463.585 110.706 463.919 111.07C463.393 111.236 462.853 111.386 462.299 111.52C459.129 112.25 456.079 112.17 453.509 110.65C452.239 109.49 450.109 105.65 452.669 100.22C453.879 97.6697 457.349 94.6097 461.669 93.0897C465.989 91.5697 470.239 91.8097 473.529 94.6997C475.329 96.2997 476.829 100.54 473.729 105V104.97Z" fill="#1C1B1F"/>
<path d="M419.19 43.5002C413.01 35.6102 406.12 36.5002 402.65 39.6802C399.56 43.0002 399.78 48.0002 400.27 50.0002C404.71 61.7002 420.83 66.0002 423.01 64.6702C427.12 62.1202 422.93 48.2302 419.19 43.5002Z" fill="white"/>
<path d="M384.641 48.5902C380.561 47.4102 371.401 46.8402 367.421 54.0502C365.971 56.4644 365.332 59.2798 365.598 62.0836C365.864 64.8874 367.022 67.5321 368.901 69.6302C371.521 71.9202 379.371 75.8202 389.901 73.0202C393.381 72.6102 401.451 76.4102 403.681 76.2002C405.911 75.9902 409.231 74.1402 407.491 69.0902C405.321 63.7602 397.741 52.1902 384.641 48.5902Z" fill="white"/>
<path d="M426.301 102.21C426.767 102.928 427.009 103.768 426.998 104.623C426.986 105.479 426.721 106.312 426.237 107.018C425.752 107.723 425.069 108.269 424.274 108.586C423.48 108.904 422.609 108.979 421.771 108.801C420.934 108.624 420.168 108.203 419.57 107.591C418.972 106.978 418.569 106.203 418.412 105.361C418.254 104.52 418.35 103.651 418.686 102.864C419.022 102.077 419.584 101.407 420.301 100.94C420.778 100.628 421.312 100.414 421.872 100.309C422.432 100.204 423.007 100.211 423.565 100.329C424.122 100.447 424.651 100.674 425.12 100.997C425.59 101.319 425.991 101.732 426.301 102.21Z" fill="#1C1B1F"/>
<path d="M441.77 88.2603C442.235 88.9784 442.478 89.8184 442.466 90.6741C442.455 91.5299 442.19 92.363 441.705 93.0684C441.221 93.7737 440.538 94.3196 439.743 94.6371C438.948 94.9546 438.077 95.0295 437.24 94.8523C436.403 94.6751 435.637 94.2537 435.039 93.6414C434.441 93.0291 434.038 92.2533 433.88 91.4121C433.723 90.5709 433.819 89.7019 434.155 88.9149C434.491 88.1279 435.053 87.4582 435.77 86.9903C436.247 86.6789 436.781 86.4647 437.341 86.3599C437.901 86.2552 438.476 86.262 439.033 86.38C439.591 86.498 440.119 86.7248 440.589 87.0475C441.058 87.3701 441.46 87.7823 441.77 88.2603Z" fill="#1C1B1F"/>
<path fill-rule="evenodd" clip-rule="evenodd" d="M255.89 141.75C255.538 141.522 255.137 141.38 254.72 141.337C254.302 141.293 253.881 141.349 253.49 141.5C252.697 142.002 251.95 142.574 251.26 143.21C250.192 143.873 248.925 144.142 247.68 143.97C246.447 143.781 245.242 143.446 244.09 142.97C245.98 140.7 247.01 137.4 245.7 134.75C245.043 133.604 244.076 132.668 242.91 132.048C241.744 131.429 240.426 131.152 239.11 131.25C236.25 131.37 232.75 132.92 231.11 135.35C230.374 136.419 229.99 137.69 230.009 138.987C230.029 140.284 230.452 141.543 231.22 142.59C232.65 144.33 234.98 145.02 237.22 145.49C237.196 146.323 236.947 147.135 236.5 147.839C236.053 148.543 235.424 149.113 234.68 149.49C233.172 150.223 231.474 150.471 229.82 150.2C228.389 150.096 227.027 149.551 225.92 148.64C225.01 147.8 224.4 146.59 223.28 146.09C222.628 145.829 221.9 145.836 221.254 146.109C220.608 146.383 220.096 146.9 219.83 147.55C219.664 148.225 219.675 148.932 219.86 149.603C220.046 150.273 220.4 150.885 220.89 151.38C222.325 153.009 224.179 154.216 226.25 154.87C229.334 155.97 232.705 155.97 235.79 154.87C237.316 154.31 238.697 153.413 239.829 152.246C240.961 151.079 241.816 149.672 242.33 148.13C244.482 148.967 246.78 149.369 249.09 149.31C251.409 149.245 253.641 148.415 255.44 146.95C255.984 146.559 256.424 146.042 256.722 145.442C257.02 144.843 257.167 144.179 257.15 143.51C257.081 143.142 256.932 142.794 256.715 142.49C256.497 142.186 256.215 141.933 255.89 141.75ZM235.6 139.19C235.528 139.116 235.465 139.036 235.41 138.95C234.22 137.05 239.41 136.26 240.41 136.22C242.41 136.16 240.83 139.41 239.86 139.89C239.422 140.078 238.944 140.154 238.47 140.11C237.783 140.076 237.107 139.927 236.47 139.67C236.153 139.564 235.858 139.401 235.6 139.19Z" fill="#1C1B1F"/>
<path fill-rule="evenodd" clip-rule="evenodd" d="M196.671 124.48C196.947 123.818 197.475 123.292 198.139 123.018C198.802 122.744 199.548 122.745 200.211 123.02L213.521 128.57C213.849 128.707 214.147 128.907 214.398 129.159C214.649 129.411 214.848 129.709 214.984 130.038C215.119 130.367 215.189 130.719 215.188 131.075C215.188 131.43 215.117 131.782 214.981 132.11C214.844 132.439 214.644 132.737 214.392 132.988C214.141 133.239 213.842 133.438 213.513 133.574C213.184 133.709 212.832 133.779 212.477 133.778C212.121 133.778 211.769 133.707 211.441 133.57L198.131 128C197.473 127.724 196.951 127.199 196.677 126.54C196.404 125.881 196.402 125.141 196.671 124.48Z" fill="#1C1B1F"/>
<path fill-rule="evenodd" clip-rule="evenodd" d="M193.58 141.8C193.561 141.445 193.612 141.09 193.731 140.755C193.849 140.421 194.033 140.112 194.271 139.849C194.508 139.585 194.796 139.37 195.117 139.218C195.438 139.065 195.785 138.978 196.14 138.96L210.85 138.2C211.554 138.186 212.235 138.446 212.75 138.926C213.265 139.405 213.574 140.066 213.61 140.769C213.646 141.472 213.408 142.161 212.945 142.692C212.482 143.222 211.831 143.551 211.13 143.61L196.42 144.37C195.703 144.405 195.001 144.154 194.468 143.672C193.936 143.191 193.616 142.517 193.58 141.8Z" fill="#1C1B1F"/>
<path fill-rule="evenodd" clip-rule="evenodd" d="M271.81 120C271.427 119.391 270.818 118.959 270.117 118.798C269.416 118.637 268.68 118.76 268.07 119.14L258.83 124.93C258.52 125.115 258.25 125.36 258.036 125.651C257.823 125.941 257.669 126.272 257.585 126.623C257.5 126.973 257.487 127.338 257.545 127.694C257.604 128.05 257.732 128.391 257.924 128.696C258.116 129.002 258.367 129.266 258.662 129.474C258.957 129.681 259.291 129.827 259.644 129.904C259.996 129.981 260.361 129.986 260.716 129.92C261.07 129.854 261.408 129.718 261.71 129.52L270.95 123.73C271.558 123.349 271.99 122.742 272.151 122.043C272.312 121.343 272.189 120.609 271.81 120Z" fill="#1C1B1F"/>
<path fill-rule="evenodd" clip-rule="evenodd" d="M274.521 135.36C274.508 134.642 274.211 133.958 273.696 133.458C273.181 132.958 272.489 132.682 271.771 132.69L261.921 132.85C261.231 132.901 260.588 133.215 260.122 133.726C259.656 134.236 259.403 134.906 259.414 135.597C259.426 136.288 259.701 136.949 260.184 137.444C260.667 137.939 261.32 138.231 262.011 138.26L271.851 138.11C272.569 138.096 273.252 137.8 273.752 137.285C274.253 136.77 274.529 136.078 274.521 135.36Z" fill="#1C1B1F"/>
</svg>
