<svg width="35" height="35" viewBox="0 0 35 35" fill="none" xmlns="http://www.w3.org/2000/svg">
<mask id="mask0_124_2354" style="mask-type:alpha" maskUnits="userSpaceOnUse" x="0" y="0" width="35" height="35">
<rect width="35" height="35" fill="#D9D9D9"/>
</mask>
<g mask="url(#mask0_124_2354)">
<path d="M17.4997 19.5418L10.3538 26.6877C10.0865 26.955 9.7462 27.0887 9.33301 27.0887C8.91981 27.0887 8.57954 26.955 8.31217 26.6877C8.04481 26.4203 7.91113 26.08 7.91113 25.6668C7.91113 25.2536 8.04481 24.9134 8.31217 24.646L15.458 17.5002L8.31217 10.3543C8.04481 10.087 7.91113 9.74669 7.91113 9.3335C7.91113 8.9203 8.04481 8.58002 8.31217 8.31266C8.57954 8.0453 8.91981 7.91162 9.33301 7.91162C9.7462 7.91162 10.0865 8.0453 10.3538 8.31266L17.4997 15.4585L24.6455 8.31266C24.9129 8.0453 25.2531 7.91162 25.6663 7.91162C26.0795 7.91162 26.4198 8.0453 26.6872 8.31266C26.9545 8.58002 27.0882 8.9203 27.0882 9.3335C27.0882 9.74669 26.9545 10.087 26.6872 10.3543L19.5413 17.5002L26.6872 24.646C26.9545 24.9134 27.0882 25.2536 27.0882 25.6668C27.0882 26.08 26.9545 26.4203 26.6872 26.6877C26.4198 26.955 26.0795 27.0887 25.6663 27.0887C25.2531 27.0887 24.9129 26.955 24.6455 26.6877L17.4997 19.5418Z" fill="#FF9B50"/>
</g>
</svg>
