<svg width="150" height="150" viewBox="0 0 150 150" fill="none" xmlns="http://www.w3.org/2000/svg">
<g clip-path="url(#clip0_550_11829)">
<rect width="150" height="150" rx="75" fill="#D9D9D9"/>
<path d="M96.2487 63.4909C96.4702 64.1792 96.6473 64.8811 96.7788 65.5924C96.654 66.8028 96.3246 67.9829 95.8047 69.0815C94.9036 71.3097 93.691 74.1583 91.9748 75.8929C91.1466 76.7068 90.1129 77.2672 89.3244 78.1144C88.7082 78.7815 88.3172 79.6154 87.6944 80.2559C85.7065 82.3106 83.6855 82.2573 81.1875 83.0645C78.8948 83.8117 77.0925 84.6389 74.6144 84.3988C72.1995 84.1031 69.8051 83.6575 67.4449 83.0645C64.98 82.5241 63.2108 82.1772 61.0573 80.7829C59.9539 79.9738 58.8033 79.2319 57.6117 78.5614C58.1683 78.8282 58.0954 79.8956 58.1749 78.9817C58.2279 78.4213 57.5123 77.1938 57.2075 76.7468C56.5449 75.7127 55.4781 75.2858 54.7956 74.3651C54.3384 73.7447 54.2324 72.5305 53.8282 71.7367C53.2716 70.6559 52.609 69.9087 52.3704 68.6745C52.2178 67.3883 52.1447 66.0938 52.1518 64.7985C52.0104 62.4125 52.088 60.0185 52.3837 57.6469C52.609 55.4721 53.9276 52.977 54.9546 51.0557C55.8359 49.3812 56.2798 47.0529 57.7376 45.772C59.7254 43.9841 62.3759 43.0101 64.7414 41.9227C68.7171 40.1014 74.177 39.0474 78.3913 40.1548C79.8556 40.5417 81.3531 40.4083 82.7314 40.9954C83.9468 41.6408 85.0776 42.4364 86.0975 43.3637C87.7672 44.6512 90.5038 45.8721 91.7628 47.5799C92.4254 48.4539 92.7567 50.075 93.2736 51.1157C93.9477 52.2867 94.5625 53.4913 95.1156 54.7249C95.6523 56.1859 95.4337 57.5935 96.2288 59.0279C96.4864 59.3568 96.7086 59.7123 96.8914 60.0886C96.5866 58.4875 96.3613 60.5156 96.2752 60.9692C95.1355 66.9734 104.333 69.5952 105.479 63.5176C105.764 62.0166 106.526 60.689 106.499 59.1079C106.499 57.1999 105.22 56.1859 104.651 54.5381C104.18 53.2038 104.273 51.7495 103.59 50.3418C102.789 48.6807 101.775 47.0863 101.053 45.3851C99.7672 42.3697 98.5745 40.6084 95.8843 38.6137C93.0947 36.539 90.2388 33.9438 87.1046 32.4628C85.579 31.723 83.9463 31.2321 82.2675 31.0085C80.5978 30.7549 78.9214 30.0611 77.2052 30.0011C73.7002 29.9762 70.2051 30.3771 66.7955 31.1953C60.3483 32.5295 52.821 35.9652 48.9845 41.5758C47.5068 43.7439 46.4533 46.4925 45.4064 48.9142C44.7106 50.5153 43.9353 52.1898 43.3655 53.8376C42.7029 55.6989 42.9547 57.5201 42.7758 59.4281C42.3793 62.8364 42.4104 66.2814 42.8685 69.6819C43.109 71.4663 43.649 73.1966 44.4654 74.7988C45.2672 76.2998 45.7907 78.021 46.6653 79.4687C47.0938 80.1408 47.6134 80.7493 48.2092 81.2766C48.6532 81.6835 49.7465 83.0979 49.1037 81.9437C50.0446 83.6716 50.3296 84.8991 51.9861 86.2334C54.4444 88.2347 57.8569 90.6764 60.9049 91.6104C63.7276 92.471 66.9148 92.7512 69.817 93.3116C73.6138 94.0454 77.1058 94.3723 80.8827 93.3716C82.7579 92.8846 84.3879 92.3109 86.2631 91.904C88.1469 91.4185 89.9198 90.5713 91.4845 89.4089C93.0628 88.3198 94.4833 87.0153 95.7054 85.5329C96.7191 84.3254 97.9649 83.4781 99.0184 82.2906C101.583 79.462 103.431 75.7061 104.79 72.1503C105.493 70.3683 105.978 68.5066 106.234 66.6064C106.506 64.4983 105.817 62.9706 105.452 60.9425C104.366 54.865 95.1686 57.4401 96.2487 63.4909Z" fill="white"/>
<circle cx="73.7878" cy="62.7117" r="27.0222" fill="white"/>
<path d="M116.361 151.276C116.787 152.601 117.128 153.952 117.381 155.321C117.141 157.651 116.507 159.922 115.506 162.037C113.772 166.326 111.438 171.809 108.134 175.148C106.54 176.714 104.55 177.793 103.033 179.424C101.846 180.708 101.094 182.313 99.8949 183.546C96.0686 187.501 92.1785 187.398 87.3702 188.952C82.9571 190.39 79.488 191.983 74.7178 191.52C70.0696 190.951 65.4608 190.093 60.9176 188.952C56.173 187.912 52.7676 187.244 48.6224 184.56C46.4985 183.003 44.2838 181.575 41.9902 180.284C43.0615 180.798 42.9212 182.852 43.0743 181.093C43.1763 180.015 41.7988 177.652 41.2121 176.791C39.9367 174.801 37.8833 173.979 36.5696 172.207C35.6895 171.013 35.4854 168.676 34.7074 167.148C33.6361 165.067 32.3606 163.629 31.9015 161.253C31.6077 158.778 31.4671 156.286 31.4806 153.793C31.2084 149.2 31.3579 144.592 31.927 140.027C32.3606 135.841 34.8987 131.038 36.8757 127.34C38.572 124.117 39.4265 119.635 42.2325 117.169C46.0588 113.728 51.1606 111.853 55.7139 109.76C63.3665 106.254 73.8761 104.225 81.9878 106.357C84.8065 107.102 87.689 106.845 90.3419 107.975C92.6815 109.217 94.858 110.749 96.8211 112.534C100.035 115.012 105.303 117.362 107.726 120.649C109.002 122.332 109.639 125.452 110.634 127.455C111.932 129.709 113.115 132.028 114.18 134.402C115.213 137.215 114.792 139.924 116.323 142.685C116.818 143.318 117.246 144.003 117.598 144.727C117.011 141.645 116.578 145.549 116.412 146.422C114.218 157.979 131.921 163.026 134.128 151.327C134.676 148.438 136.143 145.882 136.092 142.839C136.092 139.166 133.63 137.215 132.533 134.043C131.628 131.475 131.806 128.675 130.493 125.966C128.949 122.768 126.998 119.699 125.608 116.425C123.133 110.62 120.838 107.23 115.659 103.391C110.29 99.3971 104.793 94.4018 98.7598 91.5511C95.8232 90.127 92.6804 89.1821 89.4491 88.7517C86.235 88.2637 83.0082 86.9282 79.7048 86.8127C72.9583 86.7647 66.2306 87.5365 59.6677 89.1112C47.2577 91.6795 32.7688 98.2927 25.384 109.092C22.5398 113.266 20.5118 118.556 18.4967 123.218C17.1574 126.3 15.6652 129.523 14.5683 132.694C13.2929 136.277 13.7775 139.783 13.4332 143.455C12.67 150.016 12.73 156.647 13.6117 163.192C14.0747 166.627 15.1141 169.958 16.6855 173.042C18.2288 175.931 19.2364 179.244 20.92 182.031C21.7447 183.324 22.745 184.496 23.8917 185.511C24.7463 186.294 26.8508 189.016 25.6136 186.795C27.4247 190.121 27.9731 192.483 31.1617 195.052C35.8936 198.904 42.4621 203.604 48.3291 205.402C53.7624 207.058 59.8973 207.598 65.4837 208.676C72.7919 210.089 79.5135 210.718 86.7835 208.792C90.3929 207.854 93.5305 206.75 97.14 205.967C100.766 205.032 104.179 203.401 107.19 201.164C110.228 199.068 112.963 196.557 115.315 193.703C117.266 191.379 119.664 189.748 121.692 187.462C126.628 182.018 130.187 174.788 132.801 167.944C134.155 164.514 135.089 160.93 135.582 157.273C136.105 153.215 134.778 150.274 134.077 146.37C131.985 134.672 114.282 139.629 116.361 151.276Z" fill="white"/>
<circle cx="73.1311" cy="149.775" r="52.0139" fill="white"/>
</g>
<defs>
<clipPath id="clip0_550_11829">
<rect width="150" height="150" rx="75" fill="white"/>
</clipPath>
</defs>
</svg>
