<svg id="레이어_1" data-name="레이어 1" xmlns="http://www.w3.org/2000/svg" viewBox="0 0 150 150"><path d="M98.93,67.41a25.13,25.13,0,0,1,.8,3.15,16,16,0,0,1-1.47,5.23C96.9,79.13,95.07,83.4,92.48,86c-1.25,1.22-2.81,2.06-4,3.33-.93,1-1.52,2.25-2.46,3.21-3,3.08-6.05,3-9.82,4.21-3.46,1.12-6.18,2.36-9.92,2a89.13,89.13,0,0,1-10.82-2c-3.72-.81-6.39-1.33-9.64-3.42A51.56,51.56,0,0,0,40.62,90c.84.4.73,2,.85.63.08-.84-1-2.68-1.46-3.35-1-1.55-2.61-2.19-3.64-3.57-.69-.93-.85-2.75-1.46-3.94-.84-1.62-1.84-2.74-2.2-4.59a46.82,46.82,0,0,1-.33-5.81,58.23,58.23,0,0,1,.35-10.72c.34-3.26,2.33-7,3.88-9.88,1.33-2.51,2-6,4.2-7.92,3-2.68,7-4.14,10.57-5.77,6-2.73,14.24-4.31,20.6-2.65,2.21.58,4.47.38,6.55,1.26a24.94,24.94,0,0,1,5.08,3.55c2.52,1.93,6.65,3.76,8.55,6.32,1,1.31,1.5,3.74,2.28,5.3a60.1,60.1,0,0,1,2.78,5.41c.81,2.19.48,4.3,1.68,6.45a8.85,8.85,0,0,1,1,1.59c-.46-2.4-.8.64-.93,1.32-1.72,9,12.16,12.93,13.89,3.82.43-2.25,1.58-4.24,1.54-6.61,0-2.86-1.93-4.38-2.79-6.85-.71-2-.57-4.18-1.6-6.29-1.21-2.49-2.74-4.88-3.83-7.43-1.94-4.52-3.74-7.16-7.8-10.15-4.21-3.11-8.52-7-13.25-9.22a24.11,24.11,0,0,0-7.3-2.18c-2.52-.38-5.05-1.42-7.64-1.51A65.76,65.76,0,0,0,54.48,19C44.75,21,33.39,26.15,27.6,34.56c-2.23,3.25-3.82,7.37-5.4,11-1.05,2.4-2.22,4.91-3.08,7.38-1,2.79-.62,5.52-.89,8.38a61.3,61.3,0,0,0,.14,15.37,23.82,23.82,0,0,0,2.41,7.67c1.21,2.25,2,4.83,3.32,7a12.85,12.85,0,0,0,2.33,2.71c.67.61,2.32,2.73,1.35,1,1.42,2.59,1.85,4.43,4.35,6.43,3.71,3,8.86,6.66,13.46,8.06,4.26,1.29,9.07,1.71,13.45,2.55,5.73,1.1,11,1.59,16.7.09,2.83-.73,5.29-1.59,8.12-2.2a22.79,22.79,0,0,0,7.88-3.74,31.2,31.2,0,0,0,6.37-5.81c1.53-1.81,3.41-3.08,5-4.86,3.87-4.24,6.66-9.87,8.71-15.2A35.35,35.35,0,0,0,114,72.08c.41-3.16-.63-5.45-1.18-8.49C111.18,54.48,97.3,58.34,98.93,67.41Z" style="fill:#ff9b50"/><path d="M129.94,122.06c-2.63-2.47-4.9-5.24-7.45-7.79a24.81,24.81,0,0,0-2.78-2.43c-.78-.59-2.72-2.4-1-.76-.7-.67-1.4-1.36-2.12-2-.53-.48-3.11-2.8-1.27-.73-1.84-2.08-3.17-4-5.47-5.77-2-1.48.89,1.12-1.13-1.29-.46-.56-1-1.07-1.47-1.6S106,98.4,105.3,97.8c-.42-.35-.87-.73-1.33-1-1.09-.73,1.2,1.66-.1.15-1.5-1.75-2.84-3.68-4.29-5.49-2.46-3-7.62-2.51-10.19,0-3,3-2.42,7.17,0,10.19.42.51,2.22,2.74,1.39,1.69s1,1.37,1.32,1.75c1.36,1.74,3.1,2.93,4.64,4.48a44.94,44.94,0,0,0,4.7,4.66c.37.27.75.57,1.14.81,2.61,1.6-1.08-.65-1.13-1.41,0,.71,1.72,2.46,2.18,3a44.63,44.63,0,0,0,4.33,4.14c.91.81,1.84,1.56,2.81,2.29.45.34.93.65,1.36,1,1,.81-1.38-1.43-.13.07a93,93,0,0,0,7.75,8.13c6.75,6.34,16.95-3.82,10.19-10.19Z" style="fill:#ff9b50"/></svg>