<svg width="150" height="150" viewBox="0 0 150 150" fill="none" xmlns="http://www.w3.org/2000/svg">
<path d="M126.438 97.5969C126.438 97.2269 126.438 96.8669 126.438 96.4969C126.438 95.7669 126.018 98.2169 126.628 96.7069C127.898 93.5569 125.698 90.3269 123.318 88.5769C122.706 88.0832 121.987 87.7406 121.218 87.5769C124.058 89.3436 124.365 89.4203 122.138 87.8069C121.281 87.3677 120.375 87.032 119.438 86.8069C117.499 86.2919 115.437 86.5426 113.678 87.5069C113.678 87.5069 109.608 91.0869 110.958 90.0169L122.958 93.1969L122.838 92.8169L122.838 96.6469C123.118 94.7669 123.528 92.9969 123.028 91.0969C122.777 90.1444 122.335 89.2529 121.728 88.4769C121.428 88.0869 118.968 85.1969 120.548 87.1669L122.658 92.2569L122.818 90.9069C123.148 88.0369 120.358 84.4869 117.528 83.9669C117.058 83.8669 116.528 83.7869 116.098 83.7269L121.378 90.6669C121.438 90.1569 121.488 89.6669 121.528 89.1469C121.778 86.0469 119.108 82.9769 116.238 82.1969C114.474 81.6433 112.598 81.5503 110.788 81.9269C106.888 82.8169 111.428 82.0269 111.488 82.1069C111.258 81.8369 109.268 82.3569 108.888 82.4269L117.748 87.4269L117.648 87.0469L117.648 90.8769C118.094 89.0349 118.142 87.1189 117.788 85.2569C116.788 81.2569 112.688 79.4969 108.928 80.2569C107.368 80.5669 113.028 81.0269 109.818 80.1469L114.118 83.4569L113.628 82.7869L114.358 88.3369C114.718 86.695 114.786 85.0024 114.558 83.3369C114.488 82.4869 114.838 84.8869 114.768 83.7369C114.73 82.8155 114.596 81.9005 114.368 81.0069C113.018 76.2469 108.628 74.4569 104.058 75.5369L107.888 75.5369L107.328 75.4469L112.608 82.4469C112.768 81.111 112.645 79.7564 112.247 78.4712C111.849 77.1859 111.185 75.9988 110.298 74.9869C109.587 74.3063 108.778 73.7366 107.898 73.2969C107.253 72.7978 106.51 72.4401 105.718 72.2469C106.638 72.6369 106.718 72.6669 106.058 72.3369C104.669 71.5844 103.079 71.2876 101.512 71.4886C99.9457 71.6896 98.4818 72.3782 97.328 73.4569C97.058 73.7069 94.978 75.9269 96.248 74.8069L101.338 72.5869C101.648 72.5869 108.858 82.7769 105.648 75.1669C105.122 74.0606 104.42 73.0474 103.568 72.1669L104.698 80.8969C103.698 82.6369 106.248 78.2269 106.378 77.8969C108.548 72.5969 102.318 67.7569 97.518 69.0369C96.5267 69.3874 95.588 69.8719 94.728 70.4769C91.948 72.0769 97.318 69.4769 95.308 70.1669L104.168 75.1669L103.738 74.1669C102.378 70.8969 100.318 69.2469 96.798 68.8769L97.508 68.9269L102.508 73.9269L102.598 74.3269C102.448 72.0169 101.378 69.1069 99.028 68.1169L97.948 67.6569L101.538 73.8769C101.604 73.4839 101.631 73.0853 101.618 72.6869C101.602 70.7847 100.842 68.9644 99.4996 67.6164C98.1573 66.2685 96.3402 65.5004 94.438 65.4769C93.4322 65.5472 92.4308 65.6707 91.438 65.8469L99.578 69.1569C98.688 67.9469 99.688 70.4769 99.308 68.6769L99.308 72.4769C99.3182 72.0575 99.3617 71.6395 99.438 71.2269C100.248 67.5569 98.368 63.2269 94.438 62.3669L93.088 62.0669L97.438 65.3669C96.8997 64.5548 96.2906 63.7919 95.618 63.0869C94.4794 61.9854 93.0153 61.2813 91.4439 61.0794C89.8726 60.8776 88.2781 61.1889 86.898 61.9669C86.578 62.1469 84.448 63.9069 85.478 63.2069L96.018 67.4769C95.5673 65.1298 94.536 62.933 93.018 61.0869C92.1307 60.1698 91.0096 59.5127 89.7758 59.1866C88.542 58.8606 87.2426 58.878 86.018 59.2369C85.578 59.3969 85.128 59.5369 84.678 59.6569L88.438 59.6569C86.888 59.2269 92.058 63.9869 91.858 63.1769L91.858 67.0069L91.928 66.6269C92.295 65.0969 92.1742 63.4904 91.5824 62.0325C90.9906 60.5746 89.9576 59.3383 88.628 58.4969C88.318 58.2869 85.698 56.7869 87.048 57.7369L90.358 65.8669C91.158 63.9269 88.118 68.9969 89.568 67.3369C90.3364 66.5449 90.9156 65.5891 91.2619 64.5413C91.6083 63.4935 91.713 62.3809 91.568 61.2869C91.3128 59.9694 90.7997 58.7154 90.058 57.5969C88.638 54.9469 93.428 62.2269 89.988 57.2669C89.147 55.9367 87.9112 54.9025 86.4535 54.309C84.9958 53.7155 83.3891 53.5924 81.858 53.9569L80.498 54.2269L89.358 59.2269L89.248 58.6569L89.248 62.4869C89.6432 60.7795 89.6432 59.0044 89.248 57.2969C88.248 53.0069 82.438 50.3869 78.668 52.9869C77.788 53.5969 72.868 57.7269 77.328 54.3269L86.098 55.4769C85.4147 54.7125 84.6348 54.0402 83.778 53.4769C83.088 53.0369 80.098 51.6569 82.348 52.7969L85.658 57.1069C85.478 56.7693 85.3691 56.3983 85.338 56.0169C85.0235 54.8147 84.3945 53.7179 83.5158 52.8392C82.6371 51.9605 81.5403 51.3315 80.338 51.0169C78.6264 50.6632 76.8579 50.6905 75.158 51.0969L78.958 51.0969L78.398 50.9969L83.398 59.8569C81.898 62.1669 81.668 62.6169 82.698 61.2269C83.3274 60.5319 83.7711 59.6892 83.988 58.7769C84.2658 57.6994 84.3203 56.5763 84.148 55.4769C83.948 53.9369 81.928 50.6269 83.948 55.1869C83.338 53.8269 83.648 52.5169 82.658 51.1269C81.6501 49.5273 80.0716 48.3707 78.2426 47.8916C76.4135 47.4125 74.4708 47.6468 72.808 48.5469C72.1961 48.8104 71.6073 49.1248 71.048 49.4869C69.948 50.2669 65.698 53.5369 70.218 50.4269L80.068 53.0069C80.658 54.0069 79.508 51.4069 79.318 51.0969C76.988 47.2269 71.238 46.2169 68.008 49.6369C65.878 51.8969 64.598 54.7869 65.448 57.9269C65.7801 59.1205 66.4149 60.208 67.2909 61.0841C68.1669 61.9601 69.2545 62.5949 70.448 62.9269L67.988 61.4769L69.448 50.1769C72.428 49.4636 72.5714 49.3336 69.878 49.7869C69.1131 50.0539 68.3735 50.3886 67.668 50.7869C65.668 51.8569 63.798 54.6569 64.108 57.0069C64.518 60.1469 63.508 54.7969 66.798 53.3869C65.9539 53.8604 65.2262 54.5164 64.668 55.3069L71.738 53.4769C73.498 53.7969 70.518 52.9269 70.128 52.8369C65.128 51.6969 61.628 55.0569 61.018 59.7769C60.9629 61.0358 61.1566 62.2931 61.588 63.4769L61.588 59.6869L61.528 60.0669L64.838 55.7669C63.718 56.4669 66.398 55.3869 65.068 55.5969L70.618 56.3169C69.2684 55.4868 67.7426 54.9855 66.1636 54.8535C64.5846 54.7215 62.9967 54.9624 61.528 55.5569C57.428 56.9569 56.268 59.4669 55.038 63.2869L62.038 57.9969C61.528 57.9969 61.038 58.0669 60.518 58.1169C56.038 58.5269 52.118 62.4069 53.578 67.2369C53.888 68.2369 56.178 74.0969 54.578 69.2369L59.578 60.3769L59.128 60.4569L62.928 60.4569C61.0733 59.8503 59.0952 59.723 57.178 60.0869C53.018 60.8069 51.638 65.4169 52.178 68.9469C52.298 69.7569 52.428 70.5669 52.618 71.3669L57.618 62.5169L56.438 62.9169C51.848 64.7769 50.038 68.9169 52.138 73.4969C52.308 73.8669 53.838 76.5669 53.008 74.7569L52.278 69.2069L52.618 68.6269L58.838 65.0569C60.6647 65.6569 61.0347 65.6736 59.948 65.1069C55.698 62.6269 50.888 65.1069 49.368 69.4169L48.968 70.5469L55.968 65.2569C49.318 64.6269 46.478 70.8669 47.248 76.4269L47.248 72.5969L47.098 73.1569L55.948 68.1569C57.568 68.7469 58.948 69.3469 56.548 68.1569C55.1905 67.4409 53.67 67.0901 52.136 67.1392C50.6019 67.1883 49.107 67.6355 47.798 68.4369C44.168 70.2569 43.558 74.9869 45.218 78.2869C45.368 78.5969 46.928 81.0569 46.278 79.7669L50.578 69.1969C49.0449 69.6643 47.611 70.4101 46.348 71.3969C40.928 75.6369 57.588 69.8069 49.478 69.7169C48.4567 69.6645 47.4355 69.822 46.4775 70.1797C45.5194 70.5375 44.645 71.0879 43.908 71.7969C43.118 72.5369 39.038 77.7969 43.068 73.2069L53.248 73.2069C50.598 70.8569 47.708 69.6669 44.188 70.8069C42.6838 71.2557 41.3609 72.1706 40.4102 73.4197C39.4595 74.6688 38.93 76.1875 38.898 77.7569C38.8799 78.5913 38.9673 79.4245 39.158 80.2369C40.118 82.7169 40.1447 82.5303 39.238 79.6769L46.438 72.4769C49.148 72.5869 49.748 73.2469 47.648 72.4769C46.4224 71.8063 45.045 71.4619 43.648 71.4769C37.918 72.0069 35.068 77.1069 37.428 82.3069C37.824 83.0958 38.3671 83.8018 39.028 84.3869C40.428 85.7269 41.108 87.2769 39.108 84.0669L41.688 74.2169C39.178 75.4869 37.528 77.0569 36.878 79.9269C36.4507 81.5585 36.5629 83.2845 37.198 84.8469C37.378 85.2969 37.568 85.7269 37.778 86.1569C39.3714 88.3769 39.318 88.0836 37.618 85.2769L44.558 76.1669C47.4314 77.0803 47.6247 77.0536 45.138 76.0869C44.3028 75.9273 43.4574 75.8271 42.608 75.7869C38.908 75.5269 35.158 79.2969 35.408 82.9869C35.488 84.1469 36.258 90.5669 35.878 84.9869L43.078 77.7869C42.628 77.7869 42.168 77.7869 41.718 77.7869C38.718 77.7069 35.388 80.0569 34.778 83.0669C34.688 83.5269 34.588 83.9669 34.478 84.4169L41.438 79.0569C40.008 79.2169 38.578 79.3369 37.158 79.5969C33.258 80.3269 31.268 84.9369 32.158 88.4569C32.3195 89.2098 32.5996 89.9321 32.988 90.5969C34.548 92.7569 34.518 92.5269 32.868 89.8969L39.818 80.7769C41.528 80.5569 38.458 80.6769 38.058 80.7769C32.478 81.5069 29.298 86.2869 31.838 91.6169L32.428 92.8569L33.558 84.1269C33.396 84.3948 33.1734 84.6208 32.908 84.7869L38.008 82.6769L38.608 82.7569C36.7722 82.3046 34.8329 82.5702 33.1862 83.4995C31.5396 84.4287 30.3098 85.9516 29.748 87.7569L29.268 89.1769L38.128 84.1769C31.778 82.0769 26.648 86.0169 26.308 92.4769L31.598 85.4769C33.598 85.1969 31.508 85.3069 30.668 85.4769L28.948 86.2069C32.3747 85.3803 33.0847 85.1236 31.078 85.4369C29.0653 85.8786 27.265 86.9976 25.978 88.6069L31.038 86.4769L30.038 86.4769L35.128 88.5869L34.128 87.5869C27.558 81.0369 17.368 91.2169 23.948 97.7669C27.868 101.687 33.418 102.167 37.118 97.6369L32.028 99.7469C33.558 99.9369 34.538 98.9369 35.958 98.7469C34.048 98.9369 31.328 99.9469 35.408 99.3669C38.608 98.9169 40.548 95.2969 40.698 92.4269L40.768 91.1469L37.198 97.3569L36.628 97.5769L32.798 97.5769C33.3044 97.6885 33.8023 97.8356 34.288 98.0169C38.128 99.2869 41.958 96.5269 43.148 93.0169L43.628 91.5969L34.768 96.5969C38.048 97.2169 41.468 97.1669 43.768 94.2669C46.068 91.3669 46.418 88.7369 44.898 85.5369L44.298 84.2969L38.088 95.1269C36.368 95.3569 39.438 95.2369 39.848 95.1769C44.108 94.6269 48.498 90.9769 46.788 86.0669C46.5416 85.3175 46.2442 84.5858 45.898 83.8769C44.318 81.7036 44.378 81.9536 46.078 84.6269L41.078 93.4869C39.408 93.7969 41.278 93.4869 41.528 93.4869C44.638 93.1469 47.678 91.4869 48.468 88.2069C48.588 87.7536 48.688 87.3036 48.768 86.8569L41.828 92.1469C42.278 92.1469 42.738 92.1469 43.188 92.1469C46.888 92.1469 50.658 88.8769 50.388 84.9469C50.308 83.7869 49.538 77.3569 49.918 82.9469L42.718 90.1469C37.038 89.7569 43.718 90.5569 44.718 90.5269C45.8265 90.5183 46.9184 90.2571 47.9107 89.763C48.903 89.269 49.7695 88.5551 50.4444 87.6758C51.1194 86.7965 51.5849 85.7748 51.8056 84.6885C52.0263 83.6022 51.9963 82.4799 51.718 81.4069C51.608 81.0569 49.238 76.4069 50.208 78.4069L50.938 83.9569L51.088 83.0169L47.778 87.3169L49.168 86.6269C52.568 84.9069 53.708 79.9169 51.748 76.7669C51.347 76.1022 50.885 75.4761 50.368 74.8969C48.528 73.3569 48.428 73.3936 50.068 75.0069L43.858 85.8469C42.298 85.9869 39.928 84.8469 42.578 85.8469C43.8437 86.4086 45.197 86.7469 46.578 86.8469C50.448 87.0069 53.788 83.4169 53.778 79.6469C53.796 78.8093 53.7087 77.9728 53.518 77.1569C52.558 74.6903 52.5314 74.8803 53.438 77.7269L48.148 84.6669L43.208 83.3569C45.958 85.8069 50.708 86.4369 53.388 83.3569C54.208 82.4169 58.158 77.4369 54.238 81.9469L49.138 84.0569C50.788 84.1469 46.718 84.0569 49.618 84.0569C51.098 84.0569 51.128 84.3869 52.918 83.8869C54.943 83.2157 56.6693 81.8572 57.798 80.0469L53.498 83.3569L54.498 83.0069C55.5347 82.6832 56.4863 82.1326 57.2835 81.395C58.0807 80.6574 58.7036 79.7514 59.1068 78.743C59.51 77.7345 59.6834 76.6489 59.6144 75.565C59.5454 74.4811 59.2358 73.4262 58.708 72.4769C58.558 72.1669 56.998 69.6969 57.648 70.9869L55.068 80.8369L54.338 81.1669L50.508 81.1669C47.938 79.5869 47.718 79.5669 49.868 81.1069C50.604 81.4547 51.3585 81.7618 52.128 82.0269C55.778 83.3669 60.018 80.5169 60.978 77.0269C61.3625 75.3048 61.3625 73.5191 60.978 71.7969L60.978 75.6269C59.438 77.8169 59.118 78.4769 60.138 77.4769L55.038 79.5869C55.348 79.5869 55.658 79.5869 55.968 79.6669C59.238 79.9769 61.968 77.1869 62.908 74.3769L63.308 73.2569L52.728 77.5569C54.6132 78.6468 56.7175 79.3027 58.888 79.4769C60.1497 79.5082 61.3958 79.1929 62.4908 78.5652C63.5857 77.9375 64.4875 77.0215 65.098 75.9169C65.968 74.0069 66.638 72.3469 66.338 70.1869C66.2307 69.1675 65.9249 68.179 65.438 67.2769C65.258 66.9669 63.828 64.4069 64.658 66.2769L60.358 76.8569L61.438 76.3469C65.158 74.8469 67.438 71.6569 66.438 67.4869C66.248 66.6869 66.108 65.8769 65.998 65.0669L60.998 73.9269L61.438 73.8469L57.608 73.8469C59.4627 74.4536 61.4409 74.5809 63.358 74.2169C67.068 73.5769 69.508 68.7769 68.358 65.3569C68.1149 64.5567 67.8073 63.7774 67.438 63.0269C65.9447 60.9669 65.9247 61.0936 67.378 63.4069L60.438 72.4769C60.948 72.4769 61.438 72.3869 61.958 72.3569C63.522 72.3145 65.0333 71.7821 66.2784 70.8347C67.5236 69.8874 68.4399 68.573 68.898 67.0769C69.148 66.2869 69.308 65.4969 69.508 64.6969L66.198 68.9969C64.788 69.5969 67.258 68.8769 67.678 68.7469L62.128 68.0169C65.218 69.8069 68.598 70.2369 71.738 68.3669C73.4924 67.3987 74.8146 65.8014 75.438 63.8969C75.6885 62.8328 75.7561 61.7338 75.638 60.6469C75.638 60.0769 75.638 58.0769 75.448 59.8069L66.328 66.8069C64.628 66.4169 67.578 67.3769 67.938 67.4469C70.348 67.8769 73.218 67.6369 74.938 65.5969C75.388 65.1269 75.398 65.0769 74.938 65.4369C74.118 66.0369 74.4947 65.7369 76.068 64.5369C76.8588 63.7785 77.497 62.8755 77.948 61.8769C78.5988 60.3803 78.8171 58.7313 78.578 57.1169L75.008 63.3369C72.028 64.0369 71.888 64.1636 74.588 63.7169C75.3497 63.4499 76.086 63.1152 76.788 62.7169C81.198 60.3569 81.058 54.8069 78.248 51.4069C77.2257 50.2528 75.8577 49.4601 74.348 49.1469L79.348 54.1469L79.348 53.9969L78.628 59.5369L78.248 59.8769L66.948 58.4169C66.358 57.4169 67.508 60.0269 67.698 60.3269C69.598 63.4769 74.298 65.1469 77.548 62.9169C78.038 62.5769 80.548 60.0269 80.548 60.0269C79.858 60.1069 77.448 62.3069 80.108 61.0269L70.258 58.4769C69.598 55.3269 69.488 55.1369 69.918 57.8869C70.938 60.4803 70.938 60.1669 69.918 56.9469L72.028 51.8469C70.89 53.0514 70.0388 54.4974 69.538 56.0769C68.628 59.5969 70.688 64.2269 74.538 64.9369C76.2533 65.2922 78.0261 65.2615 79.728 64.8469L75.898 64.8469L76.448 64.9569L71.448 59.9569C71.6578 61.0539 72.0876 62.0971 72.7114 63.0234C73.3353 63.9498 74.1404 64.7402 75.078 65.3469C75.7617 65.7141 76.474 66.0252 77.208 66.2769C76.938 66.1669 75.098 64.8669 75.918 65.7269C77.918 67.8069 82.188 68.7269 84.638 66.8469C85.638 66.1269 90.558 62.3569 85.978 65.5169L75.438 61.1869L75.568 61.7169L75.568 57.8869C75.1939 59.6082 75.1735 61.3875 75.508 63.1169C76.248 67.1169 80.828 68.8469 84.368 68.1169L85.728 67.8469L77.598 64.5369C77.008 63.0669 77.138 63.3369 77.968 65.3569C79.648 67.6769 79.518 67.2669 77.598 64.1569L79.438 57.1769C78.1848 58.6374 77.1722 60.2881 76.438 62.0669C75.158 65.1469 77.358 68.5169 79.748 70.1969C80.048 70.4069 82.678 71.9169 81.328 70.9669L78.018 62.8369C76.568 69.9969 82.848 75.4169 89.748 73.1569L82.748 71.3069C83.748 72.5069 82.178 69.1469 81.688 69.6469C81.7883 70.2176 81.9219 70.7819 82.088 71.3369C83.088 75.6669 88.898 78.1969 92.668 75.6369C92.948 75.4469 95.388 73.6369 94.088 74.3969L85.438 73.2769C83.898 71.7369 87.498 75.1669 87.588 75.2769C88.5513 75.7637 89.5832 76.1009 90.648 76.2769L85.648 67.4169C84.938 70.6169 85.168 73.7569 87.128 76.4169C89.238 79.3069 91.788 80.2369 95.258 79.7169L94.478 79.8669L87.278 72.6669C87.2909 73.0653 87.2642 73.4639 87.198 73.8569C87.1699 75.1192 87.4877 76.3652 88.117 77.4598C88.7463 78.5544 89.6631 79.456 90.768 80.0669L91.848 80.5269L88.288 74.3069C88.358 75.4569 88.528 76.5969 88.708 77.7369C89.078 80.0869 91.528 82.2169 93.708 82.7369C94.7365 82.9601 95.7789 83.1137 96.828 83.1969L89.888 77.9169L90.308 78.9169C91.738 82.3469 95.108 85.3169 99.168 83.9169C100.102 83.6395 101.012 83.2849 101.888 82.8569L102.308 82.6669C104.528 81.0669 104.228 81.1269 101.378 82.8569L92.528 73.9969C94.438 69.3369 93.048 72.2169 92.288 73.5369C91.5215 74.9226 91.2177 76.5169 91.421 78.0873C91.6243 79.6577 92.324 81.1221 93.418 82.2669L94.008 82.9469L91.898 77.8469C92.098 81.8469 94.178 85.3669 98.178 86.6169C99.8509 87.0722 101.615 87.0722 103.288 86.6169C104.553 86.2306 105.705 85.5445 106.648 84.6169C106.838 84.4369 108.858 82.2769 107.548 83.4369L98.818 84.5569C99.688 84.9869 100.508 85.3369 101.418 85.7169C100.258 85.2369 101.038 85.6569 101.608 86.0869L98.298 81.7869C98.698 83.4269 98.408 80.3769 98.238 82.2369C97.988 85.0669 100.638 88.7069 103.528 89.1769C105.235 89.5174 106.994 89.4867 108.688 89.0869L104.858 89.0869L105.378 89.1969L100.378 84.1969C100.888 85.8069 100.308 82.5969 100.318 84.5169C100.373 85.4303 100.523 86.3353 100.768 87.2169L100.768 83.4769C98.768 91.4769 105.768 95.4769 112.768 94.1069L103.908 89.1069L104.008 89.4869L104.008 85.6169C103.557 87.4583 103.509 89.3754 103.868 91.2369C104.868 95.2369 108.958 96.9369 112.728 96.2369C108.968 96.8969 114.598 95.9469 113.958 96.0969C118.818 94.9369 110.018 95.3569 112.418 96.0069L107.138 89.0669C107.138 89.5769 107.048 90.0669 106.988 90.5869C106.698 93.3969 109.428 97.0869 112.278 97.5269C112.758 97.5969 113.278 97.6769 113.708 97.7669L108.438 90.8569C108.008 94.4969 109.628 96.9469 112.438 99.0069L109.138 94.7069L109.208 95.1569L109.208 91.3269C108.908 93.2469 108.508 95.1269 109.098 97.0269C110.828 102.607 116.928 103.557 121.098 100.207C121.438 99.9769 123.438 98.0169 122.438 98.8269L115.438 100.677C117.438 100.977 111.608 98.5169 114.438 99.9569C114.898 100.187 117.788 102.287 116.058 100.957L112.758 92.8269C112.206 94.3366 111.961 95.9413 112.038 97.5469C112.128 106.807 126.528 106.827 126.438 97.5469L126.438 97.5969Z" fill="#1C1B1F"/>
</svg>
