<svg id="레이어_1" data-name="레이어 1" xmlns="http://www.w3.org/2000/svg" viewBox="0 0 150 150"><path d="M81.1,58.24l.05-.07a6.87,6.87,0,0,1-.21-.84C80.79,57.32,80.92,57.75,81.1,58.24Z" style="fill:#fff"/><path d="M95.36,102.17a5.18,5.18,0,0,0-.33-2.9,3.69,3.69,0,0,0-.08-.46h0a6,6,0,0,0-.09-3.62,5,5,0,0,0,0-1,5.94,5.94,0,0,0-.28-4.52,5.89,5.89,0,0,0,.13-1.45,6.17,6.17,0,0,0,.41-4.32,6.63,6.63,0,0,0-.24-1.24,6,6,0,0,0-.42-5.06,6.16,6.16,0,0,0-.1-2q0-.3,0-.6a6,6,0,0,0,.52-4.62,6.11,6.11,0,0,0-.38-2.87c0-.13,0-.26,0-.38a6.86,6.86,0,0,0,.82-4.61A6.73,6.73,0,0,0,94.8,61,5.83,5.83,0,0,0,94,56.55c0-.08-.05-.17-.08-.25a4.48,4.48,0,0,0,.1-.82,6.64,6.64,0,0,0,.54-3,6.25,6.25,0,0,0-.81-3.75A5.62,5.62,0,0,0,92,45a6,6,0,0,0-3.43-3.71,6.23,6.23,0,0,0-3.87-2.5,6.25,6.25,0,0,0-6.86-1.18,6,6,0,0,0-2.55-.3H75.2a6.13,6.13,0,0,0-5.19-.9,6,6,0,0,0-3.3.2,5.63,5.63,0,0,0-1.49-.28,6.53,6.53,0,0,0-2.46.29,7.79,7.79,0,0,0-1.19.21,6.57,6.57,0,0,0-2.29.23,5.81,5.81,0,0,0-3.92.12,6.27,6.27,0,0,0-3.64-.87,6.18,6.18,0,0,0-4.12.86c-.21,0-.42.06-.64.1a4.25,4.25,0,0,0-1.18-.15,6.05,6.05,0,0,0-5.64-.1h-.08a6.7,6.7,0,0,0-2-.47,5.66,5.66,0,0,0-3.17-.35,6.05,6.05,0,0,0-3.79.88,5.85,5.85,0,0,0-5.6.77l-.47.21a6.52,6.52,0,0,0-3.31,2.14l-.1.07a6.29,6.29,0,0,0-3.37,2.32,6.2,6.2,0,0,0-3,4.13,6,6,0,0,0-.5,3,6.41,6.41,0,0,0-.1,5.28,6.18,6.18,0,0,0,0,4.28c-.09.14-.19.26-.28.4a5.74,5.74,0,0,0-.47,4.93,5.92,5.92,0,0,0,.25,2.63,6.11,6.11,0,0,0,.14,2.88A6.24,6.24,0,0,0,14,73.18a5.25,5.25,0,0,0,.17,5,5.72,5.72,0,0,0,.14.81,6,6,0,0,0-.16,2.11,6,6,0,0,0,0,3.7,6.2,6.2,0,0,0,.21,1.66,6.21,6.21,0,0,0-.11,2.15,8,8,0,0,0-.28,3.8,5.58,5.58,0,0,0,.54,1.69,6.52,6.52,0,0,0-.43,3.52,6.11,6.11,0,0,0,0,3.59,6.21,6.21,0,0,0-.26,2.25,6.19,6.19,0,0,0,.63,3.93,6.78,6.78,0,0,0-.44,4.47,6.57,6.57,0,0,0,.09,2.86,6,6,0,0,0,.16,2.11,6.12,6.12,0,0,0-.1,2.18,9.17,9.17,0,0,0-.45,2.76A6.17,6.17,0,0,0,15,125.49a6.26,6.26,0,0,0,2.35,6A6.73,6.73,0,0,0,19.11,133,5.59,5.59,0,0,0,24.22,136l.9-.07a5.2,5.2,0,0,0,2.91.75c.21,0,1.07,0,2,0a6.12,6.12,0,0,0,6.67,1.45,6,6,0,0,0,1.19.06,12.07,12.07,0,0,0,2.27.39,4.39,4.39,0,0,0,2-.3,5.94,5.94,0,0,0,4.54.27,6.34,6.34,0,0,0,3.63.23,6.51,6.51,0,0,0,2.54-.63,6.56,6.56,0,0,0,3.57,0,5.82,5.82,0,0,0,.73-.08,6.07,6.07,0,0,0,3.63,0,4.83,4.83,0,0,0,.93,0,6,6,0,0,0,5.54.12,5.4,5.4,0,0,0,3.38.47,6.25,6.25,0,0,0,4.14,0,6.05,6.05,0,0,0,4.12-.5,6.27,6.27,0,0,0,6.53-2,6.23,6.23,0,0,0,6.28-4.56,5.77,5.77,0,0,0,1.35-3.09,6.92,6.92,0,0,0,1-2.35,6.78,6.78,0,0,0,.73-4.11,7,7,0,0,0,.28-3.88v0c0-.17,0-.34,0-.51a5.75,5.75,0,0,0-.17-3.84,6.19,6.19,0,0,0,.13-2.42,6.27,6.27,0,0,0-.55-4.27,4,4,0,0,0,0-.69c.06-.1.12-.18.17-.28A6.17,6.17,0,0,0,95.36,102.17ZM64,124.07c-2.28-.63.28.13-.63-.08a6.4,6.4,0,0,0-3.59.19H59.2A6.42,6.42,0,0,0,55,123.8a6,6,0,0,0-2.75.71h-.21a6.27,6.27,0,0,0-3.91-.42,6.41,6.41,0,0,0-3,.83,5.86,5.86,0,0,0-2.2-.38,5.35,5.35,0,0,0-3.64,0,6.3,6.3,0,0,0-3.11,0,6.26,6.26,0,0,0-2,0l-.27,0a5.38,5.38,0,0,0-2.44-.57,6.81,6.81,0,0,0-.78,0,6.32,6.32,0,0,0-1.12-.43l-.46-.59a3.69,3.69,0,0,0-.71-.66,5.44,5.44,0,0,0-.5-2.83,6.22,6.22,0,0,0-1.38-6.17,5.81,5.81,0,0,0,.05-2.69l.1-.1a6.85,6.85,0,0,0,1-8.58s0-.06,0-.1a6.1,6.1,0,0,0,.08-6.23c0-.17,0-.33-.06-.5A6.67,6.67,0,0,0,28,93.77a8.3,8.3,0,0,0,.06-1.72,6.25,6.25,0,0,0,.7-2.68A7.22,7.22,0,0,0,28,86a6.12,6.12,0,0,0,.44-3.16,6.38,6.38,0,0,0-1-4.82s0-.06,0-.09a6.47,6.47,0,0,0,1.1-5.25c-.05-.22-.1-.44-.16-.66a6.74,6.74,0,0,0,.22-3.68A7.46,7.46,0,0,0,28.21,67c0-.07,0-.14,0-.21a6.1,6.1,0,0,0,.28-2.68,6.09,6.09,0,0,0-.29-2.71,5.68,5.68,0,0,0,.08-1.3,6.38,6.38,0,0,0,.48-2.73,5.53,5.53,0,0,0-.25-3.81,5.69,5.69,0,0,0-.43-2,4.59,4.59,0,0,0,.27-.7,6.47,6.47,0,0,0,1.07-.28,6,6,0,0,0,3.55-.36A5.75,5.75,0,0,0,35.78,50a6.3,6.3,0,0,0,2.37.12,6,6,0,0,0,5.6.48,6.25,6.25,0,0,0,2.24.07,5.91,5.91,0,0,0,5.14-.1,8,8,0,0,0,1.78.41,7.78,7.78,0,0,0,3.5-.46,6.09,6.09,0,0,0,1.85.22A6.7,6.7,0,0,0,59.5,51a6.45,6.45,0,0,0,6-1.18,6,6,0,0,0,5.44,0,5.5,5.5,0,0,0,.9.4,6.06,6.06,0,0,0,5.13.85A6.82,6.82,0,0,0,78.37,51l.22-.08.23.07a4.81,4.81,0,0,0,.67.49c.14.18.3.35.46.52a6.19,6.19,0,0,0,.37,1.64,5.35,5.35,0,0,0,.51,3.09c0,.21.07.43.11.64l.09,0a5.48,5.48,0,0,1,.19.68l-.07.12a8.41,8.41,0,0,0,.32.87l0,.15c-.11-.25-.27-.61-.4-.95a5.84,5.84,0,0,0,.37,6.7,6,6,0,0,0-1.14,3.9,4.89,4.89,0,0,0,0,3.27c.14.38.28.74.43,1.09,0,0,0,.08,0,.12a6.68,6.68,0,0,0,.09,2.13,6.18,6.18,0,0,0-.27,4.29,5.79,5.79,0,0,0,.18,5.43,6.38,6.38,0,0,0-.29,3.37,6.23,6.23,0,0,0,.2,2.06A6,6,0,0,0,81,93.43a5.13,5.13,0,0,0-.06,1,5.86,5.86,0,0,0,.55,5.27,6.07,6.07,0,0,0,.29.7s0,0,0,0a6.8,6.8,0,0,0-1.49,3,7.64,7.64,0,0,0,.34,4.3,5.81,5.81,0,0,0,.1,1.25,6.27,6.27,0,0,0-.33,4.67,5.94,5.94,0,0,0,0,3,6.09,6.09,0,0,0-.05,2.55,6.63,6.63,0,0,0,0,2.35,6.34,6.34,0,0,0-.39,1.48,6,6,0,0,0-1.72,1.28,6.3,6.3,0,0,0-1.56-.07,7.2,7.2,0,0,0-4.33-.55,6,6,0,0,0-2.3.85,4.87,4.87,0,0,0-.55-.06,5.43,5.43,0,0,0-4.29-.09C64.83,124.31,64.44,124.2,64,124.07Z" style="fill:#fff"/><path d="M119.23,105.92c-.84,0-.84-.66-1.69-.66s-.84,1.3-1.69,1.3-.85,1.18-1.7,1.18-.84-.66-1.69-.66-.85-.55-1.69-.55-.85-2-1.7-2-.84.1-1.69.1-.85,3.27-1.7,3.27-.84-1.64-1.69-1.64-.85,1.23-1.69,1.23-.85-.16-1.7-.16-.85.24-1.69.24-.85-2-1.7-2-.85.08-1.7.08-.84-.56-1.69-.56-.85.53-1.7.53-.84.66-1.69.66-.85-.1-1.69-.1-.85,1.57-1.7,1.57-.85-2.13-1.69-2.13-.85-.63-1.7-.63-.85,0-1.7,0-.84-.16-1.69-.16-.85,2.13-1.7,2.13-.85-.26-1.7-.26-.85-1.55-1.7-1.55-.85,2.21-1.7,2.21-.84-.67-1.69-.67a10.6,10.6,0,0,1-2-.06c-.61-.12-.45-2.38-1-2.62s-2.27,1.77-2.78,1.42.56-2.54.12-3-2.84.78-3.18.26,1-2,.81-2.58-1.83-.72-1.95-1.33a11.3,11.3,0,0,1,.18-2c0-.86,1.17-.86,1.17-1.72s-.32-.85-.32-1.71-2.1-.85-2.1-1.71,2.91-.86,2.91-1.71-3.06-.86-3.06-1.72,2.93-.85,2.93-1.71-2.08-.86-2.08-1.71.69-.86.69-1.71,0-.86,0-1.72.18-.85.18-1.71-1.68-.85-1.68-1.71,1-.86,1-1.71,1.49-.86,1.49-1.71-.37-.86-.37-1.71,0-.86,0-1.72.55-.85.55-1.71S61,68.52,61,67.66s.06-.86.06-1.71.62-.86.62-1.72,1.58-.85,1.58-1.71-1.94-.86-1.94-1.71,1-.86,1-1.71-1-.86-1-1.72,1.75-.85,1.75-1.71-2.21-.86-2.21-1.72,2-.85,2-1.71-.25-.86-.25-1.71.22-.86.22-1.72.63-.85.63-1.71-.24-.86-.24-1.71-.62-.86-.62-1.72,0-.85,0-1.71,0-.86,0-1.71-.25-.86-.25-1.72,1.24-.85,1.24-1.71-1-.86-1-1.72,0-.86,0-1.71-.78-.86-.78-1.72-.64-.86-.64-1.72,2.41-.86,2.41-1.72a6.75,6.75,0,0,1,.22-1.56c.12-.62-.77-1.35-.53-1.92s-.77-1.9-.42-2.42,1.29-.75,1.73-1.19.46-1.72,1-2.07,1.72.17,2.3-.07,1.38.17,2,.05,1.19.57,1.83.57c.84,0,.84-1.74,1.69-1.74s.84,2.05,1.69,2.05.85-2.71,1.7-2.71.84,0,1.69,0,.85,1.22,1.69,1.22.85.7,1.7.7.84-1.24,1.69-1.24.85-.38,1.7-.38.84,2.24,1.69,2.24.85-2,1.69-2,.85.23,1.7.23.85-.46,1.69-.46.85.45,1.7.45.85-.59,1.7-.59.84-.17,1.69-.17.85.37,1.7.37.84.54,1.69.54.85-.74,1.69-.74.85-.34,1.7-.34.85.44,1.69.44.85.82,1.7.82.85-.13,1.7-.13.84.38,1.69.38.85,1,1.7,1,.85.67,1.7.67.85-.09,1.7-.09.85-3,1.7-3,.84.39,1.69.39a13.65,13.65,0,0,1,2.17-.19,12.68,12.68,0,0,1,1.91,1c.58.24,1,1.17,1.48,1.51s.31,1.58.75,2,1.59.28,1.93.8,1.7.71,1.94,1.29-2.3,2-2.18,2.62.9,1,.9,1.59c0,.86,0,.86,0,1.72s1.95.85,1.95,1.71-1.9.85-1.9,1.71,1.57.86,1.57,1.71-1.37.86-1.37,1.72-.23.85-.23,1.71-.28.86-.28,1.71,0,.86,0,1.71,2.28.86,2.28,1.72.11.85.11,1.71-2.22.85-2.22,1.71-.84.86-.84,1.71.1.86.1,1.71,2.53.86,2.53,1.71-.79.86-.79,1.72-.41.85-.41,1.71-.51.85-.51,1.71,1.75.86,1.75,1.71-.83.86-.83,1.72-1.61.85-1.61,1.71,2.78.86,2.78,1.71-2,.86-2,1.71-.78.86-.78,1.72,2.45.85,2.45,1.71-.88.86-.88,1.72.34.85.34,1.71-.86.86-.86,1.71,1.41.86,1.41,1.72-.73.85-.73,1.71.3.86.3,1.71,1,.86,1,1.72-.54.85-.54,1.71-2.7.86-2.7,1.71.14.86.14,1.72.27.85.27,1.71,2.49.86,2.49,1.72-1.28.86-1.28,1.71.07.86.07,1.72-1.75.86-1.75,1.72.15.86.15,1.72c0,.63,2.65,1.51,2.53,2.11s-2.58.54-2.81,1.11.53,1.6.18,2.11-.44,1.32-.88,1.76-.46,1.72-1,2.06-2.41-1.81-3-1.57-.68,1.56-1.29,1.68A9.77,9.77,0,0,1,119.23,105.92Z" style="fill:#fff"/></svg>