<svg id="레이어_1" data-name="레이어 1" xmlns="http://www.w3.org/2000/svg" viewBox="0 0 150 150"><path d="M12.31,63.47c-.81.68-5.34.88-2.18,1.34A6,6,0,0,0,14,64.1a19.58,19.58,0,0,0,2.91-2.48l-4.24,1.75c2.3-.15.78.74-.43-.38a7.23,7.23,0,0,0,3.08,1.3,6.1,6.1,0,0,0,6.77-2.76,9.32,9.32,0,0,0,.89-1.92q.52-3.26-.24.12l-8.21,2.16A17.85,17.85,0,0,0,19.25,64,6.3,6.3,0,0,0,26,61.27c.18-.25,1.36-2.36.71-1.48l-3.58,2.76c1.72-.32,2.59-1.29,4.05-2.07-1.32.71-.28.46.6.14L22,59.08a27.64,27.64,0,0,0,3.55,2.54,6.09,6.09,0,0,0,8.21-2.15,9.65,9.65,0,0,0,.93-2.62c.44-1.84.71-1.65-.39.29L27.49,59.9a9.64,9.64,0,0,0,8.62-.74l-7.27-.94a19.82,19.82,0,0,0,1.3,1.51c2.57,2.12,5.94,2.39,8.49,0a9.63,9.63,0,0,0,1.92-2.25,7.87,7.87,0,0,0,.74-1.68q.54-3.25-.23.12l-6.77,2.76c2.79,1.16,5.05.19,7.53-1.13H35.76c-3.19-2.35.16.93,1.37,1.83a5.77,5.77,0,0,0,6.06,0c1.32-1-1.7.15-.18,0a13.44,13.44,0,0,0,3.32-.52c2-.73,3.7-2.86,4.5-3.53l-7.27.93,1.16.76c2,1.33,5.66,1,7.27-.93,1-1.24-.66.11.49-.65H46.42c.84.39,3.77,2.06,4.39,1.31-.11.13-4.39-3.45-3.16-1.54A6.88,6.88,0,0,0,49.76,57,6,6,0,0,0,58,54.87a10.92,10.92,0,0,0,.93-2.64c.37-1.63.77-2.1-.42.17l-9.42,1.21c2.42,2,3.66,3.32,7.62,2.92a28.28,28.28,0,0,0,2.93-.65,9.71,9.71,0,0,0,2.94-3.3l-5.18,3c1.81.23-2.79-1.16-.86,0a6.11,6.11,0,0,0,7.27-.94,13.66,13.66,0,0,0,1.78-2.08c.29-.46,1.54-2.58.71-1.46l-5.18,3c1.48-.11-2.56-1.31-.88-.18a8.41,8.41,0,0,0,2.25.93,6.73,6.73,0,0,0,5.79-1.1l-4.63.6,1.09.38a6,6,0,0,0,6.77-2.76l.74-1.36L64,52.7c-3.17-2-.75-.38.2.37a7,7,0,0,0,2.46,1.34,8.68,8.68,0,0,0,4.66-.22c.94-.28,4.67-2,4.24-3.29-.27-.79-1.95,1.27-.69.67A13.32,13.32,0,0,0,77,50L71.13,51.5c.52.12,1.92,1.06,3.31,1.43a6.06,6.06,0,0,0,5.84-1.55,11.4,11.4,0,0,0,1.91-2.3,6.78,6.78,0,0,0,.75-1.67q.53-3.27-.22.16l-6.78,2.76a8.34,8.34,0,0,0,6.6-.82H76.48c-3.7-2.58.4.69,1,1.09a14.05,14.05,0,0,0,2.74,1.15c2.51.9,5.47-.61,6.77-2.76a8.72,8.72,0,0,0,.94-2.6c.52-2,.61-1.2-.36.4L79.4,48.94c-1.1-.77-2.15-1.78-.68,0a10.56,10.56,0,0,0,2,1.8c2.61,1.84,6.74.49,8.21-2.16a9.79,9.79,0,0,0,.88-1.92c.36-2.17.28-2.13-.23.1L81.4,48.87l1.15.77a6.08,6.08,0,0,0,7.27-.94l.84-.83-7.27.94,1.13.64a6.11,6.11,0,0,0,8.21-2.15L93.48,46l-8.21,2.15c-3.82-2.51.49.77,1.24,1.17a6.65,6.65,0,0,0,4.62.6c2.53-.48,3.91-2.08,5.33-4.09L87,47.06l1.19.95c3.22,2.54,7,2.19,9.43-1.22.17-.25,1.32-2.36.71-1.5l-8.21,2.16c-3.85-2.38.39.58,1.23,1.09a6.1,6.1,0,0,0,8.21-2.15,8.7,8.7,0,0,0,.93-2.6c.53-2.07.6-1.15-.36.41L92,46.36a8.32,8.32,0,0,0,4.17,1.47,6,6,0,0,0,3-.82q1.65-.81-1.63.28c.47,1.43,6.26-2.61,6.54-2.89l-7.27.93,1.16.8a5.84,5.84,0,0,0,6.06,0l.88-.66-4.63.61c1.1.28-.35-.32.82.56,2.08,1.56,5.56.8,7.27-.94a13.84,13.84,0,0,0,2.52-3.46l-8.21,2.16c-3.83-2.4.41.6,1.23,1.11,3,1.87,6.3.36,8.21-2.15a2.62,2.62,0,0,0,.6-1.11c.75-1.59.22-1.06-1.57,1.59-2.13,1.29-6.61-2.2-5.42-.71a7.17,7.17,0,0,0,4.6,2.66c2.65.45,5.35-.29,6.78-2.76a9.15,9.15,0,0,0,.93-2.61c.47-1.9.69-1.53-.38.32l-6.77,2.75a13.12,13.12,0,0,0,2.14.62c4.91,1-1.11-.85.73.07A6.12,6.12,0,0,0,122,42a9.53,9.53,0,0,0,.93-2.62c.45-1.85.71-1.63-.39.29l-8.21,2.16c1.53.71,7.11,2.92,8.43.47.2-.36-4.29,0-1.15.18a6.65,6.65,0,0,0,4.71-1.37h-6.06a9.83,9.83,0,0,0,6.25,1.72,6.3,6.3,0,0,0,5.18-3c2.65-4.09-1.74.55-.55,0h-6c-3.55-2.58.55.78,1.27,1.31,2.7,2,6.6.35,8.21-2.16.17-.26,1.12-2.31.69-1.64l-9.43,1.21c2.41,2.2,3.81,4.13,7.69,3.16,3-.74,5.44-3.45,5.06-6.67l-4.41,5.79.11,0-7.6-5.78v.1l7.6-5.78a6.86,6.86,0,0,0-5.32.66,5.83,5.83,0,0,0-3,5.18l.11,1.09,1.76-4.24c-.54.66-1.13,1.32-1.6,2-.72,1.05.8-.65-.1.5-1.68,2.15-2.38,4.76-.93,7.27A8.84,8.84,0,0,0,127,44c1.29,1.23,1.08,1.5,0-.38l3.59-8.81c.55-.21-1.51.23-1.85.36-2.27.87-4.7,3-4.41,5.79l.12,1.09,1.76-4.24-1.67,1.48a6.07,6.07,0,0,0-.93,7.27l.76,1.33V41.83c-.8,1.51,2.83-3.13-.47.37a6.63,6.63,0,0,0-1.62,3.14c-.67,2.81.91,5.21,1.53,6.54l2.15-8.21c-2,1.09-4,2.72-4.59,5a7.81,7.81,0,0,0,.08,3.75c.77,2.87.74-1.81.29-.46l2.76-3.58c4.29-2.26-.5-.07-1.31.37a16.44,16.44,0,0,0-2.33,1.77c-2,1.61-2.19,5.18-.94,7.27.49,1,.55.89.19-.25a3.19,3.19,0,0,1,.34-3c-.1-.44.63-.4-.23.19A11.26,11.26,0,0,0,118,56.86c-1.94,1.54-2.3,5.26-.93,7.27.43.64,3.62,4.71,1.51,1.6V59.68l-.45.88,3.58-2.75c1-.43-1.71,0-2.25.22-3.84,1.57-5.33,5-3.59,8.81l.57,1.26-.6-4.62-.15,1,2.76-3.58-1.33.56c-1.94.82-2.87,3.25-3,5.18a15.45,15.45,0,0,0,.82,6l.61-4.63c-1.2,2.28,6.1-2.33,2.8-1.74a9.59,9.59,0,0,0-2.68.93c-3,1.52-3.54,5.47-2.15,8.21l.66,1.29,2.15-8.21c4.3-1.91-.82,0-1.7.42A6,6,0,0,0,112,75.68c.35.9,2.59,5.79.83,1.35l2.76-6.77a20.6,20.6,0,0,0-2.1,1.32c-2.72,2-3.79,5.11-2.16,8.21a6.1,6.1,0,0,0,1.2,1.7c-.53-1.28-.63-1.44-.31-.48l4.19-7.38c-1.84.59-3.65.57-5.33,2.66s-2.41,4.81-.94,7.27c.45.75,3.33,4.94,1.29,1.52l.94-7.27c-.44.56-.89,1.08-1.37,1.59-2,2.15-2,4.72-.94,7.27l.54,1.25V81.86c-1.26,2.22,5.92-2.32,2.64-1.79a11.41,11.41,0,0,0-2.71.92c-1.86.8-3,3.28-3,5.18s1.57-2.63.37-1.59c-2,1.7-2.22,5.11-.94,7.27l.8,1.35L109.88,85c4.28-2.12-.68,0-1.59.46-3,1.48-3.58,5.5-2.15,8.21a8.09,8.09,0,0,0,1.75,2.07c1.46,1.42.69,1.14-.14-.43l3.59-8.81a11.08,11.08,0,0,0-4.74,2.88,6.24,6.24,0,0,0-.94,7.27c.18.33,1.36,1.86,1.16,1.48l-.61-4.62c-.31,1.63,1.8-1.57.72-1.11-.55.23-1.11,1.32-1.41,1.83a13.65,13.65,0,0,0-.86,1.86c-.53,1.4.53-.92-.35.33l3.58-2.76-1.48.51a6.17,6.17,0,0,0-4.19,7.38l.24,1.14.61-4.62c-1,1.31.76-.82-.45.38a6.12,6.12,0,0,0-.94,7.27,9.12,9.12,0,0,0,1.78,2.08c1.29,1.23,1.09,1.51,0-.38L107,98.6c-1.76.73-5.29,1.38-6.64,4.57s.29,5.84,1.32,7.82l3.59-8.81c.65-.27-1.48.26-1.8.39-3.91,1.59-5.24,5-3.59,8.82,2,4.7.16-2.45,0-.62l4.4-5.78c-.26.07-1.58.08-2.17.25-4,1.12-5.22,5.35-3.59,8.81.14.29,1.33,2.12,1,1.43l3.58-8.81c-2.85,1.11-5,2.22-5.74,5.48a6.61,6.61,0,0,0,3,7.46l-1.22-9.42a12.21,12.21,0,0,0-1.92,2.25l3.59-2.76-.4.12,7.59,5.78c0-.4.29-1.5.26-2.16-.11-2.92-2.67-6.44-6-6l-1.3.17,4.25,1.76c-2.54-2.54-4.8-3.42-8.83-3.75L102.2,110l-.39-1.2a6.15,6.15,0,0,0-7.38-4.19l-1.37.28,6.78,2.76c-.79-1.17-.7-.43.26,2.24a6.7,6.7,0,0,0,.2-2.22,6.12,6.12,0,0,0-6-6c-.75-.05-.78,0-.08.06a12.64,12.64,0,0,0-2.12-.33s-4.58,1-3.11.73l7.38,4.19c-.82-3.26-2.42-4.6-5.44-5.87l3.59,2.76c-1-1.34-2-2.88-3.45-3.75-2.3-1.35-5.31-.21-6.16-.07l7.38,4.19c.87,4.69.16-.79,0-1.76-.59-3.17-4.47-5-7.38-4.19l-1.46.41,7.38,4.19c.73,4.66.18-.88,0-1.82-.49-3.18-4.54-5-7.38-4.19-.86.25-5.69,2-1.75.84l7.6,5.79a9.39,9.39,0,0,0,.11-2c-.44-4-3.47-6.63-7.6-5.78-5,1,2.07.8.62.3l4.41,5.78c-.24-2,.08-4.72-2.42-6.82a6.29,6.29,0,0,0-5.84-1.54c-.75.17-5.65,2.24-1.84,1L84.13,98c-.16,2.55-.15,3,0,1.49a4.56,4.56,0,0,0-.11-2.4,7.36,7.36,0,0,0-1.74-2.88c-2.51-2.93-7.66-2-9.42,1.22a10,10,0,0,0-1,2.42l2.76-3.59-.8.59,4.62-.6c1.2.31,2.5,1.27.49,0a8.34,8.34,0,0,0-2.46-1.18,6.08,6.08,0,0,0-7.38,4.19,9.71,9.71,0,0,0-.34,2.08q.35,3.4.23-.46l7.38-4.19c1.15.17-1.21-.45-1.52-.5-4.13-.59-7.15,1.56-7.59,5.79-.16,1.53,1.19-2.2-.57.23l5.18-3a8.56,8.56,0,0,0-6.09,2.55L70.06,98a10.34,10.34,0,0,0-4.14.93c-.59.32-1,.93-1.59,1.27.14-.08,1.34-.87.63-.57-3,1.24-4.77,2.74-5.62,6l4.19-4.19c-3.16,1-4.44,2.61-5.61,5.63L65.3,103,64,102.7c-4.15-.78-7.13,1.7-7.59,5.78L56.18,110l7.6-5.79c3.61,1.35-1.17-.8-1.91-1.08-3.15-1.17-6.43,1.34-7.38,4.2l-.39,1.19,5.78-4.41-1.16,0c-2.43.07-5.33,1.79-5.79,4.4-.17,1-.82,6.45,0,1.79l7.38-4.19c3.84,1.23-1-.66-1.8-.92-4.11-1.32-7.14,2.14-7.6,5.78l-.19,1.51,6-6a10.46,10.46,0,0,0-3.85.4c-1.81.51-3.92,2.19-4.19,4.19-.14,1-.29,7.14.36,2.35l7.38-4.19a21.82,21.82,0,0,0-2.91-.4l-1.59.22q-3.15,1.2.58.1L56.74,111l-.29-.36,1.75,4.24c-.11-3.3-1.56-4.82-4.15-6.54l1.21,9.42c-.35.4,1.68-.88,2.1-1.37,2.72-3.11,2.06-7.07-1.21-9.42l-1.09-.79,2.15,8.21c2.13-3.83,1.37-7.16-1.72-10.09l1.76,4.25A6.9,6.9,0,0,0,56,103.87a8.47,8.47,0,0,0-1.88-1.7c-.18-.12-2.19-1.33-1.22-.58L55,109.8c-2.62,3.64.72-.48,1.25-1.22,1.55-2.14.81-5.51-.93-7.27-.57-.57-1.14-1.12-1.74-1.66v8.48c-.47.58,1.58-.88,2-1.34,2.55-3.12,2.22-7.1-1.21-9.43a5.51,5.51,0,0,0-1.86-.89q1.78,1.32.63.3v8.48c-.53.68,1.52-.87,1.88-1.33,2.36-3,2.4-7.23-1.22-9.43-.29-.17-2.25-1-1.72-.67l2.76,6.77c.38-1.21-.36.51.57-.76,1.84-2.51.51-6.85-2.16-8.21-.78-.39-5.67-2.5-2-.63l1.22,9.43c.28-.31,1.24-.83,1.68-1.3,2.09-2.22,2.53-6.32,0-8.49l-1-.81.94,7.27L54.8,96a6.08,6.08,0,0,0-2.15-8.21A8.88,8.88,0,0,0,50,86.83c-2-.5-1.35-.67.36.36l2.15,8.21.59-1.1c1.14-2.13,1.16-5.6-.94-7.27-1.49-1.19.61,2.29.37.88L51,93.75l.89-1.16c1.85-2.38,2.73-6.2,0-8.48-1.44-1.21.64,2.29.44.87l-1.54,5.83c.29-.31,1.24-.83,1.69-1.3a6.08,6.08,0,0,0-1.22-9.42,8.72,8.72,0,0,0-2.6-.94c-2-.51-1.26-.64.37.35l2.76,6.78.8-2.13c1-2.67-.73-5.29-2.76-6.78-.25-.18-2.34-1.36-1.47-.73l2.15,8.21c2.54-4.14,2.49-10.64-3.88-12.5l3.59,2.76-.61-1a6.14,6.14,0,0,0-6.77-2.76A7.11,7.11,0,0,0,41,72.1c-1.75,1.28-1.61,1.26.44,0l6.77,2.76-.52-1.12c-1.09-2.3-4.42-3.5-6.78-2.76l-1.34.42,6.78,2.76c-1.34-1.85,0,4.64,0,1.68a9.21,9.21,0,0,0-.26-2.9c-.84-2.9-4.3-5.34-7.38-4.19a8.11,8.11,0,0,0-3.06,1.7c-2.15,2.1,6,0,3.4-.51l3.58,2.76c-.45-1-.38-.72.23.69a7.12,7.12,0,0,0-.36-2.1c-.69-2.34-3.17-4.64-5.79-4.4a15.24,15.24,0,0,0-3,.4c-.75.23-5.57,2.17-1.31.76l7.38,4.19c.32,1.15.16,3.13.28.57a8.53,8.53,0,0,0-.23-2.8c-1.1-4-5.35-5.23-8.81-3.59-.65.31-1.15.92-1.75,1.2L38,71.16c-1.14-4.83-4.92-7.42-9.84-5.9l7.39,4.19c-.63-2-1.31-4.54-4.91-6,1.32.54-2.36-.81-3-.85a20.45,20.45,0,0,0-2.33.17l5.79,4.41c.66,4.17.14-1.3,0-2.15A5.77,5.77,0,0,0,27,60.82a10.39,10.39,0,0,0-4.44-.07c-1.06.3-5.85,2.84-1.64,1.3l7.38,4.19c1,4.22.16-.58,0-1.34a6.57,6.57,0,0,0-.74-2A10.2,10.2,0,0,0,24,59.68a9,9,0,0,0-5-1c-3.56.14,2.84.58-.89-.06l4.19,4.19L22,61.25a6,6,0,0,0-7.38-4.2l-1.37.47,7.38,4.19-.38-1.42c-.76-2.84-4.38-5.43-7.38-4.19l-1.43.6,7.38,4.19-.35-1.46a5.9,5.9,0,0,0-4.19-4.19,11.06,11.06,0,0,1-2-.55l3.58,2.76c-1.82-3.86-5.23-4.62-9.12-3.82l4.62.6-.25-.18C4.77,49.59-1.23,60,5,64.41c1.63,1.15,3.17.87,5,.83l-5.19-3a8.76,8.76,0,0,0,6.23,4.54L6.86,62.62l.35,1.46c.69,2.87,4.44,5.41,7.38,4.19l1.43-.6L8.64,63.48,9,64.9c.8,3,4.32,5.23,7.38,4.19l1.37-.46-7.38-4.19L10.71,66a5.81,5.81,0,0,0,4.19,4.19c.69.12,6.06.72,5.84.29.67,1.34-2.75-.4-3-.58q-1.08-7.06-1.37-2.56a10.87,10.87,0,0,0,.34,2.13c.72,3,4.4,5.29,7.39,4.19a7.78,7.78,0,0,0,3.05-1.69c2.15-2.11-6.05.08-3.35.46l-4.2-4.19c-.65-4.17-.14,1.31,0,2.15.38,2.43,3.39,4.56,5.78,4.4,3.26-.2-.41-.06-.26-.74-.08.35,2.27,1,2.84,1.12l-4.19-4.19c-.34-1.08.13,1.41.22,1.7a6.09,6.09,0,0,0,7.38,4.19l1.34-.41-5.84-1.54c1.15,1-.93-2.68-.42-.53,1,4.05,5.47,5.17,8.81,3.59.66-.31,1.16-.93,1.76-1.21l-8.82-3.58c-.32-1.15-.16-3.13-.28-.58a8.59,8.59,0,0,0,.23,2.81c.83,3,4.29,5.21,7.38,4.19a7.51,7.51,0,0,0,2.54-1.24c1.92-1.59-3.33.68-1.4.51L30.9,74.43c-.34-1.15,0,1.2.05,1.25a10.5,10.5,0,0,0,.88,2.21,6.8,6.8,0,0,0,4,3.58,7.86,7.86,0,0,0,4.19.21c.87-.22,6.21-3,1.85-1.41l-7.38-4.19q.19-3.7-.17-.34a6.44,6.44,0,0,0,.29,1.85,7.63,7.63,0,0,0,1.33,2.58c1.53,2.11,4.07,3.6,6.77,2.75l1.34-.42-6.78-2.76.53,1.13c1.13,2.39,4.38,3.38,6.78,2.75a6.92,6.92,0,0,0,1.91-.73c1.76-1.28,1.61-1.26-.43,0l-6.78-2.76a11.41,11.41,0,0,0,1.54,2.2A17.25,17.25,0,0,0,43,83.77l-3-5.18C40,77.15,40,80,40,80s1-2.53.17-1.16c-1.83,3-.42,6.32,2.15,8.21.25.18,2.34,1.36,1.47.72L41.05,81c-.27.71-.54,1.42-.8,2.13-.93,2.49.63,5.48,2.76,6.77a8.72,8.72,0,0,0,2.6.94c2,.51,1.26.64-.37-.35L44,81c-1.83,1.94-3.62,2.91-3.34,6.34a7.06,7.06,0,0,0,2.76,5.22V84.11c-2.89,3.72-3.83,8.13.27,11.4l-.93-7.27-.59,1.1a6.11,6.11,0,0,0,2.15,8.21,9.18,9.18,0,0,0,2.61.94c2,.49,1.35.66-.36-.36l-2.15-8.21L43.78,91c-1.27,2.14-1.05,5.57.94,7.27l1,.82V90.63c-.28.31-1.24.83-1.68,1.3-2.5,2.66-2.35,7.62,1.22,9.42.78.4,5.67,2.51,2,.64L45,93.78a12,12,0,0,0-1.77,3.62A6.1,6.1,0,0,0,46,104.18c.29.18,2.25,1,1.72.68l-1.22-9.43c.53-.68-1.51.87-1.87,1.34-2,2.5-2.58,6,0,8.48A13.52,13.52,0,0,0,46.73,107c.43.27,2.65,1.44,1.57.7L47.09,98.3c.47-.58-1.58.88-2,1.35-2,2.41-2.59,6.13,0,8.48.59.54,1.17,1.09,1.73,1.66l-.94-7.27c2.63-3.64-.71.48-1.25,1.22-2.06,2.86-.2,6.39,2.16,8.21.24.19,2.33,1.44,1.41.73l-3-5.18c-.06,2.58,1.74,5,2.19,5.75v-6.06l-.61,1.1c-1.69,3-.53,6.28,2.15,8.21l1.09.78-1.21-9.42c.34-.4-1.68.88-2.1,1.37A6.1,6.1,0,0,0,48,118.65l1.16.78-3-5.18c.19,5.27,5.61,9,10.36,5.81l-4.62.61,1.31.18c2.86.39,6.9-.66,7.38-4.19.15-1,.29-7.14-.36-2.35l-4.19,4.19c1.31-.37-.94-.1.66,0,3.52.29,5.63-3,6-6l.19-1.51-7.59,5.79c-3.84-1.23,1,.66,1.8.93,2.88.92,6.84-1.09,7.38-4.19.17-1,.82-6.46,0-1.8l-5.78,4.41,1.16,0a6.19,6.19,0,0,0,5.79-4.4l.39-1.19-7.38,4.19c-3.61-1.35,1.17.8,1.91,1.07,4,1.51,7.2-2.28,7.59-5.78l.18-1.53-7.6,5.79,1.35.25a6.22,6.22,0,0,0,7.38-4.19l.44-1.13-4.19,4.19a7.32,7.32,0,0,0,5.5-5.79l-2.76,3.59c.61-.39.34-.06-.07,0a6,6,0,0,0,2.18-.82,14.29,14.29,0,0,0,2.6-2L69,110.13A8.82,8.82,0,0,0,75,107.57l-4.25,1.75c5.59-.44,8-4.14,8.52-9.35l-7.6,5.78c-1.15-.16,1.21.46,1.52.5,3.14.45,6.52-.72,7.38-4.19a9,9,0,0,0,.33-2.07q-.34-3.42-.22.45l-7.38,4.19c-1.81-1.17-2.17-1.32-1.1-.46a6,6,0,0,0,2.65,1.55,6.34,6.34,0,0,0,3.61.11,6,6,0,0,0,2.23-1.2,6.09,6.09,0,0,0,2.16-2.15c.7-1.57.83-1.9.37-1l-9.43,1.22.2.23L72.48,97.1a8.14,8.14,0,0,0,.08,4.1c1,2.93,4.13,5.27,7.38,4.19.79-.27,5.6-2.23,1.84-1l-5.84-1.55.76.67-1.76-4.25c-.06-.45-.14,1.52-.09,1.92.34,2.84,1.65,4.83,4.4,5.79,2.38.83,4.59-.06,5.76-.3l-7.59-5.79a8.7,8.7,0,0,0-.11,2c.41,3.76,3.51,7,7.59,5.79.87-.26,5.7-2,1.75-.85l-7.38-4.19c-.72-4.65-.18.88,0,1.82.5,3.2,4.55,5,7.38,4.19l1.46-.41L80.7,105c-.87-4.69-.16.78,0,1.76.63,3.43,4.41,4.65,7.38,4.19.3,0,2.63-.71,1.53-.53l-5.83-1.55c.43.52.44.51,0,0,.41.55.83,1.1,1.25,1.63a10.46,10.46,0,0,0,3.58,1.93l-4.19-4.19.32,1.29c.85,3.41,4.23,4.67,7.38,4.19,4.71-.71-1.35-.58-.9-.34a7.94,7.94,0,0,0,3,.31l-6-6c.08,2.28-.49,3.81,1.17,6a6.32,6.32,0,0,0,6.78,2.75l1.37-.28L90.24,112l.39,1.2a6.24,6.24,0,0,0,5.78,4.4c1.36.11-.2,0-.54-.12.73.3,3.5,1.82,1.43.51s.63.77,1.38,1.09a6.56,6.56,0,0,0,3.61.34l-6-6c0,.4-.28,1.5-.26,2.16a6.08,6.08,0,0,0,7.6,5.79c1.67-.47,3.55-2.31,4-2.69,3.17-2.52,1.72-7.57-1.21-9.43l-.21-.13,2.76,3.59q-.19,3.8.15,1.88l-4.2,4.2,1.4-.55c3.83-1.48,5.36-5,3.59-8.81-.14-.29-1.33-2.12-1-1.43l-3.58,8.81c.26-.07,1.58-.08,2.17-.25a6.21,6.21,0,0,0,4.41-5.79c.2-2.38-1.26-4.52-1.65-5.44l-3.58,8.81c-.66.27,1.47-.26,1.8-.39,3.67-1.5,5.53-5.06,3.58-8.82-2.24-4.33-.32,1.89-.2.55l-3,5.18c.87-.53.61-.55-.77-.07a4.16,4.16,0,0,0,2.09-.42c3.53-1.45,5.72-5.13,3.59-8.81A9.12,9.12,0,0,0,112,99.28c-1.28-1.23-1.09-1.51,0,.37l-.93,7.27c2.58-2.56,3.45-4.91,2.68-8.57l-4.19,7.38c2.2-.75,3.87-1.47,5.22-3.48.5-.74,2.2-3.27.81-1.56,3.1-3.82,2.2-6.75.4-10.11l-.94,7.28c1.15-1.32-2.77,1.06-.56.2,3.68-1.43,5.53-5.11,3.58-8.81a7.93,7.93,0,0,0-1.75-2.07c-1.46-1.43-.69-1.15.14.42l-2.15,8.21c-4.28,2.12.68,0,1.59-.46,2.89-1.43,3.72-5.58,2.15-8.21l-.8-1.35-.94,7.27a8.43,8.43,0,0,0,3.15-6.89l-3,5.18c-4.34,1.88,1,.06,1.73-.41a7.11,7.11,0,0,0,2.4-2.59c1.58-2.72.88-5-.29-7.73l-.94,7.27c.48-.52.93-1,1.37-1.59,1.67-2.11,2.42-4.8.94-7.27-.45-.76-3.32-5-1.29-1.53l-.94,7.27c.69-.85-4.56,1.91,0,.43a6.08,6.08,0,0,0,4.19-7.38,22.3,22.3,0,0,0-2.09-4.09l-2.16,8.21a21.9,21.9,0,0,1,2.11-1.32c2.11-1.17,3.7-4.39,2.76-6.78-.36-.9-2.59-5.79-.84-1.35l-2.76,6.77c-4.3,1.92.81,0,1.69-.42,3.08-1.37,3.49-5.58,2.16-8.21L124,69.34l-2.15,8.21c-1.32.67-2.53,1.09-.31.37a7.4,7.4,0,0,0,2.49-1.3,8.06,8.06,0,0,0,2.61-4c.76-3-.53-3.33-.4-6l-3,5.18c4.92-2.09,5-6.72,3-11l-3.58,8.82c-.94.38,2.28-.22,3-.52A6.69,6.69,0,0,0,129,65.73a6,6,0,0,0,0-6.05c-.44-.65-3.63-4.72-1.51-1.61l-.94,7.27a13.41,13.41,0,0,0,4.11-4.51c1.87-3.06,1.35-6.16-.41-9.09L129.29,59q1.86-1.38-2.24.78a5.92,5.92,0,0,0,3-.81,6.44,6.44,0,0,0,3.19-3.82c.89-2.42,0-4.16-.37-6.48l-1.54,5.84c.86-1-.76.28.62-.49,3-1.68,3.49-5.32,2.15-8.21-.13-.28-1.34-2.15-1-1.41l.6,4.62.14-1-2.75,3.59c4-3,5.45-6.49,2.8-11.12L133,47.78c2.14-1.93,3.63-3.76,3.3-6.82l-4.4,5.78c-.56.22,1.5-.23,1.85-.36,3.58-1.37,5.67-5.2,3.58-8.82a9,9,0,0,0-1.77-2.07c-1.29-1.24-1.08-1.5,0,.38l-.94,7.27C136.27,41,138.32,39,138,35.28l-3,5.18.32-.16-4.62.6.37.11a6.05,6.05,0,0,0,7.59-5.79v-.1a6.08,6.08,0,0,0-7.59-5.79l-.11,0c-2.3.52-4.7,3.29-4.4,5.78l.66-2.23,3.58-2.76-1,.18,5.83,1.54c-.42-.39-.84-1.23-1.35-1.7a6.1,6.1,0,0,0-9.43,1.21c-.17.27-1.11,2.32-.68,1.65l8.2-2.16c3.59,2.61-.54-.91-1.27-1.3a6.15,6.15,0,0,0-5.34-.31c-2.62.94-3.64,3.21-4.47,4.57l5.18-3c-3.06,0,.84.61-.19-.08a5.82,5.82,0,0,0-6.06,0l-.88.66,4.62-.61a7.66,7.66,0,0,0-5,0c-.2.07-2.18.8-2.11,1-.42-1.31,5.93.84,3.46-.33-2.9-1.37-6.49-.86-8.21,2.16a9.53,9.53,0,0,0-.93,2.62c-.45,1.85-.71,1.63.38-.29l8.21-2.16a20.81,20.81,0,0,0-4.41-1.41,11,11,0,0,0-1.32-.49c-2.44-.93-5.55.63-6.78,2.76a9.55,9.55,0,0,0-.94,2.62c-.46,1.9-.68,1.53.39-.32l6.77-2.76c-1.73-.29,1.77,1.18,1.7,1.56.12-.59-1.85-2-2.37-2.32a7.76,7.76,0,0,0-4.28-1.05,7.91,7.91,0,0,0-3.93,1.32,8.58,8.58,0,0,0-2.3,2.35c-.13.17-1.33,2.21-.58,1.22L110,35.15c3.82,2.4-.41-.6-1.23-1.12a6.06,6.06,0,0,0-8.21,2.16c-.65,1.22.15.23-.64,1l7.27-.94c-2.79-2.09-6.24-2.72-9.19-.51H104l-1.17-.8c-2.18-1.49-5.47-.84-7.27.94-1.14,1.13,2.54-.39,1.46-.57-1.37-.23-2.79.69-3.94,1.31h6.06L98,36a6.11,6.11,0,0,0-8.21,2.16,8.72,8.72,0,0,0-.94,2.6c-.52,2.07-.6,1.15.36-.41l8.21-2.16c3.86,2.38-.39-.58-1.22-1.09-3-1.82-6.37-.44-8.21,2.15-.18.24-1.33,2.36-.71,1.49l9.42-1.21-1.2-1c-3.19-2.53-7-2.21-9.42,1.22l-.78,1.11,3.58-2.75-1,.22,4.62.61c3.76,2.47-.44-.65-1.23-1.17C88.62,36,84.69,37.28,83.12,40l-.75,1.28,8.21-2.15-1.13-.65a6.14,6.14,0,0,0-7.27.94l-.84.83,7.27-.94-1.16-.76c-2.66-1.77-6.7-.56-8.2,2.15a9.09,9.09,0,0,0-.88,1.93q-.54,3.24.23-.1l8.21-2.16c1.1.78,2.14,1.79.67.05a10,10,0,0,0-2-1.8c-2.68-1.89-6.63-.42-8.21,2.16a9,9,0,0,0-.93,2.6c-.52,2-.61,1.19.36-.41l6.78-2.75c-2.17-.78,3,3,1.21.81a10.35,10.35,0,0,0-2.12-1.84,6,6,0,0,0-6.06,0l-.91.47,4.62-.6-1.06-.26a6.14,6.14,0,0,0-6.77,2.76,7.47,7.47,0,0,0-1,2.7c-.41,2.56,1.81-2.73.43-1.32l5.84-1.55c-1.75-.46-4.11-2.43-7.22-1.12a9.64,9.64,0,0,0-5.39,5l3.59-2.76c-.58.17-.63.23-.16.18a4.93,4.93,0,0,1,4.2,2.15c-.18-1-1.89-2-2.58-2.42a6.06,6.06,0,0,0-8.21,2.15l-.74,1.37L67.9,43.1a6.77,6.77,0,0,0-6.6.83l4.62-.6c-1.09-.44-3.33-1.6-5.63-1.18A6.21,6.21,0,0,0,55.91,45a4.37,4.37,0,0,0-.9,1.83c.89-1.27,1-1.51.29-.73l7.27-.94a12.72,12.72,0,0,0-5.2-1.63c-2.13-.26-4.09,1.37-5.19,3l-.77,1.15,5.18-3a14.85,14.85,0,0,0-3.58.35l5.83,1.54a12.77,12.77,0,0,0-1.29-1.46c-2.84-2.28-7.47-2.52-9.43,1.21A11,11,0,0,0,47.19,49c-.37,1.63-.77,2.09.42-.18l8.21-2.15c1.19.8,2,1.49.4,0a7.48,7.48,0,0,0-2.36-1.53c-.44-.17-2.13-.86-2.56-.49s2.74,1,1.18.38c-3.58-1.38-6.57-.41-9,2.52l7.27-.94-1.16-.76c-2.36-1.55-5.28-.73-7.27.94-.71.6-2.08,1.57-2.19,2.5.21-1.77,4.63-1.66,2.61-2A8,8,0,0,0,37.13,49h6.06c3.19,2.36-.15-.93-1.37-1.83-1.72-1.27-4.3-.93-6.06,0l-1.81,1,4.62-.61-1.09-.45c-2.38-1-5.6.65-6.78,2.75a8.1,8.1,0,0,0-1,2.72c-.39,2.52,1.79-2.61.43-1.34h8.49c-.11-.08-.88-1.15-1.3-1.5-2-1.66-4.9-2.47-7.28-.94-.76.43-.57.44.6,0,1.22-.23,1.4-.3.55-.23,0,0-.16-.14-.51-.27a6,6,0,0,0-6.78,2.76A9.53,9.53,0,0,0,23,53.71c-.45,1.84-.71,1.65.39-.3l8.21-2.15c-1.4-.8-3.18-2.41-5.36-2.42a13,13,0,0,0-4.94,1.35,11.7,11.7,0,0,0-2.12,1.45c-1.47,1.22,2.66-.83.81-.66-1.23.11-2.41,1.28-3.12,2.15-.21.25-2.05,3.28-1.18,2.08l6.77-2.76a8.59,8.59,0,0,1-1.89-.92,6.11,6.11,0,0,0-8.21,2.15,9.29,9.29,0,0,0-.88,1.92q-.54,3.26.23-.13l6.78-2.75c-.86-.24-3.25-1.45-5.34-1.38-2.8.09-4.54,1.51-6.44,3.34l5.83-1.54c-3.3-.64-6.07-.36-8.69,1.85C-2.09,60,6.44,68.42,12.31,63.47Z" style="fill:#fff"/><path d="M49.13,84.38a13.59,13.59,0,0,0,4.54-4l-5.18,3a8.65,8.65,0,0,0,5.76-1.45,7.35,7.35,0,0,0,2.23-3.36c2.26-5-2.54,2.26-.6.54L50,80.66a8.64,8.64,0,0,0,7.25-.33c2.84-1.42,3.22-4.23,3.65-5.65l-7.38,4.19c-4-1.67.82.83,1.63,1a6.59,6.59,0,0,0,4.62-.61c2.35-1.12,3.33-3,4-5.42l-4.19,4.19c1.45-.45-1.19,0,.5,0a11.28,11.28,0,0,0,2.57-.46,6,6,0,0,0,4.19-4.19L67.31,72l-4.19,4.2c.91-.37-.79,0,.95-.21,1-.15,2.09-.21,3.13-.45a6,6,0,0,0,4.19-4.19,9.12,9.12,0,0,0,.35-2.13q-.34-3.33-.19.26L68.79,73l.84-.52-4.62.6c-4.31-1.48.71.65,1.53.85a6.43,6.43,0,0,0,5-.91A8.69,8.69,0,0,0,76,67.34l-5.79,4.4c2.54-.26,4.29-.67,6-2.68L72,70.81c2-.25,6.16-.45,7-2.91.36-1.08-.72.31-1.48.56a4.59,4.59,0,0,1,1-.31c-3.69.28-.57.37,1.13.15,2.6-.34,5.1-1.63,5.78-4.41l.37-1.47-5.79,4.4c4.86.26,7.77-.74,9.58-5.65l-2.76,3.58a18,18,0,0,0,2.82-2.14c.4-.3.07.08,1.27-.69l-4.63.6a27,27,0,0,0,4,.6c2.6.22,5.11-2,5.78-4.4a7.53,7.53,0,0,0,.36-2.11q-.36-3.34-.17.3l-5.79,4.41a12.09,12.09,0,0,0,8-3.13l-7.27.94,1.43.64c2.26,1,5.47,1.23,7.27-.94a11.57,11.57,0,0,0,2.59-4.95l-5.79,4.41c2.91-.08,4.75-1.33,6.91-3.06l-5.83,1.54c-4.24-1.45.65.55,1.53.85A5.94,5.94,0,0,0,105,56.08c1.13-1.13-1.54.6-.1,0a17.76,17.76,0,0,0,2.38-.93,16.52,16.52,0,0,0,2-1.54,7,7,0,0,0,1.23-1.74c-.41.43-.39.4.07-.09l-5.84,1.54,1.19.17c2.82.38,5.16-.3,6.78-2.76.9-1.39-.67.59.44-.44l-4.24,1.75a12,12,0,0,0,5-1.19l-4.63.6,1.33.44a6.07,6.07,0,0,0,7.38-4.19,9.11,9.11,0,0,0,.35-2.14q-.33-3.32-.2.23l-8.81,3.59c5,2.15,9.39,1.55,12-3.33l-3.59,2.76c1.6-.39-1.26.14.56.08a6.4,6.4,0,0,0,4.25-1.75,12,12,0,0,0,2.68-4.78l-4.19,4.19c1-.41-.53-.16.21-.06a7.07,7.07,0,0,0,1.38,0,8,8,0,0,0,5-2.47l-4.24,1.76,1.07-.09c1.93-.14,4.34-1,5.18-3l.51-1.19-6.78,2.75c5.27,1.55,8.94-1.12,10.95-5.92L131.67,42c.64-.49,1.89-1.07,2.19-1.74q1-1-1.58.89c-2.25-.1-2.73-.05-1.43.16,2.52.5,5.5-.3,6.78-2.76a6.52,6.52,0,0,0,0-6.57c-3.27-5.79-13.26-1.93-11,4.62l0,.13c.83,2.38,3,4.57,5.79,4.4h.08c6.39-.4,8.58-10.3,1.59-11.79l-.42-.09c-4.09-.87-7.2,1.78-7.6,5.79L126,36.5l4.4-5.79a9.33,9.33,0,0,0-4.32,2.62L132,31.78a13.08,13.08,0,0,0-5.64,0A5.83,5.83,0,0,0,122.12,36c-.14,1-.66,6.53,0,1.74l7.38-4.19c.89.13-1.31-.5-1.62-.54-4-.61-7.3,1.55-7.6,5.78l-.1,1.53,6-6c-3.23.07-5.32,1.08-6.92,4l5.18-3-1.15.1a6.22,6.22,0,0,0-5.78,4.4L117.22,41l7.38-4.19c-5.07-.75-8.14.78-9.95,5.71l5.79-4.41L119.16,38a6,6,0,0,0-5.79,4.4l-.25,1.34,5.79-4.41-1.34-.16c-2.34-.28-5.43,2.05-5.79,4.41-.15,1-.68,6.52,0,1.74l5.79-4.41a10.51,10.51,0,0,0-9.16,5.92l5.18-3c-3.32,0-5.1,1.16-7,3.83L110.22,45c-1.34.41,1,.11-.66,0a5.92,5.92,0,0,0-5.18,3A14.32,14.32,0,0,0,103,51.66l5.79-4.41-1.35-.17c-2.46-.32-5.28,2.08-5.79,4.4-.43,2,2.08-1.66.9-1.1l4.62-.6a9.3,9.3,0,0,0-5.6,0,6.4,6.4,0,0,0-4.4,5.79c0,.34,0,2.61.09,1.8l4.41-5.79a14.16,14.16,0,0,0-2,.59c-4.61,1.64,1.4.09-.45.32-3.51.45-5.59,2.42-6,6,0,.34,0,2.6.11,1.82l4.4-5.79c-1.31.2-6.2,1.77-5.91,3.75-.05-.29,4-3.06.11-.76a9.54,9.54,0,0,0-2.76,3l5.18-3c-5.45.09-8.6,2.94-9.18,8.36l1.75-4.24-.71.7L92,60.87l-1.43-.29c-4.21-.84-7.07,1.77-7.6,5.79l-.19,1.42L90.37,62a14.33,14.33,0,0,0-3.19-.73,7.21,7.21,0,0,0-4.45,1.86A9.27,9.27,0,0,0,81,65c-.34.49,1.57-1.16,1-1.2-1.1-.08-2.41,2.31-3,3.12l3.59-2.75c-1.43.59-2.73,1.34-4.13,2-2,.87-2.78,3.22-3,5.18,0,.35.07,2.52.13,1.86l7.6-5.79-1.47-.33A6.27,6.27,0,0,0,75,69.82l-.6.86L78,67.92c-3.46,1-5.61,2.32-6.55,6l2.76-3.58a11.48,11.48,0,0,0-3.32,1.84,7.17,7.17,0,0,0-2.29,4.57l5.79-4.41c-4.75.42-7.23,2.47-8.9,6.88l2.76-3.59c-1.19.91,2.9-.22.91-.35a10,10,0,0,0-2.65.46A5.93,5.93,0,0,0,62.32,80c-.45,2,1.37-1.41,1.36-1.28,0-.36.94,0-.23.07a10.57,10.57,0,0,0-2.19.83c-1.2.45.88-.27-.55.07a5.86,5.86,0,0,0-4.19,4.19c-.17,1-.82,6.5,0,1.72l5.79-4.41c-4-.43-7.19,3.55-6.82,7.35.31,3.18,2.5,6.06,6,6,2.09,0-2.52-1.17-.88-.41l-2.76-3.59c1.82,4.78,5.57,6.34,10.41,6.54L64,95.27c1.21,1-.93-2.7-.4-.7A6,6,0,0,0,69.4,99l1.25-.07-5.78-4.4.29,1.4c.72,3.45,4.34,4.62,7.38,4.19l1.33-.19L67.1,97.14c.34.69.7,1.34,1.11,2A6.18,6.18,0,0,0,75,101.9c1.59-.42-.32-.18,1-.05l-5.78-4.41c.11-2.58,0-2.74-.19-.46a7.31,7.31,0,0,0,.35,2.08,8.63,8.63,0,0,0,2.27,3.4A6,6,0,0,0,78.46,104l1.52-.47c7.35-2.27,4.21-13.86-3.19-11.57l-1.52.47L81.1,94c-1.85-1.91.61,6.53.9,3.15a7.55,7.55,0,0,0-.24-2.87c-.78-2.75-3.1-4.14-5.79-4.4a11.55,11.55,0,0,0-4.17.47l6.77,2.76a21.48,21.48,0,0,1-1.11-2c-1.29-2.6-4.24-3.12-6.78-2.76l-1.33.19,7.38,4.19-.29-1.4a6,6,0,0,0-5.79-4.41L69.4,87l5.79,4.41c-.74-2.81-2.37-5.28-5.34-6.14-2.37-.69-1.67,0-4.18-1l4.2,4.19c-1.53-4-4-6.06-8.38-6l6,6,0,.3-2.76,3.58-2.4.77a6,6,0,0,0,5.79-4.4c.17-1,.82-6.5,0-1.72L63.9,91.21c3.62-.85,8.73-2.65,10-8.07L69.7,87.33c.31-.07,2.81-.08,4.41-1.17a8.26,8.26,0,0,0,2.65-3c.82-1.35.28-.63.7-1.27l-3.59,2.75c1.4-.54-1.14-.11.52-.26,2.38-.21,5.37-1.69,5.78-4.4s-2,3.92-2.73,2c.08.22,2.19-.84,2.4-1a7.31,7.31,0,0,0,3.5-5.09l-4.19,4.19a10,10,0,0,0,6.23-4.19L78.6,78.63l1.47.33c4.09.93,7.19-1.81,7.59-5.78,0-.36-.06-2.52-.13-1.86l-3,5.18c.27-.12,2.08-1.18.8-.55a11.18,11.18,0,0,0,4-3c1.25-1.36-3,3.28.57-.09s-1.25.58.22-.45l-4.62.6c-1-.13,1.28.47,1.6.52,4.23.57,7-1.56,7.59-5.79L95,66.37l-7.59,5.78c6,1.21,9.27-1.84,9.89-7.66l-3,5.18c3-1.59-2.44.48.8-.18,2.37-.49,3.63-1.81,5-3.72l-3.59,2.76a9,9,0,0,0,4.2-2.35,20.7,20.7,0,0,0,1.43-1.81c.43.41-3,2-1.26,1.78,2.79-.42,4.13-3.38,4.41-5.79,0-.34,0-2.59-.11-1.82l-6,6a27.41,27.41,0,0,0,4.38-1.06,11,11,0,0,0,1.28-.28c2.8-.59,4.09-3.24,4.4-5.78,0-.34,0-2.62-.09-1.8l-4.41,5.78c1.34-.51-4,.27.81.17a7.52,7.52,0,0,0,3.71-1.15,8.48,8.48,0,0,0,3.94-5.75l-5.78,4.41,1.35.17c2.47.32,5.25-2.08,5.78-4.4.38-1.65-.48.46.21-.81l-5.18,3a8.56,8.56,0,0,0,8-4.09l-5.18,3h1.21a6,6,0,0,0,5.19-3c.81-1.47-.85.75-.23.18a24.47,24.47,0,0,0,2.1-1.82L116.45,53l1.16-.09c2.38-.19,5.38-1.71,5.78-4.4.15-1,.69-6.53,0-1.74l-5.78,4.4,1.34.16c2.4.3,5.35-2.05,5.79-4.4l.24-1.34L119.16,50l1.28.07c2.78.17,4.91-2,5.78-4.4l.41-1.12-2.75,3.59.78-.6-4.62.6,1.37.21c3.22.48,6.42-.77,7.38-4.2l.34-1.21-5.79,4.41c3.21-.28,5.25-1.12,6.86-4l-5.18,3,1.21,0a6.15,6.15,0,0,0,6-6l.1-1.53-7.59,5.79c-.9-.14,1.3.49,1.62.54,2.89.43,6.86-.69,7.38-4.19.14-1,.66-6.53-.05-1.74l-4.19,4.19c1.5-.35-1.45-.75-1.09-.06s3.37.11,3.54.06a6.28,6.28,0,0,0,2.65-1.54c1.29-1.28-2.76,1.06-1,.47A6.28,6.28,0,0,0,138,36.5l.14-1.48-7.59,5.78.42.09,1.6-11.78h-.08l5.78,4.41-.05-.13-11,4.62.13.23V32.18l-.15.3L134,29.72c-6.21-1.23-9.51,1.48-11.69,6.69l2.76-3.59c-1.1.75,3.64.53,1.55-.08-2.27-.66-5.77.39-6.78,2.76l-.5,1.2,5.18-3a8.62,8.62,0,0,0-6.06,2.55l4.24-1.75c-1.7.06-3.14-.13-4.78.49-2.61,1-3.88,3.78-4.73,4.89l5.18-3a7.59,7.59,0,0,0-7.91,4.16l3.59-2.76a21.82,21.82,0,0,0-3.29,1.34h6.06l-1.42-.61c-3.42-1.47-7.77-.55-8.81,3.58a9.11,9.11,0,0,0-.35,2.14c.23,2.2.29,2.13.2-.23l7.38-4.19a7.68,7.68,0,0,0-4.52-.44c-4.87,1.22,1.72.33-.42.16-3-.23-5.12,2.43-6.57,4.63L109.13,42c-2-.27-3.94-.62-5.82.45a7.52,7.52,0,0,0-1.92,1.72c-.85,1-2,1.63-.5,1.07,2.37-.88.36-.61-.86-.07a11.68,11.68,0,0,0-3.52,2.47l5.84-1.54c4.19,1.44-.41-.46-1-.68a6.41,6.41,0,0,0-3.68-.17C96,45.64,94.7,47,93.4,48l4.25-1.75-1.1,0a6.11,6.11,0,0,0-5.78,4.4c-.57,2.31,1.62-1.7.49-.34l7.27-.94-1.42-.64a6.31,6.31,0,0,0-7.28.94c-.65.54-.48.49.53-.17s1.22-.66.44-.34c0,.13,0,.09-.44.12a6.18,6.18,0,0,0-5.78,4.4,7.53,7.53,0,0,0-.36,2.11c.24,2.23.29,2.13.17-.3l5.79-4.41c-1.84-.15,1.16.23-.81-.17a7,7,0,0,0-3.19,0A12.8,12.8,0,0,0,82.44,53c-.48.35-.92.75-1.39,1.12-.88.69.33-.27-.16.15a10.18,10.18,0,0,0-3.45,5l4.19-4.19c-.32.06-.33-.15-1.73-.23a6.08,6.08,0,0,0-5.79,4.41l-.36,1.47,5.79-4.4c-1.46.18,1,.43-.65.15a8.28,8.28,0,0,0-3.43.07,10,10,0,0,0-4.3,2.1c-2.5,2.1.91-.27,1.33.13-1.23-1.16-4.67,1.72-5.46,2.64l4.25-1.76-1.06.11c-2.71.28-5,1.68-5.78,4.41L64,65.53l2.76-3.59A10.15,10.15,0,0,0,65.1,63l4.63-.61c4.31,1.49-.71-.65-1.53-.84a6.43,6.43,0,0,0-5.05.87A6.65,6.65,0,0,0,60,66.26a9,9,0,0,0-.36,2.13c.24,2.21.3,2.12.2-.26L64,63.93c-.89.21.62-.1-1,.06a12.5,12.5,0,0,0-2.59.42c-2.94.89-4.27,3-5,5.8L59.54,66c-1.54.39,1.23-.08-.52,0a8.26,8.26,0,0,0-2.55.51c-2.74,1-3.82,2.94-4.6,5.57l2.76-3.58-.88.45,4.63-.6c4,1.66-.84-.7-1.63-1-3-1.28-6.53,1.41-7.38,4.19-.09.3-.5,2.71-.22,1.76l2.76-3.58c-1.43.63,3.24.14,1.32-.58s-4.32.2-5.84,1.54c-1.82,1.61-2.28,4.17-2.56,5L49,71.44c-1.64.33,1.27-.14-.53-.06a6.45,6.45,0,0,0-4.24,1.76c-2.08,2,.07,2,.12.17,0,.06-1.22.66-1.3.71-6.61,4-.59,14.35,6.06,10.36Z" style="fill:#fff"/><path d="M58.08,87.42c-.23.76-.65,1.41-.88,2.18-.33,1.11.07.89.09.84-.49,1.39-1.19,2.88-1.67,4.31-1,2.87-2.45,6.08-2,9.17l.78-2.92c-1.82,1.82-2.28,4.75-3,7.17-.3,1-.52,1.93-.92,3a11.44,11.44,0,0,0-.61,2.07c0,.45.11.89.19,1.34,0-.74,0-.77-.17-.11-1,3.73,4.76,5.32,5.79,1.6.24-.87.11-1.72.26-2.54.28-1.5-.26,1.06.31-.58.46-1.35.76-2.7,1.17-4,.35-1.15.69-2.66,1.09-3.75-.48,1.32.82-.92.91-1.24s.17-2.43,0-1.82c1.57-4.53,3.45-9.56,4.52-13.08,1.11-3.71-4.68-5.29-5.79-1.6Z" style="fill:#fff"/></svg>