<svg width="530" height="530" viewBox="0 0 530 530" fill="none" xmlns="http://www.w3.org/2000/svg">
<g clip-path="url(#clip0_218_11093)">
<rect width="530" height="530" fill="white"/>
<path d="M265.5 274.031C248.009 273.454 210.373 280.72 199.763 314.396C192.677 336.885 170.354 351.301 92.5065 348.994H-11.8662" stroke="black" stroke-width="13" stroke-linecap="round"/>
<path d="M265.5 274.031C282.991 273.454 320.627 280.72 331.237 314.396C338.323 336.885 360.646 351.301 438.493 348.994H542.866" stroke="black" stroke-width="13" stroke-linecap="round"/>
<path d="M155.361 349.007C167.278 347.277 193.189 337.244 201.492 310.949C204.76 298.262 221.906 273.121 264.347 274.043C283.568 273.274 324.318 282.462 333.544 325.365C335.411 334.046 348.101 347.451 370.364 349.007H379.099C376.041 349.211 373.129 349.2 370.364 349.007H155.361Z" fill="url(#paint0_linear_218_11093)"/>
<ellipse cx="292.713" cy="301.546" rx="19.484" ry="13.9266" transform="rotate(16.4835 292.713 301.546)" fill="white"/>
<path d="M265.564 178L265.564 226.252" stroke="#1C1B1F" stroke-width="15" stroke-linecap="round" stroke-linejoin="round"/>
<path d="M343.747 214.73L311.09 247.388" stroke="#1C1B1F" stroke-width="15" stroke-linecap="round" stroke-linejoin="round"/>
<path d="M186 214.732L218.658 247.39" stroke="#1C1B1F" stroke-width="15" stroke-linecap="round" stroke-linejoin="round"/>
<path d="M67 390C67 398.284 60.5081 405 52.5 405C44.4919 405 38 398.284 38 390C38 381.716 44.4919 375 52.5 375C60.5081 375 67 381.716 67 390Z" fill="#1C1B1F"/>
<path d="M160 398C160 404.627 154.851 410 148.5 410C142.149 410 137 404.627 137 398C137 391.373 142.149 386 148.5 386C154.851 386 160 391.373 160 398Z" fill="#1C1B1F"/>
<path d="M464 386C464 394.284 457.508 401 449.5 401C441.492 401 435 394.284 435 386C435 377.716 441.492 371 449.5 371C457.508 371 464 377.716 464 386Z" fill="#1C1B1F"/>
<path d="M329 413C329 421.284 322.508 428 314.5 428C306.492 428 300 421.284 300 413C300 404.716 306.492 398 314.5 398C322.508 398 329 404.716 329 413Z" fill="#1C1B1F"/>
<path d="M444 441C444 446.523 439.747 451 434.5 451C429.253 451 425 446.523 425 441C425 435.477 429.253 431 434.5 431C439.747 431 444 435.477 444 441Z" fill="#1C1B1F"/>
<path d="M109 441C109 446.523 104.747 451 99.5 451C94.2533 451 90 446.523 90 441C90 435.477 94.2533 431 99.5 431C104.747 431 109 435.477 109 441Z" fill="#1C1B1F"/>
</g>
<defs>
<linearGradient id="paint0_linear_218_11093" x1="265.788" y1="274" x2="265.788" y2="349.156" gradientUnits="userSpaceOnUse">
<stop/>
<stop offset="0.52" stop-color="#282828" stop-opacity="0.5"/>
<stop offset="1" stop-color="#D9D9D9" stop-opacity="0"/>
</linearGradient>
<clipPath id="clip0_218_11093">
<rect width="530" height="530" fill="white"/>
</clipPath>
</defs>
</svg>
