<svg id="레이어_1" data-name="레이어 1" xmlns="http://www.w3.org/2000/svg" viewBox="0 0 150 150"><path d="M38.42,111.84c.43.29-.12,2.11.32,2.39s1.28,0,1.72.23,1.34-.19,1.79.07,1.14.08,1.59.33-.41,3,0,3.26,2.64-2.88,3.1-2.65-.76,4-.29,4.25,1.55-.79,2-.58,1.26-.27,1.74-.07.4,1.87.89,2.06,1.88-2,2.37-1.83,1.34-.77,1.83-.61.83.71,1.33.86.79.91,1.29,1,.6,1.75,1.1,1.88,1.7-2.55,2.2-2.43.4,2.88.91,3,1.57-2.61,2.08-2.51.72,1.7,1.23,1.78,1,.12,1.53.2,1.09-.46,1.6-.4.89,1.39,1.41,1.44,1-.34,1.53-.3,1-.07,1.51,0,1,.56,1.49.57,1-1,1.51-1,1,2,1.54,2,.94-2.06,1.45-2.08,1,.58,1.53.55.88-1.33,1.38-1.37,1.1,1,1.6,1,1.29,2.1,1.79,2,.82-1.53,1.32-1.61,1.08.27,1.58.18.67-1.82,1.17-1.92,1.41,1.77,1.91,1.66.21-3.44.7-3.57,1.56,2.11,2.05,2,.29-2.59.78-2.73,1.11.33,1.6.18,1.71,2,2.19,1.86.09-2.76.57-2.93,1.43,1,1.9.81.93-.36,1.4-.56,1.29.44,1.75.24.23-1.94.69-2.16,2.32,2.5,2.77,2.27.55-1.24,1-1.47-.65-3.35-.2-3.59,2.32,2.1,2.76,1.85.36-1.39.8-1.65,1.76.89,2.18.62-.4-2.49,0-2.77,1.07-.21,1.49-.5,1.6.5,2,.2-.38-2.2,0-2.5,2.81,1.92,3.2,1.61-.06-1.73.32-2.06-.08-1.65.3-2-.46-2-.09-2.32,1.95.64,2.32.29-.53-1.93-.18-2.3,3.51,1.95,3.87,1.56.93-.62,1.28-1,.41-1.08.74-1.48.48-1,.8-1.42-.7-1.87-.39-2.29.85-.66,1.15-1.09-.57-1.61-.29-2,3.18.75,3.45.31S133,92.43,133.22,92s.66-.8.9-1.27,2.81.18,3-.29-2.66-2.31-2.46-2.79,3.9.36,4.08-.13-1.87-1.78-1.72-2.28-1.27-1.41-1.14-1.92.86-.8,1-1.31-.9-1.14-.82-1.66.2-.91.25-1.43,2.27-.82,2.3-1.34-.26-1-.26-1.57-.83-1-.87-1.51,2.06-1.26,2-1.77-3.53-.39-3.64-.9,2.1-1.51,2-2-.64-.88-.81-1.37-1.6-.43-1.8-.9-1.17-.46-1.4-.92.29-1.2,0-1.64-.07-1.08-.36-1.51,1.36-2.28,1.05-2.69-2.27.51-2.61.13,1.59-3,1.22-3.38-3,1.61-3.36,1.28.94-2.92.52-3.23-1.11-.47-1.55-.75-1.92,1.14-2.38.9-.9-.48-1.38-.68-.42-2.06-.91-2.22-1.78,2.6-2.29,2.49-.6-2.55-1.11-2.62-1.15.84-1.67.83-.2-.67-.72-.63c.12-.49-1.53-.39-1.45-.89s2.93-.68,3-1.18,0-1.13,0-1.64-1.91-1.08-1.92-1.59S120,46.4,120,45.89s-3.35-.67-3.42-1.17.61-1.09.51-1.59-.22-1-.35-1.45.07-1.07-.08-1.55-1.53-.48-1.72-1,1.64-1.8,1.43-2.26.91-1.71.67-2.15-3.86,1-4.13.62.71-1.65.42-2.06-1.6,0-1.92-.39,1.79-3,1.44-3.37-2.08.57-2.46.23-1.18-.15-1.58-.47.31-2.23-.12-2.51-1.18-.2-1.62-.44a15.91,15.91,0,0,0-1.45-.68c-.47-.21-1.68,1.46-2.16,1.29s-.53-1.61-1-1.74-1.41,2-1.91,1.88-.62-2.34-1.12-2.39-1-2.09-1.46-2.11-1.09,2.46-1.6,2.48-.92.73-1.42.78-.69,1.55-1.19,1.64-.84.1-1.33.23-.87.08-1.35.24-1.75-2-2.22-1.8-1,.35-1.43.57-.87.58-1.31.84,0,1.76-.41,2.06-2.81-1.85-3.19-1.52-.63,1-1,1.4,1.86,3,1.55,3.38-3.93-1.57-4.21-1.15,1.25.19,1,.64c-.3-.4-2,2.46-2.29,2.07s.79-1.94.45-2.31.09-1.48-.26-1.83-.26-1.26-.63-1.6S76,28.36,75.64,28s-2.13,1.07-2.53.77-.26-1.31-.67-1.59-1.38.35-1.8.09.7-3.33.26-3.56-1.52.61-2,.41-.7-1.13-1.16-1.31-1.24.24-1.71.09-1.76,2.88-2.24,2.77-.36-3.22-.85-3.29-.94-1.85-1.44-1.88-1.19,1.29-1.69,1.3-.9,2-1.4,2-.65,1.49-1.14,1.58-1.66-2.86-2.15-2.72.2,3.5-.27,3.68-2.05-2.38-2.5-2.16-1.71-.85-2.14-.59.56,3,.12,3.27-.45,1.12-.88,1.43-2.94-2-3.35-1.68.53,2.32.14,2.68-1.8-.31-2.17.06-1,.59-1.39,1,2.06,3.19,1.73,3.6-1.23.28-1.55.71-2.34-.37-2.63.07-.88.75-1.16,1.21c-.12.2,2.27,2.05,2,2.7-.19.38-1.73.18-2,.68s-2.36,0-2.57.47,3.36,2.48,3.16,3-3.33-.32-3.51.14,2.35,1.95,2.18,2.41-1.75.4-1.9.85,1.17,1.38,1,1.83-.57.77-.67,1.22.62.8.6,1.21c0,.7-2.19.76-1.84.9-.49-.2-1.74,2.39-2.24,2.26s-.66-.73-1.18-.8-.72-4.19-1.24-4.2-1.3-.3-1.83-.26-1.21.51-1.73.61-.33,3.28-.83,3.43-1.19-.44-1.68-.24S23,50.68,22.52,50.91s0,2.36-.41,2.64S22.38,55.68,22,56s-2.45-1.57-2.85-1.24-.63.9-1,1.26-2.48-.8-2.83-.41,2.87,3.76,2.55,4.18-2.41-.53-2.69-.09.83,1.67.58,2.13-3-.34-3.2.13-1.4.73-1.57,1.22,4.25,2.41,4.11,2.91-1.61.55-1.71,1,.84,1.06.78,1.55-4.44.56-4.47,1.06,4.26,1.2,4.25,1.7.21.88.23,1.38-4.45,1.3-4.4,1.8,3.79.58,3.86,1.08-.46,1-.37,1.53,1.08.74,1.2,1.23.05.94.19,1.43S11.2,82,11.36,82.44s3.75-.22,3.92.25-1.28,1.55-1.09,2,1.37.5,1.58,1-.91,1.53-.69,2,2.72-.27,3,.18-2,2.22-1.76,2.66.13,1.13.39,1.56,3.91-1.27,4.18-.85-1,1.83-.74,2.25-1.75,2.49-1.45,2.91,2.27-.35,2.58.07.68.79,1,1.19.49.94.82,1.34.4,1,.74,1.42,2.58-.93,2.93-.55-.88,2.2-.52,2.57,1.52,0,1.88.33-1,2.54-.67,2.9,1.3.16,1.68.51.61.9,1,1.24,2.81-1.7,3.21-1.36-.32,2,.08,2.29,1.87-.75,2.28-.44-.27,2,.14,2.35,1.8-.77,2.22-.47S38,111.55,38.42,111.84Z" style="fill:#fff"/><path d="M35.15,113.52c.18.75.07,1.59.27,2.37a3.1,3.1,0,0,0,2.89,2.2c1.39.17,2.8.18,4.17.45l-2.1-2.1c.29.94-.35,2.17,0,3.25a3,3,0,0,0,3.7,2.09A6.55,6.55,0,0,0,46,120.63c.26-.22,2.24-1.95,1.13-1.52L43.44,117c.36,1.08-.84,2.86-.37,4.24a3.11,3.11,0,0,0,3.69,2.1,21.12,21.12,0,0,1,2.87-.57L47,121.3c.34.62.45,1.4.81,2A3.08,3.08,0,0,0,52,124.43c.66-.31,2.68-1.94,2.13-1.93-.21,0,.86,1.43,1.42,2.21a3.07,3.07,0,0,0,4.1,1.07,9.11,9.11,0,0,0,2.19-2.43l-4.1-1.07c.5.79.21,2.1.8,3a3.05,3.05,0,0,0,4.11,1.07,6.09,6.09,0,0,0,1.43-1.3c.19-.22,1.52-1.77.64-1.2l-3.63-.47c2.08,2.53,3.48,3.3,7.09,2.43L65.22,125c1.92,1.69,2.1,1.87,4.62,2.18,2.76.33,4,.67,6.44-.89l-3.64-.47c.63.55.83,1.5,1.51,2.08a3.1,3.1,0,0,0,4.24,0c.68-.57.88-1.51,1.51-2l-2.92.77c2.68,1,3.67.12,5.28-1.07h-3c1.54,1,1.7,1.89,3.35,3.1a3,3,0,0,0,3.63-.47c.53-.48.86-1.12,1.37-1.6l-2.92.77c3.33.48,3.77-.09,5.74-2.46l-3.64.47c.7.39,1.11,1.29,1.89,1.72a3.07,3.07,0,0,0,4.1-1.08c.71-1.05.21-2.7.79-3.58l-4.1,1.08c.5.32,1.21,1.52,2,2a3.06,3.06,0,0,0,4.11-1.08c.51-.86.39-1.95.85-2.73L93,123.13c2,.27,1.24.85,3.06,1.83a3,3,0,0,0,4.11-1.08c.42-.88.39-2.4.64-2.93l-3.39,1.37c.79.25,1.39.87,2.3.91,1.08,0,1.72-.47,2.79-.31a3.1,3.1,0,0,0,3.39-1.38c.34-.68.42-1.51.74-2.15l-4.11,1.07c1.09.48,1.6,1.85,2.75,2.34a3.12,3.12,0,0,0,4.11-1.07,7.49,7.49,0,0,0,1.46-2.63c.24-1-.49-2.26-.24-3.17l-3.7,2.09c-.79-.25.89.94,1,1a6.84,6.84,0,0,0,1.74.9,3,3,0,0,0,3.39-1.38l.84-1.65-3.39,1.38c.78.14,1.42.53,2.19.67a3.08,3.08,0,0,0,3.69-2.1c.26-.94-.13-2,.09-2.79l-2.1,2.09a8.41,8.41,0,0,1,2.74-.11,3.07,3.07,0,0,0,2.9-2.21c.23-.84-.12-1.77.08-2.52l-3.69,2.1c1.14.22,2,1.45,3.2,1.68a3.08,3.08,0,0,0,3.69-2.09c.74-2.39.53-4.78.79-7.2l-3,3c.76,0,1.54.33,2.33.34a3.07,3.07,0,0,0,3-3c.06-.79-.17-1.53-.12-2.32l-3,3c-1.1-.07,1.51,1.13,1.93,1.27a5,5,0,0,0,1.89.43c2.14-.15,3.38-1.87,4.42-3.49a9.16,9.16,0,0,0,1.29-2.43c.06-.23.17-3.17-.28-1.85s1-1.07,1.07-1.41c.33-1-.13-1.85-.13-2.81l-2.2,2.89c-.45.07,2.51.66,3.41.51,1.67-.26,2.4-2.25,2.1-3.69-.21-1-1-1.67-1.21-2.58l-.77,2.92c.36-.46,1.63-.12,2.63-.48a3,3,0,0,0,2.1-3.69c-.29-.92-2.61-3.69-2.34-2.89l-2.1,3.7c1.17-.36,2.73.62,4.08.19s2.69-2.12,2.09-3.69c-.7-1.84-1.94-2.52-2.62-4.29l-.77,2.92c.36-.39.71-.79,1.06-1.19a3,3,0,0,0,.77-2.92c-.71-1.75-1.94,1,.32-.41a4.51,4.51,0,0,0,1.47-1.38c1.12-1.92,0-4.31-.82-6.09L140.24,80c.59-.62,1.57-.79,2.2-1.48a3.06,3.06,0,0,0,0-4.25c-.73-.67-4.1-1.87-3.51-1.34v4.24c.61-.7,1.62-.9,2.25-1.66a3,3,0,0,0,.77-2.92c-1.08-2.63-2.44-3.36-4.27-4.87l.77,2.92c.16-.86.09-2.62.23-3s1.12-1.61,1.39-2.48a3.06,3.06,0,0,0-2.1-3.69c-.86-.29-1.78,0-2.58-.21l2.09,3.69c.28-1.12,1.51-1.88,1.78-3.11a3.06,3.06,0,0,0-2.89-3.8c-1.26-.1-2.34.85-3.5.78l3,3c.07-1.26,2.16-3.35-.37-5.65a4.89,4.89,0,0,0-3.09-1.38c-3-.16-.12,2-.85-.56a3,3,0,0,0-3.69-2.09A10.46,10.46,0,0,0,125.11,54l3.69,2.1c-.32-.89,0-1.88-.38-2.8a3.11,3.11,0,0,0-3.69-2.1q-.89.17-1.77.39l2.92.77c-.4-.48-.82-.94-1.25-1.4a3,3,0,0,0-3.63-.46,9.91,9.91,0,0,0-1.81,1.78l3.63.47c.31.35-.76-2.28-1.35-2.91a3,3,0,0,0-4.24,0c-.4.5-.58,1-.93,1.52l-.11.8c.11,1.37.24,1.06.39-.92l4.1-1.07c-.32-.23-2.55-1.33-1.22-.39l.61,4.71a13.54,13.54,0,0,0,2.44-1.21,3,3,0,0,0,.47-3.63c-1-1.28-2.74-1.43-3.57-2.51l.47,3.64a9.08,9.08,0,0,0,1.56-5.6c-.19-2.11-1-2.37-2.24-3.9l.47,3.63c.53-.75,2.5-2.15,3.26-3.68a3.06,3.06,0,0,0-1.08-4.1,6.2,6.2,0,0,0-2.23-.63c-.38-.07-2.92-.47-1.93,0L119.07,40c.19-.47.77-1.21,1-1.86a3.07,3.07,0,0,0-1.38-3.39c-.55-.41-1.17-.56-1.73-.94l1.38,3.39c-.29.8,2.08-1.89,2.39-2.81a3,3,0,0,0-2.09-3.69,13.93,13.93,0,0,1-3.11-1.12L117,32.13c.09-2.89,1.06-3.4-1.6-5.51-1.07-.84-2.07-1.8-3.48-1.9a6.42,6.42,0,0,0-2.44.69l2.9,2.21c-.36-.89-.46-1.78-.86-2.68a3,3,0,0,0-3.39-1.37A13.46,13.46,0,0,0,105.88,25l3.38,1.38c-.5-1.05-.83-3.88-2.15-5.54a3,3,0,0,0-3.63-.47c-1.15.75-1.92,1.66-2.91,2.33-2.06,1.41-1.48,1.2-2.53.2-3.16-3-6.79-1.22-9.15,1.53l3.64-.47a15.48,15.48,0,0,0-2.3-2.71,3.06,3.06,0,0,0-3,0c-1.24.67-2.3,1.23-2.85,2.58-.33.79-.3,4,.09,3.06l3.39-1.38c1.35.52-.73-1.41-1.1-1.74a6.06,6.06,0,0,0-2.06-1.32,3,3,0,0,0-2.92.78c-1.17,1-2.22,2-2.26,3.63,0,1.31,1.34,2.65,1.23,3.82l3-3c-3.67-.1-5.61.25-7.87,3.55a2.9,2.9,0,0,0,0,3c.36.47,2.48,2.26,1.5,1.32l2.13-5.12c-.82.08-4.28.88-1.13.5l2.89,2.2c-.1-.58-.21-1.15-.33-1.72a2.92,2.92,0,0,0-2.1-2.09c-.6-.12-1.2-.23-1.8-.32l2.2,2.89c0-1.12,1-2.19,1-3.45a3,3,0,0,0-2.2-2.9c-1-.14-1.88,0-2.83-.16l2.6,1.49c-1.07-2.05-2.22-3.32-4.72-3.34-2,0-3.26,1.81-4.15,2.1l3.69,2.1c-.22-.82.32-2.29.18-3.23a12.05,12.05,0,0,0-1.1-3.17A3.06,3.06,0,0,0,68.31,20c-2.79.52-4.2,2.27-5.88,2.95l3.39,1.38c-.53-.93-.17-2.37-.8-3.42a3,3,0,0,0-4.11-1.07c-.82.59-2.63,3.67-2,3.16l3.64.47c.35.45-.59-2.26-.95-2.78a10.73,10.73,0,0,0-2.5-2.35,3,3,0,0,0-3.64.47,10.13,10.13,0,0,0-1.2,2c-.86,1.37.19.61-.92,1.36h3c1,.66-.45-1.1-.71-1.43a5.61,5.61,0,0,0-1.58-1.53A3.07,3.07,0,0,0,50,20.24c-.51.79-.43,1.78-.87,2.52l3.39-1.38c-2.2-.54-2.93-1-5.25-.21a3,3,0,0,0-2.09,2.09c-.21,1,.47,4.7.62,3.95L48.7,25c-2.11.19-3.77-1.36-6.38.06-3.44,1.88-1.25,3.44-1.51,6.23l3-3c-1.64.09-3.13-.72-4.74-.64a3,3,0,0,0-3,3A5.89,5.89,0,0,0,36.76,33c.25.55,1.28,3,1.2,1.54l3-3c-1.1,0-2.17-1-3.41-1-1.48,0-3.2,1.35-3,3,.16,1.45,1.31,2.47,1.51,3.77l2.09-3.69c-.67.2-1.38.14-2.06.37a3,3,0,0,0-1.79,4.4c.26.73.44.55.51-.51a6.58,6.58,0,0,0-.71,1.43,12.15,12.15,0,0,0,.33,3.28l1.38-3.38c-.81.5-2.13.17-3.06.78a3.07,3.07,0,0,0-1.08,4.11,9.31,9.31,0,0,0,2.42,2.19v-3c-.86,1.33.6,0-.91.34a14,14,0,0,0-2.24.31,4.2,4.2,0,0,0-2.64,3.15c-1,3.56.74,6.56,3.78,8.37S38,53.27,35.71,50.8c-1.13-1.22-1.07-2.08-2.36-3.54a3,3,0,0,0-3.64-.47c-2,1.36-2,2.88-3.7,4.49l3.63-.47c.53.39-.94-2-1.67-2.38-1.71-1-3-.21-4.65.53h3c-1.12-.49-1.86-1.48-3.06-2-1.61-.63-3.17.71-3.69,2.1-.6,1.59.92,3.67.51,4.88l3.69-2.09c-.83-.23-1.45-1-2.38-1.26a3.07,3.07,0,0,0-3.69,2.09c-.23.73-.15,1.47-.35,2.17l2.89-2.2c.89.1-1.69-1.1-2.13-1.18a9.41,9.41,0,0,0-3.53.42,3,3,0,0,0-2.21,2.89,5.87,5.87,0,0,0,.91,2.64c.4.73,1.68,3.19,1.56,1.79l2.2-2.9c-.63.14-1.33,0-2,.2a3,3,0,0,0-2.2,2.89q0,.87.06,1.74l2.2-2.89c1.38-.31-1.43-.64-2-.73a5.93,5.93,0,0,0-2.55,0c-1.43.36-2.72,2.2-2.1,3.69a5.31,5.31,0,0,0,2.06,2.61A11.94,11.94,0,0,0,12,65c-.68-.33-.17-2.47-.44,0L13,62.33c1.09-.61-1.69-.12-2.28,0A6,6,0,0,0,8.26,63a3.06,3.06,0,0,0-.61,4.72c.92,1.07,2.7,1,3.53,1.94L10.71,66c-.61,1.16-2.13,4.1-.31,5.19-1.09-.65,2.71-2.24-.78-1.09a5.68,5.68,0,0,0-2.3,1.31,3,3,0,0,0,0,4.24,6.45,6.45,0,0,0,2,1.11c.3.11,2.81.92,1.8.13l-.47-3.63c-.42.57-1.12,1.05-1.58,1.68a3,3,0,0,0,.47,3.63c.43.45.86.89,1.3,1.33l-.47-3.64c-.32.64-.85,1.11-1.17,1.76a3.07,3.07,0,0,0,1.08,4.1c.89.53,2,.41,2.84.88L12,78.88c-.44.76-1.74,1.09-2.25,2a6,6,0,0,0-.49,3.32,3,3,0,0,0,1.49,2.59,6,6,0,0,0,2.4.55c.55,0,3.33.19,1.88-.46L14,82.76c-1.18,2.65-2.5,2.52-3.55,5.29a3,3,0,0,0,1.38,3.38,24,24,0,0,1,2.36.65,18,18,0,0,1,.57,2.32,3,3,0,0,0,2.09,2.09,22.93,22.93,0,0,0,3-.16l-2.2-2.89a9.47,9.47,0,0,0-.88,2.49,3,3,0,0,0,2.2,2.89l1.84.59-2.1-3.69c-.14,1-.93,1.77-1.07,2.8-.16,1.23.09,2.78,1.38,3.39s1.7,2,3.16,2.43c1.67.54,2.72-.86,4.18-.82l-3-3c0,.77-.24,1.52-.21,2.3a3.07,3.07,0,0,0,3,3c.79.06,1.54-.18,2.33-.12l-3-3c0,.79-.22,1.56-.17,2.37a3.09,3.09,0,0,0,3,3c.78,0,1.51-.21,2.28-.18l-2.9-2.2c.09.53,0,1.5.08,2.21a2.92,2.92,0,0,0,2.1,2.1,12.94,12.94,0,0,0,2,0l-2.1-2.1c.41,2.41.62,4.42,3,6,2,1.33,3.61.22,4.56.17l-2.6-1.49c.26.53.52,1.06.79,1.59,1.73,3.45,6.91.41,5.18-3-.26-.53-.53-1.06-.78-1.59a2.93,2.93,0,0,0-2.59-1.48,8.07,8.07,0,0,0-1.3.13c-1.4.32-1,1.44-.48.74,1,.32,1.2.25.69-.22a1,1,0,0,1-.36-.64,12.35,12.35,0,0,0-.32-1.8,2.89,2.89,0,0,0-2.1-2.1,12.94,12.94,0,0,0-2,0l2.1,2.09c-.08-.5,0-1.51-.08-2.21a3,3,0,0,0-2.89-2.2c-.77,0-1.53.22-2.28.18l3,3c0-.79.21-1.57.17-2.37a3.08,3.08,0,0,0-3-3c-.79-.06-1.55.18-2.33.12l3,3c0-.75.24-1.52.21-2.3a3.06,3.06,0,0,0-3-3c-1.21,0-2.31,1-3.39.93l2.59,1.48A6.67,6.67,0,0,0,22,96.73l1.38,3.39c.14-1,.92-1.78,1.07-2.81a3.11,3.11,0,0,0-2.1-3.69L20.5,93l2.2,2.89a9.7,9.7,0,0,0,.88-2.49,3,3,0,0,0-2.2-2.9,24.28,24.28,0,0,0-3,.17L20.5,92.8c-.6-1.79-1.11-4.22-2.56-5.55-.94-.86-3-1-3.12-1l1.38,3.39a22.6,22.6,0,0,0,2.94-3.85c.6-1.36.52-3.38-1.08-4.1a6.28,6.28,0,0,0-2.41-.55c-.58,0-3.31-.22-1.88.46l1.49,2.59c0-1,1-.71,1.92-2.29a3,3,0,0,0-1.08-4.1c-.88-.5-2-.4-2.83-.88L14.34,81c.31-.63.85-1.13,1.17-1.76A3.1,3.1,0,0,0,15,75.63q-.66-.64-1.29-1.32L14.22,78c.4-.57,1.13-1.07,1.57-1.68a3,3,0,0,0-.47-3.64c-.8-.63-4.31-1.69-3.76-1.24v4.24c-.69.67,1.79-.4,2.22-.63a5,5,0,0,0,1.84-1.34c1.55-2,.63-4.36-.46-6.27v3c.24-.47.48-.94.73-1.41a3.1,3.1,0,0,0-.46-3.63c-.92-1-2.74-1-3.54-1.95l-.61,4.71c.82-.49,3,.19,4.09-.31a3.52,3.52,0,0,0,2.15-2.91,4.2,4.2,0,0,0-.36-3.13c-.49-.87-3.29-3-2.92-2.15l-2.1,3.69c-1.38.36,1.34.62,2,.72a6.79,6.79,0,0,0,2.58,0,3,3,0,0,0,2.21-2.9q-.06-.87-.06-1.74l-2.21,2.89c.59-.15,1.38-.05,2-.19a3,3,0,0,0,2.2-2.89,6.18,6.18,0,0,0-.92-2.66c-.44-.79-1.62-3.16-1.55-1.77l-2.2,2.89c1.28-.28,2.1.76,4.07,1a3,3,0,0,0,2.89-2.2c.2-.69.14-1.5.35-2.17l-3.69,2.1c.8.18,1.5,1,2.38,1.25a3.06,3.06,0,0,0,3.69-2.09c.52-1.53-.91-3.8-.51-4.89l-3.69,2.1c.19.07,1.26,1.26,2,1.49,1.61.5,2.62-.13,4.14-.79h-3c-.67-.45,1.24,2,1.84,2.5a3,3,0,0,0,3.63-.47c.92-.89,2-3.21,2.49-3.56L29.1,51.5A39.19,39.19,0,0,0,31.47,55l3.64-4.71c-2.36-1.41.37-1.51-1.93-.65.75-.28,1.75,0,2.54-.26,1.82-.49,2.53-1.47,3.55-3.06a3,3,0,0,0,0-3,9.15,9.15,0,0,0-2.42-2.2l-1.07,4.11c.75-.51,2.15-.24,3.06-.79a3.12,3.12,0,0,0,1.37-3.39c-.31-1.71-.17.36,0-.41s.56-1,.61-1.82c.08-1.33-.73-2.33-1.32-3.41l-1.8,4.41c.65-.21,1.4-.16,2.07-.36a3.1,3.1,0,0,0,2.09-3.69c-.08-.6-1.38-3-1.29-2.18l-3,3c1.07,0,2.2,1,3.41,1a3,3,0,0,0,3-3,6.1,6.1,0,0,0-.69-2.39c-.28-.6-1.23-3-1.2-1.54l-3,3c1.49-.07,3.15.72,4.74.64a3.08,3.08,0,0,0,3-3c.11-1.16-.8-2.23-.69-3.29l-1.49,2.59c1.52-.74-1.54-.23,1.1.41a8.71,8.71,0,0,0,3,0,3.08,3.08,0,0,0,2.89-2.2c.2-1-.47-4.74-.63-3.94L48.87,27c1-.34.89-.07,2.05.22a3.09,3.09,0,0,0,3.39-1.38c.46-.78.42-1.83.87-2.53l-4.1,1.08c-.71-.41,1.49,2.45,2.29,3a2.94,2.94,0,0,0,3,0,9.41,9.41,0,0,0,2.46-2c.38-.52,1.28-2.75.87-2.32l-3.63.47c1.34,1,.82,2.42,2.23,4.2a3,3,0,0,0,3.64.46c.73-.56,2.76-3.73,2-3.16l-4.1-1.08c.53.88.21,2.39.8,3.42A3,3,0,0,0,64,28.7c2.46-1,3.48-2.51,5.87-3l-3.38-1.38c.77,1.62-.14,3.26.31,5a3,3,0,0,0,3.69,2.1A5.34,5.34,0,0,0,73,30c1.08-.77,1-.91-.21-.42-.58-.58-.69-.6-.33,0-.11,2,3.68,1.78,4,1.83l-2.21-2.89c0,1.07-1,2.23-1,3.45a3,3,0,0,0,2.2,2.89l1.81.32L75.12,33c.12.57.24,1.14.33,1.71a3,3,0,0,0,2.9,2.21c.86-.11,4.27-.83,1.13-.5,2.43-.25,4.14-3.17,2.12-5.12-.73-.7-2.35-2.43-.57-.11v3c.69-1,1.75-.6,2.69-.58a3.06,3.06,0,0,0,3-3,5,5,0,0,0-.55-2.46c-.22-.52-.43-1-.63-1.57-.56,1.56-.41,1.83.45.82l-2.92.77c-1.41-.52.68,1.37,1.08,1.73a6.3,6.3,0,0,0,2.08,1.32,3,3,0,0,0,3.39-1.37,6.18,6.18,0,0,0,.56-2.54c0-.57-.07-1.14-.11-1.72-.9,1.24-.85,1.5.16.77h-3a14.38,14.38,0,0,0,2.3,2.72,3,3,0,0,0,3.64-.47c.14-.17,1.64-1.58.38-1.62a8.91,8.91,0,0,0,1.3,1.8,7.17,7.17,0,0,0,5.39,1,13.66,13.66,0,0,0,3.53-1.9c1.1-.67,1.94-1.91,2.76-2.45l-3.63-.47c.51.64.45,2.73,1.21,4.33a3,3,0,0,0,3.39,1.37,12.79,12.79,0,0,0,2.29-1.41L106.37,28c-.17-.37.21,1.15.25,1.24a3.09,3.09,0,0,0,2.89,2.2c.87-.05,2-.8,2.75-.76-2.75-.16.28,1.24.86,1.61l-1.48-2.59c0,1.95-1.23,2.72.27,4.58,1.28,1.6,3.42,1.59,5.14,2.19L115,32.75c.31-.92-2.07,2-2.39,2.81A3.07,3.07,0,0,0,113.94,39c.55.38,1.2.55,1.73.94l-1.38-3.39c-.15.41-.76,1.26-1,1.87a3,3,0,0,0,1.37,3.39,6.79,6.79,0,0,0,2.25.62c.42.07,2.9.5,1.91,0l-1.07-4.1c-.94,1.88-2,1.93-3.26,3.67a3.06,3.06,0,0,0,.47,3.64c.43.52,1,.85,1.41,1.38L115.6,44c-.25,1.23-.25,2.7-.9,3.76a3.09,3.09,0,0,0,.46,3.63c.52.66,3.25,2.11,2.64,1.29l.47-3.63a15,15,0,0,0-2.44,1.21c-1.64,1.32-.8,3.71.6,4.71.34.24,2.56,1.36,1.22.39,1.4,1,3.24.13,4.11-1.08a3.08,3.08,0,0,0,.32-2.91l-.77,2.92.16-.19h-4.24c-.41-.43.82,2.3,1.35,2.9a3,3,0,0,0,3.64.47A10.15,10.15,0,0,0,124,55.71l-3.64-.47c.43.45.85.92,1.25,1.39a3,3,0,0,0,2.92.78q.87-.22,1.77-.39l-3.69-2.1c.34.86,0,1.89.38,2.8a3,3,0,0,0,3.69,2.1,7.22,7.22,0,0,0,1.74-.91c.25-.17,2-1.31,1-1l-3.69-2.09c.63,2.21.34,3.88,2.89,5a4.38,4.38,0,0,0,2,.42c1.91,0,.66-.78,1.79.06L131,58.73c0-.63-1.07,2.25-1.12,3.06a3,3,0,0,0,3,3c1.22.07,2.37-.87,3.5-.78l-2.89-3.79c-.25,1.08-1.49,1.91-1.78,3.1A3.06,3.06,0,0,0,133.79,67c.85.26,1.82-.05,2.59.21l-2.1-3.69a18,18,0,0,0-1.38,2.21c-.32,1.09,0,2.2-.24,3.32a3,3,0,0,0,.77,2.92c.76.63,2.7,2.16,2.73,2.23l.77-2.92c-.57.7-1.61.93-2.24,1.66a3,3,0,0,0,0,4.24c.71.63,4.15,1.94,3.51,1.35V74.29c-.56.62-1.58.83-2.2,1.48a3.12,3.12,0,0,0-.47,3.64c.76,1.59,2.37-1,.6-.59a4,4,0,0,0-2,1.38c-1.44,1.83-1,3.75-.21,5.66l.77-2.92c-.34.4-.69.8-1.05,1.18a3,3,0,0,0-.78,2.92c.57,1.48,2.27,3.35,2.63,4.3l2.09-3.69c-1.13.36-2.74-.61-4.07-.2a3,3,0,0,0-2.1,3.69c.3.89,2.61,3.74,2.34,2.89l2.1-3.69c-2.36.84-3.47-.77-5.29,2-1.63,2.51-.06,3.12.44,5.5l2.1-3.69c.49-.08-2.54-.64-3.42-.51a3,3,0,0,0-2.2,2.89c0,.38-.17,2.08.33.9.58-1.35-.69.3-.83.6-.58,1.24-.09,2.21,0,2.94,0,.43-.79.93-.78,1.39,0-.1,2.22.76,1,0a8.19,8.19,0,0,0-3.85-1.51,3.06,3.06,0,0,0-3,3c0,.79.18,1.54.12,2.32l3-3c-.75,0-1.55-.32-2.33-.34a3.08,3.08,0,0,0-3,3c-.2,1.84,0,3.79-.58,5.6l3.69-2.09c-1.13-.22-2-1.45-3.2-1.69a3.07,3.07,0,0,0-3.69,2.1c-.22.83.12,1.79-.08,2.52l2.89-2.2c-1.69,0-3.48-.49-5,.63-1.9,1.37-1,2.73-1.46,4.59l3.69-2.1c-.77-.13-1.42-.53-2.19-.67a3.09,3.09,0,0,0-3.39,1.38l-.84,1.65,3.39-1.38c.8.25-.87-.93-1-1a6.84,6.84,0,0,0-1.74-.9,3,3,0,0,0-3.69,2.09c-.41,1.57.36,3-.61,4.37l4.1-1.08c-1.08-.46-1.61-1.83-2.75-2.34-1.39-.61-3.34-.51-4.11,1.08-.32.67-.42,1.53-.73,2.16l3.38-1.38c-1.77-.27-3.47-.1-5.09-.6a3,3,0,0,0-3.39,1.38c-.4.86-.39,2.43-.63,2.93l4.1-1.07c-2-1.06-2-2.09-4.5-2.43a3.12,3.12,0,0,0-3.38,1.38c-.5.85-.4,2-.85,2.73l4.1-1.08c-.47-.28-1.23-1.52-2-2a3,3,0,0,0-4.1,1.08c-.69,1-.21,2.72-.79,3.57l4.11-1.07c-.7-.38-1.13-1.29-1.89-1.72a3.05,3.05,0,0,0-3.64.47c-.48.58-.76,1.28-1.2,1.84.57-.72,2.15-1.27.11-1-1.6.23-2,1.46-3.09,2.43l3.64-.47a38.66,38.66,0,0,0-3.35-3.1,2.92,2.92,0,0,0-3,0c-.38.28-1.25.66-1.33,1.13s2.26-.06.67-.67a3,3,0,0,0-2.92.77c-.66.58-.87,1.53-1.5,2.06h4.24c-.63-.54-.83-1.5-1.5-2.08a3.09,3.09,0,0,0-3.64-.47c-1.41.91.87.27-1.53,0a13.17,13.17,0,0,0-3.85.39l2.91.77c-1.13-1-1.69-2.32-3.43-2.35-.66,0-2.66.12-.88,1-.3-.15-.92-1.49-1.18-1.81a3,3,0,0,0-3.64-.47A5.92,5.92,0,0,0,60.22,120c-.2.22-1.53,1.75-.64,1.19l4.1,1.08c-.5-.77-.23-2.11-.8-3a3.06,3.06,0,0,0-4.11-1.08,9.59,9.59,0,0,0-2.19,2.43l4.11,1.08c-1.37-1.89-2.45-4.25-4.95-5-3.06-1-4.48,1.51-6.81,2.61l4.1,1.07c-.33-.61-.46-1.41-.81-2a3,3,0,0,0-2.59-1.49,36.28,36.28,0,0,0-4.47.78l3.69,2.1c-.35-1,.83-2.89.38-4.24s-2.12-2.71-3.69-2.1a6.63,6.63,0,0,0-1.95,1.16c-.27.22-2.25,1.94-1.13,1.52l3.69,2.09c-.29-.92.34-2.18,0-3.24a3,3,0,0,0-2.1-2.1c-1.93-.38-3.82-.42-5.76-.66l2.89,2.2c-.18-.73-.08-1.6-.27-2.36C40,108.17,34.25,109.76,35.15,113.52Z" style="fill:#1c1b1f"/><path d="M53,49.52a7.25,7.25,0,0,0,.5.73,6.74,6.74,0,0,0,.46.56,6.38,6.38,0,0,0,.52.52c.18.16.48.18.68.31s.34.39.54.49.56.19.82.31.47.38.75.48.57.13.85.2.57.13.86.17.58-.16.88-.16a6.15,6.15,0,0,0,.87.06,5.79,5.79,0,0,0,.8-.27,5.93,5.93,0,0,0,.84-.16,6.58,6.58,0,0,0,.7-.47,7.92,7.92,0,0,0,.78-.37c.23-.16.4-.4.62-.58s.51-.28.71-.48.42-.39.61-.59.41-.41.59-.62a5.87,5.87,0,0,0,.37-.67,5.72,5.72,0,0,0,.46-.6,4.79,4.79,0,0,0,.39-.67c.06-.23.11-.47.17-.75s.18-.43.26-.7,0-.5.09-.77a1,1,0,0,0,0-.73c-.06-.27-.27-.52-.34-.81s0-.58-.12-.87-.1-.58-.19-.86-.16-.57-.28-.84-.42-.45-.56-.7a8.77,8.77,0,0,0-.34-.82c-.09-.11-.41-.19-.66-.38s-.36-.36-.55-.49c-.38-.24-.68-.38-.56-.21-.2-.23-.29-.53-.5-.73s-.51-.19-.83-.33a4.41,4.41,0,0,0-.89-.25,6.85,6.85,0,0,0-.91-.1c-.3,0-.58-.31-.91-.35l-.4,0c-.27,0-.6.07-.92,0a3.19,3.19,0,0,0-.92,0,8.09,8.09,0,0,0-.81.14c-.25.08-.42.39-.67.5s-.6,0-.84.13a8.18,8.18,0,0,0-.64.53c-.23.15-.55.19-.76.35s-.43.36-.62.54a5.69,5.69,0,0,0-.49.67c-.17.21-.34.42-.49.64s-.4.39-.53.61-.1.56-.22.8-.36.43-.45.68a7.35,7.35,0,0,0-.07.82,7.41,7.41,0,0,0-.24.76,7,7,0,0,0-.14.8,7.3,7.3,0,0,0,0,.81c0,.26.27.49.34.75a5.67,5.67,0,0,0,.32.72,5,5,0,0,0,.29.73,5.4,5.4,0,0,0,.29.76c.16.21.36.39.55.6C53.63,50,52.45,48.58,53,49.52Z" style="fill:#f2c5cb"/><path d="M88.69,50.49a5.74,5.74,0,0,0,.9.58c-.12,0,.27.54.56.75s.41.31.66.46.54.1.79.22.44.35.69.45.53.11.79.19.51.29.76.32a4.6,4.6,0,0,0,.83,0,7.72,7.72,0,0,0,.83-.06c.27,0,.49-.31.75-.38s.55-.06.8-.16.45-.32.7-.45a8.15,8.15,0,0,0,.77-.3c.23-.14.39-.39.61-.55a8.18,8.18,0,0,0,.7-.43,7.57,7.57,0,0,0,.53-.62c.26-.27.55-.36.72-.54a2.18,2.18,0,0,0,.51-.72,5.56,5.56,0,0,0,.34-.83,8.15,8.15,0,0,1,.17-.83c.11-.26.27-.49.37-.75a5.35,5.35,0,0,0,.35-.78c0-.19,0-.41,0-.59s.1-.1.11-.15-.12-.07-.1-.09a1,1,0,0,0,0-1.17,4,4,0,0,1-.5-.71c-.1-.27-.08-.58-.16-.86a7.9,7.9,0,0,0-.2-.84,3.25,3.25,0,0,0-.38-.8c-.06-.08-.32,0-.42-.08-.19-.36-.09-.72-.38-1.08-.11-.13-.4-.18-.59-.33s-.35-.37-.47-.46-.51-.34-.77-.5-.46-.4-.74-.55-.55-.06-.78-.16a7.63,7.63,0,0,0-.73-.23,6.58,6.58,0,0,0-.74-.17c-.25-.05-.46-.36-.72-.38s-.52,0-.79,0-.5.14-.76.17a7.41,7.41,0,0,0-.8.07c-.26,0-.54,0-.8.09s-.44.36-.69.45-.59,0-.83.09a6.42,6.42,0,0,0-.65.48,7.56,7.56,0,0,0-.76.33,5.27,5.27,0,0,0-.61.53,4.28,4.28,0,0,0-.46.68,4.38,4.38,0,0,0-.43.73c-.12.25-.33.47-.44.72s-.07.6-.21.83-.36.4-.41.63.11.5.09.74-.12.47-.16.71a5.22,5.22,0,0,1-.27.67,1.11,1.11,0,0,0-.12.51c0,.26.17.54.21.82a4.7,4.7,0,0,0,.25.78,5.61,5.61,0,0,0,.23.8,7.49,7.49,0,0,0,.23.81,7.09,7.09,0,0,0,.49.69c.16.24.49.33.66.54S88.5,50.32,88.69,50.49Zm12.39-9.84a.94.94,0,0,1-.09-.12C100.85,40.3,101,40.47,101.08,40.65Z" style="fill:#f2c5cb"/><path d="M43.5,70.08h0a1,1,0,0,0-.17-.57,1.52,1.52,0,0,1-.25-.71,5.56,5.56,0,0,1-.16-.77c0-.25.16-.5.09-.75a2.22,2.22,0,0,0-.4-.68c-.14-.21-.17-.51-.32-.74-.38-.55-.36-.21-.37-.23-.18-.27-.32-.52-.48-.72s-.51-.33-.7-.52a3.68,3.68,0,0,0-.57-.62c-.21-.15-.5-.19-.78-.35s-.42-.36-.71-.5c-.61-.31.48.26-.38-.14-.22-.11-.42-.34-.66-.46a2.85,2.85,0,0,0-.75-.19,5.47,5.47,0,0,0-.75-.21c-.25,0-.52,0-.78,0s-.53,0-.78,0-.53.18-.77.2a7.34,7.34,0,0,0-.82.09,7.55,7.55,0,0,0-.83.13c-.26.1-.52.22-.77.34s-.54.2-.77.35-.39.44-.6.6-.46.34-.66.52-.29.5-.48.7a8.18,8.18,0,0,0-.6.57,7.75,7.75,0,0,0-.55.67,6.38,6.38,0,0,0-.44.75c-.1.26,0,.6-.07.87s-.27.52-.31.81.08.57,0,.87a5.66,5.66,0,0,0-.09.88,3.52,3.52,0,0,0,.23.86,6.58,6.58,0,0,1,.4.8c-.19-.67-.32.23-.24.45s.45.53.61.85a7,7,0,0,0,.41.69c.14.23.07.61.24.83s.38.39.56.6.47.31.66.5.38.39.59.56a6.31,6.31,0,0,0,.61.55c.23.15.57.1.81.23s.39.46.64.56.56.06.82.14a7.28,7.28,0,0,0,.77.31,5.79,5.79,0,0,0,.83.06,7.72,7.72,0,0,0,.82-.12,7.54,7.54,0,0,0,.81-.12c.28-.05.59,0,.84-.09s.46-.37.7-.47a7.36,7.36,0,0,0,.8-.24c.24-.13.38-.42.61-.57s.49-.23.72-.39.44-.21.63-.34a4.89,4.89,0,0,0,.57-.44c.38-.4.21-.73.15-.64.14-.2.23-.45.39-.66s.34-.37.48-.59.42-.34.54-.57a7.6,7.6,0,0,0,.31-.71c.1-.23,0-.53.07-.77s.35-.46.37-.71A3.49,3.49,0,0,0,43.5,70.08Z" style="fill:#f2c5cb"/><path d="M122.28,69.55c0-.26-.16-.58-.19-.83v-.14s0,0,0-.07c.15-.38-.15-.73-.47-1a4.46,4.46,0,0,1-.48-.74c-.17-.23-.39-.43-.55-.67s-.18-.57-.36-.79a4,4,0,0,0-.64-.59,1.24,1.24,0,0,0-.4-.19c-.1-.21-.46-.38-.58-.44a2.37,2.37,0,0,0-.7-.37,4.59,4.59,0,0,1-.84-.11c-.72-.33.64,0-.14-.29-.24-.07-.52-.05-.77-.12a7.69,7.69,0,0,0-.72-.28,6.47,6.47,0,0,0-.76,0,6.91,6.91,0,0,0-.76-.17,5,5,0,0,0-.77,0,7.54,7.54,0,0,0-.83.12,5.87,5.87,0,0,0-.76.35c-.27.1-.55.14-.8.26s-.55.15-.79.29-.48.31-.7.47-.5.29-.7.47-.32.49-.51.69-.4.39-.58.61-.2.51-.33.72a4.92,4.92,0,0,0-.42.67,5.66,5.66,0,0,0-.29.74c-.06.25-.16.5-.2.76s.1.55,0,.81-.27.45-.36.71c0,.08.08.22.07.32s-.12.3-.08.44.07.52.11.77a7,7,0,0,0,.06.8c.07.25.32.44.42.69a6.3,6.3,0,0,0,.34.69c.12.23.26.44.4.66s.08.59.24.79.38.37.56.57.45.29.65.47.35.37.56.54.4.43.63.59.59.13.84.26.4.48.66.59a6.07,6.07,0,0,0,.85.16,6.19,6.19,0,0,0,.81.32,7.86,7.86,0,0,0,.87.07,6.89,6.89,0,0,0,.86-.1,5.28,5.28,0,0,0,.81-.09,5.7,5.7,0,0,0,.83-.09c.26-.08.45-.35.7-.46s.55-.12.78-.25.37-.44.59-.6a7.83,7.83,0,0,0,.67-.45,8.11,8.11,0,0,0,.65-.51c.18-.19.4-.38.57-.58s.2-.54.35-.76.25-.48.39-.71.34-.4.46-.57.44-.33.54-.53a2.54,2.54,0,0,0,.17-.72c0-.2-.14-.45-.13-.74s.25-.52.25-.8-.08-.55-.1-.81A6.79,6.79,0,0,0,122.28,69.55Z" style="fill:#f2c5cb"/><path d="M104.1,90.4s0,0-.06,0a1.43,1.43,0,0,0,.16-.79,1.48,1.48,0,0,0-.32-.77c-.09-.1-.71-.14-.8-.24.12-.26.69-.47.72-.72s-.23-.5-.29-.77.37-.73.23-1-.45-.38-.64-.61-.28-.45-.4-.6-.91-.1-1-.32.25-.55.19-.85-.48-.37-.53-.65.25-.46.08-.62-.46.12-.67.07-.25-.56-.16-.92c0-.15-.21-.38-.17-.65s.3-.51.1-.75a1.38,1.38,0,0,0-.71-.51,1.78,1.78,0,0,1-.69-.26c-.23-.13-.56-.16-.57-.53,0-.2.18-.43.1-.75s0-.84-.35-1a1.25,1.25,0,0,0-.48-.85c-.23-.2-.38-.57-.7-.62-.1-.25-.48-.06-.59-.31a1.32,1.32,0,0,0-1-.72c-.12-.28-.6-.1-.8-.27s-.24-.56-.53-.64c0-.31,0-.83-.27-1.06s-.81-.62-1.12-.59-.56.63-.79.52-.1-.68-.32-.82c0-.1-.49.08-.51,0-.08-.3,0-.64-.24-.79a2,2,0,0,0-.85-.22c-1-.11-.38-.27-.44-.61s-.73-.17-.91-.33-.32-.13-.55-.19a.49.49,0,0,0-.47,0c-.08,0-.25-.87-.31-.85s0,.17-.1.14c-.32-.09-.75.18-1,0s-.51-.45-.81-.55-.33-.47-.5-.55-.8.47-1,.43c-.17-.23,0-1.15-.29-1.24s-.68.32-1,.38c-.25-.23-.62-.89-1-.88a2.15,2.15,0,0,1-.78-.15c-.37-.11-.81.1-1,0a1.62,1.62,0,0,0-.76-.22c-.24,0-.73-.27-.94-.16s-.23.75-.5.73-.39-.57-.65-.64-.65.45-.9.39-.44-.39-.69-.42-.6-.3-.85-.25a2.77,2.77,0,0,0-.69.16c-.06,0,0,.62-.14.63s-.52.32-.82.34-.62-.19-.89-.21-.41-.58-.61-.7A1.72,1.72,0,0,0,70.56,66c-.3,0-.22.72-.43.91s-.75-.44-1-.45-.45.21-.68.17-.61-.44-.85-.35-.39.83-.62,1-.75-.21-1,0c-.27-.06-.35.65-.59.64a2.11,2.11,0,0,0-.65.19c-.24.06-.66-.34-.88-.21a5.09,5.09,0,0,0-.72.39c-.17.16,0,1-.13,1.17-.36,0-1.05-.81-1.31-.69s-.2.91-.39,1.17a2.87,2.87,0,0,0-.24,1c-.29.1-.8-.06-1,0s-.29.61-.5.76-.81-.4-1-.17a1.28,1.28,0,0,0-.76.1c-.25.09-.41.6-.56.82s-.56.5-.58.77c0,.11.6.61.59.71-.23,0-.58-.06-.77.07s-.38.25-.44.49c-.29.08-1-.19-1.17,0s.32.77.34,1.1c0,0-.28.18-.27.22-.23,0-.58-.19-.77-.08s-.64.22-.76.41,0,.63,0,.88c0,0,.24.49.24.52-.23,0-.52-.38-.72-.26s.09.58,0,.77-1,.13-1,.36c0,.64,1.16.36.5.58-.23.08-.57,0-.72.11s0,.52-.06.74c0,0-.29-.44-.3-.44-.22,0-.49.39-.66.55s.09.58,0,.79.12.7,0,1c0,0-.2.35-.23.37-.27.16-.4,0-.5.29s-.5.41-.44.7a1.36,1.36,0,0,0-.59.53,3.14,3.14,0,0,1-.38.62c-.18.21-.11.7-.33.79s-1,0-1.11.3.16.89.24,1.14.49.68.24.5c-.26.32-.71.33-.58.69-.27.28-.18.65-.12,1a1.16,1.16,0,0,0-.39.66c-.06.25.41.63.49.89-.18.21-.11.44-.14.7s.08.21.21.46A.89.89,0,0,1,47,92.64c-.09,0-.48-.06-.63.55-.08.29-.18.54-.22.76s-.41.6-.39.84.78.33.9.6.31.34.45.6a1.9,1.9,0,0,0,.48.61c-.12.22-.26.46-.21.65.1.37-.37.93-.22,1.16a2.13,2.13,0,0,0,.68.69c0,.18.06.07,0,.28s.55.31.68.5a1.78,1.78,0,0,0,.54.48c0,.27-.08.64.08.87s.32.18.63.23c.07,0-.15.32-.08.33,0,.23.22.43.3.65s-.13.82,0,1,.52.08.76.11c.09.26.69,0,.91.15s.22,0,.52,0c.12,0-.11,1,0,.94l.55.58c.14.14.65,0,.86.1a1.43,1.43,0,0,0,.65,0,1.33,1.33,0,0,0,.68.31,1.4,1.4,0,0,0,.74.1c.34-.07.65-.15.93-.18a.72.72,0,0,1,.79.36c.14.25.53,0,.76.07s.36.49.63.45c.21.24.57.09.89.17s.24,0,.52-.2c0,0,.25.67.28.65a1.66,1.66,0,0,0,.74,0c.23,0,.63.06.8,0s.25-1.05.3-1.12.18.82.75.86c.39,0,.65-.48.87-.48s.27.84.63,1,.76-.12,1-.19.39-.46.56-.6.4-.48.67-.59.74.42,1,.36a1.52,1.52,0,0,0,.66-.3c.26.07.47-.67.69-.73s.23-.09.39-.26.88.16,1-.08,0-.59.31-.77.62.17.9,0,.39-.64.79-.75,1.2-.55.88-.68c.23.09.28.56.5.56s.19-.53.4-.64.86.42,1,.21c0,0-.33.12-.3.08.24.16.55.15.81.3a8.76,8.76,0,0,0,.82.39,4.65,4.65,0,0,0,.88.2c.23.06.53.3.83.3s.68-.26.85-.21.45-.14.5-.13c.14.28,0,.84.08,1s0,.7.23.82.61-.14.82-.15.63-.3.88-.28.47.71.73.76.55-.06.85,0c0,0,.11-.09.13-.06.09.22.55,0,.72.21s0,.44.28.5.29,0,.54-.08.73.6.9.56.14-.4.39-.14.6-.22.85-.16.43.52.63.44c0,0,.37-.3.41-.32s-.28-.11,0-.12.48,0,.69,0,.46.34.69.32.56.46.81.4.27-1,.54-1.07.73.31,1,.23.44-.3.65-.21.68.45,1,.42a2.25,2.25,0,0,0,1-.52c.21-.19.22-.78.53-.9a1.66,1.66,0,0,1,1,0c.22,0,.44-.27.67-.32a.58.58,0,0,0,.46-.26c.18-.21.62-.13.81-.28s.19-.77.41-.87.68.25.91.16.69.26.91.16.46-.45.65-.61a2.56,2.56,0,0,0,.5-.72l-.17.06c.35-.11.15-.79.32-1.06s.68-.38.6-.74c0-.13.24-.52.22-.59.08.13-.09.55.16.08.08-.16,0-.55.22-.73a2.31,2.31,0,0,0,.4-.44c.12-.2.41-.33.5-.61s.5-.42.56-.7-.23-.6-.19-.86.58-.49.61-.75-.78-.65-.76-.88.16-.63.17-.84c0-.46.31-.62.3-.83,0-.37-.5-.64-.52-.91s.37-.65.26-1c0,0,.51.22.54.18s0-.72,0-1S104.23,90.57,104.1,90.4Zm-30-23.78c-.06,0-.14,0-.2,0C73.62,66.64,73.85,66.66,74.06,66.62Z" style="fill:#f2c5cb"/><path d="M45.45,25.4S44.26,13.56,48.6,13.21c0,0,6.95,3,9.74,8.6Z" style="fill:#1c1b1f"/><path d="M110.76,27.6s1.6-11.79-2.73-12.28c0,0-7,2.72-10,8.26Z" style="fill:#1c1b1f"/><path d="M136.25,65.45s6.3-10.09,2.56-12.32c0,0-7.54-.41-12.54,3.41Z" style="fill:#1c1b1f"/><path d="M15.76,56.14s-5.22-10.7-1.27-12.52c0,0,7.55.37,12.12,4.69Z" style="fill:#1c1b1f"/></svg>