<svg width="171" height="114" viewBox="0 0 171 114" fill="none" xmlns="http://www.w3.org/2000/svg">
<path d="M121.172 38.0557L135.496 44.2995" stroke="#1C1B1F" stroke-width="10" stroke-linecap="round"/>
<path d="M121.531 75.4131L135.356 68.1309" stroke="#1C1B1F" stroke-width="10" stroke-linecap="round"/>
<path d="M32.2891 43.9321L32.2891 67.4383" stroke="#1C1B1F" stroke-width="10" stroke-linecap="round"/>
<path d="M73.4248 67.4385L52.1222 78.457" stroke="#1C1B1F" stroke-width="10" stroke-linecap="round"/>
<path d="M7.1073 26.8609C4.57592 25.7574 1.62932 26.915 0.525895 29.4464C-0.57753 31.9778 0.580062 34.9244 3.11145 36.0278L7.1073 26.8609ZM17.4355 42.2717L22.019 44.2696L26.0149 35.1026L21.4314 33.1047L17.4355 42.2717ZM3.11145 36.0278L17.4355 42.2717L21.4314 33.1047L7.1073 26.8609L3.11145 36.0278Z" fill="#1C1B1F"/>
<path d="M3.17174 77.3209C0.601539 78.3306 -0.663478 81.2327 0.346243 83.8029C1.35596 86.3731 4.25806 87.6381 6.82826 86.6284L3.17174 77.3209ZM21.372 80.9148L26.0257 79.0865L22.3692 69.779L17.7155 71.6072L21.372 80.9148ZM6.82826 86.6284L21.372 80.9148L17.7155 71.6072L3.17174 77.3209L6.82826 86.6284Z" fill="#1C1B1F"/>
<path d="M84.934 37.6881L82.434 42.0182C83.1941 42.457 84.0563 42.6881 84.9341 42.6881L84.934 37.6881ZM52.4901 18.9565L54.9901 14.6264C53.4431 13.7333 51.5371 13.7333 49.9901 14.6264L52.4901 18.9565ZM85.0513 37.688H90.0513C90.0513 36.362 89.5245 35.0902 88.5868 34.1525C87.6491 33.2148 86.3774 32.688 85.0513 32.688L85.0513 37.688ZM85.0513 75.1511V80.1511C87.8128 80.1511 90.0513 77.9125 90.0513 75.1511H85.0513ZM84.934 75.1511V70.1511C84.0563 70.1511 83.1941 70.3821 82.434 70.8209L84.934 75.1511ZM52.4901 93.8826L49.9901 98.2127C51.5371 99.1059 53.4431 99.1059 54.9901 98.2127L52.4901 93.8826ZM20.0461 75.1511L22.5461 70.8209C21.786 70.3821 20.9237 70.151 20.046 70.1511L20.0461 75.1511ZM19.9287 75.1511H14.9287C14.9287 76.4772 15.4555 77.749 16.3932 78.6867C17.331 79.6243 18.6028 80.1511 19.9289 80.1511L19.9287 75.1511ZM19.9287 37.688L19.9288 32.688C18.6027 32.688 17.3309 33.2148 16.3932 34.1525C15.4555 35.0902 14.9287 36.362 14.9287 37.688H19.9287ZM20.0461 37.6881L20.0461 42.6881C20.9238 42.6881 21.786 42.457 22.5461 42.0182L20.0461 37.6881ZM87.434 33.3579L54.9901 14.6264L49.9901 23.2867L82.434 42.0182L87.434 33.3579ZM85.0513 32.688L84.9339 32.6881L84.9341 42.6881L85.0514 42.688L85.0513 32.688ZM90.0513 75.1511V37.688H80.0513V75.1511H90.0513ZM84.934 80.1511H85.0513V70.1511H84.934V80.1511ZM82.434 70.8209L49.9901 89.5524L54.9901 98.2127L87.434 79.4812L82.434 70.8209ZM54.9901 89.5524L22.5461 70.8209L17.5461 79.4812L49.9901 98.2127L54.9901 89.5524ZM19.9289 80.1511L20.0463 80.1511L20.046 70.1511L19.9285 70.1511L19.9289 80.1511ZM14.9287 37.688V75.1511H24.9287V37.688H14.9287ZM20.0462 32.6881L19.9288 32.688L19.9286 42.688L20.0461 42.6881L20.0462 32.6881ZM49.9901 14.6264L17.5461 33.3579L22.5461 42.0182L54.9901 23.2867L49.9901 14.6264Z" fill="#1C1B1F"/>
<path d="M57.1221 5C57.1221 2.23858 54.8835 -1.20706e-07 52.1221 0C49.3606 1.20706e-07 47.1221 2.23858 47.1221 5L57.1221 5ZM47.1221 17.4877L47.1221 22.4877L57.1221 22.4877L57.1221 17.4877L47.1221 17.4877ZM47.1221 5L47.1221 17.4877L57.1221 17.4877L57.1221 5L47.1221 5Z" fill="#1C1B1F"/>
<path d="M57.1221 96.0864L57.1221 91.0864L47.1221 91.0864L47.1221 96.0864L57.1221 96.0864ZM47.1221 108.574C47.1221 111.336 49.3606 113.574 52.1221 113.574C54.8835 113.574 57.1221 111.336 57.1221 108.574L47.1221 108.574ZM47.1221 96.0864L47.1221 108.574L57.1221 108.574L57.1221 96.0864L47.1221 96.0864Z" fill="#1C1B1F"/>
<path d="M163.121 26.8609C165.653 25.7574 168.599 26.915 169.703 29.4464C170.806 31.9778 169.648 34.9244 167.117 36.0278L163.121 26.8609ZM152.793 42.2717L148.209 44.2696L144.214 35.1026L148.797 33.1047L152.793 42.2717ZM167.117 36.0278L152.793 42.2717L148.797 33.1047L163.121 26.8609L167.117 36.0278Z" fill="#666666"/>
<path d="M167.057 77.3209C169.627 78.3306 170.892 81.2327 169.882 83.8029C168.873 86.3731 165.97 87.6381 163.4 86.6284L167.057 77.3209ZM148.857 80.9148L144.203 79.0865L147.859 69.779L152.513 71.6072L148.857 80.9148ZM163.4 86.6284L148.857 80.9148L152.513 71.6072L167.057 77.3209L163.4 86.6284Z" fill="#666666"/>
<path d="M113.106 5C113.106 2.23858 115.345 -1.20706e-07 118.106 0C120.868 1.20706e-07 123.106 2.23858 123.106 5L113.106 5ZM123.106 17.4877L123.106 22.4877L113.106 22.4877L113.106 17.4877L123.106 17.4877ZM123.106 5L123.106 17.4877L113.106 17.4877L113.106 5L123.106 5Z" fill="#666666"/>
<path d="M113.106 96.0864L113.106 91.0864L123.106 91.0864L123.106 96.0864L113.106 96.0864ZM123.106 108.574C123.106 111.336 120.868 113.574 118.106 113.574C115.345 113.574 113.106 111.336 113.106 108.574L123.106 108.574ZM123.106 96.0864L123.106 108.574L113.106 108.574L113.106 96.0864L123.106 96.0864Z" fill="#666666"/>
<path d="M96.9307 29.6083L116.764 18.957L150.187 38.4231V75.1516L116.764 94.2503L96.9307 81.7627" stroke="#666666" stroke-width="10" stroke-linecap="round"/>
</svg>
