<svg width="530" height="530" viewBox="0 0 530 530" fill="none" xmlns="http://www.w3.org/2000/svg">
<g clip-path="url(#clip0_226_9728)">
<circle cx="263.718" cy="270.418" r="125.583" fill="#1C1B1F"/>
<circle cx="263.718" cy="270.419" r="83.2817" fill="black"/>
<circle opacity="0.8" cx="209.519" cy="266.452" r="29.0822" fill="white"/>
<path d="M260.43 219.73C148.918 221.926 107.013 162.825 100 133H430.064C401.792 196.675 352.479 219.73 260.43 219.73Z" fill="white"/>
<path d="M100 133C107.013 162.825 148.918 221.926 260.43 219.73C352.479 219.73 401.792 196.675 430.064 133" stroke="#1C1B1F" stroke-width="20" stroke-linecap="round"/>
<ellipse cx="-0.374557" cy="525.941" rx="141.448" ry="77.9406" fill="#1C1B1F"/>
<path d="M469.975 487.022L417.161 434.208" stroke="#1C1B1F" stroke-width="15" stroke-linecap="round"/>
<circle cx="365.667" cy="353.667" r="94.1668" fill="white" stroke="#1C1B1F" stroke-width="15"/>
<path fill-rule="evenodd" clip-rule="evenodd" d="M341.595 398.846C348.912 400.312 354.244 406.03 356.939 410.263C357.074 410.476 357.195 410.698 357.3 410.928C361.281 419.633 369.32 420.628 372.553 420.139C375.552 419.687 378.349 421.75 378.802 424.749C379.255 427.747 377.191 430.545 374.193 430.997C367.87 431.952 354.212 430.079 347.492 415.878C345.538 412.934 342.465 410.219 339.437 409.612C337.177 409.159 332.953 409.517 327.488 417.765C325.813 420.293 322.406 420.984 319.878 419.309C317.35 417.634 316.659 414.227 318.334 411.699C325.258 401.25 333.413 397.205 341.595 398.846Z" fill="#1C1B1F"/>
<path fill-rule="evenodd" clip-rule="evenodd" d="M413.325 334.592C408.816 330.626 407.478 324.609 407.312 320.777C407.301 320.525 407.308 320.272 407.331 320.021C407.905 313.977 403.837 310.939 402.032 310.232C399.209 309.125 397.818 305.939 398.925 303.116C400.032 300.293 403.218 298.901 406.041 300.009C410.752 301.856 419.242 308.458 418.301 320.621C418.467 322.948 419.336 325.255 420.577 326.347C421.213 326.906 423.281 328.383 429.389 325.342C432.103 323.99 435.399 325.095 436.751 327.809C438.103 330.524 436.998 333.82 434.283 335.171C425.812 339.39 418.496 339.141 413.325 334.592Z" fill="#1C1B1F"/>
<path fill-rule="evenodd" clip-rule="evenodd" d="M341.434 276.546C347.154 276.546 351.792 280.184 351.792 284.673L351.792 295.509C351.792 299.997 347.154 303.635 341.434 303.635C335.714 303.635 331.076 299.997 331.076 295.509L331.076 284.673C331.076 280.184 335.714 276.546 341.434 276.546Z" fill="#1C1B1F"/>
<path fill-rule="evenodd" clip-rule="evenodd" d="M341.434 359.408C347.154 359.408 351.792 363.475 351.792 368.491L351.792 380.602C351.792 385.618 347.154 389.685 341.434 389.685C335.714 389.685 331.076 385.618 331.076 380.602L331.076 368.491C331.076 363.475 335.714 359.408 341.434 359.408Z" fill="#1C1B1F"/>
<path fill-rule="evenodd" clip-rule="evenodd" d="M381.115 292.37C384.599 295.854 384.599 301.504 381.115 304.988L372.703 313.4C369.218 316.885 363.569 316.885 360.085 313.4C356.6 309.916 356.6 304.267 360.085 300.782L368.497 292.37C371.981 288.886 377.63 288.886 381.115 292.37Z" fill="#1C1B1F"/>
<path fill-rule="evenodd" clip-rule="evenodd" d="M321.389 352.094C324.874 355.578 324.874 361.227 321.389 364.712L312.977 373.124C309.493 376.608 303.843 376.608 300.359 373.124C296.875 369.64 296.875 363.99 300.359 360.506L308.771 352.094C312.255 348.609 317.905 348.609 321.389 352.094Z" fill="#1C1B1F"/>
<path fill-rule="evenodd" clip-rule="evenodd" d="M300.687 292.37C304.171 288.885 309.821 288.885 313.305 292.37L321.717 300.782C325.202 304.266 325.202 309.915 321.717 313.4C318.233 316.884 312.583 316.884 309.099 313.4L300.687 304.988C297.203 301.503 297.203 295.854 300.687 292.37Z" fill="#1C1B1F"/>
<path fill-rule="evenodd" clip-rule="evenodd" d="M360.412 352.092C363.896 348.607 369.545 348.607 373.03 352.092L381.442 360.504C384.926 363.988 384.926 369.638 381.442 373.122C377.957 376.606 372.308 376.606 368.824 373.122L360.412 364.71C356.927 361.226 356.927 355.576 360.412 352.092Z" fill="#1C1B1F"/>
<path fill-rule="evenodd" clip-rule="evenodd" d="M284.864 331.524C284.864 326.684 288.503 322.76 292.991 322.76L303.827 322.76C308.315 322.76 311.954 326.684 311.954 331.524C311.954 336.365 308.315 340.289 303.827 340.289L292.991 340.289C288.503 340.289 284.864 336.365 284.864 331.524Z" fill="#1C1B1F"/>
<path fill-rule="evenodd" clip-rule="evenodd" d="M367.727 331.524C367.727 326.684 371.793 322.76 376.81 322.76L388.92 322.76C393.937 322.76 398.003 326.684 398.003 331.524C398.003 336.365 393.937 340.289 388.92 340.289L376.81 340.289C371.793 340.289 367.727 336.365 367.727 331.524Z" fill="#1C1B1F"/>
<path d="M377.288 332.321C377.288 352.563 360.879 368.972 340.637 368.972C320.395 368.972 303.986 352.563 303.986 332.321C303.986 312.079 320.395 295.67 340.637 295.67C360.879 295.67 377.288 312.079 377.288 332.321Z" fill="#1C1B1F"/>
<path d="M360.291 320.787C360.291 326.795 355.42 331.666 349.412 331.666C343.404 331.666 338.533 326.795 338.533 320.787C338.533 314.779 343.404 309.908 349.412 309.908C355.42 309.908 360.291 314.779 360.291 320.787Z" fill="#F9F9F9"/>
<path d="M337.082 343.995C337.082 348.401 333.511 351.973 329.105 351.973C324.699 351.973 321.127 348.401 321.127 343.995C321.127 339.589 324.699 336.018 329.105 336.018C333.511 336.018 337.082 339.589 337.082 343.995Z" fill="#F9F9F9"/>
<path d="M440.518 356.612C440.518 361.464 436.831 365.397 432.283 365.397C427.734 365.397 424.047 361.464 424.047 356.612C424.047 351.761 427.734 347.828 432.283 347.828C436.831 347.828 440.518 351.761 440.518 356.612Z" fill="#1C1B1F"/>
<path d="M391.104 279.196C391.104 282.531 388.4 285.235 385.064 285.235C381.728 285.235 379.024 282.531 379.024 279.196C379.024 275.86 381.728 273.156 385.064 273.156C388.4 273.156 391.104 275.86 391.104 279.196Z" fill="#1C1B1F"/>
<path fill-rule="evenodd" clip-rule="evenodd" d="M408.21 361.23C411.126 361.23 413.491 363.085 413.491 365.373L413.491 370.898C413.491 373.187 411.126 375.042 408.21 375.042C405.293 375.042 402.929 373.187 402.929 370.898L402.929 365.373C402.929 363.085 405.293 361.23 408.21 361.23Z" fill="#1C1B1F"/>
<path fill-rule="evenodd" clip-rule="evenodd" d="M408.21 403.478C411.126 403.478 413.491 405.551 413.491 408.109L413.491 414.284C413.491 416.841 411.126 418.915 408.21 418.915C405.293 418.915 402.929 416.841 402.929 414.284L402.929 408.109C402.929 405.551 405.293 403.478 408.21 403.478Z" fill="#1C1B1F"/>
<path fill-rule="evenodd" clip-rule="evenodd" d="M428.441 369.297C430.218 371.073 430.218 373.954 428.441 375.73L424.152 380.019C422.376 381.796 419.496 381.796 417.719 380.019C415.942 378.243 415.942 375.362 417.719 373.586L422.008 369.297C423.784 367.52 426.665 367.52 428.441 369.297Z" fill="#1C1B1F"/>
<path fill-rule="evenodd" clip-rule="evenodd" d="M397.99 399.749C399.767 401.525 399.767 404.406 397.99 406.182L393.701 410.471C391.925 412.248 389.044 412.248 387.268 410.471C385.491 408.695 385.491 405.814 387.268 404.038L391.557 399.749C393.333 397.972 396.214 397.972 397.99 399.749Z" fill="#1C1B1F"/>
<path fill-rule="evenodd" clip-rule="evenodd" d="M387.435 369.298C389.212 367.521 392.092 367.521 393.869 369.298L398.158 373.587C399.934 375.363 399.934 378.244 398.158 380.02C396.381 381.797 393.501 381.797 391.724 380.02L387.435 375.731C385.659 373.955 385.659 371.074 387.435 369.298Z" fill="#1C1B1F"/>
<path fill-rule="evenodd" clip-rule="evenodd" d="M417.886 399.749C419.662 397.972 422.542 397.972 424.319 399.749L428.608 404.038C430.384 405.814 430.384 408.694 428.608 410.471C426.831 412.247 423.951 412.247 422.175 410.471L417.886 406.182C416.109 404.405 416.109 401.525 417.886 399.749Z" fill="#1C1B1F"/>
<path fill-rule="evenodd" clip-rule="evenodd" d="M379.368 389.261C379.368 386.793 381.223 384.792 383.512 384.792H389.036C391.325 384.792 393.18 386.793 393.18 389.261C393.18 391.728 391.325 393.729 389.036 393.729H383.512C381.223 393.729 379.368 391.728 379.368 389.261Z" fill="#1C1B1F"/>
<path fill-rule="evenodd" clip-rule="evenodd" d="M421.616 389.261C421.616 386.793 423.69 384.792 426.247 384.792H432.422C434.979 384.792 437.053 386.793 437.053 389.261C437.053 391.728 434.979 393.729 432.422 393.729H426.247C423.69 393.729 421.616 391.728 421.616 389.261Z" fill="#1C1B1F"/>
<path d="M426.49 389.667C426.49 399.987 418.124 408.353 407.804 408.353C397.483 408.353 389.117 399.987 389.117 389.667C389.117 379.347 397.483 370.98 407.804 370.98C418.124 370.98 426.49 379.347 426.49 389.667Z" fill="#1C1B1F"/>
<path d="M418.643 384.208C418.643 387.409 416.048 390.004 412.847 390.004C409.647 390.004 407.052 387.409 407.052 384.208C407.052 381.007 409.647 378.413 412.847 378.413C416.048 378.413 418.643 381.007 418.643 384.208Z" fill="#F9F9F9"/>
<path d="M406.279 396.572C406.279 398.92 404.376 400.823 402.028 400.823C399.681 400.823 397.778 398.92 397.778 396.572C397.778 394.225 399.681 392.322 402.028 392.322C404.376 392.322 406.279 394.225 406.279 396.572Z" fill="#F9F9F9"/>
</g>
<defs>
<clipPath id="clip0_226_9728">
<rect width="530" height="530" fill="white"/>
</clipPath>
</defs>
</svg>
