<svg width="530" height="530" viewBox="0 0 530 530" fill="none" xmlns="http://www.w3.org/2000/svg">
<g clip-path="url(#clip0_218_10836)">
<path fill-rule="evenodd" clip-rule="evenodd" d="M265 108C145.154 108 48 205.057 48 324.783V662H196.685V306.536C196.685 268.845 227.271 238.29 265 238.29C302.729 238.29 333.315 268.845 333.315 306.536V662H482V324.783C482 205.057 384.846 108 265 108Z" fill="white" stroke="#1C1B1F" stroke-width="15"/>
<path d="M198 308.243C198 270.553 228.221 240 265.5 240C302.779 240 333 270.553 333 308.243V441H198V308.243Z" fill="#D9D9D9" stroke="#1C1B1F" stroke-width="15"/>
<path d="M400.784 -135.309C373.186 71.0639 291.21 140.847 253.672 149.941L291.226 186.702C356.397 183.387 397.312 149.426 409.623 132.86C449.258 110.049 427.129 94.988 411.109 90.3087C467.995 74.0107 455.11 58.3342 441.558 52.5332C467.38 36.0043 447.623 17.87 434.517 10.8689C465.188 -5.47195 447.536 -25.9595 434.876 -34.1606L400.784 -135.309Z" fill="white"/>
<path d="M254.187 149.875C291.702 140.729 373.772 71.1531 401.93 -133.989L435.685 -33.5815C448.305 -25.469 465.874 -5.16253 435.197 11.1631C448.266 18.0819 467.944 36.0441 442.108 52.5426C455.626 58.2676 468.448 73.8074 411.59 90.1661C427.575 94.7694 449.632 109.671 409.983 132.451C382.686 150.194 354.413 172.803 291.586 186.294" stroke="#1C1B1F" stroke-width="15" stroke-linecap="round" stroke-linejoin="round"/>
<ellipse cx="265.5" cy="299" rx="31.5" ry="23" fill="#666666"/>
<path d="M245 283C254.556 286.307 276.533 297.338 288 315" stroke="#1C1B1F" stroke-width="15" stroke-linecap="round"/>
<path d="M288 283C278.444 286.307 256.467 297.338 245 315" stroke="#1C1B1F" stroke-width="15" stroke-linecap="round"/>
<path d="M201.32 147.041L126.27 50.837L140.66 125.537L117.504 131.339L196.655 232.867L178.347 152.301L201.32 147.041Z" fill="#F9F9F9" stroke="#1C1B1F" stroke-width="15" stroke-linecap="round" stroke-linejoin="round"/>
<path d="M109.763 248.723L17 278.175L76.8588 288.127L74.7768 307.055L172.659 276.012L107.327 267.364L109.763 248.723Z" fill="#F9F9F9" stroke="#1C1B1F" stroke-width="15" stroke-linecap="round" stroke-linejoin="round"/>
<path d="M518.641 253.475C507.767 262.241 479.217 276.571 452 263.767" stroke="#1C1B1F" stroke-width="10" stroke-linecap="round" stroke-linejoin="round"/>
<path d="M431.405 204.808C432.582 195.272 438.33 173.626 451.898 163.333" stroke="#1C1B1F" stroke-width="10" stroke-linecap="round" stroke-linejoin="round"/>
<path d="M533.961 182.153C523.166 199.426 495.227 211.502 477.975 194.25C474.179 189.59 468.339 176.487 477.975 170.233C483.227 168 489.907 166.697 498.945 180.449C511.126 202.847 495.06 234.965 443.192 233" stroke="#1C1B1F" stroke-width="10" stroke-linecap="round"/>
</g>
<defs>
<clipPath id="clip0_218_10836">
<rect width="530" height="530" fill="white"/>
</clipPath>
</defs>
</svg>
