<svg width="530" height="530" viewBox="0 0 530 530" fill="none" xmlns="http://www.w3.org/2000/svg">
<g clip-path="url(#clip0_218_10864)">
<path fill-rule="evenodd" clip-rule="evenodd" d="M104.338 83C97.3875 83 91.3033 87.6678 89.5033 94.3812C84.3122 113.742 80.8582 144.03 87.9587 172.461C94.2445 197.63 109.165 222.125 138.453 234.832C134.398 253.408 133.952 277.403 142.467 301.991C153.055 332.567 177.013 362.645 221.832 383.987V431.641C221.832 440.124 228.708 447 237.19 447H292.481C300.964 447 307.84 440.124 307.84 431.641V383.987C352.659 362.645 376.617 332.567 387.205 301.991C395.72 277.403 395.273 253.408 391.218 234.832C420.507 222.125 435.427 197.63 441.713 172.461C448.813 144.03 445.359 113.742 440.168 94.3812C438.368 87.6678 432.284 83 425.334 83H381.561C376.625 83 371.989 85.3732 369.102 89.3783C366.215 93.3833 365.43 98.5319 366.991 103.215C368.222 106.908 369.117 113.351 369.588 121.513C370.028 129.134 370.042 136.954 370.042 143.2C369.206 156.069 363.894 163.814 358.989 167.843C347.7 154.434 331.508 146.309 316.729 141.383C297.605 135.009 277.683 132.916 264.836 132.916C251.988 132.916 232.067 135.009 212.943 141.383C198.164 146.309 181.971 154.434 170.682 167.843C165.777 163.814 160.466 156.069 159.629 143.2C159.629 136.954 159.644 129.134 160.083 121.513C160.554 113.351 161.45 106.908 162.681 103.215C164.242 98.5319 163.456 93.3833 160.57 89.3783C157.683 85.3732 153.047 83 148.11 83H104.338Z" fill="#1C1B1F"/>
<path fill-rule="evenodd" clip-rule="evenodd" d="M103.234 83C93.7628 118.325 91.1006 208.48 156.221 225.067C143.422 258.089 141.477 334.114 236.086 374.046V431.641H263.732H291.377V374.046C385.987 334.114 384.041 258.089 371.242 225.067C436.363 208.48 433.701 118.325 424.229 83H380.457C384.297 94.519 384.297 131.124 384.297 143.667C382.761 170.544 365.355 185.647 352.044 186.671C336.685 155.954 286.77 148.274 263.732 148.274C240.694 148.274 190.778 155.954 175.42 186.671C162.109 185.647 144.702 170.544 143.166 143.667C143.166 131.124 143.166 94.519 147.006 83H103.234Z" fill="#F9F9F9"/>
<path fill-rule="evenodd" clip-rule="evenodd" d="M149.646 268.84C158.064 268.281 182.908 269.526 211.868 282.274C220.287 285.629 242.344 289.151 263.223 276.403C274.168 269.414 304.475 258.79 338.151 272.209C346.008 275.564 362.62 281.895 375.416 281.895C373.236 308.054 348.365 352.778 291.71 374.427V447H234.883V374.714C202.87 361.582 153.169 332.974 149.646 268.84Z" fill="#666666"/>
<circle cx="217.224" cy="327.971" r="14.5907" fill="#D9D9D9"/>
<circle cx="260.996" cy="379.422" r="9.21519" fill="#D9D9D9"/>
<circle cx="291.713" cy="342.561" r="9.21519" fill="#D9D9D9"/>
<circle cx="316.287" cy="305.7" r="15.3586" fill="#D9D9D9"/>
<path d="M99.1029 337.693L25.078 332.824L64.7999 356.519L58.0634 369.376L136.164 374.537L92.1946 350.246L99.1029 337.693Z" fill="white" stroke="#1C1B1F" stroke-width="15" stroke-linecap="round" stroke-linejoin="round"/>
<path d="M122.721 412.887L84.3162 468.219L121.331 448.387L128.186 459.641L168.725 401.275L129.26 424.134L122.721 412.887Z" fill="white" stroke="#1C1B1F" stroke-width="15" stroke-linecap="round" stroke-linejoin="round"/>
<path d="M430.898 337.693L504.922 332.824L465.201 356.519L471.937 369.376L393.837 374.537L437.806 350.246L430.898 337.693Z" fill="white" stroke="#1C1B1F" stroke-width="15" stroke-linecap="round" stroke-linejoin="round"/>
<path d="M407.279 412.887L445.684 468.219L408.669 448.387L401.814 459.641L361.276 401.275L400.74 424.134L407.279 412.887Z" fill="white" stroke="#1C1B1F" stroke-width="15" stroke-linecap="round" stroke-linejoin="round"/>
</g>
<defs>
<clipPath id="clip0_218_10864">
<rect width="530" height="530" fill="white"/>
</clipPath>
</defs>
</svg>
