<svg width="530" height="530" viewBox="0 0 530 530" fill="none" xmlns="http://www.w3.org/2000/svg">
<g clip-path="url(#clip0_218_10943)">
<path d="M404.584 288.934C396.003 218.307 339.953 199.55 313 199L327.026 253.455C381.812 244.874 389 309.5 383.957 535.699H404.584C412.505 487.514 407.884 321.112 404.584 288.934Z" fill="white" stroke="#1C1B1F" stroke-width="15"/>
<path d="M310.492 65.0299C379.798 113.71 341.845 187.142 310.492 213.544C340.855 234.666 323.143 261.399 310.492 272.126C373.198 300.508 364.672 363.709 352.571 391.762C323.528 467.67 253.011 454.743 221.383 438.792C63.6278 339.122 110.547 177.791 153.727 109.584C203.891 30.3765 279.139 46.8781 310.492 65.0299Z" fill="#D9D9D9" stroke="#1C1B1F" stroke-width="15" stroke-linecap="round" stroke-linejoin="round"/>
<path d="M306.314 215.625C370.579 145.318 338.783 94.6809 318.831 80C333.762 140.631 301.446 181.493 283.594 193.049C265.418 174.989 228.958 176.386 213 179.343C304.529 223.849 259.792 284.426 225.983 309.151C247.405 316.892 271.152 302.701 280.348 294.639C291.384 295.284 307.126 310.495 313.617 318.02C342.828 358.656 311.024 427.161 269.386 447.887C305.819 449.614 319.027 431.166 327.411 423.641C389.729 341.08 339.312 290.339 306.314 275.288C340.719 248.198 320.649 224.225 306.314 215.625Z" fill="#666666"/>
<circle cx="226" cy="95" r="27" fill="white"/>
<circle cx="185" cy="136" r="14" fill="white"/>
</g>
<defs>
<clipPath id="clip0_218_10943">
<rect width="530" height="530" fill="white"/>
</clipPath>
</defs>
</svg>
