<svg width="530" height="530" viewBox="0 0 530 530" fill="none" xmlns="http://www.w3.org/2000/svg">
<g clip-path="url(#clip0_218_10819)">
<path fill-rule="evenodd" clip-rule="evenodd" d="M80.722 97.8206C83.0659 89.0784 90.9887 83 100.04 83H143.812C150.241 83 156.278 86.0904 160.037 91.3058C163.796 96.5212 164.818 103.226 162.785 109.325C162.782 109.336 162.717 109.54 162.613 109.986C162.507 110.438 162.385 111.038 162.253 111.803C161.986 113.348 161.726 115.295 161.487 117.622C161.007 122.285 160.668 127.87 160.436 133.738C159.989 145.08 159.973 156.615 159.972 163.044C160.546 171.411 163.29 177.3 166.244 181.083C178.024 168.976 193.469 161.549 207.177 156.98C226.858 150.419 247.289 148.274 260.537 148.274C273.786 148.274 294.217 150.419 313.898 156.98C327.606 161.549 343.05 168.976 354.831 181.083C357.785 177.3 360.529 171.411 361.103 163.044C361.102 156.615 361.086 145.08 360.638 133.738C360.407 127.87 360.068 122.285 359.588 117.622C359.348 115.295 359.089 113.348 358.822 111.803C358.69 111.038 358.568 110.438 358.462 109.986C358.354 109.521 358.288 109.32 358.289 109.325C356.256 103.226 357.279 96.5212 361.038 91.3058C364.797 86.0904 370.834 83 377.263 83H421.035C430.086 83 438.009 89.0784 440.353 97.8206C445.788 118.094 449.12 152.718 442.06 185.296C436.113 212.736 421.814 242.02 392.148 257.255C395.699 276.084 395.596 299.532 387.292 323.51C375.509 357.536 347.934 390.535 295.96 412.472C293.75 413.405 291.392 413.932 289 414.03V585H230V413.836C228.324 413.591 226.682 413.134 225.115 412.472C173.14 390.535 145.566 357.536 133.783 323.51C125.479 299.532 125.375 276.084 128.927 257.255C99.261 242.02 84.9616 212.736 79.0151 185.296C71.9552 152.718 75.2863 118.094 80.722 97.8206Z" fill="#1C1B1F"/>
<path fill-rule="evenodd" clip-rule="evenodd" d="M98.7606 106C88.7604 151.5 89.167 231.48 154.288 248.067C141.489 281.089 145.072 374.5 244.153 397.046V584.641H260.26H261.798H277.906V397.046C376.986 374.5 380.57 281.089 367.771 248.067C432.891 231.48 433.298 151.5 423.298 106L417.798 83H373.298L378.298 106C380.61 119 383.298 153.457 383.298 166C383.298 190 361.883 208.647 348.573 209.671C333.547 179.62 285.449 171.619 261.798 171.285V171.274C261.545 171.274 261.289 171.275 261.029 171.277C260.77 171.275 260.513 171.274 260.26 171.274V171.285C236.609 171.619 188.511 179.62 173.486 209.671C160.175 208.647 138.76 190 138.76 166C138.76 153.457 141.449 119 143.76 106L148.761 83H104.261L98.7606 106Z" fill="#F9F9F9"/>
<path fill-rule="evenodd" clip-rule="evenodd" d="M148.044 291C156.463 290.441 182.512 290.758 211.473 303.506C219.892 306.861 241.949 310.383 262.828 297.635C273.772 290.645 304.08 280.022 337.755 293.441C339.064 294 340.492 294.652 342.021 295.351C349.674 298.845 359.879 303.506 370.544 303.506C368.246 331.08 342.374 384.105 278.544 400.373V527H243.544V400.5H243.544C212.675 389.038 146.044 361.5 148.044 291Z" fill="#666666"/>
<circle cx="198.591" cy="328.591" r="14.5907" fill="#D9D9D9"/>
<circle cx="261.056" cy="379.422" r="9.21519" fill="#D9D9D9"/>
<circle cx="274.215" cy="338.215" r="9.21519" fill="#D9D9D9"/>
<circle cx="326.359" cy="318.359" r="15.3586" fill="#D9D9D9"/>
<path d="M200.571 377.886C200.613 377.881 200.656 377.875 200.698 377.869C222.874 374.828 237.881 391.732 243.484 402.753L242.754 479.879C240.104 480.245 236.853 480.453 233.548 480.493C229.339 480.544 225.627 480.316 223.548 479.989C205.756 476.011 194.295 464.631 187.049 451.434C179.687 438.026 176.947 423.152 176.705 413.787C176.702 413.649 176.695 413.511 176.683 413.374C175.561 399.548 179.742 391.169 184.666 386.071C189.835 380.72 196.415 378.383 200.571 377.886Z" fill="#F9F9F9" stroke="#1C1B1F" stroke-width="15" stroke-linejoin="round"/>
<path d="M320.429 377.886C320.387 377.881 320.344 377.875 320.302 377.869C298.126 374.828 283.119 391.732 277.516 402.753L278.246 479.879C280.896 480.245 284.147 480.453 287.452 480.493C291.661 480.544 295.373 480.316 297.452 479.989C315.244 476.011 326.705 464.631 333.951 451.434C341.313 438.026 344.053 423.152 344.295 413.787C344.298 413.649 344.305 413.511 344.317 413.374C345.439 399.548 341.258 391.169 336.334 386.071C331.165 380.72 324.585 378.383 320.429 377.886Z" fill="#F9F9F9" stroke="#1C1B1F" stroke-width="15" stroke-linejoin="round"/>
<path d="M124.635 376.241L61.455 337.36L85.5102 376.865L73.5487 385.086L140.195 426.129L112.663 384.114L124.635 376.241Z" fill="white" stroke="#1C1B1F" stroke-width="15" stroke-linecap="round" stroke-linejoin="round"/>
<path d="M110.396 453.761L50.5939 484.747L92.5865 484.501L93.391 497.654L156.497 464.98L110.925 466.759L110.396 453.761Z" fill="white" stroke="#1C1B1F" stroke-width="15" stroke-linecap="round" stroke-linejoin="round"/>
<path d="M405.132 376.241L468.312 337.36L444.257 376.865L456.218 385.086L389.572 426.129L417.104 384.114L405.132 376.241Z" fill="white" stroke="#1C1B1F" stroke-width="15" stroke-linecap="round" stroke-linejoin="round"/>
<path d="M419.371 453.761L479.173 484.747L437.181 484.501L436.376 497.654L373.27 464.98L418.842 466.759L419.371 453.761Z" fill="white" stroke="#1C1B1F" stroke-width="15" stroke-linecap="round" stroke-linejoin="round"/>
</g>
<defs>
<clipPath id="clip0_218_10819">
<rect width="530" height="530" fill="white"/>
</clipPath>
</defs>
</svg>
