<svg width="530" height="530" viewBox="0 0 530 530" fill="none" xmlns="http://www.w3.org/2000/svg">
<path d="M347 252.471H80V454.624H450.092V277.093C452.879 225.259 429.058 207.981 416.799 205.821C360 191.501 347.387 234.473 347 252.471Z" fill="#666666"/>
<path d="M80 252.471L342 252.471C350.5 205.82 375.299 199.946 416.799 205.821C429.058 207.981 452.879 225.259 450.092 277.093" stroke="#1C1B1F" stroke-width="15" stroke-linecap="round" stroke-linejoin="round"/>
<path fill-rule="evenodd" clip-rule="evenodd" d="M221.506 147.888C214.603 149.358 203.956 149.443 185.08 147.55C173.353 144.104 147.317 144.486 136.99 173.575C133.281 186.509 131.272 219.442 152.91 247.692C162.176 258.677 180.73 284.849 180.824 301.654C181.198 322.397 187.58 363.802 210.114 363.483C214.88 364.238 224.988 359.66 227.292 335.308C228.198 320.061 233.963 293.972 251.735 288.626C270.135 286.203 286.104 307.624 293.191 321.153C305.292 342.412 316.388 342.435 320.424 339.789C341.101 330.828 329.918 290.454 321.742 271.387C314.926 256.025 321.097 224.543 325.035 210.722C333.164 176.078 317.809 146.875 309.115 136.604C287.755 114.321 263.859 124.665 254.581 132.622C238.147 142.099 228.404 146.394 221.506 147.888Z" stroke="white" stroke-width="40" stroke-linecap="round"/>
<path fill-rule="evenodd" clip-rule="evenodd" d="M221.506 147.888C214.603 149.359 203.956 149.444 185.08 147.55C173.353 144.105 147.317 144.486 136.99 173.575C133.281 186.51 131.272 219.442 152.91 247.693C162.176 258.678 180.73 284.849 180.824 301.655C181.198 322.397 187.58 363.803 210.114 363.483C214.88 364.238 224.988 359.661 227.292 335.308C228.198 320.062 233.963 293.973 251.735 288.626C270.134 286.204 286.104 307.624 293.191 321.154C305.292 342.412 316.388 342.436 320.424 339.79C341.101 330.828 329.918 290.454 321.742 271.387C314.926 256.025 321.097 224.543 325.035 210.722C333.164 176.078 317.809 146.876 309.115 136.605C287.755 114.322 263.859 124.665 254.581 132.623C238.147 142.1 228.404 146.394 221.506 147.888Z" fill="#D9D9D9"/>
<path fill-rule="evenodd" clip-rule="evenodd" d="M142.039 175.192C138.69 187.081 136.854 217.937 157.042 244.375C161.839 250.075 168.935 259.566 174.89 269.834C180.73 279.905 186.054 291.689 186.122 301.591C186.306 311.629 187.955 326.549 192.167 338.737C194.279 344.849 196.908 349.897 200.008 353.316C203.008 356.624 206.26 358.24 210.038 358.186L210.493 358.18L210.943 358.251C211.153 358.284 213.109 358.356 215.555 355.42C218.029 352.45 220.907 346.416 222.008 334.899C222.492 326.901 224.241 315.991 228.295 306.224C232.315 296.539 239.078 286.902 250.208 283.553L250.618 283.43L251.043 283.374C262.567 281.856 272.69 287.867 280.333 295.047C288.04 302.287 294.114 311.517 297.84 318.611C303.573 328.66 308.675 332.981 312.151 334.673C315.586 336.345 317.341 335.476 317.519 335.359L317.899 335.11L318.317 334.929C321.784 333.427 324.086 330.617 325.462 326.37C326.885 321.979 327.21 316.297 326.626 309.857C325.461 297.014 320.839 282.734 316.884 273.505C312.88 264.448 312.896 251.518 314.085 239.936C315.298 228.129 317.871 216.561 319.904 209.394C327.455 176.998 313.11 149.617 305.175 140.152C295.64 130.267 285.935 127.891 277.745 128.555C269.246 129.244 261.977 133.259 258.03 136.645L257.655 136.966L257.227 137.213C240.764 146.707 230.401 151.383 222.627 153.067L222.618 153.069L222.61 153.071C214.83 154.728 203.461 154.719 184.551 152.823L184.06 152.773L183.586 152.634C178.596 151.168 170.32 150.492 162.288 153.354C154.547 156.111 146.674 162.263 142.039 175.192ZM186.078 142.326C179.323 140.449 168.977 139.722 158.732 143.372C147.973 147.205 137.696 155.75 131.997 171.803L131.942 171.958L131.897 172.115C127.859 186.197 125.783 220.989 148.704 250.915L148.779 251.014L148.86 251.109C153.327 256.406 160.094 265.443 165.723 275.149C171.493 285.099 175.487 294.788 175.526 301.685L175.526 301.718L175.526 301.751C175.72 312.454 177.449 328.591 182.151 342.198C184.499 348.991 187.713 355.531 192.158 360.434C196.621 365.355 202.48 368.76 209.777 368.784C214.231 369.292 219.478 367.267 223.697 362.203C228.038 356.992 231.358 348.585 232.566 335.808L232.575 335.716L232.58 335.623C233.011 328.384 234.6 318.674 238.082 310.286C241.541 301.954 246.414 295.95 252.852 293.829C259.593 293.119 266.502 296.592 273.078 302.77C279.696 308.988 285.133 317.188 288.498 323.613L288.541 323.695L288.587 323.775C294.935 334.929 301.415 341.232 307.512 344.2C313.439 347.085 319.055 346.778 322.907 344.485C329.551 341.467 333.495 335.957 335.543 329.636C337.583 323.341 337.828 316.057 337.179 308.9C335.879 294.562 330.83 279.139 326.611 269.3L326.598 269.269L326.584 269.239C323.788 262.935 323.451 252.461 324.626 241.019C325.773 229.857 328.232 218.838 330.13 212.174L330.164 212.055L330.193 211.933C338.804 175.235 322.624 144.364 313.159 133.182L313.053 133.057L312.94 132.939C301.151 120.641 288.273 117.07 276.888 117.993C266.048 118.872 256.913 123.784 251.525 128.269C235.385 137.554 226.366 141.413 220.393 142.709C214.416 143.98 204.607 144.165 186.078 142.326Z" fill="#1C1B1F"/>
<path fill-rule="evenodd" clip-rule="evenodd" d="M238.33 140.249C240.254 142.454 240.027 145.801 237.823 147.725C224.801 159.092 214.39 164.791 205.674 167.699C198.432 170.115 192.469 170.527 188.013 170.835C187.143 170.895 186.33 170.951 185.577 171.017C182.662 171.274 180.091 169.119 179.834 166.204C179.577 163.29 181.732 160.719 184.647 160.462C185.611 160.377 186.568 160.309 187.531 160.24C191.93 159.926 196.456 159.604 202.321 157.647C209.411 155.282 218.625 150.417 230.854 139.742C233.059 137.818 236.406 138.045 238.33 140.249Z" fill="#1C1B1F"/>
<path d="M456.559 163.31L504.854 134.006L486.348 163.973L495.417 170.29L444.471 201.224L465.637 169.363L456.559 163.31Z" fill="white" stroke="#1C1B1F" stroke-width="10" stroke-linecap="round" stroke-linejoin="round"/>
<path d="M397.807 141.595L424.855 92.0001L423.9 127.208L434.915 128.117L406.394 180.452L408.697 142.269L397.807 141.595Z" fill="white" stroke="#1C1B1F" stroke-width="10" stroke-linecap="round" stroke-linejoin="round"/>
</svg>
