<svg width="530" height="530" viewBox="0 0 530 530" fill="none" xmlns="http://www.w3.org/2000/svg">
<path d="M203.673 130.036L201.374 137.175L201.374 137.175L203.673 130.036ZM252.435 141.001L252.41 148.501L259.935 148.527V141.001H252.435ZM131.551 151.124L125.167 147.187L125.046 147.384L124.936 147.589L131.551 151.124ZM131.551 255.3L124.772 258.509L124.847 258.668L124.93 258.824L131.551 255.3ZM153.483 335.858L146.141 334.323L146.132 334.369L146.123 334.415L153.483 335.858ZM174.993 427.381L177.696 420.385L177.095 420.153L176.464 420.026L174.993 427.381ZM206.203 394.483L213.355 396.741L213.395 396.617L213.43 396.49L206.203 394.483ZM252.527 338.815L253.134 331.34L252.53 331.291L251.925 331.34L252.527 338.815ZM298.829 394.481L291.603 396.489L291.638 396.615L291.677 396.74L298.829 394.481ZM330.04 427.379L328.569 420.025L327.938 420.151L327.337 420.383L330.04 427.379ZM351.55 335.856L358.91 334.413L358.901 334.368L358.892 334.322L351.55 335.856ZM375 256.824L368.953 252.386L368.633 252.822L368.379 253.3L375 256.824ZM392.647 195.5L400.001 194.029L399.421 191.129L397.018 189.406L392.647 195.5ZM301.36 130.034L305.731 123.939L302.659 121.736L299.061 122.895L301.36 130.034ZM252.435 141V133.5H244.935V141H252.435ZM201.374 137.175C226.167 145.159 241.451 148.464 252.41 148.501L252.46 133.501C244.023 133.473 230.67 130.85 205.972 122.897L201.374 137.175ZM137.934 155.061C147.934 138.849 159.289 133.451 169.781 132.217C180.874 130.912 191.91 134.127 201.374 137.175L205.972 122.897C196.615 119.883 182.725 115.591 168.029 117.32C152.733 119.119 137.437 127.296 125.167 147.187L137.934 155.061ZM138.33 252.092C118.688 210.59 130.245 169.477 138.165 154.659L124.936 147.589C115.423 165.387 102.574 211.608 124.772 258.509L138.33 252.092ZM160.824 337.392C163.622 324.001 159.848 306.561 154.901 291.323C149.831 275.705 142.981 260.813 138.171 251.776L124.93 258.824C129.399 267.22 135.877 281.303 140.634 295.955C145.514 310.985 148.067 325.108 146.141 334.323L160.824 337.392ZM176.464 420.026C171.447 419.023 167.591 415.962 164.54 410.693C161.382 405.241 159.311 397.733 158.239 388.927C156.099 371.348 158.192 350.827 160.843 337.3L146.123 334.415C143.291 348.865 140.955 371.069 143.349 390.739C144.544 400.558 146.981 410.305 151.559 418.211C156.245 426.301 163.354 432.702 173.522 434.735L176.464 420.026ZM199.051 392.225C194.248 407.436 188.641 414.697 184.496 417.945C180.412 421.145 177.884 420.457 177.696 420.385L172.29 434.377C178.287 436.694 186.304 435.585 193.748 429.752C201.131 423.967 208.037 413.584 213.355 396.741L199.051 392.225ZM251.925 331.34C235.903 332.629 223.982 343.691 215.769 355.565C207.45 367.593 201.932 381.838 198.977 392.476L213.43 396.49C216.093 386.902 221.024 374.337 228.105 364.098C235.293 353.707 243.724 347.048 253.129 346.291L251.925 331.34ZM251.92 346.291C261.321 347.054 269.749 353.715 276.933 364.105C284.012 374.342 288.94 386.903 291.603 396.489L306.056 392.474C303.102 381.839 297.586 367.599 289.271 355.574C281.062 343.702 269.147 332.64 253.134 331.34L251.92 346.291ZM291.677 396.74C296.996 413.582 303.901 423.965 311.285 429.75C318.729 435.583 326.745 436.692 332.743 434.375L327.337 420.383C327.149 420.456 324.621 421.143 320.537 417.943C316.392 414.696 310.785 407.434 305.981 392.223L291.677 396.74ZM331.511 434.733C341.678 432.7 348.788 426.299 353.473 418.209C358.052 410.304 360.489 400.556 361.684 390.738C364.078 371.067 361.742 348.864 358.91 334.413L344.19 337.298C346.841 350.825 348.934 371.346 346.794 388.925C345.722 397.731 343.651 405.239 340.493 410.692C337.442 415.96 333.585 419.021 328.569 420.025L331.511 434.733ZM358.892 334.322C356.994 325.243 359.821 311.6 365.083 296.932C370.2 282.67 377.054 268.927 381.62 260.348L368.379 253.3C363.667 262.154 356.434 276.623 350.965 291.867C345.641 306.706 341.382 323.862 344.209 337.39L358.892 334.322ZM381.046 261.261C385.622 255.026 391.419 244.304 395.554 232.397C399.646 220.614 402.505 206.549 400.001 194.029L385.292 196.971C387.024 205.628 385.136 216.671 381.384 227.477C377.674 238.161 372.531 247.512 368.953 252.386L381.046 261.261ZM397.018 189.406L305.731 123.939L296.989 136.129L388.276 201.595L397.018 189.406ZM299.061 122.895C274.221 130.894 260.859 133.5 252.435 133.5V148.5C263.412 148.5 278.73 145.201 303.659 137.173L299.061 122.895ZM244.935 141V141.001H259.935V141H244.935Z" fill="#1C1B1F"/>
<path d="M293.382 168.588L302.206 130.646L393.088 197.705C389.205 239.352 351.176 240.058 332.647 235.205C309.706 228.499 313.382 205.352 318.088 194.617C291.265 197.087 290.441 178.293 293.382 168.588Z" fill="#666666" stroke="#1C1B1F" stroke-width="15" stroke-linecap="round" stroke-linejoin="round"/>
<path d="M189.706 155.794C203.824 157.118 236.382 156.412 253.676 143" stroke="#1C1B1F" stroke-width="15" stroke-linecap="round" stroke-linejoin="round"/>
<path d="M298.295 231.456C298.295 252.191 320.795 269.397 342.854 261.456" stroke="#1C1B1F" stroke-width="15" stroke-linecap="round" stroke-linejoin="round"/>
<path d="M410.854 104.083L394.43 124.238" stroke="#1C1B1F" stroke-width="15" stroke-linecap="round" stroke-linejoin="round"/>
<path d="M431.009 146.039L406.252 148.564" stroke="#1C1B1F" stroke-width="15" stroke-linecap="round" stroke-linejoin="round"/>
<path d="M365.116 92.3433L367.641 117.101" stroke="#1C1B1F" stroke-width="15" stroke-linecap="round" stroke-linejoin="round"/>
</svg>
