<svg width="530" height="530" viewBox="0 0 530 530" fill="none" xmlns="http://www.w3.org/2000/svg">
<g clip-path="url(#clip0_218_10969)">
<path fill-rule="evenodd" clip-rule="evenodd" d="M266.282 160.705C233.099 161.251 215.404 199.803 210.685 219.148C207.834 254.074 240.248 261.928 247.75 256.925C251.945 254.129 260.484 250.418 266.639 249.156C272.794 250.418 281.333 254.129 285.527 256.925C293.029 261.928 325.444 254.074 322.592 219.148C317.874 199.803 300.179 161.251 266.996 160.705V160.699C266.877 160.699 266.758 160.7 266.639 160.701C266.52 160.7 266.401 160.699 266.282 160.699V160.705Z" fill="#1C1B1F"/>
<path d="M182.176 285.054L164.861 560H371.595L351.131 269.313C375.478 228.596 374.218 176.79 370.545 155.977C363.829 117.358 342.911 117.498 333.291 122.396C332.452 92.1725 321.746 87.2402 305.482 82.5179C281.868 79.3696 269.625 94.2362 265.078 104.031C265.078 93.0119 255.108 83.9732 247.762 82.5179C203.267 73.7029 195.294 105.43 194.769 122.396C185.954 117.778 172.05 122.815 165.384 128.692C125.506 163.847 159.614 259.868 182.176 285.054Z" stroke="#1C1B1F" stroke-width="15" stroke-linejoin="round"/>
<ellipse cx="184.273" cy="160.699" rx="14.6918" ry="16.7906" fill="#1C1B1F"/>
<ellipse cx="337.487" cy="160.699" rx="14.6918" ry="16.7906" fill="#1C1B1F"/>
<ellipse cx="231.496" cy="119.772" rx="14.6918" ry="16.7906" fill="#1C1B1F"/>
<ellipse cx="297.609" cy="119.772" rx="14.6918" ry="16.7906" fill="#1C1B1F"/>
<path d="M490.099 476.889L430.574 417.364" stroke="#1C1B1F" stroke-width="15" stroke-linecap="round"/>
<circle cx="372.538" cy="326.588" r="107.084" fill="white" stroke="#1C1B1F" stroke-width="15"/>
<path fill-rule="evenodd" clip-rule="evenodd" d="M345.408 377.507C353.655 379.16 359.665 385.605 362.702 390.375C362.855 390.615 362.991 390.866 363.109 391.125C367.596 400.936 376.656 402.057 380.3 401.507C383.679 400.996 386.833 403.322 387.343 406.701C387.853 410.081 385.528 413.234 382.148 413.744C375.022 414.82 359.629 412.709 352.055 396.704C349.852 393.386 346.389 390.326 342.976 389.642C340.429 389.132 335.668 389.534 329.509 398.83C327.621 401.679 323.781 402.458 320.932 400.571C318.083 398.683 317.304 394.843 319.192 391.994C326.995 380.217 336.187 375.659 345.408 377.507Z" fill="#1C1B1F"/>
<path fill-rule="evenodd" clip-rule="evenodd" d="M426.252 305.09C421.17 300.62 419.662 293.838 419.475 289.52C419.463 289.235 419.47 288.95 419.497 288.667C420.144 281.855 415.558 278.432 413.524 277.634C410.342 276.387 408.774 272.796 410.022 269.614C411.27 266.432 414.86 264.864 418.042 266.112C423.352 268.194 432.921 275.636 431.86 289.343C432.047 291.966 433.027 294.567 434.426 295.797C435.142 296.427 437.473 298.092 444.357 294.664C447.416 293.141 451.131 294.386 452.654 297.445C454.178 300.504 452.933 304.219 449.873 305.743C440.325 310.497 432.08 310.216 426.252 305.09Z" fill="#1C1B1F"/>
<path fill-rule="evenodd" clip-rule="evenodd" d="M345.226 239.669C351.673 239.669 356.9 243.77 356.9 248.828L356.9 261.041C356.9 266.1 351.673 270.201 345.226 270.201C338.779 270.201 333.552 266.1 333.552 261.041L333.552 248.828C333.552 243.77 338.779 239.669 345.226 239.669Z" fill="#1C1B1F"/>
<path fill-rule="evenodd" clip-rule="evenodd" d="M345.226 333.06C351.673 333.06 356.9 337.643 356.9 343.297L356.9 356.946C356.9 362.6 351.673 367.183 345.226 367.183C338.779 367.183 333.552 362.6 333.552 356.946L333.552 343.297C333.552 337.643 338.779 333.06 345.226 333.06Z" fill="#1C1B1F"/>
<path fill-rule="evenodd" clip-rule="evenodd" d="M389.949 257.504C393.876 261.431 393.876 267.798 389.949 271.726L380.468 281.207C376.541 285.134 370.173 285.134 366.246 281.207C362.319 277.279 362.319 270.912 366.246 266.985L375.727 257.504C379.654 253.577 386.021 253.577 389.949 257.504Z" fill="#1C1B1F"/>
<path fill-rule="evenodd" clip-rule="evenodd" d="M322.634 324.815C326.561 328.742 326.561 335.109 322.634 339.036L313.153 348.517C309.226 352.444 302.858 352.444 298.931 348.517C295.004 344.59 295.004 338.223 298.931 334.296L308.412 324.815C312.339 320.888 318.707 320.888 322.634 324.815Z" fill="#1C1B1F"/>
<path fill-rule="evenodd" clip-rule="evenodd" d="M299.302 257.503C303.229 253.575 309.596 253.575 313.523 257.503L323.004 266.984C326.931 270.911 326.931 277.278 323.004 281.205C319.077 285.132 312.71 285.132 308.783 281.205L299.302 271.724C295.375 267.797 295.375 261.43 299.302 257.503Z" fill="#1C1B1F"/>
<path fill-rule="evenodd" clip-rule="evenodd" d="M366.615 324.814C370.542 320.887 376.909 320.887 380.836 324.814L390.317 334.295C394.244 338.222 394.244 344.589 390.317 348.516C386.39 352.444 380.023 352.444 376.096 348.516L366.615 339.035C362.688 335.108 362.688 328.741 366.615 324.814Z" fill="#1C1B1F"/>
<path fill-rule="evenodd" clip-rule="evenodd" d="M281.469 301.633C281.469 296.177 285.57 291.755 290.628 291.755L302.841 291.755C307.899 291.755 312 296.177 312 301.633C312 307.088 307.899 311.511 302.841 311.511L290.628 311.511C285.57 311.511 281.469 307.088 281.469 301.633Z" fill="#1C1B1F"/>
<path fill-rule="evenodd" clip-rule="evenodd" d="M374.86 301.633C374.86 296.177 379.443 291.755 385.097 291.755L398.746 291.755C404.4 291.755 408.983 296.177 408.983 301.633C408.983 307.088 404.4 311.511 398.746 311.511L385.097 311.511C379.443 311.511 374.86 307.088 374.86 301.633Z" fill="#1C1B1F"/>
<path d="M385.635 302.531C385.635 325.344 367.141 343.838 344.328 343.838C321.514 343.838 303.021 325.344 303.021 302.531C303.021 279.718 321.514 261.224 344.328 261.224C367.141 261.224 385.635 279.718 385.635 302.531Z" fill="#1C1B1F"/>
<path d="M366.479 289.531C366.479 296.302 360.99 301.792 354.218 301.792C347.446 301.792 341.957 296.302 341.957 289.531C341.957 282.759 347.446 277.27 354.218 277.27C360.99 277.27 366.479 282.759 366.479 289.531Z" fill="#F9F9F9"/>
<path d="M340.322 315.688C340.322 320.654 336.296 324.679 331.33 324.679C326.364 324.679 322.339 320.654 322.339 315.688C322.339 310.722 326.364 306.696 331.33 306.696C336.296 306.696 340.322 310.722 340.322 315.688Z" fill="#F9F9F9"/>
<path d="M456.9 329.908C456.9 335.376 452.745 339.809 447.618 339.809C442.492 339.809 438.336 335.376 438.336 329.908C438.336 324.44 442.492 320.007 447.618 320.007C452.745 320.007 456.9 324.44 456.9 329.908Z" fill="#1C1B1F"/>
<path d="M401.207 242.656C401.207 246.415 398.16 249.463 394.4 249.463C390.641 249.463 387.593 246.415 387.593 242.656C387.593 238.896 390.641 235.849 394.4 235.849C398.16 235.849 401.207 238.896 401.207 242.656Z" fill="#1C1B1F"/>
<path fill-rule="evenodd" clip-rule="evenodd" d="M420.487 335.113C423.774 335.113 426.439 337.204 426.439 339.783L426.439 346.01C426.439 348.589 423.774 350.68 420.487 350.68C417.199 350.68 414.535 348.589 414.535 346.01L414.535 339.783C414.535 337.204 417.199 335.113 420.487 335.113Z" fill="#1C1B1F"/>
<path fill-rule="evenodd" clip-rule="evenodd" d="M420.487 382.729C423.774 382.729 426.439 385.066 426.439 387.949L426.439 394.908C426.439 397.791 423.774 400.127 420.487 400.127C417.199 400.127 414.535 397.791 414.535 394.908L414.535 387.949C414.535 385.066 417.199 382.729 420.487 382.729Z" fill="#1C1B1F"/>
<path fill-rule="evenodd" clip-rule="evenodd" d="M443.289 344.205C445.291 346.208 445.291 349.454 443.289 351.456L438.455 356.29C436.453 358.292 433.207 358.292 431.204 356.29C429.202 354.288 429.202 351.042 431.204 349.039L436.038 344.205C438.04 342.203 441.287 342.203 443.289 344.205Z" fill="#1C1B1F"/>
<path fill-rule="evenodd" clip-rule="evenodd" d="M408.969 378.527C410.971 380.529 410.971 383.775 408.969 385.778L404.135 390.611C402.133 392.614 398.886 392.614 396.884 390.611C394.882 388.609 394.882 385.363 396.884 383.361L401.718 378.527C403.72 376.525 406.966 376.525 408.969 378.527Z" fill="#1C1B1F"/>
<path fill-rule="evenodd" clip-rule="evenodd" d="M397.073 344.206C399.075 342.203 402.321 342.203 404.323 344.206L409.157 349.04C411.16 351.042 411.16 354.288 409.157 356.29C407.155 358.293 403.909 358.293 401.907 356.29L397.073 351.456C395.07 349.454 395.07 346.208 397.073 344.206Z" fill="#1C1B1F"/>
<path fill-rule="evenodd" clip-rule="evenodd" d="M431.392 378.526C433.394 376.524 436.641 376.524 438.643 378.526L443.477 383.36C445.479 385.362 445.479 388.608 443.477 390.611C441.474 392.613 438.228 392.613 436.226 390.611L431.392 385.777C429.39 383.775 429.39 380.528 431.392 378.526Z" fill="#1C1B1F"/>
<path fill-rule="evenodd" clip-rule="evenodd" d="M387.98 366.705C387.98 363.924 390.071 361.669 392.65 361.669H398.877C401.456 361.669 403.547 363.924 403.547 366.705C403.547 369.486 401.456 371.741 398.877 371.741H392.65C390.071 371.741 387.98 369.486 387.98 366.705Z" fill="#1C1B1F"/>
<path fill-rule="evenodd" clip-rule="evenodd" d="M435.596 366.705C435.596 363.924 437.932 361.669 440.815 361.669L447.774 361.669C450.657 361.669 452.994 363.924 452.994 366.705C452.994 369.486 450.657 371.741 447.774 371.741L440.815 371.741C437.932 371.741 435.596 369.486 435.596 366.705Z" fill="#1C1B1F"/>
<path d="M441.09 367.163C441.09 378.795 431.66 388.224 420.029 388.224C408.397 388.224 398.968 378.795 398.968 367.163C398.968 355.532 408.397 346.103 420.029 346.103C431.66 346.103 441.09 355.532 441.09 367.163Z" fill="#1C1B1F"/>
<path d="M432.245 361.011C432.245 364.618 429.32 367.543 425.713 367.543C422.105 367.543 419.181 364.618 419.181 361.011C419.181 357.403 422.105 354.479 425.713 354.479C429.32 354.479 432.245 357.403 432.245 361.011Z" fill="#F9F9F9"/>
<path d="M418.31 374.946C418.31 377.592 416.165 379.737 413.52 379.737C410.874 379.737 408.729 377.592 408.729 374.946C408.729 372.301 410.874 370.156 413.52 370.156C416.165 370.156 418.31 372.301 418.31 374.946Z" fill="#F9F9F9"/>
</g>
<defs>
<clipPath id="clip0_218_10969">
<rect width="530" height="530" fill="white"/>
</clipPath>
</defs>
</svg>
