<svg width="530" height="530" viewBox="0 0 530 530" fill="none" xmlns="http://www.w3.org/2000/svg">
<path d="M329.685 347.402C360.126 302.157 326.052 268.138 300.638 264.732C281.311 262.142 267.855 266.71 258.745 273.972C247.201 267.168 218.638 258.7 196.742 279.255C182.496 292.629 169.93 325.171 196.742 352.43C203.164 358.959 214.281 367.176 228.581 363.601V457.029C228.581 460.343 231.267 463.029 234.581 463.029H294.638C297.952 463.029 300.638 460.343 300.638 457.029V369.601C300.638 366.288 303.36 363.626 306.566 362.79C316.38 360.228 325.967 352.205 329.685 347.402Z" fill="white"/>
<path d="M168.463 234.222C213.774 260.921 236.493 217.894 238.961 194.908C239.092 193.69 240.264 192.821 241.47 193.039C296.263 202.962 308.107 159.881 307.077 146.498C302.444 86.338 237.6 85.9006 216.798 109.578C215.994 110.494 214.575 110.596 213.713 109.734L136.235 32.2564C135.519 31.5398 134.379 31.4724 133.583 32.0995L75.7686 77.6451C74.8275 78.3864 74.7449 79.7832 75.5921 80.6303L161.132 166.17C161.878 166.916 161.905 168.122 161.23 168.933C140.652 193.636 148.494 220.434 168.463 234.222Z" fill="white"/>
<path d="M74 79.3865L161.132 166.518C161.878 167.265 161.905 168.47 161.23 169.281C140.652 193.984 148.494 220.783 168.463 234.57C213.774 261.27 236.493 218.242 238.961 195.256C239.092 194.038 240.264 193.169 241.47 193.387C296.263 203.31 308.107 160.23 307.077 146.846C302.444 86.6862 237.6 86.2487 216.798 109.927C215.994 110.842 214.575 110.944 213.713 110.082L134.979 31.3482" stroke="#1C1B1F" stroke-width="15" stroke-linecap="round"/>
<path d="M255.02 171.063C264.25 172.463 283.491 163.592 282.188 146.034" stroke="#1C1B1F" stroke-width="15" stroke-linecap="round"/>
<path d="M195.4 220.359C203.2 221.364 217.694 206.789 214.798 194.879" stroke="#1C1B1F" stroke-width="15" stroke-linecap="round"/>
<path d="M272.505 296.373C278.476 289.196 298.753 283.05 309.439 297.042" stroke="#1C1B1F" stroke-width="15" stroke-linecap="round"/>
<path d="M241.884 305.228C242.709 296.458 247.319 283.275 258.641 274.25M300.535 463.307V369.879C300.535 366.566 303.256 363.904 306.463 363.067C316.276 360.506 325.864 352.482 329.581 347.68C360.022 302.435 325.949 268.416 300.535 265.01C281.208 262.419 267.752 266.988 258.641 274.25M258.641 274.25C247.097 267.446 218.535 258.977 196.638 279.533C182.393 292.906 169.826 325.449 196.638 352.708C203.06 359.237 214.178 367.454 228.477 363.879M228.477 363.879V463.307M228.477 363.879C235.708 361.784 240.36 358.178 244.575 355.327" stroke="#1C1B1F" stroke-width="15" stroke-linecap="round"/>
<path d="M281.472 227.514C279.058 228.374 276.785 229.086 274.739 229.646C276.914 228.708 279.166 228.005 281.472 227.514C299.926 220.935 326.661 205.645 323.895 182.725C332.087 191.103 347.914 210.095 338.976 251.43C329.881 237.282 303.326 222.86 281.472 227.514Z" fill="#F9F9F9"/>
<path d="M274.739 229.646C292.428 224.805 327.023 208.643 323.895 182.725C332.087 191.103 347.914 210.095 338.976 251.43C328.922 235.79 297.529 219.815 274.739 229.646Z" stroke="#1C1B1F" stroke-width="15" stroke-linecap="round" stroke-linejoin="round"/>
<path d="M455.391 208.491L401.485 208.491" stroke="#1C1B1F" stroke-width="15" stroke-linecap="round" stroke-linejoin="round"/>
<path d="M414.356 295.834L377.872 259.35" stroke="#1C1B1F" stroke-width="15" stroke-linecap="round" stroke-linejoin="round"/>
<path d="M414.354 119.604L377.87 156.089" stroke="#1C1B1F" stroke-width="15" stroke-linecap="round" stroke-linejoin="round"/>
</svg>
