<svg width="530" height="530" viewBox="0 0 530 530" fill="none" xmlns="http://www.w3.org/2000/svg">
<path d="M408.946 126.045C419.048 125.118 439.349 135.975 436.809 154.936" stroke="#1C1B1F" stroke-width="15" stroke-linecap="round"/>
<path d="M378.616 109.321C385.988 103.217 399.659 96.6297 415.292 98.3949M415.292 98.3949C427.871 99.8153 441.72 106.644 454.579 123.483C471.489 145.626 471.53 197.944 413.379 209.318C405.51 210.32 387.55 208.382 378.616 199.447L302.223 275.84L302.223 254.355L268.568 257.997L268.568 228.863L246.859 220.476L323.252 144.084M415.292 98.3949C411.65 84.2977 396.212 55.8459 363.595 54.8157C342.374 54.1458 307.716 69.4935 307.373 111.037C307.291 120.988 309.519 135.844 323.252 144.084M323.252 144.084C330.418 148.029 336.762 148.833 342.191 149.881" stroke="#1C1B1F" stroke-width="15" stroke-linecap="round" stroke-linejoin="round"/>
<path d="M127.095 377.322C116.993 378.249 96.6915 367.392 99.2322 348.431" stroke="#1C1B1F" stroke-width="15" stroke-linecap="round"/>
<path d="M152.065 400.232C144.693 406.336 131.022 412.923 115.389 411.157M115.389 411.157C102.81 409.737 88.9606 402.909 76.1012 386.069C59.1921 363.926 59.1505 311.609 117.302 300.234C125.17 299.233 143.13 301.17 152.065 310.105L212.677 250.707L230.938 256.176L232.152 290.772L268.041 294.413L268.041 306.07L207.429 365.469M115.389 411.157C119.031 425.255 134.469 453.706 167.086 454.736C188.306 455.406 222.964 440.059 223.308 398.515C223.39 388.564 221.162 373.709 207.429 365.469M207.429 365.469C200.263 361.523 193.918 360.719 188.489 359.671" stroke="#1C1B1F" stroke-width="15" stroke-linecap="round" stroke-linejoin="round"/>
<path d="M179.959 65.6274L201.411 94.1058" stroke="#1C1B1F" stroke-width="15" stroke-linecap="round" stroke-linejoin="round"/>
<path d="M242.432 52.5479L237.676 86.3413" stroke="#1C1B1F" stroke-width="15" stroke-linecap="round" stroke-linejoin="round"/>
<path d="M149.33 122.68L183.124 127.435" stroke="#1C1B1F" stroke-width="15" stroke-linecap="round" stroke-linejoin="round"/>
<path d="M367.106 108.572L341.895 83.3607" stroke="#1C1B1F" stroke-width="15" stroke-linecap="round" stroke-linejoin="round"/>
<path d="M307.065 130.229V96.1031" stroke="#1C1B1F" stroke-width="15" stroke-linecap="round" stroke-linejoin="round"/>
<path d="M389.485 47.8076H355.359" stroke="#1C1B1F" stroke-width="15" stroke-linecap="round" stroke-linejoin="round"/>
<path fill-rule="evenodd" clip-rule="evenodd" d="M471.593 43.3835C474.263 40.9311 474.754 36.5274 472.689 33.5475C470.624 30.5677 466.785 30.1401 464.115 32.5925L456.128 39.9283L448.284 33.3749C445.51 31.0578 441.654 31.6489 439.67 34.6952C437.687 37.7415 438.327 42.0895 441.101 44.4067L446.417 48.848L441.021 53.8042C438.351 56.2566 437.861 60.6603 439.925 63.6402C441.99 66.62 445.829 67.0476 448.499 64.5952L456.486 57.2594L464.33 63.8123C467.103 66.1294 470.96 65.5383 472.944 62.492C474.927 59.4457 474.287 55.0977 471.513 52.7805L466.197 48.3397L471.593 43.3835Z" fill="#1C1B1F"/>
<path fill-rule="evenodd" clip-rule="evenodd" d="M98.5842 42.8394C99.5353 39.3409 97.6021 35.3539 94.2663 33.9341C90.9305 32.5143 87.4552 34.1994 86.5041 37.6978L83.6591 48.1625L73.5285 46.8014C69.9464 46.3202 66.9991 48.8766 66.9454 52.5115C66.8918 56.1463 69.7521 59.483 73.3341 59.9643L80.1999 60.8867L78.2777 67.9567C77.3266 71.4551 79.2598 75.4422 82.5956 76.862C85.9315 78.2818 89.4067 76.5967 90.3578 73.0983L93.2028 62.6336L103.333 63.9946C106.915 64.4758 109.862 61.9193 109.916 58.2845C109.969 54.6497 107.109 51.313 103.527 50.8317L96.6621 49.9094L98.5842 42.8394Z" fill="#1C1B1F"/>
<circle cx="259" cy="42" r="11" fill="#1C1B1F"/>
<circle cx="276.5" cy="433.5" r="17.5" fill="#1C1B1F"/>
</svg>
