<svg width="530" height="530" viewBox="0 0 530 530" fill="none" xmlns="http://www.w3.org/2000/svg">
<path d="M292.161 36.3425C248.286 43.574 275.048 86.9556 293.913 107.743L313.576 99.3283C319.026 56.1482 304.344 34.3345 292.161 36.3425Z" fill="#F9F9F9" stroke="#1C1B1F" stroke-width="15" stroke-linecap="round" stroke-linejoin="round"/>
<path d="M229.429 72.6097C200.515 112.042 257.415 116.046 283.298 121.049L293.34 103.655C273.128 68.1312 238.865 59.7407 229.429 72.6097Z" fill="#F9F9F9" stroke="#1C1B1F" stroke-width="15" stroke-linecap="round" stroke-linejoin="round"/>
<path d="M368.414 52.0195C348.109 74.326 307.929 110.703 292.486 122.8C283.907 129.52 265.718 154.458 261.6 200.443L242.296 326.561C238.435 366.884 253.021 405.234 278.759 447.101C295.203 470.409 336.155 497.977 368.414 421.792C376.85 400.487 393.809 349.725 373.561 308.544C363.695 282.377 360.177 229.099 380.425 223.608C403.875 212.884 453.264 184.571 463.216 157.117" stroke="#1C1B1F" stroke-width="15" stroke-linecap="round"/>
<path d="M333.767 363.881C332.773 379.094 338.739 411.031 370.558 417.074" stroke="#1C1B1F" stroke-width="15" stroke-linecap="round"/>
<path d="M293.425 401.62C300 419.991 320.236 455.931 348.58 452.721" stroke="#1C1B1F" stroke-width="15" stroke-linecap="round"/>
<path d="M231.472 303.239C222.262 176.496 273.994 118.543 311.214 93.85C315.041 91.3115 320.023 94.1921 320.609 98.7463C327.744 154.225 390.144 183.891 422.048 197.349C426.695 199.309 426.961 205.784 422.618 208.346C360.354 245.09 367.115 273.309 378.328 298.052C380.442 302.716 376.218 307.876 371.176 306.982C328.82 299.467 264.946 305.008 238.43 308.817C234.946 309.317 231.727 306.75 231.472 303.239Z" fill="#F9F9F9" stroke="#1C1B1F" stroke-width="15" stroke-linecap="round" stroke-linejoin="round"/>
<path d="M262.029 152.828C279.474 176.707 336.842 220.348 426.754 203.875" stroke="#1C1B1F" stroke-width="15" stroke-linecap="round" stroke-linejoin="round"/>
<path d="M400.587 214.6C383.142 238.479 325.774 282.12 235.862 265.647" stroke="#1C1B1F" stroke-width="15" stroke-linecap="round" stroke-linejoin="round"/>
<path d="M313.075 95.7744C309.501 122.371 309.987 180.711 340.53 201.301" stroke="#1C1B1F" stroke-width="15" stroke-linecap="round" stroke-linejoin="round"/>
<path d="M344.317 483.947L333.623 461L320.048 472.675L344.317 483.947Z" fill="white" stroke="#1C1B1F" stroke-width="10" stroke-linecap="round" stroke-linejoin="round"/>
<path d="M379.599 450.147L363.036 431L353.171 445.943L379.599 450.147Z" fill="white" stroke="#1C1B1F" stroke-width="10" stroke-linecap="round" stroke-linejoin="round"/>
<path d="M392.599 416.147L376.036 397L366.171 411.943L392.599 416.147Z" fill="white" stroke="#1C1B1F" stroke-width="10" stroke-linecap="round" stroke-linejoin="round"/>
<path d="M188.249 162.372L130.068 95.9998L143.552 149.351L127.068 154.5L188.431 224.547L171.876 167.121L188.249 162.372Z" fill="white" stroke="#1C1B1F" stroke-width="15" stroke-linecap="round" stroke-linejoin="round"/>
<path d="M144.859 245.501L65.9996 259.741L113.825 274.197L110.123 289.432L193.33 274.434L140.898 260.464L144.859 245.501Z" fill="white" stroke="#1C1B1F" stroke-width="15" stroke-linecap="round" stroke-linejoin="round"/>
</svg>
