<svg width="530" height="530" viewBox="0 0 530 530" fill="none" xmlns="http://www.w3.org/2000/svg">
<g clip-path="url(#clip0_255_29)">
<circle cx="263.718" cy="249.418" r="125.583" fill="#1C1B1F"/>
<circle cx="263.718" cy="249.419" r="83.2817" fill="#666666"/>
<circle opacity="0.8" cx="209.519" cy="245.452" r="29.0822" fill="#D9D9D9"/>
<path d="M251.453 190.178C253.564 193.742 252.386 198.343 248.822 200.453L145.822 261.453L139 265.5C138.2 259.9 138.119 251.365 138.178 248.547L241.178 187.547C244.742 185.436 249.343 186.614 251.453 190.178Z" fill="#F9F9F9"/>
<path fill-rule="evenodd" clip-rule="evenodd" d="M394.094 260.626C396.509 263.991 395.739 268.677 392.374 271.093L248.874 374.093C244.5 373.5 243.5 373.5 238.408 372.373C235.992 369.008 236.762 364.322 240.127 361.907L383.627 258.907C386.992 256.491 391.678 257.261 394.094 260.626Z" fill="#F9F9F9"/>
<path fill-rule="evenodd" clip-rule="evenodd" d="M343.096 193.283C346.566 191.021 347.545 186.374 345.283 182.904C343.021 179.434 338.374 178.455 334.904 180.717L158.309 295.846L149 300.5C150.333 303.667 153.7 311.4 156.5 315L168 307.5L167.967 307.455L343.096 193.283ZM384.175 222.23C384.244 222.185 384.306 222.138 384.363 222.091L386 221C386 217.5 383.5 210 381.5 206L376.317 209.456C376.176 209.539 376.013 209.643 375.825 209.77L184.825 337.77C183.491 338.664 184.044 339.049 184.785 339.566C185.955 340.38 187.592 341.52 183 345.5C184.336 346.645 185.407 347.609 186.29 348.404L186.291 348.405L186.291 348.405C190.034 351.774 190.392 352.096 193.175 350.23L384.175 222.23Z" fill="#F9F9F9"/>
<path d="M260.43 198.73C148.918 200.926 107.013 141.825 100 112H430.064C401.792 175.675 352.479 198.73 260.43 198.73Z" fill="white"/>
<path d="M100 112C107.013 141.825 148.918 200.926 260.43 198.73C352.479 198.73 401.792 175.675 430.064 112" stroke="#1C1B1F" stroke-width="20" stroke-linecap="round"/>
<path d="M269.635 332.06C381.147 329.864 423.051 388.965 430.064 418.79L100 418.79C128.273 355.115 177.585 332.06 269.635 332.06Z" fill="white"/>
<path d="M430.064 418.79C423.051 388.965 381.147 329.864 269.635 332.06C177.585 332.06 128.273 355.115 100 418.79" stroke="#1C1B1F" stroke-width="20" stroke-linecap="round"/>
<ellipse cx="-0.374557" cy="525.941" rx="141.448" ry="77.9406" fill="#1C1B1F"/>
<circle cx="127.49" cy="164.751" r="24.75" transform="rotate(-31.838 127.49 164.751)" fill="#666666"/>
<path d="M60.0756 151.722C54.5531 151.661 50.0273 156.089 49.9669 161.612C49.9066 167.134 54.3346 171.66 59.8571 171.721L60.0756 151.722ZM117.089 152.345L60.0756 151.722L59.8571 171.721L116.871 172.343L117.089 152.345Z" fill="black"/>
<circle cx="60.3412" cy="167.244" r="33.6111" transform="rotate(-31.838 60.3412 167.244)" fill="#D9D9D9"/>
<path d="M38.5207 175.337C36.7768 168.43 37.0626 152.972 52.1575 146.388" stroke="white" stroke-width="10" stroke-linecap="round"/>
<path d="M69.7146 174.833C68.3446 169.483 62.8967 166.256 57.5465 167.626C52.1963 168.997 48.9697 174.444 50.3398 179.795L69.7146 174.833ZM83.7584 229.676L69.7146 174.833L50.3398 179.795L64.3836 234.638L83.7584 229.676Z" fill="black"/>
<circle cx="78.1614" cy="242.859" r="24.75" transform="rotate(-31.838 78.1614 242.859)" fill="#666666"/>
<path d="M66.9274 252.107C64.9011 246.198 63.7507 233.347 75.3592 229.212" stroke="#D9D9D9" stroke-width="10" stroke-linecap="round"/>
</g>
<defs>
<clipPath id="clip0_255_29">
<rect width="530" height="530" fill="white"/>
</clipPath>
</defs>
</svg>
