<svg width="530" height="530" viewBox="0 0 530 530" fill="none" xmlns="http://www.w3.org/2000/svg">
<g clip-path="url(#clip0_226_9667)">
<rect width="530" height="530" fill="white"/>
<circle cx="263.719" cy="270.418" r="125.583" fill="#1C1B1F"/>
<circle cx="263.718" cy="270.418" r="83.2817" fill="black"/>
<circle opacity="0.8" cx="209.519" cy="266.452" r="29.0822" fill="white"/>
<path d="M260.43 219.73C148.918 221.926 107.013 162.825 100 133H430.064C401.792 196.675 352.479 219.73 260.43 219.73Z" fill="white"/>
<path d="M100 133C107.013 162.825 148.918 221.926 260.43 219.73C352.479 219.73 401.792 196.675 430.064 133" stroke="#1C1B1F" stroke-width="20" stroke-linecap="round"/>
<ellipse cx="-0.374557" cy="525.941" rx="141.448" ry="77.9406" fill="#1C1B1F"/>
<path d="M469.975 487.023L417.161 434.209" stroke="#1C1B1F" stroke-width="15" stroke-linecap="round"/>
<circle cx="365.667" cy="353.667" r="94.1668" fill="white" stroke="#1C1B1F" stroke-width="15"/>
<mask id="path-9-inside-1_226_9667" fill="white">
<path fill-rule="evenodd" clip-rule="evenodd" d="M361.234 302C357.95 302 355.288 304.662 355.288 307.946C355.288 311.229 357.95 313.891 361.234 313.891H362.577V319.366C355.348 320.016 348.713 322.724 343.26 326.899C343.226 326.861 343.19 326.823 343.153 326.786L338.135 321.768L339.356 320.548C341.678 318.226 341.678 314.462 339.356 312.14C337.034 309.818 333.269 309.818 330.947 312.14L324.166 318.921C321.845 321.243 321.845 325.007 324.166 327.329C326.488 329.651 330.253 329.651 332.575 327.329L333.524 326.379L338.444 331.299C332.784 337.452 329.161 345.508 328.643 354.398H325.038V353.056C325.038 349.772 322.376 347.11 319.092 347.11C315.809 347.11 313.147 349.772 313.147 353.056L313.147 362.645C313.147 365.929 315.809 368.591 319.092 368.591C322.376 368.591 325.038 365.929 325.038 362.645V360.919H328.825C329.734 368.841 333.119 376.01 338.187 381.633L333.524 386.296L332.575 385.347C330.253 383.026 326.488 383.025 324.166 385.347C321.845 387.669 321.845 391.434 324.166 393.756L330.947 400.537C333.269 402.858 337.034 402.858 339.356 400.537C341.678 398.215 341.678 394.45 339.356 392.128L338.135 390.907L342.959 386.083C348.564 390.464 355.449 393.283 362.96 393.881L362.96 399.607H361.234C357.951 399.607 355.289 402.269 355.289 405.553C355.289 408.836 357.951 411.498 361.234 411.498H370.824C374.108 411.498 376.769 408.836 376.769 405.553C376.769 402.269 374.108 399.607 370.824 399.607H369.481V393.838C376.871 393.151 383.636 390.313 389.146 385.956L394.096 390.907L392.876 392.127C390.554 394.449 390.554 398.213 392.876 400.535C395.198 402.857 398.962 402.857 401.284 400.535L408.065 393.754C410.387 391.432 410.387 387.668 408.065 385.346C405.743 383.024 401.979 383.024 399.657 385.346L398.707 386.296L393.893 381.482C398.885 375.882 402.218 368.771 403.12 360.92H407.194V362.647C407.194 365.93 409.855 368.592 413.139 368.592C416.423 368.592 419.085 365.93 419.085 362.647V353.057C419.085 349.773 416.423 347.111 413.139 347.111C409.855 347.111 407.194 349.773 407.194 353.057V354.399H403.302C402.788 345.581 399.219 337.583 393.637 331.448L393.659 331.426L393.689 331.397L398.707 326.379L399.657 327.329C401.979 329.65 405.743 329.65 408.065 327.329C410.387 325.007 410.387 321.242 408.065 318.92L401.284 312.139C398.962 309.817 395.198 309.817 392.876 312.139C390.554 314.461 390.554 318.226 392.876 320.548L394.096 321.768L389.078 326.786C388.999 326.865 388.925 326.947 388.856 327.031C383.304 322.729 376.507 319.956 369.098 319.342V313.891H370.824C374.107 313.891 376.769 311.229 376.769 307.946C376.769 304.662 374.107 302 370.824 302H361.234Z"/>
</mask>
<path fill-rule="evenodd" clip-rule="evenodd" d="M361.234 302C357.95 302 355.288 304.662 355.288 307.946C355.288 311.229 357.95 313.891 361.234 313.891H362.577V319.366C355.348 320.016 348.713 322.724 343.26 326.899C343.226 326.861 343.19 326.823 343.153 326.786L338.135 321.768L339.356 320.548C341.678 318.226 341.678 314.462 339.356 312.14C337.034 309.818 333.269 309.818 330.947 312.14L324.166 318.921C321.845 321.243 321.845 325.007 324.166 327.329C326.488 329.651 330.253 329.651 332.575 327.329L333.524 326.379L338.444 331.299C332.784 337.452 329.161 345.508 328.643 354.398H325.038V353.056C325.038 349.772 322.376 347.11 319.092 347.11C315.809 347.11 313.147 349.772 313.147 353.056L313.147 362.645C313.147 365.929 315.809 368.591 319.092 368.591C322.376 368.591 325.038 365.929 325.038 362.645V360.919H328.825C329.734 368.841 333.119 376.01 338.187 381.633L333.524 386.296L332.575 385.347C330.253 383.026 326.488 383.025 324.166 385.347C321.845 387.669 321.845 391.434 324.166 393.756L330.947 400.537C333.269 402.858 337.034 402.858 339.356 400.537C341.678 398.215 341.678 394.45 339.356 392.128L338.135 390.907L342.959 386.083C348.564 390.464 355.449 393.283 362.96 393.881L362.96 399.607H361.234C357.951 399.607 355.289 402.269 355.289 405.553C355.289 408.836 357.951 411.498 361.234 411.498H370.824C374.108 411.498 376.769 408.836 376.769 405.553C376.769 402.269 374.108 399.607 370.824 399.607H369.481V393.838C376.871 393.151 383.636 390.313 389.146 385.956L394.096 390.907L392.876 392.127C390.554 394.449 390.554 398.213 392.876 400.535C395.198 402.857 398.962 402.857 401.284 400.535L408.065 393.754C410.387 391.432 410.387 387.668 408.065 385.346C405.743 383.024 401.979 383.024 399.657 385.346L398.707 386.296L393.893 381.482C398.885 375.882 402.218 368.771 403.12 360.92H407.194V362.647C407.194 365.93 409.855 368.592 413.139 368.592C416.423 368.592 419.085 365.93 419.085 362.647V353.057C419.085 349.773 416.423 347.111 413.139 347.111C409.855 347.111 407.194 349.773 407.194 353.057V354.399H403.302C402.788 345.581 399.219 337.583 393.637 331.448L393.659 331.426L393.689 331.397L398.707 326.379L399.657 327.329C401.979 329.65 405.743 329.65 408.065 327.329C410.387 325.007 410.387 321.242 408.065 318.92L401.284 312.139C398.962 309.817 395.198 309.817 392.876 312.139C390.554 314.461 390.554 318.226 392.876 320.548L394.096 321.768L389.078 326.786C388.999 326.865 388.925 326.947 388.856 327.031C383.304 322.729 376.507 319.956 369.098 319.342V313.891H370.824C374.107 313.891 376.769 311.229 376.769 307.946C376.769 304.662 374.107 302 370.824 302H361.234Z" fill="#1C1B1F"/>
<path d="M362.577 313.891H377.577V298.891H362.577V313.891ZM362.577 319.366L363.922 334.305L377.577 333.076V319.366H362.577ZM343.26 326.899L332.168 336.996L341.442 347.183L352.379 338.809L343.26 326.899ZM343.153 326.786L332.546 337.393L332.546 337.393L343.153 326.786ZM338.135 321.768L327.529 311.162L316.922 321.768L327.529 332.375L338.135 321.768ZM339.356 320.548L349.962 331.155L349.962 331.155L339.356 320.548ZM330.947 312.14L341.554 322.746L341.554 322.746L330.947 312.14ZM324.166 318.921L313.56 308.314L313.56 308.314L324.166 318.921ZM333.524 326.379L344.131 315.773L333.524 305.166L322.918 315.773L333.524 326.379ZM338.444 331.299L349.484 341.454L359.224 330.866L349.051 320.693L338.444 331.299ZM328.643 354.398V369.398H342.794L343.618 355.27L328.643 354.398ZM325.038 354.398H310.038V369.398H325.038V354.398ZM313.147 353.056L328.147 353.056L313.147 353.056ZM313.147 362.645L298.147 362.645L313.147 362.645ZM325.038 360.919V345.919H310.038V360.919H325.038ZM328.825 360.919L343.727 359.208L342.201 345.919H328.825V360.919ZM338.187 381.633L348.794 392.24L358.864 382.17L349.33 371.591L338.187 381.633ZM333.524 386.296L322.917 396.903L333.524 407.51L344.13 396.903L333.524 386.296ZM324.166 393.756L313.56 404.362L313.56 404.362L324.166 393.756ZM330.947 400.537L341.554 389.93L341.554 389.93L330.947 400.537ZM338.135 390.907L327.528 380.301L316.922 390.907L327.528 401.514L338.135 390.907ZM342.959 386.083L352.199 374.266L341.74 366.089L332.353 375.476L342.959 386.083ZM362.96 393.881L377.96 393.881L377.96 380.029L364.152 378.929L362.96 393.881ZM362.96 399.607V414.607H377.96L377.96 399.607L362.96 399.607ZM355.289 405.553L340.289 405.553V405.553H355.289ZM376.769 405.553L361.769 405.553V405.553H376.769ZM369.481 399.607H354.481V414.607H369.481V399.607ZM369.481 393.838L368.091 378.903L354.481 380.169V393.838H369.481ZM389.146 385.956L399.752 375.35L390.314 365.911L379.843 374.19L389.146 385.956ZM394.096 390.907L404.703 401.513L415.309 390.907L404.703 380.3L394.096 390.907ZM399.657 385.346L410.263 395.953L410.263 395.953L399.657 385.346ZM398.707 386.296L388.1 396.902L398.707 407.509L409.314 396.902L398.707 386.296ZM393.893 381.482L382.697 371.5L373.271 382.072L383.286 392.088L393.893 381.482ZM403.12 360.92V345.92H389.744L388.218 359.209L403.12 360.92ZM407.194 360.92H422.194V345.92H407.194V360.92ZM407.194 354.399V369.399H422.194V354.399H407.194ZM403.302 354.399L388.327 355.271L389.15 369.399H403.302V354.399ZM393.637 331.448L383.218 320.657L372.741 330.773L382.542 341.544L393.637 331.448ZM393.659 331.426L404.079 342.217L404.139 342.159L404.199 342.099L393.659 331.426ZM393.689 331.397L404.229 342.07L404.263 342.037L404.296 342.003L393.689 331.397ZM398.707 326.379L409.314 315.772L398.707 305.166L388.101 315.772L398.707 326.379ZM399.657 327.329L410.263 316.722L410.263 316.722L399.657 327.329ZM408.065 318.92L418.672 308.314L418.672 308.314L408.065 318.92ZM401.284 312.139L390.677 322.746L390.677 322.746L401.284 312.139ZM394.096 321.768L404.703 332.375L415.309 321.768L404.703 311.161L394.096 321.768ZM389.078 326.786L378.472 316.179L378.472 316.179L389.078 326.786ZM388.856 327.031L379.669 338.888L391.224 347.842L400.472 336.522L388.856 327.031ZM369.098 319.342H354.098V333.152L367.861 334.291L369.098 319.342ZM369.098 313.891V298.891H354.098V313.891H369.098ZM370.288 307.946C370.288 312.946 366.235 317 361.234 317V287C349.666 287 340.288 296.378 340.288 307.946H370.288ZM361.234 298.891C366.235 298.891 370.288 302.945 370.288 307.946H340.288C340.288 319.514 349.666 328.891 361.234 328.891V298.891ZM362.577 298.891H361.234V328.891H362.577V298.891ZM377.577 319.366V313.891H347.577V319.366H377.577ZM352.379 338.809C355.65 336.305 359.606 334.694 363.922 334.305L361.232 304.426C351.091 305.339 341.776 309.143 334.142 314.989L352.379 338.809ZM332.546 337.393C332.417 337.263 332.291 337.131 332.168 336.996L354.353 316.801C354.16 316.59 353.963 316.383 353.76 316.18L332.546 337.393ZM327.529 332.375L332.546 337.393L353.76 316.18L348.742 311.162L327.529 332.375ZM328.749 309.941L327.529 311.162L348.742 332.375L349.962 331.155L328.749 309.941ZM328.749 322.746C325.213 319.21 325.213 313.477 328.749 309.941L349.962 331.155C358.142 322.975 358.142 309.713 349.962 301.533L328.749 322.746ZM341.554 322.746C338.018 326.282 332.285 326.282 328.749 322.746L349.962 301.533C341.783 293.353 328.521 293.353 320.341 301.533L341.554 322.746ZM334.773 329.527L341.554 322.746L320.341 301.533L313.56 308.314L334.773 329.527ZM334.773 316.722C338.309 320.258 338.309 325.991 334.773 329.527L313.56 308.314C305.38 316.494 305.38 329.756 313.56 337.936L334.773 316.722ZM321.968 316.722C325.504 313.186 331.237 313.186 334.773 316.722L313.56 337.936C321.74 346.115 335.002 346.115 343.181 337.936L321.968 316.722ZM322.918 315.773L321.968 316.722L343.181 337.936L344.131 336.986L322.918 315.773ZM349.051 320.693L344.131 315.773L322.918 336.986L327.837 341.906L349.051 320.693ZM343.618 355.27C343.927 349.961 346.081 345.153 349.484 341.454L327.404 321.144C319.487 329.752 314.395 341.056 313.668 353.525L343.618 355.27ZM325.038 369.398H328.643V339.398H325.038V369.398ZM310.038 353.056V354.398H340.038V353.056H310.038ZM319.092 362.11C314.092 362.11 310.038 358.056 310.038 353.056H340.038C340.038 341.488 330.66 332.11 319.092 332.11V362.11ZM328.147 353.056C328.147 358.056 324.093 362.11 319.092 362.11V332.11C307.524 332.11 298.147 341.488 298.147 353.056L328.147 353.056ZM328.147 362.645L328.147 353.056L298.147 353.056L298.147 362.645L328.147 362.645ZM319.092 353.591C324.093 353.591 328.147 357.645 328.147 362.645L298.147 362.645C298.147 374.213 307.524 383.591 319.092 383.591V353.591ZM310.038 362.645C310.038 357.645 314.092 353.591 319.092 353.591V383.591C330.66 383.591 340.038 374.213 340.038 362.645H310.038ZM310.038 360.919V362.645H340.038V360.919H310.038ZM328.825 345.919H325.038V375.919H328.825V345.919ZM349.33 371.591C346.282 368.209 344.269 363.928 343.727 359.208L313.922 362.63C315.2 373.754 319.957 383.811 327.045 391.675L349.33 371.591ZM344.13 396.903L348.794 392.24L327.581 371.026L322.917 375.69L344.13 396.903ZM321.968 395.954L322.917 396.903L344.13 375.69L343.181 374.741L321.968 395.954ZM334.773 395.954C331.237 399.49 325.504 399.49 321.968 395.954L343.181 374.741C335.002 366.561 321.74 366.561 313.56 374.741L334.773 395.954ZM334.773 383.149C338.309 386.685 338.309 392.418 334.773 395.954L313.56 374.741C305.38 382.921 305.38 396.183 313.56 404.362L334.773 383.149ZM341.554 389.93L334.773 383.149L313.56 404.362L320.341 411.143L341.554 389.93ZM328.749 389.93C332.285 386.394 338.018 386.394 341.554 389.93L320.341 411.143C328.521 419.323 341.783 419.323 349.962 411.143L328.749 389.93ZM328.749 402.735C325.213 399.199 325.213 393.466 328.749 389.93L349.962 411.143C358.142 402.963 358.142 389.701 349.962 381.522L328.749 402.735ZM327.528 401.514L328.749 402.735L349.962 381.522L348.741 380.301L327.528 401.514ZM332.353 375.476L327.528 380.301L348.741 401.514L353.566 396.689L332.353 375.476ZM364.152 378.929C359.666 378.571 355.561 376.894 352.199 374.266L333.72 397.9C341.567 404.034 351.232 407.994 361.768 408.834L364.152 378.929ZM377.96 399.607L377.96 393.881L347.96 393.881L347.96 399.607L377.96 399.607ZM361.234 414.607H362.96V384.607H361.234V414.607ZM370.289 405.553C370.289 410.553 366.235 414.607 361.234 414.607V384.607C349.666 384.607 340.289 393.985 340.289 405.553L370.289 405.553ZM361.234 396.498C366.235 396.498 370.289 400.552 370.289 405.553H340.289C340.289 417.121 349.666 426.498 361.234 426.498V396.498ZM370.824 396.498H361.234V426.498H370.824V396.498ZM361.769 405.553C361.769 400.552 365.823 396.498 370.824 396.498V426.498C382.392 426.498 391.769 417.121 391.769 405.553H361.769ZM370.824 414.607C365.823 414.607 361.769 410.553 361.769 405.553L391.769 405.553C391.77 393.985 382.392 384.607 370.824 384.607V414.607ZM369.481 414.607H370.824V384.607H369.481V414.607ZM354.481 393.838V399.607H384.481V393.838H354.481ZM379.843 374.19C376.536 376.804 372.501 378.492 368.091 378.903L370.871 408.774C381.24 407.809 390.736 403.821 398.449 397.723L379.843 374.19ZM404.703 380.3L399.752 375.35L378.539 396.563L383.489 401.513L404.703 380.3ZM403.482 402.733L404.703 401.513L383.489 380.3L382.269 381.52L403.482 402.733ZM403.482 389.929C407.018 393.465 407.018 399.198 403.482 402.733L382.269 381.52C374.089 389.7 374.089 402.962 382.269 411.142L403.482 389.929ZM390.677 389.929C394.213 386.393 399.946 386.393 403.482 389.929L382.269 411.142C390.449 419.322 403.711 419.322 411.891 411.142L390.677 389.929ZM397.458 383.148L390.677 389.929L411.891 411.142L418.672 404.361L397.458 383.148ZM397.458 395.953C393.922 392.417 393.922 386.684 397.458 383.148L418.672 404.361C426.851 396.181 426.851 382.919 418.672 374.739L397.458 395.953ZM410.263 395.953C406.727 399.489 400.994 399.489 397.458 395.953L418.672 374.739C410.492 366.56 397.23 366.56 389.05 374.739L410.263 395.953ZM409.314 396.902L410.263 395.953L389.05 374.739L388.1 375.689L409.314 396.902ZM383.286 392.088L388.1 396.902L409.314 375.689L404.5 370.875L383.286 392.088ZM388.218 359.209C387.681 363.886 385.698 368.133 382.697 371.5L405.09 391.464C412.072 383.631 416.756 373.655 418.022 362.631L388.218 359.209ZM407.194 345.92H403.12V375.92H407.194V345.92ZM422.194 362.647V360.92H392.194V362.647H422.194ZM413.139 353.592C418.14 353.592 422.194 357.646 422.194 362.647H392.194C392.194 374.215 401.571 383.592 413.139 383.592V353.592ZM404.085 362.647C404.085 357.646 408.138 353.592 413.139 353.592V383.592C424.707 383.592 434.085 374.215 434.085 362.647H404.085ZM404.085 353.057V362.647H434.085V353.057H404.085ZM413.139 362.111C408.139 362.111 404.085 358.058 404.085 353.057H434.085C434.085 341.489 424.707 332.111 413.139 332.111V362.111ZM422.194 353.057C422.194 358.058 418.14 362.111 413.139 362.111V332.111C401.571 332.111 392.194 341.489 392.194 353.057H422.194ZM422.194 354.399V353.057H392.194V354.399H422.194ZM403.302 369.399H407.194V339.399H403.302V369.399ZM382.542 341.544C385.898 345.231 388.02 350.004 388.327 355.271L418.276 353.527C417.556 341.157 412.54 329.934 404.731 321.353L382.542 341.544ZM383.24 320.636L383.218 320.657L404.056 342.239L404.079 342.217L383.24 320.636ZM383.15 320.724L383.12 320.753L404.199 342.099L404.229 342.07L383.15 320.724ZM388.101 315.772L383.083 320.79L404.296 342.003L409.314 336.986L388.101 315.772ZM410.263 316.722L409.314 315.772L388.101 336.986L389.05 337.935L410.263 316.722ZM397.458 316.722C400.994 313.186 406.727 313.186 410.263 316.722L389.05 337.935C397.23 346.115 410.492 346.115 418.672 337.935L397.458 316.722ZM397.458 329.527C393.922 325.991 393.922 320.258 397.458 316.722L418.672 337.935C426.851 329.755 426.851 316.493 418.672 308.314L397.458 329.527ZM390.677 322.746L397.458 329.527L418.672 308.314L411.891 301.533L390.677 322.746ZM403.482 322.746C399.946 326.282 394.213 326.282 390.677 322.746L411.891 301.533C403.711 293.353 390.449 293.353 382.269 301.533L403.482 322.746ZM403.482 309.941C407.018 313.477 407.018 319.21 403.482 322.746L382.269 301.533C374.089 309.712 374.089 322.974 382.269 331.154L403.482 309.941ZM404.703 311.161L403.482 309.941L382.269 331.154L383.49 332.375L404.703 311.161ZM399.685 337.392L404.703 332.375L383.49 311.161L378.472 316.179L399.685 337.392ZM400.472 336.522C400.224 336.825 399.962 337.116 399.685 337.392L378.472 316.179C378.037 316.614 377.626 317.068 377.24 317.541L400.472 336.522ZM367.861 334.291C372.286 334.658 376.338 336.308 379.669 338.888L398.044 315.174C390.27 309.15 380.729 305.254 370.335 304.394L367.861 334.291ZM354.098 313.891V319.342H384.098V313.891H354.098ZM370.824 298.891H369.098V328.891H370.824V298.891ZM361.769 307.946C361.769 302.945 365.823 298.891 370.824 298.891V328.891C382.392 328.891 391.769 319.513 391.769 307.946H361.769ZM370.824 317C365.823 317 361.769 312.946 361.769 307.946H391.769C391.769 296.378 382.392 287 370.824 287V317ZM361.234 317H370.824V287H361.234V317Z" fill="#1C1B1F" mask="url(#path-9-inside-1_226_9667)"/>
<path d="M353.065 351.9C356.521 351.9 359.322 349.098 359.322 345.642C359.322 342.186 356.521 339.385 353.065 339.385C349.609 339.385 346.807 342.186 346.807 345.642C346.807 349.098 349.609 351.9 353.065 351.9Z" fill="#1C1B1F"/>
<path d="M359.322 345.642C359.322 342.186 356.521 339.385 353.065 339.385C349.609 339.385 346.807 342.186 346.807 345.642C346.807 347.651 348.059 351.622 353.065 351.436" stroke="#F9F9F9" stroke-width="5" stroke-linecap="round"/>
<path d="M376.8 378.222C380.971 378.222 384.352 374.841 384.352 370.67C384.352 366.499 380.971 363.118 376.8 363.118C372.629 363.118 369.248 366.499 369.248 370.67C369.248 374.841 372.629 378.222 376.8 378.222Z" fill="#1C1B1F"/>
<path d="M384.352 370.67C384.352 366.499 380.971 363.118 376.8 363.118C372.629 363.118 369.248 366.499 369.248 370.67C369.248 373.094 370.758 377.887 376.8 377.663" stroke="#F9F9F9" stroke-width="5" stroke-linecap="round"/>
<path d="M379.821 345.858C382.324 345.858 384.352 343.83 384.352 341.327C384.352 338.825 382.324 336.796 379.821 336.796C377.319 336.796 375.29 338.825 375.29 341.327C375.29 343.83 377.319 345.858 379.821 345.858Z" fill="#F9F9F9"/>
<path d="M350.475 374.339C353.693 374.339 356.301 371.731 356.301 368.513C356.301 365.296 353.693 362.688 350.475 362.688C347.258 362.688 344.649 365.296 344.649 368.513C344.649 371.731 347.258 374.339 350.475 374.339Z" fill="#F9F9F9"/>
<path d="M368.385 354.92C370.053 354.92 371.406 353.567 371.406 351.899C371.406 350.23 370.053 348.878 368.385 348.878C366.716 348.878 365.364 350.23 365.364 351.899C365.364 353.567 366.716 354.92 368.385 354.92Z" fill="#F9F9F9"/>
<path fill-rule="evenodd" clip-rule="evenodd" d="M375.539 284.759C372.658 281.248 372.395 276.594 372.739 273.714C372.762 273.524 372.798 273.336 372.846 273.151C374.013 268.711 371.348 265.947 370.087 265.198C368.115 264.027 367.467 261.479 368.638 259.507C369.809 257.535 372.357 256.887 374.328 258.058C377.619 260.012 383.148 265.978 380.96 274.94C380.799 276.697 381.166 278.525 381.959 279.492C382.365 279.987 383.728 281.342 388.658 279.818C390.849 279.141 393.174 280.369 393.851 282.56C394.529 284.751 393.301 287.076 391.11 287.753C384.272 289.866 378.842 288.786 375.539 284.759Z" fill="#1C1B1F"/>
<path fill-rule="evenodd" clip-rule="evenodd" d="M403.806 429.845C399.503 431.298 395.056 429.899 392.484 428.559C392.315 428.471 392.151 428.371 391.996 428.26C388.254 425.599 384.726 427.115 383.58 428.03C381.788 429.46 379.175 429.166 377.745 427.374C376.314 425.581 376.608 422.969 378.401 421.538C381.392 419.151 388.927 416.087 396.537 421.302C398.124 422.074 399.964 422.377 401.148 421.977C401.755 421.772 403.504 420.976 403.822 415.826C403.963 413.537 405.933 411.796 408.222 411.937C410.511 412.078 412.252 414.048 412.111 416.337C411.67 423.481 408.74 428.178 403.806 429.845Z" fill="#1C1B1F"/>
<path fill-rule="evenodd" clip-rule="evenodd" d="M300.965 388.01C306.503 390.752 309.436 396.376 310.621 400.141C310.7 400.389 310.76 400.642 310.804 400.898C311.843 407.058 316.696 408.994 318.679 409.217C321.78 409.565 324.011 412.361 323.662 415.462C323.314 418.563 320.518 420.795 317.417 420.446C312.242 419.864 302.045 415.563 299.74 403.223C298.956 400.954 297.477 398.892 295.952 398.138C295.172 397.751 292.723 396.834 287.462 401.484C285.124 403.55 281.553 403.33 279.487 400.992C277.42 398.654 277.64 395.083 279.979 393.017C287.276 386.567 294.614 384.867 300.965 388.01Z" fill="#1C1B1F"/>
<path fill-rule="evenodd" clip-rule="evenodd" d="M316.625 288.488C321.638 284.874 327.981 284.911 331.863 285.624C332.119 285.67 332.371 285.735 332.618 285.817C338.549 287.778 342.529 284.393 343.653 282.745C345.411 280.167 348.926 279.502 351.504 281.26C354.082 283.017 354.747 286.532 352.989 289.111C350.056 293.413 341.485 300.416 329.5 296.683C327.128 296.316 324.614 296.659 323.234 297.654C322.527 298.163 320.571 299.899 322.222 306.724C322.955 309.757 321.091 312.81 318.058 313.543C315.025 314.277 311.972 312.413 311.238 309.38C308.949 299.914 310.877 292.632 316.625 288.488Z" fill="#1C1B1F"/>
<path d="M453 376.5C453 382.851 447.851 388 441.5 388C435.149 388 430 382.851 430 376.5C430 370.149 435.149 365 441.5 365C447.851 365 453 370.149 453 376.5Z" fill="#1C1B1F"/>
<path d="M303 337C303 341.418 299.418 345 295 345C290.582 345 287 341.418 287 337C287 332.582 290.582 329 295 329C299.418 329 303 332.582 303 337Z" fill="#1C1B1F"/>
<path d="M439 330.5C439 333.538 436.538 336 433.5 336C430.462 336 428 333.538 428 330.5C428 327.462 430.462 325 433.5 325C436.538 325 439 327.462 439 330.5Z" fill="#1C1B1F"/>
</g>
<defs>
<clipPath id="clip0_226_9667">
<rect width="530" height="530" fill="white"/>
</clipPath>
</defs>
</svg>
