<svg width="530" height="530" viewBox="0 0 530 530" fill="none" xmlns="http://www.w3.org/2000/svg">
<g clip-path="url(#clip0_218_10819)">
<rect width="530" height="530" fill="white"/>
<path fill-rule="evenodd" clip-rule="evenodd" d="M80.722 107.821C83.0659 99.0784 90.9887 93 100.04 93H143.812C150.241 93 156.278 96.0904 160.037 101.306C163.796 106.521 164.818 113.226 162.785 119.325C162.782 119.336 162.717 119.54 162.613 119.986C162.507 120.438 162.385 121.038 162.253 121.803C161.986 123.348 161.726 125.295 161.487 127.622C161.007 132.285 160.668 137.87 160.436 143.738C159.989 155.08 159.973 166.615 159.972 173.044C160.546 181.411 163.29 187.3 166.244 191.083C178.024 178.976 193.469 171.549 207.177 166.98C226.858 160.419 247.289 158.274 260.537 158.274C273.786 158.274 294.217 160.419 313.898 166.98C327.606 171.549 343.05 178.976 354.831 191.083C357.785 187.3 360.529 181.411 361.103 173.044C361.102 166.615 361.086 155.08 360.638 143.738C360.407 137.87 360.068 132.285 359.588 127.622C359.348 125.295 359.089 123.348 358.822 121.803C358.69 121.038 358.568 120.438 358.462 119.986C358.354 119.521 358.288 119.32 358.289 119.325C356.256 113.226 357.279 106.521 361.038 101.306C364.797 96.0904 370.834 93 377.263 93H421.035C430.086 93 438.009 99.0784 440.353 107.821C445.788 128.094 449.12 162.718 442.06 195.296C436.113 222.736 421.814 252.02 392.148 267.255C395.699 286.084 395.596 309.532 387.292 333.51C375.509 367.536 347.934 400.535 295.96 422.472C293.75 423.405 291.392 423.932 289 424.03V595H230V423.836C228.324 423.591 226.682 423.134 225.115 422.472C173.14 400.535 145.566 367.536 133.783 333.51C125.479 309.532 125.375 286.084 128.927 267.255C99.261 252.02 84.9616 222.736 79.0151 195.296C71.9552 162.718 75.2863 128.094 80.722 107.821Z" fill="#1C1B1F"/>
<path fill-rule="evenodd" clip-rule="evenodd" d="M98.7606 116C88.7603 161.5 89.1669 241.48 154.288 258.067C141.489 291.089 145.072 384.5 244.152 407.046V594.641H260.26H261.798H277.906V407.046C376.986 384.5 380.57 291.089 367.771 258.067C432.891 241.48 433.298 161.5 423.298 116L417.798 93H373.298L378.298 116C380.61 129 383.298 163.457 383.298 176C383.298 200 361.883 218.647 348.572 219.671C333.547 189.62 285.449 181.619 261.798 181.285V181.274C261.545 181.274 261.289 181.275 261.029 181.277C260.77 181.275 260.513 181.274 260.26 181.274V181.285C236.609 181.619 188.511 189.62 173.486 219.671C160.175 218.647 138.76 200 138.76 176C138.76 163.457 141.449 129 143.76 116L148.761 93H104.261L98.7606 116Z" fill="#F9F9F9"/>
<path fill-rule="evenodd" clip-rule="evenodd" d="M148.044 301C156.463 300.441 182.512 300.758 211.473 313.506C219.892 316.861 241.949 320.383 262.828 307.635C273.772 300.645 304.08 290.022 337.755 303.441C339.064 304 340.492 304.652 342.021 305.351C349.674 308.845 359.879 313.506 370.544 313.506C368.246 341.08 342.374 394.105 278.544 410.373V537H243.544V410.5H243.544C212.675 399.038 146.044 371.5 148.044 301Z" fill="#666666"/>
<circle cx="198.591" cy="338.591" r="14.5907" fill="#D9D9D9"/>
<circle cx="261.056" cy="389.422" r="9.21519" fill="#D9D9D9"/>
<circle cx="274.215" cy="348.215" r="9.21519" fill="#D9D9D9"/>
<circle cx="326.359" cy="328.359" r="15.3586" fill="#D9D9D9"/>
<mask id="path-8-inside-1_218_10819" fill="white">
<path d="M199.68 380.439C226.982 376.695 244.482 397.797 250.436 409.885C250.821 410.667 250.996 411.531 250.987 412.402L250.235 491.895C250.213 494.241 248.817 496.368 246.52 496.843C239.35 498.328 227.468 498.252 222.133 497.357C181.076 488.326 169.743 444.677 169.208 423.981C166.642 392.372 188.453 381.783 199.68 380.439Z"/>
</mask>
<path d="M199.68 380.439C226.982 376.695 244.482 397.797 250.436 409.885C250.821 410.667 250.996 411.531 250.987 412.402L250.235 491.895C250.213 494.241 248.817 496.368 246.52 496.843C239.35 498.328 227.468 498.252 222.133 497.357C181.076 488.326 169.743 444.677 169.208 423.981C166.642 392.372 188.453 381.783 199.68 380.439Z" fill="#F9F9F9"/>
<path d="M250.436 409.885L236.979 416.513L236.979 416.513L250.436 409.885ZM199.68 380.439L201.462 395.332C201.547 395.322 201.632 395.311 201.717 395.3L199.68 380.439ZM169.208 423.981L184.203 423.593C184.196 423.318 184.181 423.042 184.159 422.767L169.208 423.981ZM222.133 497.357L218.91 512.007C219.157 512.061 219.404 512.109 219.653 512.151L222.133 497.357ZM246.52 496.843L249.561 511.532L249.561 511.532L246.52 496.843ZM250.235 491.895L235.236 491.753L235.236 491.753L250.235 491.895ZM250.987 412.402L235.988 412.26L235.988 412.26L250.987 412.402ZM263.892 403.257C256.869 389 234.594 360.511 197.642 365.578L201.717 395.3C219.37 392.879 232.094 406.595 236.979 416.513L263.892 403.257ZM197.897 365.545C189.369 366.566 177.752 370.843 168.482 380.44C158.725 390.543 152.653 405.433 154.257 425.195L184.159 422.767C183.197 410.92 186.748 404.711 190.061 401.281C193.862 397.345 198.764 395.656 201.462 395.332L197.897 365.545ZM154.213 424.368C154.531 436.682 157.953 455.193 167.326 472.263C176.877 489.656 193.132 506.337 218.91 512.007L225.355 482.708C210.076 479.347 200.137 469.688 193.623 457.824C186.931 445.637 184.42 431.975 184.203 423.593L154.213 424.368ZM219.653 512.151C223.575 512.808 228.88 513.051 233.82 512.991C238.791 512.931 244.633 512.552 249.561 511.532L243.478 482.155C241.237 482.619 237.553 482.944 233.457 482.993C229.33 483.043 226.026 482.801 224.612 482.564L219.653 512.151ZM265.234 492.037L265.987 412.544L235.988 412.26L235.236 491.753L265.234 492.037ZM249.561 511.532C260.281 509.312 265.161 499.774 265.234 492.037L235.236 491.753C235.264 488.707 237.353 483.423 243.478 482.155L249.561 511.532ZM236.979 416.513C236.219 414.969 235.977 413.476 235.988 412.26L265.987 412.544C266.015 409.586 265.422 406.365 263.892 403.257L236.979 416.513Z" fill="#1C1B1F" mask="url(#path-8-inside-1_218_10819)"/>
<mask id="path-10-inside-2_218_10819" fill="white">
<path d="M321.32 380.439C294.018 376.695 276.518 397.797 270.564 409.885C270.179 410.667 270.004 411.531 270.013 412.402L270.765 491.895C270.787 494.241 272.183 496.368 274.48 496.843C281.65 498.328 293.532 498.252 298.867 497.357C339.924 488.326 351.257 444.677 351.792 423.981C354.358 392.372 332.547 381.783 321.32 380.439Z"/>
</mask>
<path d="M321.32 380.439C294.018 376.695 276.518 397.797 270.564 409.885C270.179 410.667 270.004 411.531 270.013 412.402L270.765 491.895C270.787 494.241 272.183 496.368 274.48 496.843C281.65 498.328 293.532 498.252 298.867 497.357C339.924 488.326 351.257 444.677 351.792 423.981C354.358 392.372 332.547 381.783 321.32 380.439Z" fill="#F9F9F9"/>
<path d="M270.564 409.885L284.021 416.513L284.021 416.513L270.564 409.885ZM321.32 380.439L319.538 395.332C319.453 395.322 319.368 395.311 319.283 395.3L321.32 380.439ZM351.792 423.981L336.797 423.593C336.804 423.318 336.819 423.042 336.841 422.767L351.792 423.981ZM298.867 497.357L302.09 512.007C301.843 512.061 301.596 512.109 301.347 512.151L298.867 497.357ZM274.48 496.843L271.439 511.532L271.439 511.532L274.48 496.843ZM270.765 491.895L285.764 491.753L285.764 491.753L270.765 491.895ZM270.013 412.402L285.012 412.26L285.012 412.26L270.013 412.402ZM257.108 403.257C264.131 389 286.406 360.511 323.358 365.578L319.283 395.3C301.63 392.879 288.906 406.595 284.021 416.513L257.108 403.257ZM323.103 365.545C331.631 366.566 343.248 370.843 352.518 380.44C362.275 390.543 368.347 405.433 366.743 425.195L336.841 422.767C337.803 410.92 334.252 404.711 330.939 401.281C327.138 397.345 322.236 395.656 319.538 395.332L323.103 365.545ZM366.787 424.368C366.469 436.682 363.047 455.193 353.674 472.263C344.123 489.656 327.868 506.337 302.09 512.007L295.645 482.708C310.924 479.347 320.863 469.688 327.377 457.824C334.069 445.637 336.58 431.975 336.797 423.593L366.787 424.368ZM301.347 512.151C297.425 512.808 292.12 513.051 287.18 512.991C282.209 512.931 276.367 512.552 271.439 511.532L277.522 482.155C279.763 482.619 283.447 482.944 287.543 482.993C291.67 483.043 294.974 482.801 296.388 482.564L301.347 512.151ZM255.766 492.037L255.013 412.544L285.012 412.26L285.764 491.753L255.766 492.037ZM271.439 511.532C260.719 509.312 255.839 499.774 255.766 492.037L285.764 491.753C285.736 488.707 283.647 483.423 277.522 482.155L271.439 511.532ZM284.021 416.513C284.781 414.969 285.023 413.476 285.012 412.26L255.013 412.544C254.985 409.586 255.578 406.365 257.108 403.257L284.021 416.513Z" fill="#1C1B1F" mask="url(#path-10-inside-2_218_10819)"/>
<path d="M124.635 386.241L61.4548 347.36L85.51 386.865L73.5484 395.086L140.195 436.129L112.663 394.114L124.635 386.241Z" fill="white" stroke="#1C1B1F" stroke-width="15" stroke-linecap="round" stroke-linejoin="round"/>
<path d="M110.396 463.761L50.5939 494.747L92.5865 494.501L93.391 507.654L156.497 474.98L110.925 476.759L110.396 463.761Z" fill="white" stroke="#1C1B1F" stroke-width="15" stroke-linecap="round" stroke-linejoin="round"/>
<path d="M405.132 386.241L468.312 347.36L444.257 386.865L456.219 395.086L389.572 436.129L417.104 394.114L405.132 386.241Z" fill="white" stroke="#1C1B1F" stroke-width="15" stroke-linecap="round" stroke-linejoin="round"/>
<path d="M419.371 463.761L479.173 494.747L437.181 494.501L436.376 507.654L373.27 474.98L418.842 476.759L419.371 463.761Z" fill="white" stroke="#1C1B1F" stroke-width="15" stroke-linecap="round" stroke-linejoin="round"/>
</g>
<defs>
<clipPath id="clip0_218_10819">
<rect width="530" height="530" fill="white"/>
</clipPath>
</defs>
</svg>
