<svg width="530" height="530" viewBox="0 0 530 530" fill="none" xmlns="http://www.w3.org/2000/svg">
<rect width="530" height="530" fill="white"/>
<path d="M410.842 181.766C398.199 249.531 443.113 291.204 470.096 305.391C472.159 306.476 473.5 308.572 473.5 310.903V337.819C473.5 340.947 471.098 343.565 467.97 343.485C442.182 342.82 397.75 326.595 373.104 316.178C369.937 314.839 368.651 311.086 369.984 307.917C385.999 269.85 361.74 248.521 346.865 242.446C311.104 230.682 294.015 253.363 288.397 270.259C287.346 273.418 284.164 275.577 281.073 274.341C258.331 265.25 241.563 232.145 235.544 215.154C235.445 214.874 235.37 214.585 235.315 214.293C213.974 100.711 292.397 77.5594 334.333 80.194C410.842 85.0006 419.636 147.029 410.842 181.766Z" fill="#1C1B1F" stroke="#1C1B1F" stroke-width="15" stroke-linecap="round" stroke-linejoin="round"/>
<path fill-rule="evenodd" clip-rule="evenodd" d="M348.844 290.593C348.844 301.885 339.69 311.04 328.397 311.04C328.242 311.04 328.087 311.038 327.932 311.034C286.521 332.624 296.774 424.293 307.151 450.866H266.977C272.333 410.632 258.336 370.426 246.551 347.14C237.078 344.44 230.123 335.501 230.123 324.89C230.123 312.141 240.163 301.806 252.548 301.806C264.933 301.806 274.973 312.141 274.973 324.89C274.973 325.044 274.972 325.198 274.969 325.352C288.867 327.579 302.389 318.115 309.973 299.47C308.677 296.785 307.951 293.774 307.951 290.593C307.951 279.301 317.105 270.147 328.397 270.147C339.69 270.147 348.844 279.301 348.844 290.593Z" fill="#1C1B1F"/>
<path d="M327.932 311.034L328.099 303.536C326.836 303.508 325.586 303.8 324.465 304.384L327.932 311.034ZM307.151 450.866V458.366C309.628 458.366 311.946 457.142 313.344 455.096C314.741 453.05 315.038 450.446 314.137 448.138L307.151 450.866ZM266.977 450.866L259.542 449.876C259.257 452.019 259.91 454.181 261.334 455.807C262.758 457.433 264.815 458.366 266.977 458.366V450.866ZM246.551 347.14L253.243 343.753C252.298 341.887 250.618 340.5 248.607 339.927L246.551 347.14ZM274.969 325.352L267.47 325.209C267.399 328.946 270.091 332.165 273.782 332.757L274.969 325.352ZM309.973 299.47L316.92 302.295C317.72 300.331 317.649 298.12 316.728 296.21L309.973 299.47ZM328.397 318.54C343.832 318.54 356.344 306.028 356.344 290.593H341.344C341.344 297.743 335.547 303.54 328.397 303.54V318.54ZM327.765 318.532C327.975 318.537 328.186 318.54 328.397 318.54V303.54C328.298 303.54 328.198 303.538 328.099 303.536L327.765 318.532ZM324.465 304.384C311.97 310.898 303.871 322.451 298.769 335.528C293.668 348.6 291.308 363.796 290.629 378.74C289.277 408.462 294.509 439.113 300.164 453.594L314.137 448.138C309.415 436.046 304.333 407.575 305.613 379.422C306.25 365.428 308.443 351.999 312.742 340.981C317.04 329.967 323.189 321.965 331.399 317.685L324.465 304.384ZM307.151 443.366H266.977V458.366H307.151V443.366ZM274.411 451.855C280.049 409.504 265.363 367.7 253.243 343.753L239.859 350.527C251.31 373.151 264.617 411.759 259.542 449.876L274.411 451.855ZM222.623 324.89C222.623 338.811 231.761 350.723 244.495 354.353L248.607 339.927C242.395 338.157 237.623 332.192 237.623 324.89H222.623ZM252.548 294.306C235.818 294.306 222.623 308.205 222.623 324.89H237.623C237.623 316.077 244.509 309.306 252.548 309.306V294.306ZM282.473 324.89C282.473 308.205 269.279 294.306 252.548 294.306V309.306C260.588 309.306 267.473 316.077 267.473 324.89H282.473ZM282.467 325.494C282.471 325.293 282.473 325.092 282.473 324.89H267.473C267.473 324.997 267.472 325.103 267.47 325.209L282.467 325.494ZM273.782 332.757C292.488 335.756 308.623 322.694 316.92 302.295L303.026 296.644C296.155 313.535 285.246 319.403 276.156 317.946L273.782 332.757ZM300.451 290.593C300.451 294.927 301.443 299.05 303.219 302.73L316.728 296.21C315.912 294.52 315.451 292.621 315.451 290.593H300.451ZM328.397 262.647C312.963 262.647 300.451 275.159 300.451 290.593H315.451C315.451 283.443 321.247 277.647 328.397 277.647V262.647ZM356.344 290.593C356.344 275.159 343.832 262.647 328.397 262.647V277.647C335.547 277.647 341.344 283.443 341.344 290.593H356.344Z" fill="#1C1B1F"/>
<path d="M264.42 164.618C271.016 136.762 306.632 96.0239 363.354 118.842" stroke="white" stroke-width="15" stroke-linecap="round"/>
<path d="M363.354 344.018C363.783 360.623 373.263 384.754 415.5 392C430.952 394.651 464.31 397.586 471.521 373.778" stroke="#1C1B1F" stroke-width="25" stroke-linecap="round"/>
<path d="M197.145 173.852L154.274 143.512V215.404L56 220.021L133.828 281.36L95.5735 344.677L166.806 332.805L188.571 409.974L215.613 361.166" stroke="#1C1B1F" stroke-width="15" stroke-linecap="round" stroke-linejoin="round"/>
</svg>
