<svg width="530" height="530" viewBox="0 0 530 530" fill="none" xmlns="http://www.w3.org/2000/svg">
<rect width="530" height="530" fill="white"/>
<path d="M347 252.47H80V454.623H450.092V277.092C452.879 225.258 429.058 207.98 416.799 205.82C360 191.5 347.387 234.472 347 252.47Z" fill="#666666"/>
<path d="M80 252.471L342 252.471C350.5 205.82 375.299 199.946 416.799 205.82C429.058 207.98 452.879 225.258 450.092 277.092" stroke="#1C1B1F" stroke-width="15" stroke-linecap="round" stroke-linejoin="round"/>
<path fill-rule="evenodd" clip-rule="evenodd" d="M221.506 147.887C214.603 149.358 203.956 149.443 185.08 147.549C173.353 144.104 147.317 144.485 136.99 173.574C133.281 186.509 131.272 219.441 152.91 247.692C162.175 258.677 180.73 284.848 180.824 301.654C181.198 322.397 187.58 363.802 210.113 363.482C214.88 364.237 224.988 359.66 227.292 335.307C228.198 320.061 233.963 293.972 251.735 288.625C270.134 286.203 286.104 307.623 293.191 321.153C305.291 342.411 316.388 342.435 320.424 339.789C341.101 330.827 329.918 290.453 321.741 271.386C314.926 256.025 321.097 224.542 325.035 210.721C333.164 176.077 317.809 146.875 309.115 136.604C287.754 114.321 263.858 124.664 254.58 132.622C238.147 142.099 228.404 146.393 221.506 147.887Z" stroke="white" stroke-width="40" stroke-linecap="round"/>
<path fill-rule="evenodd" clip-rule="evenodd" d="M221.506 147.887C214.603 149.358 203.956 149.443 185.08 147.549C173.353 144.104 147.317 144.485 136.99 173.574C133.281 186.509 131.272 219.441 152.91 247.692C162.175 258.677 180.73 284.848 180.824 301.654C181.198 322.397 187.58 363.802 210.113 363.482C214.88 364.237 224.988 359.66 227.292 335.307C228.198 320.061 233.963 293.972 251.735 288.625C270.134 286.203 286.104 307.623 293.191 321.153C305.291 342.411 316.388 342.435 320.424 339.789C341.101 330.827 329.918 290.453 321.741 271.386C314.926 256.025 321.097 224.542 325.035 210.721C333.164 176.077 317.809 146.875 309.115 136.604C287.754 114.321 263.858 124.664 254.58 132.622C238.147 142.099 228.404 146.393 221.506 147.887Z" fill="#D9D9D9"/>
<path fill-rule="evenodd" clip-rule="evenodd" d="M142.039 175.191C138.69 187.08 136.854 217.936 157.042 244.375C161.839 250.074 168.935 259.565 174.889 269.833C180.73 279.905 186.054 291.688 186.121 301.59C186.305 311.629 187.955 326.548 192.166 338.737C194.278 344.848 196.908 349.896 200.008 353.315C203.007 356.623 206.26 358.239 210.038 358.186L210.493 358.179L210.942 358.25C211.153 358.284 213.109 358.356 215.555 355.42C218.029 352.45 220.907 346.415 222.008 334.899C222.492 326.9 224.241 315.99 228.295 306.223C232.315 296.539 239.077 286.901 250.208 283.553L250.618 283.429L251.043 283.373C262.567 281.856 272.69 287.867 280.333 295.046C288.04 302.287 294.114 311.517 297.84 318.611C303.573 328.659 308.675 332.98 312.15 334.672C315.586 336.345 317.341 335.476 317.519 335.359L317.899 335.11L318.317 334.929C321.783 333.426 324.086 330.617 325.462 326.369C326.885 321.979 327.21 316.296 326.626 309.857C325.461 297.014 320.838 282.733 316.884 273.504C312.88 264.448 312.895 251.517 314.085 239.936C315.298 228.128 317.87 216.56 319.904 209.394C327.455 176.997 313.11 149.617 305.175 140.152C295.64 130.267 285.935 127.89 277.745 128.554C269.246 129.244 261.977 133.258 258.029 136.644L257.655 136.966L257.227 137.212C240.764 146.706 230.401 151.383 222.627 153.066L222.618 153.068L222.609 153.07C214.83 154.727 203.46 154.719 184.551 152.822L184.06 152.773L183.586 152.634C178.596 151.168 170.32 150.492 162.288 153.353C154.547 156.111 146.674 162.263 142.039 175.191ZM186.078 142.325C179.323 140.449 168.977 139.722 158.732 143.371C147.972 147.204 137.696 155.749 131.997 171.803L131.942 171.957L131.897 172.115C127.859 186.197 125.782 220.989 148.703 250.914L148.779 251.013L148.86 251.109C153.327 256.405 160.094 265.442 165.723 275.149C171.493 285.099 175.487 294.788 175.525 301.684L175.526 301.717L175.526 301.75C175.719 312.454 177.449 328.59 182.151 342.198C184.498 348.99 187.713 355.531 192.158 360.433C196.621 365.355 202.479 368.76 209.776 368.783C214.231 369.292 219.477 367.267 223.696 362.202C228.038 356.991 231.357 348.585 232.566 335.807L232.575 335.715L232.58 335.623C233.01 328.383 234.6 318.673 238.082 310.286C241.541 301.953 246.414 295.95 252.852 293.829C259.593 293.119 266.501 296.592 273.077 302.769C279.696 308.987 285.132 317.188 288.498 323.612L288.541 323.694L288.586 323.775C294.935 334.929 301.414 341.231 307.512 344.2C313.439 347.085 319.054 346.777 322.907 344.484C329.551 341.467 333.494 335.956 335.542 329.636C337.583 323.34 337.828 316.057 337.179 308.9C335.878 294.562 330.83 279.138 326.61 269.299L326.597 269.269L326.584 269.239C323.787 262.935 323.451 252.46 324.626 241.018C325.772 229.857 328.231 218.838 330.13 212.174L330.164 212.054L330.193 211.933C338.804 175.234 322.624 144.364 313.159 133.182L313.053 133.057L312.94 132.938C301.151 120.641 288.272 117.069 276.888 117.993C266.048 118.872 256.913 123.784 251.525 128.268C235.385 137.554 226.365 141.413 220.393 142.708C214.416 143.98 204.606 144.165 186.078 142.325Z" fill="#1C1B1F"/>
<path fill-rule="evenodd" clip-rule="evenodd" d="M238.33 140.248C240.254 142.453 240.027 145.8 237.823 147.724C224.801 159.091 214.39 164.79 205.674 167.698C198.432 170.114 192.469 170.526 188.013 170.834C187.143 170.894 186.33 170.95 185.577 171.016C182.662 171.273 180.091 169.118 179.834 166.203C179.577 163.289 181.732 160.718 184.647 160.461C185.611 160.376 186.568 160.308 187.531 160.239C191.93 159.925 196.456 159.603 202.321 157.646C209.411 155.281 218.625 150.416 230.854 139.741C233.059 137.817 236.406 138.044 238.33 140.248Z" fill="#1C1B1F"/>
<path d="M456.559 163.309L504.855 134.005L486.348 163.972L495.417 170.29L444.471 201.224L465.637 169.362L456.559 163.309Z" fill="white" stroke="#1C1B1F" stroke-width="10" stroke-linecap="round" stroke-linejoin="round"/>
<path d="M397.807 141.595L424.855 92.0001L423.9 127.208L434.915 128.117L406.394 180.452L408.697 142.269L397.807 141.595Z" fill="white" stroke="#1C1B1F" stroke-width="10" stroke-linecap="round" stroke-linejoin="round"/>
</svg>
