<svg id="레이어_1" data-name="레이어 1" xmlns="http://www.w3.org/2000/svg" viewBox="0 0 186 125"><path d="M127.91,31.51a.39.39,0,0,0,.2.21c.07,0,.41-.41.5-.37s-.34,1-.25,1.1.21,0,.3,0,.22,0,.31,0,1.13-1.81,1.22-1.77-.38,1.13-.29,1.17.1.21.18.25-.15.71-.06.75.3-.19.39-.15,1.26-2.09,1.35-2,.21,0,.3,0-.92,2.2-.83,2.24,1.09-1.74,1.18-1.7-.78,1.94-.7,2,0,.43.07.47S132.88,32,133,32s-.78,2-.7,2,.28-.14.36-.1.79-1.15.88-1.11-.39,1.16-.31,1.2.6-.77.69-.73-.56,1.5-.48,1.54,1.32-2.17,1.4-2.13.19,0,.28.07-.19.78-.11.82-.48,1.35-.4,1.39.57-.71.66-.67.35-.29.44-.25.69-1,.78-.91-.55,1.46-.46,1.5.82-1.21.91-1.17-.51,1.4-.42,1.44,1-1.57,1.09-1.53-.82,2-.73,2-.27.93-.18,1,1.21-2,1.3-2-.48,1.35-.39,1.38.93-1.42,1-1.38,0,.39.09.43-.34,1.08-.25,1.12.58-.73.66-.69.08.26.16.3.05.32.13.36.42-.4.5-.36-.33,1.07-.25,1.11.14.15.22.19,1-1.62,1.12-1.58-.15.72-.07.76,0,.45.06.49.41-.38.49-.34-.34,1.08-.25,1.12.8-1.16.89-1.12.29-.17.38-.13-.53,1.45-.45,1.49.57-.69.65-.65.08.26.16.3-.25.92-.17,1,.5-.57.59-.53.31-.2.39-.16-.37,1.14-.28,1.18.19,0,.28.07,1.07-1.69,1.15-1.65.14.13.23.17,0,.39.09.43,0,.44.08.48-.42,1.23-.34,1.27.73-1,.81-1,.63-.82.72-.78,0,.34.11.38-.46,1.32-.38,1.36,0,.4.09.44-.14.69-.06.73l.24.14c.08,0,.46-.49.54-.45s.91-1.37,1-1.33-.54,1.48-.46,1.51,1-1.59,1.1-1.55,0,.33.12.37-.62,1.66-.55,1.69.59-.71.66-.68-.49,1.45-.37,1.5.46-.76.63-.69-.08.61,0,.65.09.21.18.25,1.28-2.47,1.37-2.43-.37,1.26-.28,1.3.3-.21.39-.17.47-.57.56-.53-.35,1.18-.26,1.22-.45,1.33-.36,1.37,1.41-2.47,1.49-2.43.29-.14.38-.11-.42,1.25-.33,1.29.68-.93.77-.89-.57,1.5-.49,1.55-.23.81-.14.86.83-1.17.91-1.13.3-.16.38-.12.34-.22.42-.18-.76,1.75-.67,1.79.47-.47.55-.42-.09.51,0,.56.44-.41.52-.37,0,.33.1.37.19,0,.27.09.91-1.16,1-1.11-.66,1.43-.58,1.48.78-.92.86-.87-.1.51,0,.56.25-.06.33,0-.18.62-.1.67,0,.3.1.35,1-1.27,1.13-1.22-.57,1.19-.49,1.24.62-.6.7-.55-.23.67-.15.72,0,.24.13.29.88-.93.95-.88-.17.57-.1.62-.48,1-.4,1,.36-.18.43-.13.14.12.22.17-.5,1-.43,1,1.44-1.61,1.51-1.56.69-.59.77-.54-1.46,2.2-1.39,2.26,1.52-1.65,1.59-1.6-.06.39,0,.44-1.23,1.82-1.15,1.88,1.23-1.23,1.3-1.18-.81,1.27-.73,1.33,1.55-1.58,1.62-1.53-.82,1.27-.75,1.32,1.46-1.41,1.53-1.36-.65,1-.58,1.11-.09.37,0,.43-.32.63-.25.69,1.68-1.58,1.75-1.52-1.58,2-1.51,2.06.17.08.24.14,1.05-.85,1.12-.79-1.1,1.42-1,1.48,1.65-1.45,1.72-1.39-.81,1.09-.74,1.15-.62.87-.55.94,1-.78,1.1-.72.06.19.13.25-.51.74-.44.8.63-.36.7-.29-.46.66-.39.73,1.54-1.18,1.6-1.11.54-.24.61-.17-1.27,1.38-1.21,1.45.39-.11.46,0,.18.08.24.14-.6.75-.54.82S167.45,51,167.51,51s-.69.82-.63.89-.1.32,0,.38.89-.47.95-.4.44-.1.5,0-.36.53-.3.6-.08.29,0,.36.15.13.21.2-.86.85-.8.93.88-.41.94-.34-.72.73-.66.8-.71.71-.66.78,1.05-.5,1.1-.43.43-.07.48,0-1.13.95-1.08,1,2.28-1.25,2.33-1.18-.07.27,0,.34-2,1.47-2,1.55,2.09-1.06,2.14-1,.84-.27.89-.19-1.44,1.05-1.39,1.13.45-.05.49,0-1.25.9-1.21,1,2-.89,2.06-.81.75-.18.79-.1-1.06.77-1,.85.77-.18.81-.1-.52.47-.48.55-1.65,1-1.61,1.08,1.91-.7,1.95-.62.76-.15.8-.06-1.07.68-1,.76-.28.32-.24.4,1.77-.54,1.8-.46-2.66,1.29-2.62,1.37.19.1.23.19.52,0,.55.06-.29.29-.26.38.66-.06.7,0,1.1-.2,1.13-.11-.44.34-.41.43,1.11-.17,1.14-.09-1.52.68-1.49.77,1.38-.24,1.41-.15-1.86.73-1.83.82-.15.22-.13.3.32.09.34.18.74,0,.77.07-1,.44-1,.52,2.25-.36,2.27-.27.63,0,.65.14.39.11.41.2-.14.23-.12.32-2.15.61-2.13.7.5.09.52.18-1.1.36-1.08.45.44.1.46.19l0,.26c0,.09.49.1.51.19s-1,.29-1,.38,1.87,0,1.88.06,1.14.09,1.15.19-2.76.36-2.76.45-.15.16-.15.25,1,.13,1,.22-1,.18-1,.27,2.66.19,2.65.28-2.28.13-2.28.22.93.21.92.3-.44.15-.45.24-.43.13-.44.22,2.44.4,2.43.49-2.85-.11-2.86,0,1.23.31,1.22.4-.77.08-.79.17,1,.31,1,.4.62.29.6.38-1.45-.06-1.47,0,0,.17,0,.26-.38.1-.39.19,1.45.48,1.43.57.75.35.73.44-.18.16-.2.25-2.06-.3-2.08-.22-.51,0-.54.14,2,.71,2,.8-1.11-.11-1.13,0-.67,0-.7.08,2.19.83,2.16.92-2.76-.64-2.79-.56,1.11.53,1.08.61.39.32.36.41,0,.19,0,.27.68.43.65.52-2.28-.61-2.31-.52,1.16.6,1.12.69-.46,0-.5.1.11.23.07.32.74.48.71.57-1.85-.54-1.89-.46.08.22,0,.3a1.86,1.86,0,0,0-.1.25c0,.08.24.29.2.37s1.31.77,1.27.86.24.31.2.39-2.47-.92-2.51-.84,2.48,1.35,2.44,1.44-1-.26-1-.18-.91-.24-1-.16,1.37.89,1.32,1,.28.35.24.43-1.35-.48-1.39-.4-.49-.05-.54,0,1.12.82,1.08.9-1.36-.54-1.41-.47,1.13.85,1.08.93-1.47-.64-1.52-.57-.29,0-.34.11,1.44,1.09,1.39,1.16-1.72-.86-1.77-.78,1,.83.91.9.79.74.74.82-1.23-.59-1.28-.52-1.2-.61-1.26-.54,1.18,1,1.13,1.11.9.89.84,1-.78-.33-.83-.26-.73-.32-.79-.25-.42-.1-.48,0-.83-.42-.89-.35.62.71.56.78-.58-.25-.64-.18S167.08,84.88,167,85s-1-.61-1.05-.54-.91-.56-1-.49,1.85,1.88,1.79,1.94l-.22.19c-.06.07-1-.66-1.06-.59s-.66-.38-.73-.31,0,.29,0,.35,1,1.21.91,1.27-1.49-1.21-1.56-1.15-.41-.17-.48-.11.11.36,0,.43-.19,0-.26.11-.4-.17-.47-.11.12.38,0,.44-.55-.34-.62-.28,1.74,2.2,1.67,2.26,0,.28-.09.33-.35-.1-.42,0-.42-.2-.49-.14.26.6.18.66-.11.16-.19.21-2-2.16-2.08-2.1,1,1.48.89,1.53.53,1,.46,1-.18.09-.25.14-1.53-1.68-1.61-1.63-.19,0-.27.09.39.82.32.88-.33-.14-.4-.08.46,1,.38,1,0,.29-.1.34-.75-.74-.83-.69.37.85.29.9-.19.06-.27.11.33.81.25.85-.81-.86-.89-.81-.67-.68-.75-.63,0,.34-.08.38-.09.2-.17.25-.7-.76-.78-.72-.09.19-.17.24.37.93.29,1,.68,1.46.6,1.5-.9-1.11-1-1.06.49,1.15.41,1.2-1.16-1.55-1.24-1.51.06.45,0,.49.7,1.55.61,1.59-1.59-2.37-1.67-2.32.53,1.28.44,1.32-.62-.72-.7-.67-.48-.49-.56-.45,1,2.2.93,2.24-.51-.53-.59-.49-.63-.76-.71-.71.72,1.7.64,1.74-1.11-1.65-1.19-1.61.27.89.19.93,0,.33-.12.37-.7-.92-.78-.88-.21,0-.29,0,.5,1.36.42,1.4-.33-.22-.41-.18-.6-.76-.68-.72.58,1.57.49,1.61-.08.26-.17.3-1-1.62-1.08-1.58.53,1.53.44,1.57-.79-1.24-.88-1.2-.1.22-.18.26.25,1,.17,1,0,.39-.12.43-1.11-2-1.2-1.93,0,.42-.09.45-.33-.28-.42-.24-.17.05-.26.09,1,2.59.87,2.62-.44-.52-.53-.49,0,.53-.06.56-.58-.84-.66-.8.12.74,0,.77-.84-1.45-.92-1.41.55,1.73.47,1.77-.85-1.48-.94-1.44.14.79,0,.82.11.71,0,.74-.4-.45-.49-.41-.41-.48-.5-.45l-.26.11c-.08,0-.51-.69-.59-.65s.19.9.1.93,0,.53-.06.56.32,1.17.23,1.2-1-1.74-1.07-1.71,0,.35-.14.38-.57-.81-.66-.78,0,.39-.12.43.57,1.69.49,1.73-.25-.1-.34-.07-.56-.75-.65-.72.36,1.19.27,1.23-.83-1.33-.92-1.29-.5-.6-.58-.56.1.64,0,.68.08.6,0,.63-.72-1-.81-1,.51,1.43.42,1.47.25.89.16.93-1.11-1.76-1.19-1.72.29,1,.2,1-.51-.57-.59-.53.08.56,0,.61-.57-.66-.65-.61l-.26.13c-.08.05.2.75.12.79s0,.44,0,.49.31.89.22.94-.85-1.09-.93-1-.44-.36-.52-.32.28.83.2.87-1.1-1.4-1.18-1.36.27.79.19.84-.39-.25-.47-.2,1,1.8.88,1.85-.65-.64-.73-.59.58,1.16.5,1.21-.85-.9-.92-.84.39.85.31.9-.36-.18-.43-.13-.61-.5-.68-.45-.73-.63-.81-.57-.23,0-.3.08,1.09,1.66,1,1.71-.23,0-.31,0-1.48-1.46-1.55-1.4l-.24.18c-.07.06,1.66,2.15,1.59,2.21s-.73-.55-.8-.49-.89-.68-1-.62,0,.29-.06.35-.17.09-.25.15,1.18,1.51,1.11,1.58-.19.07-.26.13-1.36-1.16-1.43-1.1-.05.22-.12.28-1-.8-1.09-.74,1.18,1.52,1.11,1.59.55.85.48.91-.5-.25-.57-.19-.95-.75-1-.69-.62-.4-.69-.34,1.63,2.09,1.56,2.15-1.42-1.3-1.49-1.24.06.34,0,.4.43.79.36.85-1.12-1-1.19-1-.71-.58-.78-.52.86,1.36.79,1.41-1-1-1.12-1,1.33,2,1.25,2.11-.43-.25-.51-.2-1-1-1-1,1.06,1.87,1,1.92-.84-.9-.93-.85-.6-.6-.68-.55.64,1.41.56,1.45.12.65,0,.69-1.41-2.2-1.49-2.16.64,1.68.55,1.71a2.29,2.29,0,0,1-.27.14c-.08,0-.29-.15-.37-.12s-.61-1.15-.7-1.12-.09.23-.18.26-.23-.26-.32-.24-.19-.22-.29-.21.16,1.88.07,1.9-.32-.92-.41-.91-.07,1.56-.16,1.57-.27-1-.36-1-.2.58-.29.58-.21-.19-.31-.19-.17-.59-.26-.59-.14-.58-.23-.59-.17-.12-.26-.13-.07-.9-.16-.91-.22.37-.31.36-.2.15-.29.14-.13-.31-.22-.33-.29.67-.39.66-.3.72-.39.71-.21.17-.31.16-.19,0-.28,0-.24.35-.33.34,0-1.59,0-1.6-.16-.27-.26-.28-.43,2-.52,2,0-2-.06-2-.22-.54-.3-.54-.21,1.6-.29,1.61-.06.18-.14.2-.51-.77-.6-.73-.69-.88-.78-.84,1.19,2.57,1.1,2.61-.55-.65-.64-.61-.19,0-.28.07,0,.42-.08.46-.38-.37-.47-.33.32,1,.23,1-1.08-1.67-1.16-1.63.59,1.51.51,1.55-.69-.89-.77-.85.62,1.55.54,1.59-.48-.5-.57-.46.09.57,0,.61-1.27-2-1.36-2-.43-.48-.51-.44.32,1,.23,1.07-.37-.39-.46-.35-.28-.25-.37-.22.4,1.38.31,1.42.05.65,0,.68-.38-.48-.47-.45-.64-1.46-.73-1.44.32,1.74.23,1.76-.24-.2-.34-.18-.35-.84-.44-.82.17,2.11.08,2.12-.36-1.06-.45-1-.13.88-.22.88-.3-2-.39-2-.15,2.06-.25,2.06-.18-1.44-.28-1.44-.16-.57-.26-.57-.25,1.47-.34,1.47-.28.92-.38.92-.23,0-.33,0,.08-2.26,0-2.27,0-.75-.13-.76-.23.43-.32.41-.12-.13-.21-.15,0-.39-.11-.42-.24.34-.33.31-1.11,2.16-1.2,2.12.13-.83,0-.87.31-.89.23-.94-.85.84-.93.78,1-1.38.91-1.44-.28.12-.34,0-.62.7-.68.62c0,.08,1.29.55,1.25.63s-1.26-.5-1.31-.42-1.49-.77-1.55-.7,1.85,1.51,1.79,1.59,0,.3,0,.37-1.87-1.31-1.94-1.24,1.18,1.28,1.11,1.35-1-.76-1.11-.69l-.19.17c-.07.06.39.7.32.76s-.45-.25-.52-.2.45.91.37,1-.09.24-.16.29,0,.37-.1.42-1.49-2.07-1.57-2,.67,1.51.59,1.55-.33-.21-.41-.17-.15.12-.23.16-.76-1.25-.85-1.22.61,1.87.52,1.91-.22,0-.3,0,.15,1,.06,1.08-.71-1.49-.8-1.47-.06.43-.16.46.17,1.35.08,1.37-.65-1.72-.75-1.7-.25-.32-.34-.3-.1.41-.19.43-.35-.92-.45-.91-.14.15-.23.17-.09.53-.19.54-.2-.2-.29-.19,0,1.44-.12,1.45-.18.27-.27.27-.21-.14-.31-.13-.19.21-.28.21-.27-1.79-.36-1.79-.18.08-.27.08-.16,2.31-.25,2.31-.21-1-.3-1-.18-.79-.27-.79-.2.36-.29.35-.21.31-.3.3-.09-1.6-.18-1.61-.3,1.55-.39,1.54,0-1.73-.12-1.74-.24.62-.33.61-.4,1.8-.5,1.79-.19-.08-.28-.09-.22.1-.31.09-.25.23-.34.21-.08-.73-.17-.75.1-1.55,0-1.57-.44,0-.53,0,.22,1.42,0,1.48,0,.54-.11.57-.07.45-.16.48-1-2.51-1.08-2.48.37,1.88.28,1.91-.52-1.17-.61-1.15-.12.26-.21.28-.46-1.14-.56-1.12-.13.14-.22.16.12,1.38,0,1.4.1,1.47,0,1.49-.52-1.78-.62-1.76,0,1.31-.06,1.33-.42-1.47-.51-1.46-.18,0-.27,0,0,1.21-.14,1.22-.33-1.45-.43-1.44,0,2.27-.07,2.28h-.3c-.09,0-.23-.41-.32-.4s-.22-.42-.31-.42-.2-.18-.29-.18-.19-.19-.28-.19-.23,1.39-.32,1.39-.12-2-.21-2.06-.15-.34-.25-.34-.28,1.3-.38,1.29,0-1.62-.1-1.63-.17,0-.26,0-.49,2-.58,2-.06-.79-.16-.8l-.27-.06c-.1,0-.25.22-.34.2s-.33.45-.42.43.18-1.34.09-1.36-.76,1.77-.85,1.75.64-2.49.55-2.52,0-.54,0-.57-.18.08-.27,0-.11-.1-.19-.13-.57.84-.66.8-.62.8-.7.76.76-1.74.68-1.78-1.43,2.06-1.51,2-.3.07-.38,0,.58-1.22.5-1.27-1,1-1,.93,1.43-2.16,1.36-2.22,0-.19-.1-.25-1.16,1.09-1.24,1-1,.78-1.07.72,1.64-1.93,1.57-2-.69.44-.76.37.1-.31,0-.38-.7.37-.76.3,0-.34,0-.41-.16.22-.34.22-.13-1.64-.24-1.64-.22,1.62-.33,1.61-.06-1.27-.16-1.28-.28,1.06-.38,1-.33.87-.43.86,0-.87-.13-.89-.28.36-.38.34-.38.59-.47.57.36-1.79.27-1.82-1,2.12-1.06,2.09.32-1.39.23-1.42.44-1.36.35-1.4-1.06,1.72-1.15,1.67.17-.69.08-.74-.27.08-.35,0-.62.51-.69.45-.47.21-.55.15,0-.41,0-.47,1-1.33.93-1.39.53-.69.47-.76-2.16,1.61-2.22,1.54-.38,0-.44-.09,1.49-1.29,1.43-1.37.89-.71.83-.79-2.49,1.21-2.54,1.13.63-1.83.47-1.8-.1,0-.2,0-.16-.06-.25,0,.11,2.44,0,2.45-.24-.41-.33-.4-.24-.42-.33-.41-.09,1.32-.17,1.33-.34-1.64-.42-1.64-.26.66-.28.66-.11-.81-.21-.82,0-1-.11-1-.64,2.58-.73,2.56-.28.17-.37.15.24-1.81.15-1.83-.44.84-.53.82.46-1.94.37-2-.35.51-.44.48,0-.35-.11-.39-.44.6-.53.57-.06-.26-.15-.3-.27.15-.35.11,0-.38-.08-.42-1.22,1.77-1.3,1.73.44-1.14.36-1.18-.46.37-.54.32-.08-.24-.16-.28.12-.52,0-.57l-.24-.16c-.07,0,0-.32-.07-.37s-.27.06-.35,0,.07-.39,0-.44.29-.67.22-.72-.85.77-.93.71-.47.28-.54.22,1.12-1.61,1-1.67-.19,0-.27-.09l-.8-.66c-.09,0-.53,1.24-.62,1.27s-.11.23-.2.26,0,.5-.14.52-.15.2-.24.22-.56-1.76-.65-1.74,0,1.07-.06,1.09.1,1.85,0,1.86-.58-3-.67-3-.14.09-.24.1-.06,1.31-.15,1.31-.25-1.4-.34-1.39-.14.51-.23.51-.16,2.09-.25,2.09-.17-2-.26-2-.14-.62-.23-.63-.23,1.1-.32,1.1-.07-1.14-.16-1.15-.19.31-.28.3-.42,1.81-.51,1.8-.26.35-.36.34,0-.86-.13-.88.18-1.65.09-1.67-.88,2.8-1,2.78.24-1.62.15-1.64-.58,1.15-.66,1.12.27-1.36.19-1.39-.64,1-.73,1,.68-1.92.6-2-1.35,2.18-1.43,2.14.67-1.57.59-1.61-.72.72-.8.67-.54.29-.61.23.57-.86.43-1-.83.58-.9.51.1-.38,0-.45,1.69-1.81,1.62-1.88-.67.4-.74.33-.44.16-.51.09,0-.26,0-.33-1.41.87-1.47.8-.6.19-.66.12,1.79-1.52,1.74-1.59-1.82,1-1.88.94,1.28-1.06,1.23-1.14a1.71,1.71,0,0,1-.13-.23c-.05-.08.51-.5.46-.57s-1.31.53-1.35.45.93-.69.88-.77-1.82.69-1.86.61,1-.65.91-.73,0-.19-.07-.27-.8.11-.84,0,1.41-.7,1.37-.79-1,.17-1.06.08,1.25-.55,1.22-.64a2,2,0,0,1-.06-.23c0-.09-2.35.38-2.37.29s2.53-.71,2.51-.8-2.93.34-2.95.25,2-.49,2-.58-.48-.11-.49-.21.62-.21.61-.3-1.19-.12-1.2-.21.2-.17.2-.26-.43.07-.48-.08-.3,0-.34-.12,2.29-1.11,2.25-1.2-1.74.58-1.78.5.08-.24,0-.31,1-.89.91-1-1.22.65-1.28.58-.15-.09-.21-.16-.7.58-.78.53,1.36-2.12,1.28-2.17-.93,1-1,1,.25-1.14.16-1.17-.44.41-.53.39-.18-.48-.27-.49-.31.36-.41.36-.19,2-.29,2-.35-2.6-.44-2.59-.25.18-.34.19-.33-.25-.42-.23.33,2,.24,2,0,.39-.11.42-.54-.87-.63-.84.08.22,0,.35.57.71.5.79-1.39-1-1.46-.9-.28,0-.34.06,1.55,1.6,1.48,1.67-2.09-1.61-2.15-1.54,1.09,1.21,1,1.28-1-.66-1.07-.59,0,.27,0,.33.38.6.32.67.37.59.31.66-.26,0-.33.07-.65-.35-.71-.29,1,1.16.9,1.23-1.52-1.19-1.59-1.12-.46-.18-.52-.12,1.5,1.68,1.44,1.75-.87-.58-.94-.51-.52-.25-.59-.19.31.56.25.62-.49-.22-.56-.15-.81-.54-.88-.48,1.22,1.45,1.15,1.52-.93-.67-1-.61.62.88.56.94S39,99.89,39,100s-.35-.1-.42,0,1.36,1.64,1.29,1.7-1.16-.93-1.23-.87,0,.29,0,.35.85,1.15.78,1.22-1.2-1-1.26-.93-1-.83-1.11-.77,1.57,1.93,1.5,2S36.66,101,36.59,101s1,1.4,1,1.46.39.7.32.76-1.9-1.82-2-1.76.64,1,.57,1-.58-.37-.65-.31.74,1.1.67,1.16-1-.82-1-.76,1,1.37.88,1.42,0,.27-.09.33-1.54-1.51-1.62-1.45-.09.16-.17.22,1.14,1.62,1.07,1.68-.83-.7-.9-.64-1-1-1.12-.92.42.8.35.86.8,1.27.73,1.33-.58-.42-.66-.37-.27,0-.34,0,.63,1.11.56,1.17-.6-.46-.67-.4-.53-.38-.61-.33-.91-.89-1-.83.76,1.31.69,1.36-1.17-1.26-1.25-1.21.77,1.34.69,1.4.28.7.2.75-.32-.12-.4-.07-.95-1-1-1,.57,1.15.49,1.2-1.05-1.21-1.13-1.16.87,1.6.79,1.65-.7-.71-.78-.66.58,1.23.5,1.28.13.55.05.6-1.18-1.5-1.26-1.46.33.89.25.93-.55-.54-.63-.49.71,1.57.63,1.61-1.22-1.7-1.3-1.66-.5-.51-.58-.47.21.75.13.79-.51-.57-.6-.52-.3-.21-.39-.17.86,2,.78,2.09-1-1.59-1.1-1.55-.3-.23-.38-.19.1.62,0,.66-.23-.07-.31,0,.1.67,0,.71-.32-.3-.41-.26-.09.24-.18.27.26,1.19.17,1.22-.6-1.08-.68-1.06.49,2,.4,2-.4-.56-.49-.53-.52-1-.61-1-.07.42-.16.44.14,1.34.05,1.36-.81-2.54-.9-2.52.27,2.09.18,2.11-.48-1.5-.58-1.48,0,.89-.12.9-.05,1.13-.14,1.14-.33-1-.42-1-.28-1.25-.37-1.25-.13.63-.23.63-.17,1.59-.26,1.59-.23,0-.32,0-.16-1.13-.25-1.14-.09-1-.18-1-.28.89-.38.88-.1-.48-.19-.49-.1-.33-.19-.35-.24.3-.33.27-.57,1.2-.66,1.18-.09-.4-.18-.43-.31.19-.39.15.13-.79.05-.83-.67,1.21-.83,1.14,1-2.47.88-2.52-.56.76-.65.71-.1-.19-.19-.23.37-1,.29-1.07-.42.41-.51.37-.13-.11-.21-.15-.58.62-.66.57.31-.82.23-.87-.77.86-.85.81.16-.57.08-.62.42-.88.34-.93-.94,1-1,1-.23,0-.31,0,.53-1,.45-1-1.15,1.14-1.22,1.08,1-1.44.89-1.5-.37.18-.45.12-1.65,1.57-1.72,1.51,1.62-2,1.55-2.09-1.81,1.62-1.88,1.56,1.32-1.59,1.26-1.66-.48.22-.54.16-.72.41-.79.34.07-.31,0-.38.58-.73.52-.8-.38.08-.44,0-1.38.84-1.44.77,1.18-1.12,1.12-1.2-1.59.91-1.64.83,1.67-1.37,1.62-1.45-.86.35-.91.27.91-.76.86-.84-.39,0-.44,0-1.49.61-1.53.53,1-.75,1-.83.55-.45.51-.53-.25-.06-.29-.14-1.48.44-1.51.36,1.79-.91,1.76-1-.29-.06-.32-.14-2,.5-2.05.42,1.66-.72,1.64-.81-2.44.5-2.47.42.05-.25,0-.33,2.72-.82,2.7-.91-1,0-1,0,.29-.23.28-.32.52-.23.51-.32-.35-.12-.36-.21-.07-.15-.08-.24-.46-.13-.47-.22-.19-.17-.2-.26-1-.16-1-.25S10,98.78,10,98.69s1-.14,1-.23-1.09-.21-1.09-.3-1.48-.29-1.47-.38,1.57,0,1.58-.14-.6-.25-.58-.34,1,0,1-.14-.63-.27-.62-.36-1.23-.41-1.21-.5.82,0,.84-.13-.18-.23-.16-.32.28-.13.3-.22.4-.09.42-.18-1.14-.51-1.11-.6S10,95,10,94.89s-.13-.23-.1-.32-.58-.39-.55-.48-.09-.47-.06-.56,2.13,1.21,2.24,1.07S9.89,93.25,10,93.17s1.49.8,1.55.72-1.08-.92-1-1,1,.47,1.11.39-1.23-1-1.18-1,1.47.69,1.52.61-.79-.67-.74-.75,0-.22,0-.3.61.14.66.06-1.16-.8-1.11-.88,2.56,1.1,2.61,1,.25-.1.29-.18-2.57-1.39-2.53-1.48,2.83,1,2.87,1-2-1-2-1.13,2.27.69,2.31.6-.9-.55-.87-.63-1.34-.64-1.31-.73,1.34.23,1.36.14-.69-.38-.67-.47,1.85.25,1.87.16-.45-.32-.43-.41-1.9-.5-1.89-.59,1.27,0,1.28-.1.42-.18.43-.26-.64-.22-.64-.31.21-.2.2-.29-.35-.15-.37-.24-1.07,0-1.09-.05,0-.09,0-.17,1.35-.6,1.32-.69-1,.23-1,.15.8-.62.75-.7-.25-.09-.3-.16.8-.63.7-.77,0-.15-.06-.24-2.28,1.15-2.33,1.07,0-.25,0-.33.71-.59.67-.68-1,.27-1,.19,1.11-.73,1.07-.81-1.48.44-1.52.35S12,83.35,12,83.26s-1.82.5-1.86.42,1.81-.85,1.78-.94-.27-.08-.3-.17.05-.2,0-.28-.35-.08-.38-.17,1.07-.44,1-.53S9.57,82,9.55,82s2.5-.71,2.48-.8.32-.21.3-.3,0-.14,0-.23-.43-.09-.44-.18-1.12,0-1.13-.13.66-.23.65-.32-1.11-.11-1.12-.2.82-.2.82-.3-.26-.17-.26-.26,1.3-.13,1.3-.22-.42-.17-.41-.26-.8-.22-.79-.31-.28-.2-.27-.29.4-.13.41-.22-.55-.27-.53-.36.43-.1.44-.19,1.38.11,1.4,0-.16-.18-.14-.27-2.59-.85-2.57-.94.15-.18.17-.27,2.55.6,2.58.51-1.29-.6-1.26-.69.47,0,.51-.1-.76-.49-.72-.58,1.84.59,1.88.5-2.07-1.11-2-1.19-.21-.33-.17-.41.58.06.62,0,1.84.76,1.89.69S11,73.25,11.05,73.17s.32,0,.37-.13,2.29,1.19,2.35,1.11S12,72.82,12.05,72.74s-.16-.34-.11-.41.73.26.78.19,1.62.94,1.67.87S12.88,72.05,12.94,72s.79.37.85.3.56.23.62.16-1.12-1.16-1.05-1.23.79.43.85.37-.46-.66-.4-.72.43.14.5.07.15-.11.22-.18-.21-.46-.15-.52,1.71,1.44,1.78,1.38S14.84,70,14.9,70s1.61,1.42,1.67,1.36-.59-.89-.52-1,.86.69.93.63-1.07-1.47-1-1.53,1.19,1.1,1.26,1.05.16-.08.23-.14S15.82,68.08,15.9,68s1.71,1.84,1.79,1.78-1.07-1.65-1-1.71,1.11,1.12,1.19,1.06.64.36.77.24-1.06-1.23-1-1.31-.46-.57-.4-.65.16,0,.22-.12.29,0,.34-.07.8.3.85.22.8.23.85.15-2.19-1.34-2.14-1.42.26,0,.3-.1.86.22.9.13.62.06.65,0-.69-.42-.66-.51-.6-.35-.57-.43.16-.1.19-.19-.07-.16-.05-.25.24-.09.26-.18.87,0,.88-.09-.22-.2-.21-.3.37-.12.38-.21-.92-.25-.92-.34,1.69-.06,1.69-.15.81-.17.81-.26-1.37-.22-1.37-.31-.87-.15-.87-.24-.46-.14-.47-.23-.14-.13-.14-.23,2.91-.42,2.9-.51-1.4-.05-1.41-.14.87-.3.86-.39-1.12,0-1.14-.11.32-.24.3-.33-1.22.06-1.24,0,.62-.3.6-.39-.61,0-.64-.12.87-.4.85-.49.46-.31.43-.4.66-.39.63-.48-2.7.63-2.73.55,2.2-.9,2.17-1-1.34.25-1.37.17-.25-.1-.28-.18-.1-.15-.13-.24.9-.54.86-.62-.4,0-.43-.12,1.13-.68,1.09-.76-1.62.49-1.66.41,1.24-.76,1.2-.84.28-.34.24-.43-1.36.43-1.4.35-1.24.41-1.28.33,2.11-1.27,2.07-1.35-.65.12-.7,0,0-.21,0-.29-1,.31-1,.23.66-.58.62-.66.36-.42.31-.5-1.5.65-1.55.57,1.49-1.1,1.44-1.17,0-.21-.09-.29-.24-.46-.29-.54S15.82,54.06,15.67,54s-.25,0-.33-.07-.42.17-.5.11.47-.8.39-.87-1.06.81-1.13.75.22-.52.15-.59,1.29-1.45,1.23-1.51-.7.39-.76.32-.56.22-.62.15-.31,0-.37-.07-.63.22-.69.15,1-1,1-1,.42-.5.37-.57.33-.4.28-.48-.13-.09-.18-.17-.77.25-.82.18.16-.28.12-.36-1.16.38-1.2.3.19-.3.15-.38.39-.37.35-.45-.94.18-1,.1,1.15-.63,1.11-.71.12-.21.09-.3-2.18.49-2.21.41.21-.28.18-.37,2.46-.81,2.44-.9-1.7.22-1.72.13,1.18-.41,1.16-.5-1.19,0-1.21,0-.19-.16-.2-.25.19-.21.18-.3-.77-.12-.78-.21-.08-.2-.09-.29,2.3-.27,2.3-.36.15-.15.15-.24-1.34-.16-1.34-.26.33-.16.33-.25-1-.23-1-.32a2.64,2.64,0,0,1,0-.28c0-.09,1.49,0,1.5-.12s-2-.42-2-.51,2,.1,2,0-1.8-.48-1.79-.56,1.94.18,2,.09-.27-.22-.25-.31-1.87-.62-1.85-.71,1.76.25,1.79.16.65,0,.67-.08-2.45-.9-2.43-1,1.54.27,1.57.19,1.49.31,1.53.22-.76-.43-.72-.51.39,0,.42-.12-1.74-.85-1.7-.94,1.48.4,1.52.31-2-1-2-1.11,2.71,1,2.75.88-1.41-.82-1.37-.9,1.12.32,1.16.24-.87-.62-.83-.7.17-.11.22-.2-.84-.63-.79-.71,1.75.71,1.8.63.31,0,.35-.1-2-1.34-2-1.42,2.48,1.21,2.53,1.13-1.72-1.22-1.67-1.3,1.65.79,1.71.71-.4-.45-.35-.52S13.84,36,13.89,36s.46.07.52,0S16.48,37.1,16.54,37s-.42-.49-.37-.56.24-.05.3-.12-.08-.27,0-.35-.39-.49-.34-.57S14.94,34.34,15,34.27s.67.31.73.24,2.14,1.11,2.19,1-.11-.35-.07-.43-1.38-.93-1.34-1-.32-.32-.28-.4,1.5.42,1.53.33-2-.9-2-1,1.71.37,1.74.29-1.19-.5-1.17-.59,2.66.44,2.68.35-.85-.4-.84-.48,0-.21,0-.29-1.1-.35-1.09-.44,1.32,0,1.33-.12.75-.13.76-.22-.64-.26-.63-.35.66-.16.66-.25-1.65-.26-1.64-.35.37-.17.37-.26-1.37-.19-1.37-.28.62-.17.62-.26-.39-.18-.39-.27.29-.18.29-.27.77-.19.77-.28,1-.19,1-.28.05-.18.05-.27-.1-.18-.1-.27-2.13-.17-2.13-.26.24-.18.24-.27a2.62,2.62,0,0,1,0-.28c0-.09,2.27-.13,2.28-.22s-.58-.18-.58-.27a2.27,2.27,0,0,1,.06-.25c0-.09-1-.24-1-.33s-1.56-.33-1.55-.41.2-.19.21-.28,1.87,0,1.88-.06-1.9-.47-1.89-.56.8-.07.81-.16.51-.1.53-.19-.44-.3-.42-.38,1.12.08,1.14,0,1.16.17,1.18.08-1.87-.77-1.84-.85-.07-.24,0-.32,1.59.43,1.63.35.25-.05.29-.13-1.53-.91-1.49-1-.41-.45-.36-.53.45,0,.5-.07-.15-.34-.1-.42,2.16,1.21,2.22,1.14S18.94,21.25,19,21.18s.45.1.51,0,0-.27,0-.34.58.25.64.18.33.07.4,0,.26,0,.33,0-1.18-1.44-1.12-1.5,1.62,1.42,1.69,1.36-1.37-1.76-1.3-1.82,1.65,1.58,1.72,1.52-.43-.77-.36-.83.21,0,.29-.08.19-.05.26-.1,0-.32.06-.37,1,1.11,1.1,1.06-1-1.68-.88-1.73.48.38.56.34,0-.29.12-.33-.34-1-.26-1,.92,1.26,1,1.22-.05-.49,0-.53-.36-1.21-.27-1.25.08-.37.17-.4.65,1,.74,1a1.48,1.48,0,0,1,.27-.1c.09,0,.12-.28.21-.31s.31.33.4.3.08-.46.17-.48,0-.81.13-.83.31.4.4.38.38,1.07.48,1.06.17-.11.26-.12.19.1.29.09.17-.18.26-.18.18-.81.28-.82.22-.34.31-.34.14,1.45.24,1.46.16.15.25.16.09.66.19.68.26-.71.35-.7,0,.87.11.89.48-1.49.57-1.47,0,.85.08.87.42-.84.51-.81-.18,1.21-.09,1.24.93-2.17,1-2.14.09.4.17.44-.23,1.13-.14,1.17-.09.66,0,.69,0,.34.12.37.54-.7.62-.66-.51,1.36-.43,1.4,1.34-2.09,1.43-2.05-.78,1.72-.69,1.76.26-.11.34-.06.7-.77.78-.72-.27.73-.19.78-.42.9-.34.95,1.64-2,1.72-1.92-.4.86-.32.91,0,.24.12.29.93-.84,1-.78-.33.71-.26.77.65-.45.72-.4-1,1.41-.92,1.47,1.1-.93,1.17-.86.09.19.16.25.26,0,.33.07.26,0,.32.09-.11.39-.05.45-.64.87-.57.93,0,.24.07.3,1.64-1.21,1.7-1.15-.39.62-.33.68-1.21,1.28-1.15,1.35.64-.3.7-.23-.16.35-.1.42.19.08.25.15,1-.52,1-.45-.41.54-.35.61l.17.22c.05.07-.7.73-.64.8s1.84-1.12,1.89-1-.79.8-.73.88-1,1-1,1,1.08-.57,1.14-.5.46-.11.51,0-.89.88-.83.95.08.17.13.24,1-.52,1.07-.45.22.07.27.14-.82.83-.77.9,1-.49,1-.42.18.1.23.17-.48.57-.42.64,0,.25,0,.32-.39.5-.33.58,1.22-.66,1.28-.59-.34.47-.29.54,1.87-1.1,1.92-1-2.46,1.95-2.41,2,.65-.24.71-.17,1-.48,1-.41-.64.67-.59.74.45-.08.5,0,0,.23,0,.3,1-.45,1-.38-1.49,1.23-1.43,1.3-.1.28,0,.35,1-.44,1-.36-.47.53-.42.6,1.39-.7,1.44-.63.61-.18.67-.11-.9.8-.85.88-.81.74-.76.81.61-.18.66-.1.53-.13.58-.05,1.67-.83,1.72-.76,0,.21.07.28-2.48,1.74-2.43,1.82,1.4-.65,1.45-.57-.88.74-.83.81.23.07.28.15-.1.26-.05.34,1.72-.8,1.76-.72,0,.19.08.27.55-.1.6,0-.34.41-.29.48-.43.45-.39.53.17.11.22.19-1.2.83-1.16.91,1.85-.73,1.9-.65.62-.08.66,0,.11.18.15.26.23.12.27.21-1.75.94-1.71,1,.29.07.32.16S48,35.86,48,36s-1.85.9-1.82,1,.65,0,.69,0,0,.21,0,.3,2-.54,2-.46-2.19,1-2.16,1.09,2.16-.61,2.19-.52-2.23,1-2.2,1.12,1.77-.48,1.81-.4-1.22.68-1.19.76.41,0,.44.12,1.08-.25,1.12-.17-.2.27-.16.36-1.69,1-1.65,1.07,2.52-1,2.56-.94-2.43,1.47-2.38,1.55,2.47-1.15,2.52-1.07S48.25,40.91,48.3,41s.65-.17.71-.1a1.88,1.88,0,0,0,.16.23c0,.08.25.06.3.13s-1.09,1.11-1,1.18.82-.39.88-.32,1.16-.78,1.22-.72-.13.36-.06.42l.22.16c.07.06.46-.27.53-.21S50,43.45,50.1,43.5s.21.09.29.14.51-.32.59-.27,1-1.06,1.07-1-.84,1.56-.76,1.61.69-.7.77-.65-.3.86-.22.9,1-1.29,1-1.24-.79,1.85-.7,1.89,1-1.58,1.1-1.54.06.28.15.31.24-.1.33-.07.37-.47.46-.44.07.26.16.29,0,.58.06.61a2.56,2.56,0,0,0,.27,0,2.77,2.77,0,0,0,.26.1c.09,0,.11.26.21.29s.42-1,.51-1,0,.91.07.93.17.06.27.07.07.72.17.73.12.6.21.61.43-2.14.52-2.13.16,0,.26,0,.11,1,.2,1,.14,1.39.24,1.39.21-.52.31-.52.21.88.31.88.18-.93.27-.93.17-.58.26-.59.13-.68.23-.69.33,1.55.42,1.54,0-1.86.07-1.87.52,2.4.61,2.39.24-.06.34-.07-.08-1.1.09-1.15,0-.65.09-.68.55,1,.65,1,.34.25.43.21-.66-1.92-.57-2,1,1.51,1.07,1.47.1-.29.19-.34.44.22.52.16,0-.47,0-.53.58.21.65.14.35-.14.41-.21-.09-.46,0-.54-.31-.48-.28-.56.77-.1.79-.2.38-.33.39-.43-.41-.36-.42-.46-.79-.16-.81-.26.06-.25,0-.34-.4-.07-.44-.16-.89.24-.93.15-.61.21-.66.12,0-.13,0-.21,2.16-1.74,2.1-1.81-.43,0-.49,0,.13-.41.06-.48-.45.1-.52,0-.55.28-.62.22-.87.51-1,.36.69-.63.63-.71.79-.66.73-.74-2.39,1.17-2.44,1.09.5-.5.45-.58-.11-.16-.15-.24,1.53-1,1.49-1-1.67.61-1.72.52,1.25-.76,1.21-.84-1.24.34-1.28.26-.27-.09-.31-.18-.31-.09-.35-.17-.06-.2-.09-.28,2-.81,1.95-.9,0-.16,0-.25-2.05.35-2.07.27-.82,0-.84-.13,0-.25,0-.33,2.31-.53,2.3-.62-.76-.07-.77-.16-.4-.16-.4-.25-.48-.19-.48-.28,1.64-.09,1.65-.18-.76-.22-.74-.31-1.45-.46-1.43-.55,2.56.45,2.59.36-1.76-.72-1.72-.8-.58-.51-.54-.59,2.12.85,2.16.77-.62-.53-.57-.6.34.06.4,0-.49-.64-.43-.71,1,.8,1.11.74-.34-.59-.27-.65.29.13.37.08.62.71.7.66-.15-.48-.07-.52-1-2.25-.89-2.29.27,0,.36,0,.31.14.4.1,1,2.06,1.05,2-.22-1.15-.12-1.18.19,0,.28,0-.2-1.58-.11-1.6.25.09.34.07.68,2.39.77,2.37-.2-2.14-.1-2.16.35,1,.45,1,.23.37.32.36.27.86.36.85-.05-2.54,0-2.55.28,1.09.38,1.09.12-1.12.22-1.12.31,2.7.4,2.7.16-.42.25-.43S66.86,30,67,30s.06-1.13.16-1.13.08.44.24.38.35.45.45.41.29.21.38.17-.61-1.67-.52-1.71,1.24,2,1.32,2-1.07-2.24-1-2.28.57.66.65.61.4.3.48.25-.47-.89-.4-.94,1.15,1.15,1.22,1.09.68.41.75.35,0-.35.06-.41-.15-.43-.09-.5-.65-.73-.59-.8,1.66.86,1.71.78-1.39-1-1.35-1.12,1.77.6,1.81.51-.82-.59-.79-.68.09-.2.12-.28.43-.15.45-.24-.79-.32-.78-.41.29-.18.3-.27.08-.21.08-.3-.35-.15-.36-.24.65.1.69-.06-1.21-.54-1.18-.63,1.28.31,1.32.22-.31-.29-.26-.38.77.27.82.19-.55-.49-.5-.57-1-1-1-1,.84.39.9.32-.08-.33,0-.39.87.63.94.56-.72-1.07-.64-1.12,1.43,1.53,1.51,1.48-.78-1.32-.7-1.37,1,1.2,1,1.15-.1-.4,0-.45-.55-1.43-.47-1.47.83,1.39.92,1.35-.2-.88-.11-.91l.25-.09c.09,0,0-.59.1-.62s.45,1,.55.94-.3-2-.21-2,.32.49.42.48.53,2,.63,1.95-.11-1.85,0-1.87.26.61.36.6.09-1.06.19-1.06.29,1.42.39,1.41.16-.27.26-.27.16-.84.26-.84S77.91,22,78,22s.21-2,.31-2,.17.87.27.87.14.82.24.83.09,1.12.19,1.12.26-1.1.36-1.09.06,1.1.15,1.11.46-2.38.55-2.36.23-.14.32-.13.16.28.25.29.17.2.26.21,0,1.08.11,1.09.21-.15.31-.13,0,.87.1.89.57-1.85.67-1.84-.13,1.5,0,1.52.53-.14.62-.12-1.37-.86-1.31-1,2.09.61,2.13.52-2.14-1.12-2.1-1.21,1.46.47,1.5.39,1,.35,1,.27-.28-.33-.23-.41.67.25.73.17,0-.13.09-.2-1-.94-1-1,.26,0,.32-.1.5.21.57.14-.9-1.05-.83-1.11,1.68,1.4,1.75,1.34-.93-1.2-.86-1.26.29.05.36,0,.66.56.74.51.44.36.52.31S86,19.05,86,19s0-.34,0-.39-.61-1.4-.53-1.45.79,1.08.87,1-.69-1.9-.6-1.93S86.81,18,86.9,18s-.47-1.73-.38-1.76.27.08.36.05.56,1.11.65,1.09l.26-.09c.09,0-.06-1.11,0-1.13s.56,1.79.66,1.77-.08-1.49,0-1.51.28.56.37.55.12-.67.21-.68.3,1.25.39,1.24.09-1.75.19-1.75.21.07.31.07.2,1.2.3,1.2.22-1.37.31-1.37.11,2,.2,2.05.21-.48.3-.47l.27,0c.09,0,.21-.21.3-.2s.08.81.17.83.38-1.34.48-1.32-.16,2-.06,2c-.12,0,1.06-1.5,1.06-1.6s-.93-.22-.89-.32.79.26.85.17-1.7-1.28-1.65-1.36,1.11.51,1.17.44.45.11.51,0-.87-.93-.81-1,.36,0,.43,0,.15-.12.21-.19,1.09.7,1.16.63-.52-.71-.46-.77,1.18.84,1.25.77-.89-1.09-.82-1.15-.75-1-.69-1.09,1.25,1,1.32.93.42.2.49.15.37.79.42.77.11-.08.2-.11.1-.13.19-.16-.29-1.52-.2-1.54.18-.1.27-.12.2,0,.29,0,.36.87.45.86-.11-2,0-2,.25.18.35.18.36,2.09.45,2.08.08-2.54.17-2.55.24.24.33.24.14,2.48.23,2.48.23-1.14.32-1.13.26-.65.35-.64.26-.42.36-.41.17.29.26.3,0,1.37,0,1.38.29-.51.38-.49,0,.67.11.7.72-1.9.81-1.88,0,.79.07.82.34-.39.43-.37.07.45.16.48-.55,2-.46,2,.88-1.73,1-1.7.61-.91.7-.87-.15.85-.07.88-.34,1.17-.25,1.21-.23.85-.15.89,1.07-1.68,1.15-1.64-.84,2-.76,2,1.07-1.56,1.15-1.52.65-.75.73-.7-.73,1.62-.65,1.67-.06.44,0,.49,1.29-1.71,1.37-1.66-.56,1.22-.48,1.26.67-.66.75-.61.28-.06.35,0-1.15,2-1.07,2.05.43-.31.51-.26.92-1,1-.92.27-.05.35,0-1,1.61-.89,1.67.71-.65.79-.59,1-1,1-.93S106.48,18,106.55,18s1.4-1.49,1.47-1.43-1,1.55-.92,1.6.75-.64.82-.58-.47.87-.39.92.28-.06.35,0-.17.49-.09.55,1.24-1.22,1.32-1.16-1,1.5-.94,1.55.38-.16.45-.1,1.81-1.87,1.88-1.81.28,0,.35,0,0,.29.07.35-1.13,1.63-1.06,1.69.46-.27.54-.21,1-.89,1.06-.83-.72,1.13-.64,1.19-.65,1.06-.58,1.12,1.25-1.22,1.32-1.16,0,.24.12.3,1.08-1,1.15-1-1.71,2.37-1.64,2.43,1-1,1.13-.93-.49.9-.42,1,1.26-1.26,1.34-1.2.54-.38.61-.33-1.75,2.47-1.68,2.53.72-.59.8-.54-.25.61-.18.67,1.86-2,1.93-2-1.55,2.25-1.47,2.31.06.21.14.27,1.91-2.13,2-2.07-1.3,1.95-1.22,2,.39-.2.46-.14-.2.56-.12.62.22,0,.29.07,1.64-1.81,1.71-1.76-1.24,1.92-1.16,2,.82-.77.89-.72-.25.65-.18.7.71-.63.79-.58-.82,1.4-.74,1.45,1.22-1.32,1.3-1.27.32-.12.39-.07-1.34,2.13-1.27,2.19.85-.84.93-.79,1.21-1.34,1.29-1.29-.6,1.14-.53,1.2.13.13.21.18.23,0,.31,0,.28-.08.36,0-.78,1.41-.7,1.46.93-1,1-.94-.25.68-.17.73,1.07-1.21,1.15-1.15-.13.5,0,.55.25,0,.32,0-1,1.73-.87,1.78.76-.79.84-.74-.46,1-.38,1.06.79-.84.87-.79-.42,1-.34,1,.71-.73.79-.68-.28.76-.2.81.75-.8.83-.75.23,0,.31,0,.29-.11.37-.07-.51,1.15-.43,1.2.47-.4.55-.35.75-.84.83-.8.12.15.21.2.56-.57.64-.52-.56,1.27-.48,1.32.3-.15.38-.1-.55,1.29-.47,1.34.65-.73.73-.68.54-.56.62-.51.43-.37.51-.33-.79,1.74-.71,1.79.9-1.21,1-1.16-.57,1.37-.48,1.41.56-.62.65-.58.08.22.17.27.68-.86.76-.82-.67,1.62-.58,1.66,0,.31.13.35.11.2.2.24,1.37-2.22,1.46-2.18-.1.58,0,.62S127.82,31.47,127.91,31.51Z" style="fill:#eb8f00"/><path d="M105.92,107.85l-.24,0C105.86,107.84,105.92,107.84,105.92,107.85Z" style="fill:#1c1b1f"/><path d="M7.88,104.42a2.69,2.69,0,0,0,.27,1.14,2.21,2.21,0,0,0,1.19,2.15,2.45,2.45,0,0,0,.74.53,1.81,1.81,0,0,0,.46.85,2.63,2.63,0,0,0,3.16,1.25,2.17,2.17,0,0,0,.45,0,2.42,2.42,0,0,0,.94.52,1.81,1.81,0,0,0,0,.23c-.16,1.57,1.7,2.56,3.11,2.12a2.09,2.09,0,0,0,1.08.09,2.32,2.32,0,0,0,1.68.65l.32,0a5,5,0,0,0,.63-.12,2.46,2.46,0,0,0,1.73-.16,2.61,2.61,0,0,0,1.75-.16,2.42,2.42,0,0,0,2.22-1.86,2.77,2.77,0,0,0,1.15-.15A2.45,2.45,0,0,0,31.4,111a2.6,2.6,0,0,0,1.65-2,2.23,2.23,0,0,0,.9-.6,2.32,2.32,0,0,0,2.4-1.55,1.14,1.14,0,0,0,.11-.11,2.75,2.75,0,0,0,.63-.35,2.18,2.18,0,0,0,1.25-1,2.37,2.37,0,0,0,1.36-.8,2.49,2.49,0,0,0,1.79-1.41,1.78,1.78,0,0,0,.74-1.33l0,0a2,2,0,0,0,1.35-.61,2.4,2.4,0,0,0,1.28-1.7,2.1,2.1,0,0,0,.52-.16,2.22,2.22,0,0,0,.62,1.42,1.82,1.82,0,0,0,.79.88v0a2.39,2.39,0,0,0,.62,2,1.87,1.87,0,0,0,.2.76,2.25,2.25,0,0,0,1.89,2,2.41,2.41,0,0,0,.83.94,2.74,2.74,0,0,0,.51.45,2.37,2.37,0,0,0,2.1,1,2.41,2.41,0,0,0,2.71.54,2.27,2.27,0,0,0,1.09-.14,2.31,2.31,0,0,0,1.64.28,2.53,2.53,0,0,0,3.27-.33c-.16,1.74,1.68,2.39,3.12,2a2.4,2.4,0,0,0,2.82,1.35l.33-.14a2.28,2.28,0,0,0,1.54.19,2.26,2.26,0,0,0,2,1.18,2.4,2.4,0,0,0,3.2,1l.21-.05a2.41,2.41,0,0,0,1.37,1.05,2.5,2.5,0,0,0,.79.69,2,2,0,0,0,1.64.64,3.14,3.14,0,0,0,.45,0,2.37,2.37,0,0,0,3.36,1.08,2.36,2.36,0,0,0,.83.13,2.56,2.56,0,0,0,2.84.51,3.83,3.83,0,0,0,.6,0,2.39,2.39,0,0,0,1.25-.38,2.48,2.48,0,0,0,2.56-.43,2.38,2.38,0,0,0,1.56,0,2.15,2.15,0,0,0,1-.22,2.32,2.32,0,0,0,.82-.18,2.3,2.3,0,0,0,3.34.05,2.12,2.12,0,0,0,1.17-.31,2.37,2.37,0,0,0,2.94.16,2.17,2.17,0,0,0,1.67-1.22,2.46,2.46,0,0,0,2.28-1.62,2,2,0,0,0,1.17.06,2.31,2.31,0,0,0,1.76.81,2.9,2.9,0,0,0,1.61-.45l.26,0h.3a2.33,2.33,0,0,0,2.75-.89,2.31,2.31,0,0,0,1-.27,2.37,2.37,0,0,0,1.55,0,2.66,2.66,0,0,0,1.8-.94,2.49,2.49,0,0,0,.58-.37,2.41,2.41,0,0,0,.85-.34,2.53,2.53,0,0,0,.67-.1,2.17,2.17,0,0,0,1.55-.56l.17-.06a5.14,5.14,0,0,0,.84.67,1.65,1.65,0,0,0,.26.14,2.46,2.46,0,0,0,3.51-.51l.18-.11h.29a2.46,2.46,0,0,0,3-.51,8.86,8.86,0,0,0,1.76-1.77,2.52,2.52,0,0,0,2.48-1.44,2.42,2.42,0,0,0,.54-.61,3.65,3.65,0,0,0,.41-.18,2.14,2.14,0,0,0,1-1.05,2,2,0,0,0,1.16-1.31,2.3,2.3,0,0,0,1.94-1.27,2.59,2.59,0,0,0,2.18-1.22,2.4,2.4,0,0,0,2.05-.88,2.47,2.47,0,0,0,1.35-.5,2.47,2.47,0,0,0,2.77-1.23,2.08,2.08,0,0,0,.32-.12,2.57,2.57,0,0,0,1.18-.32,2.62,2.62,0,0,0,.66-.15,2.2,2.2,0,0,0,2-1.14,2.31,2.31,0,0,0,.48-.28,2.23,2.23,0,0,0,2.15-1.08l.14-.26a2.62,2.62,0,0,0,2.24-.7,2.64,2.64,0,0,0,2.27-.66A2.55,2.55,0,0,0,160,94a2.34,2.34,0,0,0,2.15-1.75,2.32,2.32,0,0,0,1.1-.3l.25-.14a2.46,2.46,0,0,0,.4-.3,2,2,0,0,0,.81-.51l.15-.18a2.5,2.5,0,0,0,1.37-1.51,4.3,4.3,0,0,0,.09-.47,2.56,2.56,0,0,0,1.36-.79,2.83,2.83,0,0,0,.57-.38l.21-.2a1.9,1.9,0,0,0,.65-1.48,2.43,2.43,0,0,0,2.06-1.75,2,2,0,0,0,.58-1.55,3.92,3.92,0,0,0,.25-.32,2.26,2.26,0,0,0,1.46-1.89,2.36,2.36,0,0,0,.42-1.41,2.33,2.33,0,0,0,0-1,2.06,2.06,0,0,0,.21-.48,2.16,2.16,0,0,0,1-1.52,2.26,2.26,0,0,0,.83-2.2,2.29,2.29,0,0,0,.22-2.42,2.36,2.36,0,0,0,.59-2.83,2.55,2.55,0,0,0,.1-.77,2.35,2.35,0,0,0-.52-2.56,3.77,3.77,0,0,0,.4-.83,2.21,2.21,0,0,0-1.07-2.54l-.24-.12a2.13,2.13,0,0,0-.63-1.9,2.28,2.28,0,0,0-.62-2.53A2,2,0,0,0,174,57a2.24,2.24,0,0,0-.76-2,2.51,2.51,0,0,0-1.53-1.73,2.51,2.51,0,0,0-1.13-.68.14.14,0,0,1,0-.06,2.14,2.14,0,0,0-.91-2.43,2.61,2.61,0,0,0-1.8-1.25,2.36,2.36,0,0,0-1.38-.68,1.8,1.8,0,0,0-.48-.79,2,2,0,0,0-1.34-2.05,2.51,2.51,0,0,0-1.74-1,2.41,2.41,0,0,0-2.54-1.55,2.84,2.84,0,0,0-.86-.54,2.66,2.66,0,0,0-1.74-1,2.7,2.7,0,0,0-1.77-1,2.17,2.17,0,0,0-.85-.59,1.85,1.85,0,0,0-.82-.86,2.44,2.44,0,0,0-2.1-.8,2.54,2.54,0,0,0-2-.63,2.38,2.38,0,0,0-1.75-.67,2.61,2.61,0,0,0-2.16-1.31,2.68,2.68,0,0,0-1.86-.5,2.44,2.44,0,0,0-1.72-1.06,2.48,2.48,0,0,0-2.16-.69,1.92,1.92,0,0,0-.79-.68,2.27,2.27,0,0,0-2.15-1.27,2.66,2.66,0,0,0-1.13-.24,2.17,2.17,0,0,0-.79-.39,3.47,3.47,0,0,0-1-.11l-.11-.08a1.7,1.7,0,0,0-.4-.61,2.75,2.75,0,0,0-2.15-1.3,2.29,2.29,0,0,0-1.19.15l-.07,0a2.34,2.34,0,0,0-2.67-1.72l-.15-.05a2.43,2.43,0,0,0-1.15-.8,2.6,2.6,0,0,0-3.34-.94l-.08.05h-.07a2.22,2.22,0,0,0-.45,0,2.16,2.16,0,0,0-.2-.52,2.29,2.29,0,0,0-1.81-1.69,2.34,2.34,0,0,0-2.19-1.6,2.49,2.49,0,0,0-1.49-1.47,2.42,2.42,0,0,0-.74-.61,2.62,2.62,0,0,0-.68-.52,2.37,2.37,0,0,0-.84-.61,2.51,2.51,0,0,0-1.87-1.22,2.42,2.42,0,0,0-2.22-1.54,3.05,3.05,0,0,0-.69,0,2.4,2.4,0,0,0-2.06-1.76,2.14,2.14,0,0,0-.54-.62,2.56,2.56,0,0,0-1.06-.86,2.7,2.7,0,0,0-1.56-.73,2.33,2.33,0,0,0-2.48-1,2.49,2.49,0,0,0-2.2-.35,2.5,2.5,0,0,0-.82-.1l-.33-.24a2,2,0,0,0-2.33,0,2.2,2.2,0,0,0-2,1.5,4.41,4.41,0,0,0-.57-.25,2.4,2.4,0,0,0-3,2.19,2.33,2.33,0,0,0-.38.31h0a5.22,5.22,0,0,0-2.52.55,2.64,2.64,0,0,0-1.22,0,2.94,2.94,0,0,0-.94,0A2.27,2.27,0,0,0,83.48,16a2.13,2.13,0,0,0-.23.58,2.32,2.32,0,0,0-2,1.65,2.14,2.14,0,0,0-1.45-.06h0a2.6,2.6,0,0,0-3,.07,2.66,2.66,0,0,0-.56.12A2.34,2.34,0,0,0,73,19.61a2.25,2.25,0,0,0-1,.54,2.39,2.39,0,0,0-1.32.67,2.29,2.29,0,0,0-1.83,2.53,2.17,2.17,0,0,0-.19,2.2,2.1,2.1,0,0,0-.43.05,2.71,2.71,0,0,0-2.06.8,3,3,0,0,0-.43.07,2.55,2.55,0,0,0-1.36.26,2.64,2.64,0,0,0-.52-.16,2.72,2.72,0,0,0-2.31.59H61.4c-1.18.08-2.46,1-2.35,2.26l0,.17a.53.53,0,0,0-.14.12h0a2.33,2.33,0,0,0-2.35,2A2.54,2.54,0,0,0,56.59,34a3.12,3.12,0,0,0-.53,1.63,2.1,2.1,0,0,0,1.13,1.89,2.71,2.71,0,0,0,.67,1,2.38,2.38,0,0,0,1.45,2.85c0,.07,0,.13,0,.2a2.72,2.72,0,0,0-.79.21,2.75,2.75,0,0,0-1.73-.38,2.54,2.54,0,0,0-1.2-.16A2.31,2.31,0,0,0,53.89,41a.8.8,0,0,0-.16-.08,2.37,2.37,0,0,0-.73-.56,2.65,2.65,0,0,0-.75-.63,1.82,1.82,0,0,0-.39-1,2.19,2.19,0,0,0-.58-1.14,1.9,1.9,0,0,0,0-.53,2.36,2.36,0,0,0-1-2,1.85,1.85,0,0,0-.67-1.59c-.2-.15-.43-.34-.69-.51A2.25,2.25,0,0,0,48,31.37a2.86,2.86,0,0,0-.09-1.21,2.14,2.14,0,0,0-1.76-1.56,2.22,2.22,0,0,0-1-.74,2.35,2.35,0,0,0-.23-.32c.71-1.64-1-3.41-2.81-3a2.09,2.09,0,0,0-.43-.56,2.31,2.31,0,0,0-1.38-2.73,2.37,2.37,0,0,0-2-2.67,2.52,2.52,0,0,0-.46-.29,2.51,2.51,0,0,0-1-1,2.18,2.18,0,0,0-.92-.53,2.19,2.19,0,0,0-1.19-.53,2.45,2.45,0,0,0-1.4-.63c-.66-1.31-2.54-2.15-3.76-.91a2.34,2.34,0,0,0-2.76-.53,2.39,2.39,0,0,0-2.57.19,2.44,2.44,0,0,0-2.57,1.19,2.47,2.47,0,0,0-1.12,1.33A2.64,2.64,0,0,0,18.09,18a1.78,1.78,0,0,0-.7,1.33,2.22,2.22,0,0,0-1,.7,2.36,2.36,0,0,0-.84,2.28,1.72,1.72,0,0,0-.16.63l-.08.12a2.56,2.56,0,0,0-1.23,1.81,2.18,2.18,0,0,0,.39,2.57A2.41,2.41,0,0,0,14.55,29s0,.07,0,.11a2.29,2.29,0,0,0,0,2.13A2.51,2.51,0,0,0,13.5,32.6a2.28,2.28,0,0,0-.8,1.45,2.46,2.46,0,0,0-1.12,1.51,2,2,0,0,0-.92,1.88h0a2.32,2.32,0,0,0-1.15,2.47,2.12,2.12,0,0,0-.68,2.25,2.69,2.69,0,0,0,.11.69A2.33,2.33,0,0,0,9,44.94a2.38,2.38,0,0,0-.25,1.79,2.71,2.71,0,0,0,.37.82,1.62,1.62,0,0,0-.1.18A2.23,2.23,0,0,0,10.34,51a2.72,2.72,0,0,0,.48.73,2.43,2.43,0,0,0,1.08,2.66,2.21,2.21,0,0,0,2.45,1.79h0a2.26,2.26,0,0,0,1.05,2.34,2.16,2.16,0,0,0,.73,2.59s0,0,0,.06a2.27,2.27,0,0,0,0,2.28l.09.12v.05a2,2,0,0,0-.32.66,2.88,2.88,0,0,0-.13.31,2.12,2.12,0,0,0-.7,1.38,2.3,2.3,0,0,0-1.54,2.23l-.14.08a2.28,2.28,0,0,0-1.11.94l-.08.06a2.23,2.23,0,0,0-.89,1,2.34,2.34,0,0,0-1.42,1,2.25,2.25,0,0,0-1.05,1.22,2.29,2.29,0,0,0-.6,1.86,3.52,3.52,0,0,0-.64.76,2.17,2.17,0,0,0,.58,2.87,2,2,0,0,0,.14.53A2,2,0,0,0,8,80.28a2.5,2.5,0,0,0-.28,3.26A2.29,2.29,0,0,0,8.25,85,2.39,2.39,0,0,0,9,86L9,86a2.24,2.24,0,0,0,.87,1.25l0,.15,0,.17a1.49,1.49,0,0,0,.17.44,1,1,0,0,0,0,.24A2.1,2.1,0,0,0,9,89.46a2.5,2.5,0,0,0-.63,1.7,1.58,1.58,0,0,0-.21.38,2.2,2.2,0,0,0-1.24,1.94,2.44,2.44,0,0,0-.42,1.77,2.19,2.19,0,0,0-.21,1.64,2.08,2.08,0,0,0,.15,2.25,2.35,2.35,0,0,0,.32,1A2.78,2.78,0,0,0,6,102.07a2.15,2.15,0,0,0,1.74,2.13A1.59,1.59,0,0,0,7.88,104.42ZM144,41.49a2.8,2.8,0,0,0,1.21,1.2,2.35,2.35,0,0,0,1.3.31,2.21,2.21,0,0,0,1.71,1,2.66,2.66,0,0,0,.65.23,2.55,2.55,0,0,0,2.27.72,2.68,2.68,0,0,0,.83.26,2.84,2.84,0,0,0,1.13.44,2.28,2.28,0,0,0,.74.16,2.53,2.53,0,0,0,.83.39,2.51,2.51,0,0,0,1.44.76,2.53,2.53,0,0,0,1.79,2.31,2.48,2.48,0,0,0,1.59.87,2.19,2.19,0,0,0,.56.14l0,0a1.93,1.93,0,0,0,.62,1.26,2.55,2.55,0,0,0,1.48,1.4,2.49,2.49,0,0,0,1,.74,2.08,2.08,0,0,0,1.52,1.22,2,2,0,0,0,.73,1.81.6.6,0,0,0,.06.11,2.34,2.34,0,0,0,1.2,1.47,2.29,2.29,0,0,0,.41.79,2.31,2.31,0,0,0,.57,1.44,1.87,1.87,0,0,0,.67,1.38l.11.08a2.27,2.27,0,0,0,.3.46,1.74,1.74,0,0,0,0,1,2.13,2.13,0,0,0,.65,1.62,2,2,0,0,0,0,.84,2.19,2.19,0,0,0,0,1.19,1.87,1.87,0,0,0,.08.94,2.72,2.72,0,0,0,.2.61,2.28,2.28,0,0,0,0,2,1.8,1.8,0,0,0-.1.46,2.55,2.55,0,0,0-.71,1.59,2.16,2.16,0,0,0-.45,1.55,2.29,2.29,0,0,0-.22.76,2.54,2.54,0,0,0-.37.8,2.37,2.37,0,0,0-.75,2.93,2.54,2.54,0,0,0-.91.81,2.16,2.16,0,0,0-.27.25A2.4,2.4,0,0,0,164.66,81a2.31,2.31,0,0,0-.9,1,2.43,2.43,0,0,0-1,1.45,2.86,2.86,0,0,0-.71.38,2.49,2.49,0,0,0-1.83,1.32,2.4,2.4,0,0,0-1.56,1.57,2.19,2.19,0,0,0-.79,1.36,2.5,2.5,0,0,0-2.79,1l-.06.1a3.2,3.2,0,0,0-.93.09,2.47,2.47,0,0,0-2.28,1.6l-.15.1h-.1a1.92,1.92,0,0,0-1.18.73,2.55,2.55,0,0,0-.33.17l-.35.13a2.66,2.66,0,0,0-2,.21l-.13,0A2.54,2.54,0,0,0,146,93.67a2.51,2.51,0,0,0-.66.41,2.44,2.44,0,0,0-2.21.47,2.31,2.31,0,0,0-1.82.76,2.41,2.41,0,0,0-1.39.4,2.22,2.22,0,0,0-1.59,1.08h0a2.72,2.72,0,0,0-.71.25,3.2,3.2,0,0,0-.45.3,2.42,2.42,0,0,0-3.08,1.84l-.06.12a3.85,3.85,0,0,0-.69.12,2.15,2.15,0,0,0-.67.3,1.64,1.64,0,0,0-.74.29l-.23.17a3,3,0,0,0-1.1,1.41,2.44,2.44,0,0,0-2.32,2l-.07.07a2.41,2.41,0,0,0-1.93,1.19,2.22,2.22,0,0,0-.44.72,2.47,2.47,0,0,0-.94.3,2.42,2.42,0,0,0-1.31.27,4.09,4.09,0,0,0-3.09-.08,2.5,2.5,0,0,0-.43-.16,2.61,2.61,0,0,0-2.74-.32,2.29,2.29,0,0,0-2.78,1.79l-.16.06a2.23,2.23,0,0,0-2.8.46,2.56,2.56,0,0,0-1.69.76,2.16,2.16,0,0,0-1.3-.58,2.58,2.58,0,0,0-1.69-.11,3,3,0,0,0-1-.1s-1,.26-1.18.32a3.45,3.45,0,0,0-.43-.12,2.54,2.54,0,0,0-2.92,1.67,2.74,2.74,0,0,0-1.07.41,2.47,2.47,0,0,0-1.47.85,2,2,0,0,0-1.62.27c-.13.09-.26.18-.38.28a2.27,2.27,0,0,0-1.07,0,2.87,2.87,0,0,0-.49-.26,2.48,2.48,0,0,0-2.55,0,1.94,1.94,0,0,0-.67-.09l-.53,0a2.54,2.54,0,0,0-.54.09,1.9,1.9,0,0,0-1.18,0,1.91,1.91,0,0,0-1.86.18,4.7,4.7,0,0,0-.72.64,2.67,2.67,0,0,0-1.53.36,2.15,2.15,0,0,0-1.62-.65l-.33,0a2.36,2.36,0,0,0-1.44-.86,1.89,1.89,0,0,0-.85-.19l-.1,0a2.31,2.31,0,0,0-1.53-.9,2.64,2.64,0,0,0-1-.29,2.85,2.85,0,0,0-.18-.43,2.44,2.44,0,0,0-3.07-.9,2.53,2.53,0,0,0-.64-.31,1.92,1.92,0,0,0-.23-.35A2.72,2.72,0,0,0,72.08,106a2.29,2.29,0,0,0-1.64-.73,2.67,2.67,0,0,0-1.68.28,2.59,2.59,0,0,0-.68-.09,2.34,2.34,0,0,0-1.82-.18l-.26,0a3.57,3.57,0,0,0-.47,0,2.38,2.38,0,0,0-.39-.8,2.55,2.55,0,0,0-1.64-1.59c1.19.4.43.22,0-.17a2.46,2.46,0,0,0-3.23,0,2.43,2.43,0,0,0-.38,0,2.81,2.81,0,0,0-.87,0,2.6,2.6,0,0,0-.88,0,2.24,2.24,0,0,0-.58,0,2,2,0,0,0-.92-.06,2.74,2.74,0,0,0-1.14,0,2.09,2.09,0,0,0-1.88-1.6,2.52,2.52,0,0,0-.67-1,2.09,2.09,0,0,0,0-.66,2.12,2.12,0,0,0-.58-2,2.31,2.31,0,0,0-1-3.06,2.35,2.35,0,0,0-.68-.61,2.44,2.44,0,0,0-2.22-1.63,2.21,2.21,0,0,0-1-.16,2.45,2.45,0,0,0-.6-.06,2.64,2.64,0,0,0-1.47-.24A2.25,2.25,0,0,0,42.59,93c0,.11,0,.2,0,.3l-.18,0h0a2.22,2.22,0,0,0-2.24,2.23,2.19,2.19,0,0,0-1.43,1.05,2.6,2.6,0,0,0-1.57,1.49c-.07,0-.14.12-.21.18a2.44,2.44,0,0,0-1.86,1,2.54,2.54,0,0,0-.24.2,2.17,2.17,0,0,0-1.17,1.35l-.2.11a2.38,2.38,0,0,0-2.09,1.48l-.17.06a2.37,2.37,0,0,0-1.86,1.33A2.51,2.51,0,0,0,28.16,105a2.17,2.17,0,0,0-1.23.2,2.87,2.87,0,0,0-1.45.44,2.27,2.27,0,0,0-1.38,1.38,2.59,2.59,0,0,0-2.41.18,2.4,2.4,0,0,0-1,.17,2.48,2.48,0,0,0-.47,0,2.14,2.14,0,0,0-.51-.53,2.47,2.47,0,0,0-1.87-1.09,2.25,2.25,0,0,0-1.48-.85,1.92,1.92,0,0,0-.35-.23,2.88,2.88,0,0,0-1.28-.61,2,2,0,0,0-.33-.39,2.12,2.12,0,0,0-.57-1.26s0,0,0,0a2.2,2.2,0,0,0-.49-1.7,2.13,2.13,0,0,0-.27-1.09,2.47,2.47,0,0,0-.1-.29,2,2,0,0,0-.41-2.48l-.06-.23a2.3,2.3,0,0,0,1.32-2.38s0,0,0-.06a2.79,2.79,0,0,0,1.84-1.32,2.32,2.32,0,0,0,.4-.63,2.29,2.29,0,0,0,.5-1.56,2.57,2.57,0,0,0-.2-3,2.22,2.22,0,0,0-.57-1.3,2.14,2.14,0,0,0-.15-.93,2.19,2.19,0,0,0,.16-1.65,2.1,2.1,0,0,0-1.35-1.44,2.25,2.25,0,0,0,.11-.93,2.37,2.37,0,0,0-.21-1.77,2.41,2.41,0,0,0,0-1.1A2.41,2.41,0,0,0,14.63,77s0-.1,0-.16a2.19,2.19,0,0,0,.38-1,2.5,2.5,0,0,0,.87-.9,2.23,2.23,0,0,0,.78-1.34,2.8,2.8,0,0,0,1.21-.59,2.64,2.64,0,0,0,.41-.32,2.16,2.16,0,0,0,.82-.85,1.59,1.59,0,0,0,.26-.32,2.2,2.2,0,0,0,1.51-2.17,2.31,2.31,0,0,0,.6-2.92,2.82,2.82,0,0,0-.09-.91,4.41,4.41,0,0,0,.79-.37,2.3,2.3,0,0,0,1.06-2.61A2.38,2.38,0,0,0,22.49,60a.86.86,0,0,0-.07-.1,2.15,2.15,0,0,0-.69-2.76,2.4,2.4,0,0,0-.15-1.43,2.31,2.31,0,0,0-1-1.76,2.13,2.13,0,0,0-.56-.6,4.65,4.65,0,0,0-.68-2,2.41,2.41,0,0,0-2.18-1.11,3,3,0,0,0-.24-.26,2.24,2.24,0,0,0-.66-1.4,3.49,3.49,0,0,0-.49-.39,2.4,2.4,0,0,0-.11-2,2.37,2.37,0,0,0-.35-2.18,3.12,3.12,0,0,0,.09-.44v0a2.25,2.25,0,0,0,1.05-2.22,2.32,2.32,0,0,0,.27-1.32A2.41,2.41,0,0,0,18,38.73a2.21,2.21,0,0,0,.76-1.11,2.31,2.31,0,0,0,1.45-2.51,2.36,2.36,0,0,0,1.09-2.66,2.13,2.13,0,0,0,.22-1,2.26,2.26,0,0,0-.46-2,2.64,2.64,0,0,0,.17-1.32,2.12,2.12,0,0,0-.09-2.27,2.32,2.32,0,0,0,.89-1.8,2.2,2.2,0,0,0,.77-1.43l.21-.13a2.43,2.43,0,0,0,2.55-2.43,3,3,0,0,0,.3-.43,2.34,2.34,0,0,0,.88.08,2.56,2.56,0,0,0,.92.72,2.43,2.43,0,0,0,1.71.37,2.25,2.25,0,0,0,1.79,1.07,2.13,2.13,0,0,0,2.44.66,2.34,2.34,0,0,0,.51.23,2.44,2.44,0,0,0,.14.28,2.27,2.27,0,0,0,1.08,1.69,2.13,2.13,0,0,0,.13.45,2.32,2.32,0,0,0,1.45,2.1,1.93,1.93,0,0,0,.53.46l.14.16A2.33,2.33,0,0,0,38,29.1a2.29,2.29,0,0,0,1.27,1.54,1.84,1.84,0,0,0,1.27,1.78,2.58,2.58,0,0,0,.38.69,2.38,2.38,0,0,0,1.27,1.59,2.12,2.12,0,0,0,.59.64,2.09,2.09,0,0,0,1.16,2,2.27,2.27,0,0,0,.49,1.12,2.31,2.31,0,0,0,.5,1.35A2.7,2.7,0,0,0,45,41.2a2.18,2.18,0,0,0,1.14,1.54,2.26,2.26,0,0,0,1.89,1.87,2,2,0,0,0,.85.84,3.47,3.47,0,0,0,1,.3l0,0c.56,1.34,2.72,1.61,3.87.67l.13-.12.24.13c.06.15.12.3.19.45A2.15,2.15,0,0,0,56.67,48a2.62,2.62,0,0,0,2.78.32,2.59,2.59,0,0,0,1.3,0,2.67,2.67,0,0,0,1.4-.74A2.41,2.41,0,0,0,63.41,47a2.39,2.39,0,0,0,1.1-.58,3.9,3.9,0,0,0,.69-.3,2.23,2.23,0,0,0,1.16-1.89l.18-.18a2.28,2.28,0,0,0,0-3.19,5.08,5.08,0,0,0-.62-.61,2,2,0,0,0-.47-2.21,2.49,2.49,0,0,0-.84-.93,2.39,2.39,0,0,0-.63-.64,2.21,2.21,0,0,0-.36-.68l0-.28a1.74,1.74,0,0,0-.35-1.22,2.54,2.54,0,0,0,.83-.77,1.74,1.74,0,0,0,.26-.15,2.36,2.36,0,0,0,.37,0,2.42,2.42,0,0,0,.71.08,2.59,2.59,0,0,0,3-.95l.09-.17a2.24,2.24,0,0,0,2.18-.83,2.52,2.52,0,0,0,2.1-1.3,2.81,2.81,0,0,0,1-.86,2.38,2.38,0,0,0,.46-2.53,2.21,2.21,0,0,0,0-.68.69.69,0,0,0,.11-.13,2.49,2.49,0,0,0,.68-.32,2.51,2.51,0,0,0,.93-.72,2.42,2.42,0,0,0,1.64-.4,2.59,2.59,0,0,0,1.67.46,2.17,2.17,0,0,0,1.35-.24,2.57,2.57,0,0,0,2-.26l.62-.11a2,2,0,0,0,1.16-.68,2.7,2.7,0,0,0,.88-.72,1.87,1.87,0,0,0,1.12-.93l.11-.24a3.26,3.26,0,0,0,.4-.24,2,2,0,0,0,1.45-1.47,2.31,2.31,0,0,0,1.49-.37,2.06,2.06,0,0,0,.35.12c1,1.42,3.86,1.26,4.22-.67-.13.67.18-.12.35-.37a7.77,7.77,0,0,0,.48-.69,3.05,3.05,0,0,0,.2-.53,2.57,2.57,0,0,0,1-.48,2.44,2.44,0,0,0,.44-.19,4.53,4.53,0,0,0,.73-.52h.06a2.41,2.41,0,0,0,1.77,0,2.61,2.61,0,0,0,1.53.89,2.58,2.58,0,0,0,2.1.67,2.27,2.27,0,0,0,1.34,1,2.48,2.48,0,0,0,1.32,1.15,2.25,2.25,0,0,0,.4.52,2.4,2.4,0,0,0,1.86,1A2.34,2.34,0,0,0,109.46,23a2.31,2.31,0,0,0,.53.4,2.38,2.38,0,0,0,1.51,1.23,2.27,2.27,0,0,0,1.63.87,2.3,2.3,0,0,0,.74.36l.24.05.14.21a2.41,2.41,0,0,0,2.44,1.8,2.41,2.41,0,0,0,1.21.77,3.81,3.81,0,0,0,1.55,1.17,2.8,2.8,0,0,0,1.16.39,2.36,2.36,0,0,0,.54.12,2.19,2.19,0,0,0,.87.37,2.62,2.62,0,0,0,2.25,1.16h0a2.33,2.33,0,0,0,.7.36c.14.21.29.41.45.61a1.78,1.78,0,0,0,.81.55,2.59,2.59,0,0,0,2.12,1.32l.32,0a2.13,2.13,0,0,0,1.23.45,1.85,1.85,0,0,0,1,.61,2.3,2.3,0,0,0,.58.31,2.48,2.48,0,0,0,2.13.88,2.4,2.4,0,0,0,.9.27,2.48,2.48,0,0,0,3.46,1,3.19,3.19,0,0,0,.26.26,2.55,2.55,0,0,0,1.58.63,2.44,2.44,0,0,0,.93.36,2,2,0,0,0,.89.67,2.3,2.3,0,0,0,1.14.71l.34.07A2.2,2.2,0,0,0,144,41.49ZM11,79.08l.06,0h0ZM155,43.34s0,0,0,0h0Z" style="fill:#1c1b1f"/><path d="M146.49,51.17c2.69-1.29,5.07,2.6,2.36,3.89a2.69,2.69,0,0,0-.53.28.24.24,0,0,0,0,.08c0,.48-.25.72,0,1.21.4.79,1.5,1,2.26,1s2,0,2.41-.56a1.5,1.5,0,0,0-.89-2.19c-2.78-1.05-1.57-5.41,1.24-4.35,1.65.63,2.88,1.14,3.7,2.75a6.81,6.81,0,0,1,.71,4.2c-.61,3.07-3.44,4.6-6.47,4.63s-5.88-.88-7.2-3.64a6,6,0,0,1-.33-4A4.37,4.37,0,0,1,146.49,51.17Z" style="fill:#b25e00"/><path d="M118.28,60.76a3.77,3.77,0,0,1,.47-1.23,3.63,3.63,0,0,1,1.11-1.19,2.37,2.37,0,0,1,1.52-1.55c-.12-.18-.25-.36-.37-.56a4.92,4.92,0,0,1-.48-1.07,1.4,1.4,0,0,1-.33-.31,2.5,2.5,0,0,1-.69-1.6c0-.35.08-.7.14-1q-.08.6-.18.12c-.49-2.24.49-3.61,1.75-5.38.54-.77.68-1.21,1.14-1.88a2.23,2.23,0,0,1,1.71-1,2.13,2.13,0,0,1,.26-.32c2-2.14,5.36,1.06,3.31,3.18.65-.67.38-.35,0,.29a3,3,0,0,1-.75.83,2.1,2.1,0,0,1-1.13.4,20.32,20.32,0,0,1-1.14,1.71c-.27.36-.58.65-.6,1.07,0,.23.24.6.28.85a3,3,0,0,1,0,.31,2.15,2.15,0,0,1,.32.39c.23.38.22.83.43,1.21a2.43,2.43,0,0,0,1.88,1.25c2.19.46,2.28,3.95,0,4.35a6.14,6.14,0,0,0-1.44.62,2.74,2.74,0,0,1-.75.18,2.69,2.69,0,0,1-1,.5,1.76,1.76,0,0,1-.37.56l-.47.36-.08,0a5.79,5.79,0,0,1,0,.74c-.11.4-.54.76-.59,1.15a3.62,3.62,0,0,0,.52,1.95c0-.08.66.43.81.57a2.25,2.25,0,0,1,.26.31,2.88,2.88,0,0,1,.66.23l.29.18.44-.06c2.27-.27,3.26,3.32,1.19,4.2l-.56.24a3,3,0,0,1-.12.77c-.21.7-.16,1.34-.34,2a2.26,2.26,0,0,1-.1.34c.09.26.24.53.3.77a8.94,8.94,0,0,1,.25,1.7,5.14,5.14,0,0,1,.47.9l.72.5c2.81-.93,4,3.38,1.2,4.35a3.38,3.38,0,0,1-3.35-.31,10.92,10.92,0,0,1-2.34-1.71,2.72,2.72,0,0,1-.51-1.28c.07.43-.17.09-.5-.5-.46-.81-.28-1.79-.53-2.65a5.47,5.47,0,0,1-.3-2.88c.14-.77.39-1.59.49-2.37,0,.18-.07-.11-.09-.4a2.47,2.47,0,0,1-.42-.3,3,3,0,0,1-.6-.85l-.13-.08c-1.15-.67-1.94-2.6-2.16-3.82a10.08,10.08,0,0,1-.25-2.05,7,7,0,0,1,.7-2.08C118.19,61.62,118.24,61,118.28,60.76Z" style="fill:#b25e00"/><path d="M113.78,38.91Z" style="fill:#b25e00"/><path d="M108.63,89.52l.11.22a4,4,0,0,0,3,1.86h.54l.22.27c1,1,2.21.84,3.44.41,2.69-.93,1.7-4.93-.86-4.44a5.23,5.23,0,0,0-.88-.47,3.59,3.59,0,0,0-1.43-.42h-.14a.75.75,0,0,1-.07-.12,3.09,3.09,0,0,0-1.05-.86c.27.16-.55-.73-.55-.73a3.17,3.17,0,0,0-.46-.36,12.07,12.07,0,0,0-.74-1.25,10.42,10.42,0,0,0,0-1.85,3.16,3.16,0,0,0,.53-.5,2.24,2.24,0,0,0,.45-1,1.91,1.91,0,0,0,.66-.64,1.53,1.53,0,0,0,.23-.67,2.25,2.25,0,0,0,0-4.33c.3.11.15,0-.45-.19a2.4,2.4,0,0,0-1,0l-.09-.06a2.4,2.4,0,0,0-.94-.29,9.78,9.78,0,0,0-1-1.44l-.06-.05a2.42,2.42,0,0,0-.07-.51,2.15,2.15,0,0,0,0-1.5,2.2,2.2,0,0,0,1-.83l.12-.26a3.23,3.23,0,0,0,.7-.53,19.12,19.12,0,0,0,2-.8c2.23-.92,1-4.19-1.19-4.2h-.09a3,3,0,0,0-.69-.59,3.8,3.8,0,0,0-1.51-.43c-.18-.19-.68-.71-.67-.6a7.38,7.38,0,0,0-.44-.95,6.3,6.3,0,0,0-.48-.57c.12,0,0-.66-.12-.94a4.78,4.78,0,0,0-.44-1,.43.43,0,0,1,0-.07c.1-.37.06-.7.17-1.14s.38-.73.39-1.19a1.18,1.18,0,0,0,0-.27,3.5,3.5,0,0,0,.77-.82,2.86,2.86,0,0,0,.38-1l.07,0a4.89,4.89,0,0,0,1.61-1.2c.11-.13.44-.6.37-.61a6.25,6.25,0,0,0,.66-.43,1.27,1.27,0,0,1,.16-.15c2.06-.28,3.36-3,1.12-4.19-.94-.48-1.11-1-1.89-1.59a4.38,4.38,0,0,0-.48-.3,2.42,2.42,0,0,0,.15-1.25c.1-.23.18-.47.28-.75a9.87,9.87,0,0,0,.35-1.26,2.24,2.24,0,0,0,.74-.7,3.7,3.7,0,0,0,.41-1,2.61,2.61,0,0,0,1.77-.9,3.57,3.57,0,0,0,.47-.7,3.43,3.43,0,0,1,.23-.4,2.33,2.33,0,0,1-.29.3c2.24-2-1.09-5.14-3.31-3.19a2.3,2.3,0,0,0-.5.68,4.39,4.39,0,0,0-2.77,2.58,2.67,2.67,0,0,0-1.23,2c0,.1,0,.19-.05.27l0,0a1.92,1.92,0,0,0-.22.51,2.9,2.9,0,0,0-.53.41,2.31,2.31,0,0,0-.36,2.73.74.74,0,0,0,.14.22,3.53,3.53,0,0,0,1.53,4.05l.11.06-.21.23a.44.44,0,0,0-.1.15,2.37,2.37,0,0,0-.87.18,2.27,2.27,0,0,0-1.63,1.57c-.08.38,0,.83-.12,1.2-.07-.09-.81.69-.81.69a2.48,2.48,0,0,0-.68,2.55,2.91,2.91,0,0,0-.25.93h0a2.42,2.42,0,0,0-.34,3.15,2.74,2.74,0,0,0,.68.68s0,.07,0,.23c.08,1.24.76,1.76,1.37,2.68-.2-.26.26.78.33.88a11.85,11.85,0,0,0,1,1.14q.17.21.33.39a1.79,1.79,0,0,0-.27.6c0,.13,0,.26-.07.39A3.08,3.08,0,0,0,103,69a3.25,3.25,0,0,0,.2,2.39,3,3,0,0,0,0,1.73c.3.64.32.71,0,.22a2.8,2.8,0,0,0,.07,1,2.4,2.4,0,0,0,.83,1.18,2.3,2.3,0,0,0,.72.47,9.65,9.65,0,0,0,.73,1.24,3.54,3.54,0,0,0,.84.68,2.42,2.42,0,0,0-.24.62A2,2,0,0,0,105,80.11a8,8,0,0,0-.06,1.69,12,12,0,0,0,.21,1.33,6.28,6.28,0,0,0-.09,1.47,5.33,5.33,0,0,0,.81,1.57c.09.12.19.22.29.33s0,.15.1.42a4.28,4.28,0,0,0,1.26,1.48h0a7.61,7.61,0,0,0,.55.72A4.11,4.11,0,0,0,108.63,89.52ZM102,61h0v0Zm9.52,25h0ZM104.94,76l.27.09Q105,76.19,104.94,76ZM111,51.46a.2.2,0,0,0,0-.08S111.05,51.43,111,51.46Z" style="fill:#b25e00"/><path d="M95.08,87.33a4.8,4.8,0,0,0,.76.11c.84.84,1.83,1.52,2.72,2.33,2.19,2,5.51-1.18,3.32-3.18-.42-.38-.72-.83-1.17-1.19s-1-.55-1.41-.9c-.58-.47-.78-1-1.41-1.35a0,0,0,0,1,0,0,4.05,4.05,0,0,0-1.26-1.38A2.31,2.31,0,0,0,96,80.36a1.36,1.36,0,0,0-.4-.29,2.31,2.31,0,0,0-.27-1.49h0l.09-.14a1.6,1.6,0,0,0,.29-1.23,2.68,2.68,0,0,0,.29-.36,1.58,1.58,0,0,0,.2-.49,2.25,2.25,0,0,0-1.56-4.2,1.49,1.49,0,0,0-.14-.12L94.38,72l-.22-.49a2.82,2.82,0,0,0-.31-.63l.1-.14a4,4,0,0,0,.27-1.08,3.14,3.14,0,0,0,.33-.34c2.51-.53,1.94-4.16-.41-4.4-.29-.25-.58-.48-.89-.7a3.94,3.94,0,0,0-.1-1.14,2.23,2.23,0,0,0-.59-.93,6.51,6.51,0,0,0-.31-1.39,1.63,1.63,0,0,0,.13-.37c.13-.53-.1-.87,0-1.34,0-.3.37-.56.39-.82l.11-.06a13.35,13.35,0,0,0,1.78-1.56,5.43,5.43,0,0,0,1.68-1.76,2.25,2.25,0,0,0-.84-3.09,14.89,14.89,0,0,1-1.53-1.19,3.59,3.59,0,0,0-1.17-.63c-.24-.42-.56-.91-.57-.52,0-.62.19-1.29.16-1.91a10.43,10.43,0,0,0-.24-2,2.14,2.14,0,0,0-.1-.22,2.85,2.85,0,0,0,.45-.82,8.57,8.57,0,0,1,.5-1.7c.19-.3.38-.58.56-.85a6.68,6.68,0,0,0,2.56-1.35c2.23-2-1.09-5.14-3.31-3.19l-.14.11c-.27.07-.54.14-.81.23A3.1,3.1,0,0,0,90,38.87s-.62,1-.46.83a6.78,6.78,0,0,0-1,1.31A8.86,8.86,0,0,0,88,42.83c.29-.32.3-.32,0,0l-.45.58a4.25,4.25,0,0,0,0,3.3s.07.59.11,1c0-.31-.06.86-.07,1a4.54,4.54,0,0,0,.91,3.34,5.1,5.1,0,0,0,2.2,2,7,7,0,0,0-1.5,1.05,5.82,5.82,0,0,0-1.45,4.2,2.74,2.74,0,0,0-.32,1.54c.06.51.41.91.49,1.34.14.7-.11,1.28.28,2a2.09,2.09,0,0,0,.4.49,3.31,3.31,0,0,0,1.52,2.91h0a4.73,4.73,0,0,0-.2.47,6.92,6.92,0,0,0-.67.48,2.45,2.45,0,0,0-.74,1.92,4,4,0,0,0,.55,2,2.42,2.42,0,0,0,.7.76l0,0a4.79,4.79,0,0,0,1.34,2,2.09,2.09,0,0,0-.22.48,2.89,2.89,0,0,0,0,1.21,3.73,3.73,0,0,0-.13,3,3.15,3.15,0,0,0,.1,2.23,2,2,0,0,0,1.3,1.31,2.35,2.35,0,0,0,1.06,1.43l.09.07a4.41,4.41,0,0,0,.11.79A2.31,2.31,0,0,0,95.08,87.33ZM93,50.38l0,0S93,50.38,93,50.38Z" style="fill:#b25e00"/><path d="M74.39,72.91a4.22,4.22,0,0,0-.61,1.35,8,8,0,0,0,0,3.41,3.51,3.51,0,0,0,.71,1.49,2.12,2.12,0,0,0,.82,2l.61.5a4.82,4.82,0,0,0,.39.88c1.16,1.75,4.51,2.18,6.32,1.38s1.36-3.07,0-3.89a2.86,2.86,0,0,0-2.23-.27l-.17-.07a2.49,2.49,0,0,0-.47-.85,2.76,2.76,0,0,0-.61-.52,1.8,1.8,0,0,0-.25-1,3.06,3.06,0,0,0-.66-.73.13.13,0,0,0,.1,0,3.39,3.39,0,0,0,.06-.71l.41-.19.24-.18c1.77-.46,2.2-3.34.42-4.08a7.75,7.75,0,0,1-.71-.34,3.54,3.54,0,0,0-1.21-1.41c-.63-.49.83.5-.22-.26a.93.93,0,0,1-.22-.3,2.88,2.88,0,0,0,.13-.31,2.3,2.3,0,0,0,.07-1.35,2.72,2.72,0,0,0-.35-.65,1.72,1.72,0,0,0,.27-.56,2.62,2.62,0,0,0,0-1.08l0,0,.1-.18.08,0a1.91,1.91,0,0,0,.51-.32c.51-.4.55-.94.82-1.39,0,0,.11,0,.34-.08,2-.78,2.43-3.72,0-4.34A6.14,6.14,0,0,1,78,58.33a1.21,1.21,0,0,0,0-.14c-.07-.18-.15-.36-.23-.54a3,3,0,0,0-.84-.82v0a3.7,3.7,0,0,0-.44-1.62c.11-.24.24-.57.27-.64a5.18,5.18,0,0,1,.33-1c.23-.36.7-.57,1-.89s.38-.82.74-1.28c-.18.24.27-.21.33-.26a2.1,2.1,0,0,0,.68-.46,1,1,0,0,0,.18-.16l.09,0,.32-.08a3.2,3.2,0,0,0,1.34-.91,12.93,12.93,0,0,0,.81-1,7.35,7.35,0,0,0,.72-.61c2.36-1.81-1-5-3.31-3.19a3.86,3.86,0,0,0-1.2,1.18,3.06,3.06,0,0,1-.21.29,4.76,4.76,0,0,0-2,1.19,6.79,6.79,0,0,0-2,2c-.33.51-1,1.06-1.49,1.83-.94,1.47-2,4-1.07,5.65a1,1,0,0,0,.25.34,3.15,3.15,0,0,0,.06.39,7.51,7.51,0,0,0,.23,1.34,2.61,2.61,0,0,0,1.27,1.41,4.4,4.4,0,0,0,.76,1.07A4.36,4.36,0,0,0,72.61,65a3.26,3.26,0,0,0-.08,3.09,3.16,3.16,0,0,0,.26,2.79A6.9,6.9,0,0,0,74.39,72.91Zm1.49,8.19a.41.41,0,0,0,0,.12A.49.49,0,0,1,75.88,81.1Zm4.9-1.29c.18-.06.13,0,0,0Z" style="fill:#b25e00"/><path d="M64.3,73.56c.06.07.37.41.52.61l.61.22c2.87.85,1.65,5.2-1.25,4.34a6.17,6.17,0,0,1-3.33-2c-.85-1-1.7-1.58-2-2.93a6.08,6.08,0,0,1,.82-4.82c-.48-.57-.92-1.19-1.32-1.74a7.73,7.73,0,0,1-1.25-4.94c.2-3.65,2.82-6,6-7.55,2.66-1.35,5,2.54,2.36,3.9a6.72,6.72,0,0,0-2.6,1.7,8.9,8.9,0,0,0-.73,1,.92.92,0,0,1,0,.16,2.14,2.14,0,0,1-.24,1,3.34,3.34,0,0,0,.43,2.22,13.68,13.68,0,0,0,1.1,1.28,3.67,3.67,0,0,1,.5.69l.17.1a2.22,2.22,0,0,1,.48,3.54c-.79.75-1.41,1.45-1.07,2.56C63.27,72.28,64.06,73.26,64.3,73.56Z" style="fill:#b25e00"/><path d="M47.08,54.18a9.83,9.83,0,0,1-4.6-1A11.62,11.62,0,0,1,40.27,52l-.1-.08a1.22,1.22,0,0,1-.2-.1,8.17,8.17,0,0,1-1.38-.86c-1.08-.88-2.09-1.76-3.18-2.61a16.45,16.45,0,0,1-1.72-1.51S33,46,33.12,46c-.25-.2-.53-.36-.78-.55a23.53,23.53,0,0,1-5.77-5.84,23.31,23.31,0,0,1-1.23-2.09,19.28,19.28,0,0,1-1.18-1.76,4.5,4.5,0,0,1-.35-1.4c0-.1,0-.18,0-.23l0,0a3.82,3.82,0,0,1-.16-2.8c.64-2.81,5.1-1.65,4.53,1.14a2.75,2.75,0,0,1,.32,1.3s0,.14,0,.24.36.43.4.47a16,16,0,0,1,.95,1.9c.26.43.67.76.95,1.17A7,7,0,0,0,31.69,39c.49.45,1,.75,1.5,1.25a19.22,19.22,0,0,0,2.68,2.23c1,.72,1.64,1.75,2.6,2.49s2,1.57,2.94,2.42l.37.3c.18.06.54.21.57.23.58.28,1,.72,1.58,1,.25.12,1.84.74,1,.55a11.92,11.92,0,0,0,2.17.25A2.26,2.26,0,1,1,47.08,54.18Z" style="fill:#b25e00"/><path d="M27.22,49.72c.06.1.11.17.14.23a2.74,2.74,0,0,1,.7.46c.35.32.58.78.91,1.14a9.45,9.45,0,0,0,2.42,1.7c.46.29.52.61.89.91.55.45.79.31,1.41.54.4.15.76.34,1.15.49.56.22,1.06.63,1.58.88-.28-.16.86,0,1,.09s1.22.51,1,.5c.85.24,1.8.39,2.64.57,1.06.22,2,.67,3,1-.46-.15,1,.08,1.29.16a10.72,10.72,0,0,1,1.73.77c2.66,1.36.3,5.25-2.37,3.89a3.94,3.94,0,0,0-1.28-.35,12.67,12.67,0,0,1-1.8-.6c-.26-.1-2-.45-1-.33a9,9,0,0,1-1.86-.38c-1.07-.37-2.16-.7-3.26-1a5.58,5.58,0,0,1-1.88-.75l-.11-.08a3.93,3.93,0,0,1-.66-.22,2.76,2.76,0,0,1-.5-.22L32,59a5.2,5.2,0,0,1-1.74-.71,12.52,12.52,0,0,1-1.44-1.15c.55.14.48.1-.2-.15a2.09,2.09,0,0,1-.75-.4,11.62,11.62,0,0,1-2.64-2.3c-.15-.17-.29-.34-.42-.52,0,0-.15,0-.39-.2A3.1,3.1,0,0,1,23.18,52C21.81,49.41,25.85,47.13,27.22,49.72Z" style="fill:#b25e00"/><path d="M39.35,72c-.73,0-1.48-.15-2.22-.17.34,0-1,.16-1,.16-.41,0-.71,0-1.13,0a19.68,19.68,0,0,1-4.84.16,8.24,8.24,0,0,1-1.88.37c-3,.26-3-4.25,0-4.51l.29,0,.53-.23a4.51,4.51,0,0,1,2,0,11.75,11.75,0,0,0,2.44-.12,37.13,37.13,0,0,1,5.87-.2c.83,0,1.58-.19,2.44-.19.55,0,1.12.28,1.62.27s.93-.22,1.44-.25a20.1,20.1,0,0,1,2.81.24,15.08,15.08,0,0,1,3.06.19c2.91.75,1.67,5.1-1.25,4.35A19,19,0,0,0,46.91,72a8.07,8.07,0,0,0-2.25,0A16.84,16.84,0,0,1,42,71.76C41.11,71.73,40.27,72,39.35,72Z" style="fill:#b25e00"/><path d="M31,77.48a22.18,22.18,0,0,1,2.66-.71,10.42,10.42,0,0,1,1.26-.26.94.94,0,0,1,.24,0l.26-.12a7,7,0,0,1,2.7-.26c.94,0,1.83-.21,2.79-.17,3,.16,3,4.67,0,4.51-.8,0-1.56.13-2.36.16a4.88,4.88,0,0,1-1.08,0,1.59,1.59,0,0,1-.28-.07,1,1,0,0,1-.22.08c-1.48.48-3,.65-4.53,1.1a34.52,34.52,0,0,0-4.12,1.29c-.67.3-1.36.69-2,1,.78-.38-.15.22-.3.35l-1,.79c-2.28,1.87-5.61-1.3-3.32-3.19A24.58,24.58,0,0,1,26,79.16,25.07,25.07,0,0,1,31,77.48Z" style="fill:#b25e00"/><path d="M18.17,95.44a7.58,7.58,0,0,1,1.15-.62,2.26,2.26,0,0,1,.47-.62,2.3,2.3,0,0,1,1-.58,2.25,2.25,0,0,1,.46-.14l.78-.65c.2-.14,1.88-1,1.21-.55a28.18,28.18,0,0,1,5.24-3c.89-.38,1.75-.86,2.66-1.25s2.12-.43,3.14-.91a7.52,7.52,0,0,1,3.16-.85q.84-.08.09-.06a2.61,2.61,0,0,1,.95-.49,2.51,2.51,0,0,1,1.09,0l.1,0c2.68-1.32,5,2.57,2.37,3.89a5.48,5.48,0,0,1-1.69.67,1.57,1.57,0,0,1-.61,0l-.23.13a4.12,4.12,0,0,1-1.63.36c-.19,0-1,.15-.8,0a30,30,0,0,1-2.82,1.1,8.92,8.92,0,0,0-2.5,1c-.89.5-1.85.78-2.77,1.21s-1.6.9-2.46,1.35a3,3,0,0,1-.76.66c-.14.08-1.49.62-.76.16a18.93,18.93,0,0,1-2,1.34,2.19,2.19,0,0,1-.64.73c-.55.42-1.27.56-1.86,1C18,101,15.7,97.08,18.17,95.44Z" style="fill:#b25e00"/><path d="M100.19,102.76a4,4,0,0,0,.84-1.33c.35-.61.81-1.2,1.14-1.81.54-1,1-2.35,1.66-3.44,1.47-2.53,5.52-.26,4,2.27-1.58,2.71-2.53,6.34-5.32,8.2C100.07,108.3,97.72,104.4,100.19,102.76Z" style="fill:#b25e00"/><path d="M88.71,100.89c.56-1.34,1.05-2.68,1.72-4,1.33-2.6,5.37-.32,4,2.28-.54,1.07-1,2.2-1.4,3.32S92,104.77,91.58,106c-1,2.72-5.5,1.55-4.51-1.2C87.54,103.43,88.18,102.19,88.71,100.89Z" style="fill:#b25e00"/><path d="M76.91,98.45a8,8,0,0,1,3.37-4.61c2.52-1.61,4.87,2.29,2.36,3.89-.94.6-1.15,1.82-1.51,2.77a12.54,12.54,0,0,0-1,3.31c-.25,2.87-4.94,2.9-4.68,0A23.69,23.69,0,0,1,76.91,98.45Z" style="fill:#b25e00"/><path d="M68.6,92.13c2-2.18,5.29,1,3.31,3.19a13.26,13.26,0,0,0-3.25,6c-.63,2.83-5.15,1.63-4.52-1.2A17.93,17.93,0,0,1,68.6,92.13Z" style="fill:#b25e00"/><path d="M55.31,94.61l.23-.16.55-.39c.06-.07.18-.2.21-.25.2-.28.43-.53.65-.79a6.63,6.63,0,0,0,1-1.68,2.44,2.44,0,0,1,2.89-1.58,2.26,2.26,0,0,1,1.63,2.77,13.44,13.44,0,0,1-2,3.47,9.15,9.15,0,0,1-1.12,1.31,19.94,19.94,0,0,1-1.66,1.19,2.42,2.42,0,0,1-3.21-.81A2.25,2.25,0,0,1,55.31,94.61Z" style="fill:#b25e00"/><path d="M105.87,31.32a23.92,23.92,0,0,1-4.64-3.87,23.31,23.31,0,0,1-3.72-4.71c-1.41-2.56,2.63-4.84,4-2.28a20,20,0,0,0,6.67,7C110.8,28.94,108.45,32.84,105.87,31.32Z" style="fill:#b25e00"/><path d="M92.3,32a13,13,0,0,0-4.2-4.25c-2.53-1.55-.19-5.46,2.37-3.89a17.93,17.93,0,0,1,5.88,5.87C97.85,32.22,93.8,34.49,92.3,32Z" style="fill:#b25e00"/><path d="M80.35,32.39a2.26,2.26,0,0,1-1.64-2.77,2.42,2.42,0,0,1,2.88-1.57c3,.47,5.25,2.83,7.26,4.82s-1.2,5.28-3.31,3.19C84.05,34.58,82.6,32.75,80.35,32.39Z" style="fill:#b25e00"/><path d="M79.38,41c-3.3-1.55-7.14-2.43-9.46-5.36a2.21,2.21,0,0,1,.84-3.08,2.44,2.44,0,0,1,3.2.81c.74.93,2.59,1.58,3.69,2,1.38.55,2.75,1.1,4.09,1.73C84.45,38.4,82.08,42.29,79.38,41Z" style="fill:#b25e00"/></svg>