<svg id="레이어_1" data-name="레이어 1" xmlns="http://www.w3.org/2000/svg" viewBox="0 0 186 125"><path d="M55.1,31.51a.44.44,0,0,1-.21.21c-.07,0-.4-.41-.5-.37s.34,1,.25,1.1-.21,0-.3,0-.22,0-.31,0-1.13-1.81-1.21-1.77.37,1.13.28,1.17-.1.21-.18.25.15.71.06.75-.3-.19-.39-.15-1.26-2.09-1.35-2-.21,0-.29,0,.91,2.2.83,2.24-1.1-1.74-1.19-1.7.79,1.94.7,2,0,.43-.07.47S50.12,32,50,32s.78,2,.7,2-.28-.14-.36-.1-.79-1.15-.88-1.11.39,1.16.31,1.2-.6-.77-.69-.73.56,1.5.48,1.54-1.31-2.17-1.4-2.13-.19,0-.27.07.18.78.1.82.48,1.35.4,1.39-.57-.71-.65-.67-.36-.29-.44-.25-.7-1-.78-.91.54,1.46.45,1.5-.82-1.21-.91-1.17.51,1.4.43,1.44-1-1.57-1.1-1.53.82,2,.74,2,.26.93.18,1-1.22-2-1.31-2,.48,1.35.39,1.38-.93-1.42-1-1.38,0,.39-.09.43.34,1.08.26,1.12-.59-.73-.67-.69-.07.26-.16.3,0,.32-.13.36-.42-.4-.5-.36.33,1.07.25,1.11-.13.15-.22.19-1-1.62-1.12-1.58.16.72.07.76,0,.45-.06.49-.41-.38-.49-.34.34,1.08.25,1.12-.8-1.16-.89-1.12-.29-.17-.37-.13.52,1.45.44,1.49-.57-.69-.65-.65-.08.26-.16.3.25.92.17,1-.5-.57-.59-.53-.3-.2-.39-.16.37,1.14.29,1.18-.2,0-.28.07-1.08-1.69-1.16-1.65-.14.13-.23.17,0,.39-.09.43,0,.44-.08.48.42,1.23.34,1.27-.73-1-.81-1-.63-.82-.71-.78,0,.34-.12.38.46,1.32.38,1.36,0,.4-.09.44.14.69.06.73l-.24.14c-.08,0-.46-.49-.54-.45s-.91-1.37-1-1.33.54,1.48.46,1.51-1-1.59-1.1-1.55,0,.33-.12.37S35,41,34.88,41s-.59-.71-.66-.68.5,1.45.37,1.5-.46-.76-.63-.69.08.61,0,.65-.09.21-.18.25-1.27-2.47-1.36-2.43.36,1.26.27,1.3-.3-.21-.39-.17-.47-.57-.56-.53.35,1.18.27,1.22.44,1.33.35,1.37-1.41-2.47-1.49-2.43-.29-.14-.37-.11.41,1.25.32,1.29-.68-.93-.77-.89.57,1.5.49,1.55.23.81.14.86-.83-1.17-.91-1.13-.3-.16-.38-.12-.34-.22-.42-.18.76,1.75.67,1.79-.47-.47-.55-.42.09.51,0,.56-.44-.41-.52-.37,0,.33-.1.37-.19,0-.27.09-.91-1.16-1-1.11.66,1.43.58,1.48-.78-.92-.86-.87.1.51,0,.56-.25-.06-.33,0,.18.62.1.67,0,.3-.1.35-1.05-1.27-1.13-1.22.57,1.19.49,1.24-.62-.6-.7-.55.23.67.16.72-.06.24-.14.29-.88-.93-1-.88.18.57.1.62.48,1,.4,1-.35-.18-.43-.13-.14.12-.21.17.49,1,.42,1-1.43-1.61-1.51-1.56-.69-.59-.77-.54,1.47,2.2,1.39,2.26-1.52-1.65-1.59-1.6.06.39,0,.44,1.23,1.82,1.16,1.88S22,46.69,22,46.74s.81,1.27.74,1.33-1.56-1.58-1.63-1.53.82,1.27.75,1.32-1.46-1.41-1.53-1.36.65,1,.58,1.11.09.37,0,.43.31.63.24.69-1.68-1.58-1.75-1.52,1.58,2,1.51,2.06-.16.08-.23.14-1.06-.85-1.12-.79,1.09,1.42,1,1.48-1.65-1.45-1.71-1.39.8,1.09.73,1.15.62.87.56.94-1-.78-1.1-.72-.07.19-.14.25.51.74.45.8-.64-.36-.71-.29.46.66.39.73-1.54-1.18-1.6-1.11-.54-.24-.6-.17,1.26,1.38,1.2,1.45-.39-.11-.46,0-.18.08-.24.14.61.75.54.82S15.55,51,15.49,51s.69.82.63.89.1.32,0,.38-.89-.47-.95-.4-.44-.1-.5,0,.36.53.3.6.08.29,0,.36-.15.13-.21.2.86.85.8.93-.88-.41-.94-.34.72.73.66.8.71.71.66.78-1-.5-1.1-.43-.43-.07-.48,0,1.13.95,1.08,1-2.28-1.25-2.33-1.18.07.27,0,.34,2,1.47,2,1.55-2.1-1.06-2.15-1-.84-.27-.89-.19,1.44,1.05,1.39,1.13-.44-.05-.49,0,1.25.9,1.21,1-2-.89-2.06-.81-.74-.18-.79-.1,1.07.77,1,.85-.77-.18-.81-.1.52.47.48.55,1.65,1,1.61,1.08-1.9-.7-1.94-.62-.77-.15-.81-.06,1.07.68,1,.76.28.32.25.4-1.78-.54-1.81-.46,2.66,1.29,2.62,1.37-.19.1-.23.19-.52,0-.55.06.29.29.26.38-.66-.06-.7,0-1.1-.2-1.13-.11.44.34.41.43S10,61.13,10,61.21s1.52.68,1.49.77-1.38-.24-1.41-.15,1.86.73,1.83.82.15.22.13.3-.32.09-.34.18-.74,0-.77.07,1,.44,1,.52-2.25-.36-2.28-.27-.63,0-.65.14-.38.11-.41.2.14.23.12.32,2.15.61,2.13.7-.5.09-.52.18,1.1.36,1.09.45-.45.1-.47.19a2.3,2.3,0,0,1,0,.26c0,.09-.49.1-.5.19s1,.29,1,.38-1.87,0-1.88.06-1.14.09-1.15.19,2.76.36,2.76.45.15.16.15.25-1,.13-1,.22,1,.18,1,.27-2.65.19-2.65.28,2.28.13,2.28.22-.92.21-.92.3.44.15.45.24.43.13.44.22-2.44.4-2.43.49,2.86-.11,2.87,0S10,69.94,10,70s.77.08.79.17-1,.31-1,.4-.62.29-.6.38,1.45-.06,1.47,0,0,.17,0,.26.38.1.4.19-1.46.48-1.44.57-.75.35-.73.44.18.16.21.25,2.05-.3,2.07-.22.51,0,.54.14-2,.71-2,.8,1.11-.11,1.13,0,.67,0,.7.08-2.19.83-2.16.92,2.76-.64,2.79-.56-1.11.53-1.08.61-.39.32-.36.41,0,.19,0,.27-.68.43-.64.52,2.27-.61,2.3-.52-1.15.6-1.12.69.47,0,.5.1-.1.23-.07.32-.74.48-.71.57,1.85-.54,1.89-.46-.08.22-.05.3a1.86,1.86,0,0,1,.1.25c0,.08-.23.29-.2.37s-1.31.77-1.27.86-.24.31-.2.39,2.47-.92,2.51-.84S11.39,79,11.43,79.13s1-.26,1-.18.91-.24,1-.16-1.37.89-1.33,1-.28.35-.24.43,1.35-.48,1.39-.4.49-.05.54,0-1.12.82-1.07.9,1.35-.54,1.4-.47-1.13.85-1.08.93,1.47-.64,1.52-.57.29,0,.34.11-1.44,1.09-1.39,1.16,1.72-.86,1.77-.78-1,.83-.91.9-.79.74-.73.82,1.22-.59,1.27-.52,1.2-.61,1.26-.54S15,82.79,15,82.86s-.91.89-.85,1,.78-.33.83-.26.73-.32.79-.25.43-.1.48,0,.83-.42.89-.35-.62.71-.56.78.59-.25.65-.18S15.92,84.88,16,85s1-.61,1.05-.54.92-.56,1-.49-1.85,1.88-1.79,1.94l.22.19c.06.07,1-.66,1.06-.59s.67-.38.73-.31-.05.29,0,.35-1,1.21-.91,1.27,1.49-1.21,1.56-1.15.41-.17.48-.11-.11.36,0,.43.19,0,.26.11.4-.17.47-.11-.12.38-.05.44.55-.34.62-.28S18.9,88.3,19,88.36s0,.28.08.33.35-.1.42,0,.42-.2.49-.14-.26.6-.18.66.12.16.19.21,2-2.16,2.08-2.1-1,1.48-.89,1.53-.53,1-.46,1,.18.09.25.14,1.53-1.68,1.61-1.63.19,0,.27.09-.39.82-.31.88.32-.14.4-.08-.47,1-.39,1,0,.29.1.34.75-.74.83-.69-.37.85-.29.9.19.06.27.11-.32.81-.25.85.81-.86.89-.81.67-.68.75-.63,0,.34.08.38.09.2.17.25.7-.76.78-.72.1.19.17.24-.37.93-.29,1-.68,1.46-.6,1.5.91-1.11,1-1.06-.48,1.15-.4,1.2,1.15-1.55,1.23-1.51,0,.45,0,.49-.69,1.55-.61,1.59,1.59-2.37,1.67-2.32-.52,1.28-.44,1.32.62-.72.7-.67.48-.49.56-.45-1,2.2-.93,2.24.51-.53.59-.49.63-.76.71-.71-.72,1.7-.64,1.74,1.11-1.65,1.19-1.61-.27.89-.18.93,0,.33.12.37.69-.92.77-.88.21,0,.29,0-.5,1.36-.41,1.4.32-.22.41-.18.59-.76.67-.72-.58,1.57-.49,1.61.08.26.17.3,1-1.62,1.08-1.58-.53,1.53-.44,1.57.79-1.24.88-1.2.1.22.19.26-.26,1-.17,1,0,.39.11.43,1.11-2,1.2-1.93,0,.42.09.45.33-.28.42-.24.18.05.26.09-1,2.59-.87,2.62.44-.52.53-.49,0,.53.06.56.58-.84.66-.8-.12.74,0,.77.84-1.45.93-1.41-.56,1.73-.47,1.77.85-1.48.93-1.44-.14.79,0,.82-.11.71,0,.74.4-.45.49-.41.41-.48.5-.45l.26.11c.08,0,.51-.69.59-.65s-.19.9-.1.93,0,.53.06.56-.32,1.17-.23,1.2,1-1.74,1.07-1.71.05.35.14.38.58-.81.66-.78,0,.39.12.43-.57,1.69-.49,1.73.26-.1.34-.07.56-.75.65-.72-.36,1.19-.27,1.23.83-1.33.92-1.29.5-.6.58-.56-.1.64,0,.68-.08.6,0,.63.72-1,.81-1-.5,1.43-.42,1.47-.25.89-.16.93,1.11-1.76,1.19-1.72-.29,1-.2,1,.51-.57.6-.53-.09.56,0,.61.57-.66.66-.61l.25.13c.08.05-.2.75-.12.79s0,.44,0,.49-.31.89-.23.94.85-1.09.93-1,.44-.36.52-.32-.28.83-.2.87,1.1-1.4,1.18-1.36-.27.79-.19.84.4-.25.48-.2-1,1.8-.89,1.85.65-.64.73-.59-.58,1.16-.5,1.21.85-.9.93-.84-.39.85-.32.9.36-.18.43-.13.61-.5.69-.45.72-.63.8-.57.23,0,.3.08-1.09,1.66-1,1.71.24,0,.31,0,1.48-1.46,1.56-1.4l.23.18c.07.06-1.66,2.15-1.59,2.21s.73-.55.8-.49.89-.68,1-.62,0,.29.07.35.17.09.24.15-1.18,1.51-1.11,1.58.19.07.26.13,1.37-1.16,1.44-1.1,0,.22.11.28,1-.8,1.09-.74-1.18,1.52-1.11,1.59-.55.85-.48.91.5-.25.58-.19.94-.75,1-.69.62-.4.69-.34-1.63,2.09-1.55,2.15,1.41-1.3,1.48-1.24,0,.34,0,.4-.43.79-.35.85,1.11-1,1.18-1,.71-.58.78-.52-.86,1.36-.78,1.41,1-1,1.11-1-1.33,2-1.25,2.11.43-.25.51-.2,1-1,1-1-1.06,1.87-1,1.92.85-.9.93-.85.6-.6.68-.55-.64,1.41-.56,1.45-.11.65,0,.69,1.41-2.2,1.49-2.16-.64,1.68-.55,1.71a2.29,2.29,0,0,0,.27.14c.09,0,.29-.15.37-.12s.61-1.15.7-1.12.09.23.18.26.23-.26.32-.24.2-.22.29-.21-.16,1.88-.07,1.9.32-.92.42-.91.06,1.56.15,1.57.27-1,.36-1,.2.58.29.58.21-.19.31-.19.17-.59.26-.59.14-.58.23-.59.17-.12.26-.13.07-.9.16-.91.22.37.31.36.2.15.29.14.13-.31.23-.33.28.67.38.66.3.72.39.71.22.17.31.16.19,0,.28,0,.24.35.33.34,0-1.59.05-1.6.16-.27.26-.28.44,2,.52,2,0-2,.06-2,.22-.54.3-.54.21,1.6.29,1.61.06.18.15.2.5-.77.59-.73.7-.88.79-.84-1.2,2.57-1.11,2.61.56-.65.64-.61.19,0,.28.07,0,.42.08.46.38-.37.47-.33-.31,1-.23,1,1.08-1.67,1.16-1.63-.59,1.51-.51,1.55.69-.89.77-.85-.62,1.55-.54,1.59.49-.5.57-.46-.08.57,0,.61,1.27-2,1.36-2,.43-.48.51-.44-.31,1-.23,1.07.37-.39.46-.35.28-.25.37-.22-.4,1.38-.31,1.42-.05.65,0,.68.38-.48.47-.45.64-1.46.73-1.44-.32,1.74-.23,1.76.25-.2.34-.18.35-.84.44-.82-.17,2.11-.08,2.12.36-1.06.45-1,.13.88.22.88.3-2,.39-2,.15,2.06.25,2.06.18-1.44.28-1.44.16-.57.26-.57.25,1.47.34,1.47.28.92.38.92.23,0,.33,0-.08-2.26,0-2.27,0-.75.13-.76.23.43.32.41.12-.13.21-.15,0-.39.11-.42.24.34.33.31,1.11,2.16,1.2,2.12-.13-.83,0-.87-.31-.89-.23-.94.85.84.93.78-1-1.38-.9-1.44.27.12.33,0,.62.7.68.62c0,.08-1.29.55-1.25.63s1.26-.5,1.31-.42,1.49-.77,1.55-.7-1.85,1.51-1.79,1.59,0,.3,0,.37,1.87-1.31,1.94-1.24-1.18,1.28-1.11,1.35,1-.76,1.11-.69l.19.17c.07.06-.39.7-.31.76s.44-.25.51-.2-.45.91-.37,1,.09.24.17.29,0,.37.09.42,1.49-2.07,1.57-2-.67,1.51-.59,1.55.33-.21.42-.17.14.12.23.16.75-1.25.84-1.22-.61,1.87-.52,1.91.22,0,.31,0-.16,1-.07,1.08.71-1.49.8-1.47.07.43.16.46-.17,1.35-.08,1.37.66-1.72.75-1.7.25-.32.34-.3.1.41.19.43.35-.92.45-.91.14.15.23.17.09.53.19.54.2-.2.29-.19,0,1.44.12,1.45.18.27.27.27.21-.14.31-.13.19.21.28.21.27-1.79.37-1.79.17.08.26.08.16,2.31.26,2.31.2-1,.29-1,.18-.79.27-.79.2.36.29.35.21.31.3.3.09-1.6.18-1.61.3,1.55.39,1.54,0-1.73.13-1.74.23.62.33.61.39,1.8.49,1.79.19-.08.28-.09.22.1.31.09.25.23.34.21.08-.73.17-.75-.1-1.55,0-1.57.43,0,.52,0-.22,1.42,0,1.48,0,.54.12.57.06.45.15.48,1-2.51,1.08-2.48-.37,1.88-.28,1.91.52-1.17.61-1.15.12.26.21.28.46-1.14.56-1.12.13.14.22.16-.12,1.38,0,1.4-.1,1.47,0,1.49.53-1.78.62-1.76,0,1.31.06,1.33.42-1.47.51-1.46.18,0,.28,0,0,1.21.13,1.22.33-1.45.43-1.44,0,2.27.07,2.28h.3c.1,0,.23-.41.32-.4s.22-.42.31-.42.2-.18.29-.18.19-.19.28-.19.23,1.39.32,1.39.12-2,.21-2.06.16-.34.25-.34.29,1.3.38,1.29,0-1.62.1-1.63.17,0,.26,0,.49,2,.58,2,.07-.79.16-.8l.28-.06c.09,0,.24.22.33.2s.33.45.42.43-.17-1.34-.08-1.36.75,1.77.84,1.75-.64-2.49-.55-2.52,0-.54,0-.57.18.08.27,0,.11-.1.2-.13.57.84.65.8.62.8.7.76-.76-1.74-.68-1.78,1.43,2.06,1.51,2,.3.07.38,0-.58-1.22-.5-1.27,1,1,1,.93-1.43-2.16-1.36-2.22,0-.19.1-.25,1.17,1.09,1.24,1,1,.78,1.07.72-1.64-1.93-1.57-2,.69.44.76.37-.1-.31,0-.38.69.37.75.3,0-.34,0-.41.15.22.33.22.13-1.64.24-1.64.23,1.62.33,1.61.06-1.27.16-1.28.28,1.06.38,1,.34.87.43.86,0-.87.13-.89.28.36.38.34.38.59.47.57-.36-1.79-.26-1.82,1,2.12,1,2.09-.32-1.39-.23-1.42-.44-1.36-.35-1.4,1.06,1.72,1.15,1.67-.16-.69-.08-.74.27.08.35,0,.62.51.7.45.47.21.54.15,0-.41,0-.47-1-1.33-.93-1.39-.53-.69-.47-.76,2.16,1.61,2.22,1.54.38,0,.44-.09-1.49-1.29-1.43-1.37-.88-.71-.83-.79,2.49,1.21,2.54,1.13-.63-1.83-.46-1.8.09,0,.19,0,.16-.06.26,0-.12,2.44,0,2.45.24-.41.33-.4.24-.42.33-.41.09,1.32.18,1.33.33-1.64.41-1.64.26.66.28.66.11-.81.21-.82,0-1,.12-1,.63,2.58.72,2.56.28.17.37.15-.24-1.81-.15-1.83.44.84.53.82-.46-1.94-.37-2,.35.51.44.48,0-.35.11-.39.44.6.53.57.06-.26.15-.3.27.15.35.11,0-.38.08-.42,1.22,1.77,1.3,1.73-.44-1.14-.36-1.18.46.37.54.32.09-.24.16-.28-.11-.52,0-.57l.24-.16c.07,0,0-.32.07-.37s.27.06.35,0-.07-.39,0-.44-.3-.67-.23-.72.85.77.93.71.47.28.54.22-1.12-1.61-1-1.67.2,0,.27-.09l.81-.66c.08,0,.53,1.24.61,1.27s.11.23.2.26,0,.5.14.52.15.2.24.22.56-1.76.66-1.74,0,1.07,0,1.09-.1,1.85,0,1.86.58-3,.68-3,.13.09.23.1.06,1.31.15,1.31.25-1.4.34-1.39.14.51.23.51.16,2.09.26,2.09.16-2,.25-2,.14-.62.23-.63.23,1.1.32,1.1.07-1.14.16-1.15.19.31.28.3.42,1.81.51,1.8.27.35.36.34,0-.86.14-.88-.19-1.65-.1-1.67.88,2.8,1,2.78-.24-1.62-.15-1.64.58,1.15.67,1.12-.28-1.36-.19-1.39.64,1,.72,1-.68-1.92-.6-2,1.35,2.18,1.44,2.14-.67-1.57-.6-1.61.72.72.8.67.54.29.62.23-.57-.86-.44-1,.83.58.9.51-.09-.38,0-.45-1.69-1.81-1.62-1.88.67.4.74.33.44.16.51.09-.05-.26,0-.33,1.41.87,1.47.8.6.19.66.12-1.79-1.52-1.74-1.59,1.82,1,1.88.94-1.28-1.06-1.22-1.14.07-.15.12-.23-.51-.5-.46-.57,1.31.53,1.35.45-.93-.69-.88-.77,1.82.69,1.86.61-.94-.65-.91-.73,0-.19.07-.27.8.11.84,0-1.4-.7-1.37-.79,1,.17,1.06.08-1.25-.55-1.22-.64a2,2,0,0,0,.06-.23c0-.09,2.35.38,2.37.29s-2.53-.71-2.51-.8,2.94.34,2.95.25-2-.49-2-.58.48-.11.49-.21-.62-.21-.61-.3,1.2-.12,1.2-.21-.19-.17-.19-.26.42.07.47-.08.3,0,.34-.12-2.29-1.11-2.25-1.2,1.74.58,1.79.5-.09-.24,0-.31-1-.89-.91-1,1.22.65,1.28.58.15-.09.22-.16.69.58.77.53-1.36-2.12-1.28-2.17.93,1,1,1-.26-1.14-.17-1.17.44.41.53.39.18-.48.27-.49.31.36.41.36.19,2,.29,2,.35-2.6.44-2.59.25.18.35.19.32-.25.42-.23-.34,2-.25,2,0,.39.12.42.53-.87.62-.84-.08.22,0,.35-.57.71-.5.79,1.39-1,1.46-.9.28,0,.34.06-1.55,1.6-1.48,1.67,2.09-1.61,2.16-1.54-1.1,1.21-1,1.28,1-.66,1.07-.59,0,.27,0,.33-.39.6-.33.67-.37.59-.31.66.26,0,.33.07.65-.35.72-.29-1,1.16-.91,1.23,1.53-1.19,1.59-1.12.46-.18.53-.12-1.51,1.68-1.44,1.75.86-.58.93-.51.52-.25.59-.19-.31.56-.24.62.48-.22.55-.15.81-.54.88-.48-1.22,1.45-1.15,1.52.93-.67,1-.61-.62.88-.55.94,1-.78,1.1-.72.35-.1.42,0-1.36,1.64-1.29,1.7,1.17-.93,1.23-.87,0,.29,0,.35-.85,1.15-.78,1.22,1.2-1,1.27-.93,1-.83,1.11-.77-1.58,1.93-1.51,2,1.81-1.67,1.88-1.61-1,1.4-1,1.46-.39.7-.32.76,1.9-1.82,2-1.76-.64,1-.57,1,.58-.37.65-.31-.74,1.1-.67,1.16,1-.82,1-.76-1,1.37-.89,1.42,0,.27.09.33,1.54-1.51,1.62-1.45.09.16.17.22-1.14,1.62-1.07,1.68.83-.7.9-.64,1-1,1.13-.92-.43.8-.36.86-.8,1.27-.73,1.33.58-.42.66-.37.27,0,.35,0-.64,1.11-.57,1.17.6-.46.67-.4.54-.38.61-.33.91-.89,1-.83-.76,1.31-.68,1.36,1.16-1.26,1.24-1.21-.76,1.34-.69,1.4-.27.7-.2.75.32-.12.4-.07,1-1,1-1-.58,1.15-.5,1.2,1.05-1.21,1.13-1.16-.87,1.6-.79,1.65.7-.71.78-.66-.58,1.23-.5,1.28-.13.55,0,.6,1.18-1.5,1.26-1.46-.33.89-.25.93.55-.54.64-.49-.72,1.57-.64,1.61,1.22-1.7,1.3-1.66.5-.51.58-.47-.21.75-.13.79.51-.57.6-.52.3-.21.39-.17-.86,2-.78,2.09,1-1.59,1.1-1.55.3-.23.38-.19-.1.62,0,.66.22-.07.31,0-.11.67,0,.71.32-.3.41-.26.09.24.18.27-.26,1.19-.17,1.22.6-1.08.69-1.06-.5,2-.41,2,.41-.56.5-.53.51-1,.6-1,.07.42.16.44-.14,1.34-.05,1.36.81-2.54.9-2.52-.27,2.09-.18,2.11.49-1.5.58-1.48,0,.89.12.9,0,1.13.15,1.14.32-1,.41-1,.28-1.25.37-1.25.14.63.23.63.17,1.59.26,1.59.23,0,.32,0,.16-1.13.25-1.14.09-1,.18-1,.29.89.38.88.1-.48.19-.49.1-.33.19-.35.24.3.33.27.57,1.2.66,1.18.09-.4.18-.43.31.19.39.15-.13-.79,0-.83.67,1.21.83,1.14-1-2.47-.88-2.52.56.76.65.71.1-.19.19-.23-.37-1-.28-1.07.41.41.5.37.13-.11.21-.15.58.62.67.57-.32-.82-.24-.87.77.86.85.81-.16-.57-.08-.62-.42-.88-.34-.93.94,1,1,1,.23,0,.31,0-.52-1-.45-1,1.15,1.14,1.23,1.08-1-1.44-.9-1.5.37.18.45.12,1.65,1.57,1.72,1.51-1.62-2-1.55-2.09,1.81,1.62,1.88,1.56-1.32-1.59-1.25-1.66.47.22.54.16.71.41.78.34-.07-.31,0-.38-.59-.73-.53-.8.38.08.44,0,1.38.84,1.44.77-1.18-1.12-1.12-1.2,1.59.91,1.64.83-1.67-1.37-1.62-1.45.86.35.91.27-.91-.76-.86-.84.4,0,.44,0,1.49.61,1.53.53-1-.75-1-.83-.55-.45-.51-.53.25-.06.29-.14,1.48.44,1.52.36-1.8-.91-1.76-1,.28-.06.31-.14,2,.5,2,.42-1.66-.72-1.63-.81,2.44.5,2.46.42-.05-.25,0-.33-2.73-.82-2.71-.91,1,0,1,0-.29-.23-.28-.32-.52-.23-.51-.32.35-.12.36-.21.07-.15.08-.24.46-.13.47-.22.2-.17.2-.26,1-.16,1-.25-1.19-.19-1.19-.28-1-.14-1-.23,1.09-.21,1.08-.3,1.48-.29,1.47-.38-1.57,0-1.58-.14.6-.25.58-.34-1,0-1-.14.62-.27.61-.36,1.23-.41,1.21-.5-.81,0-.83-.13.17-.23.15-.32-.27-.13-.3-.22-.4-.09-.42-.18,1.14-.51,1.11-.6-1.15.13-1.17,0,.13-.23.1-.32.58-.39.55-.48.09-.47.06-.56-2.13,1.21-2.23,1.07,1.61-1.35,1.55-1.43-1.49.8-1.54.72,1.07-.92,1-1-1.06.47-1.12.39,1.23-1,1.18-1-1.46.69-1.52.61.79-.67.74-.75,0-.22,0-.3-.61.14-.65.06,1.15-.8,1.11-.88-2.57,1.1-2.62,1-.24-.1-.29-.18,2.57-1.39,2.53-1.48-2.83,1-2.87,1,2-1,2-1.13-2.27.69-2.31.6.9-.55.87-.63,1.34-.64,1.31-.73-1.34.23-1.36.14.69-.38.67-.47-1.85.25-1.87.16.45-.32.43-.41,1.91-.5,1.89-.59-1.27,0-1.28-.1-.42-.18-.42-.26.63-.22.63-.31-.21-.2-.2-.29.35-.15.37-.24,1.07,0,1.09-.05a1,1,0,0,1,0-.17c0-.09-1.36-.6-1.32-.69s.95.23,1,.15-.79-.62-.74-.7.24-.09.29-.16-.8-.63-.69-.77,0-.15.05-.24,2.28,1.15,2.33,1.07,0-.25,0-.33-.71-.59-.67-.68,1,.27,1,.19-1.12-.73-1.08-.81,1.48.44,1.52.35-1.59-.85-1.55-.94,1.82.5,1.86.42-1.81-.85-1.77-.94.27-.08.3-.17-.06-.2,0-.28.36-.08.38-.17-1.07-.44-1.05-.53,2.7.45,2.73.36-2.5-.71-2.49-.8-.32-.21-.3-.3,0-.14,0-.23.43-.09.44-.18,1.12,0,1.13-.13-.66-.23-.65-.32,1.11-.11,1.12-.2-.82-.2-.81-.3.25-.17.25-.26-1.3-.13-1.3-.22.42-.17.42-.26.79-.22.78-.31.28-.2.27-.29-.4-.13-.41-.22.55-.27.54-.36-.44-.1-.45-.19-1.38.11-1.4,0,.17-.18.14-.27,2.59-.85,2.57-.94-.14-.18-.17-.27-2.55.6-2.58.51,1.29-.6,1.26-.69-.47,0-.51-.1.76-.49.73-.58-1.85.59-1.89.5,2.07-1.11,2-1.19.22-.33.17-.41-.57.06-.62,0-1.84.76-1.88.69S172,73.25,172,73.17s-.33,0-.38-.13-2.29,1.19-2.34,1.11S171,72.82,171,72.74s.15-.34.1-.41-.73.26-.78.19-1.62.94-1.67.87,1.51-1.34,1.45-1.41-.79.37-.85.3-.56.23-.62.16,1.12-1.16,1.06-1.23-.79.43-.86.37.46-.66.4-.72-.43.14-.5.07-.15-.11-.21-.18.2-.46.14-.52-1.71,1.44-1.77,1.38S168.17,70,168.1,70s-1.6,1.42-1.67,1.36.59-.89.52-1-.86.69-.93.63,1.07-1.47,1-1.53-1.19,1.1-1.26,1.05-.15-.08-.23-.14,1.65-2.29,1.58-2.34-1.72,1.84-1.8,1.78,1.07-1.65,1-1.71-1.12,1.12-1.2,1.06-.64.36-.77.24,1.06-1.23,1-1.31.46-.57.4-.65-.16,0-.22-.12-.29,0-.34-.07-.8.3-.85.22-.8.23-.85.15,2.19-1.34,2.15-1.42-.27,0-.31-.1-.86.22-.9.13-.62.06-.65,0,.69-.42.66-.51.6-.35.57-.43-.16-.1-.19-.19.07-.16,0-.25-.24-.09-.26-.18-.87,0-.88-.09.23-.2.21-.3-.36-.12-.37-.21.91-.25.91-.34-1.69-.06-1.69-.15-.8-.17-.81-.26,1.37-.22,1.37-.31.87-.15.87-.24.46-.14.47-.23.14-.13.15-.23-2.92-.42-2.91-.51,1.4-.05,1.41-.14-.87-.3-.86-.39,1.12,0,1.14-.11-.32-.24-.3-.33,1.22.06,1.24,0-.62-.3-.59-.39.6,0,.63-.12-.87-.4-.85-.49-.45-.31-.43-.4-.65-.39-.63-.48,2.7.63,2.73.55-2.2-.9-2.17-1,1.34.25,1.37.17.25-.1.28-.18.1-.15.13-.24-.9-.54-.86-.62.4,0,.43-.12-1.13-.68-1.09-.76,1.62.49,1.66.41-1.24-.76-1.2-.84-.28-.34-.24-.43,1.36.43,1.4.35,1.24.41,1.29.33-2.12-1.27-2.08-1.35.65.12.7,0,0-.21,0-.29,1,.31,1,.23-.66-.58-.61-.66-.37-.42-.32-.5,1.5.65,1.55.57-1.49-1.1-1.44-1.17,0-.21.09-.29.24-.46.29-.54,1.54,1.49,1.69,1.39.25,0,.33-.07.42.17.5.11-.46-.8-.39-.87,1.07.81,1.14.75-.23-.52-.16-.59-1.29-1.45-1.22-1.51.69.39.75.32.56.22.62.15.31,0,.37-.07.63.22.69.15-1-1-1-1-.42-.5-.36-.57-.34-.4-.29-.48.13-.09.18-.17.77.25.82.18-.16-.28-.11-.36,1.15.38,1.19.3-.19-.3-.15-.38-.39-.37-.35-.45.94.18,1,.1-1.14-.63-1.11-.71-.12-.21-.09-.3,2.19.49,2.21.41-.21-.28-.18-.37-2.46-.81-2.44-.9,1.71.22,1.73.13-1.19-.41-1.17-.5,1.2,0,1.21,0,.19-.16.2-.25-.19-.21-.18-.3.77-.12.78-.21.08-.2.09-.29-2.3-.27-2.3-.36-.15-.15-.15-.24,1.34-.16,1.34-.26-.33-.16-.33-.25,1-.23,1-.32a2.64,2.64,0,0,0,0-.28c0-.09-1.49,0-1.5-.12s2-.42,2-.51-2,.1-2,0,1.79-.48,1.78-.56-1.94.18-2,.09.27-.22.25-.31,1.88-.62,1.85-.71-1.76.25-1.79.16-.65,0-.67-.08,2.45-.9,2.43-1-1.53.27-1.56.19-1.5.31-1.53.22.75-.43.71-.51-.39,0-.42-.12,1.74-.85,1.7-.94-1.48.4-1.51.31,2-1,2-1.11-2.71,1-2.75.88,1.41-.82,1.37-.9-1.12.32-1.16.24.87-.62.83-.7-.17-.11-.22-.2.84-.63.79-.71-1.75.71-1.79.63-.32,0-.36-.1,2-1.34,2-1.42-2.48,1.21-2.53,1.13,1.73-1.22,1.68-1.3-1.66.79-1.71.71.39-.45.34-.52S169.16,36,169.11,36s-.46.07-.52,0-2.07,1.15-2.12,1.07.41-.49.36-.56-.24-.05-.3-.12.08-.27,0-.35.4-.49.34-.57,1.17-1.08,1.11-1.15-.67.31-.73.24-2.14,1.11-2.19,1,.11-.35.07-.43,1.39-.93,1.34-1,.32-.32.28-.4-1.49.42-1.53.33,2-.9,2-1-1.71.37-1.73.29,1.18-.5,1.16-.59-2.66.44-2.68.35.86-.4.84-.48,0-.21,0-.29,1.1-.35,1.09-.44-1.32,0-1.33-.12-.75-.13-.76-.22.64-.26.64-.35-.66-.16-.67-.25,1.65-.26,1.65-.35-.38-.17-.38-.26,1.37-.19,1.37-.28-.62-.17-.62-.26.39-.18.39-.27-.29-.18-.29-.27-.77-.19-.77-.28-1-.19-1-.28,0-.18,0-.27.11-.18.11-.27,2.12-.17,2.12-.26-.24-.18-.24-.27,0-.19,0-.28-2.28-.13-2.29-.22.58-.18.58-.27a2.27,2.27,0,0,0-.06-.25c0-.09,1-.24,1-.33s1.56-.33,1.55-.41-.2-.19-.21-.28-1.87,0-1.88-.06,1.9-.47,1.89-.56-.8-.07-.81-.16-.51-.1-.53-.19.45-.3.42-.38-1.12.08-1.14,0-1.16.17-1.18.08,1.87-.77,1.84-.85.07-.24,0-.32-1.59.43-1.63.35-.25-.05-.29-.13,1.53-.91,1.49-1,.41-.45.36-.53-.45,0-.5-.07.15-.34.1-.42-2.16,1.21-2.21,1.14,1.48-1.26,1.43-1.33-.46.1-.52,0,0-.27,0-.34-.58.25-.64.18-.33.07-.4,0-.26,0-.33,0,1.19-1.44,1.12-1.5-1.62,1.42-1.69,1.36,1.37-1.76,1.3-1.82-1.65,1.58-1.72,1.52.43-.77.36-.83-.21,0-.28-.08-.2-.05-.27-.1,0-.32-.06-.37-1,1.11-1.1,1.06,1-1.68.88-1.73-.48.38-.56.34,0-.29-.12-.33.34-1,.26-1-.92,1.26-1,1.22.06-.49,0-.53.36-1.21.27-1.25-.08-.37-.17-.4-.65,1-.74,1a1.48,1.48,0,0,0-.27-.1c-.09,0-.12-.28-.21-.31s-.31.33-.4.3-.08-.46-.17-.48,0-.81-.13-.83-.31.4-.4.38-.38,1.07-.47,1.06-.18-.11-.27-.12-.19.1-.29.09-.17-.18-.26-.18-.18-.81-.27-.82-.23-.34-.32-.34-.14,1.45-.23,1.46-.17.15-.26.16-.09.66-.18.68-.27-.71-.36-.7,0,.87-.1.89-.49-1.49-.58-1.47,0,.85-.08.87-.42-.84-.51-.81.19,1.21.1,1.24-.94-2.17-1-2.14-.09.4-.17.44.23,1.13.14,1.17.09.66,0,.69,0,.34-.12.37-.54-.7-.62-.66.51,1.36.43,1.4-1.34-2.09-1.42-2.05.77,1.72.69,1.76-.27-.11-.35-.06-.7-.77-.78-.72.27.73.19.78.42.9.34.95-1.64-2-1.72-1.92.4.86.32.91-.05.24-.12.29-.93-.84-1-.78.34.71.26.77-.65-.45-.72-.4,1,1.41.92,1.47-1.1-.93-1.17-.86-.09.19-.16.25-.26,0-.33.07-.25,0-.32.09.11.39.05.45.64.87.57.93,0,.24-.07.3-1.64-1.21-1.7-1.15.39.62.33.68,1.21,1.28,1.15,1.35-.63-.3-.69-.23.15.35.09.42-.19.08-.25.15-1-.52-1-.45.4.54.34.61l-.17.22c-.05.07.7.73.64.8s-1.84-1.12-1.89-1,.79.8.73.88,1,1,1,1-1.09-.57-1.15-.5-.46-.11-.51,0,.89.88.83.95-.08.17-.13.24-1-.52-1.07-.45-.21.07-.27.14.82.83.77.9-1-.49-1-.42-.18.1-.23.17.48.57.43.64,0,.25,0,.32.39.5.33.58-1.22-.66-1.28-.59.35.47.29.54-1.87-1.1-1.92-1,2.46,1.95,2.41,2-.65-.24-.71-.17-1-.48-1.05-.41.64.67.59.74-.45-.08-.5,0,0,.23,0,.3-1-.45-1-.38,1.49,1.23,1.44,1.3.09.28,0,.35-1-.44-1-.36.47.53.42.6-1.38-.7-1.44-.63-.61-.18-.66-.11.89.8.84.88.82.74.76.81-.61-.18-.66-.1-.53-.13-.58-.05-1.66-.83-1.71-.76,0,.21-.08.28,2.48,1.74,2.43,1.82-1.4-.65-1.45-.57.88.74.83.81-.23.07-.27.15.09.26.05.34-1.72-.8-1.77-.72,0,.19-.08.27-.55-.1-.6,0,.34.41.29.48.44.45.39.53-.17.11-.22.19,1.2.83,1.16.91-1.85-.73-1.89-.65-.63-.08-.67,0-.11.18-.15.26-.23.12-.27.21,1.75.94,1.72,1-.3.07-.33.16S135,35.86,135,36s1.85.9,1.82,1-.65,0-.69,0,0,.21,0,.3-2-.54-2-.46,2.19,1,2.15,1.09-2.16-.61-2.19-.52,2.23,1,2.2,1.12-1.77-.48-1.8-.4,1.21.68,1.18.76-.41,0-.44.12-1.08-.25-1.11-.17.19.27.15.36,1.69,1,1.65,1.07-2.52-1-2.56-.94,2.43,1.47,2.39,1.55-2.48-1.15-2.53-1.07,1.57,1.13,1.52,1.2-.65-.17-.71-.1a1.88,1.88,0,0,1-.16.23c-.05.08-.25.06-.3.13s1.09,1.11,1,1.18-.82-.39-.88-.32-1.15-.78-1.22-.72.13.36.06.42-.14.1-.21.16-.47-.27-.54-.21,1.2,1.7,1.13,1.75-.21.09-.29.14-.51-.32-.59-.27-1-1.06-1.07-1,.84,1.56.77,1.61-.7-.7-.78-.65.3.86.22.9-1-1.29-1-1.24.79,1.85.71,1.89-1-1.58-1.11-1.54-.06.28-.15.31-.24-.1-.32-.07-.38-.47-.47-.44-.07.26-.16.29,0,.58-.06.61a2.56,2.56,0,0,1-.27,0,2.6,2.6,0,0,1-.25.1c-.1,0-.12.26-.21.29s-.43-1-.52-1,0,.91-.07.93-.17.06-.27.07-.07.72-.16.73-.13.6-.22.61-.43-2.14-.52-2.13-.16,0-.26,0-.1,1-.2,1-.14,1.39-.23,1.39-.22-.52-.31-.52-.22.88-.31.88-.19-.93-.28-.93-.17-.58-.26-.59-.13-.68-.22-.69-.34,1.55-.43,1.54,0-1.86-.07-1.87-.52,2.4-.61,2.39-.24-.06-.34-.07.08-1.1-.09-1.15,0-.65-.09-.68-.55,1-.65,1-.34.25-.43.21.66-1.92.58-2-1,1.51-1.08,1.47-.1-.29-.18-.34-.45.22-.53.16.05-.47,0-.53-.59.21-.66.14-.35-.14-.4-.21.08-.46,0-.54.31-.48.28-.56-.76-.1-.79-.2-.38-.33-.39-.43.41-.36.42-.46.79-.16.82-.26-.07-.25,0-.34.4-.07.44-.16.89.24.94.15.6.21.65.12,0-.13,0-.21-2.16-1.74-2.1-1.81.43,0,.49,0-.13-.41-.06-.48.45.1.52,0,.55.28.62.22.87.51,1,.36-.68-.63-.63-.71-.78-.66-.73-.74,2.39,1.17,2.44,1.09-.5-.5-.45-.58.11-.16.15-.24-1.53-1-1.49-1,1.68.61,1.72.52-1.25-.76-1.21-.84,1.24.34,1.28.26.28-.09.31-.18.32-.09.35-.17.06-.2.09-.28-2-.81-1.94-.9,0-.16,0-.25,2,.35,2.07.27.82,0,.84-.13,0-.25,0-.33-2.31-.53-2.29-.62.75-.07.76-.16.4-.16.4-.25.48-.19.48-.28-1.64-.09-1.65-.18.76-.22.74-.31,1.45-.46,1.43-.55-2.56.45-2.59.36,1.76-.72,1.73-.8.58-.51.54-.59-2.13.85-2.17.77.62-.53.57-.6-.34.06-.4,0,.49-.64.43-.71-1,.8-1.11.74.34-.59.27-.65-.29.13-.37.08-.62.71-.7.66.15-.48.07-.52,1-2.25.9-2.29-.28,0-.37,0-.31.14-.4.1-1,2.06-1,2,.21-1.15.12-1.18-.2,0-.29,0,.2-1.58.11-1.6-.25.09-.34.07-.67,2.39-.77,2.37.2-2.14.1-2.16-.35,1-.44,1-.23.37-.33.36-.27.86-.36.85.06-2.54,0-2.55-.28,1.09-.37,1.09-.13-1.12-.23-1.12-.31,2.7-.4,2.7-.16-.42-.25-.43-.16-.88-.26-.88-.06-1.13-.16-1.13-.08.44-.24.38-.35.45-.45.41-.29.21-.38.17.61-1.67.52-1.71-1.24,2-1.32,2,1.07-2.24,1-2.28-.57.66-.65.61-.4.3-.48.25.47-.89.4-.94-1.15,1.15-1.22,1.09-.68.41-.75.35,0-.35,0-.41.14-.43.08-.5.65-.73.59-.8-1.66.86-1.71.78,1.39-1,1.35-1.12-1.77.6-1.81.51.83-.59.79-.68-.09-.2-.12-.28-.43-.15-.45-.24.79-.32.78-.41-.29-.18-.3-.27-.08-.21-.07-.3.35-.15.36-.24-.66.1-.7-.06,1.21-.54,1.18-.63-1.28.31-1.32.22.31-.29.26-.38-.77.27-.82.19.55-.49.5-.57,1-1,1-1-.84.39-.9.32.08-.33,0-.39-.87.63-.94.56.72-1.07.65-1.12-1.44,1.53-1.52,1.48.78-1.32.7-1.37-1,1.2-1,1.15.09-.4,0-.45.55-1.43.47-1.47-.83,1.39-.92,1.35.2-.88.11-.91l-.25-.09c-.09,0,0-.59-.09-.62s-.46,1-.55.94.3-2,.2-2-.32.49-.42.48-.53,2-.63,1.95.11-1.85,0-1.87-.27.61-.37.6-.09-1.06-.19-1.06-.29,1.42-.39,1.41-.16-.27-.25-.27-.17-.84-.27-.84S105.09,22,105,22s-.22-2-.32-2-.17.87-.26.87-.15.82-.24.83-.1,1.12-.2,1.12-.26-1.1-.35-1.09-.07,1.1-.16,1.11-.46-2.38-.55-2.36-.22-.14-.32-.13-.16.28-.25.29-.17.2-.26.21,0,1.08-.11,1.09-.21-.15-.31-.13,0,.87-.1.89-.57-1.85-.66-1.84.12,1.5,0,1.52-.53-.14-.62-.12,1.38-.86,1.31-1-2.09.61-2.13.52,2.15-1.12,2.1-1.21-1.45.47-1.5.39-1,.35-1,.27.28-.33.23-.41-.67.25-.72.17,0-.13-.1-.2,1-.94,1-1-.26,0-.32-.1-.5.21-.56.14.89-1.05.82-1.11-1.68,1.4-1.75,1.34.93-1.2.86-1.26-.29.05-.36,0-.66.56-.74.51-.44.36-.51.31.17-.49.1-.54,0-.34,0-.39.6-1.4.52-1.45-.79,1.08-.87,1,.69-1.9.6-1.93S96.19,18,96.1,18s.47-1.73.38-1.76-.27.08-.36.05-.56,1.11-.65,1.09l-.26-.09c-.09,0,.06-1.11,0-1.13s-.56,1.79-.65,1.77.07-1.49,0-1.51-.27.56-.37.55-.12-.67-.21-.68-.29,1.25-.39,1.24-.09-1.75-.18-1.75-.22.07-.32.07-.2,1.2-.3,1.2-.22-1.37-.31-1.37-.11,2-.2,2.05-.2-.48-.3-.47l-.27,0c-.09,0-.21-.21-.3-.2s-.07.81-.17.83-.38-1.34-.47-1.32.15,2,0,2c.12,0-1.06-1.5-1.06-1.6s.93-.22.89-.32-.79.26-.84.17,1.7-1.28,1.64-1.36-1.11.51-1.17.44-.45.11-.51,0,.87-.93.81-1-.36,0-.43,0-.15-.12-.21-.19-1.09.7-1.15.63.51-.71.45-.77-1.18.84-1.25.77.89-1.09.82-1.15.76-1,.69-1.09-1.25,1-1.32.93-.42.2-.49.15-.37.79-.42.77-.11-.08-.2-.11-.1-.13-.19-.16.29-1.52.2-1.54a2.21,2.21,0,0,0-.27-.12c-.09,0-.2,0-.29,0s-.35.87-.45.86.12-2,0-2-.25.18-.34.18-.37,2.09-.46,2.08-.07-2.54-.17-2.55-.24.24-.33.24-.13,2.48-.23,2.48-.23-1.14-.32-1.13-.25-.65-.35-.64-.26-.42-.36-.41-.17.29-.26.3.06,1.37,0,1.38-.29-.51-.38-.49,0,.67-.11.7-.72-1.9-.81-1.88,0,.79-.07.82-.34-.39-.43-.37-.07.45-.15.48.54,2,.45,2-.88-1.73-1-1.7-.61-.91-.7-.87.16.85.07.88.34,1.17.25,1.21.24.85.15.89-1.06-1.68-1.15-1.64.84,2,.76,2S79,14.32,78.94,14.36s-.65-.75-.73-.7.73,1.62.65,1.67.07.44,0,.49-1.3-1.71-1.38-1.66.56,1.22.48,1.26-.67-.66-.74-.61-.28-.06-.36,0,1.15,2,1.07,2.05-.43-.31-.5-.26-.93-1-1-.92-.27-.05-.35,0,1,1.61.89,1.67-.71-.65-.79-.59-1-1-1-.93S76.53,18,76.45,18,75.06,16.53,75,16.59s1,1.55.92,1.6-.74-.64-.82-.58.47.87.39.92-.28-.06-.35,0,.17.49.09.55S74,17.86,73.89,17.92s1,1.5.94,1.55-.37-.16-.45-.1-1.81-1.87-1.88-1.81-.28,0-.35,0,0,.29-.07.35,1.13,1.63,1.06,1.69-.46-.27-.54-.21-1-.89-1-.83.71,1.13.64,1.19.64,1.06.57,1.12-1.25-1.22-1.32-1.16,0,.24-.12.3-1.08-1-1.15-1,1.71,2.37,1.64,2.43-1-1-1.13-.93.5.9.42,1-1.26-1.26-1.34-1.2-.54-.38-.61-.33,1.75,2.47,1.68,2.53-.72-.59-.8-.54.26.61.18.67-1.86-2-1.93-2,1.55,2.25,1.48,2.31-.07.21-.15.27-1.91-2.13-2-2.07,1.3,1.95,1.23,2-.4-.2-.47-.14.2.56.12.62-.22,0-.29.07S66.57,21.91,66.5,22s1.24,1.92,1.17,2-.83-.77-.9-.72.25.65.18.7-.71-.63-.79-.58.82,1.4.74,1.45-1.22-1.32-1.29-1.27-.33-.12-.4-.07,1.34,2.13,1.27,2.19-.85-.84-.93-.79-1.21-1.34-1.29-1.29.61,1.14.53,1.2-.13.13-.21.18-.23,0-.31,0-.28-.08-.36,0,.78,1.41.7,1.46-.93-1-1-.94.25.68.18.73S62.7,25,62.63,25.07s.12.5,0,.55-.25,0-.33,0,.95,1.73.87,1.78-.76-.79-.84-.74.46,1,.38,1.06-.79-.84-.87-.79.42,1,.34,1-.7-.73-.78-.68.27.76.19.81-.74-.8-.82-.75-.24,0-.32,0-.29-.11-.37-.07.51,1.15.43,1.2-.47-.4-.55-.35-.75-.84-.83-.8-.12.15-.2.2-.57-.57-.65-.52.57,1.27.48,1.32-.3-.15-.38-.1.56,1.29.47,1.34-.65-.73-.73-.68-.54-.56-.62-.51-.43-.37-.51-.33.79,1.74.71,1.79-.9-1.21-1-1.16.57,1.37.48,1.41-.56-.62-.64-.58-.09.22-.18.27-.68-.86-.76-.82.67,1.62.58,1.66-.05.31-.13.35-.11.2-.2.24S54.54,29,54.45,29.06s.1.58,0,.62S55.18,31.47,55.1,31.51Z" style="fill:#eb8f00"/><path d="M77.08,107.85l.24,0C77.14,107.84,77.08,107.84,77.08,107.85Z" style="fill:#1c1b1f"/><path d="M175.25,104.2a2.15,2.15,0,0,0,1.74-2.13,2.73,2.73,0,0,0-.76-1.89,2.35,2.35,0,0,0,.32-1,2.08,2.08,0,0,0,.15-2.25,2.23,2.23,0,0,0-.2-1.64,2.5,2.5,0,0,0-.43-1.77,2.2,2.2,0,0,0-1.24-1.94,2,2,0,0,0-.2-.38,2.46,2.46,0,0,0-.64-1.7,2.12,2.12,0,0,0-1.07-1.19c0-.08,0-.16,0-.24a1.79,1.79,0,0,0,.16-.44l0-.17,0-.15A2.24,2.24,0,0,0,174,86l.05-.07a4.81,4.81,0,0,0,1.19-2.41,2.5,2.5,0,0,0-.28-3.26,2,2,0,0,0-.31-1.82,2,2,0,0,0,.14-.53,2.17,2.17,0,0,0,.58-2.87,3.26,3.26,0,0,0-.64-.76,2.29,2.29,0,0,0-.6-1.86,2.25,2.25,0,0,0-1-1.22,2.35,2.35,0,0,0-1.41-1,2.35,2.35,0,0,0-.89-1l-.09-.06a2.28,2.28,0,0,0-1.11-.94l-.14-.08a2.3,2.3,0,0,0-1.54-2.23,2.12,2.12,0,0,0-.7-1.38,1.69,1.69,0,0,0-.13-.31,2,2,0,0,0-.32-.66v-.05l.09-.12a2.24,2.24,0,0,0,0-2.28s0,0,0-.06a2.15,2.15,0,0,0,.73-2.59,2.24,2.24,0,0,0,1-2.34h0a2.2,2.2,0,0,0,2.45-1.79,2.43,2.43,0,0,0,1.08-2.66,2.5,2.5,0,0,0,.48-.73A2.24,2.24,0,0,0,174,47.73l-.11-.18a3,3,0,0,0,.38-.82,2.44,2.44,0,0,0-.26-1.79,2.33,2.33,0,0,0,.1-2.09,2.7,2.7,0,0,0,.12-.69,2.15,2.15,0,0,0-.68-2.25,2.33,2.33,0,0,0-1.16-2.47h0a2,2,0,0,0-.92-1.88,2.42,2.42,0,0,0-1.12-1.51,2.31,2.31,0,0,0-.79-1.45,2.58,2.58,0,0,0-1.06-1.38,2.29,2.29,0,0,0,0-2.13.36.36,0,0,0,0-.11,2.41,2.41,0,0,0,.09-1.57,2.18,2.18,0,0,0,.38-2.57A2.56,2.56,0,0,0,167.69,23l-.08-.12a1.72,1.72,0,0,0-.16-.63,2.36,2.36,0,0,0-.84-2.28,2.19,2.19,0,0,0-1-.7,1.83,1.83,0,0,0-.71-1.33,2.64,2.64,0,0,0-2.44-1.1,2.53,2.53,0,0,0-1.13-1.33,2.44,2.44,0,0,0-2.57-1.19,2.37,2.37,0,0,0-2.56-.19,2.35,2.35,0,0,0-2.77.53c-1.22-1.24-3.1-.4-3.75.91a2.48,2.48,0,0,0-1.41.63,2.19,2.19,0,0,0-1.19.53,2.18,2.18,0,0,0-.92.53,2.57,2.57,0,0,0-1,1,2.52,2.52,0,0,0-.46.29,2.35,2.35,0,0,0-2,2.67A2.3,2.3,0,0,0,141.31,24a2.32,2.32,0,0,0-.43.56c-1.79-.42-3.52,1.35-2.81,3a2.35,2.35,0,0,0-.23.32,2.28,2.28,0,0,0-1,.74,2.15,2.15,0,0,0-1.76,1.56,2.86,2.86,0,0,0-.09,1.21,2.25,2.25,0,0,0-.92,1.56c-.26.17-.49.36-.69.51a1.85,1.85,0,0,0-.67,1.59,2.36,2.36,0,0,0-1,2,2.37,2.37,0,0,0,0,.53,2.19,2.19,0,0,0-.58,1.14,1.81,1.81,0,0,0-.38,1,2.56,2.56,0,0,0-.76.63,2.63,2.63,0,0,0-.73.56.8.8,0,0,0-.16.08,2.32,2.32,0,0,0-1.71.31,2.56,2.56,0,0,0-1.2.16,2.75,2.75,0,0,0-1.73.38,2.72,2.72,0,0,0-.79-.21c0-.07,0-.13,0-.2a2.4,2.4,0,0,0,1.46-2.85,2.82,2.82,0,0,0,.66-1,2.1,2.1,0,0,0,1.13-1.89,3,3,0,0,0-.53-1.63,2.5,2.5,0,0,0,0-2.29,2.33,2.33,0,0,0-2.34-2h-.05a.79.79,0,0,0-.15-.12l0-.17c.11-1.27-1.17-2.18-2.34-2.26h-.17a2.75,2.75,0,0,0-2.32-.59,2.64,2.64,0,0,0-.52.16,2.55,2.55,0,0,0-1.36-.26,3.07,3.07,0,0,0-.42-.07,2.75,2.75,0,0,0-2.07-.8,2,2,0,0,0-.43-.05,2.17,2.17,0,0,0-.19-2.2,2.28,2.28,0,0,0-1.83-2.53,2.39,2.39,0,0,0-1.32-.67,2.25,2.25,0,0,0-1-.54,2.33,2.33,0,0,0-3.21-1.27,2.9,2.9,0,0,0-.57-.12,2.6,2.6,0,0,0-3-.07h0a2.14,2.14,0,0,0-1.45.06,2.3,2.3,0,0,0-2-1.65,2.13,2.13,0,0,0-.23-.58,2.26,2.26,0,0,0-2.6-1.88,2.94,2.94,0,0,0-.94,0,2.6,2.6,0,0,0-1.21,0,2.35,2.35,0,0,0-1.42-.47,2.31,2.31,0,0,0-1.11-.08h0a2.33,2.33,0,0,0-.38-.31,2.4,2.4,0,0,0-3-2.19,4.41,4.41,0,0,0-.57.25,2.19,2.19,0,0,0-2-1.5,2,2,0,0,0-2.33,0c-.12.08-.22.16-.32.24a2.59,2.59,0,0,0-.83.1,2.49,2.49,0,0,0-2.2.35,2.33,2.33,0,0,0-2.48,1,2.73,2.73,0,0,0-1.56.73,2.47,2.47,0,0,0-1,.86,2.17,2.17,0,0,0-.55.62,2.4,2.4,0,0,0-2.06,1.76,3.05,3.05,0,0,0-.69,0,2.42,2.42,0,0,0-2.22,1.54,2.47,2.47,0,0,0-1.86,1.22,2.4,2.4,0,0,0-.85.61,2.62,2.62,0,0,0-.68.52,2.42,2.42,0,0,0-.74.61,2.49,2.49,0,0,0-1.49,1.47,2.34,2.34,0,0,0-2.19,1.6,2.29,2.29,0,0,0-1.81,1.69,2.67,2.67,0,0,0-.2.52,2.12,2.12,0,0,0-.44,0h-.08l-.07-.05a2.61,2.61,0,0,0-3.35.94,2.35,2.35,0,0,0-1.14.8l-.16.05A2.34,2.34,0,0,0,52.2,28.6l-.07,0A2.26,2.26,0,0,0,51,28.47a2.76,2.76,0,0,0-2.16,1.3,1.7,1.7,0,0,0-.4.61l-.11.08a3.47,3.47,0,0,0-1,.11,2.17,2.17,0,0,0-.79.39,2.66,2.66,0,0,0-1.13.24,2.27,2.27,0,0,0-2.15,1.27,1.92,1.92,0,0,0-.79.68,2.48,2.48,0,0,0-2.16.69,2.46,2.46,0,0,0-1.72,1.06,2.7,2.7,0,0,0-1.86.5,2.63,2.63,0,0,0-2.16,1.31,2.38,2.38,0,0,0-1.75.67,2.55,2.55,0,0,0-2,.63,2.44,2.44,0,0,0-2.1.8,1.85,1.85,0,0,0-.82.86,2.24,2.24,0,0,0-.85.59,2.7,2.7,0,0,0-1.77,1,2.66,2.66,0,0,0-1.74,1,2.68,2.68,0,0,0-.85.54A2.43,2.43,0,0,0,20.1,44.3a2.53,2.53,0,0,0-1.74,1A2,2,0,0,0,17,47.31a1.89,1.89,0,0,0-.48.79,2.36,2.36,0,0,0-1.38.68A2.61,2.61,0,0,0,13.36,50a2.14,2.14,0,0,0-.91,2.43.14.14,0,0,1,0,.06,2.57,2.57,0,0,0-1.13.68,2.53,2.53,0,0,0-1.53,1.73,2.27,2.27,0,0,0-.76,2,2,2,0,0,0-.18.32,2.26,2.26,0,0,0-.61,2.53,2.11,2.11,0,0,0-.64,1.9l-.24.12a2.22,2.22,0,0,0-1.07,2.54,4.28,4.28,0,0,0,.4.83,2.33,2.33,0,0,0-.51,2.56,2,2,0,0,0,.1.77,2.36,2.36,0,0,0,.58,2.83A2.29,2.29,0,0,0,7.1,73.8,2.26,2.26,0,0,0,7.93,76a2.22,2.22,0,0,0,1,1.52,2.06,2.06,0,0,0,.21.48,2.48,2.48,0,0,0,0,1,2.37,2.37,0,0,0,.43,1.41A2.22,2.22,0,0,0,11,82.35a2.43,2.43,0,0,0,.24.32,2,2,0,0,0,.59,1.55A2.4,2.4,0,0,0,13.92,86a2,2,0,0,0,.65,1.48l.21.2a2.83,2.83,0,0,0,.57.38,2.56,2.56,0,0,0,1.36.79,4.3,4.3,0,0,0,.09.47,2.53,2.53,0,0,0,1.37,1.51l.15.18a2,2,0,0,0,.81.51,2.46,2.46,0,0,0,.4.3l.25.14a2.32,2.32,0,0,0,1.1.3A2.34,2.34,0,0,0,23,94a2.55,2.55,0,0,0,1.45,1.11,2.65,2.65,0,0,0,2.27.66,2.62,2.62,0,0,0,2.24.7l.14.26a2.24,2.24,0,0,0,2.16,1.08,2,2,0,0,0,.47.28,2.2,2.2,0,0,0,2,1.14,2.44,2.44,0,0,0,.66.15,2.5,2.5,0,0,0,1.17.32,2.08,2.08,0,0,0,.32.12A2.47,2.47,0,0,0,38.66,101a2.47,2.47,0,0,0,1.35.5,2.4,2.4,0,0,0,2.05.88,2.6,2.6,0,0,0,2.18,1.22,2.3,2.3,0,0,0,1.94,1.27,2,2,0,0,0,1.16,1.31,2.19,2.19,0,0,0,1,1.05l.41.18a2.42,2.42,0,0,0,.54.61,2.52,2.52,0,0,0,2.48,1.44,2.69,2.69,0,0,0,.59.71,2.5,2.5,0,0,0,1.17,1.06,2.46,2.46,0,0,0,3,.51h.29l.18.11a2.46,2.46,0,0,0,3.51.51,1.65,1.65,0,0,0,.26-.14,5.14,5.14,0,0,0,.84-.67l.17.06a2.18,2.18,0,0,0,1.56.56,2.39,2.39,0,0,0,.66.1,2.41,2.41,0,0,0,.85.34,2.49,2.49,0,0,0,.58.37,2.66,2.66,0,0,0,1.8.94,2.36,2.36,0,0,0,1.55,0,2.31,2.31,0,0,0,1,.27,2.31,2.31,0,0,0,2.74.89h.3l.27,0a2.89,2.89,0,0,0,1.6.45,2.31,2.31,0,0,0,1.76-.81,2,2,0,0,0,1.17-.06,2.46,2.46,0,0,0,2.28,1.62,2.19,2.19,0,0,0,1.67,1.22,2.37,2.37,0,0,0,2.94-.16,2.13,2.13,0,0,0,1.18.31A2.28,2.28,0,0,0,89,117.6a2.42,2.42,0,0,0,.82.18,2.19,2.19,0,0,0,1,.22,2.35,2.35,0,0,0,1.55,0,2.48,2.48,0,0,0,2.56.43,2.39,2.39,0,0,0,1.25.38,3.83,3.83,0,0,0,.6,0,2.56,2.56,0,0,0,2.84-.51,2.36,2.36,0,0,0,.83-.13,2.37,2.37,0,0,0,3.36-1.08,3.14,3.14,0,0,0,.45,0,2,2,0,0,0,1.64-.64,2.5,2.5,0,0,0,.79-.69,2.41,2.41,0,0,0,1.37-1.05l.22.05a2.39,2.39,0,0,0,3.19-1,2.26,2.26,0,0,0,2-1.18,2.28,2.28,0,0,0,1.54-.19l.34.14a2.39,2.39,0,0,0,2.81-1.35c1.44.4,3.28-.25,3.13-2a2.51,2.51,0,0,0,3.26.33,2.3,2.3,0,0,0,1.64-.28,2.27,2.27,0,0,0,1.09.14,2.41,2.41,0,0,0,2.71-.54,2.36,2.36,0,0,0,2.1-1,2.74,2.74,0,0,0,.51-.45,2.41,2.41,0,0,0,.83-.94,2.25,2.25,0,0,0,1.89-2,2.06,2.06,0,0,0,.21-.76,2.42,2.42,0,0,0,.61-2v0a1.77,1.77,0,0,0,.79-.88,2.17,2.17,0,0,0,.62-1.42,2.24,2.24,0,0,0,.52.16,2.4,2.4,0,0,0,1.28,1.7,2,2,0,0,0,1.36.61l0,0a1.78,1.78,0,0,0,.74,1.33,2.49,2.49,0,0,0,1.8,1.41,2.32,2.32,0,0,0,1.35.8,2.18,2.18,0,0,0,1.25,1,2.75,2.75,0,0,0,.63.35l.11.11a2.34,2.34,0,0,0,2.4,1.55,2.23,2.23,0,0,0,.9.6,2.62,2.62,0,0,0,1.65,2,2.45,2.45,0,0,0,2.67.48,2.79,2.79,0,0,0,1.15.15,2.42,2.42,0,0,0,2.23,1.86,2.61,2.61,0,0,0,1.75.16,2.43,2.43,0,0,0,1.72.16,5,5,0,0,0,.63.12l.32,0a2.32,2.32,0,0,0,1.68-.65,2.09,2.09,0,0,0,1.08-.09c1.41.44,3.27-.55,3.11-2.12a1.81,1.81,0,0,0,0-.23,2.53,2.53,0,0,0,1-.52,2.27,2.27,0,0,0,.45,0,2.62,2.62,0,0,0,3.15-1.25,1.73,1.73,0,0,0,.46-.85,2.45,2.45,0,0,0,.74-.53,2.21,2.21,0,0,0,1.19-2.15,2.55,2.55,0,0,0,.27-1.14A1.59,1.59,0,0,0,175.25,104.2ZM39.94,40.92l.33-.07a2.26,2.26,0,0,0,1.14-.71,1.92,1.92,0,0,0,.89-.67,2.44,2.44,0,0,0,.93-.36,2.55,2.55,0,0,0,1.58-.63,3.19,3.19,0,0,0,.26-.26,2.48,2.48,0,0,0,3.46-1,2.4,2.4,0,0,0,.9-.27,2.48,2.48,0,0,0,2.13-.88,2.55,2.55,0,0,0,.59-.31,1.93,1.93,0,0,0,1-.61,2.13,2.13,0,0,0,1.22-.45l.32,0a2.63,2.63,0,0,0,2.13-1.32,1.81,1.81,0,0,0,.8-.55,6.37,6.37,0,0,0,.45-.61,2.21,2.21,0,0,0,.7-.36h0A2.62,2.62,0,0,0,61,30.7a2.29,2.29,0,0,0,.88-.37,2.4,2.4,0,0,0,.53-.12,2.8,2.8,0,0,0,1.16-.39,2.53,2.53,0,0,0,1-.62,2.31,2.31,0,0,0,.53-.55,2.41,2.41,0,0,0,1.21-.77,2.4,2.4,0,0,0,2.44-1.8l.14-.21.24-.05a2.3,2.3,0,0,0,.74-.36,2.27,2.27,0,0,0,1.63-.87A2.38,2.38,0,0,0,73,23.36a2.11,2.11,0,0,0,.53-.4,2.34,2.34,0,0,0,1.39-1.26,2.4,2.4,0,0,0,1.86-1,2.25,2.25,0,0,0,.4-.52A2.48,2.48,0,0,0,78.51,19a2.24,2.24,0,0,0,1.34-1,2.58,2.58,0,0,0,2.1-.67,2.61,2.61,0,0,0,1.53-.89,2.41,2.41,0,0,0,1.77,0h.06a5,5,0,0,0,.73.52,2.25,2.25,0,0,0,.45.19,2.45,2.45,0,0,0,1,.48,2.39,2.39,0,0,0,.19.53c.14.24.32.46.48.69s.48,1,.36.37c.35,1.93,3.2,2.09,4.21.67a2.06,2.06,0,0,0,.35-.12,2.35,2.35,0,0,0,1.49.37A2,2,0,0,0,96,21.59a2.55,2.55,0,0,0,.39.24l.11.24a1.87,1.87,0,0,0,1.12.93,2.7,2.7,0,0,0,.88.72,2,2,0,0,0,1.16.68l.62.11a2.57,2.57,0,0,0,2,.26,2.18,2.18,0,0,0,1.35.24,2.58,2.58,0,0,0,1.67-.46,2.44,2.44,0,0,0,1.65.4,2.36,2.36,0,0,0,.93.72,2.3,2.3,0,0,0,.67.32l.11.13a2.57,2.57,0,0,0,0,.68,2.4,2.4,0,0,0,.46,2.53,2.81,2.81,0,0,0,1,.86,2.52,2.52,0,0,0,2.1,1.3,2.24,2.24,0,0,0,2.18.83l.09.17a2.59,2.59,0,0,0,3,.95,2.42,2.42,0,0,0,.71-.08,2.36,2.36,0,0,0,.37,0,1.74,1.74,0,0,0,.26.15,2.57,2.57,0,0,0,.84.77,1.69,1.69,0,0,0-.36,1.22,2.36,2.36,0,0,0,0,.28,1.85,1.85,0,0,0-.36.68,2.29,2.29,0,0,0-.64.64,2.49,2.49,0,0,0-.84.93,2,2,0,0,0-.47,2.21,5.92,5.92,0,0,0-.62.61,2.28,2.28,0,0,0,0,3.19l.18.18a2.23,2.23,0,0,0,1.16,1.89,3.68,3.68,0,0,0,.7.3,2.31,2.31,0,0,0,1.09.58,2.41,2.41,0,0,0,1.26.61,2.7,2.7,0,0,0,1.41.74,2.6,2.6,0,0,0,1.3,0,2.61,2.61,0,0,0,2.77-.32,2.15,2.15,0,0,0,2.27-1.08c.07-.15.13-.3.19-.45l.25-.13.12.12c1.15.94,3.31.67,3.87-.67l.05,0a3.47,3.47,0,0,0,1-.3,2,2,0,0,0,.85-.84,2.25,2.25,0,0,0,1.89-1.87A2.15,2.15,0,0,0,138,41.2a2.6,2.6,0,0,0,.13-1.41,2.24,2.24,0,0,0,.5-1.35,2.27,2.27,0,0,0,.49-1.12,2.12,2.12,0,0,0,1.17-2,2.12,2.12,0,0,0,.59-.64,2.39,2.39,0,0,0,1.26-1.59,2.58,2.58,0,0,0,.38-.69,1.86,1.86,0,0,0,1.28-1.78A2.3,2.3,0,0,0,145,29.1a2.23,2.23,0,0,0,.42-1.16,1.07,1.07,0,0,0,.14-.16,1.93,1.93,0,0,0,.53-.46,2.32,2.32,0,0,0,1.45-2.1,2.13,2.13,0,0,0,.13-.45,2.27,2.27,0,0,0,1.08-1.69,2.44,2.44,0,0,0,.14-.28,2.34,2.34,0,0,0,.51-.23,2.13,2.13,0,0,0,2.44-.66,2.25,2.25,0,0,0,1.79-1.07,2.43,2.43,0,0,0,1.71-.37,2.56,2.56,0,0,0,.92-.72,2.41,2.41,0,0,0,.89-.08,3,3,0,0,0,.29.43A2.43,2.43,0,0,0,160,22.53l.21.13a2.2,2.2,0,0,0,.77,1.43,2.32,2.32,0,0,0,.89,1.8,2.14,2.14,0,0,0-.09,2.27,2.64,2.64,0,0,0,.18,1.32,2.27,2.27,0,0,0-.47,2,2.28,2.28,0,0,0,.22,1,2.38,2.38,0,0,0,1.09,2.66,2.31,2.31,0,0,0,1.45,2.51,2.21,2.21,0,0,0,.76,1.11,2.45,2.45,0,0,0,1.21,1.39,2.4,2.4,0,0,0,.27,1.32,2.27,2.27,0,0,0,1.05,2.22l0,0a2.14,2.14,0,0,0,.08.44,2.37,2.37,0,0,0-.35,2.18,2.4,2.4,0,0,0-.11,2,2.93,2.93,0,0,0-.48.39,2.14,2.14,0,0,0-.66,1.4,3.07,3.07,0,0,0-.25.26,2.41,2.41,0,0,0-2.18,1.11,4.65,4.65,0,0,0-.68,2,2.13,2.13,0,0,0-.56.6,2.31,2.31,0,0,0-1,1.76,2.4,2.4,0,0,0-.14,1.43,2.16,2.16,0,0,0-.7,2.76.86.86,0,0,0-.07.1,2.38,2.38,0,0,0-.79,2.58,2.3,2.3,0,0,0,1.06,2.61,4.41,4.41,0,0,0,.79.37,2.82,2.82,0,0,0-.09.91,2.31,2.31,0,0,0,.6,2.92,2.21,2.21,0,0,0,1.51,2.17,2.78,2.78,0,0,0,.26.32,2.16,2.16,0,0,0,.82.85,3.22,3.22,0,0,0,.41.32,2.8,2.8,0,0,0,1.21.59,2.28,2.28,0,0,0,.78,1.34,2.5,2.5,0,0,0,.87.9,2.19,2.19,0,0,0,.38,1c0,.06,0,.11.05.16a2.41,2.41,0,0,0,.27,1.54,2.41,2.41,0,0,0,0,1.1,5.78,5.78,0,0,0-.1,2.7,2.07,2.07,0,0,0-1.34,1.44,2.15,2.15,0,0,0,.15,1.65,2.14,2.14,0,0,0-.15.93,2.22,2.22,0,0,0-.57,1.3,2.57,2.57,0,0,0-.2,3,2.29,2.29,0,0,0,.5,1.56,3.16,3.16,0,0,0,2.24,2s0,0,0,.06a2.3,2.3,0,0,0,1.32,2.38l-.06.23a1.94,1.94,0,0,0-.4,2.48,2.49,2.49,0,0,0-.11.29,2.23,2.23,0,0,0-.27,1.09,2.2,2.2,0,0,0-.49,1.7.07.07,0,0,0,0,0,2.13,2.13,0,0,0-.58,1.26,2,2,0,0,0-.33.39,2.88,2.88,0,0,0-1.28.61,1.92,1.92,0,0,0-.35.23,2.3,2.3,0,0,0-1.48.85,2.49,2.49,0,0,0-1.87,1.09,1.94,1.94,0,0,0-.5.53,2.57,2.57,0,0,0-.48,0,2.4,2.4,0,0,0-1-.17,2.57,2.57,0,0,0-2.4-.18,2.31,2.31,0,0,0-1.39-1.38,2.84,2.84,0,0,0-1.45-.44,2.17,2.17,0,0,0-1.23-.2,2.51,2.51,0,0,0-1.15-1.15,2.35,2.35,0,0,0-1.86-1.33l-.17-.06a2.37,2.37,0,0,0-2.09-1.48l-.2-.11a2.17,2.17,0,0,0-1.17-1.35,2.54,2.54,0,0,0-.24-.2,2.44,2.44,0,0,0-1.86-1,1.81,1.81,0,0,0-.21-.18,2.58,2.58,0,0,0-1.57-1.49,2.19,2.19,0,0,0-1.42-1.05,2.23,2.23,0,0,0-2.25-2.23h0l-.18,0c0-.1,0-.19,0-.3a2.25,2.25,0,0,0-2.69-1.58,2.64,2.64,0,0,0-1.47.24,2.45,2.45,0,0,0-.6.06,2.21,2.21,0,0,0-1,.16,2.45,2.45,0,0,0-2.22,1.63,4.11,4.11,0,0,0-1.71,3.67,2.12,2.12,0,0,0-.58,2,2.09,2.09,0,0,0,0,.66,2.52,2.52,0,0,0-.67,1,2.1,2.1,0,0,0-1.88,1.6,2.74,2.74,0,0,0-1.14,0,2,2,0,0,0-.92.06,2.24,2.24,0,0,0-.58,0,2.6,2.6,0,0,0-.88,0,2.81,2.81,0,0,0-.87,0,2.43,2.43,0,0,0-.38,0,2.46,2.46,0,0,0-3.23,0c-.48.39-1.24.57,0,.17a2.55,2.55,0,0,0-1.64,1.59,2.38,2.38,0,0,0-.39.8,3.57,3.57,0,0,0-.47,0l-.25,0a2.37,2.37,0,0,0-1.83.18,2.59,2.59,0,0,0-.68.09,2.67,2.67,0,0,0-1.68-.28,2.26,2.26,0,0,0-1.63.73,2.73,2.73,0,0,0-2.67,1.55,2.64,2.64,0,0,0-.23.35,2.53,2.53,0,0,0-.64.31,2.44,2.44,0,0,0-3.07.9,4.49,4.49,0,0,0-.18.43,2.64,2.64,0,0,0-1,.29,2.31,2.31,0,0,0-1.53.9l-.1,0a1.89,1.89,0,0,0-.85.19,2.36,2.36,0,0,0-1.44.86l-.33,0a2.15,2.15,0,0,0-1.62.65,2.67,2.67,0,0,0-1.53-.36,4.7,4.7,0,0,0-.72-.64,1.91,1.91,0,0,0-1.86-.18,1.9,1.9,0,0,0-1.18,0,2.54,2.54,0,0,0-.54-.09l-.52,0a2,2,0,0,0-.68.09,2.48,2.48,0,0,0-2.55,0,3.29,3.29,0,0,0-.49.26,2.23,2.23,0,0,0-1.06,0l-.39-.28a2,2,0,0,0-1.62-.27,2.48,2.48,0,0,0-1.46-.85,2.85,2.85,0,0,0-1.08-.41,2.54,2.54,0,0,0-2.91-1.67,3.17,3.17,0,0,0-.44.12c-.15-.06-1.17-.29-1.18-.32a3,3,0,0,0-1,.1,2.6,2.6,0,0,0-1.7.11,2.16,2.16,0,0,0-1.3.58,2.53,2.53,0,0,0-1.68-.76,2.24,2.24,0,0,0-2.81-.46l-.16-.06a2.29,2.29,0,0,0-2.78-1.79,2.59,2.59,0,0,0-2.73.32,2.32,2.32,0,0,0-.44.16,2.31,2.31,0,0,0-.62-.18,2.3,2.3,0,0,0-2.46.26,2.48,2.48,0,0,0-1.32-.27,2.48,2.48,0,0,0-.93-.3,2.4,2.4,0,0,0-.44-.72,2.44,2.44,0,0,0-1.94-1.19l-.06-.07a2.46,2.46,0,0,0-2.33-2,3,3,0,0,0-1.1-1.41l-.23-.17a1.64,1.64,0,0,0-.74-.29,2.15,2.15,0,0,0-.67-.3,3.71,3.71,0,0,0-.69-.12l-.06-.12a2.41,2.41,0,0,0-3.07-1.84,4.06,4.06,0,0,0-.46-.3,2.64,2.64,0,0,0-.7-.25h0a2.22,2.22,0,0,0-1.59-1.08,2.37,2.37,0,0,0-1.38-.4,2.34,2.34,0,0,0-1.83-.76,2.44,2.44,0,0,0-2.21-.47,2.51,2.51,0,0,0-.66-.41,2.55,2.55,0,0,0-1.58-1.41l-.14,0a2.64,2.64,0,0,0-2-.21l-.36-.13-.32-.17A2,2,0,0,0,31.43,91h-.11l-.15-.1a2.46,2.46,0,0,0-2.28-1.6,3.2,3.2,0,0,0-.93-.09l-.06-.1a2.5,2.5,0,0,0-2.79-1,2.19,2.19,0,0,0-.79-1.36,2.4,2.4,0,0,0-1.56-1.57,2.49,2.49,0,0,0-1.83-1.32,2.86,2.86,0,0,0-.71-.38,2.38,2.38,0,0,0-1-1.45,2.31,2.31,0,0,0-.9-1,2.42,2.42,0,0,0-1.23-1.23l-.28-.25a2.54,2.54,0,0,0-.91-.81,2.37,2.37,0,0,0-.75-2.93,2.54,2.54,0,0,0-.37-.8,2.29,2.29,0,0,0-.22-.76,2.16,2.16,0,0,0-.45-1.55,2.5,2.5,0,0,0-.71-1.59,1.8,1.8,0,0,0-.1-.46,2.28,2.28,0,0,0,0-2,2.72,2.72,0,0,0,.2-.61,1.87,1.87,0,0,0,.09-.94,2.29,2.29,0,0,0,0-1.19,2,2,0,0,0,0-.84,2.17,2.17,0,0,0,.66-1.62,1.84,1.84,0,0,0,0-1,2.27,2.27,0,0,0,.3-.46l.11-.08a1.87,1.87,0,0,0,.67-1.38,2.31,2.31,0,0,0,.57-1.44,2.13,2.13,0,0,0,.41-.79,2.39,2.39,0,0,0,1.21-1.47.6.6,0,0,1,.06-.11,2.07,2.07,0,0,0,.72-1.81,2.06,2.06,0,0,0,1.52-1.22,2.49,2.49,0,0,0,1-.74,2.52,2.52,0,0,0,1.48-1.4,1.88,1.88,0,0,0,.62-1.26l0,0a2.19,2.19,0,0,0,.56-.14,2.48,2.48,0,0,0,1.59-.87A2.53,2.53,0,0,0,26.9,47a2.51,2.51,0,0,0,1.44-.76,2.53,2.53,0,0,0,.83-.39,2.28,2.28,0,0,0,.74-.16A2.84,2.84,0,0,0,31,45.2a2.68,2.68,0,0,0,.83-.26,2.54,2.54,0,0,0,2.27-.72A2.73,2.73,0,0,0,34.8,44a2.24,2.24,0,0,0,1.71-1,2.33,2.33,0,0,0,1.29-.31A2.8,2.8,0,0,0,39,41.49,2.3,2.3,0,0,0,39.94,40.92Zm132,38.19h0l0,0ZM28,43.38h0a.09.09,0,0,0,0,0Z" style="fill:#1c1b1f"/><path d="M36.51,51.17c-2.69-1.29-5.07,2.6-2.36,3.89a2.77,2.77,0,0,1,.54.28.24.24,0,0,0,0,.08c0,.48.24.72,0,1.21-.4.79-1.5,1-2.26,1s-2,0-2.42-.56a1.5,1.5,0,0,1,.9-2.19c2.77-1.05,1.56-5.41-1.25-4.35-1.65.63-2.88,1.14-3.7,2.75a6.81,6.81,0,0,0-.71,4.2c.61,3.07,3.44,4.6,6.48,4.63s5.87-.88,7.2-3.64a6.07,6.07,0,0,0,.33-4A4.38,4.38,0,0,0,36.51,51.17Z" style="fill:#b25e00"/><path d="M64.72,60.76a3.77,3.77,0,0,0-.47-1.23,3.63,3.63,0,0,0-1.11-1.19,2.33,2.33,0,0,0-1.52-1.55c.13-.18.25-.36.37-.56a5,5,0,0,0,.49-1.07,1.93,1.93,0,0,0,.33-.31,2.54,2.54,0,0,0,.68-1.6c0-.35-.08-.7-.13-1,0,.4.1.44.17.12.49-2.24-.49-3.61-1.75-5.38-.54-.77-.68-1.21-1.14-1.88a2.22,2.22,0,0,0-1.71-1,2.13,2.13,0,0,0-.26-.32c-2.05-2.14-5.36,1.06-3.31,3.18-.65-.67-.38-.35,0,.29a3.13,3.13,0,0,0,.75.83,2.1,2.1,0,0,0,1.13.4,20.32,20.32,0,0,0,1.14,1.71c.27.36.58.65.6,1.07,0,.23-.24.6-.28.85a1.58,1.58,0,0,0,0,.31,1.84,1.84,0,0,0-.33.39c-.23.38-.22.83-.43,1.21a2.42,2.42,0,0,1-1.88,1.25c-2.19.46-2.28,3.95,0,4.35a6.14,6.14,0,0,1,1.44.62,2.83,2.83,0,0,0,.75.18,2.65,2.65,0,0,0,1,.5,1.72,1.72,0,0,0,.36.56l.47.36.08,0c0,.28,0,.68,0,.74.11.4.54.76.59,1.15a3.54,3.54,0,0,1-.52,1.95c0-.08-.66.43-.81.57a2.25,2.25,0,0,0-.26.31,2.88,2.88,0,0,0-.66.23l-.28.18-.45-.06c-2.27-.27-3.26,3.32-1.18,4.2l.55.24a3,3,0,0,0,.13.77c.21.7.15,1.34.34,2a1.44,1.44,0,0,0,.1.34c-.09.26-.25.53-.31.77a8.94,8.94,0,0,0-.25,1.7,5.14,5.14,0,0,0-.47.9l-.72.5c-2.8-.93-4,3.38-1.2,4.35a3.38,3.38,0,0,0,3.35-.31,10.92,10.92,0,0,0,2.34-1.71,2.85,2.85,0,0,0,.52-1.28c-.08.43.17.09.5-.5.45-.81.27-1.79.52-2.65a5.47,5.47,0,0,0,.3-2.88c-.14-.77-.38-1.59-.49-2.37,0,.18.07-.11.09-.4a2.47,2.47,0,0,0,.42-.3,2.8,2.8,0,0,0,.6-.85l.13-.08c1.15-.67,1.94-2.6,2.16-3.82a10.85,10.85,0,0,0,.26-2.05,7,7,0,0,0-.71-2.08C64.81,61.62,64.76,61,64.72,60.76Z" style="fill:#b25e00"/><path d="M69.22,38.91Z" style="fill:#b25e00"/><path d="M74.91,89.13a6.24,6.24,0,0,0,.55-.72h0a4.28,4.28,0,0,0,1.26-1.48c.1-.27.13-.41.1-.42a3,3,0,0,0,.29-.33,5.1,5.1,0,0,0,.81-1.57,5.78,5.78,0,0,0-.09-1.47,10,10,0,0,0,.21-1.33A8,8,0,0,0,78,80.11a2,2,0,0,0-1.23-1.59,2.42,2.42,0,0,0-.24-.62,3.54,3.54,0,0,0,.84-.68A9.65,9.65,0,0,0,78.1,76a2.3,2.3,0,0,0,.72-.47,2.4,2.4,0,0,0,.83-1.18,2.8,2.8,0,0,0,.07-1c-.27.49-.25.42.06-.22a3,3,0,0,0,0-1.73A3.25,3.25,0,0,0,80,69a3.13,3.13,0,0,0-1.5-1.71c0-.13,0-.26-.07-.39a1.79,1.79,0,0,0-.27-.6,4.24,4.24,0,0,0,.33-.39,10.55,10.55,0,0,0,1-1.14c.07-.1.53-1.14.33-.88.61-.92,1.3-1.44,1.37-2.68,0-.16,0-.24,0-.23a3,3,0,0,0,.69-.68,2.42,2.42,0,0,0-.35-3.15h0a2.91,2.91,0,0,0-.25-.93,2.48,2.48,0,0,0-.68-2.55s-.74-.78-.81-.69c-.09-.37,0-.82-.12-1.2a2.27,2.27,0,0,0-1.63-1.57A2.37,2.37,0,0,0,77,50a.44.44,0,0,0-.1-.15l-.21-.23.11-.06a3.55,3.55,0,0,0,1.54-4.05,1,1,0,0,0,.13-.22,2.3,2.3,0,0,0-.36-2.73,2.6,2.6,0,0,0-.53-.41,1.92,1.92,0,0,0-.22-.51l0,0c0-.08,0-.17-.05-.27a2.67,2.67,0,0,0-1.23-2,4.39,4.39,0,0,0-2.77-2.58,2.13,2.13,0,0,0-.5-.68c-2.22-2-5.54,1.22-3.31,3.19a3.38,3.38,0,0,1-.29-.3c0,.06.12.18.24.4a3.52,3.52,0,0,0,.46.7,2.63,2.63,0,0,0,1.77.9,3.7,3.7,0,0,0,.41,1,2.24,2.24,0,0,0,.74.7,9.87,9.87,0,0,0,.35,1.26,7.87,7.87,0,0,0,.29.75,2.32,2.32,0,0,0,.14,1.25,5.6,5.6,0,0,0-.48.3c-.78.59-1,1.11-1.89,1.59-2.24,1.14-.94,3.91,1.13,4.19l.16.15a6.1,6.1,0,0,0,.65.43c-.07,0,.26.48.37.61a4.89,4.89,0,0,0,1.61,1.2l.07,0a3.07,3.07,0,0,0,.38,1,3.5,3.5,0,0,0,.77.82,2.28,2.28,0,0,0,0,.27,6.15,6.15,0,0,0,.39,1.19c.11.44.07.77.17,1.14a.43.43,0,0,1,0,.07,5.32,5.32,0,0,0-.44,1c-.07.28-.24,1-.12.94a6.3,6.3,0,0,0-.48.57,7.38,7.38,0,0,0-.44.95c0-.11-.49.41-.67.6a3.85,3.85,0,0,0-1.51.43,3,3,0,0,0-.69.59h-.09c-2.15,0-3.42,3.28-1.18,4.2a19,19,0,0,0,2,.8,3.23,3.23,0,0,0,.7.53l.12.26a2.31,2.31,0,0,0,1,.83,2.15,2.15,0,0,0,0,1.5,1.93,1.93,0,0,0-.06.51l-.07.05a9.78,9.78,0,0,0-1,1.44,2.45,2.45,0,0,0-.94.29l-.09.06a2.4,2.4,0,0,0-1,0c-.6.24-.75.3-.45.19a2.25,2.25,0,0,0,0,4.33,1.53,1.53,0,0,0,.23.67,2,2,0,0,0,.66.64,2.24,2.24,0,0,0,.45,1,3.16,3.16,0,0,0,.53.5,10.42,10.42,0,0,0,0,1.85,14.16,14.16,0,0,0-.74,1.25,3.17,3.17,0,0,0-.46.36s-.82.89-.55.73a3.06,3.06,0,0,0-1,.86l-.08.12h-.14a3.59,3.59,0,0,0-1.43.42,5.65,5.65,0,0,0-.88.47c-2.56-.49-3.55,3.51-.86,4.44,1.23.43,2.44.56,3.45-.41l.22-.27h.53a3.93,3.93,0,0,0,3-1.86l.11-.22A4.11,4.11,0,0,0,74.91,89.13ZM81,61v0h0Zm-9.5,25h0Zm6.27-9.86.27-.09Q78,76.19,77.79,76.09ZM72,51.38s0,0,0,.08S71.93,51.4,72,51.38Z" style="fill:#b25e00"/><path d="M89.56,85.75a4.41,4.41,0,0,0,.11-.79l.09-.07a2.35,2.35,0,0,0,1.06-1.43,2,2,0,0,0,1.3-1.31,3.15,3.15,0,0,0,.1-2.23,3.73,3.73,0,0,0-.13-3,2.89,2.89,0,0,0,0-1.21,2.09,2.09,0,0,0-.22-.48,4.79,4.79,0,0,0,1.34-2l0,0a2.42,2.42,0,0,0,.7-.76,4,4,0,0,0,.55-2,2.38,2.38,0,0,0-.74-1.92,6.92,6.92,0,0,0-.67-.48c-.06-.16-.12-.31-.19-.47h0a3.31,3.31,0,0,0,1.52-2.91,2.09,2.09,0,0,0,.4-.49c.39-.7.15-1.28.28-2,.08-.43.43-.83.49-1.34a2.74,2.74,0,0,0-.32-1.54,5.85,5.85,0,0,0-1.44-4.2,7.3,7.3,0,0,0-1.51-1.05,5.1,5.1,0,0,0,2.2-2,4.5,4.5,0,0,0,.91-3.34c0-.15,0-1.32-.07-1,0-.42.11-1,.12-1a4.3,4.3,0,0,0-.06-3.3L95,42.82c-.26-.31-.25-.31,0,0A8.26,8.26,0,0,0,94.52,41a6.78,6.78,0,0,0-1-1.31c.16.15-.43-.79-.46-.83a3.07,3.07,0,0,0-1.85-1.19c-.26-.09-.54-.16-.81-.23l-.14-.11c-2.22-2-5.54,1.22-3.31,3.19a6.68,6.68,0,0,0,2.56,1.35c.18.27.37.55.56.85a9.31,9.31,0,0,1,.51,1.7,2.6,2.6,0,0,0,.44.82l-.1.22a9.71,9.71,0,0,0-.23,2c0,.62.17,1.29.15,1.91,0-.39-.33.1-.57.52a3.59,3.59,0,0,0-1.17.63,14.89,14.89,0,0,1-1.53,1.19,2.25,2.25,0,0,0-.84,3.09,5.43,5.43,0,0,0,1.68,1.76,13.35,13.35,0,0,0,1.78,1.56l.11.06c0,.26.36.52.39.82,0,.47-.18.81,0,1.34a2.32,2.32,0,0,0,.13.37,5.94,5.94,0,0,0-.3,1.39,2.15,2.15,0,0,0-.6.93,4.33,4.33,0,0,0-.1,1.14c-.3.22-.6.45-.89.7-2.35.24-2.92,3.87-.41,4.4a3.14,3.14,0,0,0,.33.34,4.08,4.08,0,0,0,.28,1.08,1.1,1.1,0,0,0,.09.14,2.82,2.82,0,0,0-.31.63l-.21.49-.09.05a1.49,1.49,0,0,0-.14.12,2.25,2.25,0,0,0-1.56,4.2,1.87,1.87,0,0,0,.2.49,2.12,2.12,0,0,0,.3.36,1.52,1.52,0,0,0,.29,1.23l.08.14h0a2.26,2.26,0,0,0-.28,1.49,1.5,1.5,0,0,0-.4.29,2.37,2.37,0,0,0-.65,1.38,3.92,3.92,0,0,0-1.25,1.38l0,0c-.63.34-.83.88-1.41,1.35-.42.35-1,.53-1.41.9s-.75.81-1.17,1.19c-2.18,2,1.13,5.18,3.32,3.18.89-.81,1.88-1.49,2.72-2.33a4.8,4.8,0,0,0,.76-.11A2.3,2.3,0,0,0,89.56,85.75ZM90,50.36l0,0Z" style="fill:#b25e00"/><path d="M110.21,70.9a3.12,3.12,0,0,0,.26-2.79,3.23,3.23,0,0,0-.08-3.09,4.36,4.36,0,0,0-1.9-3.65,4.4,4.4,0,0,0,.76-1.07,2.57,2.57,0,0,0,1.27-1.41,8.54,8.54,0,0,0,.24-1.34c0-.18,0-.3.06-.39a1.14,1.14,0,0,0,.25-.34c1-1.64-.14-4.18-1.08-5.65-.48-.77-1.15-1.32-1.49-1.83a6.79,6.79,0,0,0-2-2,4.76,4.76,0,0,0-2-1.19l-.21-.29a3.86,3.86,0,0,0-1.2-1.18c-2.34-1.78-5.67,1.38-3.31,3.19a7.35,7.35,0,0,0,.72.61,12.93,12.93,0,0,0,.81,1,3.2,3.2,0,0,0,1.34.91l.32.08.09,0a1.54,1.54,0,0,0,.18.16,2.21,2.21,0,0,0,.68.46c.06,0,.52.5.34.26.35.46.33.83.73,1.28s.75.53,1,.89a6,6,0,0,1,.32,1c0,.07.16.4.27.64a3.7,3.7,0,0,0-.44,1.62v0a3,3,0,0,0-.84.82l-.23.54a1.21,1.21,0,0,0,0,.14,6.14,6.14,0,0,1-1.19.39c-2.43.62-2,3.56,0,4.34.23.1.34.13.34.08.27.45.31,1,.82,1.39a2,2,0,0,0,.52.32l.07,0c0,.05.06.11.11.18l0,0a2.62,2.62,0,0,0,0,1.08,1.55,1.55,0,0,0,.28.56,2.16,2.16,0,0,0-.35.65,2.38,2.38,0,0,0,.06,1.35c0,.11.09.21.13.31a.93.93,0,0,1-.22.3c-1,.76.42-.23-.22.26A3.54,3.54,0,0,0,104.23,71a6.67,6.67,0,0,1-.71.34c-1.77.74-1.35,3.62.42,4.08l.24.18.41.19a3.39,3.39,0,0,0,.06.71.13.13,0,0,0,.1,0,3.06,3.06,0,0,0-.66.73,1.8,1.8,0,0,0-.25,1,2.76,2.76,0,0,0-.61.52,2.49,2.49,0,0,0-.47.85l-.17.07a2.84,2.84,0,0,0-2.22.27c-1.37.82-1.68,3.15,0,3.89s5.15.37,6.31-1.38a4.82,4.82,0,0,0,.39-.88l.61-.5a2.1,2.1,0,0,0,.82-2,3.51,3.51,0,0,0,.71-1.49,8.16,8.16,0,0,0,0-3.41,4.48,4.48,0,0,0-.62-1.35A6.9,6.9,0,0,0,110.21,70.9Zm-3.07,10.32s0-.09,0-.12A.5.5,0,0,1,107.14,81.22Zm-4.92-1.41c-.13,0-.18-.06,0,0Z" style="fill:#b25e00"/><path d="M118.7,73.56c-.06.07-.37.41-.52.61l-.61.22c-2.87.85-1.64,5.2,1.25,4.34a6.1,6.1,0,0,0,3.33-2c.85-1,1.7-1.58,2-2.93a6.11,6.11,0,0,0-.81-4.82c.48-.57.91-1.19,1.31-1.74a7.73,7.73,0,0,0,1.25-4.94c-.2-3.65-2.82-6-6-7.55-2.66-1.35-5,2.54-2.36,3.9a6.72,6.72,0,0,1,2.6,1.7,8.9,8.9,0,0,1,.73,1,.92.92,0,0,0,0,.16,2.14,2.14,0,0,0,.24,1,3.28,3.28,0,0,1-.43,2.22,12.34,12.34,0,0,1-1.1,1.28,3.67,3.67,0,0,0-.5.69l-.17.1a2.22,2.22,0,0,0-.48,3.54c.79.75,1.41,1.45,1.07,2.56C119.74,72.28,118.94,73.26,118.7,73.56Z" style="fill:#b25e00"/><path d="M135.92,54.18a9.9,9.9,0,0,0,4.61-1,11.84,11.84,0,0,0,2.2-1.16c.06,0,.09-.06.1-.08l.21-.1a8.09,8.09,0,0,0,1.37-.86c1.08-.88,2.09-1.76,3.18-2.61a16.45,16.45,0,0,0,1.72-1.51s.7-.85.57-.79c.25-.2.54-.36.78-.55a23.4,23.4,0,0,0,5.78-5.84c.49-.7.8-1.36,1.22-2.09a19.28,19.28,0,0,0,1.18-1.76,4.5,4.5,0,0,0,.35-1.4,2.2,2.2,0,0,0,0-.23l0,0a3.82,3.82,0,0,0,.16-2.8c-.64-2.81-5.09-1.65-4.53,1.14a2.75,2.75,0,0,0-.32,1.3,2.28,2.28,0,0,1,0,.24,4.7,4.7,0,0,0-.39.47,16.11,16.11,0,0,0-1,1.9c-.26.43-.67.76-.95,1.17a7,7,0,0,1-.88,1.42c-.49.45-1,.75-1.5,1.25a19.22,19.22,0,0,1-2.68,2.23c-1,.72-1.63,1.75-2.6,2.49s-2,1.57-2.94,2.42l-.37.3c-.18.06-.54.21-.57.23-.58.28-1,.72-1.57,1-.26.12-1.85.74-1,.55a11.92,11.92,0,0,1-2.17.25A2.26,2.26,0,1,0,135.92,54.18Z" style="fill:#b25e00"/><path d="M155.78,49.72c-.06.1-.11.17-.14.23a2.68,2.68,0,0,0-.69.46c-.36.32-.59.78-.92,1.14a9.57,9.57,0,0,1-2.41,1.7c-.47.29-.53.61-.9.91-.55.45-.79.31-1.41.54-.4.15-.76.34-1.15.49-.56.22-1.06.63-1.58.88.28-.16-.86,0-1,.09a4.93,4.93,0,0,0-1,.5c-.84.24-1.8.39-2.64.57-1,.22-2,.67-3,1,.46-.15-1.05.08-1.29.16a10.62,10.62,0,0,0-1.72.77c-2.67,1.36-.31,5.25,2.36,3.89a3.94,3.94,0,0,1,1.28-.35,12.67,12.67,0,0,0,1.8-.6c.26-.1,2-.45,1-.33a9,9,0,0,0,1.86-.38c1.07-.37,2.17-.7,3.27-1a5.61,5.61,0,0,0,1.87-.75l.11-.08a3.65,3.65,0,0,0,.66-.22,4.2,4.2,0,0,0,.51-.22L151,59a5.23,5.23,0,0,0,1.73-.71,12.52,12.52,0,0,0,1.44-1.15c-.55.14-.48.1.2-.15a2.09,2.09,0,0,0,.75-.4,11.89,11.89,0,0,0,2.65-2.3c.14-.17.28-.34.41-.52,0,0,.15,0,.39-.2A3.17,3.17,0,0,0,159.83,52C161.19,49.41,157.15,47.13,155.78,49.72Z" style="fill:#b25e00"/><path d="M143.65,72c.73,0,1.48-.15,2.22-.17-.34,0,1,.16,1,.16.41,0,.71,0,1.13,0a19.69,19.69,0,0,0,4.84.16,8.33,8.33,0,0,0,1.89.37c3,.26,3-4.25,0-4.51l-.3,0-.53-.23a4.52,4.52,0,0,0-2,0,11.78,11.78,0,0,1-2.44-.12,37,37,0,0,0-5.86-.2c-.84,0-1.59-.19-2.44-.19-.56,0-1.13.28-1.63.27s-.93-.22-1.44-.25a20.1,20.1,0,0,0-2.81.24,14.93,14.93,0,0,0-3.05.19c-2.91.75-1.68,5.1,1.24,4.35a19,19,0,0,1,2.62-.06,8.15,8.15,0,0,1,2.26,0,16.71,16.71,0,0,0,2.68-.22C141.89,71.73,142.74,72,143.65,72Z" style="fill:#b25e00"/><path d="M152,77.48a22.85,22.85,0,0,0-2.67-.71,10,10,0,0,0-1.26-.26.94.94,0,0,0-.24,0l-.25-.12a7,7,0,0,0-2.71-.26c-.94,0-1.83-.21-2.78-.17-3,.16-3,4.67,0,4.51.79,0,1.55.13,2.35.16a4.88,4.88,0,0,0,1.08,0,1.38,1.38,0,0,0,.28-.07,1,1,0,0,0,.22.08c1.48.48,3,.65,4.53,1.1a34.52,34.52,0,0,1,4.12,1.29c.67.3,1.37.69,2,1-.78-.38.15.22.31.35.31.27.64.52,1,.79,2.28,1.87,5.6-1.3,3.31-3.19A24.2,24.2,0,0,0,157,79.16,25,25,0,0,0,152,77.48Z" style="fill:#b25e00"/><path d="M164.83,95.44a7.58,7.58,0,0,0-1.15-.62,2.41,2.41,0,0,0-1.5-1.2,2.08,2.08,0,0,0-.46-.14l-.78-.65c-.19-.14-1.88-1-1.21-.55a27.86,27.86,0,0,0-5.24-3c-.89-.38-1.74-.86-2.65-1.25s-2.13-.43-3.15-.91a7.52,7.52,0,0,0-3.16-.85q-.84-.08-.09-.06a2.61,2.61,0,0,0-.95-.49,2.5,2.5,0,0,0-1.09,0l-.1,0c-2.68-1.32-5.05,2.57-2.37,3.89a5.58,5.58,0,0,0,1.69.67,1.57,1.57,0,0,0,.61,0l.23.13a4.12,4.12,0,0,0,1.63.36c.19,0,1,.15.8,0,1,.32,1.83.87,2.82,1.1a8.92,8.92,0,0,1,2.5,1c.89.5,1.85.78,2.78,1.21s1.59.9,2.45,1.35a3,3,0,0,0,.76.66c.14.08,1.5.62.76.16a18.93,18.93,0,0,0,2,1.34,2.19,2.19,0,0,0,.64.73c.55.42,1.27.56,1.86,1C165,101,167.3,97.08,164.83,95.44Z" style="fill:#b25e00"/><path d="M82.82,102.76c-.4-.27-.62-.92-.85-1.33-.35-.61-.81-1.2-1.14-1.81-.54-1-1-2.35-1.65-3.44-1.48-2.53-5.53-.26-4.05,2.27,1.59,2.71,2.54,6.34,5.32,8.2C82.94,108.3,85.28,104.4,82.82,102.76Z" style="fill:#b25e00"/><path d="M94.29,100.89c-.56-1.34-1.05-2.68-1.72-4-1.33-2.6-5.37-.32-4,2.28.55,1.07,1,2.2,1.41,3.32S91,104.77,91.42,106c1,2.72,5.5,1.55,4.52-1.2C95.46,103.43,94.82,102.19,94.29,100.89Z" style="fill:#b25e00"/><path d="M106.1,98.45a8.11,8.11,0,0,0-3.37-4.61c-2.53-1.61-4.88,2.29-2.37,3.89.94.6,1.15,1.82,1.51,2.77a12.54,12.54,0,0,1,1,3.31c.26,2.87,4.94,2.9,4.68,0A24.2,24.2,0,0,0,106.1,98.45Z" style="fill:#b25e00"/><path d="M114.41,92.13c-2-2.18-5.3,1-3.32,3.19a13.17,13.17,0,0,1,3.25,6c.63,2.83,5.15,1.63,4.52-1.2A18,18,0,0,0,114.41,92.13Z" style="fill:#b25e00"/><path d="M127.69,94.61l-.23-.16-.55-.39c-.06-.07-.18-.2-.21-.25a9.6,9.6,0,0,0-.64-.79,6.66,6.66,0,0,1-1-1.68,2.43,2.43,0,0,0-2.88-1.58,2.26,2.26,0,0,0-1.64,2.77,13.44,13.44,0,0,0,2,3.47,9.15,9.15,0,0,0,1.12,1.31,18.57,18.57,0,0,0,1.67,1.19,2.41,2.41,0,0,0,3.2-.81A2.25,2.25,0,0,0,127.69,94.61Z" style="fill:#b25e00"/><path d="M77.14,31.32a23.86,23.86,0,0,0,4.63-3.87,23,23,0,0,0,3.72-4.71c1.41-2.56-2.63-4.84-4-2.28a20.07,20.07,0,0,1-6.68,7C72.2,28.94,74.55,32.84,77.14,31.32Z" style="fill:#b25e00"/><path d="M90.7,32a13.12,13.12,0,0,1,4.2-4.25c2.53-1.55.19-5.46-2.37-3.89a17.93,17.93,0,0,0-5.88,5.87C85.16,32.22,89.2,34.49,90.7,32Z" style="fill:#b25e00"/><path d="M102.65,32.39a2.26,2.26,0,0,0,1.64-2.77,2.42,2.42,0,0,0-2.88-1.57c-3,.47-5.24,2.83-7.26,4.82s1.21,5.28,3.31,3.19C99,34.58,100.41,32.75,102.65,32.39Z" style="fill:#b25e00"/><path d="M103.62,41c3.3-1.55,7.14-2.43,9.46-5.36a2.21,2.21,0,0,0-.84-3.08,2.44,2.44,0,0,0-3.2.81c-.74.93-2.59,1.58-3.68,2-1.39.55-2.76,1.1-4.1,1.73C98.55,38.4,100.92,42.29,103.62,41Z" style="fill:#b25e00"/><path d="M124.45,32.43c-.3.24-.6.49-.88.76h4.24a5.12,5.12,0,0,0-9.06,4.23l3.69-3.69c-.49-.09-1-.17-1.47-.23a3.06,3.06,0,0,0-3.8,2.89c.12-2-.63,1.91-.52,1.41-.41,1.85-.67,2.87.43,4.62v-3c-1.42,2.43-2.13,6.1-.89,8.66l.47-3.63c-.22.23-.43.47-.64.71a3.07,3.07,0,0,0,0,4.24c.21.25.43.49.65.73V45.87c-.22.24-.44.48-.65.73a3.06,3.06,0,0,0-.47,3.64c.63.91-.39-.67.1.32.26.53.42,1.27.68,1.83v-3c-1.55,2.37-1.35,4.71.91,6.51V51.63c-1.76,2.23-2.12,4.25-.07,6.43V53.82a6,6,0,0,0,.18,7.88l-.77-2.91a5.84,5.84,0,0,0-.07,3.46c1.16,3.25.85-1.53.49.55s1,3.7,2.62,4.94l-1.49-2.59a.69.69,0,0,1-.2.89,3.09,3.09,0,0,0,.47,3.64c.41.5.73,1.68.34-.56.12.68-.29,1.25-.08,2a5.44,5.44,0,0,0,2,2.48V69.35l-.79,1c-1.4,1.79-1,4.26,1.32,5l1.19.4-2.09-2.1c.46,2.54.84-.49.19.81a3,3,0,0,0,0,3,19.2,19.2,0,0,0,2.59,2.94l-.77-2.92a4.29,4.29,0,0,0,2.5,6.08l-1.07-4.11c-2.23,3.12-.6,6.2,3,7.06l-2.1-2.09c.44,2.37-.14,3,2.15,5.41L126,87a6.89,6.89,0,0,0-.25,2.85c.19,1,1.4,2,1.46,2.83a3.13,3.13,0,0,0,2.2,2.89q.83.31.21.06l-.77-2.92-.15.88a3.13,3.13,0,0,0,1.38,3.39l.71.43L129.45,94a4.9,4.9,0,0,0,.05,3.21,3.21,3.21,0,0,0,2.9,2.21c.94.15.78.06-.51-.26v-3l-.54,1.23a3.15,3.15,0,0,0,.47,3.63,4.28,4.28,0,0,0,3.86,1.38l-2.59-1.48c-.27-.47-.76-1.59-.37.28a5.38,5.38,0,0,0,.62,1.82,5,5,0,0,0,1.29,1.39c1.43,1.18-.17-1.54.24-.3a3,3,0,0,0,3.69,2.09l1.29-.44-3.69-2.1c.1.38.2.76.31,1.13.65,2.36,4.31,3.1,5.48.72.17-.32.32-.64.47-1a3.11,3.11,0,0,0-1.08-4.11l-1-.64.61,4.71c2.24-2.4,2.13-5.34-1.05-6.76l.61,4.71c2.47-3,1.72-6-2.15-7l2.1,2.1c.49,2.61.68-1.17.45-2a4.18,4.18,0,0,0-2.3-2.6l1.07,4.1c.17-.31.33-.62.49-.94a3,3,0,0,0-1.79-4.4c-.84-.35-.74-.21.28.4v3a7.49,7.49,0,0,0,.89-3.21,3,3,0,0,0-2.2-2.89l-1.22-.33,2.09,3.69a5.24,5.24,0,0,0-1.26-5l.77,2.92a13.92,13.92,0,0,0,.53-1.66,3.05,3.05,0,0,0-2.09-3.69L135,84.5l1.79,4.41a8.14,8.14,0,0,0,.93-2.41,3.06,3.06,0,0,0-2.09-3.69l-1.33-.38,2.21,2.9a5.92,5.92,0,0,0-1-3.62l-.47,3.64.85-1a3.06,3.06,0,0,0-1.33-5l-1.13-.43,2.1,2.09c.21.87.26-2.84.1-2.18a3.12,3.12,0,0,0-1.38-3.39l-.76-.55L135,77.47c.15-2.18-1.05-3.31-2.68-4.53l1.48,2.59q-.21.7.21-.12a3,3,0,0,0-1.07-4.1c-1.54-.7,1.32,3.69.43.22A5.8,5.8,0,0,0,132,69.19l.47,3.63a3.91,3.91,0,0,0-.87-5.75l.77,2.92a5.78,5.78,0,0,0-.65-4.43v3c.17-.28.35-.55.53-.82a3,3,0,0,0-.47-3.64l-.35-.3c.24,1.31.38,1.57.43.77.2,0-.21-1.89-.21-1.89l-.77,2.91c.27-.27.53-.55.8-.83a3,3,0,0,0,0-4.24,17.73,17.73,0,0,0-2.15-1.71l.61,4.72,1-.85a3,3,0,0,0,0-4.25l-.65-.64.77,2.92c.15-.5.3-1,.46-1.48a3,3,0,0,0-1.38-3.39l-1.15-.61,1.48,2.59c0,1,.75-2,.64-2.6a2.74,2.74,0,0,0-.82-1.73c-1.13-.83-.64,2.71.25,1.51a3,3,0,0,0,0-3l-.33-.7L130,54.94c2.42-2.56,1.64-5-1.06-6.86v5.18l1-.71c1.42-1,2.22-3.36.61-4.71l-.87-.73-.61,4.71,1-.69a3,3,0,0,0,1.49-2.59c-.25-2.1-.3-3.41-1.78-5v4.24a7.67,7.67,0,0,0,1.3-1.31c.93-1.19,1.36-3.1,0-4.25l-1-.82.77,2.92a11,11,0,0,0,.41-2.21l-1.49,2.59c.25-.19.51-.36.77-.54a3.09,3.09,0,0,0,1.08-4.1c-.15-.29-.3-.59-.44-.88v3a10,10,0,0,0,1.12-2.82l-2.89,2.2c.36,0,.73,0,1.1,0a3.08,3.08,0,0,0,3-3c0-.31,0-.63.06-.94l-3,3a4,4,0,0,0,3.44-.84c.52-.47.63-1.1,1.07-1.56,1-1-1.94,1.05.09.26,3.56-1.38,2-7.19-1.6-5.78a7.46,7.46,0,0,0-3.46,2c-2.14,2.64,3.49.27.46-.11-1.7-.21-2.89,1.56-3,3,0,.31,0,.63-.06.94l3-3c-.37,0-.74,0-1.1,0a3.13,3.13,0,0,0-2.89,2.21c-.15.37-.52,1.38-.52,1.38a3,3,0,0,0,0,3c.14.29.29.59.44.88L127.54,39c-1.67,1.13-1.85,1.88-2.44,3.75a2.93,2.93,0,0,0,.77,2.92l1,.82V42.19a8.12,8.12,0,0,1-1.3,1.32c-1.28,1.07-1,3.13,0,4.24.57.7.52.48-.15-.63.06.47.11,1,.17,1.42L127,46l-1,.69c-1.47,1-2.19,3.38-.61,4.71l.87.73.6-4.71-1,.71a3.06,3.06,0,0,0,0,5.18c.77.58.69.45-.24-.38l.78-2.92-.69.73a3.12,3.12,0,0,0-.47,3.64l.33.7V52c-1.54,2.08-.78,3.9.69,5.77l-.77-2.92c-.3,1.13-.82,1.73-.81,3a3,3,0,0,0,1.49,2.59l1.15.61L126,57.66c-.16.5-.31,1-.45,1.48a3,3,0,0,0,.77,2.92l.65.65V58.46l-1,.85c-1.61,1.32-.83,3.72.61,4.71a7.6,7.6,0,0,1,.93.77V60.55c-2.19,2.29-2.46,5.56.1,7.82l-.47-3.63c-.18.27-.36.54-.53.82a3,3,0,0,0,0,3l0-.19a3,3,0,0,0,.77,2.92c.78.62.64-2.53-.07-1.53a3.06,3.06,0,0,0,.47,3.64c.16.21.33.41.5.62l-.78-2.92c-.59,2.48,0,4.28,2.38,5.36l-1.08-4.11c-1.39,2.16-1.09,3.49.15,5.5,1,1.59-1-1.32.27.75a6.41,6.41,0,0,0,2,2l-1.38-3.39c-.83,3.54-.54,6.5,3.12,7.91l-1.32-5-.85,1a3.1,3.1,0,0,0-.47,3.63l.16.59a3,3,0,0,0,2.2,2.89l1.32.37-2.09-3.69a2.16,2.16,0,0,1-.33,1,3,3,0,0,0,1.79,4.4l1.22.4L132.52,87a16.19,16.19,0,0,1-.53,1.67,3,3,0,0,0,.77,2.92c-.07-1.35-.17-1.63-.28-.82a3.05,3.05,0,0,0,2.09,3.69l1.22.34-2.2-2.9c.23-.43.21-.37-.07.18a3,3,0,0,0,0,3,5.6,5.6,0,0,0,3.31,2.35l-1.8-4.4c-.16.31-.33.62-.49.94a3,3,0,0,0,1.08,4.1c1.38.79.06-4-.89-1.61a4.48,4.48,0,0,0,0,2.64,3,3,0,0,0,2.1,2.1l1.35.34-2.1-2.09.23.68.77-2.91-.75.92c-1.09,1.32-1.32,3.85.61,4.71l1.11.49-1.49-2.59c.75-1.09.82-1.27.21-.56a3,3,0,0,0,.6,4.71l1,.65-1.07-4.11c-.15.33-.31.65-.47,1l5.49.72c-.11-.38-.21-.75-.31-1.13a3,3,0,0,0-3.69-2.1c-.43.16-.86.3-1.3.45l3.69,2.09c-.4-1.23-.92-2.57-2.34-2.9,0,0,1.05,3.41.72.41a5.3,5.3,0,0,0-.76-2.13,3,3,0,0,0-2.59-1.49c-1,0-.84.08.38.38l.47,3.64c1.7-3.86,0-6.45-4.13-7l2.89,2.2c-.2.6-.21.6,0,0a3.1,3.1,0,0,0-1.38-3.39l-.71-.43,1.38,3.39c.48-3-.69-4.4-3.48-5.4l2.2,2.89c-.12-1.62-.77-2.49-1.22-3.92-.33-1,.12.83-.2-.16-.21-.66-.05-1.56-.3-2.31-1-3-1.58.65-.66-.34.24-.25-.27-2.21-.42-3a2.94,2.94,0,0,0-2.1-2.09c-1-.26-.25,3,.61,1.75a3,3,0,0,0-1.08-4.1c-1.47-.63-.2,1.82.26.7a2.91,2.91,0,0,0-.77-2.92,11.33,11.33,0,0,1-1.66-1.73v3c1.07-2.15.82-3.18.41-5.44A3,3,0,0,0,124,70l-1.2-.39,1.33,5,.79-1c.93-1.19,1.35-3.1,0-4.25-.44-.37-.86-.75-1.28-1.14l.77,2.91c.48-2.32-.31-3.91-1.8-5.68l.47,3.63a5.75,5.75,0,0,0,.91-4.72c-.29-.84-1.19-1.22-1.46-1.9.81,2.06.82.54.64-.45a12.91,12.91,0,0,0-1.08-2.42c-.4-1.07.85,2.13.3-.4-.18-.8-.92-1.35-1.09-2,.7,2.86.33-.63.22-1.18l-.77,2.92.63-.81a3.09,3.09,0,0,0,0-4.24c-.7-.75-.69,3,.08,2,.91-1.16,1.38-3.15,0-4.24-1.11-.88-.19,1.78,0,.76a6.9,6.9,0,0,0,.31-2.31,5.83,5.83,0,0,0-1.09-2.87l-.47,3.63.66-.73a3.08,3.08,0,0,0,0-4.24l-.66-.73v4.24l.64-.71a3.13,3.13,0,0,0,.47-3.64c-.34-.76-.29-.47.15.89a12.25,12.25,0,0,0,.55-1.42c.54-1.25-.33-1.18.19-2.08a3,3,0,0,0,0-3c-.33-.64-.38-.58-.15.17.07.86.21.83.44-.1-.19-.18.5-2.16-.12-.65a9.63,9.63,0,0,0,.74-2.43l-3.79,2.89q.74.11,1.47.24a3.05,3.05,0,0,0,3.69-3.69q-.12-.61-.21-1.23l-.77,2.92c1.14-1-.47-.68,0-.09,1.05,1.31,3.13,1,4.24,0,.28-.26.58-.52.88-.76,3-2.47-1.29-6.69-4.24-4.24Z" style="fill:#1c1b1f"/></svg>