<svg id="레이어_1" data-name="레이어 1" xmlns="http://www.w3.org/2000/svg" viewBox="0 0 240 125"><path d="M212.75,17.78a21,21,0,0,0-16.35,1.49c-5.8,3-10.31,8.34-13.45,14.34-1.5,2.87-2.83,6.07-5.42,7.86-2.27,1.57-5.11,1.79-7.82,2A735.45,735.45,0,0,0,70.15,57.3c-3.37.71-7,1.42-10.21.06-2.84-1.19-4.92-3.77-7.12-6-7-7.24-17.16-12-26.51-9.46S10,55.85,13.82,65.4c3,7.38,10.64,11.08,17.62,14.1a17.57,17.57,0,0,0-6.86,14.09c.08,13.36,13.84,21.12,24.76,16.51,5.72-2.41,10.14-7.66,12.36-13.77.95-2.63,1.69-5.65,3.93-7.14A9.59,9.59,0,0,1,69.77,88l108-15a9,9,0,0,1,3.84,0c2.52.75,4,3.41,5.61,5.64,4.44,6.24,11.66,10.38,18.92,10a18,18,0,0,0,16.23-13c2.3-8.48-2.73-18.58-10.67-21.44,5.88-4.86,12.23-10.59,13-18.54.63-6.87-3.58-13.8-9.47-16.89A17.71,17.71,0,0,0,212.75,17.78Z" style="fill:#fff"/><path d="M227.16,77.47a3.81,3.81,0,0,0,.39-4.62,4.76,4.76,0,0,0-2.21-1.77l-.07,0a7.06,7.06,0,0,0,1.41-1.86,3.81,3.81,0,0,0-1-4.41,2.2,2.2,0,0,0-.18-.14l.06-.19a3.71,3.71,0,0,0-.58-3,7,7,0,0,0,.07-1.3,3.63,3.63,0,0,0-2.13-3,7.65,7.65,0,0,0-1-.27,4,4,0,0,0-.9-1,.81.81,0,0,0,0-.15,5,5,0,0,0-.85-2.14l.28-.18c2.26-1.49,2.21-3.61,2.19-5.74a3.68,3.68,0,0,0,.83-.28,4.12,4.12,0,0,0,2.23-2.28c.2-.09.41-.19.62-.31a3.69,3.69,0,0,0,1.6-3.41c-.09-1.17-.47-1.74-.51-2.84,0-.7-.07-1.3-.15-1.87a5.27,5.27,0,0,0,1.58-1.92,3.46,3.46,0,0,0,0-3,5,5,0,0,0,.46-.94,3.58,3.58,0,0,0-1.1-3.32A3.92,3.92,0,0,0,226.11,24l-.05,0a3.5,3.5,0,0,0-1.82-2.16,3.62,3.62,0,0,0,0-.93,3.91,3.91,0,0,0-3.08-3.34,9.54,9.54,0,0,0-1.94-.26,7.14,7.14,0,0,0-3.44-2.08,9,9,0,0,0-1.64-.33,6.8,6.8,0,0,0-3-1.79A4.12,4.12,0,0,0,209.3,13h-.57a7.19,7.19,0,0,0-1.52-1.1,3.69,3.69,0,0,0-3.7.3,4.61,4.61,0,0,0-1.26,1.27,3.54,3.54,0,0,0-1.07-.7,3.84,3.84,0,0,0-4.41.95,9.85,9.85,0,0,0-1,1.69c.65-1-.19.33-.32.47l-.61.68a5.78,5.78,0,0,0-2.06-.33,3.6,3.6,0,0,0-3,2.11,3.54,3.54,0,0,0-2.25,2c0,.08-.05.18-.07.28a8.33,8.33,0,0,0-1.55.36,3.69,3.69,0,0,0-2.41,2.87,4.84,4.84,0,0,0,0,1.13,3.08,3.08,0,0,0-.87,1.43,4.05,4.05,0,0,0-2,2.94,9,9,0,0,0-.15,1,4.58,4.58,0,0,0-.76,1.55,4.75,4.75,0,0,0-.12.88L179,33a3.64,3.64,0,0,0-1.61,3,7.92,7.92,0,0,1-1.71,2c-.23.15-1.08.18-1.47.39a4.06,4.06,0,0,0-1,.74,3.71,3.71,0,0,0-3.94-.23,3.79,3.79,0,0,0-3.47.55,4.35,4.35,0,0,0-.59.54c-.36-.21-.74-.42-1.11-.59a3.67,3.67,0,0,0-3.7.31h0a15.25,15.25,0,0,0-2.84-.35,4.72,4.72,0,0,0-2.93.75,3.38,3.38,0,0,0-2.55.63c-.21.19-.4.36-.57.54A4.85,4.85,0,0,0,148.17,40a5.25,5.25,0,0,0-3.42.9,5.34,5.34,0,0,0-1.07,0A4.63,4.63,0,0,0,140,42.32l0,0a3.45,3.45,0,0,0-1.54.54c-.24-.13-.49-.28-.81-.43a3.74,3.74,0,0,0-3.7.3,5.66,5.66,0,0,0-.76.71,4.56,4.56,0,0,0-1.56-.29,35.54,35.54,0,0,0-3.85.25,4,4,0,0,0-.5.08,5.9,5.9,0,0,0-.86-.6,3.51,3.51,0,0,0-3.82.46A3.83,3.83,0,0,0,120,44a5.39,5.39,0,0,0-1,.9,3.65,3.65,0,0,0-.65-.37,5.74,5.74,0,0,0-4-.15,4.77,4.77,0,0,0-1.13.49,3.61,3.61,0,0,0-2.57.41,5.73,5.73,0,0,0-4.18.05,3.77,3.77,0,0,0-.69.46l-.18,0a5.25,5.25,0,0,0-4.38,1.35,4.42,4.42,0,0,0-.44.55A3.94,3.94,0,0,0,99.22,47a6.52,6.52,0,0,0-4.14.76,4.84,4.84,0,0,0-1.48,1.7l-.45.16a4.68,4.68,0,0,0-1.26-.89,3.82,3.82,0,0,0-4.41.94,9,9,0,0,0-1,1.55,8.79,8.79,0,0,0-2.29-.62A5.55,5.55,0,0,0,80.36,52a4.49,4.49,0,0,0-1.51,0,6,6,0,0,0-.66-.4,3.86,3.86,0,0,0-3,0,3.86,3.86,0,0,0-4.24,1,5.13,5.13,0,0,0-.79,1.19,4,4,0,0,0-.78,0,5.23,5.23,0,0,0-.93-.63,3.67,3.67,0,0,0-3.7.3c-.27.23-.59.51-.89.82a4,4,0,0,0-2.16-.85c-.29-.25-.63-.54-.93-.75-.08-.17-.17-.34-.26-.51a4,4,0,0,0-1.61-1.28,4.24,4.24,0,0,0-2.7-2,2.91,2.91,0,0,0-.56-.11,4,4,0,0,0-2.14-3.9,39.2,39.2,0,0,0-4.19-1.72,5.76,5.76,0,0,0-1.1-.3,1.68,1.68,0,0,0-1-.87c0-.13-.09-.26-.15-.42a4.48,4.48,0,0,0-1.73-2.18,6.33,6.33,0,0,0-4.26-1A6.19,6.19,0,0,0,39.31,37a3.91,3.91,0,0,0-3.51.19l0,0c-1.48-1.26-3-1.08-4.59-.43-.42,0-.84-.06-1.26-.06a3.79,3.79,0,0,0-1.69.62l-.63-.14a5.4,5.4,0,0,0-3.91.51,3,3,0,0,0-1,1.17,7,7,0,0,0-2.28.42,3.83,3.83,0,0,0-2.13,2.17,4.36,4.36,0,0,0-1.68,1.24,7.2,7.2,0,0,0-3.53,1.81,3.87,3.87,0,0,0-1.16,2l-.25.16a5.14,5.14,0,0,0-2.15,4.47l-.45.39a3.38,3.38,0,0,0-.84,2.82l-.16.14a3.61,3.61,0,0,0-.68,3.69A5.73,5.73,0,0,0,8.8,60.1a5.85,5.85,0,0,0-1.12,1.59,3.87,3.87,0,0,0,1,4.41,2.85,2.85,0,0,0,.69.48,3.34,3.34,0,0,0,.84,1.84l.13.12A6.07,6.07,0,0,0,12,72.36a5.16,5.16,0,0,0,2.53,1.39,1.19,1.19,0,0,1,0,.14,3.68,3.68,0,0,0,2.2,2.25,4,4,0,0,0,3.69,2.1,3.15,3.15,0,0,0,.44,0,3.77,3.77,0,0,0,.23.89,4.14,4.14,0,0,0,1.7,2,2.5,2.5,0,0,0-.28,1v.24a3,3,0,0,0-1.23,1.35,11.17,11.17,0,0,0-.45,1.81.76.76,0,0,1-.08.11,4.1,4.1,0,0,0-.43,4.28,4.17,4.17,0,0,0-.78,3.79,5.64,5.64,0,0,0,1.66,3.22.71.71,0,0,0,.14.1,5,5,0,0,0,.53,2.94c-.3,1.71-.36,3.45,1,4.93a3.88,3.88,0,0,0,2,1.16,14.75,14.75,0,0,0,.78,2.44,5.91,5.91,0,0,0,4.63,4.25,3.75,3.75,0,0,0,.24.44,3.65,3.65,0,0,0,3.4,1.59,5.72,5.72,0,0,0,.79-.19,4.56,4.56,0,0,0,2,1.46,5.36,5.36,0,0,0,4.81-.25,3.12,3.12,0,0,0,.63-.54,4.17,4.17,0,0,0,.5,0s1.58-.29,1.54-.42a8.92,8.92,0,0,0,1.28.52,3.64,3.64,0,0,0,3.74-1.06,5.56,5.56,0,0,0,1.13.38,3.65,3.65,0,0,0,3.53-1.37,10.64,10.64,0,0,0,4.37-2.06c1.26-.91,3.28-3,3.59-4.56,0-.09,0-.17,0-.25a6.81,6.81,0,0,0,1.83-2,3.84,3.84,0,0,0,.55-2.54c.16-.07.31-.15.48-.24,1.55-.82,1.77-2.85,1.39-4.33a4.52,4.52,0,0,0-.37-.9,6.82,6.82,0,0,0,1-1.87,4.94,4.94,0,0,0,.28-1.15,9.92,9.92,0,0,0,1.24-.17A1.74,1.74,0,0,0,68.9,93l.25.06a9.79,9.79,0,0,0,2.4.18,6.87,6.87,0,0,0,3.92-1.94l.15,0a3.72,3.72,0,0,0,3.12-.75,5.86,5.86,0,0,0,4.51-1.06l0,0,.14.14c1.82,1.82,3.78,1.36,5.93.46.23-.1.45-.18.66-.28l.39.24a3.6,3.6,0,0,0,3.69-.3,7.19,7.19,0,0,0,.93-.88,4.17,4.17,0,0,0,.49-.08,4.75,4.75,0,0,0,.88.47,5.83,5.83,0,0,0,3.83.34,3.69,3.69,0,0,0,1.26-.78,4.14,4.14,0,0,0,2.53-.9,4.41,4.41,0,0,0,3.89-.4,3.72,3.72,0,0,0,.67-.58,6.94,6.94,0,0,0,2.61.47,4,4,0,0,0,3.68-2.26,4.71,4.71,0,0,0,.29-.77l.18-.07c.06,0,.44,0,.77-.06a5.21,5.21,0,0,0,2,1.68,3.65,3.65,0,0,0,3.69-.3l.36-.31.1,0a4,4,0,0,0,4.42-.95,3.56,3.56,0,0,0,.26-.31,7.74,7.74,0,0,0,3.41.26,6,6,0,0,0,2.22-.67,4.21,4.21,0,0,0,2.74.8,6.88,6.88,0,0,0,3.45-1.64,7.25,7.25,0,0,0,1.87-.19,4.74,4.74,0,0,0,1.1.61,3.9,3.9,0,0,0,4.42-1,3.19,3.19,0,0,0,.53-.68,3.66,3.66,0,0,0,2.48-.41c.28.15.56.29.81.4a3.89,3.89,0,0,0,4.42-1,3.51,3.51,0,0,0,.37-.41,2.63,2.63,0,0,0,1.5-.62l.59-.53a7,7,0,0,0,.65.52,4.15,4.15,0,0,0,4.86-.14l.76-.58a3.9,3.9,0,0,0,3.47-1.09,6.26,6.26,0,0,0,1.32.85,3.87,3.87,0,0,0,4.42-1,3.58,3.58,0,0,0,.58-.83,3.25,3.25,0,0,0,1.45-.13l.38.21a3.82,3.82,0,0,0,3.19,0,3.31,3.31,0,0,0,1.13.13,3.82,3.82,0,0,0,1.9,1.37,4.22,4.22,0,0,0,2,2.29c.26.15.54.29.82.42A6.65,6.65,0,0,0,186.34,85c0,.11,0,.22.08.34a3.63,3.63,0,0,0,2.87,2.4,6.24,6.24,0,0,0,1.43,0A3.56,3.56,0,0,0,191,89c.62,1.39,2.16,2.77,3.84,2.44a5.31,5.31,0,0,0,1.85-.66,8.8,8.8,0,0,0,3.36,2.38,4.41,4.41,0,0,0,4.65-1,5.13,5.13,0,0,0,.57.45A10.6,10.6,0,0,0,208.51,94,3.7,3.7,0,0,0,212,92.78a6.12,6.12,0,0,0,1.27-3.27l.08-.06a3.37,3.37,0,0,0,1.82-.37,4.34,4.34,0,0,0,1-.71,5.13,5.13,0,0,0,2.36.42,3.81,3.81,0,0,0,3.32-3,2.9,2.9,0,0,0,.95-.28,3.9,3.9,0,0,0,2.45-3.84c0-.08,0-.15,0-.23a6.36,6.36,0,0,0,1.44-1.55A3.85,3.85,0,0,0,227.16,77.47Zm-5.65,4.81c0-.07,0-.07,0,0Zm3.55-8.42c-.19-.29-.17-.4,0,0ZM205.74,88.68c-.11.5-.31.49,0,0Zm17.95-57.59c.63-.1.72.23,0,0Zm.21,2.4c.26.16.3.24,0,0Zm-6.22,24Zm-.3-7.07c-.22-.55,0-.62,0,0Zm1.54,12.16h0C219.1,62.61,219.13,62.63,218.92,62.59Zm2.61,8.32c.44.14.34.19,0,0Zm1-7.64Zm-1.22,1c.45-.11.54,0,0,0Zm.51-40.33c-.54.06-.66-.19,0,0ZM211,54.28c.24.57,0,.64,0,0ZM141.61,47c-.07-.05-.09-.1,0-.13S141.58,46.88,141.61,47Zm11-3.33c-.19.37-.3.36,0,0Zm39.24-20.2c-.14,0-.13-.06,0,0Zm-5.75,2.52c.41-.08.47,0,0,0Zm15.45-11.56c-.2.22-.24.2,0,0ZM197.1,19c-.23-.16-.19-.2,0,0ZM148.72,44.5c.19.18.16.21,0,0Zm-19.18,3c.28.31.19.38,0,0ZM122,48.73c-.28-.31-.2-.39,0,0Zm-10.48,1.7c.08-.83.54-.78,0,0ZM110,49.91c.32.29.17.33,0,0ZM104,51c-.14.53-.27.44,0,0Zm-.93.07c.4.35.19.41,0,0Zm-.23,1s0,.05,0,.09A.06.06,0,0,1,102.82,52Zm-6.89,1.18a.28.28,0,0,0,0,.14S95.89,53.27,95.93,53.22ZM55.08,51.15a.1.1,0,0,1,0,0h0l.05,0Zm-1.57.74c-.16,0-.17,0,0,0ZM58.11,58c.47-.24.56-.09,0,0Zm-32.85,18c-.28.24-.36.18,0,0ZM23.05,88.12c.11-.07.11-.06,0,0ZM25.4,95.3c-.44.38-.56.23,0,0Zm1.46-9.23c-.31-.4-.24-.54,0,0Zm4.42-5.68c.26-.21.33-.16,0,0ZM12.59,52.86c.15,0,.19,0,0,0ZM11.08,58.2c.49.36.35.63,0,0ZM15.16,52c-.61-.4-.37-.7,0,0Zm9.61-8.53a.54.54,0,0,0,.07.2C24.76,43.62,24.71,43.55,24.77,43.49ZM62,98.23c-.19.11-.18.08,0,0Zm-7.47,10.24c-.08-.53.17-.65,0,0ZM57,103.18c.23.53.1.62,0,0Zm-19.12,9.06c.22-.16.27-.11,0,0Zm9.47-2c.13.62-.2.71,0,0ZM65.5,89c0-.11,0-.13,0,0Zm5.27-3.26h0Zm13.47,3.51c.09,0,.16,0,.16,0S84.33,89.32,84.24,89.28Zm28.25-8.46s0,0,0,.05S112.5,80.84,112.49,80.82Zm17.81-4,0,0S130.34,76.83,130.3,76.84Zm25.63,1.43a.71.71,0,0,1-.37-.1l0-.1A3.79,3.79,0,0,0,155.93,78.27Zm-.5-.32,0,.08a1.15,1.15,0,0,1-.18-.23C155.29,77.86,155.36,77.9,155.43,78ZM162,73.68c.27.16.23.18,0,0Zm9.58-1.44c.41.23.35.29,0,0Zm30.58,13a.69.69,0,0,0,0-.1,6.93,6.93,0,0,0-3.14-3.4,3.56,3.56,0,0,0-1.64-.34,5,5,0,0,0-1.25-.76c-.23-.08-.47-.13-.71-.2l-.38-.26a4.34,4.34,0,0,0-2-.87h-.11a4,4,0,0,0-1-.74,5.19,5.19,0,0,0,0-.79,3.65,3.65,0,0,0-2.12-3l-.23-.08c0-.11,0-.21,0-.32a3.65,3.65,0,0,0-2.13-3,8.34,8.34,0,0,0-1.9-.45,5.46,5.46,0,0,0-.53-1.09,3.65,3.65,0,0,0-3.4-1.6,8.85,8.85,0,0,0-2,.59,6.36,6.36,0,0,0-.58-.35,3.65,3.65,0,0,0-3.6.24l-.1,0a3.38,3.38,0,0,0-1.83.21,2.55,2.55,0,0,0-.54-.24,6.62,6.62,0,0,0-3.76.22,4.41,4.41,0,0,0-1.22.75,4.14,4.14,0,0,0-1.52-.37,6.32,6.32,0,0,0-4,1.29l-.17.19a3.21,3.21,0,0,0-2.14.58,3.11,3.11,0,0,0-.53.41,6.2,6.2,0,0,0-2.85-1,6.59,6.59,0,0,0-3.76,1,1.9,1.9,0,0,0-.31.29,3.64,3.64,0,0,0-2.09.58,5.27,5.27,0,0,0-.72-.41,3.83,3.83,0,0,0-4.41,1,3.18,3.18,0,0,0-.48.63,4.87,4.87,0,0,0-1.9.34,4.1,4.1,0,0,0-1.61,1.13,4.08,4.08,0,0,0-1.05,0,6.24,6.24,0,0,0-1.57-1.07c-1.59-.84-3.21-.14-4.41.94l-.22.23a4.57,4.57,0,0,0-.93-.58,3.85,3.85,0,0,0-4.41.95,2.7,2.7,0,0,0-.43.53A4.81,4.81,0,0,0,125,75.7a4.88,4.88,0,0,0-3,1.5l0,0a4.27,4.27,0,0,0-1.43-.13,3.87,3.87,0,0,0-.88.2,7.17,7.17,0,0,0-2-.43,14.57,14.57,0,0,0-2.86-.22,2.69,2.69,0,0,0-.94.4l-.9-.26a3.5,3.5,0,0,0-3,.87l-.19-.12a3.65,3.65,0,0,0-3.7.3,12.39,12.39,0,0,0-2.17,2v0a3.41,3.41,0,0,0-2.1.08l-.17-.1a3.81,3.81,0,0,0-4.41,1,2.73,2.73,0,0,0-.28.33,4,4,0,0,0-2.19.06l0,0a5.12,5.12,0,0,0-2.06.12,6.21,6.21,0,0,0-.76-.49c-1.55-.87-3.26-.12-4.42.94,0,0-.21.31-.42.66a4,4,0,0,0-.51-.28,9.53,9.53,0,0,0-4.84-.22,4.49,4.49,0,0,0-2.21,1,2.27,2.27,0,0,0-.28.21c-1-.74-2.13-.26-3.1.4a4.24,4.24,0,0,0-.87-.54,3.89,3.89,0,0,0-4.41,1,4,4,0,0,0-1,1.73h-.06a6.07,6.07,0,0,0-2.51,0,4.12,4.12,0,0,0-1-.33,4.84,4.84,0,0,0-2.3.15c.08,0-1.93,1.17-1.36.94a15.12,15.12,0,0,0-2.7,1,3.73,3.73,0,0,0-1.6,3.41,5.11,5.11,0,0,0,.21.9l0,0a3.67,3.67,0,0,0-1.6,3.4A6.31,6.31,0,0,0,57,96a3.71,3.71,0,0,0-1.21,3c0,.26,0,.55.07.84h0a3.67,3.67,0,0,0-2.41,2.88,5.81,5.81,0,0,0,.27,2.39l-.06,0a4.7,4.7,0,0,0-2.23-1,4.12,4.12,0,0,0-3.33,1.11,3.9,3.9,0,0,0-2.35,1.29c-.27.33-.51.68-.75,1a6.79,6.79,0,0,0-1.56-.1,3.81,3.81,0,0,0-4.1-.4l-.17-.28a3.85,3.85,0,0,0-4.33-1.39,3.1,3.1,0,0,0-1,.44,9.67,9.67,0,0,0-1.36-.35l.06-.19A5.94,5.94,0,0,0,32.9,103a3.69,3.69,0,0,0-2.13-3,6.33,6.33,0,0,0-1.31-.39c0-.36.06-.65.06-.72a3.82,3.82,0,0,0-.39-1.28,4.74,4.74,0,0,0,.58-.91,3.85,3.85,0,0,0-.94-4.41l-.06-.06a6.08,6.08,0,0,0,.2-1.31,5.61,5.61,0,0,0-.53-3l-.22-.35a3.05,3.05,0,0,0,1.27-1.08,3.75,3.75,0,0,0,.43-1A4.78,4.78,0,0,0,31.15,85a3.2,3.2,0,0,0,1.57-1.85c2.44-1.07,3.52-4.23,1.2-6.26A8.29,8.29,0,0,1,32.56,75a3.64,3.64,0,0,0-3.4-1.6c-.25,0-.48.11-.69.17l-.17-.09s0,0,0-.06A3.69,3.69,0,0,0,25.41,71H25a4.15,4.15,0,0,0-.92-.7c-.53-1.63-2.25-2.25-3.79-2.31h-.17c-.21-.18-.43-.35-.67-.53a10.61,10.61,0,0,0-.94-.6,3.85,3.85,0,0,0-1.93-3.53,1.12,1.12,0,0,0-.06-.23,4.56,4.56,0,0,0,1.15-3.82,4,4,0,0,0-.37-1,3.61,3.61,0,0,0,.51-3.38,4.1,4.1,0,0,0-.65-1.18,4.69,4.69,0,0,0,.95-.23,3.72,3.72,0,0,0,2.38-3.06,3.92,3.92,0,0,0,2.66-2.91v0a3.92,3.92,0,0,0,.75-.62,3.42,3.42,0,0,0,.45-.67,4.51,4.51,0,0,0,2.08-.3,5.69,5.69,0,0,0,1.16.85A3.81,3.81,0,0,0,32,45.81a3.19,3.19,0,0,0,.38-.46,3.68,3.68,0,0,0,3.34.41,2,2,0,0,0,.29-.15,5.05,5.05,0,0,0,.43.79,3.8,3.8,0,0,0,4.33,1.39,3.36,3.36,0,0,0,1-.51,4.15,4.15,0,0,0,.36,1c.56,1.1,1.49,2.35,2.88,2.41a6.17,6.17,0,0,0,2.22-.16l.13,0,.06,0a3.21,3.21,0,0,0,0,.62,8.08,8.08,0,0,0,1,3A3.26,3.26,0,0,0,50.66,56a3.81,3.81,0,0,0,3.07,3.29A5,5,0,0,0,56,59a4.5,4.5,0,0,0,.45,1.37,3.62,3.62,0,0,0,3.4,1.6,3.67,3.67,0,0,0,.87-.28,7,7,0,0,0,4.13.75,9.18,9.18,0,0,0,1.42-.29,4.51,4.51,0,0,0,1,.69,3.66,3.66,0,0,0,3.91-.53,3.92,3.92,0,0,0,3.31-1.2,3.79,3.79,0,0,0,.6-.73A3.65,3.65,0,0,0,77.21,60l.49.12a3.28,3.28,0,0,0,2.64-.68,3.54,3.54,0,0,0,2.43-.21,6.7,6.7,0,0,0,1.09-.59,4.27,4.27,0,0,0,1.36.93,5,5,0,0,0,4.58-.68A6.79,6.79,0,0,0,91.07,58c1.8.54,3.17-.42,4.53-1.37a4.16,4.16,0,0,0,2.12-.33,4.37,4.37,0,0,0,1.23.91c1.59.84,3.21.13,4.41-1a9.06,9.06,0,0,0,.66-.83,2.53,2.53,0,0,0,.61-.27,4.78,4.78,0,0,0,1.18.88,3.79,3.79,0,0,0,4.42-1,3.35,3.35,0,0,0,.52-.73,3.48,3.48,0,0,0,1.67-.15,1.08,1.08,0,0,1,.18.11,3.83,3.83,0,0,0,4.42-1,3.49,3.49,0,0,0,.42-.55,7,7,0,0,0,2.5.3,3.73,3.73,0,0,0,1.73-.66,6.33,6.33,0,0,0,.58.34,3.24,3.24,0,0,0,2.43.22,5,5,0,0,0,.45.29c1.53.88,3.27.11,4.41-1a3.19,3.19,0,0,0,.84-1.37,1.57,1.57,0,0,0,.88-.19l.05-.06a4.63,4.63,0,0,0,1.51.56,6.69,6.69,0,0,0,3.26-.56,2.55,2.55,0,0,0,.63-.39,5.18,5.18,0,0,0,1.67.39,4.18,4.18,0,0,0,1.7-.22l.17.1a3.69,3.69,0,0,0,3.77-.42c.14.09.27.19.43.28,1.5.89,3.29.12,4.41-.95a1.8,1.8,0,0,0,.19-.2,14.39,14.39,0,0,0,2.23.68c1.54.35,2.81.42,4-.54a3.4,3.4,0,0,0,2.52-.63,7.71,7.71,0,0,0,.91-.89,10.66,10.66,0,0,0,1,.69,3.56,3.56,0,0,0,3.69-.3c.15-.13.29-.25.42-.38a5.3,5.3,0,0,0,2.9.69,4.08,4.08,0,0,0,3.44-1.84l.08-.15c.11.08.21.16.34.24a7.2,7.2,0,0,0,2.68,1.29c2.64.37,3.59-1.54,4.79-3.21A8.68,8.68,0,0,0,182,42.15h0a4.28,4.28,0,0,0,1.5-.36A4,4,0,0,0,186,38.57a3.83,3.83,0,0,0,1.25-3.16,14.21,14.21,0,0,0-.29-1.5s0,0,0,0l.08-.15a3.59,3.59,0,0,0,.17-.34,3.55,3.55,0,0,0,.86-.23,3.68,3.68,0,0,0,2.41-2.88c0-.24,0-.47,0-.69a3.3,3.3,0,0,0,1-1.79,5.75,5.75,0,0,0,.7-.23,4.09,4.09,0,0,0,1.42-1h.23a3.69,3.69,0,0,0,2.89-1.8,5.15,5.15,0,0,0,2-1.38c.45-.48.76-.85,1-1.16a3.77,3.77,0,0,0,3.46.52,9.67,9.67,0,0,0,3.14-2.41l.16-.15c.35.07.7.12,1.08.17a7,7,0,0,0,1.12.08A3,3,0,0,0,209,21a3,3,0,0,0,3.54,1.78c.42-.07.85-.17,1.27-.26a4,4,0,0,0,.9,1.12,3.9,3.9,0,0,0,1.49.78,6.77,6.77,0,0,0,.67,1.82,8,8,0,0,0,.45.76A3.8,3.8,0,0,0,219.44,31a4.46,4.46,0,0,0,1,.31,3.69,3.69,0,0,0,.29.4,3,3,0,0,0,0,.81l-.09.14a6,6,0,0,0-.82,4.52l.13.47,0,.06a2.13,2.13,0,0,0,0,.27c0,.14,0,.28,0,.41a4,4,0,0,0-2.41,3.18,4.36,4.36,0,0,0-2.17,2.8,9.88,9.88,0,0,0-.1,2.81,5.94,5.94,0,0,0-2-.2,3.8,3.8,0,0,0-2.72,1.64c-2.07.5-2.57,2.57-3.54,3.84-1.86,2.45-.53,5.26,2.21,6.09,1.1.34,2.35.84,3.52,1.09A4,4,0,0,0,214,61.87c.1,1.63,1.64,2.69,3,3.11a6.29,6.29,0,0,0,.31,2.6,5.11,5.11,0,0,0,.31.8,11.32,11.32,0,0,0-.45,4.12,5.15,5.15,0,0,0,.93,3,3.85,3.85,0,0,0,0,.68l-.29.16a3.53,3.53,0,0,0-1.61,2.9,3.49,3.49,0,0,0-1.3.93,5,5,0,0,0-3,1.65,3.13,3.13,0,0,0-1.39.17,11.75,11.75,0,0,0-2.89,2.18l-.2.19a3.75,3.75,0,0,0-1.86-.34A11.53,11.53,0,0,0,202.18,85.27Z" style="fill:#1c1b1f"/><path d="M140.6,46.9c0-.24-.73-.35-.78-.59s.37-.58.32-.81.25-.57.19-.81-1.09-.23-1.15-.46.49-.63.42-.87-.33-.41-.4-.65-.54-.34-.61-.57.24-.59.16-.82-.09-.48-.17-.71-.4-.37-.49-.6.64-.79.55-1-.57-.3-.67-.53-.55-.28-.65-.5,0-.54-.13-.76-.56-.25-.68-.46.33-.74.21-1,0-.61-.09-.82-.5-.27-.63-.46-.62-.15-.76-.33-.58-.14-.73-.32.37-.95.21-1.12-.58-.12-.75-.28-.42-.24-.6-.4-.57,0-.76-.16-.39-.23-.58-.35.09-1.09-.12-1.2-.63.15-.85.05-.58.19-.8.11-.24-.81-.47-.87-.64.64-.87.59-.41-.27-.65-.3-.46.29-.7.28-.44-.38-.68-.37-.48-.2-.72-.17-.51-.13-.74-.08-.56-.19-.79-.12-.25.81-.47.89-.3.44-.52.54-.81-.58-1-.47-.47.18-.68.31-.22.55-.42.68-.53.1-.71.25.05.82-.13,1-.62,0-.79.21-.44.25-.6.43-.32.38-.47.56.06.65-.08.85-.31.36-.44.56-.32.36-.44.57-.14.46-.25.68-.14.45-.24.67-.53.29-.62.52.27.61.19.83-.75.25-.83.48-.44.39-.5.62.55.65.49.88.33.55.28.79-.67.35-.71.59-.43.42-.47.65-.14.48-.17.72-.09.48-.11.72.41.53.39.77.41.5.39.74-.66.45-.67.69-.38.48-.38.72.13.49.13.73.23.49.24.73-.37.49-.36.73.89.45.9.69-.55.51-.54.75,0,.5,0,.74.09.48.11.72.64.42.66.66-.13.5-.1.74-.39.53-.36.77.63.4.66.63,0,.5,0,.73.39.43.42.66-.37.55-.33.78.52.4.56.63-.48.57-.44.8-.19.52-.15.76.18.45.22.69,1,.32,1,.56-.73.61-.69.85.79.34.84.58-.66.61-.61.84.69.36.73.6,0,.49,0,.72-.06.5,0,.74-.37.57-.32.8-.06.51,0,.74.41.41.47.64.73.32.78.56-.17.53-.12.77.55.35.61.59-.19.54-.13.77.38.39.45.62-.1.53,0,.76,0,.5.05.73.14.46.22.69.31.4.39.63.35.38.43.6.22.43.31.65-.57.74-.48,1-.11.57,0,.8,1.14,0,1.24.24-.42.72-.32.94.82.14.93.35.22.41.33.63-.06.57.06.78,0,.56.1.77.14.49.26.69.7.13.83.33.4.3.53.5-.12.68,0,.87.57.17.71.36.53.17.68.36-.13.74,0,.92.4.28.57.45,0,.7.16.87.47.22.65.38.46.21.64.37.2.54.39.68.87-.38,1.07-.24.35.32.55.45,0,.91.21,1,.42.29.63.4.62-.14.84,0,.29.55.51.65.49.11.71.2.62-.28.84-.2.41.32.64.39.52-.1.75-.05.5-.11.74-.06.44.17.68.2.46.12.69.14.46.3.7.31.49,0,.73,0,.47-.16.7-.18.57.64.81.61.38-.69.62-.74.54.17.77.11.46-.17.69-.25.59.14.81,0,.43-.28.65-.39.26-.56.47-.68.23-.53.43-.66.4-.23.59-.38.42-.22.6-.38.31-.34.49-.51.14-.5.3-.68.54-.14.7-.32.29-.37.44-.56.58-.17.71-.38a3.7,3.7,0,0,0,.26-.7,4,4,0,0,0,.28-.69c.06-.24-.32-.51-.31-.75a3.88,3.88,0,0,0,.06-.67c0-.24-.24-.39-.31-.61s.44-.72.33-.93a4.46,4.46,0,0,0-.4-.66c-.15-.19-.17-.6-.34-.76s-.61-.13-.81-.27a5.79,5.79,0,0,0-.74-.23c-.22-.09-.62.54-.85.5s-.36-.6-.6-.59-.65-.51-.88-.43,0,1.06-.24,1.2-1-.5-1.21-.32-.16.58-.31.79-.29.37-.43.56.06.69-.1.86a5,5,0,0,1-.57.48c-.19.16-.3.46-.49.59a5,5,0,0,1-.66.4c-.22.11-.44.38-.67.45s-.61-.35-.84-.32a5,5,0,0,1-.73.16c-.24,0-.45-.33-.69-.37s-.58.36-.82.29-.5-.14-.72-.23-.6,0-.82-.08-.24-.59-.45-.72-.46-.21-.66-.36-.48-.19-.67-.35-.5-.2-.68-.37.23-.94.06-1.12-.54-.15-.71-.33-.61-.11-.77-.29.1-.72,0-.91.09-.66-.06-.86-.58-.17-.71-.37-.69-.13-.82-.33-.37-.36-.49-.57.52-.85.41-1.06-.26-.4-.36-.61-.41-.34-.5-.56-.44-.32-.53-.54.4-.65.32-.87-1.13-.09-1.21-.31,0-.49-.09-.72-.11-.46-.18-.69.63-.68.57-.9-1.1-.17-1.16-.39.64-.67.57-.9-.88-.25-.94-.47.59-.64.54-.87-.86-.27-.91-.5.17-.52.12-.75.67-.63.61-.86-1-.26-1-.49,0-.47-.1-.7.17-.51.12-.74.2-.52.16-.75-.21-.44-.25-.67.34-.55.29-.77-1.21-.25-1.26-.49.32-.55.28-.79.38-.56.33-.8-.07-.47-.12-.71-.48-.4-.53-.64.21-.52.17-.76-.09-.47-.12-.71-.82-.36-.86-.6.86-.62.83-.86-.74-.38-.77-.62-.29-.45-.31-.69.92-.59.89-.83-.81-.41-.83-.65.49-.52.47-.76-.6-.45-.61-.69.79-.51.79-.75-1.09-.46-1.09-.7,1-.48,1-.72-.42-.49-.41-.73-.43-.51-.42-.75.55-.44.57-.7-.54-.55-.51-.8.43-.44.47-.68,0-.5.07-.74-.13-.54-.08-.78,1-.25,1.06-.49.14-.44.22-.67-.31-.63-.22-.86-.13-.62,0-.84.68-.18.81-.39a6.22,6.22,0,0,1,.43-.58c.16-.19.4-.25.58-.41s.43-.14.64-.27,0-1.08.17-1.16.68.85.88.84.21-.13.41,0,.88-.46,1.06-.28-.28.82-.12,1,.08.47.22.67.7.08.83.28.7.16.82.37.32.4.42.62-.2.64-.1.86-.35.66-.26.88.74.22.83.45.44.36.52.58.06.5.14.73,0,.51,0,.74l.21.68c.07.23.1.47.16.69s.3.42.36.64.24.43.3.66c.3,1.15-.72-.3-.55.54.05.25.35.44.43.66s.56.22.68.42-.12.66,0,.84.66-.07.85.07,0,.84.25,1a6.29,6.29,0,0,0,.71.3,6.77,6.77,0,0,0,.74.2c.25,0,.5-.71.74-.72s.38-.19.61-.24.46.13.68,0,.6.15.8,0a2.72,2.72,0,0,0,.47-.54c.16-.18.84-.1.94-.32s-.84-.8-.79-1,.31-.35.3-.61.28-.46.23-.71S140.6,46.9,140.6,46.9Z" style="fill:#1c1b1f"/><path d="M123,53.55c0-.23.1-.49.06-.72s-.43-.4-.47-.63-.11-.44-.15-.67.11-.5.06-.73.66-.62.61-.85,0-.48-.1-.71-.54-.35-.61-.58-.24-.42-.31-.64.3-.59.23-.81-.48-.34-.55-.56,0-.5-.1-.72-.89-.15-1-.37.81-.85.72-1.06-.69-.22-.79-.43-.19-.43-.3-.64.07-.57,0-.77-.35-.35-.46-.56.11-.63,0-.83-.47-.27-.6-.46-.79,0-.93-.21-.24-.41-.4-.59,0-.61-.22-.78-.5-.17-.68-.32-.35-.34-.54-.48-.44-.19-.64-.33-.07-.82-.28-.94-.5-.13-.72-.24a6.88,6.88,0,0,0-.66-.35c-.22-.1-.52,0-.74-.13s-.57.21-.8.15-.45-.21-.68-.25-.48,0-.72-.05-.49.41-.72.4-.49-.7-.72-.68-.41.64-.65.68-.58-.55-.82-.5-.48.14-.7.22-.18.84-.4.93-.57-.14-.78,0a5.7,5.7,0,0,0-.55.45c-.19.13-.52.08-.7.23s-.27.4-.45.57-.7,0-.86.18.36.91.21,1.11-.44.23-.58.43-.81.06-.93.26.5.85.39,1.06-1.21-.1-1.32.12.56.81.46,1-.38.35-.47.57-.72.24-.81.47.28.61.21.84-.37.4-.44.63-.38.4-.44.64.59.64.54.87.14.51.1.74,0,.48,0,.71-.34.43-.37.67-.1.46-.13.7,0,.48,0,.72.08.47.07.72-.24.46-.24.7.33.48.33.72-.08.47-.08.71-.35.49-.33.73,0,.49,0,.73-.14.49-.11.73,0,.49,0,.73-.14.5-.11.74.54.42.58.65-.24.53-.2.76.34.44.38.67.58.39.62.63-.59.59-.54.83-.15.52-.11.76.58.37.63.61,0,.48.09.72.45.39.51.62.23.44.28.67-.27.55-.22.78-.3.55-.25.78.26.43.31.66-.07.5,0,.73.19.44.24.67.59.34.65.57-.5.61-.44.84.43.38.49.61-.21.54-.15.77.22.43.28.66.32.41.38.64.11.46.17.69.61.33.67.56.07.47.14.7-.66.68-.59.9.15.46.21.69,1,.2,1,.42-.43.64-.36.86-.27.59-.19.82,1.15.11,1.23.33-.59.71-.5.93.41.36.5.58.29.4.38.62-.37.66-.28.88.59.27.68.49.67.22.77.43,0,.54,0,.76-.49.76-.39,1,.42.34.53.55.93,0,1,.25-.64.89-.52,1.1.79.09.91.3-.27.72-.14.92.25.42.38.62l.39.6c.14.2.31.38.46.57s.9-.09,1.05.1,0,.6.15.78.5.2.65.38.4.27.57.44,0,.72.12.88.78-.14,1,0,.32.33.51.48.35.3.54.44.26.45.46.59.58,0,.78.07.19.61.4.73.14.77.35.88.75-.46,1-.36.17.86.4.94.69-.48.91-.41.26.83.49.9.69-.77.92-.72.36.62.6.66.46.24.7.27.47.25.71.27.52-.85.76-.84.47.42.71.41.46-.21.7-.23.48,0,.72,0,.48,0,.71-.08.45-.16.68-.23.65.41.87.33.32-.55.54-.65.54,0,.75-.1.56,0,.77-.15.32-.44.52-.58-.11-1,.08-1.11.62,0,.8-.12.07-.61.24-.78.44-.2.6-.38.43-.23.58-.42.2-.43.35-.62.6-.15.73-.36.51-.31.61-.53-.48-.67-.43-.9.93-.37.94-.61-.76-.46-.8-.7a3.67,3.67,0,0,0-.13-.66,3.63,3.63,0,0,0-.21-.66,3.72,3.72,0,0,0-.45-.53c-.14-.19-.15-.48-.32-.64s-.56,0-.76-.13a3,3,0,0,0-.54-.36,2.35,2.35,0,0,0-.61-.18,1.94,1.94,0,0,0-.63-.07c-.23,0-.66-.85-.9-.77s-.28.67-.49.81a3.33,3.33,0,0,0-.64.39c-.15.17-.6.19-.74.4s.55,1,.4,1.19-1-.23-1.19-.06-.34.3-.51.46a4.62,4.62,0,0,1-.56.38c-.2.15-.22.48-.43.59s-.51-.1-.73,0-.33.52-.56.55a4.1,4.1,0,0,1-.7,0,4.32,4.32,0,0,1-.68-.19c-.23,0-.62.49-.85.42s-.43-.31-.66-.41a6.61,6.61,0,0,1-.7-.26c-.2-.12-.18-.62-.39-.76s-.55,0-.74-.2-.48-.2-.66-.36,0-.68-.2-.85-.84.14-1,0,.26-.87.1-1.06-.53-.18-.68-.37-.62-.14-.77-.34-.2-.46-.33-.66.2-.72.07-.92-.2-.43-.32-.63-.44-.31-.55-.52.12-.6,0-.81-.28-.4-.38-.62-.26-.41-.36-.63-.85-.16-1-.39-.25-.43-.34-.65-.13-.49-.22-.71,0-.53-.1-.75-.43-.38-.51-.61.22-.59.14-.83.37-.63.29-.87-1.11-.15-1.19-.38.73-.74.66-1-.81-.27-.88-.51.12-.54.06-.78-.28-.43-.34-.67-.49-.38-.55-.62.23-.56.17-.8.11-.53,0-.77.37-.58.31-.82-.5-.38-.55-.62-.25-.44-.31-.68.18-.54.12-.77.11-.53,0-.76-.45-.39-.5-.63.06-.51,0-.75-.8-.31-.86-.54.38-.59.33-.83.35-.57.29-.81-.51-.38-.56-.62-.37-.42-.41-.65.47-.59.43-.83-.86-.34-.9-.57,0-.51,0-.75-.19-.47-.22-.71.72-.58.69-.82-.49-.43-.52-.67.32-.51.3-.75-1-.4-1-.7.13-.47.14-.74.48-.45.49-.71.54-.43.56-.68-.3-.51-.28-.76.46-.42.49-.66-.53-.56-.49-.81-.17-.52-.13-.76.79-.34.84-.58-.58-.64-.52-.87.74-.3.81-.53-.38-.65-.3-.87.31-.43.41-.64-.1-.72,0-.9.74-.1.92-.24.4-.61.64-.64.57.23.83.33.2.54.42.71.9-.28,1.09-.08-.28.92-.13,1.12,1-.07,1.09.14-.29.78-.17,1,.81.15.92.37-.17.64-.07.87.16.48.24.71.57.34.65.57-.57.71-.5.95.78.3.84.54-.67.68-.62.92.82.34.87.57.24.48.29.72-.19.55-.16.79-.61.6-.58.83,1,.3,1,.52.33.29.44.5-.62,1-.46,1.2.91-.24,1.11-.1.21.52.42.63.56-.23.79-.16a3.53,3.53,0,0,0,.65,0c.25,0,.44.7.68.68s.35-.71.58-.77a3.1,3.1,0,0,0,.62-.13c.23-.1.65.24.85.1a3.11,3.11,0,0,0,.55-.48c.16-.18.07-.51.18-.72a2.54,2.54,0,0,0,.22-.64c.06-.22.64-.4.64-.65s-.58,0-.62-.27C122.88,53.88,123,53.55,123,53.55Z" style="fill:#1c1b1f"/></svg>