<svg id="레이어_1" data-name="레이어 1" xmlns="http://www.w3.org/2000/svg" viewBox="0 0 68 140"><polygon points="10.26 91.32 9.38 92.89 10.35 93.57 10.4 94.68 9.42 95.69 11.06 96.95 10.8 98.02 10.49 99.1 7 99.86 8.78 101.14 8.91 102.26 9.92 103.46 9.34 104.51 5.37 105.24 5.12 106.32 8.8 107.78 5.44 108.56 8.66 109.98 9.18 111.14 5.82 111.92 9.06 113.34 8.57 114.4 6.27 115.28 8.1 116.57 6.48 117.52 8.91 118.86 4.79 119.57 4.6 120.66 5.74 121.88 7.9 123.19 6.4 124.16 5.63 125.19 3.68 126.11 6.05 127.45 3.64 128.33 5.89 129.66 2.84 130.47 6.18 131.9 7.59 133.15 3.8 133.9 5.67 134.39 5.98 136.74 7.1 136.18 8.21 134.39 9.32 135.84 10.44 135.51 11.55 135.08 12.67 135.94 13.79 134.17 14.9 134.04 16.01 137.09 17.12 135.95 18.23 135.27 19.35 136.1 20.46 134.31 21.58 136.54 22.69 136.98 23.8 134.53 24.91 135.92 26.02 135.59 27.14 134.09 28.25 135.25 29.36 135.74 30.48 133.84 31.59 133.93 32.71 137.11 33.82 137.01 34.94 136.46 36.05 135.83 37.17 133.75 38.28 135.7 39.4 137.33 40.52 136.85 41.63 134.63 42.75 134.06 43.86 132.96 44.98 132.92 46.1 133.94 47.22 136.54 48.33 134.03 49.45 137.03 50.56 136.58 51.68 133.76 52.8 135.19 53.91 132.76 55.03 134.16 56.15 133.2 57.27 132.92 58.39 137.35 59.51 135.26 60.63 135.76 61.75 136.88 62.88 134.94 62.23 133.47 65.99 133.83 66.28 132.71 64.11 131.82 65.81 130.55 63.15 129.7 61.71 128.74 63.85 127.43 64.19 126.3 64.64 125.16 61.52 124.36 62.41 123.17 61.52 122.15 62.31 120.97 61.77 119.92 61.75 118.82 63.95 117.5 61.35 116.65 63.12 115.38 62.23 114.36 62.4 113.24 61.29 112.24 60.79 111.19 63.27 109.85 61.09 108.96 62.3 107.74 61.1 106.75 60.73 105.68 62.62 104.39 61.59 103.38 59.77 102.45 60.21 101.31 60.07 100.21 58.25 99.27 61.52 98.07 63.63 97.85 59.3 96.8 62.66 95.22 61.97 94.19 58.36 93.54 60.93 92.07 58.42 91.28 61.73 89.71 59.23 88.92 62.24 87.39 60.17 86.54 59.48 85.5 58.25 84.54 61.7 82.95 57.55 82.38 57.47 81.27 59.42 79.88 56.46 79.14 59.74 77.58 57.47 76.75 55.66 75.86 57.51 74.48 57.21 73.4 55.68 72.47 56.63 71.21 55.24 70.26 58.1 68.74 58.85 67.61 55.81 66.75 56.31 65.61 56.38 64.49 54.83 63.44 59.33 62.22 57.63 61.17 57.18 60.08 58.73 59 59.38 57.93 58.44 56.83 58.1 55.73 58.22 54.64 56.4 53.42 57.97 52.43 56.48 51.2 55.04 49.94 56.93 49.01 57.66 47.99 55.52 46.58 59.68 46.05 59.52 44.9 55.78 43.3 59.54 42.65 60.99 41.67 58.32 40.3 59.04 39.25 56.7 38.01 60.16 37.06 61.34 35.95 59.3 34.8 60.47 33.66 59.36 32.57 56.29 31.68 59.33 30.32 60.36 29.05 58.24 28.21 57.45 27.25 60.01 25.54 55.27 25.6 55.2 24.56 55.59 23.35 54.66 22.6 55.16 21.25 56.21 19.51 54.94 18.94 55.79 17.07 53.03 17.6 53.96 15.35 51.04 16.84 50.24 16.66 49.8 16.01 49.19 14.79 48.51 16.55 47.3 13.39 47.8 12.21 47.37 10.86 46.22 10.07 43.01 11.84 42.64 10.68 40.98 11.79 40.49 10.89 39.7 10.71 38.89 9.93 38.21 11.58 36.67 8.96 34.98 7.69 35.74 12.06 35.06 12.72 32.7 12.04 30.46 11.93 32.27 8.08 29.45 10.49 29.03 8.79 27.9 9.25 26.96 9.87 25.41 6.2 25.49 10.74 23.86 9.33 23.76 10.81 22.03 10.23 20.55 10.32 21.74 12.46 21.34 13.14 20.71 15.28 19.13 12.78 17.84 11.46 16.44 11.87 16.32 15.26 15.96 16.3 13.14 14.27 13.54 16.28 13.71 17.68 10.04 16.72 13.43 19.71 11.29 19.91 10.22 20.69 9.74 21.73 8.23 22.46 11.44 24.51 9.22 25.09 9.63 26.32 9.13 27.35 7.6 28.24 10.39 29.78 10 30.82 9.87 31.91 9.24 32.95 6.79 33.89 6.18 35.01 10.23 36.29 5.8 37.3 7.32 38.45 8.77 39.56 6.25 40.74 5.64 41.91 7.89 42.94 8.67 44.02 6.6 45.3 8.95 46.23 6.88 47.57 9.48 48.41 9.97 49.47 7.33 50.97 10.45 51.64 8.66 53.06 7.2 54.44 9.43 55.2 11.64 56.03 9.33 57.42 7.49 58.73 8.88 59.68 10.19 60.65 10.9 61.69 12.42 62.67 11.04 63.9 12.07 64.94 9.15 66.23 11.01 67.22 12.71 68.26 8.6 69.52 8.66 70.6 10.54 71.66 11.7 72.76 11.31 73.88 8.84 74.92 11.82 76.13 12.39 77.24 11.86 78.26 12 79.34 12.62 80.42 12.04 81.5 13.01 82.58 8.57 83.66 8.25 84.74 8.72 85.82 9.37 86.91 8.37 87.99 8.28 89.08 12.94 90.17 10.15 91.25 10.26 91.32" style="fill:#b79770"/><path d="M62.62,96.59a1.12,1.12,0,0,0,.09-1.23,1.6,1.6,0,0,0-.28-.35.61.61,0,0,0,0-.12,1.06,1.06,0,0,0-.32-1.34,1,1,0,0,0,0-1,1,1,0,0,0-.12-.69,1.08,1.08,0,0,0-.37-1.59,1.3,1.3,0,0,0,.26-.53,1.08,1.08,0,0,0-.51-1.2h0a1.06,1.06,0,0,0,.29-.72,1,1,0,0,0,0-.7,1.18,1.18,0,0,0-.28-.61h0a1,1,0,0,0-.15-1.16,6.42,6.42,0,0,0-.22-1.78,1,1,0,0,0,0-1,1,1,0,0,0,0-.65l-.06-.12a1.08,1.08,0,0,0-.14-.8,1,1,0,0,0-.27-.9.84.84,0,0,0-.15-.58,1.44,1.44,0,0,0-.72-.61h0l-.06-.14a2.19,2.19,0,0,0,.37-.25,1.09,1.09,0,0,0-.13-1.64,1.21,1.21,0,0,0-.16-.16,1.27,1.27,0,0,0-.26-.39h0a1.1,1.1,0,0,0-.08-.4.86.86,0,0,0,.11-.33.37.37,0,0,0,0-.11,1.88,1.88,0,0,0,.24-.18,1.09,1.09,0,0,0,.17-1.3,1.17,1.17,0,0,0-.24-.33,1,1,0,0,0,0-1.08,1,1,0,0,0-.07-.85.83.83,0,0,0,0-.15v-.15a1,1,0,0,0-.18-.83,1,1,0,0,0-.17-.79,1,1,0,0,0-.22-1.14,1.3,1.3,0,0,0-.08-.17,1.05,1.05,0,0,0,.1-1.25,1.06,1.06,0,0,0,0-.8,1,1,0,0,0-.09-.47,1.27,1.27,0,0,0-.16-.51,1.09,1.09,0,0,0,.06-1.09,1.86,1.86,0,0,0-.1-.25,1.2,1.2,0,0,0,.12-.55,1.48,1.48,0,0,0,0-.21,1,1,0,0,0-.15-.75,1.17,1.17,0,0,0-.15-.89,1,1,0,0,0,0-.17,1.05,1.05,0,0,0,.21-.93.66.66,0,0,0,0-.14,1.13,1.13,0,0,0-.36-1.21,1.48,1.48,0,0,0,0-.21,1,1,0,0,0,.28-1.29,1.09,1.09,0,0,0,0-.18,1,1,0,0,0-.2-.95v-.1a1.18,1.18,0,0,0,.28-.5,1,1,0,0,0-.13-1.5l0-.16a1.23,1.23,0,0,0,.13-.84,1.1,1.1,0,0,0,.1-1.38,1.17,1.17,0,0,0,.29-1.08,1.07,1.07,0,0,0-.18-1.15.39.39,0,0,0-.06-.15,1,1,0,0,0,0-.34,1,1,0,0,0,.38-.89,1.16,1.16,0,0,0,.39-1.09,1.06,1.06,0,0,0-.12-1,1.09,1.09,0,0,0,.08-.15,1.11,1.11,0,0,0-.18-1.65,1.23,1.23,0,0,0,.21-.39A1,1,0,0,0,60,43.13a1.43,1.43,0,0,0,.09-.27,1,1,0,0,0,.11-.83.5.5,0,0,0-.05-.13,1.1,1.1,0,0,0,0-1.07,1.22,1.22,0,0,0,.41-.92,1.12,1.12,0,0,0-.12-1.06.87.87,0,0,0-.07-.17,1.25,1.25,0,0,0,.09-.37,1.06,1.06,0,0,0,0-.82,1.27,1.27,0,0,0,0-.34,1.12,1.12,0,0,0,.26-1.39,1.16,1.16,0,0,0-.14-.47,1.06,1.06,0,0,0,0-.19.92.92,0,0,0,.16-.93,1.29,1.29,0,0,0,0-.48,1.13,1.13,0,0,0-.12-.62,1.1,1.1,0,0,0,0-.4,1.1,1.1,0,0,0-.17-1.41.78.78,0,0,0,0-.16,1.08,1.08,0,0,0-.08-.91l-.05-.08a1.09,1.09,0,0,0,.15-1.2,1.17,1.17,0,0,0-.14-.63,1.13,1.13,0,0,0-.2-1A1,1,0,0,0,59.26,26a1.06,1.06,0,0,0-.2-.56,1,1,0,0,0,0-1.3.73.73,0,0,0,0-.36,1,1,0,0,0-.51-1.12l-.07,0a1.48,1.48,0,0,0-.12-.29,1.18,1.18,0,0,0,0-.94v-.1a1.08,1.08,0,0,0-.75-1,1,1,0,0,0-.21-.31A1.15,1.15,0,0,0,57,18.77a1.27,1.27,0,0,0-.3-.31,1,1,0,0,0-.39-.58.79.79,0,0,0-.73-.42v-.13A1,1,0,0,0,55.28,16a1.08,1.08,0,0,0-.8-.85,1.28,1.28,0,0,0-.22-.17,1.33,1.33,0,0,0-.79-.83l-.1,0a1.35,1.35,0,0,0-.53-.31,1.09,1.09,0,0,0-.78-.91,1.09,1.09,0,0,0-.57-.3,1.39,1.39,0,0,0-.5-.15,1,1,0,0,0-.34,0,.88.88,0,0,0-.28,0,1.66,1.66,0,0,0-.44-.23,1.08,1.08,0,0,0-1.13.36,1.13,1.13,0,0,0-1.13-.33.93.93,0,0,0-.61-.25.86.86,0,0,0-.13-.23,1.36,1.36,0,0,0-.21-.54,1.23,1.23,0,0,0-.76-.88,1.11,1.11,0,0,0-.67-.46,1.1,1.1,0,0,0-.76-.42A1.1,1.1,0,0,0,44,9a1,1,0,0,0-.54-.48,1,1,0,0,0-.52-.33,1.31,1.31,0,0,0-.8-.29A1,1,0,0,0,41,7.76a1.21,1.21,0,0,0-.82,0L40,7.52a1.07,1.07,0,0,0-.83-.3,1.08,1.08,0,0,0-1,.37,1.08,1.08,0,0,0-.88.19,1,1,0,0,0-1.21-.12,1.78,1.78,0,0,0-.42.38,1.08,1.08,0,0,0-1.2.39l-.07,0a1.26,1.26,0,0,0-.85.16.77.77,0,0,0-.28.12.91.91,0,0,0-1-.39l-.19,0a.92.92,0,0,0-.83-.81,1.14,1.14,0,0,0-1-.57,1.06,1.06,0,0,0-1.4-.11,1.21,1.21,0,0,0-.82,0,1,1,0,0,0-1.13-.39h0a1.14,1.14,0,0,0-1.57.52l-.22-.08A1,1,0,0,0,24,7.26a1,1,0,0,0-.67.49l-.06,0-.07,0a.88.88,0,0,0-.85.12.86.86,0,0,0-.72.32,1,1,0,0,0-.59.73.77.77,0,0,0-.07.16.59.59,0,0,0-.13.18,1.12,1.12,0,0,0-.33.2,1.23,1.23,0,0,0-.48.89,1.11,1.11,0,0,0-.57.62,1,1,0,0,0-.57.9l-.16,0a1,1,0,0,0-.65-.22,1,1,0,0,0-.7-.05,1.62,1.62,0,0,0-.51.25,1.24,1.24,0,0,0-.94.14,1.17,1.17,0,0,0-.74.61,1.26,1.26,0,0,0-.81.13,1.14,1.14,0,0,0-1,.52,1.07,1.07,0,0,0-.82.61,1,1,0,0,0-.58.87l-.22.12a1.1,1.1,0,0,0-.41,1.42,1.18,1.18,0,0,0-.68.74,1.18,1.18,0,0,0-.22.17,1.12,1.12,0,0,0-.52.42,1.12,1.12,0,0,0-.49,1,1,1,0,0,0-.09,1.31h0a1.09,1.09,0,0,0-.65,1.75.78.78,0,0,0,.05.14,1,1,0,0,0,0,.42.92.92,0,0,0-.1.56,1.12,1.12,0,0,0-.21.29.93.93,0,0,0-.58.65,1,1,0,0,0-.34,1.37l0,.1a1.06,1.06,0,0,0-.29.86A1.07,1.07,0,0,0,7,26.7a1.19,1.19,0,0,0,0,.7,1.14,1.14,0,0,0-.14,1.19,1.1,1.1,0,0,0-.15,1.48,1.1,1.1,0,0,0-.42,1.09,1.06,1.06,0,0,0,0,.56.76.76,0,0,0,0,.3,1,1,0,0,0,.21,1.15v.06a1.1,1.1,0,0,0-.07.92,1.07,1.07,0,0,0,0,1.32.65.65,0,0,0,0,.2,1.16,1.16,0,0,0-.21,1.08.86.86,0,0,0,0,.16,1,1,0,0,0,0,1,.89.89,0,0,0,0,.32,1.19,1.19,0,0,0-.19.63,1.18,1.18,0,0,0-.12.75A.86.86,0,0,0,6,40a1,1,0,0,0,.15.59l.1.14a1,1,0,0,0,.08.29,1.14,1.14,0,0,0-.16.48A1.11,1.11,0,0,0,6,42a1.18,1.18,0,0,0,.3,1.26,1,1,0,0,0,0,.25,1.12,1.12,0,0,0,.2,1.08,1,1,0,0,0-.2,1.07,1.14,1.14,0,0,0,.18.78,1.22,1.22,0,0,0,.22.82,1.45,1.45,0,0,0,0,.36,1.11,1.11,0,0,0,0,1.4,1.14,1.14,0,0,0,.2.72,1,1,0,0,0,.11.42,1.1,1.1,0,0,0-.07.44,1.16,1.16,0,0,0,0,1,1.06,1.06,0,0,0,.18.37,1.12,1.12,0,0,0,.18,1,.86.86,0,0,0,.12.3,1,1,0,0,0,.49.72,1,1,0,0,0,.07.57A1.07,1.07,0,0,0,7.78,56a1,1,0,0,0,0,.46,1.2,1.2,0,0,0,.1.67A1.16,1.16,0,0,0,8.2,58a1.1,1.1,0,0,0,0,1.11,1.11,1.11,0,0,0,.07,1.39,1.11,1.11,0,0,0,.09.31,1,1,0,0,0-.07,1,1.13,1.13,0,0,0,.4,1.19.92.92,0,0,0,0,.28.85.85,0,0,0,0,.68v0a1.06,1.06,0,0,0-.16,1.23,1.1,1.1,0,0,0,.16.53,1.21,1.21,0,0,0,.45,1.25,1.09,1.09,0,0,0,.3,1,1.15,1.15,0,0,0-.33,1,.73.73,0,0,0-.05.2,1.17,1.17,0,0,0-.25,1.3,1.3,1.3,0,0,0,0,.52,1,1,0,0,0,0,.88,1,1,0,0,0,.12.4,1,1,0,0,0,0,.39.63.63,0,0,0-.08.23,1,1,0,0,0-.07.74,1,1,0,0,0,.1,1,1,1,0,0,0,.06.66,3.61,3.61,0,0,0-.27,1.76,1.34,1.34,0,0,0,0,.2,1,1,0,0,0,.05.89,1,1,0,0,0,.33,1.23,1.26,1.26,0,0,0,.19.28,1.29,1.29,0,0,0,0,.19,1.15,1.15,0,0,0-.1.73,1.1,1.1,0,0,0-.08.48.06.06,0,0,0,0,0,1.34,1.34,0,0,0-.39.91,1.06,1.06,0,0,0-.15.75,1,1,0,0,0,.11.77.93.93,0,0,0,.2,1.21,1.12,1.12,0,0,0-.1.69,1.21,1.21,0,0,0-.18,1,1,1,0,0,0-.11.47,1.22,1.22,0,0,0,.2.72A1.06,1.06,0,0,0,8.82,89a1.09,1.09,0,0,0-.08.15,1.08,1.08,0,0,0-.13,1.49.75.75,0,0,0,.05.26l0,.05a1.06,1.06,0,0,0,.08,1.49,1.23,1.23,0,0,0-.31.61,1.13,1.13,0,0,0-.1.93,1.07,1.07,0,0,0,0,1.25,1.25,1.25,0,0,0,.16.57,1,1,0,0,0-.35.86A1.08,1.08,0,0,0,8,97.75a.87.87,0,0,0,.22,1.14,2.91,2.91,0,0,0,.8.42l.17.07a1.09,1.09,0,0,0,1.71,0,2.7,2.7,0,0,0,.57-2.08,1.49,1.49,0,0,0,.45-1,.79.79,0,0,0-.07-.4,1,1,0,0,0-.2-.82,1.1,1.1,0,0,0,.14-1.45.68.68,0,0,0,.12-.26,1.17,1.17,0,0,0,.25-1.09,1.22,1.22,0,0,0-.2-.67,1,1,0,0,0,0-.38,1,1,0,0,0,0-.55,1.27,1.27,0,0,0,0-.28,1.25,1.25,0,0,0,.17-.49,1,1,0,0,0,.13-.34,1.13,1.13,0,0,0,0-1.06A1.11,1.11,0,0,0,12,87.22a1,1,0,0,0,.11-.37,5.46,5.46,0,0,0,.22-1.75.94.94,0,0,0,0-.6.92.92,0,0,0-.1-.69,1.29,1.29,0,0,0,0-.28,1,1,0,0,0-.12-1.25,1.3,1.3,0,0,0,.13-.3,1,1,0,0,0,0-.77,12.28,12.28,0,0,0,.15-1.07A1.18,1.18,0,0,0,12.18,79a.65.65,0,0,0,0-.24,1,1,0,0,0,.1-1,1.1,1.1,0,0,0-.11-1.2,1,1,0,0,0,0-.77,1.08,1.08,0,0,0,.09-.58,1.18,1.18,0,0,0,.27-.49,1.17,1.17,0,0,0-.2-1.07,1.46,1.46,0,0,0-.07-.19.72.72,0,0,0-.07-.25,1.14,1.14,0,0,0,.26-1.44,1.37,1.37,0,0,0-.15-.38,1,1,0,0,0,0-.43,1,1,0,0,0,0-1.37.86.86,0,0,0,0-.17,1.07,1.07,0,0,0,0-1,1,1,0,0,0-.06-.46,1.06,1.06,0,0,0,0-1.18,1.12,1.12,0,0,0-.1-.39A1.08,1.08,0,0,0,12,65.14,1,1,0,0,0,12.13,64a1.13,1.13,0,0,0-.16-.54,1.13,1.13,0,0,0-.08-.48,1.16,1.16,0,0,0-.11-.48.27.27,0,0,0,0-.12,1.21,1.21,0,0,0,.27-.78.78.78,0,0,0,0-.34,1.06,1.06,0,0,0-.5-1.08,1.09,1.09,0,0,0,0-1.13.92.92,0,0,0-.11-.43,2.37,2.37,0,0,0-.27-1.55.66.66,0,0,0,0-.14,1.11,1.11,0,0,0-.27-1.68s0,0,0,0A1.06,1.06,0,0,0,11.09,54a1.08,1.08,0,0,0-.15-.7,1.1,1.1,0,0,0-.26-.88,1.57,1.57,0,0,0-.36-1.59,1.11,1.11,0,0,0-.12-1.42A1.12,1.12,0,0,0,9.66,48a1.65,1.65,0,0,0,0-.32s0-.1,0-.15a1.11,1.11,0,0,0,.28-.76,1.12,1.12,0,0,0,0-.88,1.2,1.2,0,0,0-.37-1.17.94.94,0,0,0,0-.16,1.15,1.15,0,0,0,.17-.68,1.11,1.11,0,0,0-.09-1.12,1.31,1.31,0,0,0-.44-.87.89.89,0,0,0,.34-1.07,1.06,1.06,0,0,0,0-1,.9.9,0,0,0-.18-.61,1.19,1.19,0,0,0-.06-.64,1.05,1.05,0,0,0,.06-.24,1.43,1.43,0,0,0,.27-1.1,1.26,1.26,0,0,0-.09-.67,1.19,1.19,0,0,0,.08-.74A1.07,1.07,0,0,0,9.75,35a1.48,1.48,0,0,0-.12-.41,1,1,0,0,0-.21-1,1.12,1.12,0,0,0,0-1.13,1.26,1.26,0,0,0,.16-.68,1.17,1.17,0,0,0,.27-.56,1.11,1.11,0,0,0,0-1.57,1.1,1.1,0,0,0,.41-1.25,1.06,1.06,0,0,0,.36-.95,1.12,1.12,0,0,0-.21-1s0-.06,0-.1a1.43,1.43,0,0,0,.35-.42l.15-.22A1,1,0,0,0,11,25a1,1,0,0,0,.3-.75.8.8,0,0,0,.2-.4,1.61,1.61,0,0,0,0-.69.67.67,0,0,0,.05-.19,1.11,1.11,0,0,0,.41-.83.36.36,0,0,0,0-.11,1.11,1.11,0,0,0,.2-1.08,1,1,0,0,0,.2-.61,1.13,1.13,0,0,0,.35-1.09,1.23,1.23,0,0,0,.48-.66l.15-.08a1.18,1.18,0,0,0,.27-.23,1.13,1.13,0,0,0,.42-.61,1.14,1.14,0,0,0,.42-.83,1.14,1.14,0,0,0,.8-1v-.07a1.21,1.21,0,0,0,1.08-.11,1.16,1.16,0,0,0,.67-.48,1,1,0,0,0,.83-.11,1.15,1.15,0,0,0,.63.07,1.06,1.06,0,0,0,.65.11,1,1,0,0,0,.11.24,3,3,0,0,0,.09.35.86.86,0,0,0,0,.28,1,1,0,0,0,.07.55,2.68,2.68,0,0,0,.07.27.86.86,0,0,0,0,.23,1.13,1.13,0,0,0,.11.6.65.65,0,0,0,.05.21,1.23,1.23,0,0,1,0,.2,1,1,0,0,0,.31.75,2,2,0,0,0,.07.23,1.06,1.06,0,0,0,.25,1,1.17,1.17,0,0,0,.19.51h0a1.06,1.06,0,0,0,.18.63,1.22,1.22,0,0,0,.31.43.81.81,0,0,0,.12.18,1.16,1.16,0,0,0,.41.47l.12.07c1,.59,1.89-.58,1.51-1.4a1.26,1.26,0,0,0-.13-.34,1.1,1.1,0,0,0-.38-.56L22.6,20a1.18,1.18,0,0,0-.12-.36,1.12,1.12,0,0,0-.19-.63v0s-.06-.2-.1-.3a1,1,0,0,0-.13-.51.94.94,0,0,0-.13-.43,1.13,1.13,0,0,0-.06-.36v-.05a1.15,1.15,0,0,0-.21-.88v0a1,1,0,0,0-.07-.38l0-.15a1.08,1.08,0,0,0-.08-.53s0,0,0,0a1.15,1.15,0,0,0,0-.26,1,1,0,0,0-.07-.46A1.12,1.12,0,0,0,22,13.25a.05.05,0,0,1,0,0,.93.93,0,0,0,.5-1.34,1.16,1.16,0,0,0,.43-.33,1.14,1.14,0,0,0,1.16-.67,1.21,1.21,0,0,0,.8-.45A1.1,1.1,0,0,0,25.8,10a1.14,1.14,0,0,0,1-.13.86.86,0,0,0,.3-.12,1.08,1.08,0,0,0,1.05.29.29.29,0,0,0,.1,0,1,1,0,0,0,.89.17.84.84,0,0,0,.44.43,1,1,0,0,0,1,.46,1.17,1.17,0,0,0,.48.22,1.19,1.19,0,0,0,.13.25,1.33,1.33,0,0,0,.28.54l.08.09a.88.88,0,0,0,.44.27.44.44,0,0,0,0,.1,1,1,0,0,0-.1.87.33.33,0,0,0,0,.14h0a.88.88,0,0,0-.14.65s0,.08,0,.13a1,1,0,0,0-.05.6,1,1,0,0,0,0,.38,1.7,1.7,0,0,0,0,.22,1,1,0,0,0-.1,1.06v0a1.19,1.19,0,0,0,0,.77,1.14,1.14,0,0,0,0,.26,1.35,1.35,0,0,0,0,.35,1.4,1.4,0,0,0-.08.34.66.66,0,0,0,0,.2,1,1,0,0,0,0,.89,1,1,0,0,0,.1.73.75.75,0,0,0,.05.16v0a2,2,0,0,0,0,.47,1,1,0,0,0,.1.24,1.05,1.05,0,0,0,.06.24,2.56,2.56,0,0,0,.05.27l.08.25.1.26,0,0a1.12,1.12,0,0,0,.74.7l.2.05a1.09,1.09,0,0,0,1-1.85.17.17,0,0,0,0-.1h0a1,1,0,0,0-.21-1,1.23,1.23,0,0,0,0-.94,1,1,0,0,0-.08-.29s0-.08,0-.12a.49.49,0,0,0,0-.12,1.33,1.33,0,0,0,.07-.78A1.06,1.06,0,0,0,33.9,17a1.22,1.22,0,0,0,0-.37,1.05,1.05,0,0,0,.1-1,1.07,1.07,0,0,0,0-.47,1.2,1.2,0,0,0,0-.46,1,1,0,0,0,0-.24.82.82,0,0,0,0-.27v0a.81.81,0,0,0,.15-.57,1,1,0,0,0,0-.38,1.35,1.35,0,0,0,.09-.33,1.23,1.23,0,0,0,0-.27,1,1,0,0,0,.14-.29,1,1,0,0,0,.73-.34,1.08,1.08,0,0,0,.65-.27,1,1,0,0,0,.69-.72,1.33,1.33,0,0,0,.3-.23l.1,0h0l.1,0a1.23,1.23,0,0,0,.8.09,1.09,1.09,0,0,0,.62-.22,1.22,1.22,0,0,0,.84.21,1.14,1.14,0,0,0,1.12.11,1.34,1.34,0,0,0,.4.06,1.15,1.15,0,0,0,1.11.66,1.15,1.15,0,0,0,.4.42,1.1,1.1,0,0,0,.75.38,1.16,1.16,0,0,0,.24.2,1.17,1.17,0,0,0,.69.6.91.91,0,0,0,.44.49l.08,0h0a1.12,1.12,0,0,0,.77,1.25,1,1,0,0,0,.74.71,1.36,1.36,0,0,0,.06.29,1.48,1.48,0,0,1,0,.21h0a1.17,1.17,0,0,0-.13.45,1,1,0,0,0-.08.54v0a1,1,0,0,0-.1.37.92.92,0,0,0-.12.66l-.08.13a1,1,0,0,0-.09.86,1.55,1.55,0,0,0-.06.23,1,1,0,0,0-.27.81,1,1,0,0,0-.15.37.92.92,0,0,0-.24.43.81.81,0,0,0-.14.33,1.15,1.15,0,0,0,1.09,1.83l.19,0a.9.9,0,0,0,.63-.49,1,1,0,0,0,.29-.73l0-.09a1,1,0,0,0,.14-.33,1,1,0,0,0,.18-.38l.11-.15a1.71,1.71,0,0,0,.11-.71,1.33,1.33,0,0,0,.05-.19,1,1,0,0,0,.21-.59.88.88,0,0,0,.09-.56,1.53,1.53,0,0,0,.09-.4v0a1.07,1.07,0,0,0,.14-.94,1.05,1.05,0,0,0,.11-.43,1.77,1.77,0,0,0,0-.2,1,1,0,0,0,.08-.6,1,1,0,0,0,.05-.24,1.28,1.28,0,0,0,.06-.33l.06,0a1.25,1.25,0,0,0,.43,0,1,1,0,0,0,1.17-.14l.14,0a1.28,1.28,0,0,0,.64.9,1.19,1.19,0,0,0,.84.45,1.2,1.2,0,0,0,.45.32l0,.05a1.12,1.12,0,0,0,.89.87l.08,0a1.06,1.06,0,0,0,.19.33,1.19,1.19,0,0,0,.21.71,1.06,1.06,0,0,0,.09.35,1,1,0,0,0,.57.92,1.13,1.13,0,0,0,.39.83l0,.07A1.15,1.15,0,0,0,55,22.8a1.14,1.14,0,0,0,.11.72,1.28,1.28,0,0,0,.21.46,1.16,1.16,0,0,0,.35.65A1.08,1.08,0,0,0,56.19,26a1,1,0,0,0,.11.37,3.94,3.94,0,0,0-.08.42.83.83,0,0,0,.14.53l0,.12a1.16,1.16,0,0,0,.25.93.92.92,0,0,0,.11.33,1.15,1.15,0,0,0,.08.41,1.15,1.15,0,0,0,.17.59,1.08,1.08,0,0,0,0,1.66,1.22,1.22,0,0,0,0,.84,1.13,1.13,0,0,0,.16.26,1.16,1.16,0,0,0-.14,1.27s0,0,0,.08a1.13,1.13,0,0,0,0,.41,1,1,0,0,0-.08.68,1.08,1.08,0,0,0,0,.44,1.1,1.1,0,0,0,.23.66.89.89,0,0,0,0,.22,1,1,0,0,0-.13,1.44,1.25,1.25,0,0,0-.14.49,1.05,1.05,0,0,0,0,.78L57,39a1.42,1.42,0,0,0,0,.2,1,1,0,0,0-.29,1,1,1,0,0,0,0,.43,1.55,1.55,0,0,0,0,.21,1.14,1.14,0,0,0-.21,1,2.17,2.17,0,0,0,.07.24,1.15,1.15,0,0,0,.18.88.85.85,0,0,0-.11.35,1.1,1.1,0,0,0-.12,1.7,1.35,1.35,0,0,0,.09.33A1.13,1.13,0,0,0,56,46.77a1,1,0,0,0,.1.43,1.13,1.13,0,0,0-.35,1,1.14,1.14,0,0,0,0,.55,1,1,0,0,0,.1.51,1.16,1.16,0,0,0-.17.79,1,1,0,0,0-.13.55,1.08,1.08,0,0,0,0,.73.69.69,0,0,0,0,.32,1.55,1.55,0,0,0,0,.21.61.61,0,0,0-.11.28l0,.13a2.17,2.17,0,0,0,0,.51,1.07,1.07,0,0,0,0,1.13.75.75,0,0,0,.05.16,1.13,1.13,0,0,0-.19,1,1.17,1.17,0,0,0,0,1,1.16,1.16,0,0,0-.08.61,1,1,0,0,0,0,.92.89.89,0,0,0,.09.56s0,0,0,.07l-.06.21a1,1,0,0,0,0,1.12,1.05,1.05,0,0,0,0,.58,1,1,0,0,0,0,.92,1,1,0,0,0,.21.67,1,1,0,0,0-.17,1.33,1.11,1.11,0,0,0,0,.48,1.09,1.09,0,0,0-.11.86,1.17,1.17,0,0,0,.33.53,1,1,0,0,0,.18,1.35,1,1,0,0,0,.06,1.29h0a1,1,0,0,0,0,.66,1,1,0,0,0,.23,1.64h0a.92.92,0,0,0-.09.39,1,1,0,0,0,.07.9,1,1,0,0,0,.36,1.15,1.15,1.15,0,0,0-.15,1,1,1,0,0,0,.1.77.92.92,0,0,0,.16.53,2.21,2.21,0,0,0,.24,1.65,1,1,0,0,0,.2.44,1.13,1.13,0,0,0-.07,1.2v0a1.08,1.08,0,0,0-.08.19,1,1,0,0,0,.06.74,1.16,1.16,0,0,0,0,.52,1,1,0,0,0,0,.33c0,.09,0,.07,0,0a1.14,1.14,0,0,0,.58.88,1.21,1.21,0,0,0-.08.83.78.78,0,0,0,0,.22,1.12,1.12,0,0,0-.05.13,1.08,1.08,0,0,0,.08.76,1,1,0,0,0,.29,1.25h0a1,1,0,0,0,.26,1.25,1,1,0,0,0-.06,1.12,1.36,1.36,0,0,0-.09.51,1.1,1.1,0,0,0,.44.88,1.08,1.08,0,0,0-.1.89,1,1,0,0,0,.05.74.93.93,0,0,0,.1.59,1.17,1.17,0,0,0,.16.75,1.07,1.07,0,0,0,.29,1,1,1,0,0,0,.17,1.08s0,.06,0,.09a1.1,1.1,0,0,0,0,1.35l.06.18a1.09,1.09,0,0,0-.06.88,1.15,1.15,0,0,0,.36,1,1,1,0,0,0,.28,1,.91.91,0,0,0,.1.83,1,1,0,0,0,1,.75,1.88,1.88,0,0,0,1.15-.52,1,1,0,0,0,.33-.14A1.38,1.38,0,0,0,62.57,97,1,1,0,0,0,62.62,96.59Zm-41.13-80h0v0h0ZM8.94,99.2h0S8.84,99.16,8.94,99.2Zm.36.24,0,0S9.32,99.46,9.3,99.44Z" style="fill:#1c1b1f"/><path d="M32,21.61h0Z" style="fill:#1c1b1f"/><path d="M7.88,92.67c.66,1.76.43,6.33-.47,7.61a1.53,1.53,0,0,0,.24,1.82l1,1.2v-2.12l-1.1,1A1.51,1.51,0,0,0,7.33,104L8,105.17l.24-1.81-1.27,1a1.52,1.52,0,0,0-.23,1.82A15.09,15.09,0,0,0,8,108.49l.54-2c-2.58,1.76-2.76,4.75-1.39,7.5l.23-1.82a7,7,0,0,0-1.78,3.15c-.06.5.14,1,.11,1.51-.07,1.59.77-.15,0,1a1.46,1.46,0,0,0,0,1.52c1.2,1.67.18-.4.16.72,0,.39-.17.71-.15,1.15,0,.2.35,2.31.51,1.38s-.79.48-.89.73a7.42,7.42,0,0,0-.3,3.36c.46,1.62,1.49.42,0,1.57a1.53,1.53,0,0,0-.3,2.36l1.12,1.21.3-2.36-1.46,1a1.52,1.52,0,0,0-.31,2.36l1.49,1.26.3-2.36-1.35,1a1.52,1.52,0,0,0-.53,2l.86,1.2c1.11,1.56,3.71.06,2.59-1.51l-.86-1.2-.54,2.05,1.35-1a1.51,1.51,0,0,0,.3-2.35l-1.49-1.26L6.16,133l1.47-1a1.52,1.52,0,0,0,.3-2.35l-1.12-1.22-.31,2.36c1.41-1.05,2.44-1.83,2.23-3.77-.18-1.6-1.39-1.6,0-2.93a1.49,1.49,0,0,0,.38-1.46c-.36-1.16-.55-1.33,0-2.15a1.46,1.46,0,0,0,0-1.51c-.47-.66-.63-1.28-.5-.2,0,0,.5-1.32.54-1.48.36-1.59-1.08-1.26.35-3.09a1.58,1.58,0,0,0,.24-1.82c-.36-.73.09-1,0-1.87-.22-1.74-1.18-.5.33-1.53a1.52,1.52,0,0,0,.54-2,14.74,14.74,0,0,1-1.28-2.34l-.24,1.82,1.27-1a1.53,1.53,0,0,0,.24-1.82l-.7-1.17-.23,1.81,1.1-1a1.54,1.54,0,0,0,0-2.12l-1-1.21.23,1.82c1.57-2.23,1.74-7.34.78-9.92-.68-1.79-3.58-1-2.9.8Z" style="fill:#1c1b1f"/><path d="M65.35,134l.1-.11a1.52,1.52,0,0,0-.3-2.35,1.52,1.52,0,0,0-.38-2.15,3.07,3.07,0,0,0,.3-2.81c-.48-1.6-1.55-1.31-.38-2.89a1.46,1.46,0,0,0,0-1.51c-.43-.83-.77-1-.45-1.76a1.57,1.57,0,0,0-.24-1.82l-.48-.46c.16-1.55-.73-2.63.15-4.32a1.48,1.48,0,0,0,0-1.51c-.63-.84,0-1-.5-2-.79-1.66-1-.58.12-1.71a1.52,1.52,0,0,0,0-2.12c-.29-.3-.56-.61-.81-.92l.2-.22a1.55,1.55,0,0,0,0-2.12l0,0,.27-.36a1.5,1.5,0,0,0-.23-1.82l-.59-.47a14,14,0,0,0-1.37-9,1.5,1.5,0,0,0-2.59,1.52A8.47,8.47,0,0,1,59,97.37a20.71,20.71,0,0,1,.1,3,1.52,1.52,0,0,0,.23,1.81l.23.19-.14.18a1.5,1.5,0,0,0,.19,1.77l-.13.15a1.53,1.53,0,0,0-.24,1.82,16.32,16.32,0,0,0,1,1.37c-.9,1.51-.45,2.89-.13,4.81.28,1.63.36-.19.33,1,0,.48-.45,1-.5,1.5a7.49,7.49,0,0,0,.27,1.88c.22,1.52.88-.15.34,1a1.55,1.55,0,0,0,.23,1.82l.42.41a7.15,7.15,0,0,0,.16,2.17,2.12,2.12,0,0,0,.21.72,2.33,2.33,0,0,0-.56.92,9.5,9.5,0,0,0,.42,3.15c.42,1.82,1.69-.2.11,1.52a1.48,1.48,0,0,0,.09,2.17l0,0a1.52,1.52,0,0,0,.31,2.36l.07,0a1.5,1.5,0,0,0,.17,1.9l1.06,1c1.39,1.34,3.51-.78,2.12-2.12Z" style="fill:#1c1b1f"/></svg>