<svg id="레이어_1" data-name="레이어 1" xmlns="http://www.w3.org/2000/svg" viewBox="0 0 68 110"><path d="M32.5,14c-.13-.18-.63-.34-.78-.51a6.15,6.15,0,0,0-.37-.52c-.16-.16-.37-.18-.55-.33s.25-1.12.06-1.24-.76.39-1,.28-.44,0-.65-.13S29,11,28.77,10.9s-.37-.65-.6-.69-.52,0-.75,0-.5.77-.74.77-.39.46-.62.48-.64-1.15-.87-1.1-.62-.3-.85-.23-.5.24-.72.33-.19.78-.4.9-.09.66-.29.8-.93-.46-1.11-.31-.37.33-.53.49.76,1.38.61,1.54-.48.11-.62.29-.62.08-.74.27-.43.28-.52.48a3.81,3.81,0,0,0-.34.62,14.11,14.11,0,0,0,.46,1.53c-.32.16-.49-1.69-.92-1.77-.19,0-.6.9-.86.87s-.42.44-.67.45-.49-.84-.74-.8-.29.8-.52.86-.72-.78-.95-.7,0,1.19-.17,1.3-.36.15-.56.28-1-.65-1.21-.49.25,1,.08,1.15,0,.55-.18.73-1.5-.65-1.64-.45.4.87.27,1.07.16.62,0,.83-.93,0-1,.22.38.69.27.91-1.23,0-1.33.19.16.58.07.81.4.65.32.88-.67,0-.83.45c-.07.18.72.7.63,1s0,.44-.11.69-.69.27-.75.52-.32.39-.38.63.17.52.11.77-1.17.21-1.22.46.73.64.68.88-.45.39-.5.63.88.64.84.88-.76.35-.8.59.82.6.79.84-1.22.3-1.25.55.69.56.67.8-.82.38-.84.62.71.54.68.79.14.48.12.72.19.48.17.72-.88.41-.9.65-.76.43-.77.68-.06.48-.07.72.41.49.4.74.91.5.91.74.27.47.27.71-1,.47-1,.71,0,.48,0,.72,1,.46,1,.7-.41.48-.4.73-.77.49-.76.73.94.44,1,.68S7,45,7,45.19s1.05.42,1.06.66.27.46.29.7-1.53.58-1.51.83,1.19.38,1.21.62-1.19.59-1.17.83,1,.38,1,.62-.49.54-.47.77-.31.52-.28.76,1.24.34,1.27.58-1,.61-1,.85.82.37.86.61.53.41.57.64.37.43.4.67.06.47.1.71-1.12.68-1.08.92.87.35.91.59-1.2.43-1.13.89c0,.2,1.07.3,1.1.58s-.59.54-.56.8.86.36.89.61.5.42.53.67-.53.54-.5.79-.4.52-.38.76.27.45.3.69-.67.54-.64.79.63.42.65.66.54.43.56.67.19.47.21.71-.75.54-.73.79.43.44.45.69-.89.54-.87.78,1.63.37,1.65.61-1.15.55-1.14.79.21.47.23.71.82.44.84.68-.09.49-.08.73-.59.51-.58.75-.19.48-.18.73.36.47.37.71-.84.5-.84.74,1,.47,1,.71.77.49.77.73-.77.49-.77.73,0,.49,0,.73-.77.47-.77.71-.1.48-.11.72-.22.47-.23.71,0,.5,0,.73,1.57.29,1.57.74c0,.2-.05.44-.05.71s-.76.45-.76.71-.84.46-.84.71.68.46.68.71.83.46.83.71-.11.47-.11.71-.17.47-.17.71.29.47.29.71-1.47.47-1.47.71.65.47.65.71.51.47.51.71,0,.47,0,.71-1,.47-1,.71.61.48.61.72-.6.48-.6.72.07.47.07.71.6.48.6.72S10,93,10,93.21s1,.48,1,.71v.71c0,.25,0,.49,0,.72s-.84.48-.84.71.64.49.64.71.19.49.19.71-.21.5-.21.72-.1-.06-.1.13c.25.26-.32.52.13.63.2,0,.54-.39.81-.33s.51-.19.77-.14.43.17.68.22.33.69.58.74.36.61.6.66.39.47.63.52.63-.76.88-.71.33.77.57.82.7-1.16.94-1.11.47,0,.71.08.36.7.6.74.39.5.63.54.55-.37.79-.33.43.31.67.35.53-.33.77-.3l.71.13c.23,0,.48,0,.72.06s.45.17.69.21.43.39.67.42.56-.57.8-.54.41.52.65.55.46.17.7.2.48,0,.72,0,.56-.62.8-.59.36,1,.6,1.06.54-.52.78-.49.38.84.62.87.55-.58.79-.56.52-.46.76-.44.36,1.33.6,1.35.44.44.68.46.49,0,.73,0,.57-1,.81-1,.46.27.7.28.52-.55.76-.54.49-.13.73-.12.43.87.67.89.47.34.71.35.53-1.2.77-1.19.47.43.71.44.47.38.71.38.47.91.71.92.5-1.22.74-1.21l.73,0c.24,0,.47-.36.72-.37s.48.93.73.93.49.47.73.47.47-.83.71-.84.52,1,.76,1,.45-1.07.69-1.08.51.52.75.5.52.38.76.36.41-1.06.65-1.08.58,1,.82,1,.47-.27.71-.29.33-1.39.57-1.42.69,1.59.92,1.56.33-1.18.57-1.21.49,0,.73,0,.48-.07.71-.12.54.26.78.21.28-1,.51-1.07.66.75.9.69.63.5.86.44.11-1.48.34-1.55.59.34.81.27.68.53.91.46.26-.76.48-.84.58.17.8.08.12-.45.34-.54c.05-.36,1-.44,1-.8s-1-.23-1-.59-.39-.32-.43-.68,1-.5,1-.86-1.06-.22-1.11-.58-.57-.29-.62-.65,1.37-.55,1.32-.9-1.15-.22-1.2-.58.66-.45.61-.81-.44-.31-.49-.67.09-.38,0-.74.54-.43.49-.79-1.05-.23-1.1-.59,1.37-.55,1.32-.91-.71-.27-.76-.63.46-.43.41-.79-.69-.27-.74-.63-.6-.29-.65-.65.3-.4.25-.76-.16-.35-.21-.71-.46-.3-.51-.67,1.49-.56,1.45-.92-.69-.27-.73-.63.43-.42.38-.78,0-.37,0-.73-.61-.29-.66-.65.05-.37,0-.73.36-.42.31-.78-.73-.27-.78-.63.16-.39.12-.75.2-.39.15-.75-1.3-.2-1.35-.56.14-.39.09-.75.52-.44.47-.8-.36-.32-.4-.68.75-.47.7-.83.27-.4.22-.77-1.23-.2-1.28-.56,1-.52,1-.88-.22-.34-.27-.7-.89-.15-.93-.62c0-.2-.54-.4-.56-.68s-.13-.46-.15-.72,0-.47,0-.73.3-.49.29-.75,1.23-.53,1.22-.78,0-.47,0-.72,0-.46,0-.71-1.51-.44-1.52-.68,1.57-.51,1.57-.75-.7-.47-.71-.71-.42-.48-.42-.72.3-.48.3-.73-.12-.48-.12-.72-.72-.5-.71-.74.8-.46.81-.7.76-.45.77-.69-.18-.48-.17-.72-.21-.49-.2-.73-.67-.52-.65-.76,0-.48.06-.73.89-.42.91-.66.13-.46.15-.7,0-.48,0-.72-.11-.49-.09-.73-1-.58-1-.83.09-.48.12-.72,1.48-.31,1.51-.55-1.51-.67-1.48-.92,1-.36,1-.6.68-.4.71-.64-.42-.55-.38-.79.51-.41.54-.65.16-.46.2-.7-.41-.54-.38-.77-1-.6-1-.84.33-.44.36-.67-.08-.49-.06-.73-.07-.48,0-.71.12-.47.14-.71,1.07-.39,1.09-.63-1.25-.56-1.23-.8,1-.41,1-.65,0-.48,0-.72-.14-.49-.14-.73-.58-.48-.58-.72S59,37.83,59,37.59s0-.49,0-.73.22-.49.22-.73-1.11-.44-1.12-.68-.36-.46-.37-.69S59,34.19,58.94,34s-1.39-.36-1.41-.6.89-.56.86-.8-.36-.44-.4-.68.71-.59.68-.82S57,30.82,57,30.59s.4-.55.35-.78.45-.58.4-.81-.09-.48-.15-.71.12-.53,0-.76-1.28-.13-1.35-.36.11-.52,0-.75.25-.57.17-.8.11-.55,0-.77-.12-.48-.21-.7.07-.56,0-.78,0-.53-.13-.75-1.6.28-1.72.07,0-.51-.13-.72,1.09-1.2,1-1.4-1.12.13-1.25-.07-.34-.33-.47-.52.08-.64-.06-.83-1.08.32-1.24.15,0-.61-.14-.77-.49-.08-.67-.22-.21-.39-.41-.52.1-1.1-.11-1.2-.68.39-.91.31-.44,0-.67,0-.41-.68-.64-.68-.54-.24-.77-.22-.21,1.37-.45,1.43-.69-.32-.92-.24c-.13-.18-.9-.09-1-.27s.43-.91.28-1.08-.36-.29-.51-.46-.27-.37-.43-.53-.6,0-.77-.2.55-1.25.38-1.4-1.38.93-1.56.78l-.52-.4c-.2-.14.35-1.41.15-1.53s-1,.89-1.23.79-.14-.79-.36-.87-.42-.24-.65-.3-.58.63-.82.6a4.35,4.35,0,0,0-.63,0c-.23,0-.42-.43-.66-.42s-.46-.14-.7-.11-.72-.83-1-.77-.14,1.4-.39,1.48-.32.47-.56.56-1-.9-1.18-.79,0,1.07-.24,1.19-.31.43-.53.57S32.71,13.86,32.5,14Z" style="fill:#b79770"/><path d="M62.25,99.09a1.12,1.12,0,0,0,.09-1.23,1.6,1.6,0,0,0-.28-.35.61.61,0,0,0-.05-.12,1.06,1.06,0,0,0-.32-1.34,1,1,0,0,0,0-1,1.1,1.1,0,0,0-.13-.69,1.08,1.08,0,0,0-.37-1.59,1.3,1.3,0,0,0,.26-.53A1.08,1.08,0,0,0,61,91h0a1.09,1.09,0,0,0,.28-.72,1,1,0,0,0-.05-.7,1.18,1.18,0,0,0-.28-.61h0a1,1,0,0,0-.14-1.16,1.1,1.1,0,0,0,0-.74,1,1,0,0,0-.19-1,1,1,0,0,0,0-1,1,1,0,0,0,0-.65l-.06-.12a1.08,1.08,0,0,0-.14-.8,1,1,0,0,0-.27-.9.84.84,0,0,0-.15-.58,1.44,1.44,0,0,0-.72-.61h0l-.06-.14a2.19,2.19,0,0,0,.37-.25,1.09,1.09,0,0,0-.13-1.64,1.21,1.21,0,0,0-.16-.16A1.27,1.27,0,0,0,59,78.8h0a.92.92,0,0,0-.08-.4.86.86,0,0,0,.11-.33A.37.37,0,0,0,59,78a1.88,1.88,0,0,0,.24-.18,1.09,1.09,0,0,0,.17-1.3,1,1,0,0,0-.24-.33,1,1,0,0,0,0-1.08,1.05,1.05,0,0,0-.06-.85s0-.1,0-.15v-.15a1,1,0,0,0-.18-.83,1.06,1.06,0,0,0-.16-.79,1,1,0,0,0-.23-1.14,1.3,1.3,0,0,0-.08-.17,1.05,1.05,0,0,0,.1-1.25,1.06,1.06,0,0,0,0-.8,1,1,0,0,0-.09-.47,1.13,1.13,0,0,0-.16-.51,1.09,1.09,0,0,0,.06-1.09,1.86,1.86,0,0,0-.1-.25,1.2,1.2,0,0,0,.12-.55,1.48,1.48,0,0,0,0-.21,1,1,0,0,0-.15-.75,1.13,1.13,0,0,0-.15-.89,1,1,0,0,0,0-.17,1.05,1.05,0,0,0,.21-.93.66.66,0,0,0,0-.14,1.13,1.13,0,0,0-.36-1.21,1.48,1.48,0,0,0,0-.21,1,1,0,0,0,.28-1.29,1.09,1.09,0,0,0,0-.18,1,1,0,0,0-.2-.95V59a1.18,1.18,0,0,0,.28-.5,1,1,0,0,0-.13-1.5l0-.16a1.23,1.23,0,0,0,.13-.84,1.1,1.1,0,0,0,.1-1.38,1.17,1.17,0,0,0,.29-1.08,1.07,1.07,0,0,0-.18-1.15.39.39,0,0,0-.06-.15,1,1,0,0,0,0-.34,1,1,0,0,0,.38-.89A1.16,1.16,0,0,0,59.2,50a1.06,1.06,0,0,0-.12-1,1.09,1.09,0,0,0,.08-.15A1.11,1.11,0,0,0,59,47.13a1.23,1.23,0,0,0,.21-.39,1,1,0,0,0,.45-1.11,1.43,1.43,0,0,0,.09-.27,1,1,0,0,0,.11-.83.5.5,0,0,0-.05-.13,1.1,1.1,0,0,0,0-1.07,1.22,1.22,0,0,0,.41-.92A1.12,1.12,0,0,0,60,41.35a.87.87,0,0,0-.07-.17,1.7,1.7,0,0,0,.1-.37A1.1,1.1,0,0,0,60,40a1.27,1.27,0,0,0,0-.34,1.12,1.12,0,0,0,.26-1.39,1.16,1.16,0,0,0-.14-.47.58.58,0,0,0,0-.19.9.9,0,0,0,.16-.93,1.29,1.29,0,0,0,0-.48,1.13,1.13,0,0,0-.12-.62.92.92,0,0,0,0-.4,1.1,1.1,0,0,0-.17-1.41.78.78,0,0,0,0-.16,1.08,1.08,0,0,0-.08-.91l-.05-.08a1.09,1.09,0,0,0,.15-1.2,1.08,1.08,0,0,0-.14-.63,1.13,1.13,0,0,0-.2-1,1,1,0,0,0-.71-1.24A1.14,1.14,0,0,0,58.7,28a1,1,0,0,0,0-1.3.87.87,0,0,0,0-.36,1.07,1.07,0,0,0-.52-1.12l-.07,0a1.48,1.48,0,0,0-.12-.29,1.18,1.18,0,0,0,0-.94v-.1a1.08,1.08,0,0,0-.75-1A1,1,0,0,0,57,22.5a1.15,1.15,0,0,0-.38-1.23,1.27,1.27,0,0,0-.3-.31,1,1,0,0,0-.39-.58.79.79,0,0,0-.73-.42v-.13a1,1,0,0,0-.33-1.31,1.08,1.08,0,0,0-.8-.85,1.28,1.28,0,0,0-.22-.17,1.33,1.33,0,0,0-.79-.83l-.1,0a1.28,1.28,0,0,0-.53-.31,1.09,1.09,0,0,0-.78-.91,1.09,1.09,0,0,0-.57-.3,1.39,1.39,0,0,0-.5-.15,1,1,0,0,0-.34,0,.86.86,0,0,0-.28,0,1.66,1.66,0,0,0-.44-.23,1.06,1.06,0,0,0-1.12.36,1.15,1.15,0,0,0-1.14-.33.91.91,0,0,0-.61-.25.86.86,0,0,0-.13-.23,1.22,1.22,0,0,0-.21-.54,1.23,1.23,0,0,0-.76-.88,1.08,1.08,0,0,0-.67-.46,1.1,1.1,0,0,0-.76-.42,1.1,1.1,0,0,0-.58-.46A1,1,0,0,0,43,11a1,1,0,0,0-.52-.33,1.31,1.31,0,0,0-.8-.29,1,1,0,0,0-1.08-.14,1.21,1.21,0,0,0-.82,0l-.16-.2a1.07,1.07,0,0,0-.83-.3,1.08,1.08,0,0,0-1,.37,1.08,1.08,0,0,0-.88.19,1,1,0,0,0-1.21-.12,1.78,1.78,0,0,0-.42.38,1.09,1.09,0,0,0-1.2.39L34,11a1.26,1.26,0,0,0-.85.16.85.85,0,0,0-.28.12.91.91,0,0,0-1-.39l-.19,0a.92.92,0,0,0-.83-.81,1.13,1.13,0,0,0-1-.57,1.08,1.08,0,0,0-1.41-.11,1.21,1.21,0,0,0-.82,0,1,1,0,0,0-1.13-.39h0A1.14,1.14,0,0,0,25,9.43l-.22-.08a1,1,0,0,0-1.13.41,1,1,0,0,0-.67.49l-.06,0-.07,0a.88.88,0,0,0-.85.12.86.86,0,0,0-.72.32,1,1,0,0,0-.59.73.77.77,0,0,0-.07.16.83.83,0,0,0-.13.18,1.27,1.27,0,0,0-.33.2,1.23,1.23,0,0,0-.48.89,1.11,1.11,0,0,0-.57.62,1,1,0,0,0-.57.9l-.16,0a1,1,0,0,0-.65-.22,1,1,0,0,0-.7-.05,1.62,1.62,0,0,0-.51.25,1.24,1.24,0,0,0-.94.14,1.17,1.17,0,0,0-.74.61,1.26,1.26,0,0,0-.81.13,1.14,1.14,0,0,0-1,.52,1.07,1.07,0,0,0-.82.61,1,1,0,0,0-.58.87l-.22.12A1.1,1.1,0,0,0,11,18.78a1.18,1.18,0,0,0-.68.74,1.18,1.18,0,0,0-.22.17,1.12,1.12,0,0,0-.52.42,1.12,1.12,0,0,0-.49,1A1,1,0,0,0,9,22.41h0a1.09,1.09,0,0,0-.65,1.75.78.78,0,0,0,.05.14,1,1,0,0,0,0,.42.92.92,0,0,0-.1.56,1.42,1.42,0,0,0-.21.29,1,1,0,0,0-.58.65,1,1,0,0,0-.34,1.37l0,.1a1.06,1.06,0,0,0-.29.86,1.07,1.07,0,0,0-.18.65,1.19,1.19,0,0,0,0,.7,1.14,1.14,0,0,0-.14,1.19,1.1,1.1,0,0,0-.15,1.48,1.1,1.1,0,0,0-.42,1.09,1.06,1.06,0,0,0,0,.56,1,1,0,0,0,0,.3,1,1,0,0,0,.21,1.15v.06a1.1,1.1,0,0,0-.07.92A1.07,1.07,0,0,0,6,38a.65.65,0,0,0,0,.2,1.16,1.16,0,0,0-.21,1.08.86.86,0,0,0,0,.16,1,1,0,0,0,0,1,.89.89,0,0,0,0,.32,1.19,1.19,0,0,0-.19.63,1.18,1.18,0,0,0-.12.75.86.86,0,0,0,.06.39,1,1,0,0,0,.15.59l.1.14a1,1,0,0,0,.08.29,1.14,1.14,0,0,0-.16.48,1.11,1.11,0,0,0-.12.42,1.2,1.2,0,0,0,.3,1.26,1.84,1.84,0,0,0,0,.25A1.12,1.12,0,0,0,6.09,47a1,1,0,0,0-.21,1.07,1.14,1.14,0,0,0,.18.78,1.22,1.22,0,0,0,.22.82,1.45,1.45,0,0,0,0,.36,1.1,1.1,0,0,0,0,1.4,1.14,1.14,0,0,0,.19.72,1,1,0,0,0,.11.42,1.1,1.1,0,0,0-.07.44,1.16,1.16,0,0,0,0,1,1.27,1.27,0,0,0,.18.37,1.12,1.12,0,0,0,.18,1,.86.86,0,0,0,.12.3,1,1,0,0,0,.49.72,1.11,1.11,0,0,0,.07.57,1.07,1.07,0,0,0-.14,1.41,1,1,0,0,0,0,.46,1.2,1.2,0,0,0,.1.67,1.17,1.17,0,0,0,.34.94,1.06,1.06,0,0,0,0,1.11A1.11,1.11,0,0,0,7.86,63a1.58,1.58,0,0,0,.09.31,1,1,0,0,0-.07,1,1.13,1.13,0,0,0,.4,1.19.92.92,0,0,0,.05.28.85.85,0,0,0,0,.68v0a1.06,1.06,0,0,0-.16,1.23,1.1,1.1,0,0,0,.16.53,1.21,1.21,0,0,0,.45,1.25,1.11,1.11,0,0,0,.3,1,1.15,1.15,0,0,0-.33,1,1.46,1.46,0,0,0-.05.2,1.17,1.17,0,0,0-.25,1.3,1.3,1.3,0,0,0,0,.52,1,1,0,0,0,0,.88,1,1,0,0,0,.12.4,1,1,0,0,0,0,.39.63.63,0,0,0-.08.23,1,1,0,0,0-.07.74,1,1,0,0,0,.1,1,1,1,0,0,0,.06.66,3.61,3.61,0,0,0-.27,1.76,1.34,1.34,0,0,0,0,.2,1,1,0,0,0,0,.89,1,1,0,0,0,.33,1.23,1.26,1.26,0,0,0,.19.28,1.29,1.29,0,0,0,0,.19,1.15,1.15,0,0,0-.1.73,1.27,1.27,0,0,0-.08.48.06.06,0,0,0,0,0,1.34,1.34,0,0,0-.39.91,1.06,1.06,0,0,0-.15.75,1,1,0,0,0,.11.77.93.93,0,0,0,.2,1.21,1.12,1.12,0,0,0-.1.69,1.21,1.21,0,0,0-.18,1,1,1,0,0,0-.11.47,1.22,1.22,0,0,0,.2.72,1.06,1.06,0,0,0,.14,1.3,1.09,1.09,0,0,0-.08.15,1.08,1.08,0,0,0-.13,1.49.75.75,0,0,0,0,.26v.05a1,1,0,0,0,.07,1.49A1.23,1.23,0,0,0,8,95.5a1.13,1.13,0,0,0-.1.93,1.05,1.05,0,0,0,0,1.25,1.13,1.13,0,0,0,.15.57,1,1,0,0,0-.35.86,1.06,1.06,0,0,0-.15,1.14.85.85,0,0,0,.22,1.14,2.72,2.72,0,0,0,.79.42l.17.07a1.09,1.09,0,0,0,1.71,0,2.7,2.7,0,0,0,.57-2.08,1.49,1.49,0,0,0,.45-1,.7.7,0,0,0-.07-.4,1,1,0,0,0-.2-.82,1.1,1.1,0,0,0,.14-1.45.91.91,0,0,0,.13-.26,1.19,1.19,0,0,0,.24-1.09,1.22,1.22,0,0,0-.2-.67,1,1,0,0,0,0-.38,1,1,0,0,0,0-.55,1.27,1.27,0,0,0,0-.28,1.25,1.25,0,0,0,.17-.49A1,1,0,0,0,11.8,92a1.13,1.13,0,0,0,0-1.06,1.11,1.11,0,0,0-.23-1.24,1,1,0,0,0,.11-.37,5.46,5.46,0,0,0,.22-1.75.88.88,0,0,0,0-.6.92.92,0,0,0-.1-.69.87.87,0,0,0,0-.28,1,1,0,0,0-.12-1.25,1.3,1.3,0,0,0,.13-.3,1,1,0,0,0,0-.77A12.28,12.28,0,0,0,12,82.64a1.18,1.18,0,0,0-.21-1.11.65.65,0,0,0,0-.24,1,1,0,0,0,.1-1,1.08,1.08,0,0,0-.11-1.2,1,1,0,0,0,0-.77,1.08,1.08,0,0,0,.09-.58,1.18,1.18,0,0,0,.27-.49,1.17,1.17,0,0,0-.2-1.07,1.46,1.46,0,0,0-.07-.19.72.72,0,0,0-.07-.25,1.14,1.14,0,0,0,.26-1.44,1.37,1.37,0,0,0-.15-.38,1,1,0,0,0,0-.43,1,1,0,0,0,0-1.37.86.86,0,0,0,0-.17,1.07,1.07,0,0,0,0-1,1,1,0,0,0-.06-.46,1.06,1.06,0,0,0,0-1.18,1.38,1.38,0,0,0-.09-.39,1.1,1.1,0,0,0-.07-1.36,1,1,0,0,0,.09-1.16,1.13,1.13,0,0,0-.16-.54,1.13,1.13,0,0,0-.08-.48,1.16,1.16,0,0,0-.11-.48.5.5,0,0,0,0-.12,1.27,1.27,0,0,0,.26-.78.78.78,0,0,0-.05-.34,1.06,1.06,0,0,0-.5-1.08,1.09,1.09,0,0,0,0-1.13A.92.92,0,0,0,11,61.1a2.43,2.43,0,0,0-.26-1.55s0-.09,0-.14a1.11,1.11,0,0,0-.27-1.68s0,0,0,0a1.06,1.06,0,0,0,.26-1.24,1.08,1.08,0,0,0-.15-.7,1.1,1.1,0,0,0-.26-.88,1.1,1.1,0,0,0,.07-.69,1.06,1.06,0,0,0-.43-.9,1.11,1.11,0,0,0-.12-1.42,1.12,1.12,0,0,0-.54-1.32,1.12,1.12,0,0,0,0-.32s0-.1,0-.15a1.11,1.11,0,0,0,.28-.76,1.12,1.12,0,0,0,0-.88,1.18,1.18,0,0,0-.37-1.17s0-.11.05-.16a1.22,1.22,0,0,0,.16-.68A1.11,1.11,0,0,0,9.3,45.3a1.31,1.31,0,0,0-.44-.87.89.89,0,0,0,.34-1.07,1,1,0,0,0,.05-1,.9.9,0,0,0-.18-.61A1.19,1.19,0,0,0,9,41.12a1.05,1.05,0,0,0,.06-.24,1.43,1.43,0,0,0,.27-1.1,1.26,1.26,0,0,0-.09-.67,1.19,1.19,0,0,0,.08-.74,1.07,1.07,0,0,0,.05-.89,1,1,0,0,0-.12-.41,1,1,0,0,0-.21-1,1.09,1.09,0,0,0,0-1.13,1.18,1.18,0,0,0,.16-.68,1.17,1.17,0,0,0,.27-.56,1.11,1.11,0,0,0,0-1.57,1.1,1.1,0,0,0,.41-1.25,1.06,1.06,0,0,0,.36-.95,1.12,1.12,0,0,0-.21-1s0-.06,0-.1a1.43,1.43,0,0,0,.35-.42l.15-.22a1,1,0,0,0,.14-.66,1,1,0,0,0,.3-.75.8.8,0,0,0,.2-.4,1.61,1.61,0,0,0,0-.69.67.67,0,0,0,.05-.19,1.11,1.11,0,0,0,.41-.83.36.36,0,0,0,0-.11,1.08,1.08,0,0,0,.2-1.08,1,1,0,0,0,.2-.61,1.13,1.13,0,0,0,.35-1.09,1.23,1.23,0,0,0,.48-.66L13,21a1.18,1.18,0,0,0,.27-.23,1.08,1.08,0,0,0,.42-.61,1.11,1.11,0,0,0,.42-.83,1.14,1.14,0,0,0,.8-1,.2.2,0,0,1,0-.07A1.19,1.19,0,0,0,16,18.17a1.16,1.16,0,0,0,.67-.48,1,1,0,0,0,.83-.11,1.18,1.18,0,0,0,.64.07,1,1,0,0,0,.64.11,1,1,0,0,0,.11.24,3,3,0,0,0,.09.35.86.86,0,0,0,0,.28,1,1,0,0,0,.07.55,2.68,2.68,0,0,0,.07.27.86.86,0,0,0,0,.23,1.13,1.13,0,0,0,.11.6,1.08,1.08,0,0,0,.05.21,1.23,1.23,0,0,1,0,.2,1,1,0,0,0,.31.75,2,2,0,0,0,.07.23,1.06,1.06,0,0,0,.25,1,1.17,1.17,0,0,0,.19.51h0a1.06,1.06,0,0,0,.18.63,1.22,1.22,0,0,0,.31.43,1.4,1.4,0,0,0,.12.18,1.12,1.12,0,0,0,.42.47l.11.07c1,.59,1.89-.58,1.51-1.4a1.26,1.26,0,0,0-.13-.34,1.1,1.1,0,0,0-.38-.56l-.06-.14a1.18,1.18,0,0,0-.12-.36,1.12,1.12,0,0,0-.19-.63v0a1.71,1.71,0,0,0-.1-.3,1,1,0,0,0-.13-.51,1.06,1.06,0,0,0-.12-.43,1.53,1.53,0,0,0-.07-.36v-.05a1.15,1.15,0,0,0-.21-.88v0a1,1,0,0,0-.07-.38l0-.15a1.08,1.08,0,0,0-.08-.53.09.09,0,0,0,0-.05,1.15,1.15,0,0,0,0-.26,1,1,0,0,0-.07-.46,1.12,1.12,0,0,0,.63-1.34.05.05,0,0,1,0,0,.93.93,0,0,0,.5-1.34,1.16,1.16,0,0,0,.43-.33,1.14,1.14,0,0,0,1.16-.67,1.18,1.18,0,0,0,.8-.45,1.1,1.1,0,0,0,.91-.41,1.14,1.14,0,0,0,1-.13.86.86,0,0,0,.3-.12,1.08,1.08,0,0,0,1.05.29.29.29,0,0,0,.1,0,1,1,0,0,0,.89.17.84.84,0,0,0,.44.43,1,1,0,0,0,1,.46,1.17,1.17,0,0,0,.48.22,1.19,1.19,0,0,0,.13.25,1.33,1.33,0,0,0,.28.54l.08.09a.88.88,0,0,0,.44.27.44.44,0,0,0,0,.1,1,1,0,0,0-.1.87.33.33,0,0,0,0,.14h0a.88.88,0,0,0-.14.65s0,.08,0,.13a1,1,0,0,0-.05.6,1,1,0,0,0,0,.38,1.7,1.7,0,0,0,0,.22,1,1,0,0,0-.1,1.06v0a1.19,1.19,0,0,0,0,.77,2.28,2.28,0,0,0,0,.26,1.35,1.35,0,0,0,0,.35,1.4,1.4,0,0,0-.08.34,1.27,1.27,0,0,0,0,.2,1,1,0,0,0,0,.89,1,1,0,0,0,.1.73.75.75,0,0,0,0,.16v0a2,2,0,0,0,0,.47,1.73,1.73,0,0,0,.1.24,1.05,1.05,0,0,0,.06.24,2.56,2.56,0,0,0,.05.27l.08.25.1.26,0,0a1.12,1.12,0,0,0,.74.7l.2.05a1.1,1.1,0,0,0,1-1.85.34.34,0,0,0,0-.1h0a1,1,0,0,0-.21-1,1.23,1.23,0,0,0-.05-.94,1,1,0,0,0-.08-.29s0-.08,0-.12a.49.49,0,0,0,0-.12,1.33,1.33,0,0,0,.07-.78,1.06,1.06,0,0,0,.07-.76,1.22,1.22,0,0,0-.05-.37,1.05,1.05,0,0,0,.1-1,1.07,1.07,0,0,0,.05-.47,1.2,1.2,0,0,0,0-.46,1,1,0,0,0,0-.24.82.82,0,0,0,0-.27v0a.81.81,0,0,0,.15-.57,1,1,0,0,0,0-.38,1.35,1.35,0,0,0,.09-.33,1.23,1.23,0,0,0,0-.27,1,1,0,0,0,.14-.29,1,1,0,0,0,.73-.34,1.05,1.05,0,0,0,.65-.27,1,1,0,0,0,.69-.72,1.33,1.33,0,0,0,.3-.23l.1,0h0l.1,0a1.23,1.23,0,0,0,.8.09,1.09,1.09,0,0,0,.62-.22,1.22,1.22,0,0,0,.84.21,1.14,1.14,0,0,0,1.12.11,1.34,1.34,0,0,0,.4.06,1.15,1.15,0,0,0,1.11.66,1.24,1.24,0,0,0,.4.42,1.1,1.1,0,0,0,.75.38,1.16,1.16,0,0,0,.24.2,1.17,1.17,0,0,0,.69.6.91.91,0,0,0,.44.49l.08,0h0A1.12,1.12,0,0,0,45,17.57a1,1,0,0,0,.74.71,1.36,1.36,0,0,0,.06.29v.21h0a1.17,1.17,0,0,0-.13.45,1,1,0,0,0-.08.54v0a1,1,0,0,0-.1.37.92.92,0,0,0-.12.66,1.05,1.05,0,0,1-.08.13,1,1,0,0,0-.09.86,1.55,1.55,0,0,0-.06.23,1,1,0,0,0-.27.81,1,1,0,0,0-.15.37.92.92,0,0,0-.24.43.81.81,0,0,0-.14.33,1.15,1.15,0,0,0,1.09,1.83l.19,0a.9.9,0,0,0,.63-.49,1,1,0,0,0,.29-.73l0-.09a1.2,1.2,0,0,0,.13-.33,1,1,0,0,0,.18-.38l.11-.15a1.71,1.71,0,0,0,.11-.71,1.33,1.33,0,0,0,0-.19,1,1,0,0,0,.21-.59.88.88,0,0,0,.09-.56,1.53,1.53,0,0,0,.09-.4v0a1.07,1.07,0,0,0,.14-.94,1.25,1.25,0,0,0,.12-.43l0-.2a1,1,0,0,0,.08-.6,1,1,0,0,0,0-.24,1,1,0,0,0,.06-.33l.06,0a1.25,1.25,0,0,0,.43,0,1,1,0,0,0,1.17-.14l.14,0a1.28,1.28,0,0,0,.64.9,1.21,1.21,0,0,0,.84.45,1.2,1.2,0,0,0,.45.32l0,.05a1.12,1.12,0,0,0,.89.87l.08,0a1.06,1.06,0,0,0,.19.33,1.19,1.19,0,0,0,.21.71,1.06,1.06,0,0,0,.09.35,1,1,0,0,0,.58.92,1.08,1.08,0,0,0,.38.83.25.25,0,0,0,0,.07,1.13,1.13,0,0,0,.42,1.25,1.14,1.14,0,0,0,.11.72,1.28,1.28,0,0,0,.21.46,1.16,1.16,0,0,0,.35.65,1.08,1.08,0,0,0,.48,1.32,1,1,0,0,0,.11.37,3.94,3.94,0,0,0-.08.42.83.83,0,0,0,.14.53l0,.12a1.16,1.16,0,0,0,.25.93.92.92,0,0,0,.11.33,1.15,1.15,0,0,0,.08.41,1.15,1.15,0,0,0,.17.59,1.08,1.08,0,0,0,0,1.66,1.22,1.22,0,0,0,0,.84,1.13,1.13,0,0,0,.16.26,1.16,1.16,0,0,0-.14,1.27.24.24,0,0,0,0,.08,1,1,0,0,0-.06.41,1,1,0,0,0-.08.68,1.08,1.08,0,0,0,0,.44,1.1,1.1,0,0,0,.23.66.89.89,0,0,0,0,.22,1,1,0,0,0-.13,1.44,1.25,1.25,0,0,0-.14.49,1.05,1.05,0,0,0,.05.78l0,.12a1.42,1.42,0,0,0,0,.2,1,1,0,0,0-.29,1,1,1,0,0,0,0,.43.76.76,0,0,0,0,.21,1.15,1.15,0,0,0-.22,1,1.13,1.13,0,0,0,.08.24,1.11,1.11,0,0,0,.17.88.85.85,0,0,0-.11.35,1.1,1.1,0,0,0-.11,1.7,1.32,1.32,0,0,0,.08.33,1.63,1.63,0,0,0-.59,1.92,1.13,1.13,0,0,0-.35,1,1.14,1.14,0,0,0,0,.55,1,1,0,0,0,.1.51,1.16,1.16,0,0,0-.17.79,1,1,0,0,0-.13.55,1.08,1.08,0,0,0,0,.73.69.69,0,0,0,0,.32,1.52,1.52,0,0,0,0,.21.61.61,0,0,0-.11.28l0,.13a1.74,1.74,0,0,0,0,.51,1.05,1.05,0,0,0,0,1.13.75.75,0,0,0,0,.16,1.13,1.13,0,0,0-.19,1,1.17,1.17,0,0,0,0,1,1.16,1.16,0,0,0-.08.61,1,1,0,0,0,0,.92.89.89,0,0,0,.09.56s0,0,0,.07l-.06.21a1,1,0,0,0,0,1.12,1.05,1.05,0,0,0,0,.58,1,1,0,0,0,0,.92.94.94,0,0,0,.2.67,1,1,0,0,0-.17,1.33,1.11,1.11,0,0,0,0,.48,1.09,1.09,0,0,0-.11.86,1.17,1.17,0,0,0,.33.53,1,1,0,0,0,.18,1.35,1.05,1.05,0,0,0,.06,1.29h0a1,1,0,0,0,0,.66,1,1,0,0,0,.24,1.64h0a.92.92,0,0,0-.09.39,1,1,0,0,0,.07.9,1,1,0,0,0,.36,1.15,1.15,1.15,0,0,0-.15,1,1,1,0,0,0,.1.77.92.92,0,0,0,.16.53,2.21,2.21,0,0,0,.24,1.65,1,1,0,0,0,.2.44,1.13,1.13,0,0,0-.07,1.2v0a1.08,1.08,0,0,0-.08.19,1,1,0,0,0,.06.74,1.16,1.16,0,0,0,0,.52,1,1,0,0,0,0,.33c0,.09,0,.07,0,0a1.14,1.14,0,0,0,.58.88,1.21,1.21,0,0,0-.08.83.78.78,0,0,0,0,.22,1.12,1.12,0,0,0,0,.13,1.08,1.08,0,0,0,.08.76,1,1,0,0,0,.29,1.25h0a1,1,0,0,0,.26,1.25,1,1,0,0,0-.06,1.12,1.36,1.36,0,0,0-.09.51,1.1,1.1,0,0,0,.44.88,1.08,1.08,0,0,0-.1.89,1,1,0,0,0,0,.74.93.93,0,0,0,.1.59,1.17,1.17,0,0,0,.16.75,1.07,1.07,0,0,0,.29,1,1,1,0,0,0,.17,1.08s0,.06,0,.09a1.1,1.1,0,0,0,0,1.35l.06.18a1,1,0,0,0-.05.88,1.11,1.11,0,0,0,.35,1,1,1,0,0,0,.28,1,.91.91,0,0,0,.1.83,1,1,0,0,0,1,.75,1.88,1.88,0,0,0,1.15-.52,1,1,0,0,0,.33-.14,1.38,1.38,0,0,0,.52-1.06A1,1,0,0,0,62.25,99.09Zm-41.13-80h0v0h0ZM8.57,101.7h0S8.47,101.66,8.57,101.7Zm.36.24L9,102S9,102,8.93,101.94Z" style="fill:#1c1b1f"/><path d="M31.6,24.11h0Z" style="fill:#1c1b1f"/></svg>