<svg id="레이어_1" data-name="레이어 1" xmlns="http://www.w3.org/2000/svg" viewBox="0 0 260 901"><path d="M54.6,44.63a6.52,6.52,0,0,0,.75.5,4.56,4.56,0,0,0,.55.5c.21.11.51.07.74.17s.39.36.62.43.53-.07.76,0l.86.09c.29,0,.56.22.85.23a8.63,8.63,0,0,0,.88,0c.28,0,.54-.26.84-.31s.62.15.91.06.48-.37.75-.49a5.83,5.83,0,0,0,.73-.43,5.52,5.52,0,0,0,.75-.42,6.66,6.66,0,0,0,.53-.66c.2-.21.57-.27.74-.5a6.89,6.89,0,0,0,.49-.71c.16-.24.23-.53.37-.78s.35-.47.47-.72,0-.62.15-.87.26-.47.34-.68a4.72,4.72,0,0,0,.22-.72c0-.27.23-.51.23-.75s-.25-.47-.27-.75,0-.47,0-.76.09-.48.1-.76a1.07,1.07,0,0,0-.19-.74c-.14-.25-.33-.46-.48-.72s-.45-.4-.61-.65-.22-.55-.4-.78-.47-.37-.66-.59-.2-.61-.41-.81a8.53,8.53,0,0,0-.76-.46,2.55,2.55,0,0,0-.62-.37c-.23-.08-.51-.07-.73-.13-.44-.13-.71-.34-.54-.22a7.88,7.88,0,0,0-.76-.4,3,3,0,0,0-.86-.11,3.94,3.94,0,0,0-.92.05c-.31,0-.59.11-.9.17s-.6.09-.92.16c0,0,.26-.25-.42-.08-.27.07-.61,0-.92.1A3.58,3.58,0,0,0,56,31c-.23.13-.39.38-.62.54s-.55.18-.75.36a8.14,8.14,0,0,0-.54.63c-.19.19-.26.49-.44.7s-.51.3-.66.51a6.59,6.59,0,0,0-.41.72,6.18,6.18,0,0,0-.35.74c-.1.25-.06.55-.14.8s-.11.51-.18.77-.08.52-.12.78-.18.51-.2.77-.09.53-.08.8a7,7,0,0,0,.07.79,6.94,6.94,0,0,0,.08.81c.07.26.36.44.46.69a6.58,6.58,0,0,0,.4.67,5.7,5.7,0,0,0,.44.65,5.78,5.78,0,0,0,.53.58c.19.18.27.5.49.66s.43.32.67.46C55.38,44.9,53.81,43.89,54.6,44.63Z" style="fill:#f2c5cb"/><path d="M89.08,35.06a5.46,5.46,0,0,0,1,.29c-.11,0,.42.43.75.55a6.38,6.38,0,0,0,.77.24c.25.06.55,0,.82,0s.52.21.79.23.55,0,.81,0,.57.13.82.08a4.52,4.52,0,0,0,.79-.25,5.16,5.16,0,0,0,.77-.31c.25-.12.38-.43.62-.58a6.36,6.36,0,0,0,.72-.39,7.87,7.87,0,0,0,.53-.62c.2-.19.47-.31.65-.51s.26-.49.42-.71.41-.39.55-.61.21-.52.33-.75.41-.51.52-.73a2.3,2.3,0,0,0,.28-.84,6.35,6.35,0,0,0,.08-.89c0-.28-.1-.57-.08-.85s.12-.55.13-.83a5,5,0,0,0,.11-.84c0-.2-.17-.38-.18-.57s.06-.12,0-.16-.12,0-.11-.07a1,1,0,0,0-.32-1.12,3.75,3.75,0,0,1-.69-.54c-.18-.23-.25-.53-.41-.77a8,8,0,0,0-.43-.75,4.06,4.06,0,0,0-.6-.65c-.08-.06-.31.08-.43.05-.28-.29-.29-.66-.68-.92-.14-.09-.43-.06-.66-.14s-.44-.25-.58-.3c-.3-.11-.59-.18-.88-.26a6.82,6.82,0,0,0-.87-.3c-.27-.05-.54.09-.79.07a6.6,6.6,0,0,0-.77,0,6.3,6.3,0,0,0-.75.05c-.26,0-.55-.2-.81-.15s-.48.18-.74.26-.43.28-.68.38-.5.18-.74.3-.51.19-.74.33-.32.47-.53.63-.57.15-.77.33-.3.46-.48.65-.47.32-.62.53-.31.47-.44.69a4.65,4.65,0,0,0-.24.78,4.55,4.55,0,0,0-.19.83c0,.28-.18.54-.21.82s.11.59,0,.85a2.14,2.14,0,0,0-.19.72c0,.23.24.45.29.69s0,.47.05.73a3,3,0,0,1-.06.71,1.24,1.24,0,0,0,0,.52c0,.26.32.47.44.73a4.27,4.27,0,0,0,.47.67,5.1,5.1,0,0,0,.45.69c.18.21.26.52.46.71a8,8,0,0,0,.67.52c.22.18.56.18.78.32S88.85,35,89.08,35.06Zm9-13a.36.36,0,0,1-.12-.08C97.72,21.76,97.87,21.89,98.05,22Z" style="fill:#f2c5cb"/><path d="M51.6,67l.06,0a1.12,1.12,0,0,0-.36-.53,1.25,1.25,0,0,1-.39-.6,4.28,4.28,0,0,1-.31-.69c-.06-.24-.3-.39-.43-.62s-.17-.54-.37-.7-.47-.25-.68-.41c-.53-.42-.4-.11-.43-.13-.24-.2-.46-.38-.67-.53a5.06,5.06,0,0,0-.67-.52,5.49,5.49,0,0,0-.77-.37c-.25-.07-.55,0-.87,0s-.51-.15-.83-.2c-.68-.12.57-.12-.37-.25-.24,0-.52,0-.79-.08a3.21,3.21,0,0,0-.78-.14,5.61,5.61,0,0,0-.75.26c-.24.06-.56-.06-.81,0s-.43.35-.67.45-.53.11-.75.21a6.52,6.52,0,0,0-.72.43,6.44,6.44,0,0,0-.65.52c-.22.17-.53.23-.73.42s-.27.51-.45.72-.3.46-.46.68a7.38,7.38,0,0,0-.46.68c-.14.24-.35.44-.47.69s-.09.56-.19.81-.26.52-.33.78a6.65,6.65,0,0,0-.2.83,4.72,4.72,0,0,0,0,.84,6.58,6.58,0,0,0,.19.83c0,.27,0,.56.06.85s0,.7.06.92a3.67,3.67,0,0,0,.47.79c.15.2.56.24.76.55-.38-.59-.32.36-.18.55a7.43,7.43,0,0,0,.73.75c.18.19.57.17.78.35a7.55,7.55,0,0,0,.59.54c.22.16.47.26.7.4s.44.29.69.42.46.27.71.37.44.4.7.47a7.61,7.61,0,0,0,.82.09,7.86,7.86,0,0,0,.8.21,7.69,7.69,0,0,0,.83,0,7.25,7.25,0,0,0,1.61-.37,5.88,5.88,0,0,0,.79-.23c.24-.1.51-.19.76-.32s.38-.44.6-.59.43-.32.63-.49.45-.32.64-.51.47-.3.65-.52.27-.47.45-.69.34-.35.47-.52.07-.47.18-.71c.25-.49.15-.67.11-.57.08-.23.18-.46.27-.71s.36-.41.44-.66.23-.47.28-.72.06-.52.09-.78A6.65,6.65,0,0,0,52,68.5a4.46,4.46,0,0,0-.24-.73A3.67,3.67,0,0,0,51.6,67Z" style="fill:#f2c5cb"/><path d="M126.63,43.52c-.11-.24-.15-.58-.24-.82l-.06-.12s-.13,0-.13-.09a1,1,0,0,0-.51-1,4.57,4.57,0,0,1-.77-.37c-.23-.17-.56-.22-.78-.4s-.35-.46-.59-.63a4.42,4.42,0,0,0-.71-.48,1,1,0,0,0-.4-.13,1.8,1.8,0,0,0-.68-.34c-.28-.07-.55.11-.81.13a4.91,4.91,0,0,1-.85,0c-.79-.09.6-.29-.22-.3-.25,0-.51-.13-.77-.12s-.52.07-.78.09-.49.17-.75.22a5.38,5.38,0,0,0-.71.3,4.56,4.56,0,0,0-.72.21c-.26.12-.5.24-.74.38s-.52.21-.74.37a7,7,0,0,0-.69.48c-.21.19-.49.32-.67.52s-.3.49-.47.72-.27.49-.41.73-.42.41-.54.66-.21.53-.31.78,0,.58,0,.82-.35.5-.37.75.28.52.3.78,0,.52,0,.78-.1.53-.08.8.18.51.18.78a.87.87,0,0,0,0,.28.85.85,0,0,0,.16.39,5.69,5.69,0,0,0,.32.71c.11.24.05.57.19.79s.46.32.62.52.19.53.38.71a7.42,7.42,0,0,0,.62.49c.2.16.36.39.58.54s.48.23.7.36.49.19.73.3.51.11.76.21.43.5.7.58a6.25,6.25,0,0,0,.87.07,7.86,7.86,0,0,0,.82.27c.28,0,.58-.16.86-.17s.54-.11.83-.15a6.29,6.29,0,0,0,.85-.06c.26-.07.52-.2.79-.3a6.24,6.24,0,0,0,.8-.19,7.6,7.6,0,0,0,.76-.35c.22-.16.37-.42.58-.59a7.81,7.81,0,0,0,.59-.56,8.12,8.12,0,0,0,.48-.67c.16-.21.44-.36.58-.59s.12-.56.24-.8.26-.48.36-.73a7.49,7.49,0,0,0,.15-.8c.09-.26.3-.47.37-.73s.1-.52.17-.71a4.44,4.44,0,0,0,.15-.7,2,2,0,0,0,.14-.71c0-.19-.1-.42-.17-.71s-.23-.48-.31-.75,0-.57-.1-.82S126.74,43.75,126.63,43.52Z" style="fill:#f2c5cb"/><path d="M115.49,68.71s0,0-.06,0a1.52,1.52,0,0,0-.08-.8,1.56,1.56,0,0,0-.53-.65c-.11-.06-.72.08-.83,0,0-.29.51-.65.47-.9s-.36-.41-.5-.65.14-.8-.07-1-.54-.23-.79-.4-.4-.34-.56-.46-.89.17-1,0,.07-.59-.07-.86-.56-.21-.69-.47.1-.51-.12-.61-.4.24-.62.25-.4-.45-.42-.82c0-.15-.3-.3-.35-.58s.13-.57-.12-.74a1.39,1.39,0,0,0-.84-.28,1.44,1.44,0,0,1-.72,0c-.26,0-.58,0-.71-.34-.06-.18,0-.46-.12-.74s-.27-.79-.63-.85a1.25,1.25,0,0,0-.71-.68c-.27-.12-.53-.43-.85-.38-.16-.21-.47.08-.66-.13a1.29,1.29,0,0,0-1.11-.41c-.2-.23-.6.07-.85,0s-.39-.46-.69-.45c-.09-.3-.25-.79-.57-.93a2.15,2.15,0,0,0-1.24-.23c-.25.1-.35.75-.6.71s-.3-.61-.55-.68c-.06-.09-.44.21-.49.12-.17-.26-.2-.6-.47-.68a2,2,0,0,0-.87,0c-1,.19-.45-.14-.61-.44s-.74,0-1-.06-.35,0-.58,0-.26,0-.44.18-.49-.75-.54-.71,0,.16-.06.16c-.33,0-.66.39-1,.33a7.07,7.07,0,0,0-.93-.29c-.29,0-.47-.35-.65-.38s-.62.67-.84.71c-.24-.18-.37-1.09-.64-1.1s-.56.5-.81.64c-.31-.15-.85-.66-1.19-.54a2.52,2.52,0,0,1-.79.08c-.39,0-.74.32-.92.28a1.55,1.55,0,0,0-.8,0c-.22.07-.77,0-.94.12s0,.78-.27.84-.53-.42-.8-.41-.49.61-.75.62-.54-.24-.79-.19-.65-.11-.87,0a2.19,2.19,0,0,0-.61.35c-.07,0,.19.58,0,.64s-.4.45-.69.56-.65,0-.91.06-.56-.43-.79-.49a1.77,1.77,0,0,0-1,.25c-.27.13,0,.75-.14,1s-.85-.19-1.05-.13-.37.32-.61.35-.7-.24-.9-.09-.14.91-.32,1.14-.77,0-.93.32c-.27,0-.15.71-.37.78a1.85,1.85,0,0,0-.57.36c-.21.13-.73-.13-.9.07s-.44.35-.57.58.31.91.2,1.15c-.33.12-1.23-.45-1.44-.27s.06.92,0,1.23a3.18,3.18,0,0,0,0,1c-.24.17-.78.17-1,.35s-.1.66-.27.87-.88-.14-1,.13a1.26,1.26,0,0,0-.69.31c-.22.16-.22.69-.3.94s-.38.64-.33.91c0,.1.75.4.77.51-.21.11-.57.11-.71.29a.89.89,0,0,0-.28.59c-.26.16-1,.11-1.11.37s.52.64.64,1c0,0-.21.26-.19.29-.22.09-.61,0-.76.15s-.54.4-.6.61.16.62.23.85c0,0,.37.39.38.42-.23.07-.61-.2-.76,0s.24.53.18.75-.91.43-.84.65c.19.6,1.21,0,.64.4-.2.14-.55.13-.65.32s.15.49.15.72c0,0-.4-.33-.41-.33-.2.11-.35.52-.47.72s.25.53.26.74.32.64.34.93c0,0-.09.39-.11.42-.21.23-.37.16-.4.43s-.35.54-.21.8a1.36,1.36,0,0,0-.4.68,3,3,0,0,1-.18.7c-.11.26.09.7-.09.85s-.94.33-1,.62.4.79.55,1c.32.3.66.51.37.41-.15.38-.57.52-.35.83-.17.35,0,.68.18,1a1.13,1.13,0,0,0-.17.75c0,.25.56.48.72.7-.11.26,0,.46.07.71s.14.19.33.39c.56.54.34,1.06.26,1.14a.62.62,0,0,0-.44.71c0,.3,0,.56,0,.78s-.22.7-.13.92.84.09,1,.32.39.24.61.45a1.75,1.75,0,0,0,.63.43,1.16,1.16,0,0,0,0,.69c.21.32-.07,1,.13,1.16a2.14,2.14,0,0,0,.86.47c0,.17.08,0,.12.26s.61.14.79.28a1.63,1.63,0,0,0,.66.29c.1.26.11.65.33.81s.36.09.67,0c.07,0,0,.35,0,.34,0,.23.33.35.47.53s.12.82.33.91.51-.07.75-.11c.17.22.65-.21.91-.11s.21-.07.49-.19c.11,0,.18.93.22.89.31.19.71.4.71.4.17.09.63-.15.85-.15a1.36,1.36,0,0,0,.6-.24,1.25,1.25,0,0,0,.74.1,1.4,1.4,0,0,0,.74-.12,7.63,7.63,0,0,1,.83-.44.7.7,0,0,1,.86.11c.21.2.5-.18.75-.16s.5.37.74.25c.26.17.57-.08.89-.1s.24-.08.45-.34c0,0,.44.56.45.54a2,2,0,0,0,.72-.2c.22-.07.62-.13.75-.29s-.07-1.07,0-1.14.4.71,1,.59c.38-.08.48-.64.69-.71s.5.71.89.74c.24,0,.68-.33.88-.46s.24-.55.37-.74.24-.57.47-.76.83.18,1.06,0a1.72,1.72,0,0,0,.54-.48c.27,0,.26-.78.45-.89s.19-.16.3-.37.88-.11.87-.35c.18-.15-.12-.58.09-.83s.63,0,.86-.23.19-.72.54-.94,1-.88.64-.91c.24,0,.43.45.64.39s0-.56.2-.72.94.14,1-.11c0,0-.28.21-.27.16.28.09.57,0,.86.06s.61.09.9.14a5.29,5.29,0,0,0,.9-.07,3.7,3.7,0,0,0,.89,0c.32-.1.56-.45.75-.44s.39-.27.43-.27c.22.22.27.79.36.89s.22.66.46.71.54-.31.75-.38.51-.47.75-.52.66.53.93.51.51-.22.8-.26c0,0,.09-.12.11-.09s.54-.12.74,0,.19.41.42.4.28-.1.5-.24.86.35,1,.26,0-.42.33-.25.52-.37.77-.38.56.36.73.22S105,89,105,89s-.3,0,0-.12.47-.11.67-.17.53.2.75.1.66.28.88.14,0-1,.21-1.17.79.08,1-.07.33-.42.56-.39.77.23,1,.12a2.21,2.21,0,0,0,.77-.78c.14-.24,0-.81.25-1a1.7,1.7,0,0,1,1-.25c.23,0,.35-.38.56-.49a.62.62,0,0,0,.37-.39c.1-.25.54-.31.68-.5s0-.79.14-1,.72,0,.92-.12.73,0,.91-.12a3.66,3.66,0,0,0,.44-.77,2.71,2.71,0,0,0,.28-.83l-.15.11c.31-.21-.08-.8,0-1.11s.53-.56.35-.88c-.07-.12.08-.57,0-.62s.08.54.18,0c0-.17-.12-.53,0-.75a2.56,2.56,0,0,0,.25-.54c.06-.23.29-.44.3-.73s.35-.55.32-.83-.38-.51-.42-.78.4-.63.36-.88-.93-.4-1-.63,0-.65-.08-.86c-.11-.44.1-.68,0-.87-.13-.35-.66-.47-.76-.72s.16-.73,0-1c0-.05.55,0,.57,0s-.22-.67-.29-.9S115.67,68.84,115.49,68.71ZM79.81,54.76c-.06,0-.14,0-.2.06S79.62,54.86,79.81,54.76Z" style="fill:#f2c5cb"/><path d="M205.28,129.5c-.23.21-.4.42-.64.61s-.44.16-.67.29-.34.38-.57.48-.52,0-.75.08-.42.34-.65.38-.57.12-.86.16-.59-.1-.88-.09a6.19,6.19,0,0,1-.86,0c-.28,0-.6.16-.89.1s-.49-.38-.78-.47-.6,0-.88-.12a5.51,5.51,0,0,1-.78-.36c-.24-.16-.41-.41-.63-.59s-.51-.3-.7-.5-.2-.58-.38-.8-.35-.44-.5-.68-.39-.43-.52-.67-.21-.54-.33-.79-.46-.42-.57-.67-.15-.53-.23-.74a6,6,0,0,1-.18-.74c-.05-.28.1-.52.1-.76s-.19-.49-.17-.77.1-.46.11-.75.09-.48.07-.77a.75.75,0,0,1,.27-.59c.13-.25.22-.55.38-.8s.15-.59.31-.84.43-.41.6-.65.24-.57.43-.79.58-.26.78-.46.35-.5.58-.67a6,6,0,0,1,.69-.23c.23-.08.45-.26.67-.32.44-.13.81,0,.64.09.27-.15.48-.37.74-.5a2.2,2.2,0,0,1,.8-.36,4.49,4.49,0,0,1,.95-.06,9.25,9.25,0,0,1,.94.13c.3.07.58.19.9.26,0,0-.3,0,.38.14.26.07.57.2.88.27a3.19,3.19,0,0,1,.84.27c.23.13.52.18.75.34s.31.47.51.65a7.79,7.79,0,0,1,.65.48c.19.19.49.29.66.49s.18.56.34.77.34.43.47.65a6.9,6.9,0,0,1,.36.72c.1.25.32.45.4.7s.21.51.27.76.15.53.19.79a7.24,7.24,0,0,1,0,.81,7,7,0,0,1-.06.8,6.82,6.82,0,0,1-.09.79,7.41,7.41,0,0,1-.26.75c-.08.25,0,.57-.08.81a6.89,6.89,0,0,1-.34.73,6.14,6.14,0,0,1-.49.65,5.09,5.09,0,0,1-.56.58c-.18.18-.5.21-.72.37a7.48,7.48,0,0,1-.66.43C204.5,129.7,206.07,128.76,205.28,129.5Z" style="fill:#f2c5cb"/><path d="M174.72,115.86a1.06,1.06,0,0,0,.07-.48,2.92,2.92,0,0,1,0-.73,6.61,6.61,0,0,1,.15-.7,6,6,0,0,0,0-.74,2.07,2.07,0,0,0,.08-.7,5.51,5.51,0,0,1-.23-.82c0-.27.11-.58.07-.85a4.55,4.55,0,0,0-.24-.82,4.66,4.66,0,0,0-.31-.74c-.13-.23-.44-.34-.6-.56s-.24-.48-.42-.68-.44-.29-.64-.47a7.57,7.57,0,0,0-.53-.6c-.21-.16-.49-.22-.71-.36s-.4-.36-.64-.49-.51-.16-.75-.26-.45-.29-.68-.36-.5-.16-.75-.22a6.36,6.36,0,0,0-.76-.14,7,7,0,0,0-.77.09,6.37,6.37,0,0,0-.76,0c-.25,0-.52,0-.78,0s-.62.13-.9.2-.61.1-.91.2a6.24,6.24,0,0,1-.56.36,4.21,4.21,0,0,0-.61.25c-.39.26-.4.63-.68.92-.12,0-.29,0-.37,0a3.72,3.72,0,0,0-.68.55,8.33,8.33,0,0,0-.54.67c-.16.24-.15.6-.32.83a4.24,4.24,0,0,1-.7.52,1,1,0,0,0-.21,1.12s-.06.07-.05.1,0,.09,0,.17-.26.36-.28.56.15.56.17.84.07.55.09.83a8.15,8.15,0,0,1,.07.84c0,.38-.25.68-.21.92a2.62,2.62,0,0,0,.33.86,8.73,8.73,0,0,1,.54.73c.12.23.22.49.37.73a7.33,7.33,0,0,0,.39.73c.16.22.5.3.68.51s.2.57.39.76.49.28.7.45.36.46.59.61a3.58,3.58,0,0,0,1.54.64,7.23,7.23,0,0,0,.8.21,4.81,4.81,0,0,0,.81.18c.26,0,.53-.18.81-.2s.56.09.82.05.51-.26.77-.32.56-.07.79-.15.9-.43.79-.47a5.28,5.28,0,0,0,1-.26c.23-.1.39-.4.64-.56a6.23,6.23,0,0,0,.63-.54,7.63,7.63,0,0,0,.67-.49c.2-.19.51-.28.69-.49a6.12,6.12,0,0,0,.48-.69c.16-.24.13-.57.24-.82S174.67,116.12,174.72,115.86Zm-12.65-8.92a.5.5,0,0,1-.12.08C162.13,106.88,162.28,106.75,162.07,106.94Z" style="fill:#f2c5cb"/><path d="M208.41,152l.07,0a.83.83,0,0,1,.32-.45,1.8,1.8,0,0,0,.54-.61,5.1,5.1,0,0,0,.14-.78c.06-.24,0-.57.09-.8s.49-.29.7-.46.36-.38.57-.55c.53-.41.34-.17.36-.19.25-.21.48-.39.68-.54a5.18,5.18,0,0,1,.76-.41,5.33,5.33,0,0,1,.8-.3c.24-.07.47-.31.78-.38s.55-.06.86-.12c.68-.11-.52.13.41,0,.25,0,.5-.15.77-.2a2.93,2.93,0,0,1,.79,0,4.32,4.32,0,0,1,.8,0c.24.06.43.34.68.43s.55,0,.79.11.46.29.68.39a5.78,5.78,0,0,1,.76.32c.24.15.51.25.73.42s.34.46.54.65.51.28.69.49.39.41.55.64a7.6,7.6,0,0,1,.43.72c.14.24.2.54.31.78s.36.47.45.72a6,6,0,0,1,.18.86,5.07,5.07,0,0,1,.07.86,7.91,7.91,0,0,1,.06.85c0,.27,0,.57,0,.87s-.18.53-.24.83-.33.56-.43.79a3.79,3.79,0,0,1-.45.72c-.15.19-.07.58-.27.88.38-.58.07.21-.07.4s-.67.31-.91.57-.19.59-.4.77-.46.3-.68.46-.42.36-.65.51-.5.25-.74.37-.52.19-.77.29-.58,0-.84,0a7.05,7.05,0,0,1-.76.3c-.26,0-.54,0-.81,0a6.94,6.94,0,0,1-.79,0,7.12,7.12,0,0,1-.8,0,7.46,7.46,0,0,1-.81-.1c-.25-.07-.49-.2-.75-.3a6.13,6.13,0,0,1-.71-.38c-.25-.14-.58-.12-.8-.27a5.34,5.34,0,0,1-.65-.5,6.53,6.53,0,0,1-.56-.61c-.18-.19-.25-.49-.43-.7s-.41-.36-.58-.58-.27-.4-.4-.58-.44-.24-.56-.48c-.25-.5-.19-.68-.15-.59l-.25-.72c-.08-.24,0-.55,0-.8s-.05-.5-.1-.75a6.36,6.36,0,0,1-.16-.73,7.11,7.11,0,0,1-.15-.75c0-.26-.12-.54-.06-.79A3.34,3.34,0,0,1,208.41,152Z" style="fill:#f2c5cb"/><path d="M133.1,128.4c.12-.24.49-.43.59-.67a.5.5,0,0,1,.07-.13s-.15-.06-.15-.09c0-.41.4-.68.79-.86a5,5,0,0,0,.7-.51c.24-.17.34-.49.57-.67a7.85,7.85,0,0,1,.76-.42,3.75,3.75,0,0,1,.79-.33c.11,0,.32,0,.48,0,.17-.17.43-.52.56-.55a2.83,2.83,0,0,1,.82-.21,4.07,4.07,0,0,0,.78,0c.79-.1-.56.09.26.08.25,0,.51.11.76.12s.51,0,.77,0a6.77,6.77,0,0,1,.78,0,7,7,0,0,1,.79,0,7.67,7.67,0,0,1,.72.33,7.55,7.55,0,0,1,.75.39,6.89,6.89,0,0,1,.65.54,4.69,4.69,0,0,1,1.13,1.22,6.47,6.47,0,0,1,.59.58,8.22,8.22,0,0,1,.52.65c.14.24.14.55.26.8s.28.48.38.73.41.45.46.68-.15.57-.14.82.3.54.28.79-.12.52-.15.78-.22.5-.24.77.12.51.13.78a1,1,0,0,1,0,.3,1,1,0,0,1-.12.46,6.59,6.59,0,0,1-.3.73c-.12.23-.43.35-.57.57s-.13.55-.29.75-.48.27-.66.46a7.17,7.17,0,0,1-.52.58,7.48,7.48,0,0,1-.67.41c-.21.14-.39.34-.62.47s-.41.32-.65.44-.43.32-.68.42-.63-.08-.9,0a7.92,7.92,0,0,1-.78.37,8,8,0,0,1-.85,0c-.28,0-.55.24-.84.23a8.22,8.22,0,0,1-.86,0c-.27,0-.54-.21-.82-.28s-.56-.11-.84-.21a8.27,8.27,0,0,1-.69-.46,7.12,7.12,0,0,1-.64-.48,7.84,7.84,0,0,1-.69-.41,6.11,6.11,0,0,1-.56-.58,7.68,7.68,0,0,1-.55-.59c-.17-.21-.19-.51-.33-.74s-.43-.38-.55-.62-.22-.5-.32-.75-.33-.46-.42-.71,0-.56-.11-.81-.19-.49-.26-.69a6.72,6.72,0,0,1-.25-.69c0-.21.1-.44.14-.74s.07-.42.14-.71.05-.53.13-.8.31-.47.4-.72S133,128.63,133.1,128.4Z" style="fill:#f2c5cb"/><path d="M144.12,155s0,.07.06.12a3.12,3.12,0,0,0-.49.81c-.1.26-.27.52-.4.87-.06.19.44.51.34,1,0,.21-.58.37-.66.73s.15.54.1.83-.66.44-.7.71.1.58.08.85-.09.57-.09.83.73.45.79.68-.22.49-.11.69.63.38.66.56c.1.53-.2.5-.09.4,0,.06.32.41.26.52-.19.32-.53.43-.45.75s.4.31.71.52a3.45,3.45,0,0,1-.2.32,2,2,0,0,0,.23.74,3,3,0,0,0,.45.66c.18.16.67,0,.88.12s.27.48.46.65.06.6.22.81a2.73,2.73,0,0,1,.36.58c.1.23.28.77.49.88s.7-.26.93-.22.42.27.73.53.9.16,1,.41.09.63.35.74.6.41.9.37.18.2.46.4.84-.22,1.06,0,.14.8.35.93.67-.23.86-.15.31.44.53.51.43.07.67.15.63.36.62.31-.07-.42,0-.39.28.06.53.07a.74.74,0,0,0,.5-.14c.31-.18.37.65.57.77s.42.07.69.25.64-.18.85-.17a1.5,1.5,0,0,0,.7,0c.21-.1.65-.07.8-.25,0,0-.23-.68-.2-.71.29,0,.5.89.77.92s.58-.38.87-.32.34.59.64.7a2.56,2.56,0,0,0,1,0c.24,0,.48-.53.63-.69s.34-.38.56-.6c0,0,0,.43,0,.43s.51-.56.83-.46.54.65.78.66.55-.63.86-.68.63.15.92.07.6.1.88,0c0,.05-.46-.1-.44-.05.08.24.77.16.92.31s.37,0,.6,0,.34.74.58.71c-.34,0-.14.38.31.66s.8.29.91.39.91,0,1.05.13-.33.88-.16,1c0,.24.31.37.41.58s.07.76.27.89.66-.36.92-.34c0,0,.1.73.52,1,.23.13.9-.34,1.14-.15a4.09,4.09,0,0,1,.73.63c.13.18-.1.72.1.86a1.64,1.64,0,0,0,.8.35c.38,0,.69-.69.94-.62s.19,1.08.57,1.16c.56.13.9-.57.94-.62s.3.17.52.44.1.55.32.62.46-.32.66-.36c0,0-.35.68-.33.71a2.21,2.21,0,0,0,1.21.55c.33,0,.71-.39,1-.55.24.11.53.45.79.43s.17-.84.38-1,1-.14,1.24,0a8.74,8.74,0,0,1,.81.54c.25.14.45.76.69.76s.46-.85.68-1c.18.1.44.38.65.38s.55.23.72.13a3,3,0,0,0,.78-.27c.05,0-.11-.14,0-.1.28.12.49-.46.74-.55s.65.12.81-.1c.24,0,.25-.5.45-.59s.9.46,1,.27-.17-.66-.13-.89c.07,0,.22.21.29.22.31.05.48-.34.69-.5s.77,0,.87-.24c.22,0,.3-.26.48-.4s-.05-.54,0-.77.07-.72.12-.89a1.83,1.83,0,0,0,.76-.44c.2-.18.44-.19.64-.52.11-.17.41-.22.36-.46.23-.06.72,0,.83-.11a6.34,6.34,0,0,0,.53-.62c.19-.22,0-.66.07-.88s.78-.35.81-.64-.26-.52-.25-.82c0-.64-.6-.53-.68-.61s.49,0,1-.57a2.1,2.1,0,0,0,.34-.93,1.46,1.46,0,0,0-.13-.81c.15-.22-.22-.5-.21-.76s-.23-.49-.4-.72a1.28,1.28,0,0,0-.08-1.09c.22-.3.83-.51.68-.89-.29.1-.12-.06.2-.35a1.53,1.53,0,0,0,.25-.9c0-.29,0-.93-.19-1.11s-.84.08-1-.18a4.49,4.49,0,0,1-.38-.76,3.3,3.3,0,0,1,0-1,.91.91,0,0,0,.17-.64c0-.27.41-.81.2-1,0,0,.1.23.08.21,0-.3,0-.66,0-.91s-.56-.31-.68-.52a.72.72,0,0,0-.36-.35s0-.29,0-.29c0-.23-.16-.33-.27-.52s.11-.68-.08-.82c-.57-.41-.09.4.11-.21.07-.22.56-.6.5-.83s-.46-.5-.62-.67-.73.25-1,.19c0,0-.36-.56-.35-.59.08-.24,1.12-.45,1.06-.66a2.79,2.79,0,0,0-.53-.77c-.16-.15-.63,0-.84-.14,0,0,0,.08,0,0a1,1,0,0,0-.18-.84,1.51,1.51,0,0,0-.53-.67,1,1,0,0,0-.21-.67,1.82,1.82,0,0,0-.56-.43c0-.11-.44-.32-.41-.43,0-.27.42-.4.34-.64s-.41-.18-.63-.34a1.68,1.68,0,0,0-.81-.16c-.09-.27.31-1.11.13-1.33a5.27,5.27,0,0,0-.71-.54c-.2-.17-.22-.35-.46-.52,0-.36-.74-.41-.83-.68s.3-.84,0-1.06-.8,0-1.13-.08c-.11-.25.44-1,.32-1.19s-.5-.38-.66-.56-.57-.19-.78-.32-.5-.07-.75-.14-.14-.63-.41-.65c-.16-.3-.33-.37-.54-.64s-.91.1-1.22-.13-.23-.1-.46-.13-.31-.81-.53-.87-.6.24-.74,0-.13-.82-.4-.95-.67.29-1,.38-.45-.58-.77-.66-.65.3-.92.19-.74.29-1,.21.12-.83.05-.85-.29-.45-.47-.54-.61,0-.87-.1a7.09,7.09,0,0,0-.8,0c-.26,0-.53.14-.78.13s-.48-.25-.72-.3-.59.07-.77-.1-.47.08-.69,0-.3-.39-.54-.33-.6-.37-1-.37-.78.32-1,.26c-.33-.11-.69.22-1,.37-.25-.14-.54-.84-.81-.83a1.7,1.7,0,0,0-.8.45c-.23,0-.37.19-.64.23s-.38.53-.67.55-.61-.23-.94-.16a4.86,4.86,0,0,1-1,.18c-.1,0,0-.78-.06-.77s-.12.27-.18.22-.54.31-.78.3-.5-.41-.71-.32,0,.51-.15.71-.39.66-1.37.47a1.31,1.31,0,0,0-.68,0c-.27.08-.62-.1-.78.17-.05.09-.35-.31-.4-.22-.25.07-.2.9-.43.93s-.42-.51-.66-.61a1.84,1.84,0,0,0-1.15.2c-.32.14-.76.21-.85.51a1.4,1.4,0,0,0-.71.15c-.25.11-.29.75-.49,1-.39,0-1-.23-1.23.06s-.22.69-.39.9a1.59,1.59,0,0,0-.89.12c-.29.13-.68,0-.78.36-.37.05-.27.56-.46.87s-.68.26-.74.44c-.13.36-.21.05-.47.11a1,1,0,0,1-.62.12,2.08,2.08,0,0,0-1,.31,1.6,1.6,0,0,0-.55.89c-.05.28.63.54.62.69,0,.37-.48.34-.79.32s-.27.49-.48.59-.6-.16-.7,0,0,.62-.07.79a6.77,6.77,0,0,1-.41.66c-.15.19-.48.21-.71.38s-.56-.05-.81.12-.26.61-.44.78-.8.15-.93.37.54.78.5,1.05a2.62,2.62,0,0,0-.1.8c-.12.07-.5.09-.61.16s0,.54-.12.76-.54.27-.51.55c0,0-.37-.39-.39-.38-.18.13-.21.69-.28.92A1.31,1.31,0,0,0,144.12,155Zm36.27-15.19c-.06,0-.14,0-.19-.06C180.39,139.85,180.61,139.9,180.39,139.81Z" style="fill:#f2c5cb"/><path d="M54.6,241a8.08,8.08,0,0,0,.75.49,4.56,4.56,0,0,0,.55.5c.21.11.51.07.74.17s.39.37.62.44.53-.08.76,0,.57.06.86.1.56.21.85.22a8.63,8.63,0,0,0,.88,0c.28,0,.54-.26.84-.31s.62.15.91.06.48-.37.75-.49a4.82,4.82,0,0,0,.73-.43,6.79,6.79,0,0,0,.75-.41,6.78,6.78,0,0,0,.53-.67c.2-.21.57-.27.74-.49s.34-.48.49-.71.23-.54.37-.79.35-.46.47-.71,0-.63.15-.88.26-.46.34-.67a5.09,5.09,0,0,0,.22-.72c0-.28.23-.51.23-.76s-.25-.46-.27-.74,0-.48,0-.77.09-.47.1-.76a1.1,1.1,0,0,0-.19-.74c-.14-.24-.33-.46-.48-.71s-.45-.41-.61-.65-.22-.56-.4-.79-.47-.36-.66-.58-.2-.61-.41-.81a6.78,6.78,0,0,0-.76-.47,2.55,2.55,0,0,0-.62-.37c-.23-.08-.51-.07-.73-.13a4.16,4.16,0,0,1-.54-.22c-.26-.15-.49-.26-.76-.39a2.62,2.62,0,0,0-.86-.12,3.94,3.94,0,0,0-.92,0,7.17,7.17,0,0,0-.9.18c-.29.06-.6.09-.92.15,0,0,.26-.25-.42-.08-.27.07-.61,0-.92.11a2.92,2.92,0,0,0-.89.31c-.23.13-.39.38-.62.54s-.55.18-.75.36a8,8,0,0,0-.54.62c-.19.19-.26.5-.44.7s-.51.3-.66.52a5.66,5.66,0,0,0-.41.71,7,7,0,0,0-.35.74c-.1.25-.06.55-.14.8s-.11.52-.18.77-.08.52-.12.78-.18.51-.2.77-.09.54-.08.8a7,7,0,0,0,.07.8,7.4,7.4,0,0,0,.08.81c.07.25.36.44.46.68A12.42,12.42,0,0,0,53,239.1a7.13,7.13,0,0,0,.53.58c.19.17.27.49.49.65a6.58,6.58,0,0,0,.67.46C55.38,241.23,53.81,240.23,54.6,241Z" style="fill:#f2c5cb"/><path d="M89.08,231.39a5.46,5.46,0,0,0,1,.29c-.11,0,.42.44.75.55s.49.18.77.25.55-.06.82,0,.52.21.79.23a7.19,7.19,0,0,0,.81-.05c.28,0,.57.13.82.09a5.61,5.61,0,0,0,.79-.26,6.47,6.47,0,0,0,.77-.3c.25-.12.38-.43.62-.58s.5-.22.72-.39a8,8,0,0,0,.53-.63,8.11,8.11,0,0,0,.65-.51c.18-.21.26-.49.42-.7s.41-.39.55-.62a8.15,8.15,0,0,0,.33-.75c.17-.34.41-.51.52-.73a2.24,2.24,0,0,0,.28-.84,6.2,6.2,0,0,0,.08-.89c0-.27-.1-.56-.08-.85s.12-.55.13-.82a5.21,5.21,0,0,0,.11-.85c0-.19-.17-.38-.18-.56s.06-.13,0-.17-.12,0-.11-.06a1,1,0,0,0-.32-1.13,4.19,4.19,0,0,1-.69-.53c-.18-.23-.25-.53-.41-.77a6.93,6.93,0,0,0-.43-.75,3.36,3.36,0,0,0-.6-.65c-.08-.06-.31.07-.43,0-.28-.29-.29-.66-.68-.92-.14-.09-.43,0-.66-.14s-.44-.25-.58-.3c-.3-.1-.59-.18-.88-.26s-.55-.24-.87-.3-.54.1-.79.07-.51,0-.77,0a6.3,6.3,0,0,0-.75.05c-.26,0-.55-.2-.81-.14s-.48.18-.74.26-.43.28-.68.38a7.65,7.65,0,0,0-.74.3c-.24.12-.51.18-.74.32s-.32.47-.53.63-.57.15-.77.33a8,8,0,0,0-.48.66c-.18.19-.47.32-.62.53a7.28,7.28,0,0,0-.44.69,4.39,4.39,0,0,0-.24.78,4.45,4.45,0,0,0-.19.82c0,.28-.18.55-.21.82s.11.59,0,.85a2.27,2.27,0,0,0-.19.72c0,.24.24.45.29.69s0,.48.05.73a3,3,0,0,1-.06.71,1.23,1.23,0,0,0,0,.52c0,.27.32.47.44.73a4.87,4.87,0,0,0,.47.68,6.75,6.75,0,0,0,.45.69c.18.21.26.52.46.71s.45.34.67.51.56.18.78.33S88.85,231.29,89.08,231.39Zm9-13a.36.36,0,0,1-.12-.08C97.72,218.09,97.87,218.22,98.05,218.35Z" style="fill:#f2c5cb"/><path d="M51.6,263.35l.06,0a1.1,1.1,0,0,0-.36-.52,1.35,1.35,0,0,1-.39-.6,4.82,4.82,0,0,1-.31-.7c-.06-.24-.3-.39-.43-.61s-.17-.54-.37-.71-.47-.24-.68-.41c-.53-.42-.4-.1-.43-.12-.24-.21-.46-.39-.67-.54a5,5,0,0,0-.67-.51,4.57,4.57,0,0,0-.77-.37c-.25-.08-.55,0-.87-.05s-.51-.15-.83-.2c-.68-.12.57-.11-.37-.25-.24,0-.52,0-.79-.08a3.78,3.78,0,0,0-.78-.14,7.5,7.5,0,0,0-.75.26c-.24.06-.56-.06-.81,0s-.43.35-.67.44-.53.12-.75.21-.48.3-.72.43a8.22,8.22,0,0,0-.65.52c-.22.17-.53.24-.73.43s-.27.51-.45.72a8.09,8.09,0,0,0-.46.68,7.25,7.25,0,0,0-.46.67c-.14.25-.35.45-.47.69s-.09.56-.19.82-.26.52-.33.78a7,7,0,0,0-.2.82,4.87,4.87,0,0,0,0,.85,7.48,7.48,0,0,0,.19.83c0,.26,0,.55.06.85s0,.7.06.92a3.6,3.6,0,0,0,.47.78c.15.2.56.25.76.55-.38-.58-.32.36-.18.56a8.65,8.65,0,0,0,.73.75c.18.19.57.17.78.35s.37.38.59.54.47.25.7.4.44.29.69.41.46.27.71.37.44.4.7.48.56,0,.82.08a7.86,7.86,0,0,0,.8.21c.27,0,.56.05.83.05a8.09,8.09,0,0,0,1.61-.38,7.76,7.76,0,0,0,.79-.22,7,7,0,0,0,.76-.33c.25-.14.38-.44.6-.59s.43-.32.63-.49a8,8,0,0,0,.64-.51c.18-.19.47-.3.65-.51s.27-.48.45-.7.34-.34.47-.52.07-.47.18-.7c.25-.5.15-.67.11-.57.08-.23.18-.47.27-.71s.36-.42.44-.66.23-.48.28-.73.06-.52.09-.77a6.65,6.65,0,0,0-.06-.78c0-.26-.19-.48-.24-.73A3.67,3.67,0,0,0,51.6,263.35Z" style="fill:#f2c5cb"/><path d="M126.63,239.86c-.11-.24-.15-.59-.24-.83l-.06-.12s-.13,0-.13-.08a1,1,0,0,0-.51-1,4.54,4.54,0,0,1-.77-.36c-.23-.17-.56-.22-.78-.4s-.35-.47-.59-.63a3.9,3.9,0,0,0-.71-.49,1,1,0,0,0-.4-.12,1.84,1.84,0,0,0-.68-.35c-.28-.07-.55.11-.81.14a4.07,4.07,0,0,1-.85,0c-.79-.09.6-.29-.22-.3-.25,0-.51-.12-.77-.12s-.52.07-.78.09-.49.18-.75.22a7.17,7.17,0,0,0-.71.3,4.56,4.56,0,0,0-.72.21c-.26.12-.5.24-.74.38s-.52.21-.74.37a7.09,7.09,0,0,0-.69.49,5.7,5.7,0,0,0-.67.52c-.19.21-.3.49-.47.71s-.27.49-.41.73-.42.41-.54.66-.21.53-.31.78,0,.58,0,.82-.35.5-.37.75.28.53.3.78,0,.52,0,.78-.1.53-.08.8.18.51.18.79a.82.82,0,0,0,.15.66,6.58,6.58,0,0,0,.32.72c.11.23.05.57.19.78s.46.32.62.53.19.52.38.71.42.31.62.48a7.41,7.41,0,0,0,.58.54c.21.15.48.23.7.37s.49.18.73.29.51.11.76.21.43.5.7.58a8.27,8.27,0,0,0,.87.08,6,6,0,0,0,.82.26c.28,0,.58-.16.86-.17s.54-.11.83-.15a6.29,6.29,0,0,0,.85-.06,5.52,5.52,0,0,0,.79-.3,6.24,6.24,0,0,0,.8-.19,7.6,7.6,0,0,0,.76-.35,8.11,8.11,0,0,0,.58-.59,7.81,7.81,0,0,0,.59-.56c.18-.2.32-.45.48-.66s.44-.37.58-.6.12-.56.24-.8.26-.48.36-.72a7.49,7.49,0,0,0,.15-.8c.09-.27.3-.48.37-.73s.1-.52.17-.72a4.44,4.44,0,0,0,.15-.7c0-.21.18-.41.14-.7s-.1-.43-.17-.72-.23-.48-.31-.75,0-.57-.1-.82S126.74,240.09,126.63,239.86Z" style="fill:#f2c5cb"/><path d="M115.49,265.05s0,0-.06,0a1.47,1.47,0,0,0-.08-.79,1.5,1.5,0,0,0-.53-.65c-.11-.07-.72.07-.83,0,0-.29.51-.65.47-.91s-.36-.41-.5-.65.14-.8-.07-1-.54-.23-.79-.4-.4-.34-.56-.46-.89.18-1,0,.07-.59-.07-.87-.56-.21-.69-.47.1-.5-.12-.6-.4.24-.62.25-.4-.46-.42-.83c0-.15-.3-.3-.35-.58s.13-.57-.12-.74a1.38,1.38,0,0,0-.84-.27,1.74,1.74,0,0,1-.72-.05c-.26,0-.58,0-.71-.35-.06-.18,0-.46-.12-.74s-.27-.79-.63-.85a1.28,1.28,0,0,0-.71-.68c-.27-.12-.53-.42-.85-.38-.16-.21-.47.08-.66-.13a1.32,1.32,0,0,0-1.11-.41c-.2-.23-.6.08-.85,0s-.39-.46-.69-.45c-.09-.29-.25-.79-.57-.93a2.15,2.15,0,0,0-1.24-.23c-.25.1-.35.75-.6.71s-.3-.61-.55-.68c-.06-.09-.44.22-.49.13-.17-.27-.2-.61-.47-.69a2,2,0,0,0-.87,0c-1,.19-.45-.14-.61-.45s-.74,0-1-.06a1.13,1.13,0,0,0-.58,0,.55.55,0,0,0-.44.18c-.06.05-.49-.74-.54-.7s0,.15-.06.16c-.33,0-.66.39-1,.33a7.16,7.16,0,0,0-.93-.3c-.29,0-.47-.35-.65-.37s-.62.67-.84.7c-.24-.17-.37-1.08-.64-1.09s-.56.5-.81.64c-.31-.15-.85-.66-1.19-.55a2.25,2.25,0,0,1-.79.08c-.39,0-.74.33-.92.28a1.66,1.66,0,0,0-.8,0c-.22.08-.77,0-.94.13s0,.77-.27.83-.53-.42-.8-.41-.49.61-.75.62-.54-.23-.79-.19-.65-.1-.87,0a2.47,2.47,0,0,0-.61.35c-.07,0,.19.58,0,.64s-.4.45-.69.56-.65,0-.91.06-.56-.42-.79-.49a1.94,1.94,0,0,0-1,.25c-.27.13,0,.76-.14,1s-.85-.2-1.05-.14-.37.33-.61.36-.7-.24-.9-.09-.14.91-.32,1.13-.77,0-.93.32c-.27,0-.15.71-.37.78a1.85,1.85,0,0,0-.57.36c-.21.13-.73-.12-.9.07s-.44.35-.57.58.31.91.2,1.16c-.33.12-1.23-.46-1.44-.28s.06.93,0,1.23a3.16,3.16,0,0,0,0,1c-.24.18-.78.18-1,.35s-.1.66-.27.87-.88-.14-1,.13a1.26,1.26,0,0,0-.69.31c-.22.16-.22.7-.3.95s-.38.64-.33.9.75.4.77.51c-.21.11-.57.11-.71.29a.89.89,0,0,0-.28.6c-.26.16-1,.11-1.11.36s.52.65.64.95c0,.05-.21.26-.19.29-.22.09-.61,0-.76.15s-.54.4-.6.62.16.61.23.84c0,0,.37.39.38.43-.23.06-.61-.21-.76,0s.24.53.18.74-.91.43-.84.65c.19.6,1.21,0,.64.41-.2.14-.55.13-.65.31s.15.49.15.72c0,0-.4-.33-.41-.32-.2.1-.35.51-.47.72s.25.52.26.73.32.64.34.94c0,0-.09.39-.11.41-.21.23-.37.17-.4.43s-.35.54-.21.8a1.48,1.48,0,0,0-.4.68,3,3,0,0,1-.18.7c-.11.26.09.7-.09.85s-.94.33-1,.62.4.8.55,1c.32.29.66.5.37.4-.15.38-.57.53-.35.83-.17.35,0,.68.18,1a1.14,1.14,0,0,0-.17.75c0,.26.56.48.72.71-.11.25,0,.46.07.71s.14.19.33.38c.56.54.34,1.06.26,1.14a.62.62,0,0,0-.44.72c0,.29,0,.56,0,.78s-.22.69-.13.91.84.1,1,.32.39.24.61.45a1.91,1.91,0,0,0,.63.44,1.13,1.13,0,0,0,0,.68c.21.33-.07,1,.13,1.17a2.12,2.12,0,0,0,.86.46c0,.18.08.05.12.26s.61.14.79.29a1.78,1.78,0,0,0,.66.29c.1.26.11.64.33.81s.36.08.67,0c.07,0,0,.36,0,.34,0,.23.33.35.47.54s.12.81.33.9.51-.07.75-.11c.17.22.65-.21.91-.11s.21-.07.49-.19c.11,0,.18.93.22.9l.71.39c.17.1.63-.15.85-.15a1.47,1.47,0,0,0,.6-.23,1.33,1.33,0,0,0,.74.09,1.31,1.31,0,0,0,.74-.12c.3-.16.58-.34.83-.44a.71.71,0,0,1,.86.12c.21.19.5-.18.75-.16s.5.36.74.25c.26.16.57-.08.89-.1s.24-.08.45-.35c0,0,.44.56.45.54a1.67,1.67,0,0,0,.72-.2c.22-.07.62-.13.75-.28s-.07-1.08,0-1.15.4.72,1,.59c.38-.08.48-.64.69-.7s.5.71.89.74c.24,0,.68-.33.88-.47s.24-.55.37-.73.24-.58.47-.76.83.17,1.06,0a1.63,1.63,0,0,0,.54-.47c.27,0,.26-.78.45-.9s.19-.16.3-.37.88-.1.87-.35c.18-.15-.12-.58.09-.82s.63,0,.86-.24.19-.72.54-.94,1-.87.64-.9c.24,0,.43.44.64.38s0-.56.2-.72.94.14,1-.1c0-.05-.28.2-.27.16.28.08.57,0,.86.06s.61.08.9.13a5.29,5.29,0,0,0,.9-.07,3.25,3.25,0,0,0,.89,0c.32-.09.56-.44.75-.44s.39-.27.43-.27c.22.22.27.79.36.89s.22.67.46.71.54-.31.75-.38.51-.46.75-.51.66.53.93.5.51-.22.8-.26c0,0,.09-.12.11-.09s.54-.11.74,0,.19.41.42.4.28-.1.5-.24.86.36,1,.26,0-.42.33-.24.52-.38.77-.39.56.37.73.23.27-.4.3-.42-.3,0,0-.12.47-.1.67-.17.53.2.75.11.66.27.88.14,0-1,.21-1.18.79.09,1-.06.33-.42.56-.39.77.22,1,.11a2.27,2.27,0,0,0,.77-.77c.14-.25,0-.81.25-1a1.68,1.68,0,0,1,1-.24c.23,0,.35-.39.56-.5a.63.63,0,0,0,.37-.38c.1-.25.54-.31.68-.51s0-.78.14-.95.72,0,.92-.11.73,0,.91-.13a3.42,3.42,0,0,0,.44-.77,2.62,2.62,0,0,0,.28-.83s-.16.12-.15.11c.31-.21-.08-.79,0-1.1s.53-.57.35-.89c-.07-.12.08-.56,0-.62.11.1.08.55.18,0,0-.18-.12-.53,0-.76a2.29,2.29,0,0,0,.25-.53c.06-.24.29-.44.3-.74s.35-.55.32-.83-.38-.51-.42-.77.4-.64.36-.89-.93-.4-1-.63,0-.64-.08-.85c-.11-.45.1-.68,0-.88s-.66-.46-.76-.72.16-.73,0-1c0,0,.55.06.57,0s-.22-.68-.29-.91S115.67,265.17,115.49,265.05Zm-35.68-14c-.06,0-.14,0-.2.06S79.62,251.2,79.81,251.09Z" style="fill:#f2c5cb"/><path d="M205.28,325.83a7.27,7.27,0,0,1-.64.61,4.65,4.65,0,0,1-.67.29c-.2.12-.34.38-.57.48s-.52,0-.75.08-.42.35-.65.39-.57.12-.86.15-.59-.09-.88-.08a8.27,8.27,0,0,1-.86-.05c-.28,0-.6.16-.89.11s-.49-.39-.78-.48-.6,0-.88-.12a5.51,5.51,0,0,1-.78-.36,7,7,0,0,1-.63-.59,6.85,6.85,0,0,1-.7-.5c-.2-.2-.2-.58-.38-.8s-.35-.44-.5-.67a8.17,8.17,0,0,1-.52-.68c-.15-.25-.21-.54-.33-.79s-.46-.42-.57-.67-.15-.52-.23-.73a5.71,5.71,0,0,1-.18-.75c-.05-.28.1-.52.1-.76s-.19-.49-.17-.77.1-.46.11-.75a7.56,7.56,0,0,0,.07-.77.75.75,0,0,1,.27-.59c.13-.25.22-.54.38-.8s.15-.59.31-.83.43-.42.6-.66.24-.56.43-.78.58-.27.78-.47.35-.49.58-.67a6,6,0,0,1,.69-.23c.23-.08.45-.26.67-.32.44-.12.81,0,.64.1.27-.16.48-.37.74-.5a2,2,0,0,1,.8-.37,4.49,4.49,0,0,1,.95-.06,7.09,7.09,0,0,1,.94.14c.3.06.58.19.9.25,0,0-.3,0,.38.15.26.06.57.2.88.27a2.86,2.86,0,0,1,.84.27,8.15,8.15,0,0,1,.75.33c.21.16.31.47.51.65a7.79,7.79,0,0,1,.65.48c.19.19.49.29.66.5s.18.55.34.77a7.11,7.11,0,0,1,.47.65,5.93,5.93,0,0,1,.36.71c.1.25.32.45.4.7a7.84,7.84,0,0,1,.27.77c.06.26.15.52.19.78a7.48,7.48,0,0,1,0,.82,7.18,7.18,0,0,1-.06.8,6.9,6.9,0,0,1-.09.78,6,6,0,0,1-.26.75c-.08.25,0,.57-.08.81a7,7,0,0,1-.34.74,6,6,0,0,1-.49.64,5.16,5.16,0,0,1-.56.59c-.18.18-.5.2-.72.37s-.43.29-.66.43C204.5,326,206.07,325.1,205.28,325.83Z" style="fill:#f2c5cb"/><path d="M174.72,312.19a1,1,0,0,0,.07-.48,2.82,2.82,0,0,1,0-.72c0-.25.1-.48.15-.71a5.85,5.85,0,0,0,0-.73,2.13,2.13,0,0,0,.08-.71,5.19,5.19,0,0,1-.23-.82c0-.27.11-.57.07-.85a4.55,4.55,0,0,0-.24-.82,4.66,4.66,0,0,0-.31-.74c-.13-.23-.44-.34-.6-.56a2.18,2.18,0,0,0-1.06-1.15,7.43,7.43,0,0,0-.53-.59,6.85,6.85,0,0,0-.71-.37c-.23-.14-.4-.36-.64-.48a5.56,5.56,0,0,0-.75-.26c-.25-.11-.45-.3-.68-.37a7.72,7.72,0,0,0-.75-.21,6.38,6.38,0,0,0-.76-.15c-.25,0-.51.09-.77.09s-.5,0-.76,0-.52-.05-.78,0-.62.13-.9.21-.61.09-.91.2c-.14.05-.33.26-.56.35a3.28,3.28,0,0,0-.61.26c-.39.26-.4.62-.68.91-.12,0-.29,0-.37,0a3.72,3.72,0,0,0-.68.55,7,7,0,0,0-.54.68c-.16.24-.15.59-.32.82a4.24,4.24,0,0,1-.7.52,1,1,0,0,0-.21,1.13s-.06.07-.05.09,0,.09,0,.17-.26.36-.28.56.15.56.17.85.07.55.09.83a8.15,8.15,0,0,1,.07.84c0,.37-.25.68-.21.91a2.59,2.59,0,0,0,.33.87,8.35,8.35,0,0,1,.54.72c.12.23.22.49.37.73s.22.51.39.74.5.29.68.5.2.57.39.76.49.29.7.46.36.45.59.6a3.58,3.58,0,0,0,1.54.64,4.49,4.49,0,0,0,.8.21,4.8,4.8,0,0,0,.81.19c.26,0,.53-.19.81-.21s.56.09.82.05.51-.26.77-.32a7.54,7.54,0,0,0,.79-.14c.33-.12.9-.44.79-.48a5.26,5.26,0,0,0,1-.25c.23-.11.39-.41.64-.57a6.23,6.23,0,0,0,.63-.54,7.5,7.5,0,0,0,.67-.48c.2-.19.51-.29.69-.5a5.33,5.33,0,0,0,.48-.69c.16-.24.13-.57.24-.81S174.67,312.45,174.72,312.19Zm-12.65-8.92a.5.5,0,0,1-.12.08C162.13,303.22,162.28,303.09,162.07,303.27Z" style="fill:#f2c5cb"/><path d="M208.41,348.35l.07,0a.83.83,0,0,1,.32-.45,1.88,1.88,0,0,0,.54-.6,5.22,5.22,0,0,0,.14-.79c.06-.24,0-.57.09-.8s.49-.29.7-.46.36-.38.57-.54c.53-.42.34-.18.36-.2l.68-.54a6.33,6.33,0,0,1,.76-.41,4.42,4.42,0,0,1,.8-.29c.24-.08.47-.32.78-.39s.55-.06.86-.11c.68-.12-.52.12.41,0,.25,0,.5-.16.77-.2a2.94,2.94,0,0,1,.79,0,4.32,4.32,0,0,1,.8,0c.24.06.43.35.68.43s.55,0,.79.11.46.3.68.39a5.8,5.8,0,0,1,.76.33,6.51,6.51,0,0,1,.73.41c.23.17.34.46.54.66s.51.28.69.49.39.41.55.63.3.49.43.72.2.54.31.79.36.46.45.71a6,6,0,0,1,.18.86,5.07,5.07,0,0,1,.07.86,7.91,7.91,0,0,1,.06.85c0,.28,0,.57,0,.87s-.18.53-.24.83-.33.57-.43.79a3.5,3.5,0,0,1-.45.72c-.15.2-.07.58-.27.89.38-.59.07.2-.07.4s-.67.31-.91.57-.19.58-.4.76-.46.31-.68.47-.42.36-.65.5-.5.25-.74.37-.52.19-.77.29-.58,0-.84.05-.49.24-.76.29a7.27,7.27,0,0,1-.81,0c-.27,0-.52,0-.79,0a7.12,7.12,0,0,1-.8,0,7.46,7.46,0,0,1-.81-.1c-.25-.07-.49-.2-.75-.3s-.47-.24-.71-.37-.58-.12-.8-.27-.45-.33-.65-.5-.37-.42-.56-.61-.25-.5-.43-.71-.41-.35-.58-.57-.27-.41-.4-.58-.44-.25-.56-.49c-.25-.49-.19-.68-.15-.58-.08-.23-.16-.48-.25-.73s0-.54,0-.79-.05-.51-.1-.76a6.36,6.36,0,0,1-.16-.73,7.11,7.11,0,0,1-.15-.75c0-.26-.12-.54-.06-.79S208.3,348.59,208.41,348.35Z" style="fill:#f2c5cb"/><path d="M133.1,324.73c.12-.24.49-.43.59-.67a.42.42,0,0,1,.07-.12s-.15-.06-.15-.1c0-.41.4-.68.79-.85a5.08,5.08,0,0,0,.7-.52c.24-.17.34-.49.57-.67s.52-.25.76-.42a4.36,4.36,0,0,1,.79-.33c.11-.05.32,0,.48,0,.17-.17.43-.52.56-.55a2.83,2.83,0,0,1,.82-.21,3.39,3.39,0,0,0,.78,0c.79-.09-.56.09.26.08.25,0,.51.11.76.12s.51,0,.77,0a6.77,6.77,0,0,1,.78,0,5.24,5.24,0,0,1,.79,0,13.32,13.32,0,0,1,1.47.71,6.89,6.89,0,0,1,.65.54c.23.17.41.38.62.56s.32.46.51.66a8.11,8.11,0,0,1,.59.58c.17.22.37.42.52.65s.14.56.26.8a7.39,7.39,0,0,1,.38.74c.11.26.41.44.46.68s-.15.56-.14.81.3.54.28.8-.12.51-.15.78-.22.49-.24.76.12.51.13.79a1,1,0,0,1,0,.29.92.92,0,0,1-.12.46,5.88,5.88,0,0,1-.3.73c-.12.23-.43.35-.57.57s-.13.55-.29.76-.48.27-.66.45a5.8,5.8,0,0,1-.52.58,7.48,7.48,0,0,1-.67.41,7.21,7.21,0,0,1-.62.47c-.22.13-.41.32-.65.44s-.43.33-.68.43-.63-.09-.9,0-.5.31-.78.36a8,8,0,0,1-.85,0c-.28,0-.55.24-.84.23a6.17,6.17,0,0,1-.86,0c-.27,0-.54-.21-.82-.28s-.56-.11-.84-.21a5.17,5.17,0,0,1-.69-.46,7.12,7.12,0,0,1-.64-.48,7.76,7.76,0,0,1-.69-.4,6.11,6.11,0,0,1-.56-.58c-.18-.2-.39-.38-.55-.59a7.11,7.11,0,0,1-.33-.75c-.14-.23-.43-.38-.55-.62s-.22-.5-.32-.74-.33-.46-.42-.71,0-.57-.11-.82-.19-.49-.26-.68a6.81,6.81,0,0,1-.25-.7c0-.21.1-.44.14-.73s.07-.43.14-.71.05-.54.13-.81.31-.47.4-.72S133,325,133.1,324.73Z" style="fill:#f2c5cb"/><path d="M144.12,351.33c0,.05,0,.07.06.12a3.3,3.3,0,0,0-.49.81c-.1.26-.27.52-.4.87-.06.19.44.52.34,1,0,.21-.58.37-.66.73s.15.54.1.84-.66.43-.7.71.1.57.08.84-.09.57-.09.83.73.45.79.68-.22.49-.11.7.63.38.66.55c.1.53-.2.5-.09.4,0,.06.32.41.26.53-.19.32-.53.43-.45.74s.4.31.71.52c0,0-.2.32-.2.33a2.14,2.14,0,0,0,.23.74,2.9,2.9,0,0,0,.45.65c.18.16.67,0,.88.13s.27.47.46.64.06.6.22.81a3,3,0,0,1,.36.58c.1.23.28.78.49.89s.7-.27.93-.23.42.28.73.53.9.16,1,.41.09.63.35.74.6.41.9.37.18.21.46.4.84-.21,1.06,0,.14.81.35.94.67-.24.86-.15.31.43.53.5.43.08.67.16.63.36.62.31-.07-.43,0-.4.28.07.53.08a.75.75,0,0,0,.5-.15c.31-.18.37.65.57.77s.42.08.69.25.64-.17.85-.16.5.09.7,0,.65-.07.8-.25c0,0-.23-.68-.2-.71.29,0,.5.89.77.92s.58-.38.87-.31.34.59.64.69a2.55,2.55,0,0,0,1,0c.24-.05.48-.54.63-.69s.34-.39.56-.61c0,0,0,.43,0,.43s.51-.56.83-.46.54.65.78.66.55-.62.86-.67.63.14.92.06.6.1.88,0c0,0-.46-.11-.44-.06.08.24.77.16.92.32s.37,0,.6,0,.34.73.58.71c-.34,0-.14.37.31.66s.8.28.91.38.91,0,1.05.13-.33.88-.16,1c0,.25.31.38.41.59s.07.75.27.88.66-.35.92-.34c0,0,.1.74.52,1,.23.13.9-.34,1.14-.14a3.68,3.68,0,0,1,.73.62c.13.19-.1.73.1.86a1.66,1.66,0,0,0,.8.36c.38,0,.69-.7.94-.62s.19,1.07.57,1.16c.56.12.9-.58.94-.63s.3.17.52.45.1.54.32.61.46-.32.66-.36c0,0-.35.69-.33.71a2.21,2.21,0,0,0,1.21.55c.33,0,.71-.39,1-.55.24.11.53.45.79.43s.17-.83.38-1,1-.13,1.24,0,.51.38.81.55.45.75.69.75.46-.85.68-1c.18.09.44.37.65.38s.55.22.72.13a3.19,3.19,0,0,0,.78-.28c.05,0-.11-.14,0-.09.28.11.49-.46.74-.56s.65.12.81-.1c.24,0,.25-.5.45-.59s.9.46,1,.28-.17-.67-.13-.9c.07,0,.22.21.29.23.31.05.48-.34.69-.5s.77,0,.87-.24c.22-.05.3-.27.48-.41s-.05-.54,0-.77.07-.72.12-.89a1.83,1.83,0,0,0,.76-.44c.2-.18.44-.19.64-.51.11-.17.41-.23.36-.47.23-.06.72,0,.83-.11a6.34,6.34,0,0,0,.53-.61c.19-.23,0-.67.07-.89s.78-.35.81-.64-.26-.52-.25-.82c0-.63-.6-.53-.68-.6s.49,0,1-.58a2.05,2.05,0,0,0,.34-.93,1.42,1.42,0,0,0-.13-.8c.15-.23-.22-.51-.21-.76s-.23-.49-.4-.73a1.28,1.28,0,0,0-.08-1.09c.22-.3.83-.51.68-.88-.29.09-.12-.06.2-.36A1.52,1.52,0,0,0,200,362c0-.29,0-.93-.19-1.11s-.84.07-1-.19a4.49,4.49,0,0,1-.38-.76,3.23,3.23,0,0,1,0-1,.92.92,0,0,0,.17-.65c0-.26.41-.8.2-1,0,0,.1.23.08.21,0-.3,0-.67,0-.92s-.56-.31-.68-.52a.66.66,0,0,0-.36-.34s0-.29,0-.3c0-.23-.16-.32-.27-.52s.11-.68-.08-.82c-.57-.4-.09.4.11-.2.07-.22.56-.61.5-.83s-.46-.51-.62-.68-.73.25-1,.19c0,0-.36-.56-.35-.59.08-.23,1.12-.44,1.06-.65a2.7,2.7,0,0,0-.53-.78c-.16-.15-.63-.05-.84-.14,0,0,0,.08,0,0a1,1,0,0,0-.18-.84,1.57,1.57,0,0,0-.53-.67,1,1,0,0,0-.21-.67,2,2,0,0,0-.56-.43c0-.11-.44-.32-.41-.42,0-.27.42-.41.34-.65s-.41-.17-.63-.33a1.67,1.67,0,0,0-.81-.17c-.09-.26.31-1.1.13-1.33a5.25,5.25,0,0,0-.71-.53c-.2-.17-.22-.35-.46-.53,0-.35-.74-.41-.83-.68s.3-.84,0-1.05-.8,0-1.13-.09c-.11-.24.44-1,.32-1.18s-.5-.38-.66-.56-.57-.2-.78-.33-.5-.07-.75-.14-.14-.63-.41-.65c-.16-.3-.33-.37-.54-.63s-.91.09-1.22-.14-.23-.1-.46-.13-.31-.81-.53-.87-.6.25-.74,0-.13-.81-.4-.94-.67.29-1,.37-.45-.58-.77-.66-.65.3-.92.2-.74.29-1,.2.12-.83.05-.85-.29-.44-.47-.54-.61,0-.87-.1-.54,0-.8,0-.53.14-.78.13-.48-.25-.72-.3-.59.08-.77-.1-.47.08-.69,0-.3-.39-.54-.33-.6-.37-1-.37-.78.33-1,.27c-.33-.12-.69.21-1,.36-.25-.14-.54-.84-.81-.83a1.73,1.73,0,0,0-.8.46c-.23,0-.37.18-.64.22s-.38.53-.67.55-.61-.22-.94-.16a4.86,4.86,0,0,1-1,.18c-.1,0,0-.78-.06-.76s-.12.26-.18.21-.54.31-.78.3-.5-.41-.71-.32,0,.51-.15.71-.39.67-1.37.48a1.22,1.22,0,0,0-.68,0c-.27.08-.62-.09-.78.17-.05.09-.35-.3-.4-.21-.25.06-.2.89-.43.93s-.42-.51-.66-.61a1.84,1.84,0,0,0-1.15.2c-.32.14-.76.2-.85.5a1.4,1.4,0,0,0-.71.16c-.25.1-.29.74-.49,1-.39-.05-1-.23-1.23.07s-.22.69-.39.89a1.68,1.68,0,0,0-.89.12c-.29.13-.68,0-.78.36-.37.06-.27.57-.46.87s-.68.26-.74.45c-.13.35-.21.05-.47.1s-.24.18-.62.13a2,2,0,0,0-1,.3,1.63,1.63,0,0,0-.55.89c-.05.28.63.55.62.7,0,.37-.48.33-.79.32s-.27.48-.48.58-.6-.16-.7,0,0,.62-.07.8a6.43,6.43,0,0,1-.41.65c-.15.19-.48.22-.71.38s-.56-.05-.81.12-.26.61-.44.78-.8.16-.93.38.54.77.5,1a2.69,2.69,0,0,0-.1.81c-.12.06-.5.09-.61.15s0,.54-.12.76-.54.27-.51.55c0,0-.37-.39-.39-.37-.18.12-.21.68-.28.91A1.31,1.31,0,0,0,144.12,351.33Zm36.27-15.19c-.06,0-.14,0-.19-.06C180.39,336.18,180.61,336.23,180.39,336.14Z" style="fill:#f2c5cb"/><path d="M46.7,489.2c.26.23.56.33.84.54a4.14,4.14,0,0,0,.61.55c.22.13.56.08.81.19s.43.41.68.49.6-.09.85-.05.54.06.81.09.53.24.8.25.55.07.83.07.53-.25.81-.28.58.22.86.16.47-.33.74-.42a6.21,6.21,0,0,0,.75-.34,5.41,5.41,0,0,0,.8-.28c.24-.14.39-.41.6-.58s.61-.16.81-.36.38-.42.57-.63.27-.5.44-.73.39-.41.54-.65.07-.61.2-.86.33-.45.45-.7.26-.5.37-.75.4-.48.48-.72-.06-.63,0-.87a3.71,3.71,0,0,0,.14-.82c0-.26.06-.53,0-.84s0-.52,0-.84a6.58,6.58,0,0,1-.06-.83c0-.32-.25-.48-.42-.66s-.15-.56-.29-.8-.43-.38-.58-.62-.06-.61-.22-.84-.45-.36-.62-.58-.28-.48-.47-.69a6.34,6.34,0,0,0-.65-.51c-.21-.19-.31-.51-.52-.68a5.89,5.89,0,0,0-.78-.29c-.25-.09-.57,0-.82-.11-.48-.14-.87-.15-.68,0a9.12,9.12,0,0,0-.85-.48,2.29,2.29,0,0,0-.85-.31,6.12,6.12,0,0,0-.77-.15,5.08,5.08,0,0,0-.78,0c-.26,0-.51.11-.76.17s-.47.24-.73.3c0,0,.26-.35-.49-.17-.29.08-.62.23-1,.31a3.14,3.14,0,0,0-.89.47c-.22.13-.57.07-.79.23s-.39.35-.6.52-.39.35-.58.53-.26.47-.44.67-.3.42-.47.62-.28.43-.43.65-.38.37-.5.59a7.12,7.12,0,0,0-.41.67c-.11.26-.21.51-.3.77s-.27.5-.34.76.09.59.05.85,0,.54-.07.81a7.49,7.49,0,0,0-.05.81,7.31,7.31,0,0,0,0,.81c0,.27-.13.57-.07.84a7.86,7.86,0,0,0,.21.8A6.45,6.45,0,0,0,44,486c.12.25.41.39.56.62a7.25,7.25,0,0,0,.49.64c.18.2.32.43.52.62s.43.31.66.48.35.44.59.59c.44.26.17,0-.06-.11S46.31,488.83,46.7,489.2Z" style="fill:#f2c5cb"/><path d="M84.8,478.62a5.69,5.69,0,0,0,1.14.32c-.13,0,.46.48.82.61a7.12,7.12,0,0,0,.85.27c.28.06.61-.06.91,0a8.65,8.65,0,0,0,.87.25,8.69,8.69,0,0,0,.89-.05,8,8,0,0,0,.91.09,5.57,5.57,0,0,0,.79-.25,7.25,7.25,0,0,0,.78-.28c.24-.12.37-.44.61-.58s.52-.19.74-.35.34-.43.55-.61.48-.27.67-.47.28-.48.45-.68.43-.36.59-.58.23-.5.37-.72.38-.42.5-.65.27-.46.37-.64a3.7,3.7,0,0,0,.33-.66,6.19,6.19,0,0,0,0-.75c0-.2.09-.44.09-.73s.15-.6.18-.91.06-.62.07-.93a6.17,6.17,0,0,0,.08-.94c0-.22-.33-.41-.35-.62a1.49,1.49,0,0,0,0-.19s-.13-.08-.12-.11a.93.93,0,0,0,.11-.62,1.29,1.29,0,0,0-.32-.6,3.79,3.79,0,0,1-.48-.58c-.16-.19-.47-.27-.61-.48s-.13-.52-.28-.73-.42-.31-.59-.5a3.35,3.35,0,0,0-.49-.58,1,1,0,0,0-.35-.1c-.16-.17-.18-.4-.31-.55s-.38-.13-.58-.27a3.76,3.76,0,0,0-.65-.27c-.26-.1-.52-.18-.68-.23-.33-.12-.56-.5-.88-.58a9.71,9.71,0,0,0-1-.16c-.29-.05-.59.05-.87,0a8.47,8.47,0,0,0-.85-.09,8.11,8.11,0,0,0-.86-.05c-.27,0-.52.3-.8.36s-.61-.12-.89,0-.48.31-.76.42-.54.07-.78.19-.46.26-.69.4-.38.37-.59.52-.43.31-.63.48-.49.26-.67.44-.22.52-.39.72-.46.32-.61.53-.13.54-.25.76a5.8,5.8,0,0,0-.38.68,4.72,4.72,0,0,0-.29.9c0,.31-.12.61-.15.92s.11.65,0,.94a1.94,1.94,0,0,0,0,.76,5.35,5.35,0,0,0,.06.79c0,.25-.06.53,0,.81a3.9,3.9,0,0,1,.07.78c0,.21.21.34.28.49s-.11.59,0,.85a5.43,5.43,0,0,0,.46.68,6.28,6.28,0,0,0,.36.74c.17.2.49.28.68.48s.24.53.44.71.57.17.78.32a6.26,6.26,0,0,0,.68.42C84.4,478.28,84.57,478.52,84.8,478.62Zm9.9-14.41a.35.35,0,0,1-.13-.08C94.34,463.92,94.51,464.07,94.7,464.21Z" style="fill:#f2c5cb"/><path d="M43.39,513.92l.07,0a1.2,1.2,0,0,0-.4-.58,1.35,1.35,0,0,1-.43-.66,4.4,4.4,0,0,1-.34-.77c-.06-.26-.33-.43-.48-.68s-.18-.59-.41-.78-.52-.27-.75-.45c-.58-.46-.44-.12-.47-.14-.22-.18-.42-.35-.61-.49s-.39-.38-.6-.51a4.66,4.66,0,0,0-.68-.4c-.23-.09-.52,0-.8-.07s-.46-.17-.74-.23-.47-.22-.76-.27c-.75-.13.6.07-.43-.08-.27,0-.56-.19-.85-.24a3.53,3.53,0,0,0-.87.07c-.27,0-.6-.15-.9-.08s-.49.35-.77.45-.58.09-.84.2-.53.29-.77.4a7.2,7.2,0,0,0-.7.42c-.23.14-.55.15-.77.31s-.32.47-.52.65a6.09,6.09,0,0,0-.54.6,6.09,6.09,0,0,0-.54.6,8,8,0,0,0-.56.6c-.15.23-.15.53-.28.77a7.26,7.26,0,0,0-.45.68c-.12.25-.29.47-.39.72s-.12.52-.19.76a5.16,5.16,0,0,0,0,.78,6.85,6.85,0,0,0-.16.76c0,.26-.21.53-.18.79s.05.52.09.79.08.51.13.79.29.47.36.67A4,4,0,0,0,26,520c.12.19.52.19.68.41s0,.53.19.77c-.42-.64,0,.15.18.36s.59.45.87.74a7.65,7.65,0,0,0,.55.6c.21.18.27.56.5.72s.52.23.76.38.42.39.67.52l.75.39c.26.1.56.14.82.23s.56.09.83.16.54.16.81.2a8,8,0,0,0,.84.11c.27,0,.55-.2.83-.21s.54-.06.82-.1a7.72,7.72,0,0,0,.82-.12,8.13,8.13,0,0,0,.84-.13c.25-.11.47-.32.72-.46s.47-.21.68-.34.27-.49.46-.64.37-.33.55-.5.35-.33.52-.52.51-.21.67-.4.4-.33.56-.53.3-.44.45-.64a5.5,5.5,0,0,0,.32-.72c.27-.55,0-.81,0-.7.09-.26.29-.49.38-.76s.35-.48.43-.75,0-.58.07-.86a8.3,8.3,0,0,0,.12-.83,5.87,5.87,0,0,0,0-.84,4.72,4.72,0,0,0,0-.84A3.4,3.4,0,0,0,43.39,513.92Z" style="fill:#f2c5cb"/><path d="M126.28,488c-.13-.27-.17-.65-.27-.91,0-.06,0-.1-.06-.13s-.15-.06-.14-.1c0-.23.13-.5,0-.68a1.46,1.46,0,0,0-.6-.37c-.24-.11-.56-.08-.76-.22s-.33-.42-.52-.58-.33-.4-.53-.55a7.15,7.15,0,0,0-.57-.53,4.12,4.12,0,0,0-.75-.24c-.13-.06-.39.11-.57.11a1.93,1.93,0,0,0-.66-.45,2.8,2.8,0,0,0-.86-.25,4.41,4.41,0,0,1-.88-.11c-.87-.1.63,0-.28-.06-.28,0-.56.13-.85.13s-.55.17-.83.19a7.75,7.75,0,0,0-.84,0,6.12,6.12,0,0,0-.82.2,6.2,6.2,0,0,0-.83.19c-.25.11-.52.19-.76.32s-.54.19-.76.34a8.28,8.28,0,0,0-.6.58c-.21.18-.37.42-.56.61s-.51.29-.68.5-.31.47-.47.69-.09.59-.22.83-.52.34-.64.59.06.62,0,.87a7.06,7.06,0,0,0-.33.79,6.57,6.57,0,0,0-.3.84,6.72,6.72,0,0,0,.18.87c0,.28.05.56.09.85s.09.57.12.87a8.34,8.34,0,0,1,0,.88c0,.1-.25.21-.23.32s.28.29.36.42,0,.57.12.81.31.43.44.65.21.49.37.7.38.36.55.56.42.31.61.49.46.24.67.4.22.58.44.73.52.13.75.26.39.38.63.49.56,0,.81.11.53.12.79.2.49.29.75.35.54.06.81.1a4.65,4.65,0,0,0,1.64.31,8.19,8.19,0,0,0,.81-.23,6.24,6.24,0,0,0,.82-.16c.25-.07.5-.21.77-.3s.58-.06.82-.18.39-.43.62-.58a7.92,7.92,0,0,0,.67-.46c.21-.18.29-.47.48-.66s.48-.3.65-.51a7.91,7.91,0,0,0,.44-.68,6.94,6.94,0,0,0,.38-.71c.14-.24.41-.4.52-.64s.22-.51.32-.76.1-.54.18-.8.33-.47.4-.72.08-.58.15-.8a6.56,6.56,0,0,0,.3-.76,2.79,2.79,0,0,0,0-.82,6.35,6.35,0,0,0-.11-.81c-.08-.27-.25-.54-.34-.83s-.38-.51-.48-.79S126.4,488.22,126.28,488Z" style="fill:#f2c5cb"/><path d="M114,515.8s0,0-.06,0a1.71,1.71,0,0,0-.09-.88,1.74,1.74,0,0,0-.59-.71c-.12-.08-.79.08-.92,0,0-.32.57-.72.52-1s-.39-.46-.55-.72.15-.88-.08-1.1-.6-.26-.87-.44-.44-.39-.62-.51-1,.19-1.15,0,.08-.66-.08-1-.61-.23-.76-.52.11-.55-.13-.67-.44.27-.68.28-.44-.5-.47-.91c0-.17-.33-.33-.38-.64s.14-.63-.14-.82a1.51,1.51,0,0,0-.92-.3,1.71,1.71,0,0,1-.8-.06c-.29-.05-.65,0-.78-.38-.07-.2,0-.51-.14-.82s-.33-.9-.73-1a1,1,0,0,0-.38-.51c-.17-.14-.46-.59-.69-.64s-.55.49-.78.53c-.19-.23-.28-.51-.48-.75s-.57.23-.79.18-.36-.41-.57-.38c-.22-.26-.35-.71-.63-.83s-.45-.33-.78-.32c-.07-.22-.62.23-.82.08s-.21-.78-.45-.83-.47.52-.69.61-.62-.19-.89-.23a7.62,7.62,0,0,1-.81-.14c-.06-.1.25-.41.19-.51-.18-.29-.89,0-1.19-.08a1.48,1.48,0,0,0-.8.08c-.31.06-.58.15-.71.15-.35,0,.26-.85.13-1.09s-.71-.47-1-.58-.66.29-.92.3-.58-.06-.78.09-.18-.24-.23-.19,0,.79-.11.79-.41-.94-.64-1-.55.39-.78.35-.45-.64-.68-.65-.51,0-.72,0-.53.31-.78.35a1.66,1.66,0,0,0-.89-.34c-.29,0-.6-.37-.87-.21-.34-.16-.72.51-1.1.64-.14.05-.46-.47-.75-.46s-.48.67-.71.66-.53-.33-.67-.37-.67-.32-.91-.23a3.11,3.11,0,0,0-.92.37c-.2.2,0,.87-.35.94s-.57.39-.87.4-.57-.23-.86-.22-.65-.58-.92-.53a3.2,3.2,0,0,0-.83.46c-.2.11.08.9-.09,1.07-.07,0-.65-.7-.81-.64s-.45.51-.76.63-.71-.22-1-.15-.6.77-.84.69-.85-.71-1.15-.57-.08,1-.23,1.29a1.77,1.77,0,0,1-.72.7c-.24.07-.64-.51-.9-.48a2,2,0,0,0-.89.19c-.22.16.14.91,0,1.06s-1.16-.26-1.28-.07.34.85.22,1.07a3.89,3.89,0,0,0-.81.31c-.28.08-.67-.19-.9-.05s-.11.66-.3.87-1.09-.09-1.24.16-.11.41-.23.68c-.26.1-.23.46-.43.59s-.71.2-.85.41.6.78.54,1.05-.32.51-.3.8c-.26.19-.62.38-.84.57s-1,0-1.13.25.26,1.1.16,1.4c-.32,0-.75-.08-1,.09s-.69.27-.78.54a2.59,2.59,0,0,0-.27,1c0,.11.33,0,.34.11-.22.13.08.71-.07.91s-.65.16-.63.44c-.29.17,0,.69-.13,1s-1.08.48-1,.82c0,.06.49.06.52.1-.24.09-.65,0-.82.17s0,.58-.06.82-.68.55-.6.81c0,0,.33-.25.34-.21-.25.06-.17.6-.35.78s0,.35-.09.59,0,.19.09.43c.21.67.54.51-.08,1-.22.16-.66,0-.77.2s-.52.46-.52.71c0,0,.19-.26.17-.25-.21.11-.13.66-.25.88s-.9.46-.88.7.46.66.49,1c0,0,.47.26.44.29-.23.25-1.08.26-1.11.55a2.52,2.52,0,0,0,.41,1.09,3.59,3.59,0,0,1-.1.66c-.06.26.35.72.23,1a3.15,3.15,0,0,1-.44,1c-.25.2-.09.2-.12.52s-.41.5-.24.74c.35.33.21.44-.11.33a1.49,1.49,0,0,0-.14.76c0,.2-.22.29-.09.45-.19.39.62.86.8,1.22-.19.26-.11.52-.1.79a1.41,1.41,0,0,0,.21.8,1.29,1.29,0,0,0-.14.82c0,.28-.39.89-.17,1.11.62.6.64,0,.55.1a2.23,2.23,0,0,0-.21,1.24c0,.33.64.56.67.8a2.51,2.51,0,0,0,.19.73c.11.23,0,.51.23.76s.44.27.68.5,0,.65.26.71c0,.27.12.43.24.62s-.15.8,0,1,.61.25.8.36.84-.4,1.08-.34c.05.19.43.56.48.79s-.77,1.06-.57,1.22a1.61,1.61,0,0,0,.69.23c.11.29.57.29.81.48a1.45,1.45,0,0,0,1,.15c.08,0,.22-.11.29-.13a1.71,1.71,0,0,0,.21.74,1.6,1.6,0,0,0,.58.49,1.35,1.35,0,0,0,.75.07c.19.24.63,0,.92.07s.37.53.68.4c.12,0,.41-.43.46-.46a6,6,0,0,0,.91.4c.19.11.15,1,.4,1s.45-.21.65-.31c.25.16.54.44.82.44s.29-.87.57-1,.76.38.95.27.31-.74.52-.76,0,.82.25,1a2.46,2.46,0,0,0,1.16.26c.29,0,.61-.32.88-.45.2.13.45,0,.69,0s.63.69.86.62a2.62,2.62,0,0,0,.71-.7s-.25-.73-.23-.76a.89.89,0,0,0,.55-.07c.25-.08.93.5,1.07.32s0-.86,0-.94a1,1,0,0,0,1,.46c.42-.1.54-.73.77-.81s.52.57.94.6c.27,0,.55-.59.77-.74s-.09-.69,0-.89,1,.2,1.19,0a4.46,4.46,0,0,1,.6-.33c.22-.15.3-.44.49-.54a4.28,4.28,0,0,0,.56-.35c.29,0,.52-.25.73-.38s.61-.22.73-.45-.09-.62-.09-.89c.19-.16,0-.67.27-.94s.62-.19.88-.42c.09-.08.62.18.9,0s.24-.59.43-.72c.34-.24.52-.08.22-.11a2.89,2.89,0,0,0,.89-.05c.25-.07.5-.42.68-.6s.13-.52.22-.79c0,0,.15-.66.17-.71.23.07.48.49.72.56s.48,0,.72.1.34,1,.57,1,.58-.3.82-.31.47-.69.79-.78.8.27,1,.28.39-.41.44-.41c.24.24.55.62.65.73a.59.59,0,0,0,.44.26c.26,0,.47.42.7.34s.74.38,1,.33.47-1,.77-1,.63.58,1,.53c0,0-.08-.16,0-.13.16.2.3.65.52.76a2.38,2.38,0,0,0,1,.14c.23,0,.35-.62.59-.77s.64-.12.82-.22.49-.46.83-.27a1,1,0,0,0,.63.11c.27,0,.62.28.81.12,0,0,.34-.5.38-.53s-.24.47,0,.37.67.34.89.27.44-.35.68-.45.45-.27.69-.41a7.13,7.13,0,0,0,.71-.66c.25-.2,0-1,.26-1.19s.89.13,1.14.16.47-.5.76-.62.75.13.93-.16,0-.61.21-.79a6.51,6.51,0,0,1,.6-.47,1.6,1.6,0,0,1,.79-.12c.25,0,.67.25.91.13s.23-.6.34-.85.7-.2.86-.41-.31-1-.1-1.24a8.27,8.27,0,0,1,.75-.45c.22-.18.63-.11.83-.29s0-.66.11-.9.64-.21.69-.51c0,0,.38.46.39.45.22-.15.27-.69.39-.89s-.57-.57-.58-.82.63-.57.5-.8-.36,0-.4-.06c.12.11.07,0,.17-.62,0-.2.87-.18,1-.43s0-.63,0-.84-.57-.59-.56-.91.52-.57.49-.88.27-.63.23-.93.22-.67.17-.95-.56-.55-.61-.8-.8-.54-.86-.77a3.53,3.53,0,0,0-.33-.81c-.09-.25.54-.71.47-.91s.24-.66.15-.85-.41-.33-.56-.52c0-.05-.37,0-.35,0,.08-.22-.42-.29-.5-.54S114.17,515.93,114,515.8ZM74.56,500.38c-.07.05-.15,0-.22.07C74.1,500.55,74.34,500.5,74.56,500.38Z" style="fill:#f2c5cb"/><path d="M213.16,583c-.25.23-.44.46-.71.67a5.85,5.85,0,0,1-.74.32c-.22.13-.38.42-.63.53s-.57,0-.82.09-.47.38-.72.42-.54.12-.81.16-.57-.11-.84-.09-.54,0-.82,0-.56.21-.84.18-.48-.37-.76-.43-.57.08-.84,0-.53-.14-.8-.25a8,8,0,0,1-.69-.5,5.45,5.45,0,0,1-.77-.37c-.22-.17-.25-.55-.45-.74s-.39-.38-.57-.59-.43-.37-.6-.59-.24-.51-.39-.75-.52-.34-.65-.59-.2-.53-.32-.78-.22-.52-.33-.77-.06-.61-.14-.84-.41-.51-.46-.75a3.43,3.43,0,0,1,0-.85c0-.26.12-.52.15-.83a8.45,8.45,0,0,0,.1-.84c0-.25-.07-.53-.08-.85s-.08-.63.08-.81.38-.4.52-.64.13-.56.28-.8.54-.31.7-.53.2-.54.37-.76.41-.37.6-.58a8.33,8.33,0,0,1,.5-.67c.2-.19.53-.22.75-.39a2.61,2.61,0,0,1,.68-.37c.25-.09.48-.31.72-.38.48-.14.82-.26.63-.13.29-.17.51-.37.8-.51a3.09,3.09,0,0,1,1-.22,4.07,4.07,0,0,1,.79.09,6.87,6.87,0,0,1,.75.19l.75.14c.24.06.52,0,.79,0,0,0-.37,0,.39.23.29.07.67,0,1,.11a4.34,4.34,0,0,1,1,.17c.22.12.31.46.53.61s.45.27.65.43.4.33.59.51.48.26.66.46.39.36.55.56a7.26,7.26,0,0,1,.5.63,7.71,7.71,0,0,1,.32.73,6,6,0,0,1,.26.74c.11.26.19.52.28.77s.05.55.12.81.35.49.39.75.13.55.16.82,0,.56,0,.83a7.52,7.52,0,0,1-.05.82c0,.27-.27.51-.33.77a6.82,6.82,0,0,1-.23.77,6.21,6.21,0,0,1-.27.76c-.12.24-.11.57-.26.8a7.64,7.64,0,0,1-.5.66,31.56,31.56,0,0,0-1.23,1.1,7.73,7.73,0,0,1-.77.32c-.44.27-.09.14.15,0S213.55,582.58,213.16,583Z" style="fill:#f2c5cb"/><path d="M179.4,567.88a1.12,1.12,0,0,0,.08-.53,3.48,3.48,0,0,1,0-.8,6,6,0,0,1,.17-.78,7.19,7.19,0,0,0-.05-.81c0-.26.16-.51.09-.78a6.39,6.39,0,0,1-.25-.91c0-.3.12-.64.07-.94a4.45,4.45,0,0,0-.26-.9,4.59,4.59,0,0,0-.3-.74c-.12-.22-.44-.33-.6-.54a6.56,6.56,0,0,0-.37-.69c-.17-.19-.44-.29-.62-.48s-.29-.45-.49-.61-.48-.23-.69-.39-.36-.38-.59-.52-.49-.18-.72-.3-.42-.34-.66-.44-.53-.22-.79-.3-.55-.19-.82-.25a6.17,6.17,0,0,0-.86,0,7.71,7.71,0,0,0-.84-.11,8.08,8.08,0,0,0-.86-.08c-.27,0-.56.07-.84.12s-.71,0-1,.13-.6.34-.93.46c-.16,0-.43.11-.69.21a3.06,3.06,0,0,0-.57.45,2.46,2.46,0,0,0-.52.32c-.12.15-.27.23-.43.4-.13,0-.3,0-.38.07s-.26.49-.42.68-.45.29-.6.5-.14.52-.27.73-.36.36-.52.56a3.78,3.78,0,0,1-.51.55c-.18.15-.43.3-.5.51s.12.45.2.67c0,0,.05.07.06.1s0,.11,0,.2-.46.39-.48.6a6.11,6.11,0,0,0,.05,1c0,.31.19.61.22.92s0,.62,0,.92-.09.54-.07.75.3.48.37.68-.06.54.06.77.34.31.48.58.12.55.26.79.31.46.47.69.41.37.59.58.35.42.54.62a7.77,7.77,0,0,0,.51.66c.2.18.55.2.77.36s.36.45.59.59.57.1.81.22a7.14,7.14,0,0,0,.73.37,5.59,5.59,0,0,0,.78.28,6.09,6.09,0,0,0,.9.13c.29,0,.59-.21.89-.23s.58-.14.88-.18.6,0,.88-.1.65,0,.9-.07,1-.61.83-.65a6.66,6.66,0,0,0,1-.51c.23-.11.58,0,.82-.16s.4-.36.62-.52.51-.23.72-.41.26-.51.45-.7.53-.26.69-.47.14-.58.28-.8a7.79,7.79,0,0,0,.34-.72A4.66,4.66,0,0,0,179.4,567.88Zm-14-9.86a.33.33,0,0,1-.13.09C165.49,558,165.65,557.82,165.42,558Z" style="fill:#f2c5cb"/><path d="M216.62,607.83l.07,0a.93.93,0,0,1,.35-.5,1.87,1.87,0,0,0,.6-.67,5,5,0,0,0,.16-.87c.06-.26-.05-.63.1-.88s.55-.32.77-.51.4-.42.63-.6c.58-.46.38-.19.4-.22.23-.18.43-.35.62-.49a6.38,6.38,0,0,1,.69-.4,5.1,5.1,0,0,1,.72-.32c.23-.09.42-.36.69-.44s.5-.07.79-.13.52,0,.8,0c.75-.12-.61,0,.42-.2.27,0,.58,0,.88-.06a3.59,3.59,0,0,1,.87-.19c.27,0,.51.31.8.38s.6,0,.88.06.51.3.77.41.57.17.82.27a6.36,6.36,0,0,1,.76.31c.24.13.38.42.6.58s.54.19.75.37.44.34.63.54a8.11,8.11,0,0,1,.51.65c.17.21.25.5.4.72s.43.39.56.63a8,8,0,0,1,.29.77c.12.26.15.54.24.79a7,7,0,0,1,.29.74c.07.26.23.51.27.76a7.32,7.32,0,0,1,0,.81c0,.25-.23.5-.25.76a7.51,7.51,0,0,1-.11.77c0,.25-.09.5-.14.77s.06.55,0,.75-.32.39-.44.58,0,.56-.17.77-.51.19-.66.43c.41-.64.45.49.29.7s-.67.44-.94.72-.43.36-.65.55-.57.15-.8.32a8.22,8.22,0,0,1-.61.57c-.23.15-.52.19-.77.32s-.5.22-.75.33-.48.27-.74.36a8.32,8.32,0,0,1-.78.3,9.74,9.74,0,0,1-1.65.15c-.27,0-.55.22-.83.2a8,8,0,0,1-.84-.1,8.27,8.27,0,0,1-.8-.26c-.27-.08-.47-.32-.73-.43a8.1,8.1,0,0,1-.79-.26,7.35,7.35,0,0,1-.61-.44c-.22-.14-.57-.09-.76-.24s-.41-.32-.59-.49-.35-.37-.52-.56-.15-.53-.32-.72-.22-.45-.38-.65-.37-.39-.52-.58-.37-.33-.5-.59c-.27-.55-.34-.68-.3-.57-.09-.26-.09-.56-.19-.83s0-.59-.08-.86-.29-.5-.35-.78a7.6,7.6,0,0,1-.16-.83,6.15,6.15,0,0,1-.1-.85,5.82,5.82,0,0,1,.17-.83A3.55,3.55,0,0,1,216.62,607.83Z" style="fill:#f2c5cb"/><path d="M133.42,581.73c.13-.27.55-.48.65-.74l.08-.14s-.16-.06-.16-.1c0-.24.25-.39.39-.57a1.14,1.14,0,0,1,.44-.46c.24-.11.35-.4.55-.54s.5-.17.69-.33.45-.25.65-.41a6.71,6.71,0,0,1,.65-.35,3.82,3.82,0,0,1,.6-.46c.13,0,.22-.23.4-.23a2.78,2.78,0,0,1,.71-.54c.31-.07.64.15.94.17a4.93,4.93,0,0,0,.92.16c.88-.11-.66-.17.25-.19.28,0,.56-.13.85-.13s.58-.12.86-.1a8.52,8.52,0,0,1,.85.17,8.64,8.64,0,0,1,.85.19,7,7,0,0,1,.76.4c.26.12.47.29.71.43a7.75,7.75,0,0,1,.62.52c.23.16.5.24.71.41s.46.31.65.5.24.51.42.72.37.39.52.61.52.33.65.56,0,.61.14.86.52.36.62.61a5.21,5.21,0,0,1,.21.87,3.71,3.71,0,0,1,0,.89,7.1,7.1,0,0,1,.16.88c0,.28-.07.57-.11.86s0,.56-.06.86a8,8,0,0,0,0,.85c0,.1-.23.2-.25.31s.15.4.06.53-.38.39-.49.62a5.74,5.74,0,0,1-.3.72c-.13.22-.35.38-.5.59s-.26.45-.43.64-.3.44-.49.62-.31.44-.51.6-.62,0-.83.18-.35.42-.58.54-.51.11-.75.22-.38.42-.62.52-.49.28-.75.37-.57,0-.84.11-.53.17-.8.21-.55-.1-.83-.09a7.85,7.85,0,0,1-.81-.11,7.42,7.42,0,0,1-.82,0,6.1,6.1,0,0,1-.79-.2c-.26-.07-.53-.1-.8-.19s-.44-.35-.68-.47-.57-.09-.79-.23a6.34,6.34,0,0,1-.65-.51c-.21-.17-.52-.24-.71-.44s-.26-.5-.43-.71a7.57,7.57,0,0,1-.53-.62c-.15-.23-.35-.43-.48-.67s-.12-.55-.24-.8-.24-.48-.35-.73-.29-.48-.38-.73,0-.57-.07-.83a7.05,7.05,0,0,0-.32-.74,4.68,4.68,0,0,1-.15-.79,2.46,2.46,0,0,1,0-.77c0-.21.15-.44.24-.76s0-.58.14-.88,0-.64.07-.92S133.3,582,133.42,581.73Z" style="fill:#f2c5cb"/><path d="M145.59,611.11c0,.06.06.08.08.14a2.84,2.84,0,0,0-.41.57,6,6,0,0,0-.34.62c-.07.2.45.63.37.88s-.64.23-.76.73c-.05.23.16.58.08,1s-.74.42-.8.75.09.62.05.92-.15.61-.17.9.74.62.75.91-.39.61-.33.87.56.23.68.46-.13.71-.09.9c.11.58,0,.11.12,0,0,.07.23.62.16.75s.12.44.12.68-.37.49-.24.72a1.67,1.67,0,0,0,.48.59h-.1c0,.3.6.35.74.58s.12.54.34.73.15.69.38.87a7.37,7.37,0,0,1,.65.49c.2.18.11.52.29.75s.73.11.85.38a1.32,1.32,0,0,0,.52.68c.23.12.64-.34.88-.3s.33.51.58.68.17.49.34.66.11.4.22.58,1,0,1.25.15.57.72.9.68.63-.43.94-.22.28.63.52.84a6.34,6.34,0,0,0,.78.5c.24.15.29.65.5.74s.71-.46,1-.38.49,0,.75.14,0,.12,0,.07-.06.84,0,.87a2.85,2.85,0,0,0,1.12.15c.28,0,.53-.52.74-.64s.53,0,.75.11.17.56.47.76.73-.54,1-.53.73.81,1,.69.22-.72.38-.91,0,.49,0,.46c.33,0,.59,0,.89.06s.61-.32.93-.25a7.07,7.07,0,0,1,.86.28c.23.08.69.52.95.47s.32-.85.48-1,.74-.05,1-.3c.05,0-.2-.55-.13-.55s.53.4.89.5.65.48.91.48a5.43,5.43,0,0,0,.81.1c.24,0,.37-.78.61-.84s.39-.41.63-.47.58.09.82,0c0,.05-.29.45-.27.5.09.27.43.51.6.67s.69-.36.95-.29.3.27.57.25c-.29,0-.08.6.26.84.19.12.18.66.39.78s.91-.23,1-.15c.26.23-.1.94.06,1.12s1.06,0,1.25.19a1.47,1.47,0,0,0,.27.69c.12.23-.17.78.06.92a2,2,0,0,0,.84.4s.52-.64.88-.45c.19.1-.14,1.13.07,1.27s.83-.32,1-.15.5.28.64.47,0,.67.23.82.5-.21.77-.24c.43,0,.53.91.79,1s.54.12,1,.21a.86.86,0,0,0,.93-.31c0,.08-.16.4.09.7s.85-.42,1.1-.34.33.34.56.29l.16.22c.16.2.11.88.33,1s.57-.73.81-.77.52.14.72,0c.27.13.58.52.87.49a2,2,0,0,0,1.08-.25c.21-.2.09-.39.3-.38s.66-.48.89-.35.14.65.36.77.55-.38.82-.38.61.88.86.72c.2.11.39-.37.63-.37s.56.23.75.13a2.5,2.5,0,0,1,.64-.86s.06.67.17.71a1.9,1.9,0,0,0,1.15-.17c.29-.11.35-.77.53-1,.27,0,.43-.2.66-.3s.16-.16.31-.36.37-.26.41-.51c.08,0,.5.22.57.24.35.06.87.21,1.11,0a2,2,0,0,0,.53-.8c.25-.06.19-.5.38-.66s1-.17,1.06-.42-.33-.35-.28-.54c.24-.06.12-.62.32-.74s.88.36,1.05.17.18-.5.32-.73,0-.51,0-.78c.24-.06.17-.55.3-.68s.26-.53.42-.72.17-.41.27-.65.53-.3.57-.61.32-.5.34-.83c0-.7-.19-.94-.27-1s.23.36.84-.23c.22-.22-.25-.9-.19-1.18s-.14-.55-.26-.84a1.56,1.56,0,0,0,.35-.79,1.26,1.26,0,0,0-.21-.8c.17-.35.92-.81.73-1.2.13-.16.26-.18.32-.38s-.32-.79-.41-1c-.32.11-.61,0-.26-.29.16-.24.13-.32.1-.64s.11-.56-.13-.76a2.22,2.22,0,0,1-.66-.7c-.12-.27.33-.74.27-1a1.9,1.9,0,0,0-.37-.78c.16-.29.8-.67.77-1s-.48-.76-.71-1c0,0-.68.21-.7.18,0-.33-.09-.77-.07-1s1.07-.76.94-1a2.82,2.82,0,0,0-.79-.71s-.13.46-.14.45a1.86,1.86,0,0,0-.3-.73c-.11-.2-.38-.28-.6-.44-.63-.45.09.14.31-.53a1.28,1.28,0,0,0,0-.75,1.76,1.76,0,0,0-.4-.65c-.18-.18-.61.16-.86.09,0,0,.15-.58.17-.62.08-.26-.27-.36-.34-.59s-.19-.16-.38-.34.19-1,0-1.09c0,0,0,.25.05.19A1.69,1.69,0,0,0,203,609c-.14-.28-1.14-.09-1.42-.27,0-.27.52-.9.35-1.11s-.78,0-1-.16c0-.11.86-.32.89-.43a2.86,2.86,0,0,0-.29-1.11c-.1-.28-.56-.46-.8-.64s-.61-.11-.93-.14c-.1-.29.27-1,.08-1.26s-.6-.39-.85-.6-1.11.11-1.38-.09a3.2,3.2,0,0,0-.1-.89c-.05-.27.66-.82.52-1s-.74-.05-1-.21-.1-.63-.37-.72c-.11-.28-.66-.17-.79-.4s.25-.91.07-1.11-.79,0-1-.19-.64.32-.92.24-.21-1-.51-1c-.11-.23,0-.39-.15-.59s-.46-.3-.64-.48a4.75,4.75,0,0,0-.62-.44c-.22-.17-.55-.09-.8-.12s-.45-.27-.69-.34-.55,0-.71-.22-.56-.1-.86-.24-.39-.5-.71-.41-.52-.44-.87-.52-.68.19-1,.07-.72.06-1,0,.06-.7,0-.72a2.82,2.82,0,0,0-.67-.34c-.25-.13-.61,0-.89-.07s-.58.47-.86.45-.57-.34-.84-.36a5.43,5.43,0,0,1-.91,0c-.3-.06-.1-.9-.3-1.1s-.74-.1-1-.18-.48.49-.74.55-.51-.43-.81-.42-.49.52-.73.51a3.77,3.77,0,0,1-.81-.1,1.18,1.18,0,0,0-1,.06c-.27-.16-.58-.63-.88-.62s-.77-.45-1-.25c-.25,0-.25.86-.55.9s-.5-.57-.81-.56-.49.23-.73.27-.49-.17-.73-.14a3.38,3.38,0,0,1-.63.14c-.12,0-.24.56-.29.58s0-.36-.07-.41-.52.09-.79.08a1.39,1.39,0,0,0-.63.15c-.25.11-.67,0-.78.2s0,1-.33.94c-.14,0-.32-.57-.63-.63s-.81-.56-1.1-.48a2.45,2.45,0,0,0-.91.9c-.06.1,0,.1,0,.19a6,6,0,0,1-.69.26c-.27.05-.7.77-1,.66s-.28-.64-.52-.59-.17.6-.36.74-.67-.06-.74.16c-.33,0-.5.35-.77.46a1.92,1.92,0,0,0-.72.53c-.22,0-.57-.23-.79-.18s-.68-.14-.82,0-.14.72-.32.95c-.23,0-.59-.56-.81-.52s-.09,1-.26,1.1-.42.25-.49.49c-.41.06-1,0-1.15.36s.2.73.12.93c-.13.39-.64.47-.93.52s-.35-.58-.78-.63c-.28,0-.81.43-1.09.61s.18.73.13,1-.78.43-.79.6c0,.4.16.27-.19.26s-.36.54-.59.65-.94-.23-1.05,0,0,.66-.1.86.25.91.12,1.08-.76,0-1,.24-.57,0-.85.19-.76.16-1,.35-.13.81-.27,1.05.39.7.34,1a3.14,3.14,0,0,0,.1.94c-.13.07-.92-.08-1.05,0-.28.15-.93.2-1,.45a2.6,2.6,0,0,0,0,1.11s.38.09.36.11c-.2.13.18.46.11.72S145.51,610.89,145.59,611.11Zm40.08-16.78c-.07,0-.16,0-.22-.06C185.66,594.38,185.91,594.43,185.67,594.33Z" style="fill:#f2c5cb"/><path d="M46.7,706.08a9.33,9.33,0,0,0,.84.55c.19.14.35.41.61.55s.56.08.81.19.43.4.68.48.6-.08.85,0,.54.05.81.09.53.23.8.25a7.72,7.72,0,0,0,.83.06c.27,0,.53-.25.81-.28s.58.23.86.17.47-.34.74-.43a8.15,8.15,0,0,0,.75-.33,6.86,6.86,0,0,0,.8-.28,5.57,5.57,0,0,0,.6-.59c.22-.17.61-.16.81-.35s.38-.42.57-.64.27-.5.44-.72.39-.42.54-.65.07-.62.2-.86.33-.46.45-.7.26-.5.37-.75.4-.49.48-.72-.06-.64,0-.88a3.53,3.53,0,0,0,.14-.81c0-.26.06-.54,0-.84s0-.52,0-.84a6.75,6.75,0,0,1-.06-.84c0-.31-.25-.48-.42-.66s-.15-.55-.29-.8-.43-.37-.58-.61-.06-.62-.22-.85-.45-.36-.62-.57-.28-.49-.47-.69a8.22,8.22,0,0,0-.65-.52c-.21-.19-.31-.51-.52-.67a4.74,4.74,0,0,0-.78-.29,7.72,7.72,0,0,0-.82-.12c-.48-.14-.87-.14-.68,0-.29-.17-.56-.33-.85-.48a2.29,2.29,0,0,0-.85-.3,4.81,4.81,0,0,0-.77-.16c-.26,0-.53,0-.78,0s-.51.12-.76.18-.47.24-.73.29c0,0,.26-.35-.49-.16-.29.07-.62.23-1,.3a3.44,3.44,0,0,0-.89.48c-.22.12-.57.07-.79.22s-.39.35-.6.52-.39.36-.58.54-.26.47-.44.66-.3.42-.47.63-.28.43-.43.64-.38.38-.5.6a7.12,7.12,0,0,0-.41.67c-.11.25-.21.51-.3.76s-.27.5-.34.77.09.58.05.85,0,.54-.07.81a8.11,8.11,0,0,0,0,1.61c0,.27-.13.58-.07.84a7.4,7.4,0,0,0,.21.81c.09.25.26.49.38.74s.41.39.56.62a7.13,7.13,0,0,0,.49.63,7.75,7.75,0,0,0,.52.62c.2.18.43.32.66.49s.35.44.59.58c.44.27.17,0-.06-.1S46.31,705.71,46.7,706.08Z" style="fill:#f2c5cb"/><path d="M84.8,695.51a5.66,5.66,0,0,0,1.14.31c-.13,0,.46.49.82.62s.54.19.85.26.61-.06.91,0,.57.23.87.25a8.67,8.67,0,0,0,.89-.06,6.31,6.31,0,0,0,.91.1,16.79,16.79,0,0,0,1.57-.54c.24-.11.37-.44.61-.58a7.12,7.12,0,0,0,.74-.35c.22-.16.34-.42.55-.61s.48-.27.67-.46.28-.48.45-.69.43-.35.59-.57.23-.5.37-.73.38-.41.5-.65.27-.46.37-.64a3.13,3.13,0,0,0,.33-.66,6,6,0,0,0,0-.74c0-.21.09-.44.09-.73s.15-.6.18-.92.06-.62.07-.92a6.3,6.3,0,0,0,.08-1c0-.22-.33-.41-.35-.61a1.58,1.58,0,0,0,0-.19s-.13-.09-.12-.12a.91.91,0,0,0,.11-.61,1.38,1.38,0,0,0-.32-.61,4.26,4.26,0,0,1-.48-.57c-.16-.2-.47-.28-.61-.49s-.13-.52-.28-.73-.42-.31-.59-.5a3.29,3.29,0,0,0-.49-.57,1,1,0,0,0-.35-.11c-.16-.17-.18-.4-.31-.55s-.38-.13-.58-.27a4.75,4.75,0,0,0-.65-.27c-.26-.1-.52-.17-.68-.23-.33-.11-.56-.49-.88-.58s-.66-.09-1-.15a8.36,8.36,0,0,0-.87,0,8.47,8.47,0,0,0-.85-.09,8.1,8.1,0,0,0-.86-.06c-.27,0-.52.31-.8.37s-.61-.12-.89,0-.48.31-.76.42-.54.07-.78.19-.46.25-.69.39-.38.38-.59.53-.43.31-.63.47a7.83,7.83,0,0,0-.67.45c-.19.18-.22.52-.39.71s-.46.32-.61.53-.13.54-.25.77a5.09,5.09,0,0,0-.38.68,4.51,4.51,0,0,0-.29.9c0,.3-.12.61-.15.91s.11.65,0,.94a2,2,0,0,0,0,.77,5.22,5.22,0,0,0,.06.78c0,.25-.06.54,0,.82a3.84,3.84,0,0,1,.07.78c0,.2.21.34.28.49s-.11.59,0,.84a4.79,4.79,0,0,0,.46.68,5.06,5.06,0,0,0,.36.74c.17.21.49.29.68.48s.24.54.44.72.57.16.78.32a6.26,6.26,0,0,0,.68.42C84.4,695.17,84.57,695.4,84.8,695.51Zm9.9-14.41a.6.6,0,0,1-.13-.09C94.34,680.81,94.51,681,94.7,681.1Z" style="fill:#f2c5cb"/><path d="M43.39,730.81l.07,0a1.2,1.2,0,0,0-.4-.58,1.45,1.45,0,0,1-.43-.66,5.17,5.17,0,0,1-.34-.77c-.06-.27-.33-.43-.48-.68s-.18-.6-.41-.78-.52-.27-.75-.46c-.58-.45-.44-.11-.47-.13l-.61-.5c-.23-.17-.39-.37-.6-.5a4.66,4.66,0,0,0-.68-.4c-.23-.1-.52,0-.8-.07s-.46-.17-.74-.23-.47-.23-.76-.27c-.75-.13.6.07-.43-.08-.27,0-.56-.2-.85-.25a3.1,3.1,0,0,0-.87.08c-.27,0-.6-.16-.9-.08s-.49.35-.77.44-.58.1-.84.21-.53.28-.77.39-.46.3-.7.43-.55.14-.77.3-.32.47-.52.65a7.61,7.61,0,0,0-.54.61,7.39,7.39,0,0,0-.54.59c-.17.22-.41.38-.56.6s-.15.54-.28.77-.34.44-.45.68-.29.47-.39.72-.12.52-.19.77a5,5,0,0,0,0,.77,7,7,0,0,0-.16.77c0,.25-.21.52-.18.79s.05.52.09.79.08.51.13.78.29.48.36.68a4.06,4.06,0,0,0,.19.73c.12.2.52.2.68.42s0,.53.19.77c-.42-.64,0,.15.18.36s.59.45.87.73a7.76,7.76,0,0,0,.55.61c.21.18.27.55.5.72s.52.22.76.37.42.39.67.52.5.28.75.39.56.14.82.23a7.6,7.6,0,0,0,.83.16,6.82,6.82,0,0,0,1.65.32c.27,0,.55-.2.83-.22a8,8,0,0,0,.82-.1,7.72,7.72,0,0,0,.82-.12,8.09,8.09,0,0,0,.84-.12c.25-.11.47-.33.72-.46s.47-.21.68-.35.27-.48.46-.64a6.41,6.41,0,0,0,.55-.49l.52-.52c.17-.18.51-.21.67-.41s.4-.32.56-.52.3-.44.45-.64a5.67,5.67,0,0,0,.32-.73c.27-.55,0-.81,0-.7.09-.25.29-.48.38-.75s.35-.48.43-.75,0-.59.07-.86a8.09,8.09,0,0,0,.12-.84,5.73,5.73,0,0,0,0-.83,4.67,4.67,0,0,0,0-.84A3.12,3.12,0,0,0,43.39,730.81Z" style="fill:#f2c5cb"/><path d="M126.28,704.86c-.13-.27-.17-.65-.27-.91l-.06-.14s-.15,0-.14-.09c0-.23.13-.51,0-.69a1.44,1.44,0,0,0-.6-.36c-.24-.11-.56-.08-.76-.22s-.33-.43-.52-.58-.33-.4-.53-.56-.35-.39-.57-.53a5.07,5.07,0,0,0-.75-.24c-.13,0-.39.11-.57.12a2.15,2.15,0,0,0-.66-.46c-.3-.07-.56-.27-.86-.25a4.4,4.4,0,0,1-.88-.1c-.87-.11.63-.05-.28-.07-.28,0-.56.13-.85.14s-.55.16-.83.18-.56,0-.84,0a8.09,8.09,0,0,0-.82.19,6.2,6.2,0,0,0-.83.19c-.25.12-.52.19-.76.32s-.54.19-.76.35a6.6,6.6,0,0,0-.6.58c-.21.18-.37.42-.56.61s-.51.29-.68.5-.31.47-.47.69-.09.59-.22.82-.52.35-.64.59.06.63,0,.88a6.36,6.36,0,0,0-.33.79c-.07.3-.28.55-.3.83a6.09,6.09,0,0,0,.18.87c0,.29.05.57.09.86s.09.57.12.86a8.53,8.53,0,0,1,0,.89c0,.1-.25.21-.23.32s.28.28.36.41,0,.58.12.81a7.4,7.4,0,0,0,.44.65,7.74,7.74,0,0,0,.37.7,7.27,7.27,0,0,0,.55.56c.18.19.42.32.61.49a7.41,7.41,0,0,0,.67.4c.2.16.22.59.44.73s.52.14.75.26.39.38.63.5.56,0,.81.11.53.11.79.2.49.28.75.34a7.5,7.5,0,0,0,.81.11c.27,0,.53.21.81.22a7.53,7.53,0,0,0,.83.08,8.12,8.12,0,0,0,.81-.22c.27,0,.54-.09.82-.16s.5-.21.77-.31a7,7,0,0,0,.82-.18c.25-.12.39-.43.62-.57a8,8,0,0,0,.67-.47c.21-.17.29-.47.48-.66s.48-.29.65-.5.29-.46.44-.68a7.09,7.09,0,0,0,.38-.72c.14-.23.41-.4.52-.64s.22-.5.32-.75.1-.55.18-.8.33-.47.4-.73.08-.58.15-.79a7.35,7.35,0,0,0,.3-.76,2.8,2.8,0,0,0,0-.82,5.91,5.91,0,0,0-.11-.81c-.08-.28-.25-.54-.34-.84s-.38-.5-.48-.78S126.4,705.11,126.28,704.86Z" style="fill:#f2c5cb"/><path d="M114,732.68s0,0-.06,0a1.71,1.71,0,0,0-.09-.88,1.76,1.76,0,0,0-.59-.72c-.12-.07-.79.09-.92,0,0-.32.57-.72.52-1s-.39-.45-.55-.71.15-.89-.08-1.11-.6-.26-.87-.44-.44-.38-.62-.51-1,.19-1.15,0,.08-.65-.08-.95-.61-.23-.76-.52.11-.56-.13-.67-.44.26-.68.28-.44-.5-.47-.91c0-.17-.33-.34-.38-.64s.14-.64-.14-.82a1.52,1.52,0,0,0-.92-.31,1.91,1.91,0,0,1-.8,0c-.29-.06-.65,0-.78-.38-.07-.21,0-.52-.14-.82s-.33-.9-.73-1a1,1,0,0,0-.38-.52c-.17-.13-.46-.59-.69-.63s-.55.49-.78.52c-.19-.23-.28-.51-.48-.74s-.57.23-.79.18-.36-.42-.57-.39c-.22-.25-.35-.71-.63-.82s-.45-.34-.78-.33c-.07-.22-.62.24-.82.08s-.21-.78-.45-.82-.47.52-.69.61-.62-.19-.89-.24a7.58,7.58,0,0,1-.81-.13c-.06-.1.25-.42.19-.52-.18-.29-.89,0-1.19-.08a1.49,1.49,0,0,0-.8.09,7,7,0,0,1-.71.14c-.35,0,.26-.85.13-1.09s-.71-.46-1-.57-.66.29-.92.3-.58-.07-.78.09-.18-.24-.23-.2,0,.79-.11.79-.41-.93-.64-1-.55.39-.78.35-.45-.63-.68-.65a6.57,6.57,0,0,1-.72,0c-.29,0-.53.32-.78.36a1.6,1.6,0,0,0-.89-.35c-.29,0-.6-.36-.87-.2-.34-.17-.72.51-1.1.63-.14.05-.46-.46-.75-.45s-.48.67-.71.66-.53-.33-.67-.37-.67-.32-.91-.24a2.88,2.88,0,0,0-.92.38c-.2.19,0,.87-.35.94s-.57.39-.87.4-.57-.24-.86-.23-.65-.57-.92-.52a2.93,2.93,0,0,0-.83.46c-.2.1.08.89-.09,1.06s-.65-.69-.81-.63-.45.51-.76.63-.71-.23-1-.16-.6.77-.84.7-.85-.72-1.15-.57-.08,1-.23,1.29a1.84,1.84,0,0,1-.72.7c-.24.06-.64-.51-.9-.48a2,2,0,0,0-.89.18c-.22.16.14.91,0,1.07s-1.16-.27-1.28-.08.34.86.22,1.08a3.88,3.88,0,0,0-.81.3c-.28.08-.67-.19-.9,0s-.11.66-.3.87-1.09-.09-1.24.16a6.73,6.73,0,0,0-.23.68c-.26.09-.23.45-.43.59s-.71.2-.85.4.6.79.54,1.06-.32.51-.3.79c-.26.2-.62.39-.84.58s-1,0-1.13.25.26,1.1.16,1.39c-.32,0-.75-.07-1,.09s-.69.27-.78.55a2.59,2.59,0,0,0-.27,1c0,.12.33,0,.34.11-.22.13.08.72-.07.92s-.65.16-.63.43c-.29.18,0,.69-.13,1s-1.08.48-1,.82c0,0,.49.06.52.09-.24.1-.65,0-.82.18s0,.57-.06.81-.68.56-.6.82c0,0,.33-.26.34-.22-.25.07-.17.6-.35.78s0,.36-.09.6,0,.19.09.43c.21.67.54.51-.08,1-.22.15-.66,0-.77.2s-.52.45-.52.7c0,0,.19-.25.17-.25-.21.12-.13.67-.25.89s-.9.46-.88.69.46.66.49,1c0,0,.47.25.44.28-.23.25-1.08.26-1.11.56a2.52,2.52,0,0,0,.41,1.09,3.57,3.57,0,0,1-.1.65c-.06.27.35.72.23,1a3,3,0,0,1-.44,1c-.25.2-.09.2-.12.52s-.41.51-.24.75c.35.32.21.43-.11.32a1.53,1.53,0,0,0-.14.77c0,.2-.22.28-.09.45-.19.38.62.85.8,1.21-.19.26-.11.52-.1.8a1.43,1.43,0,0,0,.21.8,1.27,1.27,0,0,0-.14.82c0,.27-.39.89-.17,1.1.62.6.64,0,.55.1a2.25,2.25,0,0,0-.21,1.25c0,.33.64.55.67.79a2.51,2.51,0,0,0,.19.73c.11.24,0,.52.23.77s.44.27.68.5,0,.65.26.71c0,.27.12.43.24.62s-.15.79,0,1,.61.25.8.36.84-.4,1.08-.35c.05.19.43.57.48.8s-.77,1.05-.57,1.21a1.62,1.62,0,0,0,.69.24c.11.28.57.29.81.47a1.34,1.34,0,0,0,1,.15c.08,0,.22-.11.29-.12a1.63,1.63,0,0,0,.21.73,1.74,1.74,0,0,0,.58.5,1.35,1.35,0,0,0,.75.06c.19.25.63,0,.92.07s.37.53.68.4c.12,0,.41-.42.46-.46a5.45,5.45,0,0,0,.91.41c.19.1.15,1,.4,1s.45-.2.65-.31c.25.16.54.44.82.44s.29-.86.57-1,.76.38.95.27.31-.74.52-.75,0,.82.25,1a2.36,2.36,0,0,0,1.16.27c.29,0,.61-.33.88-.45.2.12.45,0,.69,0s.63.69.86.62.55-.5.71-.69-.25-.74-.23-.76a.89.89,0,0,0,.55-.07c.25-.08.93.49,1.07.32s0-.86,0-1a1,1,0,0,0,1,.46c.42-.09.54-.73.77-.8s.52.56.94.6c.27,0,.55-.59.77-.74s-.09-.69,0-.89,1,.2,1.19,0,.41-.19.6-.33.3-.43.49-.53a6.14,6.14,0,0,0,.56-.35c.29,0,.52-.26.73-.39s.61-.21.73-.45-.09-.61-.09-.88c.19-.17,0-.67.27-.94s.62-.19.88-.42c.09-.08.62.18.9,0s.24-.6.43-.73c.34-.23.52-.07.22-.1a2.88,2.88,0,0,0,.89-.06c.25-.07.5-.42.68-.6s.13-.52.22-.78c0-.06.15-.66.17-.71.23.07.48.48.72.55s.48,0,.72.11.34,1,.57,1,.58-.31.82-.31.47-.69.79-.79.8.28,1,.29.39-.42.44-.42c.24.25.55.63.65.73a.57.57,0,0,0,.44.27c.26,0,.47.42.7.34s.74.38,1,.32.47-1,.77-1,.63.58,1,.54c0,0-.08-.17,0-.13.16.2.3.65.52.76a2.38,2.38,0,0,0,1,.13c.23,0,.35-.61.59-.76s.64-.12.82-.23.49-.45.83-.26a1.05,1.05,0,0,0,.63.11c.27,0,.62.27.81.12,0,0,.34-.51.38-.53s-.24.47,0,.37.67.33.89.26.44-.35.68-.45a5.91,5.91,0,0,0,.69-.41,6,6,0,0,0,.71-.65c.25-.2,0-1,.26-1.19s.89.12,1.14.16.47-.5.76-.62.75.13.93-.17,0-.61.21-.78a4.26,4.26,0,0,1,.6-.47c.25-.17.64-.1.79-.13s.67.25.91.13.23-.6.34-.85.7-.19.86-.41-.31-1-.1-1.23.53-.29.75-.46.63-.1.83-.28,0-.67.11-.91.64-.2.69-.51c0,0,.38.46.39.46.22-.15.27-.69.39-.9s-.57-.56-.58-.81.63-.57.5-.81-.36,0-.4-.05c.12.11.07,0,.17-.63,0-.19.87-.18,1-.43s0-.62,0-.83-.57-.59-.56-.91.52-.57.49-.88.27-.64.23-.93.22-.68.17-1-.56-.54-.61-.79-.8-.54-.86-.77a3.67,3.67,0,0,0-.33-.82c-.09-.24.54-.71.47-.9s.24-.66.15-.86-.41-.33-.56-.51c0-.06-.37,0-.35,0,.08-.22-.42-.28-.5-.54S114.17,732.82,114,732.68ZM74.56,717.27c-.07.05-.15,0-.22.06C74.1,717.43,74.34,717.38,74.56,717.27Z" style="fill:#f2c5cb"/><path d="M213.16,799.83a9.08,9.08,0,0,1-.71.68,7.78,7.78,0,0,1-.74.32c-.22.13-.38.42-.63.53s-.57,0-.82.08-.47.39-.72.43-.54.12-.81.15-.57-.11-.84-.09a7.54,7.54,0,0,1-.82,0c-.27,0-.56.21-.84.18s-.48-.37-.76-.43-.57.08-.84,0-.53-.14-.8-.25a7.9,7.9,0,0,1-.69-.49c-.24-.15-.55-.2-.77-.37s-.25-.55-.45-.75a7.94,7.94,0,0,1-.57-.59,8.35,8.35,0,0,1-.6-.59c-.16-.23-.24-.51-.39-.74s-.52-.35-.65-.59-.2-.54-.32-.78-.22-.53-.33-.77a6,6,0,0,1-.14-.85c-.11-.3-.41-.5-.46-.74a3.43,3.43,0,0,1,0-.85c0-.27.12-.53.15-.84a8.1,8.1,0,0,0,.1-.84c0-.25-.07-.53-.08-.84s-.08-.63.08-.81.38-.4.52-.64.13-.57.28-.8.54-.31.7-.54.2-.54.37-.75a8.21,8.21,0,0,1,.6-.58,6.86,6.86,0,0,1,.5-.67c.2-.19.53-.23.75-.39a2.61,2.61,0,0,1,.68-.37c.25-.09.48-.32.72-.39.48-.14.82-.26.63-.12a8.9,8.9,0,0,1,.8-.51,3.07,3.07,0,0,1,1-.23,5,5,0,0,1,.79.1,6.8,6.8,0,0,1,.75.18l.75.15c.24.06.52,0,.79,0,0,0-.37,0,.39.24.29.07.67,0,1,.11a3.89,3.89,0,0,1,1,.16c.22.13.31.47.53.62s.45.26.65.43.4.32.59.5.48.27.66.46.39.37.55.57.36.41.5.62a7.87,7.87,0,0,1,.32.74,6,6,0,0,1,.26.74c.11.26.19.51.28.77s.05.55.12.81.35.48.39.75.13.54.16.81,0,.56,0,.83a7.55,7.55,0,0,1-.05.83c0,.27-.27.5-.33.77a7.49,7.49,0,0,1-.23.77,7.67,7.67,0,0,1-.27.76c-.12.24-.11.56-.26.79a6.36,6.36,0,0,1-.5.66,5.52,5.52,0,0,1-.62.55,6.64,6.64,0,0,1-.61.56c-.21.16-.53.17-.77.32-.44.26-.09.14.15,0S213.55,799.46,213.16,799.83Z" style="fill:#f2c5cb"/><path d="M179.4,784.76a1.1,1.1,0,0,0,.08-.53,3.51,3.51,0,0,1,0-.8,6.33,6.33,0,0,1,.17-.78,7.19,7.19,0,0,0-.05-.81c0-.26.16-.51.09-.78a6.63,6.63,0,0,1-.25-.9c0-.31.12-.64.07-.94a4.74,4.74,0,0,0-.26-.91,4.5,4.5,0,0,0-.3-.73c-.12-.23-.44-.33-.6-.55a6.42,6.42,0,0,0-.37-.68c-.17-.2-.44-.3-.62-.48s-.29-.45-.49-.62-.48-.23-.69-.38a7.31,7.31,0,0,0-.59-.52c-.22-.14-.49-.19-.72-.31s-.42-.33-.66-.43-.53-.23-.79-.31-.55-.19-.82-.25a8.23,8.23,0,0,0-.86,0,7.71,7.71,0,0,0-.84-.11c-.28,0-.57-.1-.86-.08s-.56.08-.84.13-.71,0-1,.13-.6.34-.93.45c-.16.06-.43.12-.69.22s-.41.34-.57.44-.4.19-.52.33-.27.23-.43.39-.3,0-.38.07-.26.5-.42.68-.45.3-.6.5-.14.52-.27.73-.36.37-.52.57a4.38,4.38,0,0,1-.51.55c-.18.15-.43.3-.5.5s.12.45.2.67c0,0,.05.08.06.11s0,.11,0,.2-.46.38-.48.6a6.18,6.18,0,0,0,.05,1c0,.3.19.6.22.91s0,.63,0,.93-.09.54-.07.75.3.48.37.67-.06.55.06.77.34.32.48.58.12.56.26.8.31.46.47.68.41.37.59.59.35.42.54.61a6.45,6.45,0,0,0,.51.66c.2.18.55.2.77.36s.36.45.59.59.57.11.81.22a6.11,6.11,0,0,0,1.51.66,5,5,0,0,0,.9.12c.29,0,.59-.2.89-.22s.58-.14.88-.19.6,0,.88-.09.65,0,.9-.08,1-.6.83-.65a5.26,5.26,0,0,0,1-.51c.23-.1.58,0,.82-.15s.4-.36.62-.53.51-.23.72-.41.26-.5.45-.69.53-.27.69-.48.14-.57.28-.8a6.59,6.59,0,0,0,.34-.71A4.34,4.34,0,0,0,179.4,784.76Zm-14-9.85a.24.24,0,0,1-.13.08C165.49,774.85,165.65,774.7,165.42,774.91Z" style="fill:#f2c5cb"/><path d="M216.62,824.71l.07,0a1,1,0,0,1,.35-.5,1.93,1.93,0,0,0,.6-.66,5.31,5.31,0,0,0,.16-.87c.06-.27-.05-.63.1-.88s.55-.33.77-.51.4-.42.63-.61c.58-.46.38-.19.4-.21l.62-.5c.23-.17.48-.26.69-.4a6.51,6.51,0,0,1,.72-.31c.23-.1.42-.37.69-.44s.5-.08.79-.14.52,0,.8,0c.75-.13-.61-.06.42-.21.27,0,.58,0,.88-.06a4.13,4.13,0,0,1,.87-.19c.27,0,.51.31.8.39s.6,0,.88.06.51.3.77.41.57.16.82.27.53.17.76.3.38.43.6.58.54.19.75.37.44.35.63.54.35.44.51.65.25.5.4.73.43.39.56.62a8.21,8.21,0,0,1,.29.78,7.92,7.92,0,0,1,.24.79,6.27,6.27,0,0,1,.29.74c.07.26.23.51.27.76a7.14,7.14,0,0,1,0,.8c0,.26-.23.5-.25.77a7.51,7.51,0,0,1-.11.77c0,.24-.09.49-.14.76s.06.55,0,.75-.32.4-.44.59,0,.55-.17.77-.51.19-.66.43c.41-.64.45.49.29.7s-.67.43-.94.72-.43.36-.65.54-.57.16-.8.33-.37.42-.61.57-.52.18-.77.31-.5.22-.75.33-.48.28-.74.37-.51.23-.78.3a7.64,7.64,0,0,1-.82.1c-.28,0-.55,0-.83,0s-.55.21-.83.2a8,8,0,0,1-.84-.1,8.27,8.27,0,0,1-.8-.26c-.27-.08-.47-.32-.73-.43a8.19,8.19,0,0,1-.79-.27,7.3,7.3,0,0,1-.61-.43c-.22-.14-.57-.1-.76-.25s-.41-.32-.59-.49-.35-.36-.52-.55-.15-.53-.32-.73-.22-.45-.38-.65-.37-.38-.52-.58-.37-.32-.5-.58c-.27-.55-.34-.69-.3-.58-.09-.25-.09-.55-.19-.83s0-.58-.08-.85-.29-.51-.35-.78a8.09,8.09,0,0,1-.16-.83,6.15,6.15,0,0,1-.1-.85,5.68,5.68,0,0,1,.17-.84A4,4,0,0,1,216.62,824.71Z" style="fill:#f2c5cb"/><path d="M133.42,798.61c.13-.26.55-.47.65-.73a.75.75,0,0,1,.08-.14s-.16-.07-.16-.11c0-.23.25-.39.39-.57a1.12,1.12,0,0,1,.44-.45c.24-.11.35-.4.55-.54s.5-.17.69-.33.45-.25.65-.41a6.77,6.77,0,0,1,.65-.36c.21-.13.36-.35.6-.45s.22-.23.4-.23a2.78,2.78,0,0,1,.71-.54c.31-.08.64.15.94.17a4.9,4.9,0,0,0,.92.15c.88-.1-.66-.17.25-.18.28,0,.56-.14.85-.13s.58-.13.86-.11.57.12.85.17a6.53,6.53,0,0,1,.85.2,7,7,0,0,1,.76.4c.26.11.47.29.71.42s.4.38.62.53.5.24.71.41.46.31.65.5.24.51.42.72.37.39.52.61.52.32.65.56,0,.61.14.85.52.37.62.62a5.21,5.21,0,0,1,.21.87,3.74,3.74,0,0,1,0,.89,7.3,7.3,0,0,1,.16.87c0,.29-.07.58-.11.87s0,.56-.06.86a7.94,7.94,0,0,0,0,.85c0,.1-.23.2-.25.31s.15.39.06.52-.38.4-.49.63a5.74,5.74,0,0,1-.3.72,6.93,6.93,0,0,1-.5.58c-.16.21-.26.46-.43.65s-.3.43-.49.61-.31.45-.51.61-.62,0-.83.17-.35.42-.58.55-.51.11-.75.22-.38.42-.62.52-.49.28-.75.36a8,8,0,0,1-.84.11,7.23,7.23,0,0,1-.8.21,8,8,0,0,1-.83-.08,7.85,7.85,0,0,1-.81-.11,7.42,7.42,0,0,1-.82,0c-.26-.05-.52-.13-.79-.2s-.53-.1-.8-.2-.44-.35-.68-.47-.57-.08-.79-.23a8,8,0,0,1-.65-.5c-.21-.17-.52-.25-.71-.44s-.26-.5-.43-.71a6.31,6.31,0,0,1-.53-.63c-.15-.22-.35-.43-.48-.66s-.12-.56-.24-.8-.24-.49-.35-.74-.29-.47-.38-.72,0-.58-.07-.83a7.32,7.32,0,0,0-.32-.75,4.41,4.41,0,0,1-.15-.78,2.47,2.47,0,0,1,0-.77c0-.22.15-.45.24-.76s0-.59.14-.88,0-.65.07-.93S133.3,798.87,133.42,798.61Z" style="fill:#f2c5cb"/><path d="M145.59,828s.06.08.08.13a2.9,2.9,0,0,0-.41.58,5.08,5.08,0,0,0-.34.62c-.07.2.45.63.37.87s-.64.24-.76.73c-.05.23.16.59.08,1s-.74.43-.8.75.09.62.05.93-.15.6-.17.9.74.62.75.9-.39.62-.33.88.56.23.68.46-.13.7-.09.9c.11.58,0,.11.12,0,0,.06.23.61.16.74s.12.44.12.68-.37.5-.24.72a1.59,1.59,0,0,0,.48.59h-.1c0,.3.6.36.74.58s.12.54.34.73.15.7.38.87.44.3.65.49.11.52.29.76.73.1.85.38a1.32,1.32,0,0,0,.52.68c.23.12.64-.34.88-.31s.33.51.58.68.17.5.34.66.11.41.22.59,1,0,1.25.14.57.73.9.68.63-.43.94-.21.28.63.52.83a6.47,6.47,0,0,0,.78.51c.24.15.29.65.5.74s.71-.46,1-.38.49,0,.75.13,0,.13,0,.07-.06.84,0,.87a2.67,2.67,0,0,0,1.12.15c.28,0,.53-.52.74-.63s.53,0,.75.11.17.56.47.75.73-.54,1-.53.73.81,1,.7.22-.72.38-.92c0,0,0,.5,0,.46.33.05.59,0,.89.07s.61-.32.93-.26a7.07,7.07,0,0,1,.86.28c.23.08.69.53.95.48s.32-.85.48-1,.74-.05,1-.29c.05,0-.2-.56-.13-.56s.53.4.89.51.65.47.91.48a7.17,7.17,0,0,0,.81.1c.24,0,.37-.79.61-.84s.39-.41.63-.48.58.1.82,0c0,.05-.29.45-.27.51.09.26.43.5.6.67s.69-.36.95-.29.3.27.57.24c-.29,0-.08.6.26.84.19.13.18.66.39.79s.91-.24,1-.15c.26.23-.1.93.06,1.12s1.06,0,1.25.19a1.51,1.51,0,0,0,.27.69c.12.23-.17.78.06.92a2.18,2.18,0,0,0,.84.4s.52-.65.88-.45c.19.1-.14,1.12.07,1.27s.83-.32,1-.16.5.29.64.48,0,.66.23.81.5-.21.77-.23c.43,0,.53.91.79,1s.54.11,1,.21a.84.84,0,0,0,.93-.32c0,.08-.16.41.09.71s.85-.42,1.1-.34.33.33.56.29c0,0,.14.18.16.22s.11.88.33.95.57-.74.81-.77.52.14.72,0c.27.12.58.51.87.49a2.26,2.26,0,0,0,1.08-.25c.21-.2.09-.4.3-.38s.66-.49.89-.36.14.66.36.77.55-.38.82-.38.61.89.86.73c.2.11.39-.37.63-.37s.56.23.75.13a2.6,2.6,0,0,1,.64-.87s.06.67.17.72a2,2,0,0,0,1.15-.17c.29-.11.35-.78.53-1,.27,0,.43-.2.66-.3s.16-.16.31-.37.37-.25.41-.5c.08,0,.5.22.57.24.35,0,.87.21,1.11,0a1.85,1.85,0,0,0,.53-.8c.25-.05.19-.5.38-.65s1-.17,1.06-.42-.33-.35-.28-.55c.24,0,.12-.61.32-.73s.88.35,1.05.16.18-.5.32-.72,0-.51,0-.78c.24-.06.17-.56.3-.68s.26-.54.42-.72.17-.41.27-.65.53-.3.57-.62.32-.49.34-.82c0-.71-.19-.94-.27-1s.23.36.84-.24c.22-.21-.25-.9-.19-1.18s-.14-.55-.26-.83a1.6,1.6,0,0,0,.35-.79,1.24,1.24,0,0,0-.21-.8c.17-.36.92-.82.73-1.2.13-.17.26-.18.32-.38s-.32-.79-.41-1c-.32.11-.61,0-.26-.29.16-.24.13-.32.1-.65s.11-.55-.13-.75a2.33,2.33,0,0,1-.66-.7c-.12-.27.33-.74.27-1a2.08,2.08,0,0,0-.37-.78c.16-.29.8-.67.77-1s-.48-.76-.71-1c0,0-.68.2-.7.18,0-.33-.09-.78-.07-1s1.07-.77.94-1a2.54,2.54,0,0,0-.79-.71s-.13.45-.14.44a1.76,1.76,0,0,0-.3-.72c-.11-.2-.38-.29-.6-.44-.63-.45.09.14.31-.53a1.31,1.31,0,0,0,0-.76,1.65,1.65,0,0,0-.4-.64c-.18-.18-.61.16-.86.09,0,0,.15-.59.17-.63.08-.25-.27-.35-.34-.59s-.19-.15-.38-.33.19-1,0-1.09c0,0,0,.24.05.19a1.7,1.7,0,0,0,.1-1.16c-.14-.28-1.14-.1-1.42-.27,0-.27.52-.91.35-1.12s-.78,0-1-.15c0-.12.86-.32.89-.44a3,3,0,0,0-.29-1.11c-.1-.28-.56-.46-.8-.63s-.61-.12-.93-.14c-.1-.3.27-1,.08-1.26s-.6-.39-.85-.61-1.11.12-1.38-.08a3.15,3.15,0,0,0-.1-.89c-.05-.27.66-.83.52-1s-.74,0-1-.2-.1-.63-.37-.73c-.11-.27-.66-.16-.79-.39s.25-.92.07-1.12-.79,0-1-.19-.64.33-.92.25-.21-1-.51-1c-.11-.22,0-.39-.15-.58s-.46-.3-.64-.49a6,6,0,0,0-.62-.43c-.22-.17-.55-.1-.8-.13s-.45-.27-.69-.33-.55,0-.71-.22-.56-.1-.86-.24-.39-.51-.71-.41-.52-.44-.87-.53-.68.19-1,.08-.72.06-1,0,.06-.69,0-.71a2.23,2.23,0,0,0-.67-.34c-.25-.14-.61,0-.89-.07s-.58.46-.86.45-.57-.35-.84-.36a5.43,5.43,0,0,1-.91,0c-.3-.07-.1-.91-.3-1.1s-.74-.11-1-.19-.48.49-.74.56-.51-.44-.81-.42-.49.52-.73.51a4.54,4.54,0,0,1-.81-.1,1.18,1.18,0,0,0-1,0c-.27-.15-.58-.62-.88-.61s-.77-.46-1-.26c-.25,0-.25.86-.55.9s-.5-.57-.81-.55-.49.22-.73.27-.49-.18-.73-.14a3.36,3.36,0,0,1-.63.13c-.12,0-.24.57-.29.59s0-.36-.07-.42-.52.1-.79.09a1.26,1.26,0,0,0-.63.14c-.25.12-.67,0-.78.2s0,1-.33,1c-.14,0-.32-.57-.63-.63s-.81-.57-1.1-.48-.73.6-.91.89c-.06.1,0,.1,0,.2-.28.07-.43.22-.69.26s-.7.77-1,.65-.28-.63-.52-.58-.17.6-.36.74-.67-.06-.74.16c-.33,0-.5.34-.77.46a1.73,1.73,0,0,0-.72.53c-.22,0-.57-.24-.79-.19s-.68-.14-.82,0-.14.71-.32.94c-.23,0-.59-.56-.81-.51s-.09,1-.26,1.1-.42.25-.49.48c-.41.07-1,0-1.15.36s.2.73.12.93c-.13.4-.64.47-.93.53s-.35-.58-.78-.64c-.28,0-.81.43-1.09.61s.18.74.13,1-.78.44-.79.6c0,.41.16.28-.19.26s-.36.55-.59.65-.94-.22-1.05,0,0,.67-.1.86.25.91.12,1.09-.76,0-1,.24-.57,0-.85.18-.76.16-1,.35-.13.82-.27,1.06.39.7.34,1a3.14,3.14,0,0,0,.1.94c-.13.07-.92-.07-1.05,0-.28.16-.93.21-1,.45a2.65,2.65,0,0,0,0,1.12s.38.09.36.1c-.2.14.18.47.11.72S145.51,827.78,145.59,828Zm40.08-16.78c-.07,0-.16,0-.22-.07C185.66,811.27,185.91,811.32,185.67,811.22Z" style="fill:#f2c5cb"/></svg>