<svg id="레이어_1" data-name="레이어 1" xmlns="http://www.w3.org/2000/svg" viewBox="0 0 68 30"><path d="M52.14,9.05a9.87,9.87,0,0,0-.22,2.23L53.4,8.69l-.8.51a3.09,3.09,0,0,0-1.38,3.39l.21.79.3-2.31c-.75,1.21-1.63,2.81-1.34,4.3s-.75-1.58.51-.63c0,0-1,1.3-.83,1a6.41,6.41,0,0,0-.84,2.9l1.49-2.6a4.85,4.85,0,0,0-2.32,2.63c-.1.23-.84,2-.29,1s-.61.7-.83,1.06l1.79-1.38a9.16,9.16,0,0,0-3.07,2c-3,2.44,1.27,6.66,4.24,4.24A6.91,6.91,0,0,0,51.66,24l-1.79,1.38a5.25,5.25,0,0,0,3-2.18,8.29,8.29,0,0,0,1.51-3.36L53,21.64a4.27,4.27,0,0,0,1.62-1.17c.12-.15.66-2.36.7-2.37-.29.1-.66,2.12.45.12a6.34,6.34,0,0,0,.58-2.31,12.48,12.48,0,0,0,.18-1.35c0-1.28-.74,1,0,.25A3.93,3.93,0,0,0,57,11l-1.37,3.39a4.54,4.54,0,0,0,2-1.94,5.19,5.19,0,0,0,.27-1.8c.75-3.77-5-5.38-5.79-1.59Z" style="fill:#1c1b1f"/><path d="M9.58,9.71a4.29,4.29,0,0,0,1.52,3.42L10.63,9.5l-.44.83A3.08,3.08,0,0,0,10.66,14l.64.57-.88-2.12c-.05,1.12.19-.6,0,.51a4.41,4.41,0,0,0-.09,1.4,7.54,7.54,0,0,0,.86,2c.71,1.48.68,2.83,2.07,4.24l-.88-2.12,0,.81a3,3,0,0,0,1.49,2.59l.73.42L13,19.69a4.71,4.71,0,0,0,2.17,3.81l-1.38-1.79c.07.5.87,3,1.59,2.68.38-.17-.7-1.34-.16-.21a8.13,8.13,0,0,0,1.23,1.88c2.46,3,6.68-1.28,4.24-4.24-.62-.75.63,1.32.13,0-.15-.39-.87-1.92-1.48-1.89-.23,0,.25.86.29.58a1.71,1.71,0,0,0-.2-.75,5.43,5.43,0,0,0-1.83-1.89l1.48,2.59a4.23,4.23,0,0,0-2.3-3.77l1.49,2.59A4.09,4.09,0,0,0,17,15.79l.88,2.13a14.89,14.89,0,0,0-2-5.5l.3,2.31c.33-2,.41-3.52-1.24-5l.46,3.63.44-.83a3.07,3.07,0,0,0-.47-3.64l-.62-.58.88,2.12,0-.72c-.09-3.86-6.09-3.87-6,0Z" style="fill:#1c1b1f"/><path d="M30.1,11.38l.6.54L29.83,9.8a4.35,4.35,0,0,0,.56,2.43c.44.62-.26-1.21,0-.5.14.41.12.89.26,1.32.48,1.5.28-1,.08.14a4.46,4.46,0,0,0,.48,2.74c.67,1.81.26,4.24,1.52,6.14l-.3-2.31a4.27,4.27,0,0,0,.33,3.82v-3a5,5,0,0,0,0,5.3c1.73,3.45,6.91.41,5.18-3-.53-1,0-.13,0,.38-.44,1.05-.48,1.24-.13.58a2.89,2.89,0,0,0,.27-.56,5,5,0,0,0-.51-3.41l.31,2.31a3.5,3.5,0,0,0-.05-3.18c-.58-1.29-.33,1.22.06.13a5.14,5.14,0,0,0-.15-1.55,11.67,11.67,0,0,0-1.57-4.94l.3,2.31a7.33,7.33,0,0,0-.22-4.11,14.68,14.68,0,0,0-.57-1.43c.31.67.43,1,.09.05a4.6,4.6,0,0,0-1.43-2.26c-2.87-2.56-7.13,1.67-4.24,4.24Z" style="fill:#1c1b1f"/></svg>