<svg id="레이어_1" data-name="레이어 1" xmlns="http://www.w3.org/2000/svg" viewBox="0 0 128 128"><path d="M59.7,25a52.16,52.16,0,0,0-13.34,2.63c-23.47,7.05-34.14,26.24-29.78,46,1.61,7.28,6.92,14,14.13,15.86a10.34,10.34,0,0,1,2.64.86,9.34,9.34,0,0,1,2.33,2.32c4.88,5.91,12.23,9.4,19.77,10.75,10.08,1.8,21.57.24,30.4-5.77,3.36-2.28,9.75-4.88,9.08-8.89a13.48,13.48,0,0,0,11.25-7.29C108,77.85,108,73.6,107.7,69.56c-.64-7.64-1.93-16.09-5.74-23-4.63-8.44-12.91-10.24-20.34-15.37A36.62,36.62,0,0,0,59.7,25Z" style="fill:#926d50"/><path d="M37.12,34.64a9.83,9.83,0,0,0,2.18-.83c.4-.24.43-1.24.61-1.36s1.49-.22,2-.43c1.33-.55,2.28-1.49,3.9-1.84,3.92-.87,7.89-3.05,11.88-2.59a58.14,58.14,0,0,0,7.8.39c1.7,0,1.44-.37,3.13.33a23.24,23.24,0,0,0,2.56.84c2.18.62,4.52,1.26,6.69,2.09,3,1.15,5.43,3.15,8.06,4.8.74.47,1.66,1.46,2.31,1.78s1.35.22,1.93.49c2.12,1,4.12,3.28,6.12,4.61,5.28,3.55,6.27,9.43,8.4,15,1,2.47.38,5.43,1,8.05.21,1,1.2,2.54,1.24,3.43,0,1.12-1.09,1.94-1.07,3,0,.28.67,2.21.74,1.64,0-.27-.87.56-.92.87-.48,3-.49,7-2.73,9.4-1.68,1.8-5.13,4.24-7.78,3.7-1-.21-3.71-1.61-4.33-2.58-.42-.66-.17-1.61-.5-2.35-.84-1.87-1.36-1.7-1.38-3.84a6.6,6.6,0,0,0-.19-2.35,8.68,8.68,0,0,1-.47-4.33,16.58,16.58,0,0,0-.11-4.33c-.26-1.9-3.15-1.09-2.89.8.43,3.18-1.15,4.31,0,7.51.7,1.93,0,3.37.45,5.21.26.94,1.24,1.52,1.61,2.38.28.68.07,1.5.35,2.15.82,1.87,3.51,3.11,5.16,4,3.8,2,8.05.12,11.09-2.63a14.31,14.31,0,0,0,4-6.6c.59-2.24.27-4.1,1.72-6a1.46,1.46,0,0,0,0-1.51c-1-1.69.53-2.53.45-4.47,0-1.17-1.3-2.6-1.56-3.85-.35-1.65.07-3.23-.08-4.81-.24-2.65-1.57-4.62-2.42-7.09-.67-2-.89-4.28-1.83-6.17a18.8,18.8,0,0,0-5.32-6.12c-2.11-1.45-4-3.16-6.19-4.54-.48-.31-1.2-.7-1.64-1s-1.4-1-1.73-1.18c-2.5-1.34-4.5-3-6.93-4.49s-6-2.55-8.83-3.42c-1.21-.38-2.21-.21-3.51-.73-1.48-.6-.79-1.29-2.91-1.29-1.17,0-2.42.21-3.59.29-2.54.17-5.48-.77-7.92-.45a16.52,16.52,0,0,0-2.27.8c-.88.24-1.58.06-2.39.25-2.31.52-4.43,1.6-6.78,2.19a19.44,19.44,0,0,0-5.12,2.05c-.93.59-1.8,2-2.73,2.32-1.85.55-1.07,3.44.79,2.9Z"/><path d="M29.3,35c-1.52,1.59-3.52,2.95-5.2,4.46a43.45,43.45,0,0,0-4.28,3.71c-2.21,2.67-3.48,6.18-4.85,9.53S14.1,59,13.66,62.58a15.58,15.58,0,0,0-.56,3.12c.09,1.16.75,2,.89,3,.35,2.69.12,3.46,1.25,6.39,1,2.59,1,3.84,2.25,6.12.59,1.07.9,2.09,1.52,3.1a46.45,46.45,0,0,0,4.46,5.86,7.31,7.31,0,0,0,3.78,2.24C37.88,93.56,39.68,81.3,40.19,73.29c.12-1.93-2.88-1.92-3,0-.28,4.43-1,10.39-3.74,13.92C32.36,88.6,31,88.76,29.27,89c-2.65.4-2.86-.27-4.64-2.65a29.81,29.81,0,0,1-4-6c-.71-1.69-1.32-3.15-1.91-5-.34-1.09-1.21-2.09-1.37-3.2s.24-1.66.1-2.54c-.37-2.3-1.39-3.23-1-5.84a24.65,24.65,0,0,0,.52-4.4c-.09-3.14,1-6.15,2.34-9.09a21.75,21.75,0,0,1,2.5-4,18.88,18.88,0,0,1,2.77-2.63c1.18-1,2.24-2.54,3.46-3.66s2.33-1.66,3.43-2.81c1.33-1.39-.78-3.51-2.13-2.12Z"/><path d="M32.93,92.1c1.7,1.31,4.33,2.86,5.22,4.82a1.52,1.52,0,0,0,1.3.74c1.49,0,.78.77,1.92,1.46a34.81,34.81,0,0,0,3.32,1.33c1.42.69,2.79,1.62,4.32,2.31a32.57,32.57,0,0,0,16.75,2.69c2.62-.28,4,.25,6.57-.65s5.5-1.29,7.88-2.69a52,52,0,0,0,5.36-3.91c1-.75,2.09-.87,3.12-1.49,1.82-1.1,3-3.26,4.62-4.58S92.68,88.8,91.19,90s-2.48,2.62-3.85,3.69c-1,.75-2.06.84-3,1.52-.69.49-1,1.22-1.69,1.67s-2,.67-2.85,1.27c-2.34,1.61-4.14,2.11-7.08,3.16-.47.17-1.76,1-2.14,1.05-1.32.3-1.87-.48-3.07-.46-2.58.06-4.94,1-7.62.74a30.36,30.36,0,0,1-7-2.06A30.08,30.08,0,0,1,48,98.66c-1.47-.88-4.56-1.56-5.41-3.2a1.5,1.5,0,0,0-1.29-.74c-1,0-1.43-1-2.19-1.71-1.34-1.25-3.15-2.34-4.65-3.5s-3,1.43-1.51,2.59Z"/><path d="M56,43c-.09-2.45.12-5.41,2.34-6.57,1.9-1,4.4,0,5.65,1.73a11.54,11.54,0,0,1,1.72,6c.53,6.77.06,13.67,1.73,20.27a5.43,5.43,0,0,0,1,2.23,9.15,9.15,0,0,0,1.83,1.44A13.11,13.11,0,0,1,75,75.51a38.41,38.41,0,0,1,1,8.83c.08,2.61.11,5.39-1.33,7.6-2,3-6.1,4-9.81,4.06-4.4.08-9.12-.87-12.15-4-3.32-3.38-3.86-8.65-2.59-13.16a30.42,30.42,0,0,1,4-8.14c2-3.08,2.77-4.09,2.64-7.79Q56.29,53,56,43Z" style="fill:#ebe2db"/><path d="M68.21,76.45a2.4,2.4,0,0,0-.73-1.09,1.52,1.52,0,0,0-.83-.47A5,5,0,0,0,66,75c-.22,0-.45-.12-.67-.07-.55.1-1.07.32-1.62.44a8.66,8.66,0,0,1-1.35.08,7.72,7.72,0,0,1-1.36,0c-.1,0-.19-.1-.3-.13-.6-.13-1.2-.21-1.81-.3a2.55,2.55,0,0,0-1.77.21,2.3,2.3,0,0,0-1,1.4,3.65,3.65,0,0,0,.29,2,6.29,6.29,0,0,0,1.2,1.65,10.43,10.43,0,0,0,1.25,1.32,11,11,0,0,0,1.57.9,3.88,3.88,0,0,0,1.77.53,4.33,4.33,0,0,0,2.25-.62A13.68,13.68,0,0,0,66,81.18a9.07,9.07,0,0,0,1.29-1.41A5.62,5.62,0,0,0,68,78.53a3.44,3.44,0,0,0,.27-1.41A2.5,2.5,0,0,0,68.21,76.45Z" style="fill:#1c1b1f"/><path d="M61.27,83.08a9.66,9.66,0,0,0,0,1.07c-.06.45,0,.47.05.07s.1-.38-.15,0c-.28.07-.75.63-1,.79a6.22,6.22,0,0,1-1.22.52c-1.88.56-4.14-.76-4-2.82s-2.85-1.92-3,0c-.27,3.47,3.25,6.34,6.62,5.94a8.4,8.4,0,0,0,4.26-1.85c1.29-1.11,1.46-2,1.5-3.67,0-1.93-3-1.93-3,0Z" style="fill:#1c1b1f"/><path d="M61.05,83c0,1.58.13,2.33,1.3,3.44a8,8,0,0,0,4.19,2.15c3.48.37,7.26-2.39,6.93-6-.17-1.91-3.17-1.93-3,0s-1.92,3.34-3.76,3a6.3,6.3,0,0,1-3.07-2l.44,1.06c0-.52,0-1,0-1.55a1.5,1.5,0,0,0-3,0Z" style="fill:#1c1b1f"/><path d="M72.72,69a4.48,4.48,0,0,1,4.78-1.37c1.88.46,2.68-2.44.8-2.9-2.68-.65-5.92-.16-7.71,2.15a1.57,1.57,0,0,0,0,2.12,1.52,1.52,0,0,0,2.13,0Z"/><path d="M54.64,66.93c-1.81-2.33-5-2.78-7.68-2.2-1.89.4-1.09,3.3.79,2.89a4.63,4.63,0,0,1,4.77,1.43c1.19,1.52,3.29-.62,2.12-2.12Z"/></svg>