<svg id="레이어_1" data-name="레이어 1" xmlns="http://www.w3.org/2000/svg" viewBox="0 0 500 300"><path d="M420.38,129.92a5,5,0,0,0-.19-3.22,4.51,4.51,0,0,0-3.07-5.56,4.88,4.88,0,0,0-.75-1.79,6.05,6.05,0,0,0,.65-.83c2.08-3.21-.65-7-4.34-7.17a8.28,8.28,0,0,0-2.53.42c-.41.11-2.69.55-1.39.59a4.86,4.86,0,0,0-3.05.84l-.09-.31a4.74,4.74,0,0,0-.65-1.29,7.58,7.58,0,0,0,0-3.25c-.87-3.36-5.45-4.5-8.11-2.35l0,0a5.33,5.33,0,0,0-6.93-1.69,5.55,5.55,0,0,0-4.58-2,5.13,5.13,0,0,0-7.49-.54l-.19.19a5.16,5.16,0,0,0-6.75-1.24A5.72,5.72,0,0,0,368,102a7.77,7.77,0,0,0-.82.8,5.28,5.28,0,0,0-.85-.28,4.26,4.26,0,0,0-2.69-.77,11.06,11.06,0,0,0-2,.33,5.24,5.24,0,0,0-3.87-2.44,0,0,0,0,1,0,0,5.21,5.21,0,0,0-7.38-2.74,5.4,5.4,0,0,0-.8.07,5.74,5.74,0,0,0-6.84,1.83,12.3,12.3,0,0,0-1.63,5.45,4.92,4.92,0,0,0-1.07-.33,3.74,3.74,0,0,1-.61-.78c-.37-.69.59,1,.08-.47a5.49,5.49,0,0,0-1.77-2.56,10.17,10.17,0,0,0-.63-1.77A5.11,5.11,0,0,0,330,96.81a5.4,5.4,0,0,0-6.64.66,6,6,0,0,0-2-.44,5.43,5.43,0,0,0-2.27-.33,16.17,16.17,0,0,0-6.69-.08,5.24,5.24,0,0,0-3-1.11,5.29,5.29,0,0,0-7.5-.94,5.43,5.43,0,0,0-2-.13,5.26,5.26,0,0,0-5.24-.58,5.83,5.83,0,0,0-2.24.13,7.51,7.51,0,0,0-4.33.12,5.54,5.54,0,0,0-3.67,3.41,5.9,5.9,0,0,0-1.67.22,6.47,6.47,0,0,0-.68-1.63A5.39,5.39,0,0,0,276.22,94a5.21,5.21,0,0,0-.79,0,5.52,5.52,0,0,0-4,.32,4.92,4.92,0,0,0-4.57.82A5.49,5.49,0,0,0,262.82,94a5.22,5.22,0,0,0-6.44,1.87,7.89,7.89,0,0,0-.85,1.66,4.79,4.79,0,0,0-.71-.46,1.86,1.86,0,0,0-.1-.2c-1.83-3-6.92-3.2-8.69,0a5.12,5.12,0,0,0-.25.53,5.55,5.55,0,0,0-.5-1.14A5.3,5.3,0,0,0,237.69,95a4.89,4.89,0,0,0-1.48.25,5.07,5.07,0,0,0-2-.31,4.91,4.91,0,0,0-6.06,2,5.81,5.81,0,0,0-.64,1.63,4.72,4.72,0,0,0-1.55,1.11h-.24a6,6,0,0,0-1.22-.47,5.41,5.41,0,0,0-5.29-.68l-.12-.08h0c-.05-.08-.08-.16-.13-.24-1.67-2.42-5.66-3.37-7.91-1l-.71.76c-1.8-2.56-6.32-3-8.25-.4a4.48,4.48,0,0,0-.58.29,5.57,5.57,0,0,0-6.68-1.1,5.44,5.44,0,0,0-2.72.07c-2.12-1.46-5.31-1.56-7,.58a6,6,0,0,0-.73.17,5.39,5.39,0,0,0-4.61.22,5.86,5.86,0,0,0-2.77-1c-2.18-1-5-.77-6.33,1.43a4.25,4.25,0,0,0-2.19,1.2,4.15,4.15,0,0,0-2.53,2.09c0,.07-.06.14-.1.2a6.11,6.11,0,0,0-2.45-.51,4.94,4.94,0,0,0-5.13,1c-.21-.13-.43-.25-.65-.36l0-.06a6,6,0,0,0-5.18-2.3,5.7,5.7,0,0,0-5.89-.5,4.11,4.11,0,0,0-4.33,2.3,8.49,8.49,0,0,0-.7,2.78,4.75,4.75,0,0,0-1.76.44,5.88,5.88,0,0,0-2.49-1.79,5.42,5.42,0,0,0-.63-1.1,5.26,5.26,0,0,0-8.52-.21,5.17,5.17,0,0,0-7.81,1.37h-.09a4.86,4.86,0,0,0-4.25-.81,6.9,6.9,0,0,0-3.21,1.77,6.17,6.17,0,0,0-3.21.41,6.43,6.43,0,0,0-1.51.13c-2-1.61-4.71-.82-6.44.8a5.11,5.11,0,0,0-8,2.25,4.14,4.14,0,0,0-.2.71,6.58,6.58,0,0,0-1.09-.06,5,5,0,0,0-4,.32,5.66,5.66,0,0,0-4.62-.4,5.49,5.49,0,0,0-.81,0c-2.36-2.21-6.14-.92-7.66,1.52a5.82,5.82,0,0,0-2.84,1.07,5.59,5.59,0,0,0-5.25-.31,5.18,5.18,0,0,0-2.83,1.1,5,5,0,0,0-6.12-.47,5.7,5.7,0,0,0-4.68,3,5.25,5.25,0,0,0-5.79.48,5.3,5.3,0,0,0-1.71.82,5.5,5.5,0,0,0-2,.61,5.44,5.44,0,0,0-6,.79,5.44,5.44,0,0,0-3.07.93,5.34,5.34,0,0,0-4.2-.68l-.92.24a4.92,4.92,0,0,0-3.52,3.33,6.35,6.35,0,0,0-.16,1.38,6.14,6.14,0,0,0-.47.42,5.16,5.16,0,0,0-4.53,4.33,4.7,4.7,0,0,0-2.53,4.19,6.29,6.29,0,0,0-1,.55c-1.33.92-2.71,2.38-2.49,4.11.12,1,.25,1.89.41,2.84a4,4,0,0,0,2.73,2.95c.34,2.1,2.07,3.73,4.84,4h.19a4.28,4.28,0,0,0,2,2.15,6.38,6.38,0,0,0-.64,1.28,3.87,3.87,0,0,0,0,2.58c-.35,2.13.5,4.68,2.54,5.56a4.64,4.64,0,0,0,3.62,4,5,5,0,0,0,4.07,3.55,6.19,6.19,0,0,0,.63.32,5.07,5.07,0,0,0,5.7,4.56,5.19,5.19,0,0,0,.88.66c0,.11,0,.21,0,.32a4.58,4.58,0,0,0,1.77,3.59,4.54,4.54,0,0,0,5.32,2.77c.94,1.67,3.21,2.45,5.28,2.28a6.79,6.79,0,0,0-.18,1c-.29,3,2.51,4.65,5.23,4.61a5.18,5.18,0,0,0,7.07,2.73,6.15,6.15,0,0,0,.71.28,5.14,5.14,0,0,0,7.3,3.45,4.6,4.6,0,0,0,1.69.17c0,.55-.07,1-.06,1,.34,2.31,3.36,3.84,5.77,3.47a5.5,5.5,0,0,0,5.52.21l.1-.07a7.43,7.43,0,0,0,1.81-.41,6,6,0,0,0,4.06-.08,8.59,8.59,0,0,0,0,3.57c.8,3.27,4.79,4.22,7.53,2.71a6,6,0,0,0,2.41,1.07,5.48,5.48,0,0,0,4.53,2.37,5.19,5.19,0,0,0,6.15-.67,4.09,4.09,0,0,0,.39-.44,4.13,4.13,0,0,0,.78-.15,5.21,5.21,0,0,0,4.64.39c1.41,2.15,4.35,3.51,6.9,1.88.2-.13.39-.27.57-.41a5.42,5.42,0,0,0,.85.31,9.92,9.92,0,0,0,.83,2c1.42,2.53,5.87,3.29,7.91,1a9.19,9.19,0,0,0,2.22-4.35c0-.21.05-.37.06-.49a7,7,0,0,0,.67-1.1,6.41,6.41,0,0,0,1.28.43,8.89,8.89,0,0,0,.18,1.42c0,.11,0,.19.06.29a11.52,11.52,0,0,0,1,4.85c1.72,3.49,6.77,2.67,8.7,0a5.72,5.72,0,0,0,.57-1.1,5.42,5.42,0,0,0,4.88-.44,6.48,6.48,0,0,0,.37.87,5,5,0,0,0,5.27,2.27,5.34,5.34,0,0,0,2.6.23l.56.36a4.86,4.86,0,0,0,4.4.26,5.11,5.11,0,0,0,3.64-1.37,11.71,11.71,0,0,0,1.71-2,7.62,7.62,0,0,0,.8,2.88c1.37,2.52,4.66,2.87,7,1.58a4.87,4.87,0,0,0,4.77-1.23A10.21,10.21,0,0,0,190,208a5.69,5.69,0,0,0,5.52,1.17l.37.37a12.78,12.78,0,0,0,.88,2.51,5.18,5.18,0,0,0,7,1.53,5.43,5.43,0,0,0,1.48.36,5.56,5.56,0,0,0,6.79-1.81,6,6,0,0,0,.71-1.57,5,5,0,0,0,1.2-1.27c.07-.11.12-.22.18-.33a5.32,5.32,0,0,0,6.4-.27,4.45,4.45,0,0,0,2.77,1.88,5.68,5.68,0,0,0,.73,2,5.26,5.26,0,0,0,7.94.92,6.24,6.24,0,0,0,1.14-.07,5.54,5.54,0,0,0,5,.23,5.75,5.75,0,0,0,4.14-.52,5.15,5.15,0,0,0,6,1.16,5.35,5.35,0,0,0,7.77-1.13l.08-.15.44-.06a4.58,4.58,0,0,0,3.19,1.31,5.23,5.23,0,0,0,4.87.69,5.62,5.62,0,0,0,4,.09,5.53,5.53,0,0,0,3.94-1.7c.93,1.12,2.4,1.79,4.77,2a4.9,4.9,0,0,0,3.79-1.64l.24.1c1.62,1.59,4.62,2.23,6.56.86a4.5,4.5,0,0,0,4.83-1.24,5.31,5.31,0,0,0,5.84-3.29,6,6,0,0,0,.33-1.23,5.54,5.54,0,0,0,6.62-.41c.57.23,1.19.45,1.88.72a4.3,4.3,0,0,0,3.57-.34,5.49,5.49,0,0,0,.62.75,5.29,5.29,0,0,0,8-1.11,5.26,5.26,0,0,0,1.89-.78,5.45,5.45,0,0,0,7.06-.62,5.63,5.63,0,0,0,5.46-3.55c.05-.13.09-.26.13-.39a6.62,6.62,0,0,0,2.76-.25,5,5,0,0,0,6.9-2.87c2.57,1.56,5.21.19,6.54-1.92a4.81,4.81,0,0,0,2-.49,5.42,5.42,0,0,0,5.68-3.53,9.32,9.32,0,0,0,.22-3.86,7.53,7.53,0,0,0,.72-.8,4,4,0,0,0,1-.21,9.31,9.31,0,0,0,2.48,1.84,5.18,5.18,0,0,0,6.81-1.73c3.24,1.51,6.49-.9,7-4a5.14,5.14,0,0,0,4.82-2.88,5.16,5.16,0,0,0,.67-.32,11.41,11.41,0,0,0,2.2,1,5,5,0,0,0,6.37-4.41,4,4,0,0,0,1.43-3.36,7.2,7.2,0,0,0-.22-1.23,10.41,10.41,0,0,0,3.29,2c3.91,1.39,6.66-2.53,6.21-5.71a5.21,5.21,0,0,0,2.89-3,8.9,8.9,0,0,0,2.06,0c2.55-.31,4.59-1.8,5-4a4.55,4.55,0,0,0,2.21-6,4.88,4.88,0,0,0-.52-3.13,3.74,3.74,0,0,0-.51-.72,5.08,5.08,0,0,0-.17-1.12,8.53,8.53,0,0,0-1.07-2.45,5.43,5.43,0,0,0,1.31-.69,7.34,7.34,0,0,0,1.79-.13,4.38,4.38,0,0,0,3.58-4,4.79,4.79,0,0,0,.73-3.07,4.69,4.69,0,0,0,1.28-7A4.62,4.62,0,0,0,420.38,129.92ZM212.54,214.79c.52,1.26,0,1,0,0ZM408.83,114.1c.47-.65.45-.4,0,0ZM142.06,211.69c-.14.43-.39.64,0,0Z" style="fill:#b5cae2"/><path d="M477.59,62.05a5.11,5.11,0,0,0-1-7.84,5.37,5.37,0,0,0,.73-3.26,5.69,5.69,0,0,0-1-5.73c-.42-.52-.93-.91-1.35-1.42a4.17,4.17,0,0,0-2.08-1.27,5.09,5.09,0,0,0-8.37.44,3,3,0,0,0-.24.48,5.86,5.86,0,0,0-.85.21,4.82,4.82,0,0,0-2.76-1.07,5.11,5.11,0,0,0-6.13.66,4.93,4.93,0,0,0-5.81,2.9,4.5,4.5,0,0,0-2.67.71,6.78,6.78,0,0,0-3.1,1.41,9,9,0,0,0-.84.78,5.08,5.08,0,0,0-5.45,2.45,4.3,4.3,0,0,0-2,4s0,.09,0,.14a5.34,5.34,0,0,0-2.92.28h-.11A4.56,4.56,0,0,0,427,59.42a5,5,0,0,0-3.74,3.5,10,10,0,0,0-.24,1,5.24,5.24,0,0,0-3.67,4.82A5.51,5.51,0,0,0,415.86,73a4.87,4.87,0,0,0-2,3.6,5.14,5.14,0,0,0-.88,3.55,3.68,3.68,0,0,0-.39.3,5.77,5.77,0,0,0-1.32,1.78,5.23,5.23,0,0,0-1.88,2.3,5.44,5.44,0,0,0-1.14,4.59c-1.79,1.33-2.84,3.91-1.88,6a7.22,7.22,0,0,0-.07,1,4.37,4.37,0,0,0-.63,2.69,5.06,5.06,0,0,0-1.58,3.07,7.93,7.93,0,0,0-1.91,5,5,5,0,0,0-.43,2.4c-2.05,1.42-2.26,4.31-1.18,6.42a4.83,4.83,0,0,0-.25,1.51c-2.9,2.53-1,7.17,2.32,8.29-1.51,1.44-2.55,3.23-1.88,5.69a4.22,4.22,0,0,0,.12,2.51,5.13,5.13,0,0,0,.18,3,5.34,5.34,0,0,0,.83,5.29,5.25,5.25,0,0,0-.63,3.44,4.77,4.77,0,0,0,1.09,5.52,5,5,0,0,0,1.6,4.81,4.21,4.21,0,0,0,.55.93,4.64,4.64,0,0,0,.59,2.19,4.05,4.05,0,0,0,.1,4.56,5,5,0,0,0,2.22,6,8.46,8.46,0,0,0-.56.83c-1.65,2.76-.35,5.44,2,6.76a5.54,5.54,0,0,0,2.73,3.27,4.05,4.05,0,0,0,2.67,1.74h.12a.21.21,0,0,1,0,.06,7.23,7.23,0,0,0-.45,1.1,5.19,5.19,0,0,0,3.8,6.31,2.92,2.92,0,0,0,.48.29,9.88,9.88,0,0,0,1,.41A5,5,0,0,0,423,192a4.57,4.57,0,0,0,4.06,4.73,4.67,4.67,0,0,0,4.84,2.6l.44.32h0c1.51,2.8,5.18,3.11,7.52,1.35a11.16,11.16,0,0,0,2.39,2,5,5,0,0,0,6.22-1,5.37,5.37,0,0,0,3.15,0c.35.09.7.17,1.07.24a5.3,5.3,0,0,0,5.57-2.18,4.73,4.73,0,0,0,4.16-1.38,7.74,7.74,0,0,0,2-6.07,6.07,6.07,0,0,0,.75-.61,4.59,4.59,0,0,0,1.18-5,5.23,5.23,0,0,0,.41-4.9,4.31,4.31,0,0,0-1.43-4.34v-.15a6.25,6.25,0,0,0,.93-3.94,5.39,5.39,0,0,0-1.36-3.37,5.05,5.05,0,0,0-1.07-3.73,4.68,4.68,0,0,0-2.48-4.88,5.22,5.22,0,0,0-2.84-4,5.09,5.09,0,0,0-1.78-4.77,4.59,4.59,0,0,0-1.39-3.11,6.9,6.9,0,0,0-3.12-1.77,4.57,4.57,0,0,0-.66-1.43,5,5,0,0,0-3.44-5.1,4.81,4.81,0,0,0-2.09-1.05,5.16,5.16,0,0,0-2.76-4,5,5,0,0,0-1.55-1.13,4.92,4.92,0,0,0-1.89-1.43,4.92,4.92,0,0,0-2.43-3.49,10.06,10.06,0,0,0-1.91-.79,6.16,6.16,0,0,0-3.18-2.61l.62.2a5.1,5.1,0,0,0-3.47-1.51,4.87,4.87,0,0,0,2.29-1.9c2.58,1.62,5.33.14,6.63-2.16a5.9,5.9,0,0,0,4.94-3.17,4.86,4.86,0,0,0,3.94-2.19,4.4,4.4,0,0,0,1.37-1.28,5.44,5.44,0,0,0,5.19-3.24,6.38,6.38,0,0,0,1.94-.77,6.88,6.88,0,0,0,3.37-5.4,5.41,5.41,0,0,0,1.15-.8,5.91,5.91,0,0,0,1.89-5.67c0-.08-.05-.15-.07-.22a5.62,5.62,0,0,0,.19-.58,10.33,10.33,0,0,0,4.74-1.62,5,5,0,0,0,2.19-2.73,5.14,5.14,0,0,0,1-5,5.27,5.27,0,0,0,3.09-4.69A5,5,0,0,0,475,79.87a5.17,5.17,0,0,0,.1-4,4.22,4.22,0,0,0,.05-2.63l.07-.18a5,5,0,0,0,1.21-3.67c.2-.15.39-.31.59-.49a5.16,5.16,0,0,0,.6-6.44C477.59,62.36,477.58,62.2,477.59,62.05ZM458.12,172.57l.12,0Zm-39.9,11.54c.11.07.12.1,0,0Z" style="fill:#727272"/><path d="M395.25,119.26q2.4-5.08.38-2.56a16,16,0,0,0-1.17,1.44,7.57,7.57,0,0,0-1.75,3.48c-.43,3.16.27,6.37,3.28,8.07a9.8,9.8,0,0,0,5.5,1.14,5.74,5.74,0,0,0,2-.24q2.51,0-1.37-1.13-3.46-2.45-1.58.11l-.72-5.51q1.91-2.85.39-.84a7.09,7.09,0,0,0-1.84,3.15c-.45,1.19-.24,1,.65-.61q2-2.57-.57-.2a13.77,13.77,0,0,0-3.74,6.51,7.66,7.66,0,0,0,4,8.59,19.07,19.07,0,0,0,3.28,1.24l1.88.51q3,1.11-2.08-2.25v-7.22c2.55-3.31,3.62-3,.15-2a10.6,10.6,0,0,0-3.7,1.71c-3.55,2.75-3.07,6.33-2.18,10.24l.72-5.51c-2.18,3.4-4,7.09-.45,11a16.34,16.34,0,0,0,3,2.32,15.86,15.86,0,0,0,2,1.19c2.3,1.05.06,2.15-1.26-2.57l3.28-8.08q2.93-.72.58-.53a10.91,10.91,0,0,0-1.9.17,8.43,8.43,0,0,0-3.77,1.22,7.5,7.5,0,0,0-3.28,8.08,8.23,8.23,0,0,0,1.31,2.91l1.12,1.44q1.35,1.74.08-.42l1.84-7q3.19-1.65,1-.7a7.07,7.07,0,0,0-3.16,1.84,7.33,7.33,0,0,0-2.63,5.51,9,9,0,0,0,1.3,4.69c.33.52.67,1,1,1.53.88,1.52.81.92-.19-1.8l3.54-6.17c4.12-.25,5.11-.59,2.95-1-.6-.18-1.21-.34-1.82-.5a11,11,0,0,0-5.17-.21c-4.54,1.16-4.8,4.51-5.61,8.12l3.29-4.28c-2.24,1.57-4.82,2.54-5.72,5.89-.74,2.76.33,4.76.86,7.34V163.5l-.12.49,5-5-.42.1h3.8c-2.8-.65-4.81-2.08-7.89-1.25a7.38,7.38,0,0,0-4.49,3.33c-.32.51-2.71,7.18-.86,2.89l4.27-3.29-.57.11h3.8c-5.89-1.47-11.77-.2-13.72,6.55a8.5,8.5,0,0,0-.17,3.91q.1,1,.3,1.92,2.7-6.09.71-3.28c-1.6,1.28-2.94,3.76-4.1,5.23l5.06-2.1c.8,0,3.18,1.3,1.3.16a10.84,10.84,0,0,0-2.53-1.08,5.44,5.44,0,0,0-2.5-.26c1.35-.61,4.74,3.17,2.79.36a11.16,11.16,0,0,0-8-4.51c-2.47-.23-5,1.53-6.18,3.54-.22.37-2.4,6.46-1.11,7.25.29.18,1.18-5.47-.34-.34-.14.94-.26,1.89-.36,2.84q-.21,2.7.53-1.07l6.17-3.55,3.48,1.11-.7-.68a7.4,7.4,0,0,0-2.08-1.82,10.29,10.29,0,0,0-5.26-1.95c-2.58-.34-4.81,1.65-6.17,3.54a15,15,0,0,0-2,4.31,11.73,11.73,0,0,0-.74,3.43c-.11,1.75-1,2.2.48.09l6.17-3.55-.37,0,5.05,2.1c1.06.86-.76-1.19-1.11-1.72a12.8,12.8,0,0,0-3.54-3.82,7.74,7.74,0,0,0-10.07,1.26,7.07,7.07,0,0,0-1.84,3.16,1.83,1.83,0,0,1,1.92-1.68c-.48-1.34-5.9,1.65-6.44,2.15a8.64,8.64,0,0,0-2.36,4.24c-1.1,4.27,3.29-1.83.05-.17l5.51-.72c.06,0,2.42,1.37,2.46,1.33a23.37,23.37,0,0,0-1.67-2.33,12.24,12.24,0,0,0-4.67-3.63c-2.71-1.36-7.21-2.36-10.36.61a8.23,8.23,0,0,0-2.23,4c-.29,1.17-1.48,6.51.35,2.82,1.93-3.89-1.16,1.17-1.49,2.47-.17.67-.66,2.6-.41,3.25-.17,1.15.11.68.84-1.39q2.11-2.91-.3-1.32l5.51-.72c1.58.32,1.17.42-.29-.5a10.05,10.05,0,0,0-2.41-1.2,10.8,10.8,0,0,0-6.26.35,8.57,8.57,0,0,0-4.75,3.17,8.71,8.71,0,0,0-1.42,2.86c-.48,1.71-1.15,1.73.78-.41l7-1.84c2.8.87,3.11,2.21,1.41-.19a14.4,14.4,0,0,0-2-2.49,15.36,15.36,0,0,0-6.58-3.25c-2.37-.43-5.28-.19-6.95,1.84a10,10,0,0,0-2.29,4.22c-.14.94-.26,1.89-.36,2.83-.3,2.12.19,1.44,1.45-2l7-1.84c-3-.53-5.44-1.82-8.46-.14a9.1,9.1,0,0,0-3,3c-.69,1.1-2.52,3.29-.25,1.22l5.05-2.1c-3.8,0,3.35,3.31.05.31a9.21,9.21,0,0,0-4.22-2.4c-2.31-.53-5.34-.15-6.95,1.84a9.85,9.85,0,0,0-2.43,6.21,15.64,15.64,0,0,0,0,2.27c.21,2.86-1.4,2.2,1.73-1.63l7-1.84c3.64,1.11,3.77,3.49,2.2.76-.36-.62-.77-1.21-1.18-1.79a9.58,9.58,0,0,0-5.16-4,7,7,0,0,0-7,1.84,9.82,9.82,0,0,0-2.45,6.2,18.28,18.28,0,0,0,0,2.22c.18,2.9-1.41,2,1.7-1.69l7-1.84c4.23,1.54,4.06,3.64,2.35.27-.58-1.15-1.08-2.33-1.69-3.46-1.4-2.62-2.89-4.43-5.78-5.49a7,7,0,0,0-7,1.84,10.07,10.07,0,0,0-2.37,7.06c0,.93.11,1.87.16,2.79.17,3.82-1,2.28,1.91-1.22l5.06-2.1c-6.27-.56,3.12,1.3,2.22,1.86,0,0-1.57-2.69-1.73-2.94a10.38,10.38,0,0,0-5.63-4.85,6.91,6.91,0,0,0-7,1.84,9.94,9.94,0,0,0-2.46,6.24,20.14,20.14,0,0,0-.05,2.33c.18,2.9-1.43,2.24,1.7-1.54l7-1.84c-1.67-.34-4.11-2-6.83-1.33-2.26.58-4.29,2.55-6.3,3.72l5.51-.72c1.25.46,3,3.23,2.4,1.09A8.11,8.11,0,0,0,285,202a10,10,0,0,0-4.53-3.2,7,7,0,0,0-6.95,1.84,9.46,9.46,0,0,0-2.36,4.51,7.53,7.53,0,0,0-.36,2.83c.31,1-2.14,2.08,1.38-1.79l7-1.84q4.44,3.94,2.62,1.3c-.31-.55-.63-1.09-1-1.62a14.22,14.22,0,0,0-2-2.54c-3.24-3-7-2.45-10.49-.25a9.12,9.12,0,0,0-4.54,6.41,27.43,27.43,0,0,0-.32,3.5c0,.66,0,1.31-.07,2-.24,2.17.3,1.25,1.63-2.78l7-1.83c-.8-.21-1.59-1-2.44-1s2.17,2.12,2.14,1.35c-.06-1.27-2.75-3.6-3.8-4.23-5-3,2.17,1.94-1.32-1a8.27,8.27,0,0,0-6.54-2.16c-4.17.59-7.66,3.08-8.89,7.14a12.18,12.18,0,0,0-.82,4c.28,2.27.85-2.56,1.95-2.57a5.45,5.45,0,0,0-2,1.84c-1.23,1.45-.62,1.1,1.83-1l5.5.72c3.67,2.72,2.7,4,2,1.21a18.32,18.32,0,0,0-.94-2.6,8.91,8.91,0,0,0-3.82-4.73c-2-1.14-5.2-1.5-7.21,0a9.93,9.93,0,0,0-3.87,5.25,16.13,16.13,0,0,0-.58,2.06c-.59,2.87-1.81,1.19,2-1.24h7.22c3.45,2.43,2.7,4.07,2,1.11a20.9,20.9,0,0,0-.7-2.16,9.65,9.65,0,0,0-4-5.28,7,7,0,0,0-7.22,0,10.15,10.15,0,0,0-3.26,3.45c-.37.86-.73,1.72-1.07,2.58-.84,1.93-.23,1.4,1.84-1.57h7.22c2.83,1.65,1.65,1.38.47,0a9.51,9.51,0,0,0-3.95-3.22c-3.87-1.52-5.75.44-8.92,1.95h7.22c1.27.89,2.55,4.46,2,1.36a12.83,12.83,0,0,0-.74-2.19,10,10,0,0,0-3.88-5c-1.9-1.27-5.34-1.42-7.22,0a10.28,10.28,0,0,0-4.05,6.22c-.24.93-.36,1.91-.56,2.85-.11.62-.24,1.24-.38,1.86q-.94,3.08,2.51-2.33H237q3.5,5.49,2.49,2.47c-.14-.57-.28-1.15-.41-1.73-.21-.88-.36-1.78-.62-2.65a9.85,9.85,0,0,0-4.1-6.07c-1.93-1.27-5.31-1.43-7.22,0a10,10,0,0,0-4,5.92c-.26.91-.41,1.87-.62,2.8-.77,3.38-1.47,1.78,2.12-.81h7.22c1,.62,2.18,4.12,2,1.86a9.13,9.13,0,0,0-1.21-3,9.4,9.4,0,0,0-3.38-3.7,7.05,7.05,0,0,0-7.22,0,10.6,10.6,0,0,0-3.08,2.89c-1,1.41-2.35,2.09.51.28h7.22c-3.09-1.63-5.79-5.79-10.66-4.49a8.14,8.14,0,0,0-4.76,3.77,13.88,13.88,0,0,0-1.2,2.76c-.84,2.75-1.92,1.33,1.65-1h7.22c4.13,3,2.49,4.05,2.14,1.21a17.18,17.18,0,0,0-.68-2.72,9.82,9.82,0,0,0-4-5.57c-2.1-1.49-5.08-1.12-7.22,0a13,13,0,0,0-6,5.79,21.72,21.72,0,0,0-1.09,3.34c-.16.64-.32,1.29-.49,1.93q-1.08,3.06,2.32-2.11h7.22c4.72,3.47,2.42,4,2.25,1.34a16.43,16.43,0,0,0-.7-3.24,9.75,9.75,0,0,0-4-5.9c-2-1.5-5.13-1.14-7.22,0a17.4,17.4,0,0,0-2.87,2.41,22.59,22.59,0,0,0-2,1.57c-.89.92-2.59,2-.4.87l5.51-.72c-3.33-1,1.34,1.06,1,1.66-.1.17-.59-1.57-.87-2.09a9.85,9.85,0,0,0-3.45-3.8,7.17,7.17,0,0,0-7.22,0c-1.33.78-4.53,3.79-4.5,5.82q3.1-4.65,6.14-1.27c1.95,1.81,2.5,2,1.63.49-.07-1.3-1.78-2.83-2.65-3.54-2.85-2.31-6.13-2.11-9.24-.45-2.57,1.38-3.45,2.54-5.36,3.1l5.51.72c1.27.93,2.48,4.4,2.15,1.43a10.27,10.27,0,0,0-.6-2.1,10.08,10.08,0,0,0-3.82-5c-2-1.51-5.17-1.14-7.21,0a9.11,9.11,0,0,0-3.79,4.66,11.17,11.17,0,0,0-1,2.51c-.19,1.66-1.17.3,1.82-1.38l8.66,1.11c2.07,1.62,1.1,2.44.87.1a14.9,14.9,0,0,0-.43-2.29c-.45-1.74-1.07-3.7-2.54-4.88-2.5-2-5.72-2.86-8.66-1.11-2.18,1.29-3.22,3.24-4.09,5.51a12,12,0,0,0-.91,2.67c-.19,1.73-1,.45,1.89-1.31l5.51-.72q-1.29-.21-2.58-.45-4.3-1.2,2,3.87a12.85,12.85,0,0,0-.45-2.58c-.43-2.67-.62-5.34-2.8-7.31a7.42,7.42,0,0,0-8.66-1.12c-2.42,1.27-3.39,3.62-4.3,6-.33.86-.61,1.74-.91,2.6-1,3.06-.57.37,1.71-.85h7.21q2.29,2.54.83.61a7.17,7.17,0,0,0-2.57-2.56,7.35,7.35,0,0,0-4.2-1.38,9.17,9.17,0,0,0-4.18,1.16,23.5,23.5,0,0,0-2.07,1.66q-1.83,1.73,1.36-.45l7,1.84c1.18,2.54,1.52,3,1,1.3-.14-.62-.28-1.24-.45-1.86a9.36,9.36,0,0,0-2.41-4.12c-6.65-6.36-16.78,3.73-10.11,10.11-.68-.65-1.19-3.33-1-1.29a9,9,0,0,0,.59,2.19,8.62,8.62,0,0,0,3.76,4.9,7.57,7.57,0,0,0,6.05.54,8.91,8.91,0,0,0,3.46-2.11c1.28-1.23,1.66-.71-1,.17l-5.51-.72c-1.51-1-1.9-1.62-.29.12a13.16,13.16,0,0,0,2.63,2.24,7.18,7.18,0,0,0,7.21,0c2.42-1.29,3.37-3.6,4.28-6,.32-.85.6-1.73.9-2.6,1.05-3.06.58-.33-1.68.85l-8.66-1.12c-1.48-1.33-1.25-3.59-1.13-.85a19.75,19.75,0,0,0,.7,4.43c1.25,4.3,4.57,5.54,8.62,6.23s8,.71,10.39-3.31a20.94,20.94,0,0,0,1.59-3.85c1.13-3.18,1.31-1.72-1.42-.1l-8.67-1.11c-2.08-1.68-1.1-2.4-.88-.1a15.94,15.94,0,0,0,.43,2.29c.45,1.73,1.08,3.73,2.55,4.88,2.58,2,5.65,2.82,8.67,1.11a9,9,0,0,0,3.77-4.65,11.17,11.17,0,0,0,1-2.51c.19-1.66,1.19-.3-1.81,1.38h-7.21c-3.84-2.89-2.47-3.73-2-1a12.33,12.33,0,0,0,1.2,3.35,7.67,7.67,0,0,0,5.76,4.14c4.87.66,8.51-3.29,12.51-5h-7.22c-2.28-1.51-2.06-2-.94.11a9.93,9.93,0,0,0,1.52,2.11c2.08,2.09,4.62,2.41,7.42,2.2s4.88-.94,6.64-3.09a10.46,10.46,0,0,0,1.34-2.09c1-2,1.73-1.5-1,.1h-7.22c-1.91-1.24-2.48-3.2-1.16-.05a8.57,8.57,0,0,0,1.82,2.84,12.28,12.28,0,0,0,7,3,8.15,8.15,0,0,0,7.06-2.86l1.11-1.45c-1.22,1-1.34,1.16-.33.55a22.67,22.67,0,0,0,2-1.93h-7.22c-4.72-3.46-2.41-4-2.25-1.34a16.45,16.45,0,0,0,.71,3.24,9.73,9.73,0,0,0,4,5.9,6.94,6.94,0,0,0,7.22,0c2.58-1.81,3.55-4,4.37-6.91.13-.45,1.07-3,.86-3.26q-4.63,4.23-1.71,2.51a12.65,12.65,0,0,1,1.72-1.29h-7.22c-4.12-2.93-2.48-4.07-2.13-1.22a16.3,16.3,0,0,0,.69,2.73,9.85,9.85,0,0,0,4,5.57,7,7,0,0,0,7.22,0,9.56,9.56,0,0,0,3.58-4.18,13.54,13.54,0,0,0,.85-2.08c.72-2.44,1.47-.74-1.83,1.4h-7.22c2.3,1.11,2.86,2.55,5.15,3.76a7.22,7.22,0,0,0,7.22,0,10.22,10.22,0,0,0,3.08-2.89c1-1.38,2.39-2.16-.51-.27H222c-2.21-1.4-2.58-2.66-1,.65a9.56,9.56,0,0,0,3.57,4.17,7,7,0,0,0,7.22,0,9.86,9.86,0,0,0,4-5.92c.27-.92.42-1.87.63-2.8.75-3.35,1.48-1.89-2.14.81h-7.22q-3.48-5.49-2.47-2.48c.15.58.29,1.15.42,1.73.21.88.36,1.78.61,2.65a10,10,0,0,0,4.09,6.08,7,7,0,0,0,7.21,0,10.08,10.08,0,0,0,4.07-6.22c.25-.93.37-1.91.57-2.85.75-3.63,1.63-2.4-2.15.47h-7.22c-1.28-.86-2.52-4.46-1.95-1.35a14,14,0,0,0,.74,2.18,10.06,10.06,0,0,0,3.85,5c2.18,1.52,5,1.06,7.22,0,.93-.44,1.66-1.15,2.55-1.59h-7.21c-2-1.11-1.95-1.75-.45,0a11.49,11.49,0,0,0,3.07,2.86,7.12,7.12,0,0,0,7.22,0,9.6,9.6,0,0,0,3.3-3.46c.37-.85.73-1.71,1.08-2.57.85-1.94.22-1.41-1.89,1.57h-7.22c-3.35-2.12-2.63-4.18-1.89-1.11a20,20,0,0,0,.67,2.16,10,10,0,0,0,3.92,5.28,7,7,0,0,0,7.22,0,9.45,9.45,0,0,0,4-5.25,14.76,14.76,0,0,0,.61-2.06c.58-2.72,1.82-1.7-2.12,1.24h-7.21c-2.36-1.31-2.48-3.3-1.55-.31a15.6,15.6,0,0,0,1.49,3.69,7.91,7.91,0,0,0,10.93,2.44,6,6,0,0,0,2-1.74q2.38-3-.29.19c.85.77,3.5-4.41,3.52-4.46a12,12,0,0,0,.74-3c.11-.61.23-1.21.36-1.81q-5.67,4.41-1.94,2.62h-3.8c-.81-.29-2.6-2-1.42-.43a8,8,0,0,0,2.05,1.67c.41.23,1.74,1,2.27.89-1.18.25-3.78-3.75-2.12-.68s5.18,4.63,8.33,5.44a7.16,7.16,0,0,0,7-1.83c2-2.2,2.35-4.53,2.56-7.34a12.55,12.55,0,0,0,.11-2.93q.44-3.72-2.27,3.46c.54-1.18,1-1.53,1.52-1.05l-5.51.72c-1.41-.54-3.6-3.66-2.41-.87a11.19,11.19,0,0,0,1.17,1.86,9.87,9.87,0,0,0,5,3.83,7,7,0,0,0,7-1.84,9.43,9.43,0,0,0,2.34-4.51,7.67,7.67,0,0,0,.37-2.82c-.32-1,2.18-2.06-1.37,1.78l-7,1.84c-1.24-.48-3-3.22-2.41-1.08a6.73,6.73,0,0,0,1,1.57,9.07,9.07,0,0,0,4.91,3.84c4.19,1.19,7.05-1.66,10.29-3.66L285,214a18.14,18.14,0,0,0,3,1.34c2.36.48,5.3.17,7-1.84a10,10,0,0,0,2.45-6.24,18.12,18.12,0,0,0,0-2.33c-.18-2.9,1.44-2.22-1.68,1.54l-7,1.84q-4.53-4-2.68-1.32l1,1.74a15.5,15.5,0,0,0,2.42,3.3,12.12,12.12,0,0,0,10.09,2.47c3.76-1,5.39-4.54,5.53-8.13,0-1.19-.11-2.38-.16-3.56-.18-3.83,1-2.28-1.92,1.22l-6.95,1.84c-4.25-1.56-4.06-3.63-2.36-.26.58,1.14,1.08,2.33,1.69,3.46,1.4,2.61,2.89,4.43,5.78,5.48a7,7,0,0,0,7-1.84,9.8,9.8,0,0,0,2.45-6.19,18.44,18.44,0,0,0,0-2.23c-.18-2.9,1.41-2-1.7,1.69l-7,1.84c-3.65-1.12-3.77-3.48-2.2-.75.36.61.77,1.2,1.19,1.78a9.51,9.51,0,0,0,5.16,4A7,7,0,0,0,313.2,211a9.92,9.92,0,0,0,2.44-6.22,18.94,18.94,0,0,0,0-2.26c-.22-2.86,1.39-2.21-1.74,1.63L307,206c-.71-.16-2.79-2.28-1.46-.66a10.12,10.12,0,0,0,8.09,3.27,8.89,8.89,0,0,0,6.4-2.1,8.51,8.51,0,0,0,1.71-2.2c.65-1.16,2-2.66.08-.86l-7,1.84c1,.18,1.92.68,3,.86,2.39.42,5.26.2,7-1.84a10,10,0,0,0,2.3-4.21c.14-1,.26-1.89.36-2.84q.45-3.18-1.46,2l-7,1.83c-.12,0,2.72,1.8,3.09,1.31-.93,1.23-2.8-3.52-1.94-.57.68,2.32,4,4.57,6.06,5.19a7,7,0,0,0,6.95-1.84,9.58,9.58,0,0,0,2.39-4c1.16-4.27-5.41,2.61-1.43,1.62h-3.8q-2.46-1.45.3.49a6.19,6.19,0,0,0,2.4,1.21,8.79,8.79,0,0,0,4.38.12c3.32-.75,6.58-3.15,7.65-6.43a9.21,9.21,0,0,0,.55-3.45c-.32-3.38-3,5.65-.07.49a10.39,10.39,0,0,0,1.13-4.2,16.44,16.44,0,0,0,.15-1.71c.24-2.12-.29-1.29-1.57,2.48l-7,1.84c-.27,0,2.79,1.52,3.07,1.13-.91,1.28-2.78-3.54-1.87-.51.67,2.21,3.94,4.63,5.92,5.19,3.15.87,7.12-.77,9.45-3a8.65,8.65,0,0,0,2.19-3.52c.75-2.1,1.71-3.27-.75-.46l-5.06,2.1c3.14-.14,5.91-.53,8.6-2.32a10.63,10.63,0,0,0,3.14-3.09c.82-1.28,2.95-3.95.11-.8L358,190.45c-3.75-.16-5.39-3.5-3.06,0a15.71,15.71,0,0,0,2,2.52,7.79,7.79,0,0,0,9.24,1.32,8.68,8.68,0,0,0,3.92-7.21c.11-2.06.26-1.82-.48-.08.36-.84,1.19-2.88,1.35-3.11l-6.17,3.55-3.48-1.1.7.68a7.73,7.73,0,0,0,2.08,1.82,10.24,10.24,0,0,0,5.26,1.94c2.42.31,5-1.57,6.17-3.54a9.52,9.52,0,0,0,1.4-5.07c0-2.75-1.08,1.76-.3.7a8.12,8.12,0,0,0,1-4.27c0-.59-.05-1.17-.11-1.76,0-1.72-.23-1.15-.73,1.73l-6.17,3.54c-1.56-.14-4.48-2.79-2.79-.35a9.61,9.61,0,0,0,1.31,1.32,11.42,11.42,0,0,0,4.47,2.9c5.65,1.59-2.83-1.36,1.73.49,2.35,1,4.51,1.39,7,.36s2.92-2.81,4.45-4.69c1-1.19,2.2-2,3.12-3.37a10.56,10.56,0,0,0,2.27-5.6,7.82,7.82,0,0,0-.3-2.7c-.14-1.61-.37-1.31-.69.88a2.22,2.22,0,0,1-2.26,2.61h-3.81c2.68.69,5.1,1.46,7.82.27,3.65-1.6,3.74-4.41,5-7.52l-5,5,.42-.09h-3.8c2.94.7,4.87,2,8.1,1.19a7.1,7.1,0,0,0,5-5c.72-2.92-.21-4.86-.79-7.57V164l.11-.49-3.29,4.27c1.38-.9,3.18-1.65,4.38-3.21,1.43-1.85,1.19-3.45,1.57-5.43l-5,5c-1.24.49-3.09-.39-.75.45a14,14,0,0,0,2.12.53,10.1,10.1,0,0,0,6.41-.83c2.24-1,3.52-3.87,3.54-6.17a9.26,9.26,0,0,0-1.28-4.67c-.32-.52-.67-1-1-1.53-.88-1.52-.82-.92.17,1.78l-2.1,5.06q-3.13,1.66-1,.71a7.07,7.07,0,0,0,3.16-1.84,7.19,7.19,0,0,0,2.48-4.57,8.28,8.28,0,0,0-.93-5.07c-.5-.73-1-1.44-1.6-2.13-.89-1.15-.92-1-.11.42l-3.29,8.07c-1.91.5-2.08.68-.53.55a11,11,0,0,0,1.89-.18,7.62,7.62,0,0,0,3.73-1.23c2.58-1.92,4.21-4.78,3.29-8.08a9.6,9.6,0,0,0-4.24-5.28,20.31,20.31,0,0,0-2.26-1.41c-2.58-1.32-.63-2.18.83,2.33l-.72,5.51c2.27-3.24,2.93-5.6,1.78-10l-1.84,7c-.93,1.11-2.59,1.1-.33.87a11.31,11.31,0,0,0,2.07-.48,9.9,9.9,0,0,0,5-3.78c1.46-1.91,1.22-5.28,0-7.22A9.44,9.44,0,0,0,408.8,129a16.54,16.54,0,0,0-2.15-.64c-2.79-.6-1.65-1.9,1.09,2l.72,5.51c.27.78.54.28.81-1.49-2,2.19-2,2.44,0,.73a7.64,7.64,0,0,0,2.43-3.7q.68-1.65-.77,1.11c.58-.75,1.17-1.5,1.74-2.25a8.5,8.5,0,0,0,1-5.26c-.44-3.24-2.92-6.88-6-8.12a10,10,0,0,0-4.27-.6l-2,.24q-2.65.06,1.72.82l3.29,8.07c-1,1.61-1,1.83-.07.64a27.6,27.6,0,0,0,1.72-2.16,9.26,9.26,0,0,0,1.4-4.64c.64-9.18-13.66-9.14-14.3,0Z" style="fill:#1c1b1f"/><path d="M198.11,90.77c2.2,1.28,1.83,1.55.43-.14a11.3,11.3,0,0,0-3.09-2.87,7.15,7.15,0,0,0-7.22,0,9.75,9.75,0,0,0-3.41,3.49c-2.25,3.88,3.51-.82,0-.19l5.51.72a26.07,26.07,0,0,1-2.63-1.49c-3.19-1.91.33.8-.21-.08-1.12-1.8-4.77-2.76-6.77-3.12a8,8,0,0,0-7.32,2.09A10.13,10.13,0,0,0,171.25,93c-.92,2.51-1.89,1.64,1.55-.76H180c2.13,1.23,2,2.08.74-.07a9.85,9.85,0,0,0-3-3.23c-2.85-1.84-5.55-1.1-8.51-.19H173c-3.34-.85-6.3-1.5-9.22.88a9.12,9.12,0,0,0-2.54,3.52,18.69,18.69,0,0,0-.69,1.75c-.81,2-.16,1.47,1.93-1.46h7.22q2.42,2.82.91.68c-.55-.73-1.1-1.45-1.66-2.17a8.38,8.38,0,0,0-5.59-2.38,8.21,8.21,0,0,0-5.56,2.39c-.56.69-1.1,1.4-1.6,2.12q-1.4,2.1,1.1-.78l5.51-.72c-3-.81-5.16-1.82-8.16-.25a9.68,9.68,0,0,0-3.06,2.88c-1.09,1.39-2.17,1.82.64,0h7.22c2.73,1.53,1.81,1.74.68-.1a9.43,9.43,0,0,0-3.26-3.35c-3.28-1.91-5.41-.73-8.25.39h3.8c-2.86-.49-5.41-1.14-8.13.27A9,9,0,0,0,142.24,94c-1.37,1.35-3,2.7-.35,1h7.22q1.59,1.71.32.17a13.38,13.38,0,0,0-1.12-1.37A8.64,8.64,0,0,0,145.47,92c-2.9-1.15-4.79-.06-7.15.9h3.8c3.1,1.13,1.44.35-.36-.71a9.15,9.15,0,0,0-3.32-1.09,12.61,12.61,0,0,0-7.62,1.74,8.73,8.73,0,0,0-2.8,2.9c-1.79,3,1.19-1.06,1.38-.76-.41-.63-7.38,2.64-8,2.91l5.51-.72c4.07,1.41.1-.32-1.24-1.06-2.58-1.42,2.56,3.37.76,0a8.47,8.47,0,0,0-7.23-4.66,8.2,8.2,0,0,0-7.1,4.59c-1.19,2.85,2.42-1.88.61-.26-.86.77-5.56,4.69-1.7,2h7.22c1.37.59,1.33,1.19,0-.44a9.81,9.81,0,0,0-1.79-1.85,7.6,7.6,0,0,0-7.55-1.11,13.18,13.18,0,0,0-3.7,2.52,13.54,13.54,0,0,0-2.57,2.56c-1.11,1.58-1.55,1.8.85.06h7.22c2.17.91,1.24,1.07.26-.38a9.87,9.87,0,0,0-3-3.09,7.89,7.89,0,0,0-8.42.33c-1.42.9-.92.78-1.76,1-1.67.46-3.21,0-4.92,1a10.36,10.36,0,0,0-2.59,2.3c-3,3.44,3.19-.67-.33.41h3.8q4.28,3.69,2.38,1.24c-.53-.72-1.07-1.43-1.63-2.13a10.15,10.15,0,0,0-3.62-2.31c-2.37-1-5.35-1.67-7.88-.6-2.88,1.21-4.16,3.6-5.09,6.42.92-2.78.11-.77-.67.48-3.4,5.38,3.86-.77.36.39h3.8a15.63,15.63,0,0,0-2.92-1.17,11,11,0,0,0-5.06.26A9.11,9.11,0,0,0,69,105.71a19.53,19.53,0,0,0-2,2.61L74,106.49c2.75.88,2.37,1.44,1.08,0a10,10,0,0,0-2.37-2.07,16.53,16.53,0,0,0-6.07-1.68,7.37,7.37,0,0,0-6.19,2.21,9.44,9.44,0,0,0-2,3.37c-.65,1.57-1.67,2.64.64,0l5.06-2.09c-3.54-.07-5.86-.33-8.54,2.48-1.45,1.64-1.54,1.89-.25.75.89-1.07,2.06-1.19,3.49-.36.3-.61-4.76-1.49-5.19-1.55-2.59-.33-4.8,1.66-6.18,3.54a7.71,7.71,0,0,0-1.22,3.72,9.78,9.78,0,0,0-.17,1.87q-.18,2.31.57-.63l8.07-3.29q2.55,1.59.86.12a10,10,0,0,0-1.36-1.16A7.6,7.6,0,0,0,50.74,110c-3.4-.53-6.1.43-8.08,3.29a9.1,9.1,0,0,0-1.32,4.67c0,.62,0,1.25,0,1.87q-.12,2.65.64-1.64l8.07-3.29c2.9.57,2.82,2.26,1.25.16a24.38,24.38,0,0,0-1.59-1.91c-1.31-1.38-2.79-2.79-4.75-3.16a7.44,7.44,0,0,0-8.07,3.29,9,9,0,0,0-1.13,5.28,9.59,9.59,0,0,0,.37,2.81c.52,1.24-1.55,2.19.85-2l4.27-3.29c-3.74.56,2.49.49,2.49,1.24,0-.38-2-1.62-2.24-1.8a10.32,10.32,0,0,0-5.4-2A7,7,0,0,0,30,117.13a9.59,9.59,0,0,0-1.19,4.74c0,3.18-.44,3.7,1.15.42L34.18,119c-1.85.27-3.37,0-5.34,1.43a38.24,38.24,0,0,0-4.3,4.42l5.06-2.1c1.63.49,2,.54,1.09.14a20.18,20.18,0,0,0-2.13-.93,9.1,9.1,0,0,0-2.63-.52,7.65,7.65,0,0,0-6.81,3.85,8.8,8.8,0,0,0-1,2.75c-.73,3.46-.61,3.17,2.19.33,3-3,3.05-2.72.3-2.68a9.79,9.79,0,0,0-4.43,1.08c-4.68,2.61-4.83,9.25-2.2,13.43a8,8,0,0,0,6.74,3.74,13.62,13.62,0,0,0,2-.14c2.12-.32,2.56.76-.93-1l-3.28-4.28c-.77-.21-.75.41.06,1.87.92-3.46.94-4.25.06-2.39a10.47,10.47,0,0,0-1.32,4.4,11,11,0,0,0,1.44,8c1.88,2.7,4.42,4.82,7.81,5a9.16,9.16,0,0,0,3.48-.46c1.86-.3,1.24-.46-1.84-.46,1.2-.13,1.77.14,1.7.81l-3.54-6.17c.58-2,.53-2.29-.15-.91a9.86,9.86,0,0,0-.78,1.64,7.61,7.61,0,0,0-.82,3.83,7.52,7.52,0,0,0,5.24,6.89,7.77,7.77,0,0,0,3.94.19,7.76,7.76,0,0,0,1.79-.34c1.51-.33,1.19-.47-1-.44l-5.25-6.89c.61-1.94.58-2.21-.07-.8a22.93,22.93,0,0,0-1.13,2.53,10.45,10.45,0,0,0-.17,4.91c.33,2.43,2.84,4.32,5,5a9.06,9.06,0,0,0,2.92.38c1.14,0,3.58.3,1-.46l-5-5c-.35-1.15,0,1.73,0,1.59A8.29,8.29,0,0,0,33,164.6c1.28,2.1,3.17,2.64,5.12,3.65L34.82,164l.11.42v-3.8c-.56,2.87-1.87,4.95-1,8,.6,2.17,2.61,4.64,5,5a9.84,9.84,0,0,0,6.42-.86,13.2,13.2,0,0,0,1.57-.85c2-1.33,2-.23-.26-.53l-6.9-5.25.09.33v-3.8c-.55,2.64-2.76,5.69-1.76,9.22.61,2.16,2.61,4.66,5,5a10.86,10.86,0,0,0,7.81-1.68c2-1.36,1.79-.18-.5-.48l-6.89-5.24c.07-2,0-2.3-.22-.85a21.19,21.19,0,0,0-.31,2.63,8.3,8.3,0,0,0,1.72,4.79c2.59,3.36,6.4,3,10.13,2.32H51l.72.13-4.28-3.29c1.49,2.7,2.27,5.94,5.2,7.65a8.29,8.29,0,0,0,6,.76c.81-.29,1.62-.62,2.4-1q2-.88-.82-.07L54.06,179c-1.88-4.3-.44-4.6-1.18-1.9a11.18,11.18,0,0,0-.44,3.35,7.68,7.68,0,0,0,5.85,7.34,12.63,12.63,0,0,0,7.43-.09A9.82,9.82,0,0,0,68.53,186c2.12-1.78,2-.62-1.23-.5L61.13,182c-.55-1.21.13-4.61-1-2.59a8.51,8.51,0,0,0-.49,2.83,10,10,0,0,0,1,5.58c1.09,2.35,3.81,3.37,6.18,3.54,2.08.16,4-.44,6.11-.45l-5.06-2.09c1.82,1.46,1-.85.52-1.15.33.19.25,2.21.41,2.74a8.16,8.16,0,0,0,4.48,5.11,8,8,0,0,0,6.09,0,6.07,6.07,0,0,0,2-1c.86-.49.5-.45-1.07.09q-2.82.26-.27.79L75.82,192c.4.55.76,2.27,1.39,3.21a7.57,7.57,0,0,0,6.18,3.54c2.78.2,5.35-.19,8.27,0l-6.17-3.54c-.38-1.58-.5-1.88-.38-.91a23.84,23.84,0,0,0,.3,2.4,7.36,7.36,0,0,0,1.19,2.91c2.05,2.73,4.65,4,8.07,3.29a8.85,8.85,0,0,0,4.11-2.35c.43-.42.84-.85,1.24-1.3,1.25-1.18.72-.94-1.59.7l-7-1.84c-.76-.93-1.08-4.51-1.62-2.43a7.56,7.56,0,0,0,.22,2.68,9.81,9.81,0,0,0,2.34,5c1.6,1.93,4.66,2.44,7,1.84a9,9,0,0,0,4.26-2.67,9.17,9.17,0,0,0,1.14-1.43c1-1.64,2-.62-1.49.32h-3.8c.73.28,2.79,1.37,3.57,1.32-4.59.3-3.46-7.76-3.39-2.85a10,10,0,0,0,2.62,6.79,7,7,0,0,0,7,1.84,9.44,9.44,0,0,0,5-3.81,11,11,0,0,0,1-1.39c1.31-2.62,2.15-.9-2.08.55l-5.51-.72c1.55,1.16,2.35,2.46,4.79,2.79s3.63-.67,5.71-1.22l-7-1.84c-.84-.79-1.47-3.12-.58-.58a14,14,0,0,0,2,3.57,14.89,14.89,0,0,0,2.52,3c7.08,5.76,17.26-4.3,10.12-10.11a18.76,18.76,0,0,0-2.09-2.63c0-.06,1.44,3.49.75,1a9.82,9.82,0,0,0-1.62-3.25c-3.13-4.1-6.64-2.94-10.81-1.88l5.51.72c-2.88-2.13-5.78-4.13-9.68-1.83a11.52,11.52,0,0,0-3.43,3.62c-.34.52-.67,1-1,1.57q-1.89,2.59,2.59-1.37l7,1.84c2.54,2.84,1.75,4.45,1.38,1a12.07,12.07,0,0,0-.83-3.79c-1.46-3.26-4.16-4.14-7.28-5.28-2.79-1-5.5-1.65-8.26-.07a10.45,10.45,0,0,0-2.46,2.17c-.38.49-.76,1-1.15,1.48-1.18,1.24-.58,1,1.78-.69l7,1.84c.77.93,1.08,4.52,1.63,2.43a7.77,7.77,0,0,0-.23-2.67,9.88,9.88,0,0,0-2.34-5c-1.62-2-4.63-2.34-7-1.84a9,9,0,0,0-4.12,2.35c-.42.43-.83.86-1.23,1.31q-1.87,1.77,1.59-.71L99,192.41c.53.71.37,2.17.33.42a9.4,9.4,0,0,0-.78-3.55,7.94,7.94,0,0,0-4.94-4.55c-3.3-1-7.2,0-10.17-.27L89.56,188c-.38-.51-.76-2.27-1.39-3.2a9.24,9.24,0,0,0-5.48-3.72,9.45,9.45,0,0,0-5.59-.4,15.75,15.75,0,0,0-2.47,1.13q-2.26,1.26,1.44,0l6.18,3.54c.93,1.35.56,1.22.13-.58a10.7,10.7,0,0,0-.88-2.55,12.86,12.86,0,0,0-4.2-4.1c-3.56-2.38-6.66-.81-10.44-1.09L73,180.57c.56,1.21-.14,4.63.94,2.6a8.51,8.51,0,0,0,.49-2.83,10.23,10.23,0,0,0-1-5.59c-1-2.17-3.89-3.64-6.18-3.55a9.52,9.52,0,0,0-5.95,2.37,11.52,11.52,0,0,0-1.44,1.15c-.09-1.21,7.34.5,1.74-.79l4.27,3.28.74,3.73.22-.91a7.91,7.91,0,0,0,.5-2.68,10.18,10.18,0,0,0-1-5.54c-1-2.35-3.85-3.36-6.18-3.54a8.13,8.13,0,0,0-3.09.48l-1.71.72q-2,.89.83.06l6.18,3.54c-1.5-2-1.9-4.73-3.76-6.52-2.7-2.62-6.17-2.25-9.58-1.59h3.8l-.7-.14,5,5q-.12,2.81.12,1.29a20.29,20.29,0,0,0,.34-2.34,7.61,7.61,0,0,0-.37-3.1c-1.27-3.32-3.47-4.81-6.9-5.25a8.86,8.86,0,0,0-4.82,1.31c-.58.3-3.17,1.76-2.16,1.4h3.8l-.33,0,5,5-.09-.33v3.81c.55-2.66,2.71-5.67,1.76-9.23-.9-3.37-3.73-4.83-6.89-5.25-1.67-.22-3.46.59-4.9,1.31-.65.33-3.16,1.72-2.49,1.49h3.8l-.34,0,5,5-.12-.41v3.8c.53-2.73,1.83-4.67,1.13-7.63-.81-3.38-3.27-4.35-5.94-5.78l3.28,4.28c-.52-1.61-.15-4.83-2.87-6.92a7.84,7.84,0,0,0-4-1.58c-.94-.12-5.7-.65-2.4.38l5,5-.06-.43v3.8c.45-1.3,2.22-3.92,1.94-6.21-.4-3.35-2-5.78-5.24-6.9a8.28,8.28,0,0,0-4-.18,7.77,7.77,0,0,0-1.79.35q-2.28.49,1,.43L39,153.72c.2,2-.41,2,.56.13a9.84,9.84,0,0,0,1.23-4.26,7.68,7.68,0,0,0-4-6.85,13.32,13.32,0,0,0-6.07-2.21,9.54,9.54,0,0,0-3.49.46c-2.85,1.08,4.91,3.06,2.24.11l2.1,5.05c0,.28,0-3.09.1-3.13-.88,2.48-.94,2.93-.18,1.37l.35-.8a14,14,0,0,0,.58-8.4,7.45,7.45,0,0,0-6.33-5.71,12.45,12.45,0,0,0-2.86,0c-3,.16-1.92-.61.56,1l3.29,4.27a6.72,6.72,0,0,0-.51-1.38l-2.09,5.06.4-.37-5.06,2.09c3.26-.39,6.13.66,9-1.52a8.28,8.28,0,0,0,2.89-4.15c.4-1.23,1.49-5-.12-2.17l-6.18,3.54q-2.7-.79-.68.07a19.56,19.56,0,0,0,2.07.85,8,8,0,0,0,3.73.22,8.72,8.72,0,0,0,5-2.91l.91-.93q2.26-2.21-1.3.09c.72,1.94,7.05-3.62,7.29-4.08a8.62,8.62,0,0,0,1-4.34c0-3.32.46-3.53-1.14-.41l-6.17,3.54c-4.27-.37-3.81-1.61-1.73.15a10.15,10.15,0,0,0,3.79,2.22,12.73,12.73,0,0,0,8.6-1.09,8.07,8.07,0,0,0,3.75-7.06,13.25,13.25,0,0,0-.32-2.66c-.47-2.27.86-2-1,1l-8.08,3.28c-2.89-.55-2.84-2.27-1.26-.16a24.38,24.38,0,0,0,1.59,1.91,9.33,9.33,0,0,0,4.76,3.16,7.45,7.45,0,0,0,8.07-3.28,8.44,8.44,0,0,0,1.27-4.32c.14-1.89.93-2.79-.6-.58l-8.07,3.28q-2.56-1.61-.87-.12a9.3,9.3,0,0,0,1.36,1.15,7.71,7.71,0,0,0,3.42,1.75,7.59,7.59,0,0,0,8.08-3.28,8,8,0,0,0,1.21-3.73,9.78,9.78,0,0,0,.17-1.87c.11-1.55-.07-1.33-.56.64l-6.17,3.54c-4.3-.55-.68.44.55.79a11,11,0,0,0,5.17,0c3.78-.7,4.49-2,7-4.49l-5,2.09c3,0,5.37.48,7.85-1.8a9.55,9.55,0,0,0,2.24-3.61c.67-1.61,1.66-2.55-.63,0l-5.06,2.1c.17,0,1.39.64,2,.54-2.37.43-4-2.4-2-.1a8.77,8.77,0,0,0,4.57,2.94,7.64,7.64,0,0,0,7-1.83A5.65,5.65,0,0,0,79,116.1c.19-.65-3.58,1.66-.55,1h-3.8c.24,0,3.34,1.45,4.82,1.43a12.4,12.4,0,0,0,7.72-3.1A9.26,9.26,0,0,0,88.86,113c.94-1.72.81-1.6.2-.8A17.14,17.14,0,0,0,90.67,110l.72-1.71c.5-1.3.3-1.12-.62.55l-7,1.83c.37.07,2.44,1.09,2.82.82-.88.64-3.33-3.82-2.38-1.24.74,2,3.52,4,5.45,4.52a10.9,10.9,0,0,0,7.33-1c2.28-1.07,3-3,4.45-4.16l-5,2.1c4.59.09,7.35-1.14,11.09-3.43l-5.51.73c-3.92-1.66-3.35-2.71-2.21-.71a10.16,10.16,0,0,0,1.8,2.33,8,8,0,0,0,7.36,2,8.42,8.42,0,0,0,5-4c1.32-2.51-.94-.3-1.06.3a14.67,14.67,0,0,1,2.37-1.81H108c-1.11-1.22-1.38-1.44-.8-.67a22.3,22.3,0,0,0,1.38,1.82,9.32,9.32,0,0,0,2,1.69,7.64,7.64,0,0,0,8,0,9.33,9.33,0,0,0,2.86-2.77c1.42-2-1.43.66-.62.37,1.21-.44,2.08-1.74,2.81-2.73,1-1.38,2.05-2-.77,0h-7.22c-1.37-1.4-1.64-1.47-.82-.23a11.93,11.93,0,0,0,1.58,2.22,11,11,0,0,0,2.28,1.85c2.3,1,2.28,1-.06-.29.69.6,1.41,1.17,2.16,1.72a8.35,8.35,0,0,0,5.23,1.08,37.88,37.88,0,0,0,9.34-3.12,10.86,10.86,0,0,0,3.91-3.23c2.82-3.38-3.66,1.14.16.28h-3.8c-1.65-.6-2.44-1.19-.37.15a9.84,9.84,0,0,0,3.1,1.52c2.59.59,4.29-.45,6.3-1.26l-5.51-.72q-1.92-2,.23.55a7,7,0,0,0,2,1.77,8,8,0,0,0,4.15,1.22,7.81,7.81,0,0,0,4.23-1.38,7.22,7.22,0,0,0,2.56-2.56q1.5-2-.76.48l-5.51.72c3.84.65,5.66.5,8.94-.79l-5.51-.72q-2.56-3-1.17-.78a7,7,0,0,0,.72,1.21,9.25,9.25,0,0,0,3.25,3.15,7.19,7.19,0,0,0,7.22,0,10.89,10.89,0,0,0,3.06-2.88c1.08-1.43,2.16-1.79-.64,0l-5.51.72c3,.81,5.15,1.82,8.15.25a9.9,9.9,0,0,0,3.07-2.87c1.18-1.42,2.12-1.5-.61.11h-7.22c-1.49-1.76-1.9-2.13-1.2-1.12a7.9,7.9,0,0,0,.83,1.16,11,11,0,0,0,3.1,2.86c2.07,1.12,5.19,1.51,7.22,0a10.4,10.4,0,0,0,3.26-3.5q.59-1.28,1.05-2.61,1.2-2.93-1.93,1.47l-5.51.72a14.87,14.87,0,0,0,9-.11l-5.51-.72c-1.72-2-2.12-2.29-1.21-.79a6.71,6.71,0,0,0,.69,1.19,9.3,9.3,0,0,0,3.24,3.15,7.08,7.08,0,0,0,7.22,0,9.82,9.82,0,0,0,3.27-3.45c.37-.84.73-1.7,1.06-2.56q1.25-2.89-1.89,1.61l-5.51.72,2,.53c1.3.4.91.15-1.18-.78.34-.08,2.47,1.79,3,2.1,1.1.51,1.14.48.11-.1l1.45,1.12a10.48,10.48,0,0,0,4.48,1.36,13.07,13.07,0,0,0,6.61-1.72,8.94,8.94,0,0,0,3-3.22c1-1.79,1.87-1.8-.89-.06h-7.22c-2.21-1.29-1.83-1.55-.43.13a11,11,0,0,0,3.09,2.87c8,4.66,15.17-7.7,7.22-12.34Z" style="fill:#1c1b1f"/><path d="M406.46,123.44c1.17-1.72,2.43-2.49,2.76-4.92.3-2.25-.64-3.6-1.15-5.65l-1.84,7c-.68.76-1.94.88-.4.67A8.42,8.42,0,0,0,412.1,113a13.4,13.4,0,0,0-.41-5,9.84,9.84,0,0,0-2.09-3.48c-1.28-1.46-.28-1.48.33,1l-.72,5.51c2.63-3.77,3.35-6.35,3.25-11l-2.1,5.06c-2,1.83-2.07,1.5-.11.67a12.24,12.24,0,0,0,3.6-2.23,7.23,7.23,0,0,0,1.84-7c-.25-1.11-1.37-2.59-1.49-3.2V97q.84-2.93-1.37.43a8,8,0,0,0,2.06-1.79c1.45-1.66,2-3.56,2.65-5.59l-3.29,4.27q-4.06.75-1.32.63a6.94,6.94,0,0,0,1.44,0,9.45,9.45,0,0,0,4.47-1.28c2-1.19,3.79-3.73,3.54-6.17a10.62,10.62,0,0,0-1.05-4.35c-1.54-2.8.13,2.19-.09.55a10.2,10.2,0,0,0-1.33-4.28c-1.11-1.83-.6-2.41-.45.93l-3.54,6.17c-2.24,1.2-4.35,1.08.48,1.25a9.73,9.73,0,0,0,5-1.1A7.1,7.1,0,0,0,425,80.49a19.24,19.24,0,0,0-.81-3.41l-3.54,6.18c2.9-2.12,7-2.85,8.23-7a8.18,8.18,0,0,0-.22-4.75,10.4,10.4,0,0,0-1.39-2.79c-1.06-1.48-.19-1.59-.39.82l-2.09,5.06c2.21-2.36-1.11.53-1.48,0,.32.46,2.86-.18,3.32-.31a18,18,0,0,0,4.51-2,8.06,8.06,0,0,0,3.49-5c.09-.36.34-4,0-2.25s.69-1,.69-1L431,67.34l.73-.13h-3.8c2.54.56,5,1,7.47,0C438.16,66,438.66,64,440,61.65l-6.17,3.54c-1.95.17-1,0,.88.6a8.94,8.94,0,0,0,2.62.39c2.87,0,4.8-1.44,6.67-3.44a8.92,8.92,0,0,0,2.72-5.89,12.23,12.23,0,0,0-.27-2.63c-.53-2.95.64-1.74-1,1.6l-6.18,3.55c-3.31-.15-3.36-.74-.41,1a9.8,9.8,0,0,0,4.64,1.35,7.07,7.07,0,0,0,6.18-3.55A9.69,9.69,0,0,0,451,53.74a7.38,7.38,0,0,0,0-1.41c0-1.81-.17-1.35-.67,1.36L442.22,57c-1.88-.27-1.7-.86-.13.53a10,10,0,0,0,3.73,2.25c2.93.88,5-.25,7.51-1.65,2.06-1.17,4.74-2.09,6.47-3.66A8.48,8.48,0,0,0,462,51c.51-1.34,1.54-1.91-.39-.23l-7,1.84c-2.93-1.18-2.06-.69-.65.56a11.28,11.28,0,0,0,2.86,1.72c2.8,1.38-2.5-1.9-.31-.07a9.5,9.5,0,0,0,3.8,2.08,7.62,7.62,0,0,0,7.3-2.12,10.11,10.11,0,0,0,2.16-3.83c.83-2.48,1.78-2.06-1.7.57l-5.51.72c1.17.24,2.27.64,3.43.91l-5-5c.27,1.12.6,2.22.84,3.35L462.6,46c1.44-1.29,1.27-1.22-.48.22a7,7,0,0,0-1.75,2,7.64,7.64,0,0,0-1.1,5.1,8.12,8.12,0,0,0,2.3,4.61,16.47,16.47,0,0,0,2.2,1.6q2.19,1.38-.62-1.08l-.72-5.51c-.67,2.37-1.33,4.38-.62,6.86a43,43,0,0,1,1.48,5l1.84-7q2.34-1.26.34-.42a19.34,19.34,0,0,0-2.42,1.07,8.41,8.41,0,0,0-3.61,4.67,8.06,8.06,0,0,0,.92,6.06A15.74,15.74,0,0,0,462,71.2q1.74,1.83-.43-1.35l1.84-6.95c1.46-.84,1.74-1.1.82-.77a10.38,10.38,0,0,0-2.14.85A8.72,8.72,0,0,0,460,64.4a12,12,0,0,0-3.13,6.86,8.65,8.65,0,0,0,2,6.51c1.43,2,0-1-.72-1-.3,0-1.57,3.83-1.69,4.14l3.28-4.28c.76-.49,3.56-.38,1.34-.6a9.57,9.57,0,0,0-1.85.1,8.84,8.84,0,0,0-5.5,2.37,7.8,7.8,0,0,0-2.1,5.75,24.15,24.15,0,0,0,.55,2.74c-.16-1.06.33-3.09-.07.5,0,.35-.17,1.42-.2,1.87-.21,2.87.32-1-.11,1.1a4,4,0,0,1-.69,1.12c-.65.79-.5.74.44-.17,1.13-.81,1.12-.93,0-.35a4.4,4.4,0,0,0-1.25.61c-3.86,2.26-4.71,5.77-5.76,9.66l3.28-4.27a18.51,18.51,0,0,0-6.06,6.62l4.27-3.29a25.77,25.77,0,0,1-3.72.72h3.8c-3.9-1-7.13-.91-10.5,1.62a8.52,8.52,0,0,0-3.52,4.83c-.34,1.33-1.36,6.26.62,1.75l4.27-3.29a19.48,19.48,0,0,0-5.94,2.59,14.7,14.7,0,0,0-2.61,2.16c-3.11,3.36,3.94-.13,1-.31a12.55,12.55,0,0,0-6.29,1.23c-1.38.8-2.92,3.52-3.19,3.79l7-1.84c2.4.53,2.72,1.9.9-.1a11.53,11.53,0,0,0-1.19-1.13c-2.37-1.94-5.27-2.83-8.24-1.58-1.95.82-3.14,2.38-4.41,4a15.75,15.75,0,0,0-2.05,3.37c-.83,1.72-1.75,2,.49-.19l7-1.84c1.07.35,3.19,3.42,2.49,1.31a8.18,8.18,0,0,0-1.55-2.15,9.76,9.76,0,0,0-4.5-3.14c-2.42-.86-5.19.19-7,1.84a9.1,9.1,0,0,0-2.4,4.09c-.15.58-.29,1.17-.4,1.76-.49,1.64-.13,1.17,1.06-1.41l8.67-1.11c1,1.05,1.29,1.2.73.43a14.93,14.93,0,0,0-1.4-1.87,8,8,0,0,0-2.44-2c-2.74-1.33-6.47-1.37-8.67,1.11s-2.29,4.52-2.27,7.58l2.1-5.06-.3.31c-4.45,4.74-.08,14.83,7,12,2.31-.94,4-1.92,5.18-4.2l-4.28,3.28.55-.21L405,126.87c3,2.48,4.66,3.25,8.12,3.77l-4.27-3.29c.24.38.91,2.51,1.21,3.34-.71-2-.55-.87-.24.56a8.94,8.94,0,0,0,1,2.8c2.12,3.6,6.12,4.08,9.59,4.86l-4.27-3.29a11,11,0,0,0,1.08,2.92,10,10,0,0,0,6.13,3.94,9.05,9.05,0,0,0,5.18.15,11.26,11.26,0,0,0,2.42-1c1.57-.9,1.49,0-.54-.27l-6.17-3.54a26.92,26.92,0,0,0,6.18,6.48L427.12,140c.12.38-.13,2.51.22,3.59a7.47,7.47,0,0,0,3.71,4.46,19.89,19.89,0,0,0,4,1.49c1.4.38,5.68,1.74,1.42-.09l-3.28-4.27.11.48v-3.8c-1.08,5-1.74,10.92,3.44,14.2a9.23,9.23,0,0,0,4.3,1.26c3.12,0-4.28-3.38-.2-.1a34.89,34.89,0,0,0,4.45,2.27L442,155.21c1.34,3.5.46-1.35.57,1.27,0,.51-.69,4.08.05,1.66s-.83,1.28-.95,1.71a9.9,9.9,0,0,0-.05,4.56c.57,2.07,2.38,3.85,3.77,5a10,10,0,0,0,3.67,2.19l.92.17q3.4.6.75-.06l-3.54-6.17a1.69,1.69,0,0,0-.4,2c1.2-2.32,1.32-2.78.36-1.41a7.36,7.36,0,0,0-1.85,3.69c-.45,2.39-.19,5.26,1.84,7a10,10,0,0,0,4.22,2.32l2.85.38q3.16.5-2.05-1.38l-2.1-5.06c.08,3.66-.25,6.42,1,9.94v-3.8c1.88-4.51-.75-.62-1.47.56a11.56,11.56,0,0,0-1.4,4.79c-.25,2.31-.23,4.11,1.08,6.15a7.27,7.27,0,0,0,1.87,2.11c-.74-2.87-1.11-3.71-1.13-2.52l3.29-4.27c1.31-.67,4.29.13,2.57-1.17a4.69,4.69,0,0,0-1.7-.53,12.29,12.29,0,0,0-6.1.48,8.51,8.51,0,0,0-4.68,3.11,9.42,9.42,0,0,0-1.43,2.85c-.61,1.92-1.09,1.12.71-.58l7-1.84c3.35,1.24,0-.3-1-.76a7.66,7.66,0,0,0-5.51-.72c-1.74.46-2.53,1.39-4,2.35,1-.68-.64.51-.68.42l2.12.93q-2.55-2.15-.62-.26a22.59,22.59,0,0,0-2.06-2.69c-2.63-2.36-4.79-1.75-7.93-1.86l6.17,3.54c-.33-.5-.81-2.91-1.7-4a20.06,20.06,0,0,0-4.57-3.49c-4.14-2.75-6.68-1.9-10.65-.59H423l-.49-.07,5,5c-.31-.94,0-3.68-1-5.27a8.34,8.34,0,0,0-3.35-3c-3.05-1.72-.38.89.12.34,1.16-1.24-2.84-5.2-3.74-5.92-1.36-1.09-3.36-1.87-4.92-3l3.54,6.18c-1.66,3.44-1.84,4.34-.55,2.67.38-.45.75-.92,1.11-1.4a9.19,9.19,0,0,0,1.77-4c.25-1.61.28-3.64-.81-5-1.83-2.26,0,2.13-.73-.94-.75-3.37-1.89-6-5.52-7.1a13.08,13.08,0,0,0-3.24-.41c-.61,0-1.23,0-1.84,0-2.16-.13-1.3.44,2.57,1.73l1.84,7c-.8,3.09-1,1.94.17.41a17.84,17.84,0,0,0,2-3.74c.65-1.41,2-4.1,1.39-6.72-.52-2.07-2.31-4.5-3.47-6.29a10.64,10.64,0,0,0-2.2-2.48c-1.26-1-3.39-3.06-.88.31v7.22c-1.1,2.26-2.76,2.2-.32,1a12.36,12.36,0,0,0,2.09-1.21,7.83,7.83,0,0,0,3.59-7.47c-.19-2.5-.81-5.11-2.66-6.92a9.88,9.88,0,0,0-3.77-2.16c-2.51-.84-1.65-1.78.85,1.7V149q-3,2.57-.72,1.19a6.63,6.63,0,0,0,1.24-.71,9.36,9.36,0,0,0,3.17-3.24,7.11,7.11,0,0,0,0-7.21A10,10,0,0,0,410,135.7c-3.23-2,1.2,3.62.48,0l-.72,5.51c-.94,1.79-.44.95.93-.37a9.06,9.06,0,0,0,1.58-2c1.37-2.38,1.22-5.1.58-7.68a8.44,8.44,0,0,0-3.61-5.28,9.68,9.68,0,0,0-1.43-.74c-3.32-1.54-1-.52,0,1.09v7.22c-1.56,2.68-1.82,2,.22.66a9.1,9.1,0,0,0,3.12-3.2c4.67-8-7.69-15.16-12.35-7.22,1.58-2.69,1.82-2-.21-.66a9.22,9.22,0,0,0-3.13,3.2,7.17,7.17,0,0,0,0,7.22,9.77,9.77,0,0,0,3.81,3.49,7.79,7.79,0,0,0,2.12.91c-1,.39-2.62-4.68-2.07-1l.72-5.51c.82-1.52.6-1-.6.11a9.83,9.83,0,0,0-1.78,2,8.62,8.62,0,0,0-.86,6.67,10.8,10.8,0,0,0,2,4.85,8.79,8.79,0,0,0,2.38,2.08c1.51.92,1.26,1.52-.28-.87V139q3-2.56.72-1.19a6.63,6.63,0,0,0-1.24.71,9.22,9.22,0,0,0-3.16,3.23c-1.2,2.05-1.46,5.2,0,7.22a10.12,10.12,0,0,0,4.28,3.6,7.12,7.12,0,0,0,2.13.81c1.07.43.71,0-1.09-1.24q-2.19-2.84-1.32-.15l.73-5.51c.44-.88,3-1.89,1.14-1.44a8.52,8.52,0,0,0-2.06,1,8.94,8.94,0,0,0-3.6,3.48c-1,2.15-1.56,5.12,0,7.22,1.36,1.83,3.18,2.4,4.54,3.85-1.67-1.78,1.05,2.47,1.29,2.9l-.72-5.51c.26-1.08-1,1.58-.88,1.38-1.13,2.2.59,1.45.58-.32,0,1.22-2.85,3.59-3.27,5.19-.59,2.29-.1,5.37,1.84,7a9.47,9.47,0,0,0,5.87,2.42,8.48,8.48,0,0,0,1.67,0c2.76-.32,2.33,1.3-1.61-1.74l-2.09-5.06c.15,2,.09,4.35,1.2,6.14q2.4,4.08,1.65-5c-.4.45-.79.91-1.16,1.38-2.58,2.93-3.47,7.11-.94,10.39,1.3,1.69,2.77,2.06,4.48,3.11-1.09-.74-.8-.49.86.73q-2.1-3.73-1-.75c1.06,4,3.61,6,7,7.71l-3.28-4.27a23,23,0,0,0,.26,3.57c.7,2.15,2.54,4.65,5,5a10.47,10.47,0,0,0,4.66,0,14.29,14.29,0,0,0,2.07-.85c1.35-.56,1.13-.56-.65,0l-5.05-2.1c.43.41,4.21,3.66,4.35,3.36-1.45-2.52-1.92-2.88-1.43-1.07a5.94,5.94,0,0,0,.92,2c2.29,3.85,5.39,3.64,9.25,3.61l-5.06-2.09c2.28,2.1,4.76,5.82,9.3,6.21,4.78.41,7.8-1.66,11.54-4h-7.22c1.46.63,2.83,1.61,4.43,2.2,2.38.89,5.21-.19,7-1.84a7.84,7.84,0,0,0,2.55-4.36c.32-3.85-3.06,5.26-4.17,2.37.86,2.23,7.79.88,8.88.31,3.26-1.72,4.27-5,4.27-8.53a9.47,9.47,0,0,0-.95-4.64,24.12,24.12,0,0,0-2.11-2.6l.72,5.51c.55-3-1.31.47.2-1.09a9.56,9.56,0,0,0,2.45-3.72c.95-2.83-.28-5.54-.23-8.42.06-3.22-.47-6-3.18-8a9.34,9.34,0,0,0-4.09-1.6l-1.89-.26q-3.17-.5,2,1.39l1.84,7q-1.35,2.12-.14.46a8.13,8.13,0,0,0,.78-1.07,10.1,10.1,0,0,0,1-2.61c.56-2,1.06-4.69.46-6.79a7.89,7.89,0,0,0-4.63-5c-.37-.16-3.63-.71-3.67-.8-.11-.3,4.05,3.34.64-.43l2.09,5.06c-.34,4.71.75-1.54,1-2.67s0,.22.19-1.35a13,13,0,0,0-2.32-9.51,8.16,8.16,0,0,0-4.3-3c-2.49-.52,2.57,2.06-1.33-.68-2-1.41-5-1.71-6.63-2.35l5,5a20.06,20.06,0,0,1-1.06-3v3.8c.78-3.5,2-6.61-.49-9.86a8.53,8.53,0,0,0-5.32-3s-2.95-.47-1.25,0c1.93.51-1.44-.52-1.24-.43l3.28,4.27c-.56-2,0-4.5-2.06-6.74-.23-.26-3.47-2.92-2-1.37s-.8-1.54-1-1.82a7.8,7.8,0,0,0-7.95-2.61,9.59,9.59,0,0,0-3.13,1.35c-2.05,1.44,3.6.59.34-.54l4.28,3.28c-.57-.93-1.47-4.17-3.65-5.48-1.42-.86-2.92-.82-4.49-1.18,1.88.43-2-.72-2.38-.86l4.27,3.28c2.06,3.37-.39-2.53-.59-3.11a18.24,18.24,0,0,0-1.12-3.21c-2.17-4.08-5.54-3.82-9.44-4.34l5,2.09c-.69-.59-1.39-1.17-2.1-1.75-1.87-1.54-4.47-2.79-7-1.84-2.31.89-4,1.93-5.17,4.19l4.27-3.28-.55.22,6.95,12c2.27-2.4,2.3-4.54,2.28-7.55l-2.1,5.06.3-.33-8.67,1.11c-1-1-1.29-1.17-.73-.41a16.09,16.09,0,0,0,1.4,1.88,7.73,7.73,0,0,0,11.1.85,8.82,8.82,0,0,0,2.41-4.07c.15-.58.29-1.17.4-1.75.48-1.65.13-1.19-1.07,1.37L412,126c-1.06-.38-3.17-3.37-2.48-1.28a8,8,0,0,0,1.55,2.14,9.46,9.46,0,0,0,4.5,3.12,7.13,7.13,0,0,0,7-1.84,9.11,9.11,0,0,0,2.72-4.84c.15-1.29-1.65,1.8-.62,1.13.7-.46,1-1.41,1.56-2l-6.95,1.84q-3.44-2.43-1.55-.61c.42.48.84.94,1.29,1.4a9.17,9.17,0,0,0,4.12,2.38c4.93,1.17,6.63-2.33,8.7-4.51l-5.05,2.1a43.83,43.83,0,0,0,7-.67,8.27,8.27,0,0,0,3.61-1.92c.26-.23,2.33-2.47,1.41-1.84,2.25-1.55,4.61-1.43,6.26-4.06a9.49,9.49,0,0,0,1.22-4.16c0-.39.29-2.64-.16-1.57l-3.28,4.27c2.66-1.59-3-.93-.52-.17a9.47,9.47,0,0,0,4.17-.05c2.37-.35,4.69-.78,6.51-2.51a8.82,8.82,0,0,0,1.95-3.08c1-2.51-2.68,2.07.1.15a8,8,0,0,0,3.29-4.28c.32-.94.2-4.53,0-1.9,0,.62-3,2.41.63.21a12.27,12.27,0,0,0,2.79-2.33,19.22,19.22,0,0,0,4.06-6.92,31.27,31.27,0,0,0,.63-5.69,39.5,39.5,0,0,0-.45-5l-3.54,6.18c-2.07,1.26-3,.76-.3.6a10.62,10.62,0,0,0,4.43-1.07c2.54-1.36,3.31-3.62,4.36-6.12a19.42,19.42,0,0,0,1.93-7.81,9.52,9.52,0,0,0-1.09-4.18c-.59-1.08-1.63-3.79-1-.87v3.8c1.23-3.42-1.64,2-2.24,1.67.38.22,2.28-.83,2.58-1A7.94,7.94,0,0,0,475,70.71a7.47,7.47,0,0,0-.18-6.07,8.45,8.45,0,0,0-1.75-2.6c-1.21-1.23-.86-1.76.12,1l-1.84,7c-1.53.84-1.64,1-.32.43a19.34,19.34,0,0,0,2.42-1.07,8.42,8.42,0,0,0,3.23-3.82c1.46-3.48-.2-6.83-1.26-10v3.8c.87-2.91,1.54-5.57-.12-8.38a9.46,9.46,0,0,0-2.72-2.81c-1.36-1-2-2.29-.15.59v7.21c-1.19,1.08-1.26,1.19-.21.35a13,13,0,0,0,1.34-1.12,8.87,8.87,0,0,0,1.71-2.84c1.09-2.76.17-5.27-.48-8a7.1,7.1,0,0,0-5-5c-3.27-.76-6.19-2-9.29.07a8.29,8.29,0,0,0-2.88,3.23,18.39,18.39,0,0,0-1,2.61c-.54,1.43-.35,1.33.57-.32l6.95-1.84c1.62.6,2.52,1.22.44-.15A3.61,3.61,0,0,0,463,42q-1.93-.86.46.34a12.58,12.58,0,0,0-5-3.56c-2.41-1-5.17.29-6.95,1.84a8,8,0,0,0-1.78,2.44c-.74,1.43-2.87,5.23.37,1.66,3.39-3.73-.32-1-1.81-.23-1.29.67-2.52,1.48-3.74,2.27l5.51-.72c1.67,1,1.94,1.05.79.06a11.1,11.1,0,0,0-1.39-1.16A7.59,7.59,0,0,0,446,43.19c-3.22-.47-6.3.32-8.07,3.29a9.13,9.13,0,0,0-1.27,4.44,6,6,0,0,0,0,1.41q-.09,2.7.68-1.34l6.17-3.54c3.48.24,3.2.61.41-1.05a9.25,9.25,0,0,0-4.64-1.33,7,7,0,0,0-6.17,3.54,10.18,10.18,0,0,0-1,5.66,8.25,8.25,0,0,0,.34,2.35c.14,1.17.32.66.55-1.53q1.32-3.37-.42-1.13l5.06-2.09c1.51.4,1.64.37.38-.1-.55-.25-1.12-.47-1.7-.67a9.27,9.27,0,0,0-4.38,0c-3.27.94-4,3.33-5.44,5.9l4.28-3.28-.74.11h3.8c-4.23-.94-8.19-1-10.88,3a18.37,18.37,0,0,0-2.07,4.07,11.9,11.9,0,0,0-.28,3.29l3.28-4.28c-.88.49-2.86.44-.61.35a15.51,15.51,0,0,0-3,.2,11.37,11.37,0,0,0-6.23,4.72,7.78,7.78,0,0,0-1.19,6.89,10.57,10.57,0,0,0,1.24,2.69c1,1.58.49,2.38.66-.43l3.54-6.18c-2,1.31-4.64,2-6.38,3.87a7.67,7.67,0,0,0-2.1,5,14.1,14.1,0,0,0,.81,3.41l3.54-6.17c2.33-1.19,4.23-1.09-.49-1.26a9.49,9.49,0,0,0-5,1.12,7,7,0,0,0-3.54,6.17c0,.57,1.57,6.7,2.4,6.28.51-.25-1.73-5.1-.27.19.35,1.25,1.21,4.82.79.68l3.54-6.18c2.8-1.66,2.5-.76.28-.65a10.35,10.35,0,0,0-4.44,1.06,8.07,8.07,0,0,0-3,2.84,16.4,16.4,0,0,0-.93,2.31c-.51,1.29-.11.9,1.19-1.19-.06-.22-3.18,3.28-3.17,3.25a11.22,11.22,0,0,0-1.15,4.29,10.42,10.42,0,0,0,.07,4.16c.24.92,1.31,2.34,1.42,2.84l1.84-7c2.57-2.29,1.7-1.34.1-.67a9.6,9.6,0,0,0-3.59,2.24,7.77,7.77,0,0,0-2.09,5,13.16,13.16,0,0,0,.27,2.8,1.23,1.23,0,0,1,0-1c-1.23,2.08-3.21,4-2.21,7.73a8.88,8.88,0,0,0,2.15,3.75c2.51,2.82-.59-4.11-.56-.26l2.1-5.06q3.71-1.74,1.26-.93a12.23,12.23,0,0,0-2.58,1,8.2,8.2,0,0,0-2.46,1.77c-2.9,3.2-1.76,6.09-.82,9.76L396,114c-.44.64-1.39,1.49-1.91,2.26-5.19,7.63,7.2,14.79,12.35,7.22Z" style="fill:#1c1b1f"/><path d="M138.08,111.84c.72,1.48.76,2.8,2.09,4.17s2.47,1.42,3.93,2.26L140.81,114c1,3.21,1.29,5.64,4,8a9.5,9.5,0,0,0,3.71,2.07c1.36.34,6.17,1.32,1.58-.65l-3.29-4.27a13.31,13.31,0,0,0,5,7.37l-2.09-5.06c.14,2.24-.33,3.69.43,5.9a34.18,34.18,0,0,1,1.55,5.71,7.92,7.92,0,0,0,4,5.67c.13.07,2.6,1.18,2.71,1-.51.94-3.33-3.83-1-.4l-.72-5.51c.27-1.56.85-1.74-.45,0A8.92,8.92,0,0,0,154.9,136c-1,2.46-.55,4.47.19,6.92.66,2.17,1.22,4.45,2.78,6.17a8.86,8.86,0,0,0,1.85,1.55c1,.61,3.18,2.28,1.38.29l-1.84-7c-.6,3.71-2.36,6.51-1.27,10.62.9,3.37,3.72,6.21,4.43,8.53v-3.8c1.57-3.89-.23-.72-.88.36a8.17,8.17,0,0,0-1.13,5.23,7.89,7.89,0,0,0,1.8,4,5.32,5.32,0,0,0,2,1.84c1.29,1,1.09.79-.58-.72v-7.22c-1,2.15-2.88,3.82-3.74,6.08-1.48,3.93.44,5.73,2,8.95l-.72-5.51c-.9,2.51-1.59,4.53-.56,7.2.49,1.27,3.31,6.05,1.51,1.78v-3.8c-.52,3.44.75-.76-.16,1.68-.4,1.07-1.52,2-1.68,3.23-.41,3.13,2.44-1.67.64.19a13,13,0,0,0-2.4,2.76,7.61,7.61,0,0,0-.19,6.83,8.51,8.51,0,0,0,2,2.84c1.5,1.37,1.41,2.19.31-1l.72-5.51c-.17.26-1.94,2.19-1,1.2.74-.76-1.23,1-1.45,1.21a15.5,15.5,0,0,0-3.59,4.6,7.88,7.88,0,0,0,.43,6.78,11,11,0,0,0,1.52,2c1.43,1.59.69,1.59.42-.29l3.29-8.07c1.45-.48,1.52-.6.21-.35a7.14,7.14,0,0,0-3.61,1,7.26,7.26,0,0,0-3.45,3.73c-1.18,2.85-.42,6.78-.64,8.68l3.54-6.18c4.48-2,0-1-1.53-.61a8.23,8.23,0,0,0-3.7,2.06c-2.67,2.74-2.22,6.27-1.59,9.71v-3.8l-.16.71c-2,9,11.79,12.8,13.79,3.8a15.35,15.35,0,0,0-.22-6.54v3.81l.13-.73-5,5c-1.32.53,3.32-.11,3.26-.09a8,8,0,0,0,4.24-2.8,7.86,7.86,0,0,0,1.62-5,10.6,10.6,0,0,0-.51-2.85c0,1.28,0,1.12.2-.47l-3.29,4.28c-2.35.44-2.89.62-1.63.51a16.44,16.44,0,0,0,2.43-.28,9,9,0,0,0,3.12-1.17c3-1.9,3.77-4.78,3.29-8.08a7.37,7.37,0,0,0-1.73-3.39,10.44,10.44,0,0,0-1.14-1.35c-1-1.12-.93-.82.13.9l-1.83,7c.56-.7,1.23-1.35,1.85-2q1.13-1.36,0-.15l1.45-1.12a21.13,21.13,0,0,0,3.48-4.34,7.64,7.64,0,0,0,.2-6.83,8.6,8.6,0,0,0-2-2.84c-1.45-1.32-1.55-2.27-.34,1l-.72,5.5c-1.7,2.28-.09.49.89-.7a8.86,8.86,0,0,0,1.46-2.33c.19-.43.61-3.13.07-1.76.43-1.08,1.42-1.94,1.86-3.1a13.12,13.12,0,0,0,.76-7.18c-.38-1.55-2.36-3.81-2.6-4.35l.73,5.51c1.7-4.61.58-6.57-1.44-10.63v7.22c1.46-2.69,3.79-4.68,4.23-7.89a7.34,7.34,0,0,0-1.23-5.18A7.19,7.19,0,0,0,173,159.6c-1.28-1-1.09-.79.57.72l.72,5.51c-1.66,3.95,1.11-.67,1.61-2.07a9.18,9.18,0,0,0-.33-6.38c-1.1-3.16-3.68-6.07-4.16-7.86v3.81c.76-3.64,3-7.27.88-11.09a8.58,8.58,0,0,0-3.72-3.34l-1.71-.72c2.22,3.15,3,3.85,2.38,2.11.09-.68-.84-2.42-1.05-3v3.8c-.16.85-1.3,1.87-.09.74a8.77,8.77,0,0,0,1.91-2.9,8.06,8.06,0,0,0-.28-6.85,16,16,0,0,0-2.81-3.6c-1.3-1.25-3.62-1.83-4.6-2.57l3.54,6.17a24.21,24.21,0,0,0-1-6.45c-.16-.49-1.7-3-1.44-3.5-.55,1,.58,3.44.68.28a8.16,8.16,0,0,0-2.85-6.62c-2.45-2.11-1.09.56-.2.82-.44-.13-1.3-3.19-1.71-3.73a8.32,8.32,0,0,0-6.16-3.05c-.17,0-1.86.13-1.86.13l2.79,1q1.37,3.63.88,1.11a8.13,8.13,0,0,0-3.69-6.13,6,6,0,0,0-2.47-1.16q3.76,4.38,2.35,1.55a15.94,15.94,0,0,0-.76-1.68c-4-8.27-16.38-1-12.35,7.21Z" style="fill:#1c1b1f"/><path d="M169.52,153.39c.7-.49.74-2,1.45-2.45s2-.14,2.71-.62,1-1.61,1.72-2.08,2-.12,2.71-.58,1.62-.65,2.35-1.1.53-2.46,1.27-2.91,2.34.57,3.08.13,1.48-.88,2.23-1.3.68-2.32,1.44-2.74,1.92-.09,2.68-.5,1.36-1.13,2.13-1.52,1.76-.36,2.53-.75,1.88-.07,2.66-.45,1.7-.42,2.48-.79,1.73-.34,2.51-.7,1.51-.8,2.3-1.15.8-2.48,1.59-2.82,2.33,1.1,3.12.77,1.52-.82,2.32-1.14,1.22-1.59,2-1.89,2,.45,2.81.16,1.13-2,1.94-2.24,1.53-.86,2.35-1.14,2.14,1,3,.73c1-.32,2-1.94,2.94-1.56s1.17,1.84,1.55,2.78a10.07,10.07,0,0,1,.37,2.26,14,14,0,0,1-.81,4.35c-.18.76,1.08,2,.75,2.69A12,12,0,0,1,228.5,139a14.25,14.25,0,0,1-1.8,1.92,17.78,17.78,0,0,1-2.19,1.41c-.71.44-1.89,0-2.65.42s-1.14,1.58-1.92,1.9-2-.52-2.78-.23-1,2.32-1.83,2.63-2.15-.73-3-.43-1.41,1.28-2.23,1.58-1.71.44-2.54.74-1.41,1.28-2.24,1.57-2.19-.92-3-.63-1.46,1.16-2.29,1.44-1.83.06-2.67.33-1.29,1.73-2.13,2-2.05-.7-2.89-.45-1.66.59-2.5.83-1.69.46-2.54.69-1.79.06-2.64.28-1.42,1.58-2.27,1.78-1.84-.15-2.7,0-1.43,1.81-2.29,2-1.65-.87-2.52-.71c.85.32,1.73-.44,2.58-.15s1.27,1.95,2.14,2.2,1.9-.13,2.78.08,1.82,0,2.71.23,1.83-.25,2.73-.11,1.7.55,2.59.65,1.66,1.55,2.55,1.62,1.87-1.07,2.77-1,1.74.43,2.63.46,1.85-.62,2.73-.55a27.29,27.29,0,0,1,2.65.86c.87.17,1.38,1.57,2.2,1.88a10.21,10.21,0,0,1,2.41.87c.72.51,2.43,0,3,.71s.06,2.22.53,3,1.84,1,2.23,1.79.07,1.93.43,2.72,1.34,1.12,1.66,1.83-1.17,2.26-.84,3,1.6,1,1.92,1.71,1.73.94,2,1.66-1.73,1.28-2,1.89.46,2.62-.26,2.8-2-1.62-2.83-1.52-1.54,1.17-2.37,1.16a20.86,20.86,0,0,1-2.5,0c-.82-.09-1.86.7-2.67.53s-1.59-.77-2.39-1-1.16-1.78-1.94-2.07-1.77,0-2.53-.31-1.85,0-2.6-.33-.51-2.66-1.24-3-2,.24-2.71-.15-1.61-.52-2.32-.92-1.1-1.52-1.85-1.94-1.3-1.15-2.05-1.58-1.89-.12-2.63-.54-1.33-1.1-2.07-1.53-1.53-.76-2.26-1.2-1.55-.73-2.28-1.18-1.19-1.3-1.91-1.76-1.43-.93-2.14-1.4-1.73-.48-2.43-1-1.31-1.11-2-1.61-1.49-.85-2.17-1.37-1.36-1-2-1.58" style="fill:#727272"/><path d="M174.27,156.17c.57-.8.88-1.67,1.45-2.45l-3.29,2.53c1.66-.53,3.12-.54,4.58-1.61.17-.13,2.18-2.07,2-2.2s-3.81,1.72.11.65a13.15,13.15,0,0,0,5.21-2.65c1.21-1.15,1.25-2.77,2.13-4l-4.75,2.72c3.56-.25,6.33,0,9.2-2.78.48-.45,2.59-3.15,2.13-3.8.63.88-3.78,2.56-.44,2,1.12-.19,1.89-1.16,2.89-1.61,3.13-1.41,6.83-1.6,10.08-2.87a12.18,12.18,0,0,0,4.3-2.56,9,9,0,0,0,1.38-2c.44-.83,1.45-2.18,0-.51l-3.89,1.61c2.22.07,3.42,1,5.9,0,2.28-.91,3.63-2.45,5.46-3.9l-3.89,1.62c1.72-.06,3.26.39,4.93-.32.45-.19,3.94-2.7,3.77-3.08,0,0-4.15-.44-1.05.58a8.29,8.29,0,0,0,2.41.33,7.48,7.48,0,0,0,3.27-1.07,7.71,7.71,0,0,0,1.05-.75c.72-.59.74-.57.08.07l-5.35-1.42c.84.77,0,2.66-.13,3.51a8.38,8.38,0,0,0-.17,3.45c.22,1.18,2,3.13.75.88s.79-.61-1.08,0c-.87.29-2,.59-2.91.92-1.9.7-2.88,2.12-4.34,3.32l3.88-1.61c-2.08,0-3.57-.57-5.55.52-1.51.83-1.86,2.45-2.95,3.49l3.89-1.61c-3-.14-4.08-.33-6.86,1.11-1.19.62-2.49.89-3.66,1.53-2.64,1.45,1.77.66-1.51.29-2.46-.28-4.44,1.18-5.93,1.67-2.76.92-3.75,1.84-6,3.61l3.88-1.61a35.42,35.42,0,0,0-12,1.55,7.11,7.11,0,0,0-2.09,1.06c-3,2.13,1.08.27-.74.55-3,.45-3.4,1.1-5.75,2.73l4.24-.56c-.86-.14-1.63-.55-2.51-.71l-1.47,10.81q1.31-.06,2.58-.15l-3.88-1.61c1.33,1.15,2.19,2.62,3.9,3.34s3.75.5,5.58.62c1.53.09,3.66-.21,5.15.28,2.13.71,2.82,2.21,5.49,1.94a11.32,11.32,0,0,0,2.3-.62c2.09-.65-1.85-.35.24-.17,1.26.11,4.53-.12,4.72,0,1.21.5,2.24,1.78,3.52,2.35,1.75.78,3.7.86,5.42,1.57l-3.84-3.84c.31,1,.19,2,.53,3,.59,1.69,1.78,2.17,2.66,3.48.82.67.76.56-.2-.33a4.26,4.26,0,0,0,.47,2,13.7,13.7,0,0,0,2.8,3.6l-1.61-3.89c.21-3.34-.76,1.59-.8,2.31a5.93,5.93,0,0,0,.71,3.44c1.09,2,3.29,3,4.83,4.47L214.05,180l-.16.46,2.53-3.28c-1.35,1-2.93,1.87-3.78,3.4a7.28,7.28,0,0,0-.75,2.78c-.22,2-.41,1.27.5,0l6.21-2.52c-1.42-.35-2.52-1.74-4.3-1.72s-3.74,1-5.6,1.22a9.32,9.32,0,0,0-1.4.25c-1.08.13-.9.28.56.45-.78-.63-1.24-1.55-2.09-2.16-2-1.42-4.65-1.3-7-1.62l3.29,2.53c-.74-1.05-.77-2.51-1.67-3.6a6.69,6.69,0,0,0-5.19-2.29c-.28,0-2.37-.5-1.08.07s-.69-1-1-1.35a15.52,15.52,0,0,0-5.13-3.12c-3.59-1.41-6.53-3.75-9.72-5.88s-5.76-3.07-9.11-5.71c-5.5-4.33-13.34,3.4-7.78,7.78A142,142,0,0,0,178.52,177c2.75,1.58,5.66,2.77,8,4.73,2.61,2.22,5,2.64,8.1,3.08l-3.28-2.53c1.22,1.8,1,3.73,3.22,5s5.52,1.13,7.9,1.39l-3.89-1.61c2.65,2.4,5,4.82,9,4.58a26.2,26.2,0,0,0,9.59-2.3l-4.24.56c.82.27,1.74,1.25,2.83,1.51a5.73,5.73,0,0,0,6.21-2.52c1.28-1.76.87-3.59,1-5.58l-1.61,3.89c1.49-1.58,2.61-2.13,3.38-4.32a5.42,5.42,0,0,0-1.42-5.35c-1.24-1.22-2.78-2.11-4-3.37l1.62,3.89c-.16,2.53.31.28.61-.84a7.45,7.45,0,0,0,.13-2.86c-.19-1.37-1-2-1.51-3.16-1.58-3.35,1,1.56-.67-2.12a9.27,9.27,0,0,0-1.74-2.75c-1.82-1.92-.93-1.14-.54.34-.69-2.63-1-4.6-3.67-5.92-1.4-.69-4.12-1-4.62-1.26-.69-.39-3-2.34-5-2.94s-4.22-.07-5.39-.07c-1.6,0-2.59-.56-4.24-.23-1,.19-1.81.78-2.76,1l4.24.56c-2.49-1.23-4.24-2.58-7.19-2.92s-6-.18-8.95-.3l3.89,1.61c-3.15-2.6-4.2-3.87-8.61-3.66-5.86.28-7.86,9.63-1.46,10.8,2.72.5,5,1.64,7.54-.39q2.22-1.29.08-.69a12,12,0,0,0,2.81-.22c.43-.13,4-2.44,2.67-1.81-1,.16-.71.15.78-.05a10.49,10.49,0,0,0,2.73-.54,22.78,22.78,0,0,1,3.54-.69c1.64-.14,2.81.26,4.44-.6,1.32-.69,2.11-2,3.24-2.85l-3.89,1.61a23.69,23.69,0,0,0,4.13-.53c1.09-.33,3.6-1,1.42-.9,1.37,0,2.52.46,3.89.1s2.76-1.52,4.15-2.13c.38-.17,4.12-1.69,2.51-1.45s2.18.28,2.59.21c3.18-.54,3.09-2.31,5-4.14l-3.89,1.61c1.79,0,3.11.51,4.9-.25,1.58-.66,2.48-2,3.69-3l-3.89,1.62c4.59-.62,8.13-2.06,11-5.92a10.62,10.62,0,0,0,2.37-5.5,7.51,7.51,0,0,0-.56-3c-.5-1.29-.68,1.8.18-.36,1.23-3.06.23-8.15-1.5-10.85-2.9-4.54-7.33-3.57-11.19-1.09l4.23-.56c-2.72-.37-4.45-1.24-7.2-.17-2.52,1-3.56,2.49-5.4,4.24l3.89-1.61c-3.58.08-5.76.14-8.4,2.91-.34.36,1.13.11.72-.41s-1.75-.39-2.24-.39a6,6,0,0,0-4.48,1.87,8.73,8.73,0,0,0-1.38,2c-1.36,2.43-.33.27,0,.22-1.62.23-3.22,1.14-4.82,1.51a60.22,60.22,0,0,0-10.66,3.51,7.69,7.69,0,0,0-3.76,4.51c-.25.63-.18.56.2-.22-.61-.21,2.37-.12.62-.83-1.46-.59-3.89.28-5,1.16-1.7,1.31-1.45,2.89-2.6,4.3,2.94-3.61-6.8,1.57-5.75,2.46.31.26,3.7-1.86-.11-.6a7.56,7.56,0,0,0-2.3,1.12c-1.4,1.09-1.89,2.63-2.86,4-4.09,5.79,5.44,11.29,9.5,5.55Z" style="fill:#1c1b1f"/><path d="M95.39,130.81c-2.32,1.81-4.82,1.83-7.72,4.05-.88.68-2.1,2.43-2.93,3,0,0-3,.76-3.67,1-2.62,1.19-4.87,3.22-7.33,4.61a18.57,18.57,0,0,0-4.5,3.65c2.92-2.84-.9-.41-2.25.15-3.27,1.35-5.51,4.3-4.54,8,.81,3.08,4.76,5.88,8,4.54,1.66-.69,3.35-1,5-1.6a8,8,0,0,0,3.18-2c.33-.34,2.13-2.8.54-1.16-1.33,1.36.46,0,1.2-.33a20.5,20.5,0,0,0,2.35-1.47,22.37,22.37,0,0,1,4.67-2.79,21,21,0,0,0,5.12-2.25,34.51,34.51,0,0,0,2.76-2.89c-.43.32.85-.22,1.36-.39a17.59,17.59,0,0,0,3-1.27,45.66,45.66,0,0,0,5-3.69c6.59-5.14-2.67-14.28-9.19-9.19Z" style="fill:#1c1b1f"/><path d="M70,137.34c4.53,4.21,8.47,8.7,13.46,12.39.23.17,3,2.49,1.55,1,1.28,1.31,2.14,3,3.5,4.28a15.49,15.49,0,0,0,3.35,2.6c1.51,1.15,1.52.87,0-.87a8.32,8.32,0,0,0,1.12,2.3c4.42,7.09,15.67.57,11.23-6.56a19.06,19.06,0,0,0-5.51-5.87c-2.55-1.91-4-4.67-6.62-6.59-4.78-3.56-8.55-7.83-12.91-11.88-6.12-5.7-15.33,3.47-9.19,9.19Z" style="fill:#1c1b1f"/><path d="M268.17,138.4c1,3.14,1.77,6.66,4.35,8.92,3.26,2.85-.06-2.61.51.61a50.78,50.78,0,0,0,1.72,5.09v-3.8c-.46,2.57-2.2,5.82-.13,8.4.44,1.33.54,1.12.29-.61-.44.77-.88,1.54-1.34,2.3a16.65,16.65,0,0,1-2.12,2.58,23.77,23.77,0,0,0-2.8,3.44c1.4-2.05-1.12.76-1.68,1.29a17.55,17.55,0,0,0-2.82,3.48q-1.54,2,.05.5c-.83.63-1.65,1.27-2.47,1.92-3.06,2.4-2.47,7.58,0,10.11,3,3,7.09,2.37,10.11,0,2.38-1.87,3.77-4.33,5.91-6.35a54.56,54.56,0,0,0,6.3-7.09c4-5.45,6.24-10.76,3.63-17.12v3.81c.48-2,1.22-3.53,1-5.71s-1.34-4.51-2-6.7-1.2-4.16-3.05-5.76c-2.86-2.48,0,.47-.32.77,0,0-1.28-3.72-1.33-3.88-2.87-8.7-16.69-5-13.79,3.8Z" style="fill:#1c1b1f"/><path d="M306.26,136.78a31.64,31.64,0,0,0,5.7,3.78l-3.29-4.28c.54,1.87.81,3.95,2,5.94a11.27,11.27,0,0,0,2.09,2.58c3.13,2.86-.38-2.94.39.42v-3.8c-.53,3.84-.94,7.1.27,11.3l.72-5.51c-.93,1.9-3.82,6.69-1.77,8.7-.66-.64,1.7-2,.11-.74a12.62,12.62,0,0,0-2.84,4.34c-.43,1-1.74,5-.12,2.51,1.84-2.77-1.07.69-1.49,1.18s-2.9,3.42-1.8,2.54-2.55,1.16-2.93,1.36c-8.14,4.3-.92,16.65,7.22,12.35,5.41-2.86,11.38-8.15,12.71-14.33a3.76,3.76,0,0,0,0-2c-.28,1.78-.31,2.27-.09,1.45a11.81,11.81,0,0,0,2.67-3.61c1.42-3.41.8-6.31.21-9.74l-.72,5.51c1-1.87,2.13-3.75,2.17-5.94,0-1.37-.73-2.42-.83-3.65q-1.29,1.7.19-1.09c.13-.92.25-1.84.37-2.76A13.54,13.54,0,0,0,326,138.1c-.91-2-2.26-2.5-3.56-4,1.28,1.51.68.74.15-1.17a7.82,7.82,0,0,0-3.41-4.68,11.65,11.65,0,0,0-2.45-1.15c.85.64.74.51-.35-.39-6.89-6.06-17,4-10.11,10.11Z" style="fill:#1c1b1f"/><path d="M261.66,102.09c2.13-.24,4.25-.26,6.19-1.26a18.08,18.08,0,0,0,2.49-2.26l-5.51.72c1.42.56,1.68.45.79-.34a10.75,10.75,0,0,0,2.12,1.8A8.34,8.34,0,0,0,273,101.9a29.32,29.32,0,0,0,8.63-2.45l-5.51-.72c-2.18-1.28-2-2-.75.12a9.71,9.71,0,0,0,2.3,2.68,7.42,7.42,0,0,0,7.52,1.19l1.71-.72c-.85-.11-.84-.17,0-.19,1.47-.42,2.86-.3,4.26-1a9.7,9.7,0,0,0,3.07-2.88c1.1-1.42,2.24-1.77-.57,0l-5.5.72c3,1,5.56,1.86,8.47,2.77,4.28,1.35,6.38,0,10-1.65H299.4a24.53,24.53,0,0,0,2.6,2c1.92,1,4.13,1,6.21,1.42,2.34.45,4.32.53,6.48-.68.77-.44,1.37-1.12,2.09-1.59,1.27-.82-2.62,1,1.07-.3l-5.51-.72c3.58,1.86,7.17,4.27,11.48,2.46a8.39,8.39,0,0,0,4-3.48,9.53,9.53,0,0,0,.79-1.64c.66-1.83,1.54-1.34-1.21.38h-7.21q-2-2.23-1-.86c.45.64.93,1.27,1.43,1.88a9.07,9.07,0,0,0,2.93,1.88c3,1.21,4.78,0,7.31-.92l-5.51-.72c-2-2.73-2.58-3.18-1.71-1.33a12,12,0,0,0,.92,2.07,10.11,10.11,0,0,0,3.17,3.24c2.12,1.58,5.06,1,7.22,0,1.15-.53,1.8-1.47,2.8-2.16-1.36.94-1.12.42.84,0h-3.8c1.67.57,1.73.29.18-.82-1.15-1.39-1.4-1.48-.73-.27a6.44,6.44,0,0,0,1.3,2.14c2.07,2.56,4.75,3.29,7.93,2.83a11.17,11.17,0,0,0,6.18-2.66,13,13,0,0,0,2-2.81c1.14-2.08,1.86-1.22-.84.14h-7.22c.6.38,1.18,1.49,2,1.67.84.6.61.27-.7-1-1.13-1.56-1.39-1.69-.76-.38.43,2.26,2.31,3.95,4,5.23,2.11,1.57,5.07,1,7.22,0a7.87,7.87,0,0,0,2.84-2.59,7.68,7.68,0,0,0,1-1.5q1.26-1.87-.78.19l-8.67-1.12c-1.94-1.59-1-1.25-.45.37a9.23,9.23,0,0,0,2.3,3.92c2.95,2.9,6.17,2.18,9.8,1.39l-5.51-.72c3.26,2,6,4,9.89,1.58a10.42,10.42,0,0,0,3.39-3.74c2.08-3.49-2.75.44.45,0l-7-1.83c-2.5-2.58-1.15-3.06-1.22-1.35a11.3,11.3,0,0,0,.61,3.39c1.22,3.4,3.66,5,7.16,5.52a9.83,9.83,0,0,0,8.09-2.09c.52-.4,2.29-2.37.32-.62s.8,0,1.82-.14l-7-1.84q-1.68-3.5-.83-1.13c.34.83.68,1.65,1,2.47a8.25,8.25,0,0,0,3.83,3.32,7.29,7.29,0,0,0,5.22.22c.44-.14,6.24-2.68,2.69-1.85l-8.08-3.29c-.49-2.14-.69-2.42-.58-.82,0,.61,0,1.23,0,1.84a8.77,8.77,0,0,0,1.31,4.56,7.6,7.6,0,0,0,8.08,3.29,18.5,18.5,0,0,0,4.26-1.27,11.33,11.33,0,0,0,2.22-1.39c1.39-1,2.07-.89.14-.55l-8.08-3.29c-.58-.91-.13-3.59-.75-1.8a8.5,8.5,0,0,0-.18,2.36,9.73,9.73,0,0,0,1.21,5,7.15,7.15,0,0,0,6.18,3.54,9.25,9.25,0,0,0,4.91-1.38q2.24-1.23-1.54.11c1.08.25,1.19.18.33-.2-.61-.63-.55-.52.15.32q1.74,2.41-.79-2.2c-.54,0,.26,4.32.28,4.39,1.18,3.55,4.63,6.93,8.48,7.08,2.49.09,5.72-2,6.69-2.4H405l.37.06c3.85.54,7.63-1,8.79-5,1-3.34-1.17-8.26-5-8.79a10,10,0,0,0-5.63.52,11.91,11.91,0,0,0-2,1c-1.58,1-1.62.08.6.32l5.06,2.09c-2.29-2.7-.12,3.61.48.74a6.53,6.53,0,0,0-.43-3.35,13.59,13.59,0,0,0-5.46-6.8,12.72,12.72,0,0,0-7.65-2,10.81,10.81,0,0,0-3.77.58,11.81,11.81,0,0,0-1.58.72q-2.23,1.22,1.53-.09l6.17,3.54c.56.93.14,3.56.76,1.78a7.76,7.76,0,0,0,.18-2.35,9.28,9.28,0,0,0-1.22-5c-1.84-2.9-4.82-3.85-8.07-3.28a9.89,9.89,0,0,0-4.65,2.7c-1.25,1.13,2-.74.48-.24a18,18,0,0,1-2.45.75l8.07,3.29q.75,3.19.6.81c0-.62,0-1.23-.05-1.84A8.53,8.53,0,0,0,388.74,96c-2-2.66-4.68-4.08-8.07-3.29a8.58,8.58,0,0,0-2.62,1.12c-.9.55-3.12,1.49-.64.88l7,1.83c1.86,1.82,1.3,2.54.67.74a9.6,9.6,0,0,0-2-3.53,7.65,7.65,0,0,0-7.37-2.23,17.66,17.66,0,0,0-4.2,1.23,9.38,9.38,0,0,0-2.94,2c-1.94,2.08,4.36-.66.72-.9l5.05,2.1c2.51,2.62,1.16,3,1.23,1.33a11.18,11.18,0,0,0-.61-3.38,7.89,7.89,0,0,0-7.16-5.52A11.75,11.75,0,0,0,359.71,91,12.27,12.27,0,0,0,358,93.27c-.24.37-.46.76-.67,1.15-.83,1.29-.52,1.14.95-.44h7.22c-1.54-.93-2.19-2-4-2.45-2.19-.59-4.35.11-6.48.59l7,1.84q1.44,2.61.71.48a9.08,9.08,0,0,0-.62-1.7,7.8,7.8,0,0,0-2.11-3.21,7.57,7.57,0,0,0-8.66-1.12A7.87,7.87,0,0,0,348.4,91a7.68,7.68,0,0,0-1,1.5q-1.26,1.88.78-.19h7.22c2.07,1.54,3.15,3.63,1.14-.09A11.09,11.09,0,0,0,353.59,89c-1.63-1.44-3.15-2.76-5.47-3.08-3.18-.43-5.69,1.16-7.51,3.62a10.89,10.89,0,0,0-1.33,2.22c-1,2.49,4.07-2,.37-1.1l5.51.73c2.36,1.56,2,2.19,1.22.47a9.47,9.47,0,0,0-1.68-2.47,10.33,10.33,0,0,0-6.13-2.61,12.49,12.49,0,0,0-6.41.88c-1.68.63-3.28,2.22-4.45,2.77h7.22q3,4.08,1.71,1.32l-.72-1.7a8.59,8.59,0,0,0-3.17-3.46c-3.34-2-5.38-.7-8.36.41l5.51.72c1.63,1.05,1.64,1.34.13-.29a12.68,12.68,0,0,0-2.64-2.25,7.08,7.08,0,0,0-7.21,0,9.41,9.41,0,0,0-3.33,3.42c-.29.6-.55,1.2-.8,1.8q-1.26,2.31,1.4-.84l5.51-.72q-1.75-.83-1.11.18a7.67,7.67,0,0,0-2.3-1.56,7.85,7.85,0,0,0-5.51-.72c-2.58.57-5.4,2.81-6.89,3.48l5.51-.73a49.71,49.71,0,0,0-5.76-1.06c.16.94,4.61,1.65,0-.94-4-2.28-6.62-.24-10.11,1.33l5.51-.72c-4.39-1.24-10.32-4.92-15.07-3-.92.38-5.31,4.67-4.92,4.82.9.33,7-3.71.69-2a16.21,16.21,0,0,0-2.54,1.32L286,90c.86.51,1.93,2.69,1.21.76a7.12,7.12,0,0,0-.92-1.55,8.2,8.2,0,0,0-5.66-3.68c-2.27-.3-3.54.67-5.4,1.33A48,48,0,0,1,270.11,88l5.51.72c-.26-.12-1.77-1.49-2.67-2a14.34,14.34,0,0,0-5.27-1.38,7.81,7.81,0,0,0-5.19,1.21c-5.05,3.31,2.64.82-.83,1.21-3.87.43-7.1,3-7.15,7.15,0,3.53,3.32,7.57,7.15,7.15Z" style="fill:#1c1b1f"/></svg>