<svg id="레이어_1" data-name="레이어 1" xmlns="http://www.w3.org/2000/svg" viewBox="0 0 500 300"><path d="M421.68,75.87a3.47,3.47,0,0,0-1.57-1.41,3.15,3.15,0,0,0-4-2.5,2.83,2.83,0,0,0-1.37-.42c-.11-2-2.05-4-4.12-3.09a3.23,3.23,0,0,0-1-.3,6.71,6.71,0,0,0-.07-.76,4.93,4.93,0,0,0-4.31-3.11,3.32,3.32,0,0,0-4.71-1.09,9,9,0,0,0-2.3,3.27,4,4,0,0,0-.41-.41,3.44,3.44,0,0,0,0-.56,3.6,3.6,0,0,0-2.05-2.66,5,5,0,0,0-.17-1C395,60,392.13,59,390.65,60.36a7.1,7.1,0,0,0-1.56,2.07,2.49,2.49,0,0,0-1.51.68l-.17.18a3.2,3.2,0,0,0-2-.37,2.82,2.82,0,0,0-.29-.39,7.36,7.36,0,0,0-.1-3.28,3.24,3.24,0,0,0-5.5-.92,4,4,0,0,0-.52.87,2.84,2.84,0,0,0-3.34,1,7,7,0,0,0-1,2.49,3.1,3.1,0,0,0-.72-.26,19.56,19.56,0,0,0-.25-3.17c-.41-2.06-1.7-2.68-3.44-3.56a3.25,3.25,0,0,0-4.17,1.51,3.87,3.87,0,0,0-.43.27,3.24,3.24,0,0,0-3.28-1.18,3.28,3.28,0,0,0-4.53,1.49,4.27,4.27,0,0,0-.26,1.3,2.75,2.75,0,0,0-.69.21,3.09,3.09,0,0,0-4.14,1,4.82,4.82,0,0,0-.9-1.06c-1.47-1.25-4.34-.83-5,1.18a6.46,6.46,0,0,0-.27,1.18,3.26,3.26,0,0,0-2.2,1.16l0,0c-1.93-1.31-4.87-.62-5.22,2a5.47,5.47,0,0,0-.05.82,2.48,2.48,0,0,0-1.27,0,3.18,3.18,0,0,0-4,1.59c-.22,0-.45,0-.7,0a3.15,3.15,0,0,0-2.63,1.9,6.77,6.77,0,0,0-.23,4.57,3.18,3.18,0,0,0-3.15,3.16,4,4,0,0,0-.49-.16,2.9,2.9,0,0,0-3.48,2.27,3.49,3.49,0,0,0-1.4,3.3,2.73,2.73,0,0,0-.43.26,3.35,3.35,0,0,0-2.8,3,3.33,3.33,0,0,0-.2,2.61,3.43,3.43,0,0,0-.92.68A3.65,3.65,0,0,0,314.57,91a3.18,3.18,0,0,0,.31,3.16,5,5,0,0,0,.32.44l-.19,0a3.14,3.14,0,0,0-2.72,3.82,3.16,3.16,0,0,0-.13.87,3.52,3.52,0,0,0-1.37,1.1.91.91,0,0,1-.07-.14,3.24,3.24,0,0,0-5.06-.26,3.61,3.61,0,0,0-.92.15,3.31,3.31,0,0,0-4.15.4l-.23,0a5,5,0,0,0-3.11-2.27,3.26,3.26,0,0,0-3.45,1.88,6.58,6.58,0,0,0-.49,2.44,3.43,3.43,0,0,0-1.1.62,7.3,7.3,0,0,0-.78-2,2.77,2.77,0,0,0-2.18-1.33,3.25,3.25,0,0,0-5.42.73v0a2.46,2.46,0,0,0-.68.31,3,3,0,0,0-1.4,0c-.07-.14-.13-.28-.21-.41-1.31-2.18-4.59-1.52-5.56.56a5,5,0,0,0-.41,2,2.91,2.91,0,0,0-1.12,1,6,6,0,0,0-.71-2.05,3,3,0,0,0-3.89-1,2.93,2.93,0,0,0-2.54-.59,3.39,3.39,0,0,0-4.42,1.59,5.72,5.72,0,0,0-.45,1.83l-.08,0a3,3,0,0,0-1.88-.33,1.87,1.87,0,0,0-.34-.08,1.76,1.76,0,0,0-.14-.23,3.16,3.16,0,0,0-1.87-1.25,1.86,1.86,0,0,0-.18-.34c-1.36-2.17-4.54-1.54-5.57.55a4.28,4.28,0,0,0-.35,1.15,3.39,3.39,0,0,0-2.56-1.23.25.25,0,0,0,0-.07,3.17,3.17,0,0,0-5.09-.14,3.24,3.24,0,0,0-4.07,0,3.85,3.85,0,0,0-.75.16,2.85,2.85,0,0,0-2.32,0,6.06,6.06,0,0,0-2,1.6,2.6,2.6,0,0,0-.62,0,3.24,3.24,0,0,0-.19-.37c-1.41-2.21-4.49-1.48-5.57.55a6.27,6.27,0,0,0-.49,2.75,3.88,3.88,0,0,0-1,.86,4.59,4.59,0,0,0-.63-.27,5.47,5.47,0,0,0-.58-.15c-.06-.12-.11-.24-.18-.36a3,3,0,0,0-4.37-.73,3.2,3.2,0,0,0-.38-.67,3.25,3.25,0,0,0-5.57.55,6.61,6.61,0,0,0-.44,2.74,2.59,2.59,0,0,0-.39.25,3.35,3.35,0,0,0-4.7,1,3.3,3.3,0,0,0-1.16.29,5.92,5.92,0,0,0-.74-1.31,3.71,3.71,0,0,0-.62-.63,8.08,8.08,0,0,0-.89-3.52c-1.32-2.17-4.43-1.51-5.51.45l-.23-.24a3.06,3.06,0,0,0-4.29.27,3.18,3.18,0,0,0-2.23-1.62,3,3,0,0,0-2.46-.83h0a3.11,3.11,0,0,0-1.67-.32,5,5,0,0,0-1.67.57,3.52,3.52,0,0,0-.3-.45,3.46,3.46,0,0,0-1.78-2.24,5,5,0,0,0-.75-.35,4.66,4.66,0,0,0,.24-.69,2.67,2.67,0,0,0-1.26-3,6,6,0,0,0,.64-1.51c.56-2.15-1.56-3.8-3.5-3.68a4.36,4.36,0,0,0-.59-.35,3.19,3.19,0,0,0-4-1.61c-2,.77-3.72,3.18-5.19,4.91a3.48,3.48,0,0,0-.41-.76v0a6.67,6.67,0,0,0,0-1.26,5.06,5.06,0,0,0,.4-1,4.33,4.33,0,0,0,.1-2.35,7,7,0,0,0,.57-1.74c.12-2-1.63-4.33-3.78-3.72-.6-1.84-3-2.28-4.69-1.52a3.77,3.77,0,0,0-1.12-1,3.56,3.56,0,0,0-1.43-1.12,3.17,3.17,0,0,0-2.1-1.38,3.12,3.12,0,0,0-2.42-.69,3.33,3.33,0,0,0-1.75-2,1.51,1.51,0,0,0,0-.3c-.28-2.18-3-3.91-5-2.37a3.47,3.47,0,0,0-1.65-.84,3.22,3.22,0,0,0-3.8-1.64,3,3,0,0,0-1.4-.22,4.42,4.42,0,0,0-3.22-.74,4,4,0,0,0-3.3,2.88,3.37,3.37,0,0,0-1.81,0,6.67,6.67,0,0,0-.38-2.52,3.48,3.48,0,0,0-3.91-2,3,3,0,0,0-.73-.09,3.06,3.06,0,0,0-2.79-.07,3.67,3.67,0,0,0-3.75,1,.59.59,0,0,0,0-.08,2.75,2.75,0,0,0-3.15-1.27,3.4,3.4,0,0,0-4.62,1.46,6.5,6.5,0,0,0-.78,2.59,3.42,3.42,0,0,0-1.12-.76,3.9,3.9,0,0,0-.38-.63c-1.37-1.75-4.75-1.92-5.57.56a10.55,10.55,0,0,0,.07,4.93c-.55-1.85-1.09-3.9-2.39-5.26-1.56-1.62-3.85-.57-4.83,1.05a3.73,3.73,0,0,0-1.23.76,3.71,3.71,0,0,0-1.6.12,3.17,3.17,0,0,0-3.65,2.65A5.57,5.57,0,0,0,94.85,77,2.7,2.7,0,0,0,94,78.79v.1l-.27.11a3.24,3.24,0,0,0-1,0,3.13,3.13,0,0,0-3.78,1.18l-.1,0a3.68,3.68,0,0,0-.56-.06,4.54,4.54,0,0,0-.94-.63,3.25,3.25,0,0,0-4.48,2.44,10.32,10.32,0,0,0-.16,1.57,4.32,4.32,0,0,0-.8-.41c-2-.8-5,.73-4.5,3.25l0,.12a2.53,2.53,0,0,0-.33,1.1,5.17,5.17,0,0,0-.88-.34c-1.87-.5-3.24,1-3.57,2.61A3.25,3.25,0,0,0,71,91.65,3.24,3.24,0,0,0,67.72,96a2.65,2.65,0,0,0-.35.79A3.13,3.13,0,0,0,65.49,100h-.08a2.59,2.59,0,0,0-2.26,1.25A3.34,3.34,0,0,0,61.82,106a1.71,1.71,0,0,1,.11.14,3.05,3.05,0,0,0,.2,2.18,2.83,2.83,0,0,0,.58,2.17,5.36,5.36,0,0,0,.72.71,3.14,3.14,0,0,0-1.29,1.69,3.09,3.09,0,0,0-.38,4,3.06,3.06,0,0,0-1.16.9,4.1,4.1,0,0,0-.71.18,3.37,3.37,0,0,0-2.09,3.06c-1.42.92-2.29,3.08-1.32,4.53a3.32,3.32,0,0,0,1.79,3.49,6.41,6.41,0,0,0,2.85.59,3.74,3.74,0,0,0,.62,1.82,4.42,4.42,0,0,0-1.28.6,3.26,3.26,0,0,0-1.18,1.76,5.88,5.88,0,0,0-1.75.89c-2.11,1.63-1.55,4.31.55,5.57a4.9,4.9,0,0,0,.76.38,4.48,4.48,0,0,0-.64.51c-1.93,1.81-.09,4.74,2,5.22a4.43,4.43,0,0,0,.51.06c0,.08.08.16.12.24a3.29,3.29,0,0,0-.06,3.79,3.73,3.73,0,0,0,2.33,1.77,3.29,3.29,0,0,0,1.17,2.59,3.38,3.38,0,0,0,.49,1.23c-1.06,2,.75,4,2.66,4.35a2.2,2.2,0,0,0-.15.26,3.25,3.25,0,0,0,3.26,4.51,6.76,6.76,0,0,0,2.37-1,4.09,4.09,0,0,0,.45,1.41,3,3,0,0,0,2.13,2.59,3,3,0,0,0,2,3.22,3.5,3.5,0,0,0,.54.78,3.38,3.38,0,0,0,.24,1.59,3.34,3.34,0,0,0-.4.65,3.24,3.24,0,0,0-3.56,3,3.32,3.32,0,0,0-1.57,2.37h0a3.18,3.18,0,0,0-3,1.13l-.41.63a3.42,3.42,0,0,0-.14,3.9,4.31,4.31,0,0,0,.9,1.1,2.69,2.69,0,0,0-.06.69,3.72,3.72,0,0,0-.56,2A4.2,4.2,0,0,0,66.18,191a3.26,3.26,0,0,0-.51,3.19,3.23,3.23,0,0,0,0,3.71,5.56,5.56,0,0,0,.92.9,3.93,3.93,0,0,0-.08,2.18,7.34,7.34,0,0,0-1.61.35,3,3,0,0,0-1.45,1.1,1.47,1.47,0,0,0-.28.08,3.28,3.28,0,0,0-1.85,4.27,3.41,3.41,0,0,0-.55,4.3,3.26,3.26,0,0,0,.39,3.85,3.28,3.28,0,0,0,.24.88l-.25.28a3.24,3.24,0,0,0,1.18,5l.17.07a3.32,3.32,0,0,0,.23,1,4.93,4.93,0,0,0-.66.59,3,3,0,0,0-.7,2.24c-.71,1.5,0,3.84,1.65,4.32.21.06.42.11.64.15a3.35,3.35,0,0,0,2.45,4,4.62,4.62,0,0,0-1,1c-1.23,1.65-.7,4.47,1.37,5.1-.67,1.68.73,4.11,2.57,4.19a9.08,9.08,0,0,0,1.24-.07,3.78,3.78,0,0,0,.59.61c-.06.1-.13.2-.19.31A3.25,3.25,0,0,0,73.93,249a3.61,3.61,0,0,0,.57-.12,2.66,2.66,0,0,0,1.26.64,6,6,0,0,0-.61,1.41c-.57,2,1.12,3.35,2.87,3.59A3.48,3.48,0,0,0,82,256.05a3.22,3.22,0,0,0,2,0,3.7,3.7,0,0,0,3.18.51,1.81,1.81,0,0,1-.09.23c-.48,1.05-1.34,2.18-1.43,3.37a3.24,3.24,0,0,0,4.76,3.26l.18.32a2.59,2.59,0,0,0,1.4,1.14,3.38,3.38,0,0,0,2.76,2.68,3.28,3.28,0,0,0,4.22.44,4.61,4.61,0,0,0,.93-.94,2.84,2.84,0,0,0,.77,0,3.09,3.09,0,0,0,3.44.74c0,.18.06.36.1.55.48,2.06,3.36,2.6,4.88,1.51l.3-.24a3.18,3.18,0,0,0,.81.25,6.85,6.85,0,0,0,.5,2.23,3.25,3.25,0,0,0,5.5.92,7.68,7.68,0,0,0,1.35-3.14c.07-.29.3-1,.24-.89a14.18,14.18,0,0,0,.6-1.3c.12-.35.23-.71.32-1.07a4.47,4.47,0,0,0,1.34.57v.14c0,2-.26,4.25.79,6.31a3.27,3.27,0,0,0,6,.19,5.63,5.63,0,0,0,.59-2.09,3.31,3.31,0,0,0,4-.93,4.12,4.12,0,0,0,.6,1.29,3.13,3.13,0,0,0,4,1A3.47,3.47,0,0,0,138,273l.32.17a5.94,5.94,0,0,0,5.57-2.38,6.43,6.43,0,0,0,.65-3.95c0-.1,0-.19,0-.29l0,0c.08.2.16.4.25.6.57,1.41,1,3.05,2.2,4.12a3.21,3.21,0,0,0,4.87-1,2.77,2.77,0,0,0,2.59-1.85,8.92,8.92,0,0,0,0-5.29,3.37,3.37,0,0,0,4.34-.89,9.86,9.86,0,0,0,1,.65c.18.2.35.41.52.61a5.92,5.92,0,0,0,1.73,1.41c1.88,1,3.66-.29,4.27-2a3,3,0,0,0,1.31-.42,3.43,3.43,0,0,0,3.15-3.58,5.43,5.43,0,0,0-.54-1.77s0-.08-.06-.14a2.81,2.81,0,0,0,.1-1.24,4.55,4.55,0,0,0-.38-1.27c1.86.16,3.9-1.15,3.67-3.22l0,0a3.93,3.93,0,0,0,2.91-.23,5.56,5.56,0,0,0,2,1.32c2.6.77,4.82-1,4.41-3.64a3.3,3.3,0,0,0,.67-.83,3.3,3.3,0,0,0,2.72-2.86,3.39,3.39,0,0,0,1.63-3.15,3.39,3.39,0,0,0,3.75-3.35,3.25,3.25,0,0,0,2.23-5,4.22,4.22,0,0,0-.36-.54,3.56,3.56,0,0,0,.25-.82,3.38,3.38,0,0,0,2.21-1.4,2.92,2.92,0,0,0,2.34-2.71l.08-.05a3.23,3.23,0,0,0,3-.4,3.15,3.15,0,0,0,3.19-1.18,3.25,3.25,0,0,0,3.59-1.82,6.13,6.13,0,0,0,.43-2.31,3.25,3.25,0,0,0,4.4.13l.55.44a3.36,3.36,0,0,0,3,.55,4.6,4.6,0,0,0,.63,1.45,3.25,3.25,0,0,0,5.48-.39,3.09,3.09,0,0,0,1-.24,1.9,1.9,0,0,0,.2.34,3.23,3.23,0,0,0,4.81.49,3.38,3.38,0,0,0,4-1.69c.08-.14.14-.29.21-.44a2.86,2.86,0,0,0,1.5.22,3.25,3.25,0,0,0,5.45-.44,3.27,3.27,0,0,0,4.92-.15,3.58,3.58,0,0,0,1,.08,3.38,3.38,0,0,0,4.7-1.41,7.65,7.65,0,0,0,.81-3.56,1.35,1.35,0,0,0,.26-.15,4.19,4.19,0,0,0,.61-.45,3.08,3.08,0,0,0,.53.08,8.11,8.11,0,0,0,1.38,3.06,3.37,3.37,0,0,0,4.83.52,3.25,3.25,0,0,0,5.44-.71,4.56,4.56,0,0,0,.2-.59,3.17,3.17,0,0,0,3.85-.92,5.17,5.17,0,0,0,.94,1.51c1.56,1.67,4.54,2,5.57-.56a5.45,5.45,0,0,0,.2-.61,3,3,0,0,0,1.57-1.6,4.21,4.21,0,0,0,.23-.81,6.52,6.52,0,0,0,1,2.69,3.25,3.25,0,0,0,5.57-.55,4.6,4.6,0,0,0,.24-.92,3.42,3.42,0,0,0,2.06-.34,6.29,6.29,0,0,0,.66.92,3.49,3.49,0,0,0,4.3.89,3.27,3.27,0,0,0,3.89-1.76,3.64,3.64,0,0,0,.22-.71,3.11,3.11,0,0,0,.92-1.18,4.49,4.49,0,0,0,.33-1.6,2.69,2.69,0,0,0,.27-.32,6.11,6.11,0,0,0,1-2,3.27,3.27,0,0,0,.48.35,5,5,0,0,0,.73,1.89A3.17,3.17,0,0,0,302,215a3.42,3.42,0,0,0,1.59-.1,3.2,3.2,0,0,0,4.67.13,3.25,3.25,0,0,0,3,.17,3.31,3.31,0,0,0,1.5,0,3.08,3.08,0,0,0,4.11-1.52,5.23,5.23,0,0,0,.47.88,3.25,3.25,0,0,0,5.57-.55c0-.07,0-.13.07-.19a3.39,3.39,0,0,0,2.74,0,3.15,3.15,0,0,0,3.19.51c-.3,1.71.47,3.62,2.54,3.78a3.53,3.53,0,0,0,.46,0,3.08,3.08,0,0,0,1.45,2.64,3,3,0,0,0,1.18,2.51c0,.14-.09.27-.13.41a3.3,3.3,0,0,0,2.2,3.61,3.9,3.9,0,0,0,.67.79,3.37,3.37,0,0,0,1.48,2.2,3.47,3.47,0,0,0,1.7,1.82,2.93,2.93,0,0,0,1.17.88,5.24,5.24,0,0,0,1.42.37,3.16,3.16,0,0,0,2.71,3.56,3.44,3.44,0,0,0,2.12,1.51s0,.07,0,.11a3.05,3.05,0,0,0,1.79,3.36,3.23,3.23,0,0,0,3.24,1.91,3.36,3.36,0,0,0,2.51,1.79c.06,2.71,2.62,4.08,5,2.8a3.9,3.9,0,0,0,1-.9,3.79,3.79,0,0,0,3.74.68,3.21,3.21,0,0,0,3.2.86,3.2,3.2,0,0,0,1.67,1.51,7.32,7.32,0,0,0-.69,3.34c.26,2.3,3.1,3.84,5,2.31a4.71,4.71,0,0,0,.74-.74,3.25,3.25,0,0,0,4.66-.19,2.91,2.91,0,0,0,.33-.37h.09a5.28,5.28,0,0,0,.16,1.81,3.24,3.24,0,0,0,4.76,1.59,3.32,3.32,0,0,0,3.07.52c.93,2,4,3,5.49.9a6.2,6.2,0,0,0,.86-2,2.42,2.42,0,0,0,2.19-1,6.06,6.06,0,0,0,1.24,1.41,3,3,0,0,0,2.76.62,4.09,4.09,0,0,0,.41.84,3.25,3.25,0,0,0,5.57-.55,9.16,9.16,0,0,0,.4-3.61c0-.34,0-.69,0-1a10.43,10.43,0,0,0,.21-1.1c0-.27.06-.47.09-.66a2.5,2.5,0,0,0,.62-.17l.07,0a5.93,5.93,0,0,0,3.17,3.89,3.17,3.17,0,0,0,4.26-1.79,5.36,5.36,0,0,0,1.09,1.43,3,3,0,0,0,3.38.39,3.38,3.38,0,0,0,3.57-1.14,2.87,2.87,0,0,0,1.48-1.33,3.1,3.1,0,0,0,3.21-.25,3.35,3.35,0,0,0,3.56-2.73,6,6,0,0,0-.12-2.49,3.71,3.71,0,0,0,.46.19,3.32,3.32,0,0,0,4.49-2.44,8,8,0,0,0,5.46-6.19,1,1,0,0,1,0-.1,3.26,3.26,0,0,0,.87-.45,4.74,4.74,0,0,0,1.93.05,3.26,3.26,0,0,0,2.7-4.32,4.74,4.74,0,0,0-1-1.52,3.37,3.37,0,0,0,0-.55,3.53,3.53,0,0,0,3.12-1.52,2.89,2.89,0,0,0,1.4-3.6,6.63,6.63,0,0,0,2.4.56,2.81,2.81,0,0,0,2.53-1.76,3.16,3.16,0,0,0,1.26-3.44,3.41,3.41,0,0,0,.3-1,3.14,3.14,0,0,0,1.92-3.24,7.9,7.9,0,0,0-.4-1.36,2.73,2.73,0,0,0-.47-2.7l-.17-.17a2.53,2.53,0,0,0-.2-1.69c-.13-.25-.26-.48-.4-.7a6.74,6.74,0,0,0,1.92-.22c2.5-.71,2.58-4,.92-5.5a3.86,3.86,0,0,0-1.17-.71,5.74,5.74,0,0,0,2.52-.24c1.83-.73,2.78-3.3,1.57-4.89a3,3,0,0,0,.14-2.59,3.22,3.22,0,0,0-.37-4.86,3.23,3.23,0,0,0-1.85-3.34,5.48,5.48,0,0,0-2.23-.43,3.25,3.25,0,0,0-.61-.56,3.26,3.26,0,0,0-.47-1.57l.16-.13a3.21,3.21,0,0,0,.32-4.89,7.34,7.34,0,0,0,1.84-1.27c1.9-1.87.13-4.7-2-5.22a4.68,4.68,0,0,0-1.59-.06,3.48,3.48,0,0,0-1.1-2.26,6.2,6.2,0,0,0,1.3-1.43c1.21-1.83.7-5-2-5.22a5.71,5.71,0,0,0-2.11.29c1.1-2.27-1-4.54-3.28-4.45h-.08a.54.54,0,0,1-.05-.11,7.34,7.34,0,0,0,2-2.31,3.3,3.3,0,0,0-2.13-4.44,2.8,2.8,0,0,0-3-1.45l-.47.13a3,3,0,0,0-.23-.38,3.13,3.13,0,0,0-2.11-2.77,3.36,3.36,0,0,0-3.56-3.05,5.07,5.07,0,0,0-2.3.61l-.11-.26a5.52,5.52,0,0,0,.93-2.19,2.73,2.73,0,0,0,0-.7,3.15,3.15,0,0,0-.21-2.49,3.16,3.16,0,0,0,1.4-.87,3.24,3.24,0,0,0,2.58-2.93c1.84-.81,1.94-3.36.86-4.86a2.8,2.8,0,0,0,.55-.59l.33-.1c2-.82,2.89-3.75,1.16-5.3a2.85,2.85,0,0,0-1-3.32,2.53,2.53,0,0,0-.41-.22,1.34,1.34,0,0,0-.07-.18,3.24,3.24,0,0,0-.89-2.25,3.22,3.22,0,0,0-.21-4.52,3.38,3.38,0,0,0,.58-.37c1.74-1.45,1.93-4.67-.55-5.57a7.6,7.6,0,0,0-1.4-.27h0l.17-.14a2.65,2.65,0,0,0,.22-3.59,7.11,7.11,0,0,0,.56-.53,3.25,3.25,0,0,0-1.59-5.14,3.22,3.22,0,0,0-2.68-3.14,16.76,16.76,0,0,0-4.06.18l-.53.06A2.42,2.42,0,0,0,432.5,99a3.08,3.08,0,0,0-.5-1,3,3,0,0,0-.13-2.06,7.09,7.09,0,0,0,2-2.18c1.19-2.27-1-4.62-3.26-4.51a8.91,8.91,0,0,0-1.05.3,3.6,3.6,0,0,0-.07-.55,7.27,7.27,0,0,0,.27-1.46,4.54,4.54,0,0,0,.31-.5,5.09,5.09,0,0,0,.54-1.44,3.22,3.22,0,0,0-3.49-3.7,6,6,0,0,0-.8.22,3.32,3.32,0,0,0-.42-.32,3.26,3.26,0,0,0-1.53-3A3.42,3.42,0,0,0,421.68,75.87Zm-248,172.54.13.1,0,0ZM135,72.3c.13-.43.38-.62,0,0Zm-74.59,57c-.43.19-.32.06,0,0Zm60.31,142.12c-.09.32-.22.42,0,0Zm132.92-53.83c0,.61-.27.81,0,0Zm23.81-1.11c0,.58-.3.9,0,0Zm92.72,34.93c-.22.38-.5.46,0,0Zm36.59,5c.4.74.07.6,0,0ZM430.81,248h0C431.2,248.26,431.06,248.26,430.81,248Zm29.06-42.16c.25.09.3.16,0,0ZM450,162.26c.37-.17.53-.13,0,0Zm-12.22-13.59s0,0,0,0C438,148.33,438.22,148.35,437.73,148.67Z" style="fill:#fff"/><path d="M429.46,68.09a16.15,16.15,0,0,0-3.8-3.13l3.94,4a13.52,13.52,0,0,0-5.4-6.12c-2.05-1.2-5.1-1.41-6.55-1.85l7.68,7.68c-2-8.5-9.54-12.11-17.66-10.78h5.85l-1-.3,8.07,10.61c-.74-7.48-4.89-13.05-12.45-14.47L413,56.51c-7.25-9-19.64-4.37-24.29,4.4L406,58.68l-.4-.41,3.22,7.78c-.27-5.59-3-9.65-7.53-12.72l5.06,6.57c-1-5.53-5.63-9.53-10.92-10.76-6.74-1.57-12.34,2.21-15.79,7.73l6.58-5a14.21,14.21,0,0,0-6.54,3.69l10.71-2.83a15.64,15.64,0,0,0-4.94-.76l9.49,5.44-.28-.38,1.5,5.55c1.18-15.28-18.55-22.55-26.62-8.89l12.43-5c-8.81-1.24-15.33,2.46-17.87,11.18l13.53-7.68-.72-.25,8.08,10.6c-.24-6.58-2.19-12.26-8.15-15.72a15.42,15.42,0,0,0-9.2-2.11,13.48,13.48,0,0,0-5.26,1.53c-.94.52-5.12,3.62-2.24,1.85l13.33,1.72a16.94,16.94,0,0,0-6.93-4.05,16,16,0,0,0-7.64-.52,14.12,14.12,0,0,0-11.88,11l7.68-7.68-.69.21h5.85A14.21,14.21,0,0,0,345,52.52h15.55c-7.44-8.85-22-5-24.53,6.15L343.67,51a19.4,19.4,0,0,0-7,4h15.55c-9.82-8.19-23.28-1.93-24.07,10.56l11-11c1.79,0-2.58-.21-2.46-.21a14.14,14.14,0,0,0-5.36,1.2c-3.06,1.29-5,3.47-6.94,6.07l9.5-5.45c-11.12.32-16.29,10.31-14.17,20.42L327.37,63a14.06,14.06,0,0,0-10.84,10.85l13.53-7.69c-10.9-3.62-18.84,6.95-19.29,16l5.45-9.5c3.15-1.91-3.54,2.16-3.68,2.29a14.58,14.58,0,0,0-2.9,3.39,16.39,16.39,0,0,0-2.3,9.71l5.44-9.5c2.68-2-4.69,3-4.65,3a15.46,15.46,0,0,0-3.61,5.2,13.83,13.83,0,0,0,1.19,13.39l9.49-16.55c-3.73.4-7.21,1.52-9.94,4.24a14.57,14.57,0,0,0-3.38,5.69c-.35,1.12-.79,6-.33,2.85l5.06-6.57a18.6,18.6,0,0,0-3.6,2.82l17.28,2.23c-4.16-8.72-16.23-8.34-22.41-2.63l4.86-2.83-.92.15,8.47,1.11c-5.1-2.39-10.37-2.87-15.25.4l5.55-1.5-.23,0,7.78,3.22a14.67,14.67,0,0,0-16.51-4.48c-6.26,2.52-8.66,8-9.32,14.31l5.45-9.5-1.1.62,16.16,6.58c-1.77-5.56-5-9.22-10.65-11L297,92.18c-8.49-7.12-19.52-4.8-23.81,5.61l5-6.57-.67.31,5.55-1.5h-1.4l9.49,5.45c-2.84-5.75-10.1-8.29-16.07-6.62-6.86,1.91-9.94,7.74-10.6,14.35l3.22-7.78-1.12,1,18.38,4.85c-2-8.32-9.8-13-18.13-10.76l8.48,1.11c-4.76-2.33-8.63-3.33-14-1.59a14.19,14.19,0,0,0-9.58,11l7.69-7.68h5.76c-.78-.27-6.3-1.38-2.21-.41l6.57,5a13.67,13.67,0,0,0-5.95-5.42l3.94,4c-6.25-12-22.7-7.33-26.21,4l18.38-4.85c-2.38-1.9-4.39-3.34-7.4-4.07L259,96.72c-5-8.81-15.54-8-22.41-2.44l13.33-1.72a14.75,14.75,0,0,0-7.56-2.23c-1.35.14-2.68.33-4,.59q-4.37,1.92-1.73.69h5.85c-5.89-1.35-10.76.13-15,4.38l7.78-3.22-.62,0,9.5,5.45C241.14,92.59,234,90,228,91.69c-7.06,2-10.28,8.21-10.7,15.06L220.56,99l-1,.86,13.33-1.72a29.53,29.53,0,0,0-3.84-1.53l6.58,5.06c-3.88-7.7-12.71-8.14-19.61-5l15.05,4a14.46,14.46,0,0,0-16.26-6.9c-7.09,1.94-10.21,8.23-10.62,15.07l5.45-9.5-.39.26h11.1c-6.14-3-13.28-2.64-18,2.77l4.85-2.83-1.15.28,12.42,5.06a20,20,0,0,0-3.08-4.17l3.22,7.78c-.68-6-2.45-11.34-8.12-14.3a14.11,14.11,0,0,0-17.06,3.45H209c-4.52-4.91-12.49-5.42-17.85-1.69l13.33,1.72a16.42,16.42,0,0,0-15.41-5.28h5.85a17.81,17.81,0,0,0-11.81,1.36l15,3.94c2.48,3.63-2.4-3.65-2.65-3.9a14.39,14.39,0,0,0-4.13-3.08L196.44,103a13.68,13.68,0,0,0-3.86-14.42l1.72,13.33c2.15-5,3.27-9.88.22-14.87-2.8-4.58-7.46-6.3-12.57-6.87l5.55,1.5-.59-.34,4,3.94c-3.75-5-8.64-8.28-15.19-6.87-4.87,1-8.17,4.24-11.25,7.94l17.28,2.23-.41-.76,1.11,8.47a19.71,19.71,0,0,0,.44-4.2l-1.51,5.55a18.83,18.83,0,0,0,1.93-6.33c.57-4.07-.1,1,.26-1.4a15.67,15.67,0,0,0,.06-5.59c-1.37-7-7.06-12.28-14.45-12l9.5,5.45a14.64,14.64,0,0,0-17.12-6.58L172.22,74c-4.61-4-7.73-6.91-14.85-7.39l9.5,5.45a18.59,18.59,0,0,0-5.7-5.94l5.45,9.49c-.6-11.29-11.76-17.07-21.54-12.17h11.1a17.45,17.45,0,0,0-4.28-1.95l4.86,2.83c-3.73-4.58-9-5.34-14.5-4.47h5.85c-2.59-.41-7-1.93-11.1-.77a14.66,14.66,0,0,0-9.25,7.75l9.5-5.45h-1.81l11,11c-.4-7.09-3.9-13.33-11.2-15.19a33.5,33.5,0,0,0-4.09-.34c1.91.25-2.93-.28-3.61-.27a15.87,15.87,0,0,0-9.21,2.65l15,3.94a13.34,13.34,0,0,0-7.48-6.07c-.77-.25-5.46-1-3.65-.75.6.08-2.8-.38-3.58-.37-7,.14-12.7,5.86-14,12.51l16.16-6.57-1.12-.76,4,3.94a14.87,14.87,0,0,0-17.15-6.62c-9.1,2.8-10,12-8.84,20l21.21-5.85c-1.61-5.41-4.18-10.81-9.76-13a14,14,0,0,0-8.78-.53c-2.47.64-4.72,2.74-6.06,3.56l5.55-1.5c-4.86.37-9.15,1-12.59,4.77-3.65,4-4.1,9.07-3,14.14l1.11-8.48A13,13,0,0,0,83,78.89L91,68.28q6.09.06.16-.49a10.32,10.32,0,0,0-3.58.6,14.89,14.89,0,0,0-6.51,4l10.7-2.83a30.49,30.49,0,0,0-3.58-.48l5.55,1.51a14,14,0,0,0-14.84-.47c-5.09,3-6.72,7.81-7.29,13.34L88.19,74C77.89,68.53,63,76.56,66.76,89.34V83.5l-.32,1.09L80,76.91c-8.25-3.11-15.26,2.61-18,10L67,80.29a19.33,19.33,0,0,0-5.58,5.81l6.58-5c-8.91,1.27-12.15,10-10.93,17.84l1.11-8.47-.35.79,3.94-3.95c-5,3.49-6.6,6.72-7.32,12.69l11-11c-5.68-.31-10.88,3.85-13.4,8.24-3.14,5.48-1.82,12.09,2.07,16.75l-3.23-7.77a9,9,0,0,0,.29,4q-.15-2.57.36,2.19A15.11,15.11,0,0,0,55.66,119V103.45c-4.39,4.08-6.78,10.72-4.5,16.45l5.05-12.42c1.69-.17,1.06.19-1.87,1.07A24.73,24.73,0,0,0,51,111a14.5,14.5,0,0,0-3.81,7.2L50,113.33a15,15,0,0,0-4.59,8.39,17.41,17.41,0,0,0,.47,8.14c2,7.13,8.38,10.21,15.21,10.86l-10.61-8.08a18.45,18.45,0,0,0,1.74,4.45l3.94-15a13.32,13.32,0,0,0-6.41,6.31l6.57-5.06c-5.83,2.41-10.9,6.49-11.08,13.39a14.77,14.77,0,0,0,8,13.56L51.06,133c-4.56,3.67-5.7,10.44-3.42,15.64,2.43,5.56,7.23,8.18,13,8.93l-9.5-5.45.12.25V141.22c-4.23,9.19-.66,18.15,8.85,21.72l-7.68-7.68a21.83,21.83,0,0,0,1.66,3.81v-5.85c-2.26,8.39,2.53,15.15,10.34,17.88L57.9,154.94a14.47,14.47,0,0,0,2.31,17.18c5.16,5.17,12.16,4.83,18.23,1.68l-16.16-6.58c1.46,4.63,3.2,8.16,7.63,10.58l-5.45-9.5c.67,5.86,2.37,9.48,7.47,12.72l-4-4-.32-.26,1.11-8.47-.41.65,9.5-5.45c-7,.48-12.16,4.26-14.17,11.07l2.83-4.85A18,18,0,0,0,62.13,177l13.53-7.68c-6.13-1.07-12.3,1-15.63,6.51-4,6.57-2.35,13,2.27,18.64l-3.22-7.78-.06.69,1.5-5.55a25.36,25.36,0,0,0-2.06,7.6l11-11c-10.14,1.31-16.3,8.3-14.4,18.68v-5.84c-2.21,5.43-.31,11.35,3.77,15.3L56,195.85a18,18,0,0,0-.47,5.11l8.08-10.6a15,15,0,0,0-7.92,4.27l4.86-2.83c-8,2.14-11.49,10.29-9.82,17.88l1.11-8.47c-3.46,4.84-2.9,10.26-.54,15.4l-1.11-8.48a12.74,12.74,0,0,0-.68,5.54l.39,2.93c1.14,2.8,1.45,3.51.91,2.11L53.64,208c-7.4,8.27-4.12,19.79,6,23.72L51.91,224l.23,1L55,214.34c-4.43,3.95-5.3,9.44-4.57,14.09A14,14,0,0,0,60.75,240l-8.07-10.6a14.2,14.2,0,0,0,7.89,13.49l-2.22-17.28C51.3,232.2,52,244.25,60.91,249l-5-12.42c-1.44,9.27,4,18.67,14.41,18.05l-7.78-3.23.59.62-1.72-13.33c-6.74,11.21,4.34,23.24,16.06,20.86l-8.48-1.11,1.27.64L66.26,244c-3.93,9.15-1.3,18.08,8.83,21.16l-4.85-2.83a13.83,13.83,0,0,0,7.66,4.46c.5.11,4.37.16,2.11,0a29,29,0,0,0,6.85-.16l-8.47-1.11c4,2,7.18,2.24,11.66,1.62L76.51,253.63c.5-1.27.6-1.57-.1-.2a14,14,0,0,0-1.61,5.26,14.88,14.88,0,0,0,1.9,9.36c3.4,5.74,10.44,7.63,16.58,6L80.86,269a14.23,14.23,0,0,0,5.53,5.41l-5-6.58c2.32,5.84,6.36,9.43,11.36,11,5.5,1.76,11,0,14.93-4l-7.78,3.22h.77l-5.55-1.5c3.66,2.51,7.66,2.73,11.92,1.84L93.46,270.7c2.06,11.36,16,12.94,23.66,6.68l-10.71,2.82.82.26-7.68-7.68a14.24,14.24,0,0,0,27.27,3.52,36.79,36.79,0,0,0,1.37-3.81c.2-.64.09-.4-.35.73a18.79,18.79,0,0,0,1.43-3.69l-13.53,7.68,1.34.56L109,267.17c0,7.88,2.25,16.37,10.84,18.85A14.56,14.56,0,0,0,138,274.64l-13.53,7.68c5.56,1.65,10.46,0,14.71-3.75l-17.27-2.22a14.27,14.27,0,0,0,9.07,7.6c4.25,1.18,6.75.26,10-.36l-8.48-1.11a15.61,15.61,0,0,0,17.26-2c5.3-4.27,6.3-10.51,5.41-16.88l-2.83,10.7,0-.05L134,269.4c2.08,5.16,4.24,10.28,9.82,12.45,5.43,2.12,12.11.77,15.87-3.88l-4.85,2.83c9.81-2.26,12-12,10.32-20.68l-13.53,13.54a14.59,14.59,0,0,0,15-3.72l-13.33,1.72c-1.58-1,2.28,2.11,3.29,2.67a15.4,15.4,0,0,0,6.93,1.83c5.31,0,9.86-3.29,12.4-7.76l-6.57,5.05c5.49-1.74,10.18-4.45,11.93-10.35.83-2.78.41-5.31,0-8.09q-.78-2,.09.69a13.92,13.92,0,0,0-.77-4.2L170,265.43c8.61-.56,13.8-5.75,14.67-14.22l-16.55,9.5a16,16,0,0,0,11.43.89l-10.71-2.82c4.77,4,10.25,6,16.37,3.57,5.66-2.23,8.76-7.73,8.78-13.67l-3.22,7.78.67-.83-4.85,2.83A15,15,0,0,0,197,247.91l-2.82,4.86c3.33-3,4.39-6.59,4.85-10.93l-11,11c8.79-.56,13.63-5.9,14.75-14.35l-8.08,10.6c8.95-2.89,14.17-13.23,8.45-21.68l1.1,8.47.26-.81-7.69,7.68c5.84-2.3,10.26-5.19,12.24-11.79L204,237.53l.08-.05-8.47,1.11a16.3,16.3,0,0,0,11.49-1.52l-5.55,1.51a15.05,15.05,0,0,0,11-4.41l-7.78,3.23c9.13.27,14.24-6.78,15-15.13l-16.55,9.49c4.76,3.25,10.63,2.92,15.5.14l-13.33-1.72c4.61,3.69,8.4,4.66,14.29,3.82l-12.42-5.06a13.81,13.81,0,0,0,12.45,8.17c5.66.08,9.39-2.77,12.66-7.11l-6.57,5.06.94-.24-12.42-5.06a14.38,14.38,0,0,0,20.06,4.78l-8.47,1.11c6.51,1,13.49-.67,16.65-7.19l-12.42,5.06,1.5.22-4.86-2.83c7.34,7.08,17,5,22.73-2.67l-15.05,3.94c5.73,4.4,13.24,2.51,18.25-1.86l-7.78,3.22c-1.92.14-1.27.31,2,.5a12.49,12.49,0,0,0,4-.37,13.66,13.66,0,0,0,5.67-2.92c4.09-3.45,5.45-7.89,5.86-13.1l-5.45,9.5a4.22,4.22,0,0,0,.87-.6l-8.47,1.11.53.08-7.68-7.68c3.13,9.46,12.75,16.21,22.36,10.15l-13.33-1.72c8.51,7.2,20.26,4.79,24-6.16L261.72,230a14.74,14.74,0,0,0,14.56-3.74L259,224.05a14.49,14.49,0,0,0,26.81-2.3l-5.05,6.58a15.68,15.68,0,0,0,6.86-9H266.41c1.58,6.58,6.83,12.06,14,12a14.35,14.35,0,0,0,14-10.82l-10.61,8.08a16.15,16.15,0,0,0,5-.73l-12.42-5a17.72,17.72,0,0,0,6.91,6.21c3.09,1.5,6.84,1.37,9.05,1.09a19.74,19.74,0,0,0,7.26-2.33,14.86,14.86,0,0,0,6-8.27l-2.83,4.86c1.92-2.48,3.43-4.5,4.08-7.64L304,221.63a22.62,22.62,0,0,0,4.12-7.19L291.91,221l.47.35-5.05-6.57c2.15,7.7,8.48,11.61,16.27,11.11l-5.55-1.5c4.62,3.47,11,3.19,15.78.13l-8.48,1.11c2.68.81,4.51.66,7.31.44-4.24.34,1.55.31,2.41.26,5.15-.27,8.41-3.1,11.28-7.08h-19c6,11.23,22.15,9.17,26.21-2.49L320,224.46a19,19,0,0,0,8.59.06l-8.48-1.11c3.79,2.16,7.41,2.46,11.68,1.62l-13.93-10.61a14,14,0,0,0,14,14.78l-10.61-8.07a13.24,13.24,0,0,0,4.29,7.49l-2.83-4.86c.61,3,2.11,5,4,7.37l-2.82-10.7a13.57,13.57,0,0,0,.29,8.43,13.15,13.15,0,0,0,2.83,4.86c.39.41,3.61,3.57,2.45,2.21l-2.83-4.85c2.48,6,6.6,11.17,13.45,13L332,233.43c.53,7.15,4,11.82,10.79,14.17L338,244.77A13.87,13.87,0,0,0,342.3,248l-5.05-12.42c-1.83,6.73,1.7,12.06,6.81,15.89l-3.95-3.94c3.6,4.9,6.69,6.67,12.74,7.35l-9.5-5.44c2.53,3.37,5,5.61,9.09,6.83l-7.68-7.68c2.21,12.23,16.27,13.84,24.44,6.76l-13.33,1.72c3.95,2.39,7.74,2.54,12.22,1.79l-8.48-1.11a13.21,13.21,0,0,0,8.76,2.36l-7.78-3.22a14,14,0,0,0,3.9,3.23l-5.06-12.43c-2.2,6.74-.59,14.19,5.81,18a14.28,14.28,0,0,0,17.68-2.42L369.59,265a14.4,14.4,0,0,0,18.32-2.28L380.13,266h.09l-11-11c1.07,11.75,10.52,17.7,21.47,12.9h-11.1a16.49,16.49,0,0,0,11.54,1.63l-12.42-5.05c7.54,11.05,22.32,8.94,26.46-3.75l-7.69,7.68c2.91-.5,4.84-2,7-3.86l-17.27-2.23c3.4,4.63,7.45,7.67,13.49,7.48l-9.5-5.45c3.62,7.29,13.08,9.59,19.91,5.49a14.56,14.56,0,0,0,6.5-9,18.29,18.29,0,0,0,.47-5.37c.09,1.27-.3,1.86-.07.13l-7.68,7.68a21.12,21.12,0,0,0,3.33-1.31l-16.16-6.57c2.14,5.42,5.46,10.25,11.5,11.72,6.74,1.64,12.33-1.48,16-7h-19c3.35,5.26,8.05,7.76,14.31,7.41,4-.22,9.65-2.17,12.48-5.83l-10.7,2.83a15.64,15.64,0,0,0,11.69-1.36l-5.55,1.5c10.59-1.06,15.79-8.86,14.05-19.14L428.82,259c8.11,3.33,15.93-2.61,18.49-9.93l-7.68,7.68c4.41-.65,7.48-3.51,9.87-7.1l-3.94,3.95c5.58-2.93,9.49-10.39,7.17-16.67l-5.05,12.42.86-.45-5.55,1.5c5.59.73,11.36-2.62,14.09-7.42,3.38-6,1.22-12.18-2.65-17.15l3.22,7.78v-.55l-11,11c10.43-1.17,16.56-8.57,15.13-19l-13.53,13.54c4.8,1.6,10,1.06,13.91-2.27a17.58,17.58,0,0,0,4.33-4.93c.57-1.25,1.09-2.52,1.56-3.82q.82-4.66.22-2.3l-5.06,6.57c8-5.82,10.24-17.29,3.11-24.75l3.22,7.78c-.35-2.91-.63-5.33-2.1-7.94L458,223.48c6.56-.27,12.62-3.59,14.46-10.28s-1.53-13.23-7.24-16.64l-5.55,20.49c12.19.14,18.4-11.08,13.59-21.68l1.11,8.47a17.67,17.67,0,0,0,.14-8.43l-1.11,8.47c4.27-5.77,2.32-13.21-2.09-18.19l3.22,7.78c-.7-9-6.33-14-15.08-14.77l7.78,3.22-.62-.55,2.83,4.85-.46-1.58-2.83,10.7c5.42-4.25,5.8-13,2.2-18.34l-3.95,15.05c13.66-7.94,7.91-26.46-7.28-27.05l10.61,8.08a14.28,14.28,0,0,0-2.22-4.89l-1.72,13.33a15.19,15.19,0,0,0,3.89-17.11c-3.1-7-10.27-9.29-17.37-7.64l13.53,13.53c1.85-8.38-3.9-19.53-14-18.36l9.5,5.45-.06-.11-1.72,13.33c5.6-5.42,7.36-13.36,2.46-19.94a17,17,0,0,0-3.87-3.61,17.59,17.59,0,0,0-2.24-1.62,14.17,14.17,0,0,0-10.67-1.29l12.43,5.06c1.64,2.74-.93-2-1.28-2.54a14.16,14.16,0,0,0-5-4.56l5.06,6.57c-2.12-8.29-11.23-13.4-19.39-10.11l13.53,7.68-.11-.26-1.11,8.47a17.8,17.8,0,0,0,1.83-13.85L444.11,153a17,17,0,0,0,3.63-2.59l-4.85,2.83c5-2.1,9-5,10.26-10.61l-5.06,6.57c6.82-5.11,8.66-12.24,4.8-19.91l-1.72,13.33.56-.59-4.85,2.83c8.58-2.76,13.95-13.72,8.06-21.56l1.11,8.47c.89-6.27-.45-12.66-6.48-16l5.06,6.58a26,26,0,0,0-2.07-5.06v11.11a14.14,14.14,0,0,0-.21-15.63l-4,15c10.52-6.74,9.28-23.78-4-26.32l6.58,5.06h0L449.26,120c5.23-4.46,4.64-11.51,2.1-17.07l-1.72,13.33c7-6.48,5.44-18.72-3.25-22.94l5.06,6.58c-1.63-8.72-10-11.78-17.88-11l7.78,3.22.15.38L443,98a14.47,14.47,0,0,0-.52-5l-2.83,10.7c5.61-4.93,7.38-12.93,2.9-19.22A14.36,14.36,0,0,0,426.66,79l13.92,10.6-1,3L440.7,90a14.77,14.77,0,0,0,.93-4.37,14.42,14.42,0,0,0-2.83-8.9,14.2,14.2,0,0,0-15.38-5.19l8.48,1.11-.42-.32,5.44,9.5c-.53-4.25-1.44-7.83-4.75-10.79L435,75.88c-1.41-4.1-3.62-7.74-7.77-9.51-5.46-2.33-11.79-1.63-15.05,3.94-2.71,4.63-1.55,12.71,3.95,15.06l0-.11-2.83-4.86a29.39,29.39,0,0,0,1.57,4c1.83,2.37,2.29,3,1.37,1.79l-1.5-5.55c.57,4.52,1.49,8.15,5.6,10.72a12.31,12.31,0,0,0,3.05,1.43,8.4,8.4,0,0,0,4.39.19c1.78-.29,1.94-.28.48,0l-5.55-1.5L421.13,90l-1.5-5.55.65-2.46A8.45,8.45,0,0,0,419,85.37a13,13,0,0,0-.46,4.2c.83,6.75,6.4,13,13.93,10.61a9.05,9.05,0,0,1,1.05-.3h-5.85L426.13,99l-2.83-4.85.32,1.24V89.5l.48-1.32c-3,2.61-3.71,7-2.83,10.7a34.48,34.48,0,0,0,1.24,4.69,13,13,0,0,0,4.4,4.93,11.36,11.36,0,0,0,6.93,2.34c.51,0,3.53.17,2.5-.2l-4.85-2.83-1.26-2.12a8.33,8.33,0,0,0,2,3.75,5.63,5.63,0,0,0,2,2q3.29,2.75-1.61-2.54V103l1.53-2.36c-3.84,3.58-3.73,8.94-1.72,13.33l.53,1.16-1.5-5.55,0,1.24,1.5-5.56.82-.88c-3.77,3.21-3.91,9.26-1.72,13.33a7.7,7.7,0,0,0,2.84,3.09,5.44,5.44,0,0,0,2.42,1.41c2,.94,1.78.69-.64-.76l-2.83-4.85,3.52-7.73c-4.69,3-7.46,10-3.94,15l-.61-2.1,1.5-5.55-.67,1.07a10.9,10.9,0,0,0,0,11.11c-.22-.43-.28-.52-.19-.3.35.92.74,1.83,1.14,2.72.4.69,5.17,5.9,3,3.44l-2.83-4.86.31,1.15v-5.85a18.65,18.65,0,0,0-.36,5.57,5.45,5.45,0,0,0,.75,2.78q1.56,4.14-.13-3.26l2.83-4.86q5.73-2.53.31-.22a11.68,11.68,0,0,0-2.78,2.31,11.38,11.38,0,0,0-1.72,13.33L433,138.1l1.5-5.55-.51,1,3.95-3.95a18.09,18.09,0,0,0-4,3.51,5.42,5.42,0,0,0-1.41,2.43q-1.42,3.18.75-1.06l4.86-2.83-3.69,1.55q-3.66,3.1-1.4.88c-4.29,2-6.34,8.1-5.06,12.42-.26-.89,1.09-7-.71-.47a10.34,10.34,0,0,0,.11,6.11c2.08,5,7.47,10.13,13.53,7.68a5.23,5.23,0,0,1,2.3-.62h-5.85l-1.62-1-2.83-4.86a12.74,12.74,0,0,0,6.44,8.44l-3.94-3.95c-.69-.92,1,2.15,1.27,2.54a11.24,11.24,0,0,0,12.42,5.06l-1.24.3-5.55-1.5c-.85-.58-.63-.4.65.55q2.55,2.09-.58-.84l-1.5-5.55,1.14-3.28c-3.69,3.57-3.9,9-1.72,13.33l.05.11c1.55,3.11,6,5.86,9.5,5.45l-4.45-1.35-2.83-4.86.33,1.23v-5.85l-.29,1.34A11.13,11.13,0,0,0,456.11,178l-4.6-.59-3.94-3.95Q452,162,448.19,166c-3.22,3-4.53,9.56-1.72,13.33v-.37A11.27,11.27,0,0,0,457.07,187l1.59.06-5.55-1.5-2.81-5.28,1.5-5.55,1.45-1.68c-4.91,2.86-7.25,10.11-3.95,15l-.13-.21V182l-.36,1.29,2.83-4.86a3.64,3.64,0,0,1-1.1,1.32c-2.94,2.31-3.82,7.3-2.82,10.7a14.17,14.17,0,0,0,3.91,7,11.09,11.09,0,0,0,4.85,2.83q5.49.67.73.18l-3.95-4,.62,1.18-1.5-5.55a16.6,16.6,0,0,0,1.05,5.54,5.53,5.53,0,0,0,1.41,2.43c1.09,1.19,1.2,1.43.34.72l-1.5-5.55.67-2.53a8.13,8.13,0,0,0-1.3,4.09,18.71,18.71,0,0,0,.42,5.67v-5.85c-1.15,4.14-.49,7.06,1.22,10.83l-1.5-5.55.44-2.35,3.94-4,2.05-.62c-11-.12-14.81,15-5.55,20.5l-3.26-5.27,1.5-5.56,5.64-3.24A11.12,11.12,0,0,0,448.46,218l.39.7-1.5-5.55a20.52,20.52,0,0,0,1.15,5.93,5.37,5.37,0,0,0,1.42,2.42c1.18,1.34,1.16,1.47-.09.39l-1.5-5.55a39.22,39.22,0,0,0,.15,4l1.5-5.55-.71,1.14,4-3.95c-2.44,1.76-4.34,3.26-5.6,6-.31.7-1.73,6.17-1.23,4.81l2.83-4.85a32.54,32.54,0,0,0-3.22,4.07l3.95-3.94.71-.26h5.85a6.48,6.48,0,0,1-2.41-.56c-8.87-3-14.56,5.94-13.53,13.53l.2,1.42,1.1-8.48a.54.54,0,0,0,.42-.37l5.56-1.51-1.19.14c-6,.67-10.92,4.5-11,11a11.2,11.2,0,0,0,.94,4.79,5.53,5.53,0,0,0,1.41,2.43q2.12,2.73-.79-1v-5.85l.25-.58,3.94-4c1-.79,4.08-.8.12-.27a14.72,14.72,0,0,0-5,1.76c-4,2.08-6.66,8.06-5.05,12.42l-.24-3.13,2.82-4.85c1.16-.68.53-.18-1.87,1.52a29.11,29.11,0,0,0-2.48,3.36l3.95-3.95.08-.19c-3.84.56-6.52,4.34-7.68,7.68l-.39,1.1,2.83-4.85,1.94-1.29h5.85a3.93,3.93,0,0,1-1.66-.39c-8.6-3.53-14.75,6.34-13.53,13.53l-.28-2.23,2.83-4.86L424,244l5.55-1.5a21.27,21.27,0,0,0-7.73,2.09l5.55-1.5.68.18c-3.42-.93-8.38-.18-10.7,2.82,1.14-.64,1-.49-.36.48-.73.53-1.43,1.1-2.11,1.7l4.85-2.83c1.29-.4-4.21-.06-1.94.14l5.55,1.5,1.77,1.89c-4.61-7.22-14.34-6.95-19,0l-.72,1.07,3.95-3.95.4-.08h5.85l3.2,3.49c-2.76-7-9.22-9.81-16.16-6.58l1.93-.9c-3.31.88-7.19,4-7.68,7.68-.15,1.08-.37,2.14-.5,3.22a11.69,11.69,0,0,0-.22,2.5c-.08,2,.06,1.62.44-1l3.95-3.94,2.48-.63,5.55,1.51,1.7,1.84a10.83,10.83,0,0,0-9.5-5.45l-1.42,0,5.55,1.5,1.37,1.87c-4.46-6.08-11.4-7.08-17.27-2.23l-1,.83,4.86-2.83-1.19.21c-3.8.65-6.58,4.27-7.69,7.68l1.11-2,4.85-2.83,2.73-.11,4.85,2.83.21.62c-3-4.4-7.28-6-12.42-5.05l-1,.18h5.85q1.51.94-.72-.15a8.24,8.24,0,0,0-4.24-.95c-2.39,0-4.45,1-6.58,2l5.55-1.51,2.37.45,3.94,3.95-.54-1,1.5,5.55-.16-1.81c-.57-6.13-4.6-10.71-11-11a8.21,8.21,0,0,0-4.33.95,5.53,5.53,0,0,0-2.43,1.41q-2.68,2,1-.51h5.84l.41.21c-4-2.66-10-1.59-13.33,1.72l.46-.46,5.55-1.5,2.52.63,3.95,4,.81,3.17c1.53-4.69-1-9.94-5.06-12.42,1.68,1-1.69-1.51-1.67-1.51-.79-.46-7.94-2.41-4.38-1.18,3,1-2.18-.89-2.91-1a18.89,18.89,0,0,0-5.7.42h5.85l.2.22c-4.42-2.67-9.65-1.48-13.33,1.72l-1,.89,4.85-2.83,2.45.1,4.85,2.83,1.2,2c-.68-3.73-4.24-6.65-7.68-7.68l.75.19,3.95,3.94c-3.26-4.34-6.06-5.84-11.47-6.46l5.55,1.51-1.12-.69,3.94,3.95a26.13,26.13,0,0,0-5.81-5.83l3.95,3.94-.66-1.15,1.5,5.55-.41,1.41c1.17-4.3-.68-10.42-5-12.42a61,61,0,0,0-5.92-3l4.85,2.83.29.36,1.5,5.55-.1-1.29c-.35-4.82-3.16-9.33-8.07-10.61.17-.47-.16-.77-1-.89l3.95,3.94a24,24,0,0,0-3.36-4.23l2.83,4.85c-.93-2.27-1.64-4.24-3.35-6.11-.57-.63-3.85-3.83-2.44-2.22l2.83,4.85q-.58,5.63-.1,1.8a8.37,8.37,0,0,0-.2-4.38c-.64-2.35-2.23-4.12-3.72-6l2.83,4.86a10.83,10.83,0,0,0-1.4-4q-3.25-4.46-.34,0c-.75-4.68-6.17-8.09-10.61-8.08l1.37.1,4.86,2.83,1.77,4.29c.38-7.61-7.29-11.91-13.92-10.6l-1.1.21h5.85c2.27.34-2.93-.85-3.56-.92a18.14,18.14,0,0,0-5.77.46h5.85l-1.36-.32c-6.08-1.42-11.51,1.88-13.53,7.68l.38-1.49,3.95-3.94,2.48-.64,5.56,1.5,1.63,1.8c-4.23-7.87-14.45-6.32-19,0l-.76,1.05,4-3.94-1,.58,5.55-1.5c1.94-.25-2-.14-3.08-.13a30.21,30.21,0,0,0-5.18.66h5.85c-3.81-1.15-7.18,0-9.66.5h5.85c1.82.4-3.45-1.23-3.79-1.28-.14,0-3.9-.54-2.53-.06l4.86,2.83,1.15,2.08a8.2,8.2,0,0,0-2-3.74A17.48,17.48,0,0,0,303,202c-6.27-4.64-13.86.69-16.16,6.58q3.18-4.89-.18-.3a11.55,11.55,0,0,0-1.44,4.23l2.83-4.85c-.88,1.14-1.76,2.27-2.63,3.41-1.07,3-1.37,3.54-.91,1.69l4-3.95c2.84-.73,3.13-.91.88-.52s-2,.29,1.07.1l4.85,2.83.08.51c-2.78-3.84-7.51-6.66-12.43-5.05l.87-.06a11.22,11.22,0,0,0-10.6,8.08l.22-.74,3.94-3.94,2.48-.7,5.56,1.5,2.23,2.65c-2.59-10.8-18.27-10.13-21.21,0l.22-.84,3.95-3.94a15.44,15.44,0,0,0-4,3.45c-.33.44-3.17,5-1.72,2.76L268.8,211l2.55-.82,5.55,1.5q2.34,3.57,1.1,1.28c-3.35-6.53-12.37-6.81-17.28-2.22l-.79.74,4.85-2.83,2.79.17c-6-1.59-11.58,2-13.53,7.68l.27-1.1,3.94-3.94,4.54-.62,4.85,2.83-.85-.72c-3.66-3.1-9-4.46-13.33-1.72l2.55-.83,5.55,1.5,1.85,2.33c-1.11-3.34-3.89-7.13-7.68-7.69-5.83-.84-12,.89-14.38,6.89a5.56,5.56,0,0,0-.76,2.78q-1.14,4.38,4-1.35c5.15-3.45,5-3.21.79-3.26-3.71,0-6.39,1.55-9.11,3.92l4.85-2.83,4.4.52c-5.07-3.89-11.88-.32-15,3.94l-.66.89,3.95-4,2.55-.75,5.55,1.5q1.62,1.83-1.79-1.19A8.73,8.73,0,0,0,236,212.3c-4.56-.67-10.15.37-12.42,5.06l3.47-2.75h5.84a17.88,17.88,0,0,0-5.5-.37,5.42,5.42,0,0,0-2.78.75c-2.14.85-1.74.78,1.22-.2l5.56,1.51,2,2.36a11.23,11.23,0,0,0-12.42-5c-3.89,1-5.9,3.13-8.2,6.18l3.95-3.94,2.53-.79,5.55,1.5,1.52,1.28c-2.1-4.81-8-5.69-12.42-5.06l-1,.15h5.85l2.3,1.69c-3.91-3.13-8.74-4.34-13.33-1.72l.41-.31h5.84l.45.18c-7.51-5.13-15.84,1.9-16.55,9.5l.44-2.31,3.95-4,2.59-.61a8.23,8.23,0,0,0-4.24.94,16.59,16.59,0,0,0-4.44,3.1l4.85-2.83q2.43-.15-2.28.36a23,23,0,0,0-3.55,1.59l5.55-1.51.82.32-2.92-.39a11.57,11.57,0,0,0-5.59,1.53c-3,1.74-4.51,4.64-5.47,7.83l2.83-4.85a25.81,25.81,0,0,0-2.89,2.37l4.85-2.83c-4.19,1.65-7.61,3.57-9,8.19a14,14,0,0,0-.64,3.74,8.35,8.35,0,0,0,.94,4.24q1.83,5,.57-5.22L188.1,228l.74-.15c-5.15,1.67-7.4,5.54-8.07,10.61l-.15,1.11,1.5-5.56,1.48-1.77,5.55-1.5-1.13.07c-6.42.41-10.35,4.75-11,11l-.13,1.23,1.5-5.55q1.16-1.61-1.5,1.92-2.22,5.09,0,.31l4.86-2.83a13.63,13.63,0,0,0-6.53,4,11,11,0,0,0-2.83,4.85c-.31,3.15-.43,3.91-.38,2.27l2.83-4.85,2.08-1.29h5.85q3,2.42.53.47a8.35,8.35,0,0,0-3.74-2c-1.91-.52-4.3,0-5.84-.16l5.55,1.5,0,0c-8-3.61-15.65.75-16.55,9.5l-.11,1.14,1.5-5.55.32-.62,4.86-2.83.76.08c-6.92.44-12.76,6.69-10.61,13.92-.5-1.68.76,3.85.88,4.43v-5.85l.93-1.6,4.85-2.83a20.77,20.77,0,0,0-5.18,1.85c-1.29.75-3.54,3.42-3.88,3.71l4.85-2.83-1.24.33h5.85q2.76,2.07,1.23.47a19.46,19.46,0,0,0-3.27-2.37,11.22,11.22,0,0,0-13.33,1.72l-.85.82,4.85-2.82,2.37.06c-8.56-2.74-15,5.77-13.53,13.53l.48-2.2,4-3.94q2.23-.9-2,.86-5.19,3.56,1.7.11l5.55,1.5q2.57,3.3,1.6,1.25c-2.68-6.62-12.72-12.17-18.39-4.85-1.61,2.09-2.7,3.72-3.06,6.37a8.41,8.41,0,0,0,.19,4.39c.28-3.28.07-3.82-.61-1.62l2.83-4.85a.53.53,0,0,0,.54-.19h5.85q2.82,1.71-1.58-.42a8.3,8.3,0,0,0-4.39-.2c-1.73.35-1.93.3-.6-.13q-5.75.65-.21.26l4.85,2.83.24.1c-3.19-6.84-12.42-6.48-17.27-2.22l-.86.74,4.86-2.82,2.69.17c-5.35-1.59-12.46,1.91-13.53,7.68a5.65,5.65,0,0,1-.6,2.09L119,266l6.25-1.4,4.85,2.83c1.1.86.91,3.18.93-.29,0-5.36-3.54-8.7-8.08-10.61l-1.33-.56c-5.59-2.35-12,2.58-13.53,7.68.25-.83-.91,2.42-1,2.67l-.17.59q-.83,2.7.56-1l4.86-2.83,2.75,0,4.86,2.83c.94,2.52,1.22,2.83.84.95-.51-3.74-4.37-6.65-7.68-7.69a12,12,0,0,0-6.67-.25l-2.62,1.11q-5.57,4,2.42-.83l5.55,1.5,2.91,4.08c-1.11-6.1-8.14-8.81-13.53-7.68l-1.22.25h5.85q2,.63-2.23-1a12.81,12.81,0,0,0-3.69-.39c-3,.09-6.11,2.27-7.55,2.94l5.55-1.51q4.23,1.22,1.09,0c-.85-.38-1.72-.73-2.59-1.05l4.86,2.83-1-.95,2.83,4.85a18.68,18.68,0,0,0-2.47-5,5.55,5.55,0,0,0-2-2q-3-2.42,1.25,1.63a11.21,11.21,0,0,0-12.43-5.05l2.49-.17,4.86,2.83.43.44,1.5,5.55q-1.45,3.44-.18.87c.42-.94.82-1.9,1.2-2.86,1.39-3.54-.28-8.15-2.83-10.7-3.05-3.05-6.67-3.39-10.7-2.83l-1.11.16h5.85c2.3.36-2.85-.78-3.54-.86a18.82,18.82,0,0,0-5.39.36h5.85c-.81-.14-1.63-.26-2.44-.36-2.82-.51-2,0,2.38,1.53-.43-1-5-3.18-4.53-2.87l3.94,3.95-.6-1.09,1.5,5.56,0-1.37-1.5,5.55.61-1.41c2.22-5.19,1.86-12.11-4-15.05A16.08,16.08,0,0,0,76,238.1a5.6,5.6,0,0,0-2.93,0q-2.79.5-.23-.17l5.55,1.5L80,241.16l1.5,5.55-1.16,3a11.21,11.21,0,0,0-1.72-13.33,11.88,11.88,0,0,0-4.13-2.89c-.58-.23-5.22-1.26-3.59-.78l4.85,2.83,1.13,2v5.85l.17-1.08c.73-4.71-.44-10-5-12.42l.67.49,2.83,4.85-1.62,5.87c4.85-4.52,4.12-14.28-2.22-17.28l.17.2L74.68,229v.45A11.09,11.09,0,0,0,66.6,218.8l1.14.47,3.94,3.95q.06,7.69.51,3.18c.13-.88.24-1.78.33-2.67L71,229.28l-.49.61c3-2.65,3.66-7,2.82-10.7a11.86,11.86,0,0,0-3-5.85l-2.23-1.72q-4.71-1.74-1.13-.75l3.94,3.94.69,2.31-1.5,5.55q-2.23,2.4.85-1.33a11.06,11.06,0,0,0,1.5-5.55A16,16,0,0,0,70,208.12l1.51,5.55c.23,1.83.15-3.66.09-4.07a18.76,18.76,0,0,0-1.79-5.15l1.5,5.56-.48,2.3a8.17,8.17,0,0,0,1.31-4.09,5.6,5.6,0,0,0,0-2.93c-.3-2.42-.28-1.94.07,1.42l-2.83,4.86q-5.79,2.72-.36.34,4.24-3.27.43-.34c4.29-.94,8.56-6,8.08-10.61q-.66,1.81-.12-.72a8.3,8.3,0,0,0-.19-4.39,30,30,0,0,0-2.57-4.68l1.5,5.55q.59,2,.52-2.55a39.16,39.16,0,0,0-.6-4V196l-2.18,3.07-5.55,1.5,1.12-.14c6.49-.84,10.2-4.42,11-11l.13-1.07-1.5,5.55c2.78-6.36,2.34-10.67-2.14-16.1l2.83,4.85-.06.33-1.5,5.55c.77-1.58.8-1.72.11-.44l-4.85,2.83-3.67-.4c6.3,1.1,11.23-1.66,13.53-7.68l.52-1.36L81,186.33c1.52-1.47,3.42-4.85,3.92-5.51l-3.94,4,1.1-.64-5.55,1.5c14.13-1,16.6-17.17,5.34-24.33l3.95,3.95-.73-1.1,1.5,5.55c-.28-2.44-.38-4.76-1.66-6.95l-1.72-2.23q-3.6-2.64-1.82-1.45l2.83,4.85c-.22-.86-.47-1.71-.76-2.54a11.17,11.17,0,0,0-16.16-6.58l2-.59,5.55,1.5,1.7,1.69,1.5,5.55-1.22,3.1c3.76-6.49.07-13.83-6.57-16.16h.55l4,4,.2.57v5.84c1.11-4.11.31-7.16-1.31-10.86a13.83,13.83,0,0,0-2.86-4.83l-2.22-1.72q-5.2-2.19-.11-.06l2.82,4.85-.1.36-1.5,5.55c4.13-9,.46-16.79-9.57-18.07l5.56,1.5,2.79,5.26L67,147.78l-.42.74c5.35-4.3,3.68-14.35-2.22-17.28l2.88,5.44-1.5,5.55-3.57,2.28a8.3,8.3,0,0,0,3.74-2,5.58,5.58,0,0,0,2-2c1.33-1.66,1.13-1.5-.62.47,5.61-2.67,6.4-10.11,3.94-15l.49.8c-1-5-6-7.64-10.61-8.07l.07-.19L66,121.35l0,0,1.5,5.55c0-.77-.16-4.65-.28-3.75l-1.5,5.55c-1.23,2.34,4.2-6.91,2.55-4.41l-4,3.94c-1.26.37-1.1.26.5-.34a5.68,5.68,0,0,0,2.48-1.45c3.55-2.73,7-7.59,5.05-12.42l0,.09-1.5,5.55c1-1.39,1.07-1.61.36-.68,4.34-4,4.11-11.49,0-15.56l.48.46,1.5,5.56a24.86,24.86,0,0,0-.45-4c.29,1.22.29,1,0-.73a8.2,8.2,0,0,0-1.31-4.09q-3.23-3.77-.58-1.19L72.36,105l-.64,2.4-4,3.95a29,29,0,0,0,4.07-3.25L67,110.9l-1.49,0c6.44.34,10.32-5.36,11-11l.16-1.33-1.5,5.55.64-1.11-3.94,4c5.71-4,7.35-8.34,6.27-15.26V98l-4,4c-1.67,1,3.08-1.38,3.46-1.69a14,14,0,0,0,3.47-4.18l-3.94,3.94a16.84,16.84,0,0,0,6.48-8.5L80.8,96.4l-.38.25-5.56,1.5-.74,0c5.65,2.14,11.95-2.4,13.53-7.68a13.08,13.08,0,0,0,.72-4q-.83-5.19,0-1.29l-1.5,5.55-1.64,1.8L79.65,94l-2.57-1c7.89,4.16,15.7-1.17,16.56-9.5l.18.25L91,88.56l-1.94,1.21H83.2c-1.9-.48,2.17.94,2.09.92l2.93.39-.8-.11c4.33-.1,7-.89,10.24-4l-4.85,2.82,1.31-.41H88.27c2.68.37,6,1.19,8.61.1,4.62-1.89,8-5.33,8.08-10.61l-.61,3.7a8.26,8.26,0,0,0,1.3-4.09,5.6,5.6,0,0,0,0-2.93q-.42-3.39,0,1l-2.83,4.85-.24.36L97,83.23a21.14,21.14,0,0,0,7.07-1.12,9.66,9.66,0,0,0,2.55-1.32q5.2-3.51-1.74-.22l-5.55-1.5,1,.67-4-3.95c1.13,1.52.73.79,1.28,2.63a11.22,11.22,0,0,0,13.53,7.69c6.3-1.74,8.56-7.63,7.68-13.54l-1.67,4.27-4.86,2.83q-11.55-7.41-6-1.26a34.77,34.77,0,0,0,3.34,2.48c5.6,3.82,14.86.13,16.16-6.57a6.74,6.74,0,0,1,.79-2.58l-2.83,4.85q-9.89,1.11-4.62,1.57c1.68.2,2,.24.82.14l-4.86-2.83-.8-1.21c2.52,4.94,10.42,7.28,15,3.94q-3.45.78-.35.27a17.06,17.06,0,0,0,2.84-.5h-5.85a18.22,18.22,0,0,0,4.34.77q2.25.32-1.56-.4l-4-4-.47-2c.34,5.92,4.77,11,11,11h1.81c3.61,0,7.89-2,9.5-5.44A5,5,0,0,1,147.9,76l-4,4q-9.06-1.42-4.4.28a5.74,5.74,0,0,0,2.71.77,18.23,18.23,0,0,0,6.94-.17h-5.85q-4.36-2.34.08.71,4.45,1.7,1.65.83c3.33,2.29,7.72,1.7,11.1,0l1-.51-5.55,1.51-2.58-.55-3.95-3.94c-.55-3.81-.66-4.43-.3-1.86a8.19,8.19,0,0,0,1.3,4.09c1.21,2.07,3.16,3.35,5,4.76l-3.95-4c2.61,4.64,6.23,6.36,11.43,6.72l-5.55-1.51a50.2,50.2,0,0,0,5,2.2l-4.85-2.83c1,1,2.06,1.74,3.12,2.62-2-1.62,1,.92,1.43,1.24A11.18,11.18,0,0,0,163,92.55a5.56,5.56,0,0,0,2.92,0q4.36-.39-2.88-.72l-4-4,.56.94a11,11,0,0,0,9.5,5.45l1.23,0-5.55-1.5-1.54-1.39-1.5-5.55c-.29-2.46,1,2.64-.43,2.94.86-.19,1.83-6.62-.11.44l-.39,2.92q.76-3.93-.05,1.28a13.47,13.47,0,0,0,1.91,6.31c3.12,5.85,12.81,7.61,17.28,2.23q.93-1.14,1.89-2.25,2.24-2.19-.36,0h-5.84l-.55-.21-4-4c3.49,4.67,6.13,6.2,11.94,6.85l-5.55-1.5L176,99.19l-1.5-5.55,0,1.22L176,89.3l-.64,1.52c-1.88,4.4-2.17,9.77,1.72,13.33l-.41-.43-1.5-5.55.1-1c-1.47,4.2.91,10.5,5.06,12.43,1,.46,1,.46,0,0l-2.83-4.85a19,19,0,0,0,1.74,3.93c3.65,5.34,9.25,6.48,15.05,3.94l-1,.55H187.4a41.87,41.87,0,0,0,4.6.71c3.42-.66,3.87-.61,1.37.15l-5.55-1.5a35.38,35.38,0,0,0,5,2.32L188,112l1,1.09c3,3.37,9.52,4.36,13.33,1.72l-2.3.59-5.56-1.51-1-.83c3.71,4,11.95,4.52,15.56,0L205,114.57l-5.55-1.5-2.78-4.7a8.22,8.22,0,0,0,.95,4.23c.28.66,2.32,4,1.91,3.26a11.23,11.23,0,0,0,12.42,5,12.72,12.72,0,0,0,3.79-1.39q5.25-3.6-1.81,0l-5.55-1.5c4,2,8.15,2.76,12.25.33a12,12,0,0,0,4.15-4.07l1.11-2.63c.54-3.54.54-3.89,0-1.07l-3.95,4-2.52.67-5.56-1.5-1.7-2c3.11,5.58,9.71,6.35,15,3.95l1.13-.51-5.55,1.5-.6-.1-4.85-2.83c-2.17-2.25,1.43,1.59,2.2,2.17s6,2.83,2.33,1.28c4.79,2,9.33,1.88,13.33-1.72a11.92,11.92,0,0,0,3.23-4.4,5.65,5.65,0,0,0,.75-2.78c.3-2.1.25-1.95-.13.44l-3.95,3.95-2.5.56-5.55-1.5-1.93-2.29c1.64,3.17,5.88,5.77,9.5,5.45a14.89,14.89,0,0,0,4.86-1,5.44,5.44,0,0,0,2.42-1.41c1.68-1.22,1.47-1.17-.61.14H235.4a14.71,14.71,0,0,0,7,.27c1-.24,5-1.28,2.81-.88H239.4l-.61-.39c4.57,2.71,9.48,1.39,13.33-1.72l.92-.74-4.86,2.83h-2.54l-4.86-2.83c-2.52-2.57,1,1.07,2,1.83a13.58,13.58,0,0,0,5.17,2.31l-4.86-2.83,1.13.89c6.44,5.11,15.73,3.68,18.38-4.85l-.07.55-3.95,4-2.48.58-5.55-1.5q-3.78-4.59-.22-.09l2.22,1.72q-3.77-4.81-.22-.25a8.2,8.2,0,0,0,3.54,2.28c.6.26,6.13,1.31,4.06,1q-2.26-.15,2.4.36a23.42,23.42,0,0,0,3-.41c3.37-.69,7.13-4.2,7.68-7.68.22-1.27.2-1.29-.06-.08l-3.94,4q-7.73.14-3.2.59a10.44,10.44,0,0,0,2.79.19l-5.55-1.51a16.21,16.21,0,0,0,5.29,1.9,5.6,5.6,0,0,0,2.93,0c1.72-.26,1.95-.28.67,0l-5.55-1.5-2.59-3.26c2,8.34,12.52,10.29,18.38,4.86a12.52,12.52,0,0,0,3.4-4.59,5.38,5.38,0,0,0,.75-2.77c.33-2.34.25-2-.24,1.14l-3.94,4-2.46.57-5.55-1.5-1.93-2.25c1.66,3.38,5.85,5.5,9.5,5.45a14.35,14.35,0,0,0,7.63-1.83,10.94,10.94,0,0,0,3.94-3.94c1.22-3.21,1.43-3.52.66-1l-4,3.94-4.56.59L280.62,107a18.77,18.77,0,0,0,6.92,3.93l-4.85-2.83-1.09-1.93a11.15,11.15,0,0,0,16.16,6.57,12.85,12.85,0,0,0,5.05-4.57l1.11-2.63c.44-3.59.51-3.9.22-.91l-3.95,3.95,1.23-.72-5.55,1.5q-6-2.47-1.06.71a11.06,11.06,0,0,0,5.55,1.5,30.69,30.69,0,0,0,3.16-.41q5.16-2,.21-.48l-5.55-1.51c5.87,2.76,11.1,2.45,16-2L309.29,110l-8-4c3,6.4,12.68,7,17.28,2.23q-2.42,1.76,1.37-1.11a8.15,8.15,0,0,0,2.27-3.54,4.48,4.48,0,0,0,.69-2.18q1-5.76-.36-.19l-4,3.95-3.39.48c7.34-.79,14.95-9.08,9.5-16.55a4.24,4.24,0,0,1-.78-1.43l1.5,5.55q-9.23,8.31-3.76,5.64a5.39,5.39,0,0,0,2.23-1.23c2.93-2.15,5.9-5.48,5.45-9.5a14.08,14.08,0,0,0-1.24,2.45l-4.86,2.83c6.18-1.85,9.27-6,9.6-12.46l-1.51,5.55c-.76.48-.6.18.47-.9q2.08-2.53-.82.53l-5.56,1.5-1.21-.19c5.43,1.8,12.3-2.1,13.53-7.68l-.16.38-3.95,4-.41.19c6.07-1.24,8.83-8,7.68-13.53l-.29,3-3.94,4c-3.31.56-3.77.67-1.36.32a8.16,8.16,0,0,0,4.09-1.3c2-1.18,3.27-3.06,4.66-4.88l-3.95,3.95-.53.22h-5.85a25.64,25.64,0,0,0,5.38.6c6.23-.11,10.61-5,11-11l0,1-2.83,4.86-2.14,1.34h-5.85l-2.69-2.16c4.93,4.11,10.58,4,15.55,0l1-.8-4.86,2.83,1.22-.36c3.57-1.07,6.84-3.93,7.69-7.69l-1.31,2.2L351,69.54,345,68.07c3.81,4.53,11.66,4,15.55,0l-.35.4L354.62,70q-2.46-.24,2.27.33a10.74,10.74,0,0,0,3.61-.61c3.51-1.09,6.91-3.91,7.68-7.68l-.22.43-3.95,4q-7.58.3-3.1.71c1.66.2,1.95.25.87.16l-4.85-2.83.94.83c3.62,3.2,9,4.37,13.33,1.72a8.9,8.9,0,0,0,1.55-1.13Q375.33,64,372,66h-5.85c-1.43-.35-3.35-8.09-3.19-3.58.18,5.16,3.34,8.93,8.07,10.61l.73.26c5.66,2,12-2.3,13.53-7.69l-.88,1.5L379.54,70l1.16-.32h-5.85l1.22.17c4.94.7,9.71-.47,12.42-5l-.34.61-4.85,2.83h-2.65l-4.86-2.83-1.68-2.82.4,2.92a11.25,11.25,0,0,0,2.25,4.13,10.78,10.78,0,0,0,4.4,3.39,5.41,5.41,0,0,0,2.77.75c1.77.18,2,.24.56.18,3.61,1.28,8.09-.21,10.7-2.83L392,73a8.25,8.25,0,0,0,3.74-2,5.55,5.55,0,0,0,2-2q2.64-3.11-2.35,1.26h-5.85l-4.45-4.6a8.3,8.3,0,0,0,2,3.74,5.53,5.53,0,0,0,2,2c1.34.82,1.53,1,.55.69l-2.83-4.85c-1.06-3.09.52,2,1,3a12.86,12.86,0,0,0,2.69,4c4.81,4.89,14,4,17.27-2.23,1-1.69.81-1.62-.63.21l-5.55,1.51-4.07-1.67A8.27,8.27,0,0,0,401,74.34a4.83,4.83,0,0,0,1.94.67q2.13.49-1.57-1l-2.83-4.86.07-1c.49,5,3.09,9.14,8.08,10.61a17,17,0,0,0,8.08.1h-5.84l1.1.35-4.86-2.83q-2.1-4.17.1.71a11,11,0,0,0,3.94,4,19.88,19.88,0,0,0,4,1.52q4.57.66,2.56.34l-4.85-2.83c-1.34-1.36,5.26,6.31,3,3.58,3.76,4.6,11.65,3.9,15.56,0C434,79.09,433.23,72.71,429.46,68.09Z" style="fill:#1c1b1f"/><path d="M168.15,257.91l.13.09-2.23-1.72,0,0L179.43,239l-.15-.11,2.23,1.72,0,0,1.72,2.23h0l-1.72,13.33h0L170.77,259h0l-2.62-1.1h0a8.16,8.16,0,0,0,4.09,1.3,11.27,11.27,0,0,0,11-5.25l1.11-2.63a11.16,11.16,0,0,0,0-5.85l-1.11-2.62a11,11,0,0,0-3.95-4l-2.63-1.11a11.16,11.16,0,0,0-5.85,0,11,11,0,0,0-4.85,2.83h0l-1.72,2.23a8.13,8.13,0,0,0-1.3,4.09,5.36,5.36,0,0,0,0,2.92,8.16,8.16,0,0,0,1.3,4.09l1.72,2.23h0l2.24,1.73.13.1a8.3,8.3,0,0,0,4.09,1.31,8.4,8.4,0,0,0,4.39-.2l2.63-1.11a8.31,8.31,0,0,0,3.08-2.83,5.46,5.46,0,0,0,1.42-2.43,8.34,8.34,0,0,0,.95-4.24l-.4-2.92a10.93,10.93,0,0,0-2.83-4.86l0,0c-.36-.29-.74-.58-1.11-.86s-.74-.59-1.12-.87l0,0-.1-.07a8.13,8.13,0,0,0-4.09-1.3,9.83,9.83,0,0,0-8.12,2.16,8.44,8.44,0,0,0-2.84,3.09l-1.11,2.62a11.16,11.16,0,0,0,0,5.85L164.2,254A11.16,11.16,0,0,0,168.15,257.91Z" style="fill:#1c1b1f"/><path d="M144.5,77.85l.19-.39c2.53-5.37,1.49-11.87-3.95-15-4.78-2.8-12.5-1.45-15.05,3.94l-.18.4c-2.54,5.37-1.5,11.86,3.94,15,4.78,2.79,12.51,1.45,15.05-4l.19-.39c2.53-5.37,1.49-11.87-3.95-15-4.78-2.8-12.5-1.45-15.05,3.94l-.18.4c-2.54,5.37-1.5,11.86,3.94,15C134.23,84.59,142,83.25,144.5,77.85Z" style="fill:#1c1b1f"/><path d="M57.49,118.73l-.29.09c-13.39,4.39-7.66,25.64,5.85,21.22l.29-.09c13.39-4.39,7.66-25.64-5.85-21.22l-.29.09c-13.39,4.39-7.66,25.64,5.85,21.22l.29-.09C76.73,135.56,71,114.31,57.49,118.73Z" style="fill:#1c1b1f"/><path d="M110.11,268.53l-.11.28c-2.28,5.49,2.46,12.1,7.68,13.53,6.33,1.74,11.25-2.17,13.53-7.68l.12-.28c2.27-5.49-2.46-12.09-7.69-13.53-6.32-1.74-11.25,2.17-13.53,7.68l-.11.28c-2.28,5.49,2.46,12.1,7.68,13.53,6.33,1.74,11.25-2.17,13.53-7.68l.12-.28c2.27-5.49-2.46-12.09-7.69-13.53C117.32,259.11,112.39,263,110.11,268.53Z" style="fill:#1c1b1f"/><path d="M243,214.71l-.1.53c-1.12,5.82,1.64,11.87,7.68,13.53,5.39,1.48,12.41-1.82,13.53-7.68l.11-.54c1.12-5.82-1.64-11.87-7.69-13.53-5.38-1.48-12.4,1.82-13.53,7.69l-.1.53c-1.12,5.82,1.64,11.87,7.68,13.53,5.39,1.48,12.41-1.82,13.53-7.68l.11-.54c1.12-5.82-1.64-11.87-7.69-13.53C251.18,205.54,244.16,208.84,243,214.71Z" style="fill:#1c1b1f"/><path d="M266.45,216.52l-.06.46,3.22-7.78-.07.07L287.92,220l.13-.52c3.42-13.74-17.79-19.61-21.21-5.85l-.13.52c-2.63,10.56,10.47,18.58,18.39,10.71,2.41-2.41,2.93-5.11,3.35-8.31.77-5.9-5.61-11-11-11C270.86,205.52,267.23,210.6,266.45,216.52Z" style="fill:#1c1b1f"/><path d="M362.39,243.67l-.27.31c-3.88,4.5-4.42,11.14,0,15.56,4,4,11.66,4.52,15.56,0l.27-.31c3.87-4.5,4.42-11.14,0-15.56-4-4-11.67-4.52-15.56,0l-.27.31c-3.88,4.5-4.42,11.14,0,15.56,4,4,11.66,4.52,15.56,0l.27-.31c3.87-4.5,4.42-11.14,0-15.56C374,239.71,366.28,239.15,362.39,243.67Z" style="fill:#1c1b1f"/><path d="M396.16,259.39l.17.5c1.93,5.61,7.54,9.32,13.53,7.68,5.46-1.5,9.63-7.89,7.68-13.53l-.17-.5c-1.93-5.62-7.54-9.33-13.53-7.69-5.46,1.51-9.63,7.89-7.68,13.54l.17.5c1.93,5.61,7.54,9.32,13.53,7.68,5.46-1.5,9.63-7.89,7.68-13.53l-.17-.5c-1.93-5.62-7.54-9.33-13.53-7.69C398.38,247.36,394.21,253.74,396.16,259.39Z" style="fill:#1c1b1f"/><path d="M436.36,257.51H425.29l.08.06-2.23-1.72.09.07,0,.05-1.72-2.23h0l-1.11-2.63h0l-.39-2.93h0l.39-2.92h0l1.11-2.63h0l1.72-2.22h0l2.22-1.72h0l2.63-1.11h0l2.92-.39h0l2.93.39h0l2.63,1.11-.09-.06,2.22,1.72-.13-.11a8.2,8.2,0,0,0-3.54-2.28,9.94,9.94,0,0,0-8.48,0,8.2,8.2,0,0,0-3.54,2.28l-1.72,2.22a11.06,11.06,0,0,0-1.5,5.55l.39,2.93a11.09,11.09,0,0,0,2.83,4.85.46.46,0,0,1,.07.07l0,0c.73.6,1.52,1.17,2.25,1.74l.09.06a11,11,0,0,0,5.57,1.51,11.19,11.19,0,0,0,2.93-.4,9.37,9.37,0,0,0,2.63-1.11l2.23-1.72,1.72-2.22,1.1-2.63a11,11,0,0,0,0-5.85,9.74,9.74,0,0,0-1.11-2.64h0l-1.72-2.23h0l0,0-.07-.06,0,0-1.12-.86-1.11-.86h0l-.06,0a11,11,0,0,0-11.1,0l0,0a10.56,10.56,0,0,0-5.25,11,8.19,8.19,0,0,0,1.3,4.09l1.72,2.22a11,11,0,0,0,4.86,2.83l2.92.39A10.8,10.8,0,0,0,436.36,257.51Z" style="fill:#1c1b1f"/><path d="M454.32,215.34l.2.1c5.34,2.6,11.9,1.46,15.05-3.94,2.83-4.83,1.42-12.44-3.94-15.05l-.2-.1c-5.34-2.6-11.9-1.45-15.05,3.94-2.83,4.84-1.42,12.44,3.94,15.05l.2.1c5.34,2.6,11.9,1.46,15.05-3.94,2.83-4.83,1.42-12.44-3.94-15.05l-.2-.1c-5.34-2.6-11.9-1.45-15.05,3.94C447.55,205.13,449,212.73,454.32,215.34Z" style="fill:#1c1b1f"/><path d="M452.87,172.87l.34-.12c5.64-1.87,9.31-7.59,7.68-13.53-1.51-5.51-7.87-9.56-13.53-7.68l-.34.11c-5.63,1.87-9.31,7.59-7.68,13.53,1.52,5.52,7.87,9.56,13.53,7.69l.34-.12c5.64-1.87,9.31-7.59,7.68-13.53-1.51-5.51-7.87-9.56-13.53-7.68l-.34.11c-5.63,1.87-9.31,7.59-7.68,13.53C440.86,170.7,447.21,174.74,452.87,172.87Z" style="fill:#1c1b1f"/><path d="M447.23,143.12l0-.05-1.72,13.33.13-.11L443.39,158a.75.75,0,0,1,.15-.09L440.91,159h0l-2.92.39h0l-2.93-.39h0l-2.63-1.11h0l-2.23-1.72h0L428.53,154h0l-1.11-2.63h0l-.4-2.92h0l.4-2.92h0l1.1-2.62h0l1.72-2.22a.52.52,0,0,1-.11.1l2.22-1.72-.16.12a12.28,12.28,0,0,0-5.06,6.57,8.41,8.41,0,0,0-.19,4.39,8.16,8.16,0,0,0,1.3,4.09l1.72,2.23a11.12,11.12,0,0,0,4.86,2.83l2.92.39a11,11,0,0,0,5.55-1.5l.13-.09c.77-.57,1.52-1.17,2.27-1.76l0,0,.06,0a24.77,24.77,0,0,0,1.73-2.24v0a16.85,16.85,0,0,0,1.11-2.63,9.68,9.68,0,0,0,.39-2.93,10.93,10.93,0,0,0-1.5-5.55,9.36,9.36,0,0,0-1.72-2.23l-2.23-1.72a11,11,0,0,0-5.56-1.51,10.73,10.73,0,0,0-2.93.4h0c-.9.33-1.77.73-2.64,1.11l0,0-.07,0,0,0c-.76.58-1.53,1.15-2.27,1.76l-.1.09-1.72,2.22a8.19,8.19,0,0,0-1.3,4.09,5.6,5.6,0,0,0,0,2.93,8.19,8.19,0,0,0,1.3,4.09.08.08,0,0,1,0,0,10.57,10.57,0,0,0,11,5.25,8.13,8.13,0,0,0,4.09-1.3l2.23-1.72a11,11,0,0,0,2.83-4.86l.39-2.92A10.9,10.9,0,0,0,447.23,143.12Z" style="fill:#1c1b1f"/><path d="M72.51,176.52c7.7-13.32,20.42-34.84,39.06-31.6,5.84,1,11.85-1.57,13.53-7.69,1.45-5.3-1.8-12.5-7.68-13.53C103.5,121.28,90.15,125,79,133.51c-11,8.4-18.59,20.05-25.45,31.9-7.1,12.28,11.9,23.37,19,11.11Z" style="fill:#1c1b1f"/><path d="M452.24,140.14c-7.18-8.67-15-17.5-24.14-24.11a32.87,32.87,0,0,0-14.2-5.82c-5.09-.79-10.14-.79-15-2.71-5.52-2.2-12.08,2.4-13.53,7.68-1.72,6.26,2.14,11.32,7.69,13.53,7.52,3,16.76.94,23.41,5.95,7.61,5.73,14.15,13.75,20.19,21,3.79,4.58,11.64,3.92,15.56,0,4.53-4.53,3.8-11,0-15.56Z" style="fill:#1c1b1f"/></svg>