<svg id="레이어_1" data-name="레이어 1" xmlns="http://www.w3.org/2000/svg" viewBox="0 0 500 500"><path d="M468.82,369.06c-12.45-10-22-23.72-29.8-37.51-3.94-6.94-7.83-13.09-6.86-21.44,1-8.5,5.56-16.24,9.62-23.59a198.73,198.73,0,0,1,18.37-27.84c5.79-7.23,13.88-17.6,2.47-24.42-4.69-2.8-10.71-3.56-16.08-3.82-24-1.13-54.93,41.2-54.93,41.2-2.29-37.76,9.15-74.38,9.15-74.38,1.89-7.24,6.24-28.34-3.44-33.2-18.31-9.14-33.18,8-33.18,8,2.29-22.89-9.15-28.61-9.15-28.61A18.68,18.68,0,0,0,336.5,146c-2.76,2.14-5.83,4.36-6.85,7.86a4.86,4.86,0,0,0-3.29-3.49c-13.59-5-22.7,3.41-27.63,10.41a42.3,42.3,0,0,0-4.4,7.91C261.14,161.78,260,246.47,260,246.47,247.41,376.93,345.83,425,345.83,425Z" style="fill:#ffefd2"/><path d="M348.1,421.11C323.72,409.16,303,386.66,289,363.91c-15.12-24.6-23.4-52.81-25.18-81.58-1.2-19.47.09-40,2.46-59.47,1.42-11.64,3.57-23.73,8.21-34.57,3.25-7.59,9-17.12,18.68-15.31a4.66,4.66,0,0,0,5.53-3.14c-.44,1.09.75-1.51.95-1.89a44.73,44.73,0,0,1,2.48-4.16,29.69,29.69,0,0,1,5.2-6,18.58,18.58,0,0,1,6.84-3.89c2.13-.62,10.16-1.56,11.17,1.1a4.55,4.55,0,0,0,8.68,0c2.34-6,11-9.42,16.94-8.15,2.22.48,2.48.77,3.39,1.74,5.85,6.21,6,15.46,5.32,23.47-.33,3.83,5.19,6,7.68,3.18,5.93-6.73,15.62-11.25,24.54-8.55,6.62,2,7.17,7.39,7,13.64a67.4,67.4,0,0,1-2.28,15.06c-6.53,25-10.9,50.3-9.48,76.23.25,4.68,5.77,5.84,8.38,2.28a173.59,173.59,0,0,1,15.36-17.74c8.46-8.59,19.34-19.05,31.77-21,5.55-.88,21.1.08,21.26,7.93.07,3.36-2.76,6.93-4.63,9.49-2.79,3.79-5.82,7.4-8.56,11.24A229.55,229.55,0,0,0,434.21,291c-4.32,8.25-8.06,17.55-6.15,27,2.08,10.3,9.4,20.43,15.18,29a117,117,0,0,0,22.4,25.26c4.44,3.65,10.84-2.68,6.36-6.36A110.84,110.84,0,0,1,450.05,341c-2.84-4.29-5.45-8.72-8-13.19-2.81-5-5.76-10-5.54-15.95.41-10.93,8.3-22,13.78-31.08s12.37-16.95,18.17-25.73c4-6.13,6.5-14,1.51-20.3-5.59-7.12-16.7-9.16-25.28-8.81-13.82.57-26.11,10.5-35.75,19.52a172.87,172.87,0,0,0-21.23,23.91l8.39,2.27c-1.35-24.64,2.37-49.1,8.88-72.81,2.22-8.09,3.67-17,2.49-25.37-1.65-11.77-11.58-17.3-23.06-16.49-8.75.61-17.67,5.35-23.46,11.93l7.68,3.18c.93-10.72-.38-24.93-10.15-31.68-11.23-7.75-28.61.52-33.18,12.22H334c-3.89-10.22-18.71-9.72-27-5.47-7.95,4.09-13.74,12.19-17,20.3l5.54-3.14c-23.38-4.4-32,24.06-35.62,41.7-3.71,18.23-4.83,37.37-5.41,56-1.74,55.75,18.84,110.38,61.27,147.35,8.42,7.33,17.7,14.62,27.79,19.56,5.18,2.54,9.75-5.22,4.54-7.77Z"/><path d="M287.8,266.44c-2-9.66-2.38-19.8-2.34-29.63a175.2,175.2,0,0,1,13.21-67c2.23-5.34-6.47-7.67-8.68-2.39-12.91,30.91-17.71,68.27-10.87,101.38,1.17,5.67,9.85,3.27,8.68-2.39Z"/><path d="M318.48,261.92a359.13,359.13,0,0,1,1-37.55c1.69-23,4.81-47,14-68.28,2.28-5.26-5.47-9.85-7.77-4.54-9.56,22.11-13.15,46.45-15.06,70.31a359.43,359.43,0,0,0-1.22,40.06c.19,5.77,9.19,5.8,9,0Z"/><path d="M354.1,258.48c-3.05-29.64,4.47-61.41,15.53-88.64,2.17-5.36-6.53-7.7-8.68-2.39a221.67,221.67,0,0,0-15.46,63.73c-.81,9-1.32,18.29-.39,27.3.58,5.71,9.59,5.77,9,0Z"/><path d="M308.56,321.43c-.24,2.37.47-1.46.78-2.38.49-1.42,0-.05.42-1,.34-.73.7-1.45,1.08-2.15a40.09,40.09,0,0,1,3.09-4.78c8.47-11.08,22.13-18.42,35-23.48,14.12-5.54,29-9,43.88-11.62,5.7-1,3.29-9.66-2.39-8.68-23.45,4.06-48.15,10.3-68,24-8.87,6.12-17.25,14.05-21.31,24.26a21.93,21.93,0,0,0-1.52,5.85c-.59,5.75,8.41,5.71,9,0Z"/><path d="M147.15,424.22l42.64-73.87c32.43-30,25.76-76.36,25.76-76.36C241.91,254.68,230,226,230,226c-13.22-28.83-38.9-20.89-38.9-20.89,5.27-24.75-24.41-32.8-24.41-32.8-32.08-4.44-34.6,19.91-34.6,19.91-3-13.37-23.06-13.12-23.06-13.12-29.68-.06-32.77,27.26-32.77,27.26C44.46,201.42,41.45,232,41.45,232c-4.2,33,25.23,54,25.23,54,0,18,9.61,40.84,9.61,40.84-13.22,19.22-32.43,49.25-32.43,49.25Z" style="fill:#fff"/><path d="M75.81,333.7c-.08.13,9.43,10,10,10.84A29.88,29.88,0,0,1,91,370.71c-2.53,9.22-11.35,22.69-21.47,20.36L45,379.93Z" style="fill:#1c1b1f"/><path d="M192.27,343.74l0,0c.34-.62-9.29-5.8-10.21-6.24a50.1,50.1,0,0,0-11.44-4.05A30.77,30.77,0,0,0,150,336.36a22.71,22.71,0,0,0-4.9,3.7c-4.49,4.51-6.79,10.73-8.38,16.89a96.78,96.78,0,0,0,.29,50.17c1.87,6.64,4.64,13.26,9.61,18.05Z" style="fill:#ffc200"/><path d="M110.25,178.12s-8.52-18.67-15.28-15.4c0,0-7.77,10.46-7,21.28Z" style="fill:#1c1b1f"/><path d="M177.61,175.66s-1.55-20.46-9-19.74c0,0-10.9,7.14-13.93,17.55Z" style="fill:#1c1b1f"/><path d="M223.47,214.81s5.74-19.7-1.51-21.65c0,0-12.72,2.85-19.22,11.53Z" style="fill:#1c1b1f"/><path d="M47.74,378.45Q59.49,360.09,71.56,342c2.68-4,6.62-8.35,8.61-12.75,1.1-2.42.21-4-.64-6.24a142.19,142.19,0,0,1-7.15-24.82,70.4,70.4,0,0,1-1.08-8.43c-.15-2.46.23-4.79-1.44-6.8-1.41-1.7-.6-.37-2.1-1.66A72.3,72.3,0,0,1,56.68,269.6a55.36,55.36,0,0,1-10.52-23.5A49.06,49.06,0,0,1,46,232c-.19,1.62.09-.48.28-1.37,3.05-14.3,14.23-22,28.86-19.93,3.14.45,5.32-1.17,5.7-4.34-.27,2.22.19-.8.37-1.56A31.79,31.79,0,0,1,83,199.32a25.9,25.9,0,0,1,12.25-12.9c8.74-4.19,29.24-5.19,32.5,7,1.39,5.23,8.31,3.6,8.83-1.19-.23,2.12.39-1.45.63-2.22a19.18,19.18,0,0,1,3.1-5.95c5.45-7.06,15-8.38,23.31-7.59,13.21,1.26,25.72,13.92,23.14,27.46-.62,3.22,2,6.59,5.53,5.53,13.39-4,27.69,4.9,33.37,17.77,6.72,15.24.38,33.16-12.42,42.85a4.84,4.84,0,0,0-2.07,5.08c-.33-2.33,0,.35.08,1,.18,2,.27,4,.31,6a101.81,101.81,0,0,1-1.19,18A89.46,89.46,0,0,1,202.9,325a79.55,79.55,0,0,1-6.27,10.75c-3.14,4.52-7.56,7.95-10.73,12.34-4,5.49-6.94,12-10.32,17.88l-19.75,34.23L143.26,422c-2.9,5,4.88,9.56,7.78,4.54l31-53.68,8-13.89c1.13-2,2.14-4.5,3.6-6.24,2.71-3.22,6-6,8.63-9.49a79.78,79.78,0,0,0,8.1-13.05,96.3,96.3,0,0,0,8.23-24.73c2-10.64,2.81-21.84,1.29-32.61l-2.07,5.08c16.29-12.32,24.25-33.41,16.55-53-6.75-17.19-25.9-29.62-44.43-24l5.53,5.54c3.42-17.9-8.22-30.91-24.06-37.13-13.2-5.18-31-1.1-39.16,10.79a27.28,27.28,0,0,0-4.63,12.25l8.84-1.2c-4.59-17.23-28.74-19.21-42.7-13.74-12,4.72-20.45,16.33-22,29.08l5.69-4.34c-10.21-1.45-20.53-.41-28.67,6.47-5.37,4.52-8.92,11-10.76,17.73-4.85,17.63,1.81,36.52,12.79,50.41A69.28,69.28,0,0,0,64.41,290l-2.23-3.89c.19,14.3,4.27,28.9,9.77,42l.45-3.47C61.28,340.86,50.57,357.35,40,373.9c-3.13,4.9,4.65,9.42,7.77,4.55Z" style="fill:#1c1b1f"/><path d="M63.19,204.17S50.36,188.15,44.6,193c0,0-5,12-1.59,22.35Z" style="fill:#1c1b1f"/><path d="M77.07,333.72c7.82-8,20.09-12,30.58-7.13,5.21,2.44,9.79-5.32,4.54-7.77-14.21-6.65-30.64-2.58-41.49,8.53-4,4.15,2.31,10.52,6.37,6.37Z" style="fill:#1c1b1f"/><path d="M71.79,206.4c.17,9.43,2.8,20.83,10.44,27,4.46,3.61,10.87-2.72,6.36-6.37-5.86-4.73-7.67-13.38-7.8-20.63-.11-5.78-9.11-5.8-9,0Z" style="fill:#1c1b1f"/><path d="M129,185.81c-3.15,10.92-3.66,25.21,4.87,33.84,4.07,4.12,10.44-2.24,6.36-6.37-6.11-6.18-4.77-17.39-2.55-25.08,1.6-5.58-7.08-8-8.68-2.39Z" style="fill:#1c1b1f"/><path d="M189.25,200.28c-9.62,6.08-15.54,17.32-12,28.56,1.72,5.51,10.41,3.16,8.68-2.39-2.31-7.39,1.71-14.5,7.88-18.4,4.88-3.08.37-10.87-4.54-7.77Z" style="fill:#1c1b1f"/><path d="M223.74,116.22,208.36,81.35c-3.1-7-13.45-.95-10.36,6.06l15.38,34.87c3.11,7.05,13.45,1,10.36-6.06Z" style="fill:#1c1b1f"/><path d="M259.38,113.47l-3.27-38c-.66-7.64-12.66-7.71-12,0l3.27,38c.66,7.64,12.67,7.71,12,0Z" style="fill:#1c1b1f"/><path d="M292.42,117.77l13.73-35.55c2.79-7.21-8.81-10.33-11.57-3.19l-13.73,35.55c-2.79,7.21,8.81,10.33,11.57,3.19Z" style="fill:#1c1b1f"/></svg>