<svg id="레이어_1" data-name="레이어 1" xmlns="http://www.w3.org/2000/svg" viewBox="0 0 500 500"><path d="M116.8,160.16,79.07,145.52c-7.21-2.8-10.33,8.8-3.19,11.57l37.73,14.64c7.21,2.8,10.33-8.8,3.19-11.57Z" style="fill:#1c1b1f"/><path d="M141.26,131.21l-31-26.06c-5.87-4.94-14.4,3.51-8.49,8.49l31,26.05c5.87,4.95,14.4-3.5,8.48-8.48Z" style="fill:#1c1b1f"/><path d="M169.2,109.49l-16.38-37c-3.12-7-13.46-1-10.36,6.06l16.38,37c3.12,7,13.46.95,10.36-6.05Z" style="fill:#1c1b1f"/><path d="M251.92,249.56a13,13,0,0,0-3.76-5.88,8,8,0,0,0-4.57-2.15,26.32,26.32,0,0,0-3.44-.13,25.05,25.05,0,0,0-3.45.45c-2.89.57-5.7,1.46-8.59,2a38.85,38.85,0,0,1-14.18.21c-.56-.09-1.11-.2-1.65-.32-3.17-.68-6.25-1.76-9.46-2.2s-6.68-.18-9.36,1.63a11.53,11.53,0,0,0-4.59,7.41,18.23,18.23,0,0,0,1.32,10.52,32.05,32.05,0,0,0,5.94,8.91A54.86,54.86,0,0,0,211,281.62a21,21,0,0,0,9.36,2.92c4.11.07,8-1.84,11.51-4a54.07,54.07,0,0,0,15.31-13.2c3.13-4.12,5.52-9.09,5.32-14.26A13.92,13.92,0,0,0,251.92,249.56Z" style="fill:#1c1b1f"/><path d="M220.57,288.11l-18.41,21.81s1.68,10.48,18.41,10.48S239,309.92,239,309.92Z" style="fill:#fb0000"/><path d="M215,275v5.08c0,1.25-.57,4.48,0,5.64-.44-.9,1.19-2.59-1.27.26a45.9,45.9,0,0,1-4.9,5,34.2,34.2,0,0,1-9.73,5.93c-8,3.05-16.89-.1-22.9-5.92-5.26-5.08-6.77-11.93-6.14-19,.68-7.7-11.33-7.65-12,0-.9,10.11,2.29,20.32,9.65,27.5,8,7.84,20.33,12.57,31.46,9.95,10.21-2.4,19.61-9.83,25.73-18.17,3.29-4.49,2.1-10.91,2.1-16.22,0-7.72-12-7.73-12,0Z" style="fill:#1c1b1f"/><path d="M214.13,274.24c0,4.91-1.19,11.33,1.64,15.61,5.75,8.71,16,16.33,26.19,18.78,10.94,2.63,22.85-2,30.93-9.47,7.74-7.15,11.1-17.64,10.18-28-.67-7.63-12.68-7.7-12,0,.63,7.09-.88,13.94-6.14,19-6,5.8-14.92,9-22.9,5.92a34.15,34.15,0,0,1-9.72-5.93,44.32,44.32,0,0,1-4.91-5c-.5-.65-1-1.28-1.57-1.89.22,2.07.32,2.62.3,1.64.63-.77,0-4.74,0-5.64v-5.08c0-7.72-12-7.73-12,0Z" style="fill:#1c1b1f"/><path d="M381.57,214.63a111.17,111.17,0,0,0-8.92-22.91c-5.67-10.75-19.76-33.85-33-17.21-4,5-5,11.68-5.39,18.05s-.19,12.89-2.21,18.94c-7.4-24.56-15.34-50.08-32.91-68.77-4.46-4.73-9.65-9-15.87-10.94s-13.63-.93-18.17,3.72c-6.38,6.55.59,18,3,26.83-4.53-7.23-15.38-15.2-22.77-19.45s-17.45-4.93-24.06.47c-5.39,4.4-7.45,11.9-6.89,18.83s5.78,13.11,14.85,19.59c-10.88-1.15-30.55-2.08-41.32-.16s-21.41,7.37-27.1,16.71-5,22.87,3.27,30c9.31,8,34.85-7.45,47.1-7.89,13.94-.5,28.78,2.7,38.76,12.45,7.6,7.43,25.53,40.65,24.63,51.25s-6.8,28.68-14.25,36.27c-14.72,15-50.53,20.73-66.07,2.6-7.84-9.15-14.7-32.8-17.31-44.56s.79-30.72-6.35-40.43-21.93-15.14-31.46-7.76c-5.36,4.15-7.65,11.12-8.92,17.78a94.82,94.82,0,0,0,.87,39.58c5.09,21.45,17.56,40.63,22.38,62.15a92.25,92.25,0,0,1-12.35,69.34l153.55,37.72c2.33.57,4.87,1.13,7,.14,2-.9,3.22-2.88,4.34-4.76,26.28-44,52.19-88.77,68-137.52,7.87-24.28,13.19-49.74,11.57-75.21A127.58,127.58,0,0,0,381.57,214.63Z" style="fill:#ffefd2"/><path d="M304,460.84c4.7-2.8,7-8.11,9.71-12.66q5.63-9.45,11.16-19c7-12.15,13.94-24.41,20.48-36.85,12.91-24.61,24.48-50,33.05-76.5,8.94-27.6,14.63-57,10.76-86a122.51,122.51,0,0,0-11-37.24c-3.91-8-8.77-16.56-15.53-22.55-7.79-6.9-17.72-8-25.15.14-10.31,11.29-5.69,26.75-9.72,40.13h8.68c-8-26.44-16.86-56.69-38.76-75.26-9.25-7.84-23.14-12.55-33.78-4.36-11.14,8.57-3.17,22.32-.11,32.85l8.22-3.47c-5.48-8.25-13.83-14.6-22.18-19.76s-18.78-7.4-27.86-2.73-13,15.5-12,25.19C211,173,219.15,180,227,185.66l2.27-8.38c-21.86-2.23-49.95-4.76-67,12.1-8.1,8-11.91,20.24-8.28,31.27,2.95,9,9.64,14.82,19.23,14.53,10-.3,19.75-4.26,29.27-7.06,10.4-3.06,21.47-3.48,31.79.4,11.3,4.25,18.74,14.51,24.45,24.67,6.05,10.73,11.07,23.13,11.92,35.54,2.79,40.36-52.05,60.37-76.94,29.09-7.78-9.77-11.33-22.52-13.09-34.68-1.68-11.71-.14-23.55-1.71-35.19s-10-20.85-21.27-24.37c-11-3.43-22.3.72-27.71,11C123,247.7,123,265.25,125,279.47c2.3,16.56,9.36,31.54,15.74,46.81,6.23,14.9,10.87,30,10.29,46.32a88.71,88.71,0,0,1-13.82,44.23c-3.1,4.91,4.68,9.43,7.77,4.54a97.42,97.42,0,0,0,12-76.18c-3.54-13.52-9.81-26.08-15-39-5.83-14.48-9.59-29.26-8.84-45,.51-10.57,2.3-30.18,16.79-29.89,5.55.11,11,2.94,14.84,6.8,4.71,4.71,5.51,10.75,5.58,17.12.26,23.35,1,48.51,16.06,67.81,23,29.51,73.27,23.63,88.86-10.6,9.32-20.45,2.12-43.77-8.08-62.48-5.32-9.76-12.18-19.59-21.62-25.76-9.77-6.37-22.7-8.47-34.18-7.3-10.47,1.07-20.33,5.77-30.54,8.1-3.71.85-9.13,2.31-12.82.52-5.23-2.52-6.8-10.31-6.38-15.49,1.16-14.37,15.68-22.38,28.56-24.27,12.72-1.87,26.29-.8,39,.5,4.92.5,5.44-6.07,2.27-8.39-5.21-3.8-11.68-8.82-12.62-15.7-1-7.46,2.6-16,10.44-17.8,7.06-1.59,13.21,1.8,18.87,5.59,5.9,4,12,8.65,16,14.64,2.73,4.1,9.7,1.63,8.22-3.47-2.15-7.42-10.94-21.43.33-25.11s21.21,7,27.5,14.79c14.32,17.76,21,40.39,27.47,61.87a4.54,4.54,0,0,0,8.68,0c3.19-10.61-.1-23.45,5.39-33.29,1.82-3.26,5.1-6.94,9.21-6.06,3.46.73,6.32,3.88,8.53,6.42,13.88,15.93,20.23,39.1,21.57,59.7,1.67,25.79-3.94,51.39-12,75.75-7.71,23.37-17.78,45.87-29,67.73-6.16,11.95-12.66,23.72-19.35,35.38q-5,8.75-10.15,17.43-2.79,4.73-5.61,9.45c-1.52,2.56-2.93,6.31-5.54,7.86-5,3-.45,10.75,4.54,7.77Z" style="fill:#1c1b1f"/><path d="M220.81,184.33c1.12.12-1.09-.21.77.11,1.57.28,3.14.56,4.71.91a97.53,97.53,0,0,1,15.83,5,88.78,88.78,0,0,1,39.53,31.39c7.67,11.19,12.41,23.82,15.14,37.06,1.17,5.66,9.85,3.26,8.68-2.4-4.75-23-16.07-44.4-34.53-59.29a104.07,104.07,0,0,0-40.41-20,71.27,71.27,0,0,0-9.72-1.77c-5.76-.57-5.72,8.43,0,9Z" style="fill:#1c1b1f"/><path d="M256.73,155.57a47.33,47.33,0,0,1,4.78,6.17,168.5,168.5,0,0,1,12.17,20,199,199,0,0,1,21.45,75.83c.62,7.64,12.63,7.71,12,0a214.4,214.4,0,0,0-22.59-80.93c-5.32-10.34-11.53-20.84-19.33-29.55-5.16-5.76-13.62,2.74-8.48,8.48Z" style="fill:#1c1b1f"/><path d="M323.85,194.39c4.27,16.17,4.91,33.61,5,50.22,0,7.72,12,7.74,12,0-.06-17.64-.87-36.24-5.4-53.41-2-7.47-13.54-4.3-11.57,3.19Z" style="fill:#1c1b1f"/><path d="M252.7,334.18a14,14,0,0,0-3-5.82c-4.88-6.51-9.89-13.76-10-22.09,0-1.86.19-3.9-.84-5.41-1.2-1.79-3.54-2.05-5.56-2.5a19,19,0,0,1-8.56-4.53c-2.66-2.42-3.81-6.1-6.9-1.93a29.81,29.81,0,0,1-9.37,8.26,14.28,14.28,0,0,0-3.74,2.49c-1.71,1.83-2.16,4.58-2.35,7.15-.9,12,2.49,24.87,11.18,32.51a26.3,26.3,0,0,0,19,6.54,26.69,26.69,0,0,0,18-9.06,8.31,8.31,0,0,0,2-3.4A5.69,5.69,0,0,0,252.7,334.18Z" style="fill:#fb0000"/><path d="M255.59,333.38c-1.79-6.58-7.52-11.49-10.44-17.64-1.83-3.85-2.16-7.43-2.4-11.6-.15-2.52-.79-4.91-2.85-6.54s-4.84-1.73-7.3-2.56c-3.83-1.3-5.69-4-8.59-6.44-5-4.18-8,1.5-11.36,4.76-4.56,4.43-11,5.74-12.69,12.54-1.45,6-.74,13,.6,19C203.31,337,211.48,348,224,351.05a28.86,28.86,0,0,0,19.91-2.34c5.33-2.68,12.23-7.9,11.8-14.53-.25-3.84-6.25-3.86-6,0,.41,6.42-10.93,10.86-16,11.52a23.25,23.25,0,0,1-19-6.49c-4.4-4.27-7-10-8.33-15.95-1.28-5.62-3-16,2.37-19.79,2.12-1.49,4.41-2.61,6.42-4.29.44-.37,5.13-6,5-6,.53-.05,4.79,4.63,5.75,5.25,2.55,1.63,5.28,1.85,7.91,3.08,3.66,1.72,2.76,5,3.29,8.43a29.57,29.57,0,0,0,2.2,7.34,51.51,51.51,0,0,0,4.93,8.59c2,2.93,4.63,5.6,5.59,9.11C250.82,338.7,256.61,337.12,255.59,333.38Z" style="fill:#1c1b1f"/><path d="M217.19,296.19C215.8,310,220,325.38,229.7,335.48c2.68,2.78,6.92-1.46,4.24-4.25-8.67-9-12-22.76-10.75-35,.39-3.84-5.62-3.82-6,0Z" style="fill:#1c1b1f"/></svg>