<svg id="레이어_1" data-name="레이어 1" xmlns="http://www.w3.org/2000/svg" viewBox="0 0 62 180"><path d="M48.39,146.85a1.45,1.45,0,0,0-.71-1.46l.18-.07a1.55,1.55,0,0,0,.46-2.35,2.29,2.29,0,0,0,.08-.28,2,2,0,0,0,0-.89,1.78,1.78,0,0,0,0-1.8,1.68,1.68,0,0,0-.3-1.42,1.26,1.26,0,0,0-.53-.65,2.11,2.11,0,0,0-.42-.7,1.59,1.59,0,0,0-.33-1.11,1.67,1.67,0,0,0-.55-2.06,1.87,1.87,0,0,0-.14-.62,1.78,1.78,0,0,0-.65-1.67,1.84,1.84,0,0,0-.3-.48,1.77,1.77,0,0,0-.88-1.6,1.66,1.66,0,0,0-.84-1.3,1.51,1.51,0,0,0-1-.84,1.46,1.46,0,0,0-.16-.36,1.71,1.71,0,0,0-1.53-1.68,1.43,1.43,0,0,0-.34-.14,1.5,1.5,0,0,0-1.48-1.1l-.09,0a2,2,0,0,0-.26-.57,1.88,1.88,0,0,0-.79-2.21,1.45,1.45,0,0,0-1.7-1A1.62,1.62,0,0,0,34.8,119a1.36,1.36,0,0,0-1.12-.08l-.18.06-.2-.11a1.61,1.61,0,0,0-.72-.4,1.45,1.45,0,0,0-.17-.81l.15-.31c.5-1.21-.68-2-1.74-2a1.57,1.57,0,0,0-.45-.31,1.48,1.48,0,0,0-1.2-1.47l0,0a1.81,1.81,0,0,0-1.66-1.47,1.79,1.79,0,0,0-1.36-1.64,2,2,0,0,0-.51-.38,1.9,1.9,0,0,0-.3-.94,1.76,1.76,0,0,0-.68-.7,1.6,1.6,0,0,0-1-1,1.72,1.72,0,0,0-1.16-1.11,1.64,1.64,0,0,0-.66-.76,1.77,1.77,0,0,0-.87-.9,1.61,1.61,0,0,0-.41-.93A1.7,1.7,0,0,0,19.2,102l-.15-.11a1.09,1.09,0,0,0-.13-.17l-.06-.16a1.71,1.71,0,0,0-.89-2,1.53,1.53,0,0,0-1.14-1.63,1.71,1.71,0,0,0,0-.32,1.81,1.81,0,0,0-.9-1.45.79.79,0,0,0-.06-.22,1.7,1.7,0,0,0-.23-2.06l-.28-.25a1.74,1.74,0,0,0,0-.39A1.61,1.61,0,0,0,15,91.8a1.24,1.24,0,0,0-.3-.58,1.72,1.72,0,0,0-.31-1.32,1.72,1.72,0,0,0,0-1.59,1.93,1.93,0,0,0-1.06-1.72,1.9,1.9,0,0,0,.69-1.26A1.8,1.8,0,0,0,14.55,84a1.78,1.78,0,0,0,.12-.29,1.72,1.72,0,0,0,.27-1,1.67,1.67,0,0,0,0-.5,1.74,1.74,0,0,0-.12-.84,1.51,1.51,0,0,0,.4-1.32,1.51,1.51,0,0,0,.09-1.09,1.72,1.72,0,0,0,.37-1,1.62,1.62,0,0,0,.6-1.38,1.71,1.71,0,0,0,.41-1.12,1.85,1.85,0,0,0,.46-.61,1.72,1.72,0,0,0,.17-1.13,1.84,1.84,0,0,0-.08-.93,1.77,1.77,0,0,0,1.28-1.62,2,2,0,0,0-.11-.81h0A1.68,1.68,0,0,0,20,69.15a1.54,1.54,0,0,0,.7-1,1.28,1.28,0,0,0,.14-.64,2,2,0,0,0,0-.73,1.33,1.33,0,0,0-.05-.19,1.57,1.57,0,0,0,1-2.18,1.66,1.66,0,0,0,.47-.26A1.73,1.73,0,0,0,24,62.67a1.47,1.47,0,0,0,.38-.48,1.75,1.75,0,0,0,.66-.86,1.66,1.66,0,0,0,.78-1.41,1.7,1.7,0,0,0,.56-1.26,1.27,1.27,0,0,0,.27-.34,1.82,1.82,0,0,0,1.08-.71,2,2,0,0,0,.39-.42A1.73,1.73,0,0,0,29.22,56a1.58,1.58,0,0,0,1-1.49,1.44,1.44,0,0,0,.1-.92l.12-.14a1.6,1.6,0,0,0,.62-.67,1.77,1.77,0,0,0,.73-.73,1.67,1.67,0,0,0,1-1.86h0a1.35,1.35,0,0,0,1.47-1,1.7,1.7,0,0,0,.49-1.31,1.72,1.72,0,0,0,.09-.81,2,2,0,0,0,1-.86,1.56,1.56,0,0,0,.93-1.41,1.28,1.28,0,0,0,.07-.28,1.64,1.64,0,0,0,.88-1.9.84.84,0,0,0,.05-.17,1.62,1.62,0,0,0,.89-1.26l0-.06A1.86,1.86,0,0,0,39,39.4c0-.06,0-.12.08-.19a1.74,1.74,0,0,0,.66-1.55A1.71,1.71,0,0,0,40,36.3a1.84,1.84,0,0,0,1-1.86,1.63,1.63,0,0,0,.66-1.63,2.28,2.28,0,0,0,0-.26A1.63,1.63,0,0,0,42,31.16a1.77,1.77,0,0,0,.25-1.91,1.76,1.76,0,0,0,.23-1.78,1.35,1.35,0,0,0-.24-.81,1.72,1.72,0,0,0,.23-1.52,1.69,1.69,0,0,0,.38-2.61,1.86,1.86,0,0,0,.1-.61,1.9,1.9,0,0,0,.41-1.5,2,2,0,0,0,.08-.86,2.61,2.61,0,0,0,0-.48,2,2,0,0,0,0-.8,1.4,1.4,0,0,0-.21-1s0,0,0-.06a1.78,1.78,0,0,0-.05-1.65,1.64,1.64,0,0,0-.34-.6,1.41,1.41,0,0,0-.53-.8,1.43,1.43,0,0,0,.13-.46,2.08,2.08,0,0,0,.22-.38,1.69,1.69,0,0,0,.27-1.68,1.75,1.75,0,0,0-.22-1.18A1.81,1.81,0,0,0,42.8,9.2a1.73,1.73,0,0,0-.22-1.13A1.68,1.68,0,0,0,41.4,6.5a4.4,4.4,0,0,0-1.47-.16,6.15,6.15,0,0,0-.74,0c-.19,0-1-.09-.41.07a1.59,1.59,0,0,0-2,1.34A1.65,1.65,0,0,0,36.85,10a1.71,1.71,0,0,0,0,1.33,1.65,1.65,0,0,0,.3,1.68A1.77,1.77,0,0,0,38,15.4a1.66,1.66,0,0,0,0,1,1.65,1.65,0,0,0-.5,2.75,1.59,1.59,0,0,0,.16.64h0a1.85,1.85,0,0,0-.52,1.9,1.57,1.57,0,0,0,0,1.29.77.77,0,0,0,0,.15,1.77,1.77,0,0,0,0,.23,1.62,1.62,0,0,0-.12,2.22,0,0,0,0,1,0,0,1.83,1.83,0,0,0,0,.9,1.71,1.71,0,0,0-.39,2.33,1.72,1.72,0,0,0,0,.64,1.54,1.54,0,0,0-.38,1,1.66,1.66,0,0,0-.38,2,1,1,0,0,0-.08.14,1.73,1.73,0,0,0-.71,1.71,1.72,1.72,0,0,0-.57,1.32,1.6,1.6,0,0,0,0,.92,1.49,1.49,0,0,0-.52.51,1.76,1.76,0,0,0-.68,1.65,1.82,1.82,0,0,0-.25,1,1.56,1.56,0,0,0-.44.93,2.25,2.25,0,0,0-.08.24,1.75,1.75,0,0,0-1,2.08,1.14,1.14,0,0,0-.1.19h-.05a1.69,1.69,0,0,0-1.59,1.2,1.38,1.38,0,0,0-.27,1.91,1.34,1.34,0,0,0-.07.18,1.72,1.72,0,0,0-1.73,1.21,1.58,1.58,0,0,0-.47.89,1.63,1.63,0,0,0-.41.66.27.27,0,0,1-.08.07,1.56,1.56,0,0,0-.47,1.16A1.66,1.66,0,0,0,25.13,53a2.88,2.88,0,0,0,.27.34l-.08.1-.21,0-.26-.1a1.7,1.7,0,0,0-2.09,1.55,1.17,1.17,0,0,0-.05.2l-.14.09a1.69,1.69,0,0,0-1,1.87.6.6,0,0,0-.06.11,1.71,1.71,0,0,0-1.81,1.65,1.62,1.62,0,0,0,.16.92,1.81,1.81,0,0,0-1.36,1.09,1.69,1.69,0,0,0-.6.77,1.71,1.71,0,0,0-.63.78,1.63,1.63,0,0,0-.59,1.18,2.26,2.26,0,0,0-.25.28A1.87,1.87,0,0,0,15.28,65a1.27,1.27,0,0,0-.2,1.43,1.11,1.11,0,0,0-.12.27,1.62,1.62,0,0,0-.4.65,1.47,1.47,0,0,0-.65.63l-.09.18a2.24,2.24,0,0,0-.19.61,1.69,1.69,0,0,0-.62.9,1.5,1.5,0,0,0-.44.5,1.77,1.77,0,0,0-.47,1.07A1.75,1.75,0,0,0,12,73.63l0,0a1.6,1.6,0,0,0-.08.78,1.47,1.47,0,0,0-.21,0,1.65,1.65,0,0,0-1.65,1.65,2.43,2.43,0,0,0,.05.4,1.84,1.84,0,0,0-.49,1,1.35,1.35,0,0,0-.1,1.35,1.46,1.46,0,0,0,.16,1.08,1.74,1.74,0,0,0,0,.51,1.45,1.45,0,0,0,0,.29,1.64,1.64,0,0,0-.13.84,1.71,1.71,0,0,0-.7,2.53,1.65,1.65,0,0,0-.45,2.1,1.72,1.72,0,0,0,0,.6,1.57,1.57,0,0,0,.24.92,1.39,1.39,0,0,0,0,.41l-.1.17a1.74,1.74,0,0,0,.46,2.18,1.62,1.62,0,0,0,0,.19,1.64,1.64,0,0,0,.66,2.47,1.68,1.68,0,0,0,1,2.35.08.08,0,0,0,0,0l-.1.12a1.32,1.32,0,0,0-.24.53,1.61,1.61,0,0,0,.6,2.2,1.52,1.52,0,0,0,1.22,1.29,1.61,1.61,0,0,0,.95,2.42h.1a2.07,2.07,0,0,0,0,.22,1.33,1.33,0,0,0,.61.88,1.37,1.37,0,0,0,.33,1,1.27,1.27,0,0,0,.15.74,1.61,1.61,0,0,0,.74,1.29,1.76,1.76,0,0,0,1.17,1.51,1.71,1.71,0,0,0,.78,1.25,1.61,1.61,0,0,0,.7.91,1.69,1.69,0,0,0,1.07,1.21,1.54,1.54,0,0,0,1.71,1.16,1.17,1.17,0,0,0,.26,0,1.66,1.66,0,0,0,1.24,1.61,1.63,1.63,0,0,0,.47.8,1.6,1.6,0,0,0,.9,1.59,1.34,1.34,0,0,0,1.37.54,1.69,1.69,0,0,0,1,1.14,1.78,1.78,0,0,0,.43.23,1.33,1.33,0,0,0,.3.59,1.83,1.83,0,0,0,1.49,1,1.33,1.33,0,0,0,.26.55,1.59,1.59,0,0,0,1.16,1.53,1.76,1.76,0,0,0,1.28.83,1.59,1.59,0,0,0,.86.62,1.61,1.61,0,0,0,1.76,1.75,1.49,1.49,0,0,0,.41.42,1.77,1.77,0,0,0,.32.59,1.76,1.76,0,0,0,.41.65,2.08,2.08,0,0,0,.6.5,1.65,1.65,0,0,0,1.66,1.73,1.7,1.7,0,0,0,1.93,1.1l0,.07a3.58,3.58,0,0,0-.35.41c-.85,1.18.41,2.53,1.63,2.46a1.84,1.84,0,0,0,0,.52,1.68,1.68,0,0,0,.6,2.19,2.23,2.23,0,0,0,.42.23,1.58,1.58,0,0,0,.29.63l0,.12v0a1.39,1.39,0,0,0,.18,1.21,1.65,1.65,0,0,0,.59,1.64,1.75,1.75,0,0,0,.26.29,1.66,1.66,0,0,0,.29,1.43,1.31,1.31,0,0,0,.47.57,5.81,5.81,0,0,0,.17,1.94h0a1.86,1.86,0,0,0-.34,1.49,2,2,0,0,0,0,1.2l-.07.18a1.71,1.71,0,0,0,.3,1.47,1.7,1.7,0,0,0-.06,1.46,1.64,1.64,0,0,0,.49,1.9l-.35.08a1.69,1.69,0,0,0-1.15,2,2.13,2.13,0,0,0,.09.3,1.8,1.8,0,0,0-.09,1.95l0,.07a1.73,1.73,0,0,0-1,2l.06.22a1.77,1.77,0,0,0-.33.6,1.85,1.85,0,0,0-.19,1.24,1.65,1.65,0,0,0-.81,1.38,1.53,1.53,0,0,0-.39,1.54.14.14,0,0,1,0,.06,1.81,1.81,0,0,0-.24.57,1.61,1.61,0,0,0-.2.71,1.88,1.88,0,0,0-.44.45,1.72,1.72,0,0,0-.46,1.82,1.55,1.55,0,0,0,.33,1.09,1.43,1.43,0,0,0,0,.29,1.7,1.7,0,0,0,0,.55,1.63,1.63,0,0,0-.73.67,1.67,1.67,0,0,0-1,2,1.57,1.57,0,0,0,.41,1.56h0a1.58,1.58,0,0,0,.35.58,3.31,3.31,0,0,0,.8.54l.07.05a1.72,1.72,0,0,0,1.64.66c-.31,0,.38,0,.46,0a1.36,1.36,0,0,0,1.14-1.17,1.73,1.73,0,0,0,.14-1.3,1.59,1.59,0,0,0,.22-1.36,1.71,1.71,0,0,0,1.33-1.62,2,2,0,0,0,0-.6,1.74,1.74,0,0,0,.08-.88,1.8,1.8,0,0,0,.27-.62,1.6,1.6,0,0,0,1.17-1.85,1.68,1.68,0,0,0,.09-.8,1.91,1.91,0,0,0,.14-.52,2,2,0,0,0,.25-.39,1.74,1.74,0,0,0,.56-2.25,1.59,1.59,0,0,0,.53-1.88l0-.1a1.65,1.65,0,0,0,.67-1.77.3.3,0,0,0,0-.1,1.52,1.52,0,0,0,.24-.6,1.46,1.46,0,0,0,.37-1.25,1.67,1.67,0,0,0,.31-.66,1.8,1.8,0,0,0,0-1.21A1.66,1.66,0,0,0,48.4,152a1.57,1.57,0,0,0-.18-1.08,1.53,1.53,0,0,0,.08-.37,1.8,1.8,0,0,0,.41-.83,1.9,1.9,0,0,0-.06-1A1.51,1.51,0,0,0,48.39,146.85ZM38.49,16.16a.56.56,0,0,1-.05.08Z" style="fill:#1c1b1f"/></svg>