<svg width="229" height="198" viewBox="0 0 229 198" fill="none" xmlns="http://www.w3.org/2000/svg">
<path d="M204.847 154.098L195.767 155.218L198.547 165.468C200.603 164.126 202.783 162.984 205.057 162.058C209.927 159.848 207.617 151.268 202.287 151.808L197.377 152.308L202.877 157.808V156.948C202.877 155.987 202.624 155.043 202.145 154.209C201.666 153.376 200.977 152.683 200.147 152.198C198.867 151.518 200.447 152.738 199.687 151.868L198.577 160.508L204.717 157.248C210.327 154.248 206.417 145.718 200.477 147.248L194.247 148.808L198.487 158.808L203.667 155.638C208.137 152.908 206.517 145.138 200.887 145.388L198.407 145.508L202.297 154.888L204.247 152.938C207.447 149.738 205.247 143.228 200.357 143.548C196.964 143.771 193.609 144.385 190.357 145.378L194.597 155.378L202.527 149.688C207.157 146.358 204.527 137.218 198.287 139.628L193.647 141.418L198.997 150.608L202.117 147.468C206.667 142.888 200.937 136.098 195.457 138.828L191.287 140.908C191.017 141.038 189.167 141.908 190.187 141.478C191.207 141.048 188.777 141.868 188.507 141.958L193.857 151.148L196.247 148.318C197.063 147.447 197.577 146.335 197.711 145.149C197.846 143.962 197.594 142.764 196.993 141.732C196.392 140.7 195.474 139.889 194.376 139.42C193.278 138.951 192.058 138.849 190.897 139.128L189.177 139.438L194.527 148.628C196.443 146.401 198.154 144.005 199.637 141.468C202.367 136.538 196.967 131.468 192.117 133.938L188.897 135.608L196.977 138.898L196.767 137.818C196.217 134.968 192.667 133.148 189.997 133.978L188.207 134.538L194.417 142.618L196.847 138.608C200.237 132.958 192.847 128.128 188.207 131.948L183.847 135.508L193.047 137.938L192.787 136.888C191.787 132.668 186.547 131.798 183.597 134.458L180.247 137.458L188.877 144.128L190.687 140.268C193.087 135.138 188.267 130.398 183.167 132.738C182.135 133.221 181.134 133.766 180.167 134.368L188.237 140.578L189.877 136.198C191.187 132.698 187.877 129.368 184.567 129.198C181.257 129.028 179.567 130.838 177.507 133.088L186.697 138.448L188.047 133.568C189.477 128.368 182.667 124.158 178.847 128.218L176.987 130.218L186.377 134.108L186.287 131.838C186.251 130.648 185.847 129.499 185.13 128.548C184.414 127.597 183.421 126.892 182.287 126.528L181.407 126.188L185.247 130.028L184.867 127.968C183.937 122.968 177.217 123.068 174.807 126.658C172.96 129.667 171.457 132.874 170.327 136.218L181.137 137.678L181.647 131.178C182.077 125.728 173.857 123.698 171.397 128.398C171.057 129.058 170.717 129.728 170.397 130.398C170.227 130.718 170.957 129.868 169.947 131.148L175.297 129.738L174.517 129.608L178.357 133.448C177.882 131.819 177.211 130.254 176.357 128.788C174.097 125.138 167.097 125.158 166.307 130.098L165.437 135.538L175.487 134.218C174.487 132.378 175.487 134.568 175.007 133.218C174.717 132.318 174.497 131.388 174.247 130.478C172.707 124.948 165.437 125.578 163.637 130.478L162.937 132.378L172.847 131.048L171.667 128.528C169.157 123.178 161.767 126.378 161.417 131.308L161.147 135.148L171.947 133.688L169.847 127.318C167.987 121.718 158.667 122.318 159.047 128.778L159.377 134.448L169.627 131.668L167.997 128.908C165.787 125.168 158.727 125.358 157.997 130.228C157.677 132.115 157.456 134.018 157.337 135.928L167.587 133.148L165.087 129.048C161.827 123.668 153.597 127.208 155.087 133.288C155.357 134.438 155.617 135.588 155.907 136.738C156.467 138.968 156.087 136.498 156.087 138.618L163.087 133.318C161.787 132.858 164.847 135.318 163.787 133.658C163.391 133.166 162.942 132.72 162.447 132.328C158.827 128.758 151.087 132.328 153.257 137.678L154.917 141.778L164.117 136.428C162.471 135.011 160.737 133.699 158.927 132.498C154.457 129.568 150.227 134.398 150.847 138.708C151.259 140.755 152.045 142.708 153.167 144.468L160.697 136.938C158.097 135.388 155.647 133.668 153.157 131.938C152.321 131.429 151.361 131.159 150.382 131.159C149.403 131.159 148.443 131.429 147.607 131.938C147.017 132.368 146.427 132.808 145.847 133.258C142.997 135.408 142.077 139.078 144.727 141.888L148.257 145.638L153.607 136.448L149.667 134.938C143.317 132.508 140.947 141.568 145.427 144.938L152.507 150.348L155.287 140.098L153.387 139.868C148.027 139.228 146.997 146.028 149.497 149.258L150.657 150.758L153.087 141.558C152.717 141.638 151.537 141.418 152.937 141.838C152.307 141.648 151.677 141.458 151.057 141.248C149.477 140.718 147.877 140.248 146.297 139.768C141.297 138.218 136.547 145.468 140.947 148.958L143.727 151.178L147.617 141.788C144.897 141.478 143.047 141.358 140.567 142.738C139.849 143.17 139.238 143.759 138.78 144.46C138.321 145.161 138.027 145.957 137.919 146.788C137.812 147.619 137.893 148.463 138.158 149.258C138.422 150.053 138.863 150.778 139.447 151.378C140.547 152.438 141.637 153.505 142.717 154.578L145.147 145.388C144.183 145.566 143.236 145.827 142.317 146.168C138.097 147.778 136.597 153.708 140.997 156.228L146.167 159.228L143.647 153.008L143.377 153.868L148.687 149.868C148.193 149.948 147.69 149.948 147.197 149.868C146.067 149.458 148.977 150.188 147.037 149.868C145.817 149.688 144.607 149.348 143.407 149.098C138.497 148.048 133.527 154.488 138.057 158.288L140.337 160.198L144.227 150.808L142.497 150.948C137.097 151.398 134.967 158.108 139.717 161.198L145.537 164.978L142.807 160.228V161.328L144.417 157.438L143.677 158.178L149.027 156.768C145.957 155.508 142.937 154.248 139.767 153.268C134.867 151.758 131.557 157.268 133.557 161.348C135.137 164.598 138.107 167.278 140.497 169.948L145.847 160.758C145.206 160.579 144.584 160.342 143.987 160.048C141.927 158.688 145.307 160.858 143.597 159.788C142.357 159.008 141.117 158.248 139.867 157.478C135.407 154.708 129.057 160.478 132.347 164.998C132.577 165.318 134.637 168.198 134.647 168.188C134.657 168.178 133.377 163.848 134.097 168.188C134.187 168.738 134.287 169.288 134.377 169.828L142.457 163.618L140.377 162.618C136.557 160.848 130.377 163.888 132.297 168.828L133.357 171.518L142.547 166.168L136.847 160.608C133.617 157.308 127.247 159.678 127.457 164.498C127.564 166.332 127.921 168.142 128.517 169.878C128.687 170.438 128.927 172.078 129.347 172.418C128.947 172.098 129.977 169.798 129.187 170.858L137.827 169.748C137.263 169.389 136.734 168.977 136.247 168.518C136.987 169.388 136.637 169.058 136.077 168.418C135.217 167.418 134.487 166.298 133.697 165.238C129.897 160.168 122.697 163.178 123.697 169.478L124.107 172.128L133.297 166.778L131.147 164.048C127.697 159.668 120.327 164.418 121.947 169.398L124.687 177.788L134.737 173.558L131.107 167.048C128.627 162.608 120.107 164.228 120.857 169.828L121.337 173.358L131.577 170.578C130.772 168.913 129.826 167.321 128.747 165.818C128.182 165.168 127.492 164.638 126.717 164.261C125.943 163.884 125.1 163.668 124.24 163.625C123.38 163.582 122.52 163.713 121.711 164.011C120.903 164.309 120.164 164.767 119.537 165.358C115.607 168.808 117.337 173.908 117.997 178.438L121.837 171.668C120.457 172.248 124.517 172.198 122.907 171.788C122.122 171.622 121.319 171.555 120.517 171.588C118.337 171.588 115.577 173.288 115.217 175.588C115.147 176.038 114.747 177.018 114.947 177.338C115.317 177.928 116.137 175.828 115.387 176.418L124.577 178.848L122.377 171.328C120.667 165.508 111.377 166.428 111.567 172.788L111.807 179.908L122.047 177.128L120.707 174.128C118.257 168.638 110.887 172.128 110.457 176.908L110.067 181.168L120.877 179.708L119.407 174.778C117.967 169.928 109.787 169.158 108.797 174.778C108.629 175.435 108.508 176.104 108.437 176.778C108.437 179.308 109.947 175.248 108.787 176.558L117.847 179.008L116.437 171.388C115.587 166.798 108.437 165.998 106.387 170.078C105.545 171.774 104.856 173.541 104.327 175.358H114.927L113.927 171.658C112.647 166.658 106.517 166.718 103.877 170.338C101.687 173.338 101.877 177.818 101.437 181.418L108.437 176.118L107.507 175.938L111.347 179.778C110.612 177.287 110.11 174.733 109.847 172.148C109.357 168.518 104.497 167.278 101.767 168.858L100.897 169.358L108.427 171.358L107.677 170.148C105.227 166.208 98.8569 166.788 97.6169 171.468L96.3369 176.298L107.147 177.758L106.747 172.988C106.357 168.168 98.9369 164.728 96.5069 170.208L95.3469 172.818L105.397 174.128L104.767 172.318C104.418 171.184 103.715 170.191 102.76 169.485C101.805 168.78 100.649 168.399 99.4619 168.399C98.2747 168.399 97.1189 168.78 96.164 169.485C95.2092 170.191 94.5057 171.184 94.1569 172.318C93.8069 173.318 93.3869 174.378 93.0969 175.428C92.2569 178.428 94.9469 173.538 92.9169 175.518H100.697L99.9269 174.518L101.537 178.398L101.717 172.698C101.817 169.448 99.0869 167.578 96.2169 167.198L95.3769 167.088L100.127 169.808C99.7078 168.837 99.0657 167.977 98.2526 167.299C97.4396 166.622 96.4784 166.145 95.4469 165.908C94.5093 165.639 93.5164 165.628 92.573 165.876C91.6296 166.125 90.7707 166.623 90.0869 167.318C88.5645 169.23 87.2441 171.295 86.1469 173.478L96.1469 174.788C95.4069 172.428 94.5769 170.788 92.3369 169.478C91.0688 168.764 89.5718 168.573 88.165 168.947C86.7583 169.32 85.5532 170.229 84.8069 171.478L82.5569 175.558L91.1969 174.448C89.3869 172.908 87.9369 172.048 85.4869 172.268L90.7869 179.268L92.9069 170.848C94.4069 164.908 85.9669 161.038 82.9069 166.608L79.9069 171.918L89.9069 176.158L91.2269 170.528C92.6069 164.618 84.2969 160.658 81.2269 166.288L77.2269 173.408L82.0469 170.608L81.0469 170.518L86.3469 177.518C87.1769 173.838 89.3469 168.758 87.9269 165.158C86.1069 160.548 80.7969 159.908 77.9269 163.838C77.1169 164.928 76.3469 166.048 75.5069 167.098C75.2169 167.458 73.9169 168.808 75.2269 167.338C74.7515 167.785 74.236 168.187 73.6869 168.538L83.0769 172.428L83.3969 170.018C84.0769 164.788 77.1769 163.458 74.0069 166.128L71.8269 167.958L80.4069 174.608L84.3269 166.678C86.9069 161.468 79.8269 154.828 75.6869 160.018L70.0069 167.138L79.3969 171.028C79.6569 167.668 78.0669 172.518 79.1769 171.028C79.655 170.218 80.0471 169.36 80.3469 168.468C80.9865 167.004 81.5441 165.505 82.0169 163.978C83.7069 158.578 76.6569 154.978 72.8169 158.628L68.5869 162.678L77.2269 169.348L79.9769 164.648C83.1769 159.158 75.8669 153.758 71.3369 157.978L65.6469 163.268L74.8469 165.708L74.5769 164.608C74.1881 163.208 73.2648 162.017 72.0059 161.291C70.747 160.565 69.2534 160.363 67.8469 160.728L65.8469 161.378L72.6169 168.138C73.9069 164.208 70.4969 169.988 73.0569 167.028C74.0569 165.848 75.0569 164.568 76.0569 163.338C79.6269 158.888 75.0569 150.878 69.3969 154.698L64.2269 158.218L71.7469 165.748L72.5869 163.818C73.4869 161.718 73.7269 158.818 71.7269 157.148L71.0169 156.568L72.4369 161.918L72.7169 160.588C73.5669 156.588 70.1769 152.648 65.9469 153.818C65.6669 153.898 63.2069 154.618 64.1869 154.388C65.1669 154.158 62.9869 154.568 62.7269 154.608L66.6169 156.218L65.7869 155.548L64.6769 164.188L71.6769 159.018C75.2669 156.378 75.3269 150.228 70.3669 149.018C68.3255 148.49 66.1668 148.652 64.2269 149.478C63.4269 149.758 61.5069 150.038 60.9169 150.628C60.0169 151.538 64.3069 151.298 61.9169 150.338L63.2269 160.398L69.7169 156.608C75.4069 153.318 71.3669 145.528 65.4769 146.548L61.3669 147.258L66.7169 148.678L66.0069 147.968L67.6169 151.858L67.5269 150.938L64.8469 155.678L69.1269 153.608C73.8769 151.338 71.7569 142.678 66.3569 143.358L58.7369 144.358L60.1969 155.168L66.7169 152.888C67.849 152.526 68.8413 151.822 69.5574 150.873C70.2736 149.924 70.6786 148.777 70.7169 147.588L70.7869 146.788C71.0369 143.788 68.0569 141.348 65.2869 141.288L59.8869 141.188L65.1969 148.188L65.4269 147.188C66.0669 144.448 64.5869 141.028 61.5769 140.418L58.0369 139.708V150.308C62.8669 149.548 70.6369 149.628 72.0369 143.688C72.6369 141.088 71.2269 137.338 68.1869 136.918L58.6169 135.608L57.1569 146.418C61.6769 146.068 66.7469 146.518 68.9369 141.678C70.4069 138.438 69.3269 134.678 65.6569 133.608L58.8669 131.608L62.1569 139.608L62.6669 138.688L57.9169 141.418L63.8369 141.758C68.7869 142.048 70.8369 135.648 67.7269 132.368C66.8775 131.489 65.983 130.655 65.0469 129.868V137.608C66.2069 136.608 63.9569 138.118 63.8869 138.208L64.7469 138.028C63.9169 138.118 63.7969 138.178 64.3969 138.208C65.4801 138.411 66.5761 138.538 67.6769 138.588C73.1069 139.218 75.1569 130.668 70.4469 128.338L63.5569 124.918L59.3169 134.978C63.1869 135.978 66.8369 137.408 70.8169 136.498C75.3969 135.438 76.1969 128.668 72.1269 126.438L64.4469 122.248L60.2169 132.248C63.1824 132.987 66.1871 133.558 69.2169 133.958C73.1069 134.438 75.0369 130.078 74.5169 126.958C73.8769 123.178 69.9569 121.368 67.0669 119.338L64.3269 129.708C64.8505 129.67 65.3769 129.713 65.8869 129.838C67.0869 130.388 64.2069 129.438 65.9669 129.918L69.1169 130.808C73.4669 132.038 78.1169 126.808 75.3269 122.728C73.7265 120.314 71.8836 118.069 69.8269 116.028L71.4369 119.918V118.918L63.1669 123.608L71.0069 127.268C76.2169 129.698 82.8269 122.928 77.6669 118.628L73.2269 114.918L67.8469 124.128C70.0141 124.681 72.2742 124.766 74.4769 124.378C78.3769 123.598 79.9869 117.778 76.9069 115.188L71.8469 110.908L69.4169 120.098C71.0969 119.698 66.9269 119.228 68.6369 120.038C69.1414 120.235 69.669 120.366 70.2069 120.428C72.0234 120.732 73.8887 120.378 75.4669 119.428C76.7217 118.689 77.6351 117.486 78.0094 116.079C78.3837 114.671 78.1888 113.173 77.4669 111.908L76.1769 109.978L69.9569 118.058L74.2669 118.818C79.9269 119.818 83.0269 113.998 79.6169 109.628L77.8469 107.398L71.1769 116.028L75.9169 118.188C81.1169 120.548 87.7769 113.888 82.5869 109.548L75.8469 103.928L73.4169 113.118C74.9669 112.878 70.4169 112.328 73.6069 113.278C74.2369 113.468 74.9169 113.548 75.5469 113.728C77.0669 114.148 78.5469 114.728 79.9769 115.298C85.6569 117.468 88.3969 109.858 85.3269 106.108L83.4069 103.758V111.538L84.0569 110.908L78.7069 112.328L81.7069 113.198C86.7069 114.658 91.5069 107.508 87.0569 103.998L79.5569 98.0884L74.2069 107.278L76.4069 107.678C77.225 107.886 78.0794 107.906 78.9066 107.739C79.7338 107.571 80.5126 107.219 81.1851 106.708C81.8576 106.198 82.4065 105.543 82.7911 104.792C83.1758 104.041 83.3862 103.212 83.4069 102.368L83.4969 101.368L76.4969 106.678C78.3469 107.078 80.1569 107.548 81.9869 108.048C87.2669 109.498 91.2469 102.728 87.3369 98.8484C85.8049 97.3666 84.3529 95.8044 82.9869 94.1684L76.3269 102.808L82.3269 105.358C87.5369 107.588 94.1269 101.238 88.9869 96.7184L85.4469 93.6884L80.0969 102.878L84.5969 104.468C89.5969 106.238 94.2869 98.6684 89.9469 95.2784L85.1769 91.6084L79.8469 100.748C82.5679 101.901 85.453 102.62 88.3969 102.878C91.1069 103.018 94.2569 100.228 93.8969 97.3784C93.7074 95.5086 93.1356 93.6978 92.2169 92.0584L86.0069 100.138L89.2769 100.828C95.6669 102.158 98.3869 94.4884 93.5169 90.7684C92.5169 89.9984 91.4269 89.2684 90.4669 88.4484C90.1869 88.2084 88.8569 87.1584 90.4069 88.3284C89.9587 87.8952 89.5535 87.4196 89.1969 86.9084L83.8469 96.0984L87.6569 96.9784C92.4969 98.0984 97.6569 91.4184 93.0069 87.7884C92.393 87.2485 91.7486 86.7443 91.0769 86.2784C88.5769 84.7684 91.2269 87.6484 90.9969 86.6784L85.6969 93.6784L88.0269 93.7884C94.0269 94.0784 94.7769 86.5084 90.8069 83.5484L87.8069 81.2884L83.5669 91.2884C87.5069 92.3984 90.5669 93.4984 94.7069 92.8484C95.6328 92.6122 96.4781 92.131 97.1538 91.4553C97.8295 90.7795 98.3107 89.9343 98.5469 89.0084C99.3069 85.0684 97.7769 83.0084 95.4469 80.0884L91.5569 89.4784L95.5569 89.9684C101.327 90.6684 102.557 82.3584 98.3369 79.7184C96.4069 78.5084 94.5569 77.2984 92.7569 75.9284L88.5169 85.9284L93.6069 86.6184C99.0969 87.4084 104.137 79.4584 97.8469 76.6084L91.6069 73.8084L87.3669 83.8084L94.5669 84.9684C100.197 85.8784 104.897 77.8784 98.8069 74.9684L94.4169 72.8384L91.6469 83.0884L97.3069 83.6084C103.777 84.2084 104.307 74.6984 98.7769 72.8084L89.4069 69.6084L87.9469 80.4384C91.1569 80.4384 94.3169 80.5684 97.5169 80.7484C102.177 80.9984 104.907 74.4784 101.407 71.3584C100.077 70.1784 98.6969 69.1084 97.2669 68.0684L94.4869 78.3184L98.1269 77.9684C100.907 77.7084 103.877 75.6584 103.627 72.4684C103.117 65.9084 98.0369 64.9984 92.6869 63.5884L91.2269 74.3984C95.6669 74.1184 101.337 74.4984 102.827 69.1184C104.497 63.1184 98.4269 61.3484 94.0569 60.3284V70.9284C95.2669 70.4284 96.4769 69.9284 97.6269 69.3284C99.2469 68.4584 96.1969 69.7184 98.2969 68.8484C98.9469 68.5784 99.6669 68.4084 100.297 68.1884C105.397 66.5284 105.657 59.1284 100.297 57.5784C98.5769 57.0917 96.8635 56.5817 95.1569 56.0484L96.4769 66.0984L98.5969 65.0084C102.127 63.1884 102.247 57.2884 98.5969 55.5084C97.0805 54.757 95.5094 54.1219 93.8969 53.6084L96.3269 62.7984L97.2069 61.7984C100.537 57.9984 98.0769 52.9184 93.3169 52.4084L90.3769 52.0884L93.1469 62.3484C96.9569 60.0884 101.457 57.0884 99.2969 51.9784C97.2169 47.0384 91.8469 48.1484 87.7069 48.7084L90.4769 58.9584L97.4769 55.8784C102.587 53.6084 99.7869 45.6084 94.6569 45.6084C91.8798 45.6854 89.1106 45.9426 86.3669 46.3784L90.6069 56.4384L94.6869 53.9484C99.2469 51.2084 97.4869 43.6084 91.9169 43.7284L89.5269 43.7784L95.0269 49.2784V48.3484L93.4069 52.2284C95.1048 50.7844 96.6315 49.1504 97.9569 47.3584C100.757 43.6384 96.0669 37.5784 91.7469 39.2784L84.0069 42.2784L89.3569 51.4684L93.2869 47.3384C93.8678 46.7367 94.306 46.012 94.5691 45.2181C94.8322 44.4242 94.9134 43.5813 94.8068 42.7518C94.7003 41.9223 94.4086 41.1273 93.9534 40.4257C93.4981 39.724 92.891 39.1337 92.1769 38.6984C88.4269 36.1284 84.8069 38.5784 81.1769 40.1484L87.8469 48.8384L90.8469 45.8384C94.5169 42.1484 90.8469 34.6784 85.4969 36.6384C84.7469 36.9184 83.9969 37.2084 83.2369 37.4684C82.4769 37.7284 84.4369 37.4684 82.5969 37.6284L86.4869 47.0184L90.1869 43.0184C94.3169 38.5584 89.0369 31.0184 83.5269 34.3884L78.8469 37.1984H84.4069L83.7569 36.7684L85.7569 44.2884C86.584 42.8776 87.3253 41.4183 87.9769 39.9184C89.6569 35.9884 87.6969 31.9784 83.2269 31.6484L82.1069 31.6084L86.8469 34.2884L86.4269 33.4784C84.6069 30.0184 80.4269 30.3284 77.7869 32.3684L74.6669 34.7884L83.2969 41.4584L84.8469 38.3184C85.4642 37.1644 85.6523 35.8289 85.3777 34.5493C85.103 33.2697 84.3835 32.1289 83.3469 31.3299C82.3104 30.5309 81.0241 30.1255 79.7167 30.1856C78.4093 30.2457 77.1657 30.7676 76.2069 31.6584L73.5269 33.8884L82.1269 40.6084C83.5369 37.6084 84.7769 35.1584 84.9669 31.8184C85.2569 26.8184 78.8669 24.8184 75.5869 27.9284L73.1169 30.2484L82.3169 35.5984L84.6169 29.7084C86.6169 24.5884 78.9269 20.3584 75.4269 24.3584C73.6369 26.3584 71.9169 28.4584 70.2369 30.5884L79.6269 34.4784L79.5069 32.7884C79.1169 27.1584 72.5069 25.5584 69.2569 30.0184L67.3569 32.6084L72.1069 29.8884H71.3669L76.8669 35.3884C76.8669 35.0284 76.9369 33.1484 76.6769 34.3184C76.4569 35.3184 76.6769 34.1084 76.6769 33.9484C76.7969 32.5284 77.1269 31.0884 77.3469 29.6684C77.8469 26.4384 77.7869 24.3184 75.3469 21.7984C72.9069 19.2784 68.2669 19.7984 66.7069 22.9184C66.2869 23.7584 65.8769 24.6084 65.4569 25.4484C64.6669 27.0484 66.1569 25.0984 64.7269 26.2884L74.1169 30.1784L73.8469 26.0084C73.4869 21.1484 66.0169 17.7984 63.5969 23.2384L62.2769 26.1884H71.7769L70.9969 24.7984C68.7869 20.8584 61.8869 21.4084 60.9969 26.1184L59.6269 32.8984L70.4369 34.3684L70.0669 24.8584C69.8369 18.8584 60.6969 17.1084 59.2669 23.3884L58.1769 28.1484L63.4869 24.1484L62.6069 24.0384L67.9169 28.0384L67.0169 25.2284C65.8869 21.7084 60.5269 19.3284 57.8269 22.7984L56.8469 23.9584L66.0469 26.3884L65.0469 22.6684C63.5269 17.0484 56.2969 17.8684 54.4369 22.6684C53.2769 25.6684 53.1069 28.7384 52.7369 31.9184L61.0169 27.1784L60.1069 26.5184L62.6369 29.8084L61.6369 26.5784C59.8769 21.1484 52.9369 21.5784 51.0269 26.5784L50.2369 28.5784L57.0069 24.7384L56.1069 24.4684C55.1701 24.1981 54.1776 24.1874 53.2352 24.4376C52.2929 24.6877 51.4363 25.1891 50.7569 25.8884L49.9169 26.9384L59.1069 29.3684L57.9869 23.6284C56.9869 18.6284 50.3969 18.7584 47.9369 22.3184L47.1169 23.4884L54.6469 21.4884L53.7769 21.0784C52.5048 20.3896 51.0176 20.213 49.6196 20.5848C48.2217 20.9566 47.0187 21.8486 46.2569 23.0784C45.1878 24.9045 44.4275 26.8946 44.0069 28.9684L53.1969 26.6084L52.3069 25.7284C51.4331 24.8943 50.3159 24.3611 49.1179 24.2064C47.9199 24.0517 46.7038 24.2836 45.6469 24.8684C42.4369 26.4084 41.9869 29.3784 41.1069 32.4784L51.9069 33.9484L51.3969 27.7584C50.9169 21.8284 42.2969 19.9884 40.5969 26.2984L39.1769 31.5484L49.9869 33.0184L49.8469 27.2684C49.8237 25.8169 49.2368 24.4314 48.2103 23.4049C47.1838 22.3785 45.7983 21.7916 44.3469 21.7684H43.5169C42.3251 21.7934 41.1716 22.1933 40.2201 22.9114C39.2686 23.6295 38.5677 24.6292 38.2169 25.7684L36.0369 31.9084L46.8469 33.4184L46.6369 30.0484C46.6189 29.0881 46.3524 28.1489 45.8635 27.3223C45.3746 26.4956 44.6799 25.8097 43.847 25.3314C43.0142 24.853 42.0717 24.5986 41.1113 24.5928C40.1509 24.587 39.2054 24.8301 38.3669 25.2984L37.2269 25.8884L45.4669 30.6084L45.1869 28.3784C44.7169 24.6084 40.7569 21.0584 36.9069 23.6384L35.6569 24.4684L43.7369 30.6784L44.5169 26.2984C45.5169 20.4484 37.7569 16.2984 34.5169 22.0584L30.5969 28.8084L40.8469 31.6084C40.7417 30.9943 40.7148 30.3693 40.7669 29.7484C39.9669 32.0084 40.9769 29.6084 41.0369 29.4484C41.5969 28.1484 41.9669 26.7384 42.4169 25.3984C44.5769 19.0384 35.8069 16.5184 32.4169 21.1584L27.8069 27.3684L37.3069 32.9184L41.7569 24.2084C44.4469 18.9484 37.4269 12.5784 33.1169 17.5484L28.1169 23.3584L37.3069 28.7184C37.3268 28.1314 37.4244 27.5497 37.5969 26.9884C36.9969 27.9284 37.2769 27.7784 37.7369 26.9884C38.3669 25.8484 39.1069 24.7484 39.7969 23.6384C42.5169 19.1884 36.7969 12.7684 32.2669 16.1084L28.7569 18.6084L36.2869 26.1384C36.9161 24.7715 37.6482 23.4544 38.4769 22.1984C41.6069 17.4284 35.5569 12.1284 30.9569 14.6784C29.3114 15.4379 27.7239 16.3169 26.2069 17.3084C24.2569 18.8184 29.4069 17.3084 26.8969 17.1584C24.2269 16.9984 29.8969 18.8384 27.2669 17.2784L28.3769 25.9184C32.0769 21.6584 33.2669 17.1284 28.3769 13.1284L27.2869 21.7084L29.1669 20.4484C35.0069 16.5084 29.5069 6.97838 23.6169 10.9484L21.7369 12.2184C19.0669 14.0084 17.7369 18.4484 20.6269 20.8484C21.3033 21.3915 21.9201 22.0049 22.4669 22.6784L20.8469 18.7884L20.7669 19.9284L22.3769 16.0384L20.6069 18.0884C18.3169 20.7284 18.4769 24.8484 21.7169 26.7284C27.1169 29.8684 31.7169 26.7984 36.5069 24.1284L28.9869 16.6084C28.1512 17.8619 27.4156 19.1793 26.7869 20.5484C24.7869 24.9484 29.3969 31.6784 34.3069 28.0684L37.7269 25.5584L30.2069 18.0384C28.6169 20.6184 27.1269 22.7684 26.6069 25.7784C25.7769 30.6084 31.8469 35.6884 35.8469 31.1184L40.8469 25.3084L32.2069 18.6084L27.7569 27.3184C24.4669 33.7484 33.0869 38.4784 37.2569 32.8684L41.8469 26.6884L31.8469 22.4484C30.7369 25.6084 29.7069 28.2084 29.8469 31.6084C30.0669 36.9284 37.2869 39.2684 40.0969 34.3884L43.9669 27.6084L33.9069 23.3984L33.1369 27.7884C32.3669 32.0984 36.8669 36.8984 41.2069 33.9984L42.4569 33.1584L34.1869 28.4084L34.4669 30.6084C34.9769 34.7484 38.7269 37.4584 42.7369 35.3584L43.8469 34.7984L35.5669 30.0484L35.8469 33.4184C35.8883 34.726 36.392 35.9767 37.2684 36.948C38.1449 37.9194 39.3374 38.5485 40.6339 38.7236C41.9305 38.8987 43.2471 38.6085 44.3499 37.9044C45.4526 37.2004 46.2701 36.1282 46.6569 34.8784L48.8269 28.7484L43.5269 32.7484H44.3569L38.8469 27.2684L39.0169 32.9984C39.1969 39.0984 48.1669 40.5884 49.8169 34.4584L51.2369 29.1984L40.3969 27.7384L40.9069 33.9284C41.3969 39.9284 49.9069 41.6384 51.7069 35.3884L52.8469 31.4984L50.3169 34.7784L51.2169 34.3484L44.5469 33.4884L45.4369 34.3684C46.123 35.0341 46.9694 35.5112 47.8941 35.7537C48.8188 35.9961 49.7904 35.9956 50.7149 35.7521C51.6393 35.5087 52.4852 35.0306 53.1706 34.3642C53.856 33.6978 54.3576 32.8656 54.6269 31.9484C54.8369 31.1384 55.0069 30.2984 55.2669 29.5084C55.6769 28.2484 54.6369 30.4384 55.7669 28.6784L48.2369 30.6784L49.0969 31.0884C50.3715 31.7729 51.8586 31.9471 53.2569 31.5757C54.6552 31.2043 55.8599 30.3151 56.6269 29.0884L57.4469 27.9184L47.3669 26.6084L48.4869 32.3484C49.2369 36.1784 55.1569 37.9484 57.6869 34.7784L58.5269 33.7784L53.1769 35.1884L54.0769 35.4584C57.1269 36.3484 59.7869 34.3484 60.8369 31.6084L61.6269 29.6084H51.0169C52.0169 32.6884 52.7269 34.7984 55.4869 36.7784C59.2669 39.4984 63.3369 35.7084 63.7669 32.0284C63.9269 30.6484 64.0469 29.2584 64.2569 27.8784C64.3269 27.4184 64.7369 25.4684 64.3669 27.5484C64.5384 26.8797 64.7763 26.2298 65.0769 25.6084H54.4669L55.4669 29.3284C56.4669 32.9584 62.0269 35.1284 64.6569 31.7584L65.5569 30.6084L56.3669 28.1784L57.2669 30.9984C58.0769 33.5384 60.0469 34.7384 62.5669 34.9984L63.4469 35.1084C65.7169 35.3684 68.2569 33.2184 68.7469 31.1084L69.8469 26.3184L59.0269 24.8584L59.3969 34.3684C59.6269 40.2884 68.9269 42.1684 70.1969 35.8284L71.5569 29.0384L61.5069 30.3484L62.2869 31.7484C64.1469 35.0784 70.0669 35.5784 71.7869 31.7484L73.1069 28.7484L62.8469 26.0084L63.1469 30.1384C63.5069 35.0884 68.8069 37.1384 72.5369 34.0284C74.3869 32.4784 75.1769 30.5584 76.2369 28.4284L67.5969 29.5384L68.4269 30.3984L67.0069 25.0484C66.4769 28.4484 65.6469 31.9084 65.8569 35.3484C65.8899 36.7967 66.48 38.1765 67.5044 39.2009C68.5288 40.2252 69.9086 40.8153 71.3569 40.8484C75.1769 41.0184 76.7769 38.2484 78.7469 35.5184L68.5069 32.7384L68.6269 34.4284C68.9169 38.6184 74.7969 42.4284 78.0069 38.3184C79.6969 36.1884 81.4169 34.1284 83.1969 32.0884L74.0069 26.7384L71.7069 32.6084C69.5869 38.0284 77.2169 41.4184 80.8969 37.9584L83.3569 35.6384L73.9669 31.7484C73.7969 34.7984 75.3669 29.6884 74.0269 32.0184C73.4969 32.9584 73.0969 34.0184 72.6269 35.0184C72.0095 36.1724 71.8214 37.5079 72.0961 38.7875C72.3707 40.0671 73.0903 41.2078 74.1268 42.0068C75.1634 42.8058 76.4497 43.2113 77.757 43.1512C79.0644 43.091 80.3081 42.5692 81.2669 41.6784L83.9469 39.4484L75.3069 32.7784L73.8469 35.9084C71.0069 41.7684 77.5469 46.3684 82.4469 42.6084L85.5769 40.1884L76.9369 39.0684C78.3469 41.7484 80.3469 42.4684 83.2269 42.6884L78.4769 34.4084C77.8232 35.9073 77.082 37.3665 76.2569 38.7784C75.5576 40.0498 75.3752 41.5418 75.7477 42.9442C76.1202 44.3466 77.0189 45.5515 78.2569 46.3084L78.8969 46.7384C79.7376 47.2395 80.6981 47.504 81.6769 47.504C82.6556 47.504 83.6161 47.2395 84.4569 46.7384L89.1769 43.8584L82.5069 35.2284L78.8069 39.2284C75.8069 42.4784 77.6869 48.9684 82.6969 48.6184C84.6973 48.4464 86.6616 47.9814 88.5269 47.2384L83.1469 38.0084L80.1469 41.0584C75.4269 45.7884 81.3769 52.0584 86.8069 49.6984L91.4469 47.6984H85.8469L86.6569 48.2484L85.5469 39.6084L81.6069 43.7384C78.1169 47.4084 81.5569 55.0684 86.9569 52.9384L94.7069 49.9384L88.4969 41.8084C88.2169 42.1684 87.8469 42.9684 87.4369 43.1984C88.8569 42.3984 86.7169 43.4884 86.2169 43.9784C85.4851 44.6468 84.9096 45.4683 84.5311 46.3842C84.1526 47.3002 83.9804 48.2884 84.0269 49.2784C84.0425 50.7322 84.627 52.1221 85.655 53.1502C86.6831 54.1783 88.073 54.7628 89.5269 54.7784L91.9169 54.7284L89.1369 44.4784L85.0469 46.9584C79.3469 50.4184 83.4169 57.8284 89.2869 56.9584C90.4869 56.7884 91.7269 56.5284 92.9369 56.4484C90.9369 56.5884 93.9369 56.5784 94.6569 56.5784L91.8469 46.3784L84.8469 49.4584C80.0169 51.5984 82.2869 60.4584 87.6269 59.7084L90.8469 59.2784C91.1669 59.2784 92.1669 59.2784 92.4269 59.0684C93.1569 58.4784 90.2669 58.1884 91.4269 58.8484L88.7069 54.0984V55.0184L91.4269 50.2684C90.1611 51.1939 88.8494 52.055 87.4969 52.8484C82.4969 55.8484 85.1169 62.5384 90.2769 63.0984L93.2169 63.4184L89.3269 54.0284L88.4469 55.0284C87.7872 55.7186 87.3157 56.5665 87.0773 57.491C86.839 58.4155 86.8419 59.3857 87.0857 60.3088C87.3295 61.2319 87.8061 62.077 88.4699 62.7632C89.1337 63.4495 89.9624 63.954 90.8769 64.2284C91.4043 64.436 91.9456 64.6064 92.4969 64.7384C91.3469 64.5784 92.2969 64.6684 92.9869 65.0084V55.5084L90.9669 56.6084C86.5669 58.8684 87.9669 65.3284 92.2769 66.6084C93.9835 67.1417 95.6969 67.655 97.4169 68.1484V57.6084C95.8815 57.9966 94.3852 58.5255 92.9469 59.1884C92.5569 59.4084 91.3169 60.4184 92.7769 59.6584C92.2569 59.9284 91.6769 60.1284 91.1269 60.3584C86.5969 62.2584 85.2569 69.5884 91.1269 70.9584L95.7169 72.0284L91.8469 68.1584L92.1969 69.1584L92.7469 64.9184L92.0969 65.7984L96.8469 63.0384L91.1969 63.3984C85.1969 63.7684 83.4669 72.5584 89.7269 74.1984C90.9769 74.5284 92.2369 74.9284 93.4969 75.1984C94.1385 75.3132 94.7703 75.4771 95.3869 75.6884C95.3869 75.6884 92.2069 73.3484 94.1369 75.3984L92.5469 71.4984L92.6269 72.4984L98.1269 66.9984L94.4869 67.3484C88.8969 67.8784 87.2069 74.2984 91.7169 77.5884C92.4089 78.0443 93.0493 78.5741 93.6269 79.1684L97.5169 69.7784C94.3169 69.5984 91.1569 69.4584 87.9469 69.4684C81.5769 69.4684 80.7069 78.3184 86.4869 80.2784L95.8469 83.4184L97.3069 72.6084L91.6469 72.0884C86.2669 71.6084 84.0769 80.0084 88.8469 82.3384L93.2369 84.4684L97.4969 74.4084L90.2969 73.2484C84.7169 72.3484 79.8769 80.5184 86.0569 83.3084L92.2969 86.1184L96.5369 76.0684L91.4469 75.3784C85.2069 74.5384 82.0869 81.5284 87.2069 85.4384C89.0169 86.8084 90.8669 88.0184 92.7869 89.2284L95.5669 78.9784L91.5669 78.4884C86.2669 77.8484 85.0869 84.6584 87.6769 87.8784C88.7869 89.2684 87.8569 88.0284 88.6769 89.4084L88.1169 85.1684L87.9369 86.0884L91.7769 82.2484C88.5969 82.7584 92.8469 82.3384 92.8369 82.4784C92.8369 82.4284 90.8369 81.9084 90.6069 81.8484L86.4469 80.6884C80.0469 78.8884 77.4469 87.2084 82.2169 90.7484L85.2169 92.9984L87.9869 82.7484L85.6769 82.6084C81.9669 82.4284 79.5969 86.2584 80.3669 89.6084C81.0769 92.6084 82.9269 93.7984 85.2069 95.6084L90.5569 86.4084L86.7469 85.5284C81.1969 84.2384 77.8669 90.5784 81.3969 94.7184C83.3695 96.8154 85.5659 98.6899 87.9469 100.308L92.1769 90.3084L88.9069 89.6284C87.8711 89.3878 86.7881 89.4487 85.7858 89.804C84.7835 90.1592 83.9039 90.7939 83.2508 91.6331C82.5977 92.4723 82.1985 93.481 82.1004 94.5398C82.0022 95.5986 82.2092 96.6634 82.6969 97.6084C84.1869 100.298 82.6969 95.6084 82.8769 97.3684L88.3769 91.8684C87.7988 91.9157 87.2169 91.8854 86.6469 91.7784C88.3669 92.7784 86.9569 91.7184 86.4769 91.4884C85.2623 90.9684 84.0205 90.5144 82.7569 90.1284C77.7569 88.3284 73.0769 95.9484 77.4069 99.3284L82.1669 103.048L87.5169 93.8584L83.0169 92.2684C77.8869 90.4484 73.6169 97.8884 77.6669 101.458L81.1569 104.528L87.8469 95.8984L81.8469 93.3484C76.0969 90.8884 71.0769 96.9684 75.1769 101.988C76.5429 103.624 77.9949 105.187 79.5269 106.668L84.8469 97.4784C83.0269 96.9784 81.2069 96.4784 79.3569 96.1084C75.6169 95.2784 72.7569 97.7584 72.3569 101.408L72.2669 102.408L79.2669 97.1084L77.0669 96.7084C72.3269 95.8584 66.9369 102.138 71.7169 105.898L79.2169 111.818L84.5969 102.608L81.5969 101.738C80.6596 101.486 79.6726 101.483 78.734 101.731C77.7955 101.978 76.938 102.467 76.2469 103.148L75.5969 103.778C73.2969 105.988 73.7469 109.288 75.5969 111.558L77.5169 113.908L82.8669 104.708C78.7669 103.148 74.8669 101.858 70.4569 102.528C66.4569 103.138 65.0469 109.218 68.0369 111.728L74.8469 117.328L81.5169 108.688L76.7669 106.538C70.9169 103.878 66.2269 110.198 70.1069 115.168L71.8469 117.418L77.1969 108.218L72.8969 107.458C68.5969 106.708 63.7569 111.198 66.6869 115.538L67.9869 117.468L69.9869 109.938L69.1069 110.418L73.3369 109.858C71.1511 109.147 68.8172 109.019 66.5669 109.488C62.7469 110.388 60.9769 116.018 64.1369 118.678L69.2269 122.958L71.6569 113.768C69.7869 114.138 73.8369 114.628 72.5269 113.848C71.9905 113.666 71.4323 113.555 70.8669 113.518C65.9969 112.518 60.9469 118.888 65.5169 122.708L69.8469 126.418L76.5169 117.778L68.6869 114.118C64.9769 112.388 60.4469 114.418 60.4069 118.868C60.4069 121.638 61.4069 123.248 63.3369 125.078C65.0669 126.728 63.5769 125.078 64.4669 126.338C64.9169 126.978 65.3369 127.638 65.7869 128.278L71.9969 120.198C69.4825 119.448 66.8998 118.949 64.2869 118.708C58.3669 118.228 57.4769 126.128 61.5069 128.958L66.2669 132.298L63.7369 129.008L63.9069 130.008L69.2169 123.008C68.6203 123.004 68.0263 122.93 67.4469 122.788C65.5569 121.938 68.9369 123.138 67.1969 122.678C65.8369 122.328 64.4669 122.018 63.0969 121.678C57.1969 120.248 53.2269 128.678 58.8569 131.678L66.5369 135.878L67.8469 125.928C65.1469 126.548 69.9369 126.808 68.8469 126.098C68.1477 125.819 67.4147 125.634 66.6669 125.548L62.1669 124.408C56.3269 122.928 52.1669 131.598 57.9269 134.408L64.8169 137.828L67.6769 127.608C63.6769 127.138 60.5169 126.958 57.2669 129.848C55.1769 131.708 55.1069 135.778 57.2669 137.628C58.2054 138.412 59.1001 139.247 59.9469 140.128L63.8469 130.758L57.9269 130.418C56.9652 130.411 56.0187 130.658 55.1841 131.136C54.3495 131.614 53.6568 132.305 53.1769 133.138L52.6669 134.058C52.2552 134.789 52.0139 135.603 51.961 136.441C51.908 137.278 52.0448 138.116 52.3611 138.893C52.6774 139.67 53.1651 140.365 53.7877 140.927C54.4103 141.489 55.1518 141.903 55.9569 142.138L62.7369 144.138L59.4469 136.058C58.9169 137.238 60.2569 135.368 59.3269 136.488L63.2169 134.878L57.2169 135.348C51.5169 135.788 49.2169 145.248 55.7469 146.148L65.3569 147.468L61.5169 140.698L61.3469 141.428L65.1269 137.608C61.9769 138.928 58.5169 139.138 55.1269 139.668C49.7569 140.508 49.9869 149.238 55.1269 150.268L58.6669 150.988L54.8469 144.218L54.6169 145.218C54.3995 146.036 54.3714 146.893 54.5347 147.724C54.698 148.554 55.0484 149.336 55.5593 150.011C56.0702 150.686 56.7282 151.236 57.4832 151.618C58.2383 152 59.0706 152.206 59.9169 152.218L65.3169 152.318L59.8169 146.818L59.7469 147.618L63.7469 142.318L57.2269 144.588C51.7869 146.478 52.1469 156.208 58.6869 155.388L66.3069 154.388L63.5269 144.138L59.1969 146.208C58.3542 146.678 57.6555 147.368 57.1762 148.205C56.6969 149.042 56.4551 149.994 56.4769 150.958C56.7769 153.958 58.0969 156.958 61.3169 157.888C63.4269 158.468 66.2469 157.538 68.3169 157.178L64.1669 147.108L57.6869 150.848C53.2169 153.428 54.8369 159.208 58.9969 160.848C60.7556 161.554 62.7156 161.572 64.4869 160.898C65.6795 160.622 66.8393 160.22 67.9469 159.698C70.3869 158.318 66.1969 159.218 67.4169 159.518L66.0969 149.468L59.0969 154.638C56.5669 156.508 54.9569 160.838 57.9869 163.278C61.6269 166.198 64.6369 165.548 68.8569 164.378L62.0869 157.608L61.8069 158.938C61.4269 160.758 61.6869 163.018 63.2169 164.298L63.9269 164.878L63.0669 158.218L62.2369 160.148C60.3069 164.628 64.6769 171.148 69.7569 167.668L74.9269 164.148L68.2369 155.608C65.7269 158.748 63.2369 161.418 62.0069 165.268C60.7769 169.118 64.8769 173.328 68.7769 172.028L70.7769 171.378L64.0069 167.538L64.2769 168.678C65.2769 172.858 70.5569 173.808 73.4669 171.108L79.1569 165.818L70.5169 159.148L67.7669 163.848C64.5869 169.298 71.9069 174.848 76.4069 170.518L80.6369 166.468L71.4469 161.118C71.3269 161.488 70.4469 164.308 71.1669 162.378C70.8069 163.308 70.3169 164.208 69.9069 165.128C69.0596 166.999 68.5614 169.009 68.4369 171.058C68.0769 175.588 74.8769 178.638 77.8169 174.948L83.5069 167.828L74.8469 161.108L70.9269 169.038C70.3032 170.193 70.1103 171.531 70.3825 172.814C70.6547 174.098 71.3744 175.243 72.4129 176.044C73.4514 176.846 74.7411 177.253 76.0516 177.191C77.3621 177.129 78.6081 176.604 79.5669 175.708L81.7369 173.878L72.3569 169.988L72.0369 172.398C71.3269 177.768 78.2269 178.768 81.4269 176.288C83.8969 174.368 85.5169 171.868 87.4269 169.368L77.3769 168.048C77.8769 169.318 78.3769 164.628 77.3769 167.738C77.1369 168.498 76.9869 169.298 76.8069 170.078C76.4469 171.568 76.1269 173.078 75.8069 174.568C74.9669 178.278 77.4669 181.208 81.1169 181.568L82.1169 181.658C83.0803 181.659 84.0265 181.402 84.8579 180.915C85.6892 180.429 86.3758 179.729 86.8469 178.888L90.8469 171.768L80.7969 167.528L79.4769 173.158C78.0969 179.078 86.3969 183.018 89.5369 177.398L92.5369 172.088L82.5369 167.848L80.4069 176.268C79.6069 179.468 82.0369 183.568 85.7169 183.268L86.7169 183.168L82.8269 181.558L83.6069 182.228C86.2069 184.438 90.4269 184.428 92.2469 181.118L94.4969 177.028L86.9669 179.028L87.7669 179.478L85.2369 176.188L85.7269 177.768C87.0669 182.068 93.4869 183.438 95.7269 179.078C96.1869 178.218 96.6269 177.338 97.0969 176.488C97.5669 175.638 96.7569 176.628 97.9569 175.148L92.6069 176.558L93.4069 176.778L90.1169 174.248C91.5469 177.018 93.2969 177.848 96.3069 178.248L90.8069 172.748C90.6669 176.978 90.2369 179.748 93.0069 183.328C94.8569 185.698 98.8669 185.198 100.787 183.328C103.117 181.048 103.787 178.328 104.857 175.328H94.1469L94.7769 177.138C96.1669 181.138 102.777 183.138 104.837 178.448L105.987 175.838L95.7369 173.068L96.1369 177.838C96.6169 183.748 105.267 185.628 106.937 179.298L108.217 174.468L98.1669 175.778L98.9169 176.998C99.6685 178.242 100.874 179.146 102.278 179.519C103.683 179.892 105.177 179.705 106.447 178.998L107.317 178.498L99.2369 175.208C99.5071 177.795 100.023 180.35 100.777 182.838C101.027 183.757 101.513 184.595 102.187 185.269C102.86 185.942 103.698 186.428 104.617 186.678L105.547 186.868C109.367 187.608 112.057 185.278 112.547 181.558L113.097 177.008C113.28 176.279 113.37 175.53 113.367 174.778C113.367 174.518 111.977 178.098 113.487 176.028L103.487 174.718L104.487 178.418C105.877 183.808 113.487 183.498 115.087 178.418C115.338 177.734 115.552 177.036 115.727 176.328C115.517 177.448 115.727 176.328 116.047 175.768L106.047 174.458L107.457 182.068C108.187 186.068 114.027 187.458 116.647 184.498C118.557 182.328 119.007 180.568 119.487 177.818H108.697L110.167 182.608C112.007 188.798 120.427 187.178 120.967 181.138L121.357 176.878L111.107 179.648L112.457 182.648C114.717 187.728 122.867 185.048 122.707 179.868L122.467 172.748L111.667 174.208L113.877 181.728C115.137 186.038 119.877 186.658 123.067 184.158C125.067 182.598 125.357 180.808 125.727 178.478L120.417 182.478C121.836 182.677 123.281 182.571 124.657 182.168C127.657 180.898 128.977 178.688 128.497 175.398L127.497 168.828L126.087 174.178C126.487 173.718 126.887 173.288 127.327 172.868L123.487 174.608L124.327 174.668L119.577 171.948L121.987 176.148C124.497 180.538 132.987 179.008 132.237 173.378L131.757 169.848L121.507 172.608L125.137 179.118C128.137 184.478 137.137 180.888 135.197 174.878L132.457 166.488L123.267 171.838L125.417 174.568C129.237 179.418 135.327 173.888 134.607 169.218L134.197 166.568L124.197 170.808C126.037 173.258 127.627 175.648 130.047 177.538C133.047 179.878 136.387 179.538 138.687 176.418C139.429 175.39 139.922 174.203 140.125 172.952C140.328 171.7 140.236 170.418 139.857 169.208C139.627 168.348 139.307 167.498 139.027 166.658C138.817 166.058 138.717 165.338 138.447 164.758C138.837 165.588 138.507 165.468 138.447 164.508L129.057 168.398L134.637 174.088C138.257 177.778 145.907 174.028 143.827 168.738L142.777 166.038L134.697 172.258L136.777 173.258C137.725 173.771 138.801 173.998 139.876 173.912C140.95 173.826 141.977 173.431 142.831 172.774C143.686 172.117 144.332 171.227 144.691 170.211C145.051 169.195 145.108 168.096 144.857 167.048C144.777 166.588 144.767 165.218 144.857 166.308C144.882 165.119 144.625 163.94 144.107 162.868C143.398 161.719 142.605 160.623 141.737 159.588L134.207 167.118C136.928 168.857 139.811 170.327 142.817 171.508C148.337 173.618 151.497 166.038 148.167 162.318C147.087 161.108 145.997 159.918 144.937 158.698C144.447 158.148 143.937 157.588 143.467 156.998C142.377 155.548 143.857 157.818 142.937 155.938L136.727 164.018C139.907 165.018 142.917 166.258 145.997 167.518C147.757 168.228 150.087 167.358 151.347 166.098C154.467 162.978 154.597 158.408 150.987 155.618C149.177 154.218 147.087 153.088 145.177 151.848L142.397 162.088L144.127 161.948C148.387 161.598 151.997 155.948 148.017 152.558L145.677 150.608L140.327 159.798C143.004 160.503 145.759 160.872 148.527 160.898C149.719 160.873 150.872 160.473 151.824 159.755C152.775 159.037 153.476 158.038 153.827 156.898L154.087 156.038C154.395 154.869 154.315 153.631 153.859 152.511C153.402 151.391 152.595 150.449 151.557 149.828L146.397 146.828L145.077 156.828C145.995 156.485 146.942 156.224 147.907 156.048C152.037 155.228 153.117 149.608 150.337 146.848L147.067 143.648L145.957 152.288C147.027 151.688 143.577 151.898 145.357 152.598C146.045 152.759 146.75 152.839 147.457 152.838C152.027 153.368 154.957 146.328 151.347 143.448L148.557 141.238L143.207 150.428C147.677 151.818 151.137 153.138 155.847 152.218C160.367 151.338 160.557 145.968 158.277 143.028L157.117 141.528L153.227 150.918L155.127 151.148C161.247 151.888 161.607 143.728 157.897 140.898L150.847 135.498L146.587 145.608L150.527 147.118C155.957 149.198 159.357 141.618 155.877 137.918L152.347 134.178L151.237 142.808L152.997 141.498H147.447C149.927 143.218 152.387 144.938 154.977 146.498C159.837 149.388 165.077 143.708 162.507 138.968C162.064 138.268 161.666 137.54 161.317 136.788C161.157 136.368 161.527 137.468 161.317 135.848L153.237 142.058C153.547 142.268 155.917 143.888 154.337 142.688C154.977 143.178 155.577 143.748 156.197 144.268C159.887 147.408 167.667 144.518 165.387 138.918L163.717 134.818L154.527 140.168C156.025 141.864 157.913 143.172 160.027 143.978C163.447 145.188 167.027 142.038 167.027 138.678C166.893 135.88 166.427 133.107 165.637 130.418L155.637 134.658L158.127 138.768C161.057 143.578 168.067 141.358 168.377 135.988C168.377 135.748 168.537 133.388 168.427 134.528C168.317 135.668 168.607 133.448 168.637 133.208L158.587 134.518L160.217 137.288C162.877 141.798 170.787 140.098 170.467 134.508L170.137 128.838L159.337 130.308L161.447 136.668C161.834 137.918 162.651 138.99 163.754 139.694C164.857 140.398 166.173 140.689 167.47 140.514C168.766 140.339 169.959 139.709 170.835 138.738C171.712 137.767 172.215 136.516 172.257 135.208L172.527 131.368L162.277 134.138L163.347 136.608C165.537 141.288 171.927 139.298 173.397 135.288L174.097 133.398H163.487C164.011 135.623 164.803 137.775 165.847 139.808C167.967 143.648 175.127 143.278 175.897 138.488L176.767 133.058L166.767 134.368C167.087 134.888 167.347 136.008 167.137 134.688C167.278 135.272 167.465 135.844 167.697 136.398C168.267 138.098 169.637 139.928 171.547 140.238L172.327 140.368C174.127 140.668 176.417 140.558 177.677 138.958C178.904 137.4 179.975 135.725 180.877 133.958L170.627 131.188L170.117 137.688C169.587 144.338 178.837 144.498 180.917 139.158C181.497 137.658 182.057 136.158 182.657 134.678C182.947 133.968 183.657 133.078 182.767 134.488C183.257 133.718 183.767 132.978 184.287 132.218L174.287 130.898C174.907 134.228 176.137 135.898 179.397 137.148L175.397 131.848L175.487 134.118C175.677 138.688 181.487 141.618 184.877 138.008L186.737 136.008L177.547 130.658L176.057 135.608C174.637 140.778 181.457 145.048 185.257 140.958L187.417 138.638L183.527 140.248H184.527L179.227 133.248L177.597 137.628C175.887 142.208 181.787 146.198 185.677 143.838C186.644 143.236 187.645 142.691 188.677 142.208L181.147 134.678L179.347 138.548C176.727 144.118 183.167 149.548 187.977 145.208L191.337 142.208L182.147 139.778L182.397 140.838C183.397 145.178 188.577 145.758 191.587 143.258L195.957 139.638L187.317 132.978L184.867 137.048C182.447 141.048 186.477 146.568 191.077 145.128L192.877 144.578L186.107 140.728L186.317 141.818C187.017 145.478 191.487 146.618 194.397 145.098L197.557 143.458L190.027 135.938C189.765 136.498 189.464 137.04 189.127 137.558C188.127 138.888 189.697 136.988 189.127 137.778C188.367 138.858 187.457 139.848 186.627 140.878C183.117 145.208 186.377 151.078 191.977 150.068L193.697 149.758L188.407 140.608L186.027 143.428C182.737 147.328 185.737 154.428 191.377 152.628C194.671 151.463 197.871 150.045 200.947 148.388L194.277 139.748L191.157 142.888C187.527 146.548 191.157 154.138 196.507 152.088L201.147 150.298L196.907 140.248L188.987 145.938C184.217 149.368 186.847 157.938 193.227 155.988C195.517 155.215 197.896 154.735 200.307 154.558L196.417 145.168L194.477 147.168C191.227 150.418 193.477 156.778 198.357 156.558L200.837 156.438L198.067 146.188L192.847 149.308C187.527 152.568 190.987 160.888 197.087 159.358L203.317 157.808L199.077 147.808L192.947 151.058C189.637 152.818 189.607 157.158 191.827 159.698C192.588 160.543 193.5 161.239 194.517 161.748L191.847 156.948V157.808C191.847 160.558 194.347 163.618 197.347 163.308L202.257 162.808L199.467 152.608C197.192 153.532 195.012 154.674 192.957 156.018C189.057 158.778 189.747 167.018 195.727 166.268L204.807 165.148C211.747 164.288 211.807 153.278 204.807 154.148L204.847 154.098Z" fill="#991111"/>
</svg>
