<svg width="110" height="97" viewBox="0 0 110 97" fill="none" xmlns="http://www.w3.org/2000/svg">
<path d="M103.844 78.7035L102.064 76.8635C98.864 73.5635 92.404 75.9435 92.674 80.7535L92.804 83.1935L102.194 79.3035L100.534 77.6935C97.864 75.0835 91.984 75.8435 91.344 80.1135L91.104 81.7535L94.944 77.9135L94.114 78.2035L98.354 78.7535C97.798 78.5627 97.2945 78.2441 96.884 77.8235C94.144 75.4435 88.324 75.8235 87.694 80.2435L87.444 82.0035L96.634 79.5735L95.054 77.7035C92.124 74.2535 85.124 76.9035 85.664 81.5935L86.114 85.5935L93.114 80.2835C91.484 79.9935 95.664 82.4035 93.334 80.5635C89.424 77.4935 84.494 79.5035 83.944 84.4535L83.684 86.7935L93.074 82.9035C92.3196 82.0218 91.6811 81.0472 91.174 80.0035C90.6063 79.0981 89.7906 78.3747 88.8239 77.9194C87.8571 77.4641 86.7799 77.2959 85.7203 77.4349C84.6608 77.574 83.6634 78.0143 82.8469 78.7037C82.0303 79.393 81.4288 80.3023 81.114 81.3235C80.5197 83.4146 80.1839 85.5707 80.114 87.7435L90.364 84.9635L89.044 82.1035C88.5664 81.268 87.8743 80.5753 87.0391 80.0971C86.204 79.6188 85.2563 79.3725 84.294 79.3835H83.454C82.2593 79.4018 81.1013 79.7991 80.147 80.518C79.1926 81.2369 78.4913 82.2403 78.144 83.3835L77.434 85.6935H88.044L87.044 82.5735C86.7279 81.553 86.1255 80.6446 85.3084 79.9563C84.4912 79.2681 83.4937 78.8289 82.4342 78.6909C81.3748 78.553 80.2981 78.7221 79.3319 79.1781C78.3658 79.6341 77.5508 80.3579 76.984 81.2635C75.9911 82.965 75.1767 84.7645 74.554 86.6335H85.164C84.774 85.3935 84.354 84.2335 83.894 83.0235C83.6709 82.481 83.4773 81.9269 83.314 81.3635C81.714 76.6035 76.064 76.2535 73.264 80.0535C72.264 81.3935 71.314 82.7435 70.364 84.1135L75.114 81.3835L74.034 81.4635L79.534 86.9635C79.714 85.1835 79.894 83.4135 79.994 81.6235C80.204 78.1935 76.294 75.1935 72.994 76.3235C70.8101 77.2055 68.7169 78.2972 66.744 79.5835L74.824 82.8735C74.6215 81.1582 73.7566 79.59 72.414 78.5035L73.824 83.8635C74.214 82.8157 74.4302 81.7111 74.464 80.5935C74.184 79.0835 73.234 83.2835 74.464 80.3935C76.464 75.8435 73.224 71.4835 68.254 72.3135C67.944 72.3735 66.404 72.8435 67.334 72.4535C68.034 72.1635 66.994 72.3335 66.664 72.3035L71.414 80.5835L73.014 78.4735C75.264 75.4735 72.764 71.3335 69.734 70.3935C66.984 69.5435 64.794 70.3935 62.144 71.1035L67.494 80.2935L70.764 77.5635C75.154 73.9035 70.414 67.0435 65.414 68.3735L60.824 69.5835L67.034 77.6635C67.704 76.1035 66.894 77.4235 67.204 77.0735C67.7166 76.5691 68.261 76.0982 68.834 75.6635C72.514 72.4735 69.484 66.2535 64.944 66.2735H62.334L67.634 70.2735C67.4053 69.2823 67.0133 68.336 66.474 67.4735C65.734 66.1235 66.174 67.0835 65.844 66.3935L63.844 73.9135L67.044 72.1935C72.044 69.4935 69.464 62.1935 64.274 61.9435L60.904 61.7835L63.734 72.0535L66.574 70.5635C70.104 68.7235 70.214 62.8835 66.574 61.0635L65.254 60.4135L66.374 69.0535L67.544 67.9735C70.164 65.5635 69.394 61.0435 66.434 59.3335C64.5612 58.2545 62.5929 57.3507 60.554 56.6335V67.2435L65.414 65.8535C70.554 64.3835 70.744 56.6135 65.414 55.2435L62.844 54.5835L64.164 64.6335L66.304 63.5735C70.424 61.5735 69.544 54.4235 64.984 53.5235C64.164 53.3535 63.324 53.2335 62.504 53.0335C61.234 52.7135 63.404 53.7035 61.654 52.5835V62.1135L63.444 61.1135C64.1611 60.6807 64.7712 60.0915 65.2287 59.3899C65.6861 58.6883 65.9792 57.8924 66.0859 57.0616C66.1927 56.2309 66.1103 55.3867 65.845 54.5922C65.5798 53.7978 65.1384 53.0735 64.554 52.4735L63.724 51.6135L62.614 60.2535C63.8753 59.7165 65.0755 59.0461 66.194 58.2535C69.134 56.1435 70.354 50.5635 66.194 48.7535L64.394 47.9735L66.924 54.1835L67.194 53.3135C67.4575 52.3747 67.4647 51.3824 67.215 50.4398C66.9653 49.4972 66.4677 48.6387 65.774 47.9535L64.894 47.1335L62.464 56.3235L64.804 55.3235C69.414 53.4035 70.614 46.1735 64.804 44.7135L61.904 43.9835L65.754 50.7535L66.044 49.8735C67.044 46.9535 64.904 43.9835 62.204 43.1035L59.894 42.3535L61.204 52.4035L63.304 51.4035C66.684 49.8535 66.594 45.1535 64.414 42.7635C63.894 42.1935 63.354 41.6535 62.784 41.1135L61.674 49.7535L63.974 48.7535C66.104 47.8535 67.174 44.6335 66.504 42.5435C66.1944 41.441 65.637 40.4237 64.8745 39.5693C64.1119 38.7149 63.1643 38.046 62.104 37.6135L60.734 47.7335L63.244 46.7335C67.484 45.0635 68.914 39.2835 64.554 36.7335L63.214 35.9335L64.324 44.5635C65.1838 43.901 65.8703 43.0401 66.3248 42.0544C66.7794 41.0687 66.9884 39.9876 66.934 38.9035L65.324 42.7935L66.224 41.8835C68.624 39.4735 68.284 34.8835 65.114 33.2435C63.2168 32.2854 61.1984 31.589 59.114 31.1735V41.7835L62.384 40.7835C66.744 39.4235 67.994 33.0835 63.704 30.7335C62.484 30.0635 63.094 30.5035 62.594 29.9635L64.214 33.8535V32.9935L62.604 36.8735C63.5207 35.9832 64.3357 34.9938 65.034 33.9235C66.964 31.0035 65.034 26.6535 61.744 25.8435L58.904 25.1535L62.194 33.2335C63.194 31.9135 60.484 33.7735 61.474 33.9535C61.704 33.9535 62.474 33.3735 62.704 33.2535C66.604 31.0235 65.884 26.1235 62.704 23.7535L61.704 22.9835L62.824 31.6235L64.034 30.5635C67.224 27.8035 65.404 22.4035 61.614 21.3735L59.614 20.8235L60.924 30.8235L64.094 29.2835C69.414 26.7035 66.264 19.4235 61.314 19.0335L58.314 18.8035L62.204 28.1935L63.484 26.9135C65.834 24.5935 65.604 19.8235 62.374 18.2735C61.1474 17.6816 59.8849 17.1672 58.594 16.7335L61.024 25.9235L62.874 24.1335C67.194 19.9635 62.554 14.1335 57.524 14.9435C56.9271 14.9807 56.3348 15.0711 55.754 15.2135C53.754 15.9535 58.534 15.5435 56.624 15.1035L60.624 20.4135C60.564 19.9035 60.334 21.0035 60.944 19.4935C62.424 15.8135 57.944 11.1735 54.174 12.7235L51.994 13.6435L58.754 20.4035C59.1125 18.964 59.3368 17.4944 59.424 16.0135C59.4135 14.558 58.8307 13.1652 57.8015 12.136C56.7723 11.1068 55.3794 10.524 53.924 10.5135C51.9899 10.5927 50.112 11.1865 48.484 12.2335L56.764 16.9835C56.764 15.2435 56.634 16.6535 56.694 16.1135C56.784 15.2735 56.994 14.4435 57.144 13.6135C57.4326 12.4439 57.3433 11.2128 56.8887 10.0971C56.4342 8.98141 55.6378 8.03841 54.614 7.4035C54.034 7.0535 53.454 6.7235 52.864 6.4035C50.934 5.3335 47.714 5.4035 46.204 7.2635L44.494 9.4235L53.684 11.8535L53.374 9.5735C52.744 4.9835 45.204 4.1635 43.374 8.2635L41.444 12.4635H50.944L50.324 11.4635C48.954 9.1435 45.174 7.6635 42.794 9.4635L41.844 10.2035L48.504 11.0635C46.504 9.4435 48.444 11.1435 48.314 11.4235C48.574 10.8535 47.904 9.0135 47.794 8.3535C46.974 3.5035 39.984 3.2635 37.794 7.0435L36.794 8.7535H46.294C45.7854 7.69538 45.0705 6.74956 44.1913 5.97163C43.312 5.19371 42.2862 4.59936 41.174 4.2235C40.2389 3.94298 39.2444 3.9262 38.3004 4.175C37.3563 4.42381 36.4993 4.92853 35.824 5.6335C35.224 6.3735 34.634 7.1135 34.054 7.8535L40.714 6.9935C40.1216 6.58256 39.4922 6.2277 38.834 5.9335C35.904 4.6135 31.454 5.3935 30.754 9.2135L30.194 12.3035L34.034 8.4635L33.194 8.59351L38.544 10.0135C38.034 9.5335 37.814 8.8135 38.234 9.8635C37.9398 9.23289 37.6058 8.62165 37.234 8.0335C34.714 3.4835 28.854 5.25351 27.234 9.34351L26.584 10.9235L34.664 7.6435L33.664 7.02351C29.934 4.74351 25.604 7.74351 25.384 11.7735L25.194 15.3935L27.914 10.6435C26.484 11.4135 30.664 10.2835 29.074 10.3335L33.824 13.0535C32.8942 11.0104 31.6378 9.13244 30.104 7.4935C28.104 5.4935 24.234 5.2335 22.324 7.4935C19.914 10.3435 19.634 13.0735 19.464 16.6735L28.854 12.7835L27.924 11.9135C28.364 12.5735 28.414 12.6735 28.084 12.2135C27.754 11.7535 27.234 11.0635 26.814 10.4935C23.574 6.1235 16.974 7.57351 16.564 13.2735L16.404 15.5335L18.014 11.6435C17.1143 12.4041 16.3443 13.3058 15.734 14.3135L23.254 12.3135L22.064 11.6135C19.264 9.9835 14.584 11.3235 13.984 14.9035L13.714 16.5235L23.734 15.2435L21.344 11.8435C20.8425 11.0352 20.143 10.3683 19.3118 9.90584C18.4806 9.44336 17.5452 9.20064 16.594 9.20064C15.6428 9.20064 14.7073 9.44336 13.8761 9.90584C13.0449 10.3683 12.3454 11.0352 11.844 11.8435C11.1055 12.9637 10.6146 14.2285 10.404 15.5535C10.404 15.8135 9.91396 18.2535 10.154 18.4035C9.68396 18.1135 11.514 15.5535 10.534 16.4035L17.204 15.5435C15.664 14.8335 16.974 15.6735 16.574 15.3835C16.014 14.9635 15.574 14.3835 15.004 13.9235C11.334 10.5235 6.00396 13.0935 5.62396 17.8135L5.48396 19.3935L13.764 14.6435L12.114 13.6435C6.11396 9.8335 0.603964 19.3535 6.56396 23.1435L8.21397 24.1435C11.994 26.5435 16.154 23.3235 16.484 19.3935L16.624 17.8135L7.23396 21.7035C8.5137 23.0495 10.0072 24.1747 11.654 25.0335C12.7154 25.6016 13.9277 25.8241 15.1217 25.6699C16.3156 25.5157 17.4317 24.9926 18.314 24.1735C19.7221 23.0192 20.6839 21.4103 21.034 19.6235C21.034 19.4935 21.294 16.8635 21.144 17.8035C21.144 17.7135 21.064 17.8035 21.344 17.4135H11.844L14.234 20.8035C16.644 24.2335 23.434 24.5935 24.234 19.4935L24.504 17.8635L16.484 21.1135L17.674 21.8035C18.942 22.5181 20.4391 22.7089 21.8458 22.3353C23.2525 21.9616 24.4576 21.0531 25.204 19.8035C26.3614 17.7608 27.096 15.506 27.364 13.1735L17.114 15.9535C18.2296 17.5693 19.4916 19.079 20.884 20.4635C21.664 21.2018 22.6412 21.6984 23.6974 21.8932C24.7537 22.088 25.8437 21.9727 26.8358 21.5613C27.828 21.1498 28.6797 20.4598 29.288 19.5747C29.8964 18.6896 30.2354 17.6472 30.264 16.5735C30.264 16.1435 30.174 14.0535 30.334 14.6435C30.064 13.6435 29.464 15.6435 29.904 15.1735H22.124L23.034 16.1035C22.514 15.3535 22.484 15.3635 22.924 16.1035C23.364 16.8435 23.724 17.6835 24.124 18.4635C24.6042 19.2974 25.2967 19.9892 26.131 20.4688C26.9653 20.9483 27.9117 21.1983 28.874 21.1935C34.874 21.0035 35.874 16.7335 36.184 11.6335L27.914 16.3835L28.914 16.9935C32.244 18.9935 35.704 16.8735 36.994 13.7135L37.644 12.1235L27.584 13.4435C29.744 17.3335 31.954 19.7035 36.824 18.9235C37.7509 18.6893 38.5971 18.2087 39.2731 17.5327C39.9492 16.8567 40.4297 16.0104 40.664 15.0835L41.234 12.0035L33.154 15.2835C33.8104 15.585 34.4395 15.943 35.034 16.3535C36.844 17.5835 40.274 17.2935 41.694 15.4935L43.474 13.2735L38.124 14.6835L39.064 15.0635L35.784 12.5435L36.664 14.1635C38.664 17.8435 44.104 17.6235 46.164 14.1635L47.164 12.4535L37.104 11.1435C37.634 14.2535 38.104 16.5835 40.644 18.6935C42.354 20.0935 45.294 21.1135 47.314 19.5535L48.314 18.8235L40.784 16.8235L41.404 17.8235C43.344 21.1035 49.124 21.6935 50.904 17.8235L52.824 13.6235L42.824 12.3035L43.144 14.5835C43.684 18.5135 49.914 20.0735 52.334 17.0135L54.034 14.8535L47.374 15.7135C47.964 16.0435 48.544 16.3735 49.124 16.7135L46.594 10.5035C46.1433 12.5718 45.8855 14.6775 45.824 16.7935C45.8391 17.7549 46.1037 18.6959 46.592 19.5242C47.0802 20.3526 47.7753 21.0399 48.6091 21.5188C49.4428 21.9977 50.3867 22.2517 51.3482 22.2561C52.3097 22.2604 53.2559 22.0149 54.094 21.5435C56.794 19.9535 52.434 21.4035 53.984 21.3235L48.484 15.8235C48.374 17.5835 48.674 15.4635 48.214 17.2935C47.294 20.9335 50.894 25.7535 54.974 24.0535L57.164 23.1435L50.394 16.3735C49.8174 17.5703 49.5722 18.8998 49.684 20.2235C49.974 22.5735 51.184 24.9335 53.684 25.5235C55.9192 25.9156 58.2099 25.8612 60.424 25.3635L55.074 16.1735L53.194 18.1135C50.084 21.1135 51.804 26.0435 55.624 27.3135C57.004 27.7635 55.784 27.3135 56.774 27.7435L55.654 19.1135L54.374 20.3935C50.774 23.9535 53.674 29.3935 58.264 29.7835L61.264 30.0135L58.494 19.7635L55.324 21.3035C50.964 23.4235 52.324 30.1835 56.634 31.3035L58.634 31.8635L56.214 22.6635L54.994 23.7235C52.054 26.2735 53.494 30.4135 56.104 32.3635L57.104 33.1335V23.6335C55.3303 24.5766 53.8027 25.9227 52.644 27.5635C50.574 30.4235 52.724 34.8535 55.934 35.6435L58.774 36.3335L55.484 28.2535C55.114 28.8035 55.074 28.5935 55.484 28.2535C55.046 28.6096 54.662 29.0273 54.344 29.4935C53.4795 30.7155 53.0692 32.2011 53.184 33.6935C53.414 36.8135 55.544 38.6935 58.114 40.0735L59.494 30.1135L56.224 31.1135C51.284 32.6635 50.704 40.4735 56.224 41.7235C57.034 41.9135 57.854 42.0535 58.654 42.2735C59.034 42.3835 58.144 41.9335 59.584 42.6835L58.464 34.1135C57.6432 34.8033 56.9918 35.6723 56.5601 36.6536C56.1284 37.635 55.9279 38.7024 55.974 39.7735L57.584 35.8835L56.584 36.8035C53.904 39.2035 54.794 43.7135 57.694 45.4335L59.044 46.2435L60.334 36.1135L57.834 37.1135C53.834 38.6735 51.834 44.8635 56.514 47.1635L58.124 47.9535L55.594 44.6635L55.864 45.5235L58.394 39.3135L56.084 40.3135C52.824 41.6935 52.644 46.7635 54.974 48.9535C55.544 49.4835 56.084 50.0335 56.604 50.6035L57.724 41.9635L55.624 42.9635C51.034 45.0735 52.834 51.6735 56.934 52.9635L59.254 53.7235L55.404 46.9535L55.114 47.8335C54.7408 49.24 54.9339 50.7367 55.6518 52.0025C56.3698 53.2682 57.5553 54.202 58.954 54.6035L61.854 55.3335V44.7235L59.514 45.7235C55.944 47.2135 53.744 51.7935 57.084 54.9135L57.974 55.7335L56.554 50.3835L56.284 51.2635C55.644 53.3535 56.664 56.5435 58.814 57.4735L60.604 58.2535V48.7535C59.4867 49.5481 58.2863 50.2187 57.024 50.7535C53.704 52.2535 53.664 57.0735 55.914 59.3935L56.754 60.2535L57.864 51.6135L56.074 52.6135C52.354 54.7135 52.674 59.9435 56.074 62.1135C57.9196 63.1757 59.9601 63.8559 62.074 64.1135L60.734 54.1135L58.584 55.1135C54.284 57.2435 55.494 64.0335 59.894 65.1135L62.464 65.7835V55.2435L57.604 56.6335C52.124 58.1935 52.604 65.4535 57.604 67.2435C57.924 67.3535 58.264 67.4535 58.604 67.5935C60.054 68.2035 58.044 67.2835 58.954 67.7535C59.604 68.0935 60.234 68.4635 60.874 68.8335L59.734 60.1935L58.564 61.2735C56.074 63.5635 56.564 68.3635 59.674 69.9135L60.994 70.5635V61.1135L58.154 62.6035C53.064 65.2635 55.774 72.6035 60.934 72.8535L64.304 73.0135L61.524 62.7635L58.314 64.4835C55.534 65.9735 55.114 69.4035 56.314 72.0135C56.6545 72.7293 57.081 73.4009 57.584 74.0135C58.654 75.4635 56.654 71.5035 56.994 73.2935C57.434 75.6335 59.994 77.3435 62.304 77.2935H64.944L61.054 67.9035C59.5534 69.0028 58.3476 70.4559 57.544 72.1335C55.754 76.3535 58.704 81.5535 63.754 80.2135L68.344 79.0035L62.984 69.8035L59.734 72.4835C55.404 76.1135 60.074 83.1135 65.094 81.6835C65.834 81.4735 66.624 81.3235 67.334 81.0435C70.004 79.9835 65.334 80.5135 66.824 80.9735L63.544 72.8935L61.934 75.0035C59.194 78.6135 63.014 83.0035 66.684 83.2735C68.1973 83.3371 69.7126 83.2094 71.194 82.8935L64.984 74.8135C64.2132 76.7849 63.6273 78.8236 63.234 80.9035C62.804 82.6835 63.134 85.0235 64.644 86.2535C65.864 87.2535 63.764 83.1635 64.224 85.7635C64.854 89.3435 69.464 90.6735 72.304 89.0535C73.024 88.6335 73.774 88.2535 74.474 87.8035C74.8442 87.6005 75.1985 87.3699 75.534 87.1135C76.254 86.4735 74.534 87.3935 75.934 86.8935L68.934 81.5935C68.834 83.3835 68.654 85.1535 68.474 86.9335C68.174 89.7535 71.234 92.6235 73.974 92.4335C78.694 92.1035 80.184 88.9835 82.694 85.5735L72.734 84.2635C73.104 85.3435 73.544 86.3735 73.954 87.4435C74.194 88.0735 74.254 88.4435 73.954 87.5935C74.164 88.2335 74.354 88.8835 74.554 89.5235C76.254 94.9835 83.274 94.5235 85.164 89.5235C85.434 88.8235 85.644 88.0735 85.974 87.4035C86.164 87.0135 85.594 88.1935 86.484 86.7835L76.484 85.4735L77.484 88.5835C77.8328 89.7182 78.5363 90.7112 79.4911 91.4166C80.446 92.1221 81.6018 92.5027 82.789 92.5027C83.9761 92.5027 85.132 92.1221 86.0868 91.4166C87.0416 90.7112 87.7451 89.7182 88.094 88.5835L88.804 86.2735L83.504 90.2735H84.344L79.604 87.5435L80.914 90.4035C83.414 95.8435 90.744 92.4735 91.164 87.6335C91.234 86.7935 91.244 85.9235 91.384 85.0935C91.604 83.7935 91.084 86.1835 91.784 84.0935L81.784 85.4135C82.8865 87.1914 84.0954 88.9012 85.404 90.5335C88.724 94.7235 94.334 90.7535 94.794 86.6435L95.054 84.3035L85.664 88.1935C86.9598 89.4363 88.5602 90.3159 90.304 90.7435C93.414 91.3035 97.714 89.3035 97.304 85.4435L96.854 81.4435L87.464 85.3335L89.044 87.2035C91.544 90.1435 97.674 88.8035 98.244 84.7835L98.494 83.0235L89.294 85.4435C91.844 87.6535 94.524 89.6135 98.064 88.3635C99.724 87.7735 101.614 86.4535 101.904 84.5235L102.144 82.8935L92.734 85.4735L94.384 87.0835C97.644 90.2435 104.054 88.0835 103.774 83.1935L103.644 80.7535L94.254 84.6435L96.034 86.4835C100.964 91.5835 108.734 83.7935 103.814 78.7035H103.844Z" fill="#991111"/>
</svg>
