<svg width="125" height="74" viewBox="0 0 125 74" fill="none" xmlns="http://www.w3.org/2000/svg">
<path d="M17.0113 47.0081L17.3313 46.1281L13.4913 49.9481C14.7824 49.5514 16.0424 49.06 17.2613 48.4781C20.4013 47.0181 20.8313 42.0681 18.3713 39.8481L15.8913 37.5981L13.4613 46.7981C15.2313 46.1281 11.2013 45.7981 12.5113 46.4681C13.0287 46.6176 13.5629 46.7016 14.1013 46.7181C17.9813 47.3381 22.2313 44.3281 20.8613 39.9581L20.4513 38.6281L15.1413 45.6281L16.9113 45.8381C21.2113 46.3581 23.5613 40.8381 21.6613 37.5681L20.4613 35.4981L12.9413 43.0281L16.4813 44.9281C21.0713 47.3881 27.1713 42.2181 24.0013 37.3981L22.1313 34.5481L15.9213 42.6281L17.8213 43.2881C20.9813 44.3781 25.1413 41.4381 24.8213 37.9881C24.7213 36.9881 24.6313 36.0681 24.5313 35.1081L16.2613 39.8581L18.7213 41.4381C22.4613 43.8481 28.6613 39.7481 26.7913 35.2281C26.5997 34.5735 26.3417 33.9402 26.0213 33.3381C24.7613 31.7181 25.5113 35.8181 25.7713 33.9481L21.9313 37.7881L22.9313 37.6281L18.7013 37.0681L20.3713 37.9381C21.319 38.4555 22.3966 38.6862 23.473 38.6023C24.5495 38.5184 25.5784 38.1234 26.4344 37.4655C27.2905 36.8075 27.9369 35.9149 28.295 34.8963C28.6531 33.8777 28.7074 32.777 28.4513 31.7281L27.8113 29.0781L19.7313 35.2881C20.7313 35.8181 21.7313 36.3381 22.7313 36.8281C23.4622 37.236 24.2753 37.4746 25.1108 37.5262C25.9462 37.5778 26.7825 37.4412 27.5581 37.1263C28.3336 36.8115 29.0286 36.3265 29.5917 35.7072C30.1547 35.0879 30.5715 34.35 30.8113 33.5481C31.2594 32.0346 31.4222 30.451 31.2913 28.8781L23.0113 33.6281L24.1513 34.3781C23.4613 33.8181 23.4213 33.8681 24.0513 34.5281C24.6813 35.1881 25.2213 35.9581 25.8113 36.6781C26.4942 37.3719 27.3514 37.869 28.2928 38.1172C29.2342 38.3653 30.2251 38.3552 31.1613 38.0881C31.7013 37.9381 32.2513 37.7981 32.7913 37.6681C35.9613 36.9281 37.0313 33.7581 36.6413 30.9081L36.2113 27.8281L27.0713 33.1581L28.8113 35.0681C32.6913 39.3381 39.1513 34.7881 38.0013 29.7181L36.8313 24.5381L28.7513 30.7481L29.9613 31.3881C33.3113 33.1381 36.7813 31.5181 38.0413 28.0981L38.5113 26.8181L31.7513 30.6681C32.9913 30.9381 30.2113 27.7781 31.2813 29.9781C31.7213 30.8681 32.2813 31.6981 32.8313 32.5481C35.7613 37.4481 42.7013 35.0681 43.0713 29.7781L43.2313 27.5781L33.8413 31.4681C35.2413 32.9681 36.4713 34.1781 38.6013 34.5281C41.5513 35.0281 44.4813 33.7881 45.3613 30.6881C45.6413 29.6881 45.9313 28.7681 46.2413 27.8081L38.0713 31.0981C39.14 31.6585 40.2499 32.1365 41.3913 32.5281C44.7813 33.6681 48.3913 30.6381 48.3913 27.2181L48.3413 23.6381L44.3413 28.9381L45.1913 28.6881L39.8413 27.2781C41.1013 28.3681 40.1813 27.3481 40.4113 27.6981C40.8213 28.2781 41.1113 28.9781 41.4613 29.5981C43.7813 33.8381 50.2213 32.7181 51.5113 28.2881L52.0413 26.4881L42.8413 28.9081L43.8413 29.6781C47.6913 32.7581 52.7413 30.7381 53.2313 25.7881L53.6313 21.6581L49.6313 26.9581C51.2313 26.3281 46.9213 26.4881 48.6313 26.7181L44.7913 22.8781C45.1839 24.843 45.7357 26.7727 46.4413 28.6481C48.0513 32.6481 52.2513 33.9481 55.6313 31.0781C57.5613 29.4481 58.5513 27.0781 59.6913 24.8281L49.6313 23.5081L50.0413 24.9181C50.0413 24.1381 49.9713 24.0581 49.9813 24.6581C50.0513 25.4581 49.9813 26.2781 49.9813 27.0781C49.9813 31.4381 56.3113 34.8781 59.3613 30.9681L60.9313 28.9681L57.0413 30.5781C58.2821 30.5409 59.5141 30.3562 60.7113 30.0281L53.7113 24.7281L53.9013 26.2681C54.4313 30.4281 58.1513 33.0781 62.1813 31.0181L63.8413 30.1581L56.3213 22.6381L54.1713 26.9481C52.4713 30.4981 54.4613 35.3881 58.9213 35.2181C60.2881 35.1853 61.64 34.9251 62.9213 34.4481C63.1413 34.3581 64.5913 33.8581 64.5913 33.8381C64.7213 34.2981 61.2613 33.1381 62.5313 34.0981L60.0713 27.8681C59.2313 30.5781 61.3513 26.9781 60.5413 27.5081C59.9366 28.0527 59.4024 28.6708 58.9513 29.3481C56.0413 32.7081 57.7513 38.9781 62.8413 38.7381L64.5513 38.6481L60.6613 29.2581L59.2313 30.9481C55.8413 34.9481 58.9613 41.7281 64.5813 40.1481L69.6413 38.7181L65.4013 28.6681L61.7113 31.1581C60.7029 31.7902 59.9243 32.7297 59.4906 33.838C59.0569 34.9464 58.9909 36.1647 59.3024 37.3134C59.614 38.4621 60.2865 39.4802 61.2208 40.2174C62.1551 40.9547 63.3017 41.3721 64.4913 41.4081L66.6913 41.4981L63.9113 31.2481C60.1413 33.6881 57.2913 36.5881 59.5613 41.2981C61.4213 45.1781 65.1313 45.2481 68.9213 45.7481L63.4213 40.2481C63.5513 41.4581 63.8413 39.5081 63.4213 40.6981C63.1941 41.4796 63.0598 42.2851 63.0213 43.0981C63.0913 45.3481 64.3913 46.7581 65.9313 48.1781L64.3213 44.2881L64.3813 45.3681L69.8813 39.8681L65.2113 39.5281C59.6013 39.1281 57.9613 47.1381 62.4413 49.7781L66.0713 51.9481L68.8513 41.6981L66.7613 41.8581C62.0513 42.1981 59.4513 47.6281 62.8713 51.2381L64.6913 53.1681L70.0713 43.9481L67.0013 43.3281C62.5413 42.4181 58.0913 47.0881 60.7913 51.4081L61.9013 53.1881L61.3513 48.9581L61.1813 50.0581L69.2613 46.7781L65.2613 44.5081C61.9113 42.6181 56.5713 44.9381 56.9813 49.2581C57.1158 50.6636 57.3363 52.0595 57.6413 53.4381L65.7213 47.2281L63.7813 45.9281C60.7813 43.9281 56.5713 45.9281 55.7013 49.2181C54.9413 52.0781 55.8313 54.4981 56.5613 57.2181L60.4013 50.4481L59.3113 50.7681L64.6613 52.1881L63.6113 51.2881C64.0113 51.9281 64.0713 51.9881 63.8013 51.4681C63.428 50.7844 63.0941 50.0799 62.8013 49.3581C61.5013 46.6481 57.6913 46.0081 55.2713 47.3581L54.6013 47.7381L61.2713 48.5981L60.6013 47.9081C57.4813 44.6581 52.8613 46.6681 51.4113 50.3281L50.3013 53.1281L61.0713 54.6181L60.8913 51.7381C60.6113 47.2681 54.8913 44.1181 51.5013 47.8481L50.3113 49.1481L59.5013 51.5781L59.2513 50.3481C58.3513 46.0481 52.9413 45.3481 50.0513 47.9181L47.8813 49.8581L51.7713 48.2481L50.4813 48.1481L55.7813 52.1481L55.3713 51.0181L53.9613 56.3681L56.1313 53.7181C57.6313 51.8881 58.4113 49.2181 56.9913 47.0481L56.6413 46.5181L57.1913 50.7581C59.0813 45.2381 54.5713 42.5281 49.8513 41.7581L53.1413 49.8381C54.0957 48.499 54.6221 46.9022 54.6513 45.2581C54.8113 42.7981 52.8113 40.6581 50.6513 39.9581L47.9213 39.0881L51.7613 45.8481C52.1612 44.228 52.1818 42.5374 51.8213 40.9081L46.5213 47.9081L51.6813 47.5581C58.1413 47.1281 58.8213 39.0681 53.1513 36.7581L49.7613 35.3681L48.3013 46.1781L51.7813 45.9781C56.6913 45.6881 59.9413 38.1281 54.5513 35.7281L50.1113 33.7281L52.8413 38.4781L52.9213 37.4781L47.4213 42.9781C51.1913 42.8581 54.1713 43.2981 57.3213 40.7681C59.4913 39.0181 59.4313 34.7681 57.3213 32.9881C56.6813 32.4481 55.9413 31.9881 55.3213 31.3581C54.9313 30.9681 55.6513 32.0981 54.9013 30.5981L50.1513 38.9481L51.7713 38.7881C55.9013 38.3681 58.6413 34.4381 56.5213 30.5081L55.6413 28.8981L48.0713 36.3681L52.9013 38.4881C58.2613 40.8481 64.3713 34.5581 59.5613 29.8481L55.6913 26.0581L51.8013 35.4381C53.4913 35.2381 51.0913 34.9281 53.4013 35.7481C54.2151 36.0315 55.0514 36.2456 55.9013 36.3881C60.2613 37.1881 64.9513 32.6581 62.1113 28.3081L60.1913 25.3081L52.6613 32.8381L55.5113 34.4681C60.1513 37.1381 66.0413 31.6981 63.0413 26.9481L60.5613 23.0281L57.2713 31.1081L58.2713 30.7781C59.4081 30.4233 60.4053 29.7213 61.1227 28.7707C61.8401 27.8201 62.2418 26.6687 62.2713 25.4781L62.3313 24.0381L55.3313 29.3481C58.1213 29.9781 53.8513 27.2081 55.1313 28.9481C55.7969 29.682 56.5301 30.3516 57.3213 30.9481C61.0713 34.2981 68.5513 31.1281 66.5113 25.5981L65.2113 22.0681L58.4513 28.8381C59.5696 29.3174 60.7891 29.5132 62.0013 29.4081C62.5813 29.3281 63.8413 29.1381 64.2313 28.6181C64.4713 28.2881 61.6013 28.9281 63.0613 29.0981C66.2313 29.4881 68.2713 26.2481 68.5613 23.5981C68.7613 21.7281 68.4813 23.5981 68.9513 21.9381L66.4213 25.2181L67.2413 24.6781L59.7213 22.6781L62.2913 27.1981C63.9513 30.1281 68.5813 30.9781 70.9313 28.3081C73.2813 25.6381 73.1313 23.2481 72.9313 19.8481L71.3213 23.7381L72.1013 22.9781L63.5513 21.9481L65.3913 26.0281C67.2413 30.1381 74.7713 29.2881 75.4413 24.7081L75.8213 22.1781L73.2913 25.4681C74.8413 24.7181 70.5813 25.8281 72.2913 25.7981L67.5413 23.0781L68.6913 25.7581C71.1113 31.3781 78.4213 27.6581 78.9413 22.9881L79.4513 18.4281L68.6513 19.8881L69.7513 23.8881C70.4613 26.4381 72.6113 27.6381 75.0613 27.8881L75.8913 27.9881C78.2513 28.2581 80.6113 26.0881 81.1913 23.9881L82.0613 20.8481L75.2913 24.6881L76.2013 24.8981C77.3697 25.2022 78.6051 25.1213 79.7239 24.6673C80.8427 24.2133 81.7852 23.4105 82.4113 22.3781L83.4113 20.3781L73.1613 17.5981C73.6713 22.2381 73.6913 27.8181 79.2513 29.1481C80.6559 29.5051 82.1442 29.3048 83.4043 28.5889C84.6645 27.8731 85.5987 26.6974 86.0113 25.3081L87.7113 19.7881L76.9013 18.3281C77.3113 23.2581 77.9013 26.0881 82.8213 28.0881C84.9113 28.9181 88.0713 27.5581 89.0413 25.5581L90.8813 21.7381L83.3513 23.7381L84.2213 24.1681L81.4913 19.4181L81.4013 22.9981C81.2913 27.4981 86.0813 29.3981 89.6813 27.7481C90.4644 27.3739 91.2227 26.9497 91.9513 26.4781L85.2813 25.6181C86.5013 26.6181 84.2113 24.1681 84.8913 23.9281C84.8047 24.6112 84.7846 25.3011 84.8313 25.9881C84.6613 31.7781 92.1713 32.9881 95.0813 28.7581L97.6713 24.9681L87.6213 20.7281C86.8013 24.2381 85.9913 26.8281 87.6213 30.2681C89.5613 34.3881 94.9213 33.2681 97.1213 30.2681L100.231 26.0781L90.1713 21.8381C89.724 23.8797 89.4695 25.9589 89.4113 28.0481C89.4113 30.1981 91.1013 33.0481 93.4113 33.3481C97.6413 33.9281 99.3613 32.3481 102.161 29.6081L92.7713 25.7181C92.7713 26.2281 92.5713 27.5681 92.9713 26.1881C92.7713 26.8681 92.6513 27.5681 92.5013 28.2581C91.5913 32.2581 95.0813 36.1981 99.2613 35.0181C101.288 34.5263 103.232 33.7414 105.031 32.6881L100.791 33.2481L101.711 33.5481L98.4213 25.4681L96.0713 29.9481C93.7613 34.3381 98.8813 41.0581 103.591 37.4681L106.361 35.3581L98.0713 30.5781C97.8531 31.9403 97.9593 33.3347 98.3813 34.6481C99.3813 37.6981 103.441 40.1681 106.461 37.9381L109.671 35.5681L101.591 32.2781C102.071 33.6481 101.721 31.0781 101.841 30.7881C101.628 31.4346 101.507 32.1078 101.481 32.7881C101.384 34.3093 101.773 35.8222 102.591 37.1081C103.223 38.1347 104.166 38.9327 105.283 39.386C106.4 39.8393 107.633 39.9241 108.801 39.6281L110.321 39.3281L103.321 34.0281C103.081 35.8581 103.381 33.6581 103.121 35.4881C102.561 39.4881 105.451 43.4881 109.891 42.2481L111.641 41.7581L105.431 33.6781L103.851 36.4081C101.201 40.9881 106.661 47.0581 111.381 43.9381L115.731 41.0481L107.651 37.7681C107.941 39.2381 108.131 36.5481 107.711 36.6281C107.711 36.6281 107.471 37.7281 107.451 37.7681C107.161 38.3381 107.191 38.7681 107.521 37.9381C107.24 38.5542 106.926 39.155 106.581 39.7381C106.064 40.6858 105.833 41.7634 105.917 42.8399C106.001 43.9163 106.396 44.9452 107.054 45.8013C107.712 46.6573 108.604 47.3037 109.623 47.6618C110.642 48.0199 111.742 48.0742 112.791 47.8181L114.661 47.3581L108.441 44.8281L108.921 45.5781V40.0181L108.141 41.7981C105.311 48.2181 114.781 53.7981 117.631 47.3481C118.901 44.4781 119.771 42.1381 117.941 39.2781C117.31 38.2508 116.367 37.4517 115.25 36.9967C114.134 36.5417 112.901 36.4546 111.731 36.7481L109.871 37.2081L116.081 45.2881C117.871 41.8681 119.021 38.7481 118.261 34.8381C117.591 31.4581 112.991 29.6881 110.181 31.5581L105.831 34.4381L113.351 41.9581L114.931 39.2281C115.453 38.2808 115.688 37.2018 115.606 36.1233C115.524 35.0447 115.13 34.0135 114.47 33.1559C113.811 32.2982 112.916 31.6515 111.895 31.2949C110.874 30.9383 109.771 30.8872 108.721 31.1481L106.961 31.6481L113.731 38.4081C113.931 36.9481 114.131 35.4881 114.321 34.0281C114.811 30.2081 110.431 28.1081 107.321 28.7181L105.801 29.0281L112.011 31.5481L111.551 30.7381L112.111 34.9781C112.661 33.1417 112.661 31.1844 112.111 29.3481C111.061 26.3481 107.111 23.7981 104.031 26.0581L100.821 28.4281L108.901 31.7181C108.681 31.0681 108.791 32.1181 108.981 30.5681C109.461 26.6381 103.851 23.4181 100.701 25.8181L98.0713 27.9481L105.591 35.4681L107.991 30.9081C108.401 30.1769 108.641 29.3628 108.693 28.5263C108.745 27.6898 108.608 26.8523 108.291 26.0761C107.975 25.2998 107.488 24.6047 106.867 24.0424C106.245 23.4801 105.505 23.0651 104.701 22.8281C101.171 21.6781 98.7013 23.6781 96.4113 24.3081L103.181 31.0681C103.665 29.2897 103.887 27.4505 103.841 25.6081C103.591 20.9181 97.9813 18.2581 94.4613 21.7181L91.9513 24.1681L97.3013 22.7581L96.4013 22.6381L100.401 27.9381V26.6281C100.241 27.4481 100.221 27.5581 100.331 26.9581C100.431 26.1881 100.621 25.4181 100.771 24.6581C101.971 18.3481 94.4313 15.3981 90.7213 20.4181L87.6113 24.6081H97.0713L96.6213 23.6081L97.1713 27.8481L98.1713 23.5081C99.6313 17.2981 91.6213 14.1581 88.1213 19.2781L85.5213 23.0681L95.7713 25.8481C95.8613 22.7181 95.5513 19.8481 93.0013 17.6981C91.1813 16.1681 88.4913 15.4581 86.3313 16.8381C85.6096 17.3155 84.8543 17.7399 84.0713 18.1081L92.3413 22.8581L92.4313 19.2781C92.4402 18.3162 92.193 17.3693 91.715 16.5345C91.2369 15.6997 90.5454 15.0072 89.7113 14.5281L88.8513 14.0981C86.3513 12.8481 82.6813 13.2581 81.3213 16.0981L79.5413 19.9481L85.7513 17.4181C84.4513 16.8981 86.7513 17.9381 85.4813 17.1681L88.2013 21.9181L87.9013 18.2681C87.4113 12.2681 78.9913 10.6381 77.1013 16.8081L75.4113 22.3281L82.1713 18.4881L81.3813 18.2981L84.6613 20.8181C83.3513 18.6481 84.7113 24.1781 84.5313 20.8781C84.4713 19.7681 84.2813 18.6481 84.1613 17.5381C83.6113 12.6381 76.6613 9.4181 73.9113 14.7681L72.9113 16.7681L79.1213 14.2381L78.2213 14.0181C76.8152 13.6555 75.3232 13.8533 74.0601 14.5697C72.7971 15.2861 71.8617 16.4652 71.4513 17.8581L70.5913 21.0081L75.8913 17.0081L75.0613 16.9081L80.3613 20.9081L79.2513 16.9081C77.4913 10.5581 69.1113 12.4981 68.4513 18.3781L67.9413 22.9381L78.1913 20.1581L77.0313 17.4781C76.5583 16.6401 75.8688 15.9446 75.0349 15.4643C74.2011 14.9841 73.2535 14.7367 72.2913 14.7481C67.6713 14.8081 65.5013 17.4281 64.8713 21.7481L74.9213 20.4381L73.0713 16.3481C71.5813 13.0281 66.7413 12.9681 64.4313 15.2281C61.7913 17.8281 62.0713 20.3481 62.2613 23.7481L63.8713 19.8581L63.2513 20.5581L71.8913 21.6781L69.3113 17.1581C68.5723 15.9033 67.3689 14.9899 65.9615 14.6156C64.5542 14.2413 63.056 14.4362 61.7913 15.1581C58.5213 17.3381 58.0513 19.9381 57.6613 23.5781L63.1613 18.0781C62.3607 17.9528 61.543 17.991 60.7576 18.1904C59.9721 18.3898 59.2352 18.7461 58.5913 19.2381L62.8313 18.6781L61.4713 18.2081C57.6813 16.8981 53.2813 21.1281 54.7113 24.9781L56.0113 28.4981L65.2013 23.1481C63.0213 21.1981 61.2913 19.4281 58.3613 18.7581C57.5433 18.5407 56.6865 18.5126 55.856 18.6759C55.0255 18.8392 54.2432 19.1896 53.5684 19.7005C52.8936 20.2114 52.3441 20.8694 51.9617 21.6245C51.5792 22.3795 51.3739 23.2118 51.3613 24.0581L51.3013 25.4981L55.3013 20.1981L54.3013 20.5181C51.0613 21.6081 49.0213 25.4481 51.0113 28.5981L53.4913 32.5181L61.0113 24.9981L58.1613 23.3581C53.5613 20.7081 47.5513 26.1481 50.6413 30.8781L52.5613 33.8781L58.7713 25.7981C56.3213 25.3481 54.3113 24.1481 51.7713 24.4481C47.3013 24.9781 44.1713 30.2081 47.8813 33.8381L51.7613 37.6381L58.4213 28.9981L53.6013 26.8781C48.7413 24.7481 43.2613 29.2281 46.0713 34.4081L46.9513 36.0181L51.7013 27.7481L50.0813 27.9081C45.8413 28.3381 43.3613 32.2281 45.3413 36.1881C46.3424 38.0143 47.7399 39.5929 49.4313 40.8081V33.0281L48.7313 33.5881L52.6213 31.9781C50.8413 31.9781 49.0913 31.9781 47.3113 31.9781C45.8653 32.0184 44.4897 32.6108 43.4668 33.6337C42.444 34.6565 41.8516 36.0321 41.8113 37.4781L41.7313 38.4781C41.7084 39.4426 41.9497 40.395 42.4292 41.2322C42.9086 42.0695 43.6079 42.7596 44.4513 43.2281L48.8913 45.2281L51.6713 34.9781L48.1913 35.1781C41.7013 35.5481 41.0913 43.6781 46.7313 45.9781L50.1113 47.3581L51.5713 36.5581L46.4113 36.9081C45.5661 36.925 44.7358 37.133 43.9825 37.5165C43.2292 37.9 42.5725 38.4491 42.0616 39.1225C41.5507 39.796 41.1989 40.5764 41.0326 41.4052C40.8663 42.234 40.8898 43.0897 41.1013 43.9081C41.4413 45.7181 41.4913 41.2181 41.0513 42.9981C40.6942 44.4027 40.8946 45.891 41.6104 47.1511C42.3263 48.4113 43.502 49.3455 44.8913 49.7581L47.6113 50.6381L43.6113 45.3281C43.5113 46.7081 44.7113 42.8281 43.6113 44.3281C41.6113 46.9981 43.6113 51.8681 46.8913 52.3981C48.1082 52.5593 49.3091 52.8235 50.4813 53.1881L46.6413 49.3481C46.9313 50.3481 46.9513 49.7181 46.6413 47.4381C46.4128 48.0346 46.3008 48.6694 46.3113 49.3081C46.4148 50.4852 46.7915 51.622 47.4113 52.6281L48.2713 45.9581C45.9413 48.7981 43.6813 51.1581 45.0913 55.0881C45.4532 56.2226 46.1584 57.2167 47.1096 57.9333C48.0608 58.6498 49.2109 59.0533 50.4013 59.0881C53.6813 59.3281 55.4613 57.6781 57.7513 55.6381L48.5613 53.2081L48.8213 54.4381C49.6513 58.4381 55.3113 59.8181 58.0113 56.8681L59.2013 55.5681L49.8113 51.6781L49.9913 54.5581C50.3813 60.9881 58.5313 61.7381 60.7913 56.0181L61.9013 53.2281L52.7113 55.6481L53.3713 56.3481C54.2417 57.1915 55.3614 57.7309 56.5634 57.8859C57.7655 58.0409 58.9854 57.8031 60.0413 57.2081L60.7013 56.8281L53.1813 54.8281C55.1813 58.9781 58.0413 62.4981 63.1813 60.9781C64.572 60.5677 65.7493 59.6338 66.4655 58.373C67.1817 57.1122 67.3809 55.6228 67.0213 54.2181C66.8013 53.3781 66.6413 52.4881 66.3513 51.6781C65.2713 48.6081 65.9113 52.9781 66.1613 52.0181L58.0813 55.3081L60.0213 56.6081C64.2513 59.4581 69.0213 54.7681 68.0913 50.3981C67.7813 48.9381 67.9113 49.8981 67.8313 49.1381L59.6813 53.9481L63.6813 56.2181C66.4513 57.7781 71.2313 56.5581 71.7613 52.9281C72 51.6997 71.9903 50.4359 71.7327 49.2113C71.4751 47.9868 70.9747 46.8262 70.2613 45.7981L64.0713 53.9481L67.1513 54.5681C72.4513 55.6481 76.4213 49.5081 72.5013 45.3781L70.6813 43.4581L66.7913 52.8481L68.8813 52.6881C74.1413 52.2981 76.6013 45.3581 71.6613 42.4381L67.9913 40.2681L65.2113 50.5181L69.8813 50.8581C71.3383 50.8528 72.7342 50.2717 73.7645 49.2414C74.7949 48.2111 75.376 46.8152 75.3813 45.3581C75.3686 44.1732 75.0929 43.006 74.5741 41.9407C74.0553 40.8754 73.3063 39.9386 72.3813 39.1981L73.8013 44.5481C74.2449 43.156 74.4477 41.6984 74.4013 40.2381C74.0413 36.9681 72.1413 35.1681 68.9013 34.7381L64.9013 34.2081L69.6513 36.9381C68.3713 34.6781 69.6513 38.1381 69.6513 37.5881L66.9213 42.3281L69.3913 40.7381C70.3997 40.106 71.1782 39.1665 71.612 38.0581C72.0457 36.9498 72.1116 35.7314 71.8001 34.5828C71.4886 33.4341 70.816 32.416 69.8817 31.6787C68.9474 30.9415 67.8009 30.524 66.6113 30.4881L64.4113 30.3981L67.1813 40.6481L70.8813 38.1481C75.8813 34.7881 72.8813 26.3281 66.6413 28.1481L61.5813 29.5781L66.9313 38.7681L68.3213 37.1281C71.1813 33.7581 69.5513 27.4881 64.4313 27.7381L62.7213 27.8281L66.6113 37.2181C68.3817 35.4237 69.7309 33.2581 70.5613 30.8781C71.3413 28.3381 69.9613 26.1281 68.0313 24.6681C67.1559 23.9866 66.1413 23.5061 65.0595 23.2607C63.9776 23.0153 62.855 23.011 61.7713 23.2481C61.1475 23.4277 60.5361 23.6481 59.9413 23.9081C58.5013 24.4281 59.4813 24.2681 58.8413 24.2881L63.5913 32.5681L65.5913 28.2781C67.9713 23.2781 63.1413 18.1481 58.0713 20.7581L56.4113 21.6081L64.6813 26.3581L64.4913 24.8181C64.0413 21.3181 61.3313 18.4981 57.4913 19.5081C56.2787 19.6135 55.0923 19.9211 53.9813 20.4181C52.9108 21.1884 52.0005 22.1598 51.3013 23.2781L60.6913 27.1681C60.7664 24.9801 60.517 22.793 59.9513 20.6781C58.6913 16.3381 52.1313 15.0281 49.9013 19.3681C49.4413 20.2581 48.9913 21.1581 48.5213 22.0481C48.3613 22.3481 48.1413 22.6281 48.0113 22.9381C47.3813 24.4381 48.4813 22.6181 47.5713 23.3881L56.7613 25.8181C56.1048 23.9055 55.6065 21.9422 55.2713 19.9481C55.0331 19.0231 54.5513 18.1789 53.8759 17.5035C53.2005 16.8281 52.3563 16.3462 51.4313 16.1081C49.8309 15.7375 48.1592 15.8171 46.6013 16.3381C45.4744 16.7126 44.4882 17.4212 43.7737 18.3697C43.0592 19.3182 42.6503 20.4616 42.6013 21.6481L42.2013 25.7781L51.5913 21.8881L50.5913 21.1181C47.4313 18.5881 42.6513 19.2581 41.4013 23.5481L40.8713 25.3581L50.9313 24.0381C48.8713 20.2881 46.2613 16.8781 41.3813 18.3281C40.2388 18.6735 39.2357 19.373 38.5168 20.3256C37.7978 21.2783 37.4002 22.4347 37.3813 23.6281L37.4313 27.2081L44.4313 21.9081C42.9613 21.4081 45.2813 22.3981 43.7313 21.5881C42.9997 21.1803 42.1859 20.9421 41.3499 20.8911C40.514 20.8401 39.6772 20.9776 38.9015 21.2935C38.1258 21.6093 37.431 22.0954 36.8685 22.7159C36.3059 23.3363 35.8899 24.0753 35.6513 24.8781C35.3413 25.8281 35.0513 26.7881 34.7713 27.7581L41.4713 23.9481C39.8913 23.6881 43.0713 25.9481 42.4713 24.7181C42.3213 24.3781 41.8013 23.9981 41.5413 23.7181C38.0713 19.9981 32.4713 23.1181 32.1513 27.6081L31.9913 29.8081L42.2413 27.0281C40.2413 23.6481 38.7413 21.0281 34.5913 20.0881C33.1871 19.7413 31.7034 19.9462 30.4458 20.6605C29.1882 21.3749 28.2524 22.5444 27.8313 23.9281L27.3613 25.2081L35.4313 21.9181L34.2213 21.2781C33.2736 20.7607 32.1959 20.53 31.1195 20.6139C30.043 20.6978 29.0142 21.0927 28.1581 21.7507C27.302 22.4086 26.6556 23.3012 26.2976 24.3198C25.9395 25.3385 25.8852 26.4392 26.1413 27.4881L27.3113 32.6681L36.5113 27.3181L34.7713 25.4081C30.6513 20.8881 24.9113 25.8781 25.5813 30.7581L26.0013 33.8381L29.8413 27.0781C29.2913 27.2081 28.7513 27.3381 28.2113 27.4881L33.5613 28.9081C32.158 27.0631 30.4703 25.4529 28.5613 24.1381C25.1213 21.8681 20.1213 24.8481 20.2813 28.8881C20.256 29.3477 20.256 29.8084 20.2813 30.2681C20.4313 31.1581 20.5913 29.2681 20.1413 30.6281L28.2213 27.3481C27.2213 26.8481 26.2213 26.3481 25.2213 25.7981C24.2736 25.2807 23.1959 25.05 22.1195 25.1339C21.043 25.2178 20.0142 25.6127 19.1581 26.2707C18.302 26.9286 17.6556 27.8212 17.2976 28.8398C16.9395 29.8585 16.8852 30.9592 17.1413 32.0081L17.7713 34.6681L25.8513 28.4581C23.7779 27.1921 21.3088 26.7397 18.9213 27.1881C17.9939 27.4213 17.1471 27.9016 16.4709 28.5777C15.7948 29.2539 15.3145 30.1007 15.0813 31.0281C14.6834 33.4512 15.0322 35.938 16.0813 38.1581L24.1613 31.9481L21.7013 30.3681C18.4013 28.2481 13.0213 30.9781 13.4213 35.1181C13.5213 36.1181 13.6113 37.0381 13.7113 37.9981L20.7113 32.6881L18.8013 32.0281C14.3313 30.4781 10.0213 36.1881 12.5913 40.1081L14.4713 42.9581L21.9913 35.4381L18.4513 33.5381C13.6813 30.9781 8.09126 36.1881 10.9313 41.0581L12.1313 43.1281L16.8713 34.8481L15.1013 34.6381C11.5613 34.2081 8.83129 38.4981 9.80129 41.6381L10.2213 42.9681L16.9813 36.2081C14.7013 35.8381 12.7413 35.4381 10.5013 36.2781C6.88127 37.6281 4.76128 42.4681 8.07128 45.4681L10.5513 47.7081L11.6613 39.0781C10.7937 39.2211 9.96188 39.5301 9.21129 39.9881C7.63129 40.9881 6.98128 42.4781 6.36128 44.1481C3.92128 50.8081 14.5513 53.6781 16.9713 47.0781L17.0113 47.0081Z" fill="#991111"/>
</svg>
