<svg id="레이어_1" data-name="레이어 1" xmlns="http://www.w3.org/2000/svg" viewBox="0 0 128 128"><path d="M54.36,34.42a40.28,40.28,0,0,1,21.91,0S85.5,25.2,89,25.2C89,25.2,97,24,95.88,46c0,.77,7.28,5.78,8.07,6.92A25.39,25.39,0,0,1,107.8,61a34.56,34.56,0,0,1,.66,15.11C107.23,84,104.62,93,97.38,96.55c-9.57,4.76-15.87,6.6-24.57,7.07-10.35.56-22.6-2-31.24-7.44A36.1,36.1,0,0,1,25.82,72.84C24,64,24.76,52,33.6,47.11c0,0-4.61-19.61,6.92-19.61C40.52,27.5,44,26.35,54.36,34.42Z" style="fill:#fff"/><path d="M61.77,49.9A10.29,10.29,0,0,1,57,51.81L44.84,54.35a14.29,14.29,0,0,0-5.68,2.07c-1.48,1.09-2.47,2.71-3.75,4a12.72,12.72,0,0,1-6.76,3.65c-1.69.31-3.64.2-4.84-1-1.68-1.74-.95-4.74.61-6.59s3.77-3.08,5.34-4.93c4.15-4.84,2.84-12.13,4.2-18.36.4-1.85,1.21-3.83,2.92-4.63a6.26,6.26,0,0,1,2.88-.44c3.93.11,7.14,1.46,10.66,3,2.73,1.21,6.12,1,8.67,2.42C63.69,36.19,66,46.17,61.77,49.9Z"/><path d="M73.8,70.18a.57.57,0,0,0-.15-.16A4.19,4.19,0,0,0,72,69.63c-.63-.12-1.26-.23-1.89-.32A37.59,37.59,0,0,0,66.32,69,12.41,12.41,0,0,0,64,69.1a1.44,1.44,0,0,0-1,.54A1.5,1.5,0,0,0,63,70.88a13.16,13.16,0,0,0,3.85,5.22,2.56,2.56,0,0,0,1.1.64,2.32,2.32,0,0,0,1.36-.25,8.39,8.39,0,0,0,2.5-1.76A7.13,7.13,0,0,0,74,71.1,1.29,1.29,0,0,0,73.8,70.18Z"/><path d="M53.75,62.15a1.52,1.52,0,0,0-.67,2.48,4,4,0,0,0,1.52,1.23,8.36,8.36,0,0,0,2.77.82,3.51,3.51,0,0,0,1.37-.07,1.52,1.52,0,0,0,.83-2.48,3.61,3.61,0,0,0-1.35-1.06,8.8,8.8,0,0,0-4-1A2.14,2.14,0,0,0,53.75,62.15Z"/><path d="M81.32,62.15c1.07.27,1.33,1.48.66,2.48a4,4,0,0,1-1.51,1.23,8.43,8.43,0,0,1-2.77.82,3.5,3.5,0,0,1-1.37-.07,1.52,1.52,0,0,1-.83-2.48,3.53,3.53,0,0,1,1.35-1.06,8.75,8.75,0,0,1,4-1A2.16,2.16,0,0,1,81.32,62.15Z"/><path d="M24.78,63.34c.39-.3.75-.58,1.11-.91A1.47,1.47,0,0,0,26.27,61c-.26-.91.11.94.27-.58.05-.45.26-2.25-.13-.71.36-1.4.76-1.79.48-3.57l-.69,1.69c2.4-1.29,2.56-4.3,4.07-6.32A12.33,12.33,0,0,1,31.9,50c.61-.51,3.15-1.34,2.31-1.51a1.52,1.52,0,0,0,1.85-1c.2-1.55.13,0,.21-.94a8.82,8.82,0,0,0-.11-2.54c-.15-1.08,0,.7-.17.09-.05-.21.27-.69.3-1,.12-1.45-.76-1.55.31-3.29a1.48,1.48,0,0,0,0-1.52c-.87-1.2-.16,1-.08-.12a13.25,13.25,0,0,1,.3-1.36c.17-.93-.06-1.9,0-2.71a21.7,21.7,0,0,1,.78-3.13c.27-1-.76-.41.34-.59a21.68,21.68,0,0,1,2.46-.47c-1,0,.24,0,1,.29.06,0,3.74.74,4.6,1.73a1.49,1.49,0,0,0,1.46.39c.48-.15,1.4.45,1.95.74,1.38.71-1.11-1,.15,0,.28.22.3.73.59.95.74.55,1.5.42,2.25.77s-1.11-.5-.15.11c.41.25.86.75,1.26,1a1.48,1.48,0,0,0,1.52,0,11.57,11.57,0,0,0,1-.82l-1.82.23a3.44,3.44,0,0,0,2,.54c.65-.11,2.5-.94,1-.87.85,0,1.76.64,2.65.47.51-.11,1.33-.91,1.72-.94s1.06.69,1.59.68a23,23,0,0,0,2.39-.48c2-.21,3.76.92,5.91.83,1.93-.07,1.94-3.07,0-3s-3.41-1.19-5.3-1.1c-.62,0-1.24.53-1.81.53-.75,0-1.12-.4-1.82-.45-1.35-.11-2.31.77-3.29.85-.7.06-1.36-.53-2-.47a10.42,10.42,0,0,0-1.56.82,1.57,1.57,0,0,0-1.82.24c.73.16.9,0,.51-.51a1.47,1.47,0,0,0-1.3-.74c-.95.06-1.86-1-2.83-1.64a11.65,11.65,0,0,0-1.66-.9c-.45-.11-2.33-.06-.84.27-1-.23-2.5-1.38-3.59-1.82a14.83,14.83,0,0,0-2-.61c-1.24-.27-.72.28-1.27-.1a1.48,1.48,0,0,0-1.51,0c-2.18,1.26-3.89.46-5.09,3.11-.82,1.81.13,5.64-1.08,7.4a1.49,1.49,0,0,0,0,1.51c.58.8.21-.83-.18.89a13.35,13.35,0,0,0-.16,3c0-1.2.42,2.4.38,2.45A1.51,1.51,0,0,0,33,46.7l.12-.11,1.85-1c-2.22-.46-4.36,1.55-5.84,2.88a13.64,13.64,0,0,0-2.05,1.94c-.9,1.25-1.06,4.11-2.43,4.85a1.54,1.54,0,0,0-.69,1.7,4,4,0,0,1,.18,1.16c-.08.4.62-.94-.26-.21a1.51,1.51,0,0,0-.38,1.46c.22,1.12,0-1.17-.31.6a5.55,5.55,0,0,1-.1.77c-.53,1,.42-.17.14,0-1.51,1.16,0,3.76,1.51,2.59Z"/><path d="M78.43,34.54c.65-1.07-1.13.68.15.07.29-.14.61-.15.91-.32a25.45,25.45,0,0,0,2.13-1.48A36.92,36.92,0,0,1,85,30.47c.5-.32,1.09-.93,1.58-1.2-.83.46.34.24,1-.3.37-.28.49-.91.87-1.17.6-.42-.87.84,0,.27S91,26.77,92,26.29l-2-.53c2.71,3.6,3.46,7.38,4.64,11.55.34,1.19,0,3,.19,4.08.1.44.67,2.8.46,1.18.23,1.85-.39,4.26.46,6,.36.74,1,1.08,1.57,1.62,1,1,.32.25,1.5,1.31.87.77,1.93,1.36,2.81,2.08,1.05.86-.71-.85.16,0,.2.19.49.65.69.89a44,44,0,0,1,3,4.67c.58,1,1,1,1.45,2.14.41,1,.18,1.82.82,2.88a1.5,1.5,0,0,0,2.59-1.51c-.44-.73-.39-2.2-.76-3.1a8.45,8.45,0,0,0-.76-1.64c-.22-.33-1.49-1.2-.6.05-1.07-1.5-1.63-3.66-2.92-5.18-1-1.12-1.92-1.38-3.61-2.8a27.79,27.79,0,0,1-2.07-2.14c-.21-.23-.77-.3-1-.62-.56-.66.37.3,0-.6a18.58,18.58,0,0,1-.66-5.13c-.06-1.06,0,1.17.1-.57a15.74,15.74,0,0,0,0-1.82,22.25,22.25,0,0,0-.56-3,29,29,0,0,0-4.93-11.89,1.56,1.56,0,0,0-2-.54,20.73,20.73,0,0,0-4.72,2.77c.51-.41-1.09.56-1.42.75a14.56,14.56,0,0,0-1.18.86,22.11,22.11,0,0,0-3.44,2c-1.37,1.15-3,1.44-3.91,3s1.58,3.15,2.59,1.51Z"/><path d="M24.16,65.72a15.14,15.14,0,0,1-2.4,2,11.94,11.94,0,0,0-2.24,2.52c-1.08,1.61,1.51,3.11,2.59,1.52,1.24-1.85,3.31-2.8,4.64-4.57a1.5,1.5,0,1,0-2.59-1.51Z"/><path d="M25.3,70.78a39.21,39.21,0,0,0-3.4,3.3c-1.31,1.41.81,3.53,2.13,2.12a36.3,36.3,0,0,1,3.39-3.29,1.51,1.51,0,0,0,0-2.13,1.54,1.54,0,0,0-2.12,0Z"/><path d="M27.94,75.07c-2.35,1.33-3.46,3.66-4.69,5.92-.92,1.7,1.67,3.21,2.59,1.51s1.77-3.8,3.62-4.84a1.5,1.5,0,0,0-1.52-2.59Z"/><path d="M29.4,81.53a33.53,33.53,0,0,1-.73,3.56c-.31,1.17-.32,2.4-.6,3.57-.44,1.88,2.45,2.68,2.9.8.28-1.18.29-2.4.6-3.58s.54-2.37.73-3.55c.29-1.89-2.6-2.7-2.9-.8Z"/><path d="M32.58,90.74a23.37,23.37,0,0,0,1.68,3.92,12.16,12.16,0,0,0,2.49,3.48c1.46,1.25,3.59-.86,2.12-2.13a10.57,10.57,0,0,1-2-2.86,19.41,19.41,0,0,1-1.38-3.21c-.59-1.83-3.49-1-2.89.8Z"/><path d="M39.33,96.47a2.68,2.68,0,0,0,1.8,1.58c.37.12.88,0,1.2.09,1.93.63-1.72-.94.27.14a18.38,18.38,0,0,0,5.75,2.26c.55.1,2.86.12,1.34-.08,0,0,2.94.77,2.07.43.47.18,1,1,1.61,1.22,1.44.6,2.08.35,3.3-.42l-1.82-.23.69.76a1.46,1.46,0,0,0,1.46.38l.88-.33-1.69-.69c1.44,2,2,1.3,4,1.43a25.33,25.33,0,0,0,3.48.29,1.54,1.54,0,0,0,1.82.23c1.07-.55-1.1.56.68.23a5.28,5.28,0,0,0,1.79-.64l-1.82-.24.8.64a1.59,1.59,0,0,0,1.82.24c.56-.3,1.1-.62,1.63-1l-1.82-.23c1.54,1.57,2.53,1.26,4.65,1,.78-.1,2-.42,2.73-.45.41,0,.94.42,1.47.34s1.19-.55,1.71-.6c-.77.08.79.34,1.07.28,1.55-.34,2.55-1.72,3.79-1a1.57,1.57,0,0,0,1.82-.23c1.67-1.3.14-.42.71-.74.22-.12.84,0,1.15-.15,1.21-.51,1.55-1.15,3.11-1a1.51,1.51,0,0,0,1.45-1.1c.12-.35.23-.71.34-1.07l-1.44,1.11c2.7.26,5-2.27,5.85-3.85s-1.65-3.2-2.59-1.51c-.52.92-2.19,2.46-3.26,2.36A1.5,1.5,0,0,0,89.68,97l-.34,1.06L90.78,97a6,6,0,0,0-3,.24c-.48.19-.93.51-1.39.69-1.07.42,1.38.4,0,.15a1.5,1.5,0,0,0-1.46.38,6.2,6.2,0,0,1-1.27,1.29l1.81-.24a4.55,4.55,0,0,0-4.07-.39c-.56.17-1.19.65-1.55.77-.1,0-1.33,0-1.52,0-.38.18-.76.38-1.12.59.5-.07.48-.16-.06-.28-.61,0-1.33-.13-2-.09-1.23.1-3.53,1.33-4.51.33a1.53,1.53,0,0,0-1.82-.24,17.68,17.68,0,0,1-1.62,1l1.82.24-.81-.64a1.56,1.56,0,0,0-1.81-.23c-1.09.6,1.1-.57-.68-.2a6.18,6.18,0,0,0-1.8.61l1.82.24c-1.63-1.73-2-.74-3.84-.76a19.39,19.39,0,0,0-3.17-.35,1.54,1.54,0,0,0-1.69-.69c-.82.31.53.68-.12,0a1.51,1.51,0,0,0-1.82-.24c-.06,0-9.82-2.3-10-2.9a1.47,1.47,0,0,0-1-1c-1-.19-2.06,0-2.21-.19-1-1.65-3.6-.14-2.59,1.51Z"/><path d="M105.71,68.3a12.52,12.52,0,0,1,3.44,2.15,13,13,0,0,1,2.09,3c.89,1.72,3.48.2,2.59-1.51a15.06,15.06,0,0,0-2.56-3.61,15.57,15.57,0,0,0-4-2.62c-1.73-.86-3.25,1.73-1.52,2.59Z"/><path d="M106.09,73.63c1.29,1.23,2.36,2.66,3.73,3.79a1.5,1.5,0,0,0,2.12-2.12c-1.37-1.13-2.44-2.57-3.73-3.79s-3.53.8-2.12,2.12Z"/><path d="M104.68,79.22a14.84,14.84,0,0,1,1.44,3.26c.34,1.2.41,2.46.77,3.65.56,1.84,3.46,1.06,2.9-.8-.41-1.32-.48-2.72-.91-4a19.5,19.5,0,0,0-1.61-3.58,1.5,1.5,0,0,0-2.59,1.51Z"/><path d="M103.05,85.73a13.33,13.33,0,0,0-.64,2.93c0,.89.34,2.47-.26,3.22-1.19,1.49.92,3.63,2.12,2.12a5.69,5.69,0,0,0,1.15-3.81,12.34,12.34,0,0,1,.52-3.67c.55-1.85-2.35-2.65-2.89-.79Z"/><path d="M99.64,91a12.3,12.3,0,0,1-2.45,3.9c-1.26,1.45.85,3.58,2.13,2.13a16.62,16.62,0,0,0,3.22-5.23c.65-1.82-2.25-2.6-2.9-.8Z"/><path d="M45.05,35.27a10.45,10.45,0,0,0-3.27-1.46,3.79,3.79,0,0,0-1.38-.13c-1.56.23-1.66,2-1.47,3.24a11.77,11.77,0,0,0,1.4,4,2,2,0,0,0,.56.69,1.89,1.89,0,0,0,1,.23,6.75,6.75,0,0,0,4.32-1.65,2.88,2.88,0,0,0,1.09-1.79A3.12,3.12,0,0,0,46,36,9.48,9.48,0,0,0,45.05,35.27Z" style="fill:#fff"/><path d="M84.53,33.37a10.62,10.62,0,0,1,3-2A3.53,3.53,0,0,1,88.83,31c1.57-.06,2,1.67,2,2.92a11.74,11.74,0,0,1-.66,4.23,1.48,1.48,0,0,1-1.42,1.19,6.74,6.74,0,0,1-4.54-.85,2.83,2.83,0,0,1-1.39-1.58,3.09,3.09,0,0,1,.88-2.64C84,34,84.25,33.65,84.53,33.37Z"/><path d="M66.9,76.5a4.67,4.67,0,0,1-.54,2.7,3.94,3.94,0,0,1-.54,1.06,2.06,2.06,0,0,0-.11.45c-.2.23-.57.39-.79.61-.47.45-.31.46-1,.73a12.28,12.28,0,0,1-1.47.54c-.5.14-1.05.12-1.56.27a4.91,4.91,0,0,1-1.38.43,1.5,1.5,0,0,0,0,3,6.67,6.67,0,0,0,2.17-.5c.71-.22,1.4-.23,2.11-.52s1.41-.4,2.06-.73.84-.74,1.33-1.24a8.46,8.46,0,0,0,2.68-6.8c-.13-1.91-3.13-1.93-3,0Z"/><path d="M67.13,76.49c0,1.48.76,3,1.11,4.46a4.41,4.41,0,0,0,3.1,3.15l-.89-.69a5.5,5.5,0,0,0,3.17,2.28,10,10,0,0,0,1.79.37c.64.07,1.23-.13,1.82,0,1.89.33,2.7-2.56.8-2.9C77,83,76,83.2,75,83a4.74,4.74,0,0,1-1.69-.7c-.35-.29-.52-.72-1-1-.18-.09-.51-.1-.65-.2-.47-.3.26.23-.1-.22A2.57,2.57,0,0,1,71,79.54a17.51,17.51,0,0,1-.88-3.05c0-1.92-3-1.93-3,0Z"/><path d="M54.05,73.7c-1-.75-2-.47-3.06-1.08.72.43-.43-.56-.58-.7a9.34,9.34,0,0,0-2.57-1.18c-.86-.38-1.27-1-2.06-1.37s-2-.5-2.78-.81a12.38,12.38,0,0,0-4.71-1.08,1.5,1.5,0,0,0,0,3c1.81,0,3.33,1,5.07,1.43,1.28.33,1.71.9,2.92,1.45a9.71,9.71,0,0,1,2.34,1c.45.36.62.75,1.15,1.07.82.5,2.09.35,2.77.86,1.55,1.16,3-1.44,1.51-2.59Z"/><path d="M52.31,78a41.38,41.38,0,0,1-7.06-.66c-2.52-.5-5,.28-7.46.38-1.92.08-1.93,3.08,0,3,2.38-.09,4.72-.76,7.09-.3a44,44,0,0,0,7.43.58c1.93,0,1.93-3,0-3Z"/><path d="M81.19,76.44c1-.76,1.74-.6,2.62-1.82l-1.3.75c2.29-.23,4-1.77,5.9-2.73A19.43,19.43,0,0,1,91,71.57,19.51,19.51,0,0,1,93,70.69c.67-.14,1.67.12,2.4,0,1.89-.24,1.92-3.24,0-3-.84.1-1.64-.11-2.45-.06a13.47,13.47,0,0,0-3.08,1.1c-.74.24-1.35.59-2,.85s.53-.24-.07,0c-.25.12-.69.09-1,.21-1.24.52-2.3,1.48-3.51,2.08a5.13,5.13,0,0,0-2.56,1.91L82,73.11a3.83,3.83,0,0,0-2.31.74c-1.55,1.12-.05,3.73,1.51,2.59Z"/><path d="M80.94,80.92a8.9,8.9,0,0,0,3.66,0c1-.14,1.91-.12,3-.17.69,0,1.33-.38,2-.45s-.68.09.06,0a8.05,8.05,0,0,1,.8.11c1.66.08,3.44-.57,5.12,0,1.85.57,2.64-2.33.79-2.9-2.51-.77-5.73-.4-8.09.09a25.42,25.42,0,0,1-3.28.09c-.77.06-1.6.39-2.39.46.2.42.13.46-.2.11a4,4,0,0,0-.65-.25c-1.85-.59-2.64,2.31-.8,2.89Z"/><path d="M56.21,56.25c-.92-.38.39.26.5.3a5.1,5.1,0,0,0,1.4.08,6.16,6.16,0,0,0,1,.19,3.55,3.55,0,0,0,1.21-.37,7.1,7.1,0,0,0,2.59-1.1A5.18,5.18,0,0,0,64.47,53c.64-1.82-2.25-2.6-2.9-.79-.42,1.2-1.67,1.25-2.71,1.64.21-.08.49.07,0-.07a2.24,2.24,0,0,0-.67-.11l-.45,0c.15.21.14.23,0,.06s-.51-.27-.73-.36c-1.79-.74-2.56,2.16-.8,2.89Z"/><path d="M75.87,53.21l-.38.11c.18,0-.9.1-.56.15a8,8,0,0,0-1-.29c-.28,0-.54,0-.83,0l.76.2a1.54,1.54,0,0,1-.79-.91c-.54-1.84-3.44-1.06-2.89.8.37,1.27,1.5,2.78,2.92,2.91.16,0,.46,0,.6,0a3.79,3.79,0,0,0,1.3.24,9.65,9.65,0,0,0,1.69-.3,1.51,1.51,0,0,0-.8-2.9Z"/><path d="M96.56,90.41a6.81,6.81,0,0,0-2.64-.92c-2.58-.51-5.4-.91-7.72.34-1.46.79-2.54,2.15-3.93,3A37.85,37.85,0,0,1,77.39,95c-1.71.81-5.37,4.27-2.73,6.09a4.74,4.74,0,0,0,2.41.63,33.83,33.83,0,0,0,15.05-2.46A10.82,10.82,0,0,0,97,95.86c1.05-1.51,1.31-3.78,0-5.08A2.61,2.61,0,0,0,96.56,90.41Z"/></svg>