<svg id="레이어_1" data-name="레이어 1" xmlns="http://www.w3.org/2000/svg" viewBox="0 0 68 110"><path d="M54.74,49.47c-.09.22,0,.5,0,.73s-.22.4-.29.63,0,.46,0,.69-1.11.28-1.15.52.64.57.61.81.09.48.07.72-.49.44-.5.68-.54.47-.55.71.09.49.09.73.77.47.78.71.44.47.45.71-1.19.51-1.18.76-.4.5-.39.74.07.49.08.73.64.46.66.7.54.45.55.69-.88.54-.86.79,0,.48.07.72,1.53.37,1.55.61-.25.5-.23.74-.39.52-.36.76-.18.5-.16.74,0,.5,0,.74,1.1.36,1.13.6-1.6.67-1.57.91,1,.37,1,.61.52.42.55.66-.78.59-.75.83.8.37.83.61-.86.61-.82.85,1.16.32,1.19.56,0,.48.07.72-1,.65-1,.88,1,.34,1,.58.44.41.48.65-1.42.73-1.38,1,.9.34.94.57.54.4.58.64-.69.61-.65.85.72.36.76.6-1,.68-1,.92.44.41.48.64.67.37.72.6-.5.6-.45.83,1,.3,1,.53.2.45.25.69-.46.59-.41.83-.1.51,0,.75.38.41.43.65-.94.7-.89.94.92.29,1,.52-.24.55-.18.79,1,.26,1.09.49-.54.63-.49.86,1,.27,1,.51-1,.73-.94,1,.83.3.89.54-.62.64-.56.88.84.29.9.53.28.43.34.66.34.42.39.65-.7.67-.64.9-.58.65-.52.88.08.48.14.72.53.36.59.6,1,.25,1.05.48.39.41.44.64-.86.72-.81,1,.14.47.19.7,1.1.22,1.16.46-.27.56-.21.8-.59.39-.54.63c-.22.07,0,.84-.21.92s-.76-.86-1-.8-.19,1.1-.42,1.17-.41.36-.64.42-.85-1.37-1.08-1.31-.2,1.22-.43,1.28-.74-1.08-1-1-.27,1-.5,1.09-.58-.43-.81-.38-.53-.26-.77-.22-.27,1.23-.51,1.27-.64-1-.87-.92-.37.81-.6.85-.42.52-.66.55-.45.36-.69.39-.49,0-.73.06-.6-1.14-.83-1.12-.42.82-.66.84-.56-1.18-.8-1.16-.42,1-.66,1-.51-.61-.75-.6-.45.81-.69.82-.47.46-.71.46-.5-.56-.74-.56-.48-.43-.72-.43-.48.22-.72.22-.47-.71-.71-.71-.49.57-.73.57-.49.48-.73.48-.49.12-.73.12-.45-.8-.69-.81-.5.37-.74.36-.43-.94-.67-1-.57,1.54-.81,1.53-.4-1.19-.64-1.21-.49.15-.73.13-.55.74-.79.72-.47-.15-.71-.17-.42-.64-.66-.66-.46-.25-.7-.28-.51.3-.75.27-.38-.88-.62-.91-.59.88-.83.85-.57.69-.81.66-.38-.81-.62-.85-.48,0-.72,0-.37-.8-.61-.84-.46-.15-.7-.18-.44-.27-.68-.3-.48,0-.72-.08-.71,1.45-.95,1.41-.47-.13-.71-.17-.35-.81-.59-.85-.33-.89-.57-.93-.59.57-.82.53-.62.72-.86.68-.45-.19-.69-.24-.44-.25-.68-.29-.53.19-.77.15-.2-1.51-.44-1.55-.59.53-.83.49-.56.4-.8.36l-.71-.13c-.24,0-.3-1-.53-1.06s-.59.49-.82.44-.36-.67-.6-.71-.48,0-.72-.08-.58.49-.82.45-.37-.2-.6-.25c0-.24-.87-.57-.83-.8s.09-.48.13-.72.07-.47.11-.71.89-.33.93-.57-.54-.58-.5-.82-.11-.51-.07-.74.28-.45.32-.68-.05-.5,0-.74.76-.37.8-.61-.42-.55-.38-.79-.21-.51-.18-.75.14-.47.18-.71.65-.39.69-.63.57-.41.6-.65.44-.43.47-.66-.77-.6-.74-.84.74-.39.77-.63-1.17-.63-1.14-.87,0-.49,0-.73.66-.4.69-.64.47-.43.49-.67-.38-.53-.35-.77.27-.46.3-.7-.35-.52-.32-.76.06-.48.08-.72,0-.48,0-.72.15-.47.17-.71.36-.45.39-.69-.59-.54-.57-.78.49-.44.51-.68.15-.48.17-.72,0-.48,0-.72-.63-.54-.61-.78,1-.4,1-.65-.52-.52-.51-.76.82-.43.83-.67-.58-.52-.57-.76-.47-.52-.45-.76,1.29-.4,1.31-.64.41-.46.42-.7,0-.49,0-.73-1-.54-1-.78.25-.47.26-.71-.55-.51-.54-.76-.14-.48-.13-.73.85-.44.86-.68.33-.47.34-.72-1.18-.52-1.17-.76.42-.47.43-.71.37-.47.37-.72.9-.45.9-.7-1.18-.51-1.18-.75,0-.48,0-.73S15,60.65,15,60.4s.92-.46.92-.7.49-.48.49-.72-.8-.5-.8-.74,1-.47,1-.72-1-.48-1-.73.54-.48.54-.72.39-.49.39-.73-1-.48-1-.72,1-.49,1-.73-.22-.49-.22-.73S15,52.7,15,52.46s1.61-.5,1.6-.71-1.13-.34-1.16-.55a3,3,0,0,0-.08-.6A2.76,2.76,0,0,0,15,50c-.15-.2-.07-.62-.26-.81s-1,.32-1.19.15.22-1,0-1.12.06-.78-.12-1-1.3.68-1.47.51,0-.68-.21-.85.14-.83,0-1-.78.1-1-.08-.09-.59-.25-.77-.7,0-.86-.2.46-1,.3-1.22-1,.23-1.17,0-.57-.18-.72-.37.57-1,.43-1.22-1.1.18-1.24,0-.72-.14-.85-.35,1-1.14.83-1.35-1.19.11-1.3-.11.4-.74.3-.95-.55-.29-.64-.51,0-.5-.12-.73.4-.62.33-.85-1.1-.2-1.15-.43,1.26-.75,1.22-1-.73-.34-.76-.57.44-.5.43-.74S4.9,34,4.9,33.8s-.55-.5-.54-.74.38-.47.4-.71,0-.5,0-.73-.29-.59-.23-.82,1.58,0,1.66-.24-.44-.64-.34-.85.61-.2.72-.41.28-.32.41-.53-.22-.67-.07-.86.35-.29.51-.47.59,0,.76-.19-.12-.81.06-1,.49-.12.69-.26.5,0,.71-.15-.17-1.33,0-1.44.55-.05.77-.14.65.36.88.28.38-.43.61-.48.61.68.84.64.45.26.69.24.42-1.19.66-1.19.39,1.11.63,1.13.44-.12.67-.08.38-.65.61-.59c0-.24-.65-.21-.67-.46s-.12-.55-.12-.79,0-.56.05-.8.38-.5.42-.74S17,21.22,17.07,21a5.39,5.39,0,0,1,.22-.64c.07-.23.1-.43.19-.65s-1.16-1-1.06-1.26,1.59.27,1.71.06-.36-.75-.22-.95-.06-.65.08-.84.54-.21.7-.4.24-.45.41-.62-.11-.88.07-1,.89.26,1.08.12.8.33,1,.2.29-.4.5-.51.31-.42.54-.51.21-.82.45-.9a6.17,6.17,0,0,1,.74-.19c.24-.06.64.71.88.68s.46,0,.7,0,.45-.06.7-.06.46-.14.7-.13.6-.95.85-.92.52.13.75.18.13,1.47.37,1.54.94-1.32,1.17-1.24.14,1,.36,1.11.16.74.37.85.64-.2.85-.07.14.61.33.75A5.55,5.55,0,0,1,32,16c.19.16.65,0,.83.12s1.1-.36,1.26-.18.14.58.28.78.42.35.55.56-.24,0-.12.26c.1-.22-.3-.06-.18-.27s1.11.11,1.25-.09-.71-1.16-.55-1.35,1.07.27,1.24.09.3-.38.48-.54.27-.44.46-.58.08-.78.28-.92,1,.76,1.24.64.41-.2.63-.3.49,0,.72-.06.09-1.17.32-1.24.41-.47.65-.52.71,1.13,1,1.09.33-1.39.57-1.41.55.89.79.89.49-.3.74-.28.37.8.61.84.79-1.44,1-1.38.4.59.63.66.27.68.5.77l.64.32c.21.12.28.43.49.57s1.1-.68,1.29-.53.26.53.44.69.08.65.25.83.11.54.26.73.24.41.38.61,0,.54.15.75,0,.48.15.7,1.61-.19,1.7,0,0,.58.07.81-1.3.88-1.24,1.12,1.09.23,1.13.47.17.48.2.72-.4.52-.39.76,1,.52,1,.76-.45.5-.48.74.19.57.14.81-.29.48-.36.71-1,.64-1.06.86c.22-.08.75-.62,1-.67a6.61,6.61,0,0,1,.7-.26c.23,0,.5.57.74.56s.41.26.64.29.68-1.22.91-1.17.39.54.62.61.7-.39.92-.3.09,1,.3,1.11.46.15.66.28.38.29.57.43.64,0,.82.14-.52,1.22-.36,1.39,1.5-.71,1.65-.53.32.42.46.61-.86,1.13-.74,1.33,1.34-.17,1.44,0-.38.71-.29.93.07.47.13.7.85.31.9.55.12.51.15.74-.36.55-.35.79-.15.49-.16.73-.94.42-1,.66,1.24.59,1.21.83.25.56.2.79-1.25.22-1.31.46.77.71.7.94.06.55,0,.78-1.64-.13-1.73.09,0,.47-.14.68.08.55,0,.76-.39.31-.51.51.3.73.17.93.27.77.13,1-.88,0-1,.16-.59.13-.74.31-.14.51-.3.69-.2.46-.36.64l-.49.54c-.17.18-.55.16-.71.34s.39,1,.24,1.16-.17.45-.32.64-1.18-.29-1.32-.09.7,1,.57,1.23-1.48-.3-1.59-.09S54.85,49.22,54.74,49.47Z" style="fill:#fff"/><path d="M53.45,57.12V57A62.24,62.24,0,0,0,33,60.41c-4.52,1.56-7.49,4.74-2.38,8a61.36,61.36,0,0,0,25.48,9Z" style="fill:#959a9d"/><path d="M20,13s-.09-4.27,1.48-4.27a7.75,7.75,0,0,1,3.24,3.36Z" style="fill:#1c1b1f"/><path d="M48.22,13s.09-4.27-1.47-4.27a7.75,7.75,0,0,0-3.25,3.36Z" style="fill:#1c1b1f"/><path d="M61.78,28.32s2.27-3.62.92-4.42a7.73,7.73,0,0,0-4.5,1.22Z" style="fill:#1c1b1f"/><path d="M4.1,28.32S1.84,24.7,3.18,23.9a7.73,7.73,0,0,1,4.5,1.22Z" style="fill:#1c1b1f"/><path d="M15.7,77.09c0,.08,5.29,3.45,5.66,3.77C25,84,34.9,89.36,34.5,94.33c-.19,2.32-2.13,3.85-4,4.85a22.54,22.54,0,0,1-11,2.35c-.66,0-7.77.07-7.59-1Z" style="fill:#959a9d"/><path d="M64,35.1a1,1,0,0,0-.32-1.42,1.15,1.15,0,0,0,0-.37,1,1,0,0,0,0-.38l.08-.11a.9.9,0,0,0,.09-.84,1.07,1.07,0,0,0-.14-.91A1.06,1.06,0,0,0,63.1,30a1.14,1.14,0,0,0-.05-.37,1.21,1.21,0,0,0-.2-.69,1.06,1.06,0,0,0-.67-1,1.13,1.13,0,0,0-.8-.55.8.8,0,0,0-.26-.09.86.86,0,0,0-.45-1,1,1,0,0,0-.77-.66,1,1,0,0,0-.77-.31.41.41,0,0,0-.09-.1,1.15,1.15,0,0,0-.66-.3,1.46,1.46,0,0,0-.34-.26L58,24.5a1.25,1.25,0,0,0-.91-.51,1.18,1.18,0,0,0-.8-.12,1.06,1.06,0,0,0-.93-.16,1.22,1.22,0,0,0-.65-.21,1.13,1.13,0,0,0-.48-1v0a1.06,1.06,0,0,0,.1-1.56,1.2,1.2,0,0,0,.08-1.2A1.3,1.3,0,0,0,53.8,19a1.15,1.15,0,0,0-.19-.26.86.86,0,0,0,0-.81,1.71,1.71,0,0,0,0-.31.87.87,0,0,0-.33-.52,1,1,0,0,0-.38-.87,1.38,1.38,0,0,0-.3-.65,1.05,1.05,0,0,0-.48-.35l-.2-.2,0-.07a1.07,1.07,0,0,0-.54-.84,1,1,0,0,0-.19-.16,1.12,1.12,0,0,0-1-.6,1,1,0,0,0-.8-.46,1,1,0,0,0-1.24-.59,1,1,0,0,0-.93-.53,1.19,1.19,0,0,0-.22-.23l-.19-.13a1.06,1.06,0,0,0-1-.26l-.12,0a1.07,1.07,0,0,0-1.15.09l-.16,0h0a.92.92,0,0,0-1.2-.15,2.1,2.1,0,0,0-.42.36,1.22,1.22,0,0,0-.42.06,1.1,1.1,0,0,0-1.3-.21,1,1,0,0,0-.78.38.61.61,0,0,0-.24.19.74.74,0,0,0-.21,0,1,1,0,0,0-1,.46,1.09,1.09,0,0,0-1,.39,1.15,1.15,0,0,0-1,.69h0a1.06,1.06,0,0,0-1.18,1.08.87.87,0,0,0-.55.24,1,1,0,0,0-.48.26,1.15,1.15,0,0,0-1-.69v-.1a1,1,0,0,0-.87-.74,1,1,0,0,0-.75-.23l0-.05a1,1,0,0,0-.74-.78,1.83,1.83,0,0,0-.52,0h0a1.83,1.83,0,0,0-.13-.16,1,1,0,0,0-1.12-.23.68.68,0,0,0-.21-.1.82.82,0,0,0-.56-.43,1.11,1.11,0,0,0-1.37,0,1,1,0,0,0-1.05.07,1.28,1.28,0,0,0-.56-.16l-.12,0a1,1,0,0,0-1.29,0l-.27,0a1.1,1.1,0,0,0-1.1.14,1,1,0,0,0-.67.13,1.17,1.17,0,0,0-.9.79,1.07,1.07,0,0,0-.57.39l-.12.08-.13,0a.9.9,0,0,0-.36,0,1,1,0,0,0-.62.25A1.07,1.07,0,0,0,19,14l-.18.11a1,1,0,0,0-.78.38,1.17,1.17,0,0,0-.34.42,1.08,1.08,0,0,0-.77.9,1.72,1.72,0,0,0-.07.21,1,1,0,0,0-.25.79,1.05,1.05,0,0,0-.88,1.36,1.07,1.07,0,0,0-.53.73,1,1,0,0,0-.14.91,1,1,0,0,0-.11.57,1.07,1.07,0,0,0-.14,1.06,1.1,1.1,0,0,0-.11.78l0,.07,0,.13a1.09,1.09,0,0,0-1.37.24,1.22,1.22,0,0,0-.71.42,1.12,1.12,0,0,0-.31-.1s0,0,0-.06A.89.89,0,0,0,11,22.78l-.15,0a1.16,1.16,0,0,0-1,.66,1,1,0,0,0-.69.4l-.21.07a1.1,1.1,0,0,0-1,.87.54.54,0,0,0,0,.11L7.64,25a1.11,1.11,0,0,0-.31.24,1,1,0,0,0-.64.31,1,1,0,0,0-.4.22,1.13,1.13,0,0,0-.71,1.13,1,1,0,0,0-.76.85,1.28,1.28,0,0,0-.15.25A1.08,1.08,0,0,0,4,29.29a1.24,1.24,0,0,0-.52.83.28.28,0,0,1,0,.09,1,1,0,0,0-.09.48,1.1,1.1,0,0,0,0,1s0,0,0,.05a1,1,0,0,0-.12,1.53.84.84,0,0,0,0,.47,1.1,1.1,0,0,0-.1,1,.93.93,0,0,0,0,.23,1.07,1.07,0,0,0,.2,1,.94.94,0,0,0,.13.44.91.91,0,0,0,.15.53.88.88,0,0,0,.28.67,1,1,0,0,0,.39,1.64,1.22,1.22,0,0,0,.25.83,1.14,1.14,0,0,0,.39.31l0,.12a1.06,1.06,0,0,0,.4,1.16,1,1,0,0,0,.12.23,1.27,1.27,0,0,0,.18.37,1.15,1.15,0,0,0,.24.54,2.09,2.09,0,0,0,.2.22,1.14,1.14,0,0,0,.76.62,1.33,1.33,0,0,0,.14.19A1,1,0,0,0,8,45a1.3,1.3,0,0,0,.26.51,1,1,0,0,0,.56.5l.14.08a1.07,1.07,0,0,0,.25.16,1,1,0,0,0,.54.88.89.89,0,0,0,.3.28,1.06,1.06,0,0,0,.15.15,1,1,0,0,0,.5.69,1.4,1.4,0,0,0,.34.13,1,1,0,0,0,.85.44,1,1,0,0,0,.2.29c-.07.69.67,1.1,1.3,1l.09,0a1.09,1.09,0,0,0,.38,1.21,1.14,1.14,0,0,0,0,.52,1.17,1.17,0,0,0,.09.45,1.44,1.44,0,0,0,.13.4,1.17,1.17,0,0,0,0,.88,1.09,1.09,0,0,0-.09.56.94.94,0,0,0,.07.7,1.45,1.45,0,0,0,0,.36v.07a1,1,0,0,0-.09.4v.12a.81.81,0,0,0,0,.35.92.92,0,0,0,.12,1.11.89.89,0,0,0-.13.89,1,1,0,0,0,0,1,1,1,0,0,0-.07.57,1.16,1.16,0,0,0,0,1.06,1,1,0,0,0,.1.44s0,0,0,.06a1.55,1.55,0,0,0-.06.23A1,1,0,0,0,14,62.6a1.07,1.07,0,0,0,.05.59,1,1,0,0,0-.06.92,1.12,1.12,0,0,0,.17.46,1.12,1.12,0,0,0-.27,1.3,1,1,0,0,0-.06.35,1.17,1.17,0,0,0-.16.6,1.09,1.09,0,0,0,.3.74,1.08,1.08,0,0,0,0,1.33,1.07,1.07,0,0,0-.1,1.23,0,0,0,0,0,0,0,1.07,1.07,0,0,0-.11.46,1,1,0,0,0,0,1.56,1,1,0,0,0-.17.58,1.11,1.11,0,0,0-.09.69,1,1,0,0,0,.09,1.1,1,1,0,0,0-.23,1,1.06,1.06,0,0,0-.14.79.87.87,0,0,0,0,.39,1.14,1.14,0,0,0-.14.7,1,1,0,0,0,0,1,1.06,1.06,0,0,0,.09.42,1,1,0,0,0-.32,1s0,0,0,0a1.47,1.47,0,0,0-.1.13.87.87,0,0,0-.12.73,1.15,1.15,0,0,0-.08.49,1.45,1.45,0,0,0,0,.29,1.1,1.1,0,0,1,0,.25,1,1,0,0,0,.32.75,1,1,0,0,0-.18.65,1.12,1.12,0,0,0-.05.31.75.75,0,0,0-.07.12,1.06,1.06,0,0,0-.12.7,1.07,1.07,0,0,0-.06,1.27,1.09,1.09,0,0,0-.07,1.21,1.06,1.06,0,0,0-.3,1,1.38,1.38,0,0,0-.21.44.94.94,0,0,0,.18.88,1.11,1.11,0,0,0-.3.93,1,1,0,0,0-.17.6,1.09,1.09,0,0,0-.05.59,1,1,0,0,0,0,.65,1.12,1.12,0,0,0,0,1,1.09,1.09,0,0,0-.13,1l-.06.09a1.13,1.13,0,0,0-.35,1.27.75.75,0,0,0,0,.15,3.5,3.5,0,0,0-.3,1.85,1.17,1.17,0,0,0,0,1,1.13,1.13,0,0,0-.16.67,1,1,0,0,0,.13.66,1.82,1.82,0,0,0,.27.35s.28.38.15.16a1.06,1.06,0,0,0,1.91-.27.88.88,0,0,0,.58-.77.92.92,0,0,0,.17-.36A1.07,1.07,0,0,0,14,97.61a1.14,1.14,0,0,0-.14-.37v-.1A1.1,1.1,0,0,0,14,95.8a1,1,0,0,0,.29-.94,1.18,1.18,0,0,0,.11-.71,1.07,1.07,0,0,0,0-1.58,1,1,0,0,0,.4-.46,1,1,0,0,0-.15-1.22h0a.94.94,0,0,0,.44-.57,1,1,0,0,0,.12-.81.93.93,0,0,0,0-.57,1.08,1.08,0,0,0,.14-1.12,1,1,0,0,0,.14-.69,1.12,1.12,0,0,0,.1-1.06,1.11,1.11,0,0,0,.2-1,1.17,1.17,0,0,0,.14-.69,1.06,1.06,0,0,0,.07-.8,1.07,1.07,0,0,0,0-.94.8.8,0,0,0,0-.53,1.35,1.35,0,0,0-.54-.76h0a.77.77,0,0,0,0-.15l.13,0a1.11,1.11,0,0,0,.57-1.61.83.83,0,0,0-.17-.32,1,1,0,0,0-.2-.5,1.18,1.18,0,0,0,0-.37,1.14,1.14,0,0,0,.27-.31l.2-.08a1.05,1.05,0,0,0,.48-1.17,1.08,1.08,0,0,0-.17-.41,1.12,1.12,0,0,0,.24-1.07,1.12,1.12,0,0,0,.08-.91.28.28,0,0,1,0-.09h0a1,1,0,0,0,0-1,1,1,0,0,0,.06-.71,1,1,0,0,0,0-1.09.84.84,0,0,0-.06-.24A1.1,1.1,0,0,0,17.1,70a1.07,1.07,0,0,0,.11-.87,1.14,1.14,0,0,0,0-.27,1.07,1.07,0,0,0-.09-.56,1.14,1.14,0,0,0,.19-1,.84.84,0,0,0-.09-.37,1.23,1.23,0,0,0,.12-.41,1,1,0,0,0,0-.24.92.92,0,0,0-.09-.87,1,1,0,0,0-.09-.78l0-.2a1.16,1.16,0,0,0,.25-1,1.1,1.1,0,0,0-.31-1.18.82.82,0,0,0,0-.27,1.11,1.11,0,0,0,.24-1.35s0-.06,0-.09a.84.84,0,0,0-.22-1,1.08,1.08,0,0,0,.29-.57.93.93,0,0,0-.21-1.39,1.25,1.25,0,0,0,0-.19,1,1,0,0,0,0-.79,1,1,0,0,0,0-1.35h0a1,1,0,0,0,.2-1.07.86.86,0,0,0-.21-1.09,1.15,1.15,0,0,0-.12-.25.9.9,0,0,0-.07-.27v0a1.14,1.14,0,0,0,.21-1.07A1.11,1.11,0,0,0,17.18,50a1,1,0,0,0-.86-1,1,1,0,0,0-.26-.57c-.13-.56-.59-1-1.23-.77l-.08,0a.85.85,0,0,0-.24-.42,1.06,1.06,0,0,0-.55-1,.91.91,0,0,0-.18-.21,1.21,1.21,0,0,0-.68-.58h0a1,1,0,0,0-.79-.55,1.27,1.27,0,0,0-.37-.89,1.1,1.1,0,0,0-.83-.56l-.1,0a1.17,1.17,0,0,0-.15-.27,1,1,0,0,0-.56-.51,1.14,1.14,0,0,0-.16-.15,1,1,0,0,0-.66-1.12A1.08,1.08,0,0,0,9,41.11a.94.94,0,0,0-.31-.73,1.24,1.24,0,0,0-.3-.35,1,1,0,0,0-.31-.54,1.6,1.6,0,0,0-.1-.23,1,1,0,0,0-.62-1.13,1,1,0,0,0-.27-.73A1.09,1.09,0,0,0,7,36.34a.92.92,0,0,0-.12-.51,1.09,1.09,0,0,0-.15-.75,1.07,1.07,0,0,0-.58-1.17,1.14,1.14,0,0,0,0-.37,1.19,1.19,0,0,0,.39-1.07,1.13,1.13,0,0,0,.11-1.27l0-.08a1.22,1.22,0,0,0,.54-.56,1,1,0,0,0,.27-1.12l0-.07a1.05,1.05,0,0,0,.73-.82.71.71,0,0,0,.08-.18l0,0a1.33,1.33,0,0,0,.2-.35,1.1,1.1,0,0,0,.32-.62,1,1,0,0,0,1.07-.29,1.09,1.09,0,0,0,.82-.59,1,1,0,0,0,.76-.29l.08-.09.15-.07a1.27,1.27,0,0,0,.95.09,1.2,1.2,0,0,0,.33-.05,1.48,1.48,0,0,0,.41-.12l.1-.05.1,0a1,1,0,0,0,.79-.11,1.09,1.09,0,0,0,.85.24,1,1,0,0,0,1,0l0,0,0,0a1.22,1.22,0,0,0,.18.34,1.08,1.08,0,0,0,.19.31.78.78,0,0,0,.16.24v0a2.23,2.23,0,0,0,.2.3,1,1,0,0,0,.44.51l.18.18c-.43-.41-.19-.14,0,.17a.83.83,0,0,0,.48.42.23.23,0,0,0,.07.07,2.34,2.34,0,0,0,.31.32,1,1,0,0,0,.78.61,1.68,1.68,0,0,0,.21.18c.83.69,2.29-.26,1.58-1.26a1.48,1.48,0,0,0-.42-.44s0,0,0,0l0,0h0l0,0a.17.17,0,0,1-.06-.06,1.92,1.92,0,0,0-.41-.31c-.09-.18-.19-.31-.27-.26a.9.9,0,0,0-.15-.19l-.09-.07a.71.71,0,0,0-.3-.34l0,0a1.18,1.18,0,0,0-.22-.27l0,0a1,1,0,0,0-.41-.59l-.16-.23a1.63,1.63,0,0,0-.17-.2,1.72,1.72,0,0,0-.23-.44c-.27-.38.27.41,0,0a1,1,0,0,1-.11-.18l-.13-.25a1,1,0,0,0-.15-.25.06.06,0,0,1,0,0s0,0,0-.05h0a1.15,1.15,0,0,0-.1-.23,1,1,0,0,0,0-1.44,1.1,1.1,0,0,0,.23-.44,1.08,1.08,0,0,0,.21-1,1,1,0,0,0,.08-.54.87.87,0,0,0,.11-.67,1,1,0,0,0,.14-.37,1.41,1.41,0,0,0,.34-.43,1.5,1.5,0,0,0,.23-.33,1,1,0,0,0,.27-.56,1,1,0,0,0,.31-.79,2.33,2.33,0,0,0,.17-.26.86.86,0,0,0,.78-.38.89.89,0,0,0,.45-.78,1,1,0,0,0,.2-.2,1.17,1.17,0,0,0,1.17-.5l0,0a1.07,1.07,0,0,0,.83-.3,1,1,0,0,0,.7-.08,1,1,0,0,0,.78-.26,1.15,1.15,0,0,0,.72-.15,1.27,1.27,0,0,0,.72.2,1.18,1.18,0,0,0,1-.16,1,1,0,0,0,.71.27,1.22,1.22,0,0,0,.69.36,1,1,0,0,0,1.14.12l.21,0a1,1,0,0,0,.58.62,1,1,0,0,0,1.12.62,1,1,0,0,0,.69.57,1.14,1.14,0,0,0,.32.22.84.84,0,0,0,.15.64.83.83,0,0,0,0,.22,1,1,0,0,0,.54.78.71.71,0,0,0,.15.15,1,1,0,0,0,.06.49c0,.12,0,.28,0,.35a1.35,1.35,0,0,0,0,.29,1,1,0,0,0,0,.52,1.21,1.21,0,0,0,0,.19,1.25,1.25,0,0,0,0,.38,1.07,1.07,0,0,0,0,.64,2.35,2.35,0,0,1-.07.23,1,1,0,0,0,.12.8,1.93,1.93,0,0,0,0,.24,1.15,1.15,0,0,0,0,.14,1.08,1.08,0,0,0,.08.91,1.12,1.12,0,0,0,.07.48,1.06,1.06,0,0,0,.1.7.92.92,0,0,0,.27.5,1.82,1.82,0,0,0,.75.43c1.06.34,1.61-1,1-1.68a2.33,2.33,0,0,0-.07-.25,1,1,0,0,0,0-.34,1.11,1.11,0,0,0-.11-.68c0-.05,0-.1,0-.16a1.1,1.1,0,0,0,0-.51.9.9,0,0,0-.07-.58,1.77,1.77,0,0,0,0-.23.29.29,0,0,0,0-.09,1,1,0,0,0,0-.84.85.85,0,0,0,0-.39.88.88,0,0,0,0-.17.28.28,0,0,0,0-.09,1,1,0,0,0,0-.48V20a.82.82,0,0,0,0-.22,1,1,0,0,0,0-.37l.25-.1a.83.83,0,0,0,.49-.66l.06-.05a1.24,1.24,0,0,0,.37-.8.86.86,0,0,0,.31-.32,1,1,0,0,0,.64-.76,1.07,1.07,0,0,0,1.08-.87l0-.05a1.15,1.15,0,0,0,.48-.24,1.24,1.24,0,0,0,.43,0,1.19,1.19,0,0,0,.71-.29l.12-.11a1,1,0,0,0,.5-.17,1,1,0,0,0,.56-.38,1.39,1.39,0,0,0,.35,0,1,1,0,0,0,.77.05,1,1,0,0,0,.79,0,.89.89,0,0,0,.78-.1,1,1,0,0,0,1.19-.21,1.09,1.09,0,0,0,.54.26h0a.83.83,0,0,0,.36.49.88.88,0,0,0,.73.48,1.11,1.11,0,0,0,.89.32c0,.67.7,1.07,1.33,1h.09a1.05,1.05,0,0,0,.26.13,1.14,1.14,0,0,0,.19.19,1.08,1.08,0,0,0,.16.42,1.24,1.24,0,0,0,0,.69,1.08,1.08,0,0,0,.46,1.17.94.94,0,0,0,.19.7.89.89,0,0,0,.1.51,1,1,0,0,0,.14.54,1.09,1.09,0,0,0,.15.86,1,1,0,0,0,0,1.1,1,1,0,0,0-.32.76,1,1,0,0,0-.06.48.92.92,0,0,0-.08.27.94.94,0,0,0,.15,1.23.1.1,0,0,0,0,0c0,.06,0,.11,0,.16a.94.94,0,0,0,0,.38l0,.1a.8.8,0,0,0-.11.25.88.88,0,0,0-.11.24v0a1.71,1.71,0,0,0-.12.23,1.09,1.09,0,0,0-.21.45.53.53,0,0,0-.1.2L50.2,28a1.18,1.18,0,0,0-.31.69l-.14.21a1,1,0,0,0-.44.43c-.92.45-.35,2.11.84,1.9a1.21,1.21,0,0,0,.6-.29c-.17.14-.44.34,0,0a1.41,1.41,0,0,0,.41-.47.79.79,0,0,0,.29-.45h0a.81.81,0,0,0,.24-.28.93.93,0,0,0,.07-.15,1.09,1.09,0,0,0,.25-.49l0,0a.79.79,0,0,0,.17-.31l.1-.15a1.15,1.15,0,0,0,.29-.7l.08-.19a1.34,1.34,0,0,0,.09-.26,1.51,1.51,0,0,0,.11-.22h0a.67.67,0,0,0,.06-.12l.18-.07a1,1,0,0,0,.55-.05,1.1,1.1,0,0,0,1-.17,1,1,0,0,0,.85.28l.17.05a1,1,0,0,0,.81.25l.08,0a1.23,1.23,0,0,0,.4.35,1.08,1.08,0,0,0,.44.41,1.07,1.07,0,0,0,.52.26,1.16,1.16,0,0,0,.45.12h0l.05,0a1,1,0,0,0,.24.42,1,1,0,0,0,.12.26,1,1,0,0,0,.76.77,1.07,1.07,0,0,0,.54.73,1.09,1.09,0,0,0,.1.88,1.23,1.23,0,0,0,.32.55.94.94,0,0,0,.25.71.06.06,0,0,0,0,0,.93.93,0,0,0-.1,1.18,1.12,1.12,0,0,0,.14.63.93.93,0,0,0,0,.37,1.11,1.11,0,0,0-.09.19,1,1,0,0,0-.31.94,1.12,1.12,0,0,0,0,.32,1,1,0,0,0-.26,1,.65.65,0,0,0,0,.24.88.88,0,0,0,.09.69,1.1,1.1,0,0,0-.17.4.93.93,0,0,0-.81,1,1,1,0,0,0-.27.36,1,1,0,0,0-.37.58,1,1,0,0,0-.28.75,1.06,1.06,0,0,0-.66.66,1,1,0,0,0-.87.93,1.19,1.19,0,0,0-.21.29,1,1,0,0,0-.73.64,1.09,1.09,0,0,0-.6,1.11,1.21,1.21,0,0,0-.2.3,1.18,1.18,0,0,0-.54.56,1,1,0,0,0-1,.91,1.09,1.09,0,0,0-.23.65A1.15,1.15,0,0,0,53.18,49,1.19,1.19,0,0,0,53,50.09v.13a1.15,1.15,0,0,0-.57.91l-.1.2a1.07,1.07,0,0,0-.45,1.18.93.93,0,0,0-.11.65,1.14,1.14,0,0,0,0,.92.92.92,0,0,0,.11.46,1.1,1.1,0,0,0,0,.4.76.76,0,0,0-.06.2.93.93,0,0,0-.05.73,1,1,0,0,0,.09.89,1.21,1.21,0,0,0,.16.58,1,1,0,0,0-.18,1,1,1,0,0,0,0,.77,1,1,0,0,0,.07,1,1.16,1.16,0,0,0,.43,1.27.85.85,0,0,0,.22.28.54.54,0,0,1,.05.11,1.1,1.1,0,0,0,0,.74,1.1,1.1,0,0,0-.05.47.92.92,0,0,0-.31.9,1,1,0,0,0-.07.71,1.16,1.16,0,0,0,.14.85,1.16,1.16,0,0,0,.35,1.13h0a1,1,0,0,0,0,.64,1,1,0,0,0,0,1,.88.88,0,0,0-.08.41,1.65,1.65,0,0,0,.32.8,1.08,1.08,0,0,0,.31,1.27.5.5,0,0,0,0,.13,1,1,0,0,0,.17,1.42.85.85,0,0,0,.09.24v0A1.05,1.05,0,0,0,53.69,74a1.15,1.15,0,0,0-.15.63,1.09,1.09,0,0,0,.12.93,1,1,0,0,0,.3,1.22,1.07,1.07,0,0,0,.31.52v0a1.06,1.06,0,0,0-.08.9,1.1,1.1,0,0,0,.31,1.22.57.57,0,0,0,0,.13,1.14,1.14,0,0,0,.23,1.13,1.08,1.08,0,0,0,.16.3.08.08,0,0,0,0,0,1.08,1.08,0,0,0,.15,1.31,1,1,0,0,0,0,.35A1,1,0,0,0,55.53,84h0a1,1,0,0,0,.37,1.42A1,1,0,0,0,56,86.78s0,.09,0,.13a1.05,1.05,0,0,0,.57.67,1.74,1.74,0,0,0-.19.26,1,1,0,0,0,0,1,.92.92,0,0,0,.24.6.9.9,0,0,0,.19.42,1,1,0,0,0,.15.45,1,1,0,0,0,.5,1.39.59.59,0,0,0,.18.13l.19.07a1.15,1.15,0,0,0,.07.61A1,1,0,0,0,58,93l0,0a.8.8,0,0,0-.31.84A1,1,0,0,0,58,95.14a1,1,0,0,0,.25.4l-.06.19a1,1,0,0,0,.32,1.35.88.88,0,0,0,.13.6,1.5,1.5,0,0,0,.49.44,1.55,1.55,0,0,0-.07.23,1.36,1.36,0,0,0-.24.85,1,1,0,0,0,.59,1c-.22.56-.08,1.27.63,1.38a2.53,2.53,0,0,0,.55,0s.73,0,.3-.11a1.25,1.25,0,0,0,1.33-.82,1.89,1.89,0,0,0,.09-.21,1,1,0,0,0,.12-.86A.92.92,0,0,0,62,98.41a1.14,1.14,0,0,0-.06-.75,1.1,1.1,0,0,0-.06-1,49.45,49.45,0,0,1-.28-1.51.73.73,0,0,0-.14-.31,1,1,0,0,0-.11-.69,1,1,0,0,0-.33-.85.92.92,0,0,0-.08-.93,1.18,1.18,0,0,0-.23-.55,1.16,1.16,0,0,0-.19-.44,1.07,1.07,0,0,0-.13-1.08.9.9,0,0,0-.43-1.05.61.61,0,0,0-.07-.14,1,1,0,0,0-.41-1.24,1,1,0,0,0-.18-.73v0l0,0a1.14,1.14,0,0,0,0-1.37,1,1,0,0,0-.08-.24,1,1,0,0,0-.27-.71,1,1,0,0,0-.05-.58,1.08,1.08,0,0,0-.22-.86.78.78,0,0,0-.23-.46s0,0,0,0a1,1,0,0,0-.26-1v0A1.1,1.1,0,0,0,58,81.3a1.07,1.07,0,0,0-.2-.71,1.09,1.09,0,0,0,.08-1.34,1.09,1.09,0,0,0-.21-.94,1,1,0,0,0-.22-.53,1.5,1.5,0,0,0,.1-1,.91.91,0,0,0-.18-.37,1,1,0,0,0-.36-.66,1.07,1.07,0,0,0-.27-1.38l0-.07a1,1,0,0,0,.06-1.2.93.93,0,0,0-.31-.59.91.91,0,0,0-.07-.25,1.06,1.06,0,0,0-.12-.55.85.85,0,0,0,0-.22,1.08,1.08,0,0,0,.06-.5,1.35,1.35,0,0,0,.08-.52,1,1,0,0,0-.19-.87,1,1,0,0,0-.34-1.07,1.32,1.32,0,0,0,0-.28A1.12,1.12,0,0,0,56,67.2a1,1,0,0,0-.13-.71,1,1,0,0,0,0-.55,1.09,1.09,0,0,0-.16-.5,1.39,1.39,0,0,0,0-.35,1.1,1.1,0,0,0-.2-1.18.87.87,0,0,0,.05-.28,1.09,1.09,0,0,0-.07-.79,1,1,0,0,0,0-.72,1.09,1.09,0,0,0,0-.26,1.14,1.14,0,0,0-.31-1l0-.14a1,1,0,0,0,0-1,1,1,0,0,0-.17-1.15,1,1,0,0,0,0-.66,1,1,0,0,0,0-.48,1,1,0,0,0,.27-.78,1.16,1.16,0,0,0-.26-.83,1.34,1.34,0,0,0-.07-.18l0-.1a1.12,1.12,0,0,0,.27-1.31,1.08,1.08,0,0,0-.1-.43,2.26,2.26,0,0,0,0-.26,1.08,1.08,0,0,0,.2-1.28h0a1.06,1.06,0,0,0,.16-.9,1.92,1.92,0,0,0,.09-.32A1,1,0,0,0,56,50v0a1,1,0,0,0,.52-1,1.08,1.08,0,0,0,.74-.9.9.9,0,0,0,.08-.21,1.08,1.08,0,0,0,.31-.43,1.31,1.31,0,0,0,.21-.36.16.16,0,0,0,0-.07,1.3,1.3,0,0,0,.74-.34.79.79,0,0,0,.2-.25.9.9,0,0,0,.44-1.07,1,1,0,0,0,.81-.75.94.94,0,0,0,.26-.44,1.09,1.09,0,0,0,.29-.23,1.14,1.14,0,0,0,.55-1.12.86.86,0,0,0,.13-.14c.74,0,1-.86.76-1.47a.52.52,0,0,0,.06-.16,1,1,0,0,0,.9-.86,1.13,1.13,0,0,0,.22-.71,1,1,0,0,0,.21-1,1.11,1.11,0,0,0,.32-.4,1.21,1.21,0,0,0-.09-1.31A1.06,1.06,0,0,0,64,35.1ZM7,30.71l.08-.06ZM8,26.4v0H8l0,.05Zm10.66-.56h0l-.13-.16C18.46,25.57,18.6,25.75,18.67,25.84Zm31.48,2.91h.12Zm2.47-.89,0-.09C52.69,27.69,52.65,27.77,52.62,27.86Zm8.24,73.59c-.13.09-.12,0,0,0Z" style="fill:#1c1b1f"/><path d="M20.68,28l0,0C20.66,28,20.32,27.59,20.68,28Z" style="fill:#1c1b1f"/></svg>