<svg id="레이어_1" data-name="레이어 1" xmlns="http://www.w3.org/2000/svg" viewBox="0 0 68 140"><polygon points="13.64 90.24 10.34 89.54 14.02 91.28 13.54 92.32 10.78 92.98 10.28 94.02 11.72 95.39 12.29 96.6 12.25 97.72 11.24 98.68 12.72 100.06 12.39 101.13 12.01 102.19 8.62 102.75 10.22 104.14 10.27 105.28 11.14 106.55 10.5 107.57 6.66 108.06 6.33 109.13 9.75 110.83 6.47 111.41 9.45 113.03 9.86 114.23 6.58 114.81 9.58 116.44 9.03 117.48 6.76 118.22 8.43 119.63 6.8 120.49 9.03 121.99 5.04 122.45 4.77 123.54 5.77 124.83 7.74 126.29 6.23 127.17 5.42 128.16 3.48 128.97 5.65 130.47 3.67 132.67 6.16 131.04 7.28 133.88 8.39 130.56 9.51 129.1 10.62 132.64 11.74 130.47 12.85 133.06 13.97 132.52 15.08 130.81 16.19 132.2 17.3 131.88 18.41 131.47 19.53 132.3 20.64 130.6 21.76 130.48 22.87 133.4 23.98 132.3 25.09 131.65 26.21 132.45 27.32 130.73 28.43 132.87 29.54 133.29 30.66 130.95 31.77 132.27 32.89 131.96 34.01 130.52 35.12 131.64 36.23 132.1 37.35 130.28 38.46 130.37 39.58 133.42 40.7 133.32 41.81 132.79 42.93 132.19 44.05 130.2 45.16 132.07 46.28 133.63 47.4 133.17 48.51 131.03 49.63 130.49 50.74 129.43 51.86 129.4 52.98 130.38 54.09 132.87 55.21 130.46 56.33 133.34 57.45 132.91 58.57 130.2 59.69 131.58 60.81 129.25 61.93 130.59 63.06 129.66 62.59 130.13 66.14 130.1 63.99 129.27 64.31 128.09 65.22 126.83 63.21 125.98 60.92 125.18 65.06 123.45 65.28 122.28 63.15 121.45 64.71 120.1 62.12 119.33 60.69 118.4 62.67 116.98 62.93 115.81 63.3 114.62 60.27 113.92 61.06 112.67 60.15 111.67 60.85 110.44 60.28 109.38 60.2 108.25 62.24 106.83 59.7 106.05 61.33 104.68 60.42 103.67 60.52 102.52 59.4 101.54 58.87 100.48 61.17 99 59.03 98.08 60.49 98.75 60.94 97.56 60.41 96.65 62 95.11 60.87 94.25 59 93.58 59.24 92.38 58.95 91.31 57.08 90.63 59.98 88.78 61.03 87.39 56.85 87.26 59.9 85.4 59.14 84.45 55.63 84.11 57.95 82.45 55.48 81.86 58.52 80.07 56.06 79.47 58.83 77.76 56.79 77.06 56.05 76.07 54.82 75.18 58.04 73.46 54.03 73.06 53.91 71.95 55.72 70.52 52.87 69.85 55.97 68.26 53.79 67.46 52.04 66.56 53.81 65.21 53.54 64.13 52.09 63.16 53.03 61.94 51.73 60.94 54.54 59.59 55.28 58.43 52.38 57.51 52.87 56.37 52.94 55.25 51.46 54.18 55.78 52.98 54.18 51.89 53.8 50.76 55.38 49.85 56.14 48.99 55.48 47.84 55.47 46.78 55.84 46.13 54.84 44.3 56.63 44.26 56.15 42.45 55.77 40.63 57.76 40.97 58.9 40.52 57.76 38.37 61.56 39.68 61.89 38.52 59.01 35.88 62.64 36.32 64.24 35.6 61.96 33.8 62.74 32.85 60.53 31.66 63.79 30.59 64.74 29.21 62.57 28.43 63.19 26.82 61.68 26.14 58.73 26.97 60.21 24.14 59.91 22.44 57.82 23.35 56.57 23.42 56.09 20.44 54.48 24.69 53.72 24.54 51.33 23.77 50.73 21.22 51.83 20.48 53.53 19.47 52.66 18.37 54.07 16.91 51.39 16.5 52.86 14.67 49.73 15.14 48.97 14.59 48.69 13.64 48.67 12.21 46.97 13.04 47.59 9.57 46.65 8.3 45.38 7.5 43.97 7.66 42.91 11.01 41.79 10.47 41.28 12.37 40.2 12.12 39.36 12.57 38.15 12.53 38.42 14.3 35.72 13.13 33.62 13.18 34.96 17.35 32.32 15.66 32.96 14.04 31.3 14.41 33.01 10.71 30.25 12.94 30.04 11.26 28.86 11.48 27.78 11.82 27.37 8.03 25.98 12.16 24.99 10.31 24.19 11.56 22.85 10.38 21.43 9.9 21.52 12.29 20.72 12.8 20.36 13.81 18 13.03 16.32 13.27 15.85 14.44 18.16 16.74 18.54 17.82 15.2 18.06 16.68 19.36 17.62 20.33 15 19.92 14.81 23.43 13.98 21.57 12.81 20.93 11.64 21.09 10.08 20.38 10.56 24.01 8.67 22.91 8.22 24.1 7.28 24.68 5.54 24.86 7.54 27.13 6.99 27.84 6.74 28.68 6.08 29.51 3.75 30.43 3.27 31.64 7.28 32.21 3.36 34.08 5.08 34.8 6.75 35.32 4.97 37.3 4.98 38.65 7.38 38.53 8.55 39.03 7.58 41.16 9.95 40.63 9.12 42.86 11.6 42.01 12.6 42.52 11.51 45.22 14.27 43.87 13.78 46.01 13.38 47.86 15.53 47.52 17.75 48.25 15.45 49.45 13.57 50.56 14.81 51.64 15.97 52.73 16.56 53.83 17.92 54.94 16.5 56.02 17.4 57.13 14.51 58.18 16.2 59.31 17.76 60.45 13.74 61.42 13.73 62.51 15.47 63.67 16.52 64.82 16.1 65.89 13.69 66.86 16.52 68.12 17.06 69.26 16.47 70.32 16.52 71.43 17.03 72.58 16.39 73.63 17.22 74.81 12.88 75.51 12.46 76.56 12.81 77.69 13.31 78.83 12.24 79.81 12.03 80.88 16.34 82.5 13.54 83.26 11.74 84.13 11.64 85.21 14.91 86.76 14.88 87.87 13.36 88.67 13.64 90.24" style="fill:#fff"/><path d="M53.45,54.12V54A62.24,62.24,0,0,0,33,57.41c-4.52,1.56-7.49,4.74-2.38,8a61.36,61.36,0,0,0,25.48,9Z" style="fill:#959a9d"/><path d="M57.45,101.12V101c-5.94,2.29-13.59,4.36-20.47,3.37-14.47-2.08-13,11.47-7.47,13.92,9,4,21.43,7.92,30,7C58.62,118.57,58.32,107.89,57.45,101.12Z" style="fill:#959a9d"/><path d="M20,10s-.09-4.27,1.48-4.27a7.75,7.75,0,0,1,3.24,3.36Z" style="fill:#1c1b1f"/><path d="M48.22,10s.09-4.27-1.47-4.27A7.75,7.75,0,0,0,43.5,9.13Z" style="fill:#1c1b1f"/><path d="M61.78,25.32s2.27-3.62.92-4.42a7.73,7.73,0,0,0-4.5,1.22Z" style="fill:#1c1b1f"/><path d="M4.1,25.32S1.84,21.7,3.18,20.9a7.73,7.73,0,0,1,4.5,1.22Z" style="fill:#1c1b1f"/><path d="M15.7,74.09c0,.08,5.29,3.45,5.66,3.77C25,81,34.9,86.36,34.5,91.33c-.19,2.32-2.13,3.85-4,4.85a22.54,22.54,0,0,1-11,2.35c-.66,0-7.77.07-7.59-1Z" style="fill:#959a9d"/><path d="M11.43,86.94c.47,1.5.09,3-.14,4.58-.09.56-.37,1-.47,1.6-.27,1.48.71,0-.09,1.08A1.55,1.55,0,0,0,10.49,96l.95,1.25.23-1.82-1.14,1a1.51,1.51,0,0,0-.24,1.82l.63,1.2.53-2-1.31.92A1.53,1.53,0,0,0,9.45,100a17.8,17.8,0,0,0,1.3,2.76l.54-2.06c-2.69,1.65-2.84,4.73-1.68,7.46l.24-1.82A6.92,6.92,0,0,0,8,109.19a11,11,0,0,0,0,1.52c-.1,1.51,1-.22.09.92a1.53,1.53,0,0,0-.24,1.81c1.13,1.77.14-.42,0,.73a7.74,7.74,0,0,0-.14,1.32c0,.17.11,2.15.38,1.22s-.85.47-1,.69a9.47,9.47,0,0,0-.41,3.35c0,1.77,1.64.27-.22,1.52a1.54,1.54,0,0,0-.3,2.36l1,1.27.3-2.35-1.51.89a1.51,1.51,0,0,0-.3,2.35l1.41,1.34.3-2.36-1.39.92a1.52,1.52,0,0,0-.54,2.05L6.36,130c1,1.63,3.63.13,2.59-1.51l-.79-1.24-.54,2,1.4-.92a1.52,1.52,0,0,0,.3-2.35l-1.41-1.34L7.61,127l1.5-.89a1.52,1.52,0,0,0,.31-2.36l-1.05-1.27-.3,2.35c1.49-1,2.43-1.73,2.32-3.68-.09-1.62-1.23-1.64.27-2.91a1.49,1.49,0,0,0,.39-1.46c-.24-1-.43-1.32.17-2.13a1.46,1.46,0,0,0,0-1.51l-.79-1.24-.23,1.82c1.54-2,.23-3.53,1.77-5.31a1.61,1.61,0,0,0,.23-1.82c-.82-1.91.09,1,0-.72,0-.3.26-.59.18-1-.39-1.77-.88-.84.48-1.67a1.52,1.52,0,0,0,.53-2,12.8,12.8,0,0,1-1-2l-.69,1.7L13,100a1.55,1.55,0,0,0,.54-2l-.63-1.21-.23,1.82,1.14-.94A1.5,1.5,0,0,0,14,95.76l-.95-1.26-.23,1.82c1.77-2.28,2.38-7.25,1.47-10.18-.57-1.84-3.47-1-2.89.8Z" style="fill:#1c1b1f"/><path d="M8,23.37v0H8l0-.05Z" style="fill:none"/><path d="M20.7,25.06s0,0,0,0l0,0h0Z" style="fill:none"/><path d="M52.62,24.86c0-.09.07-.17,0-.09Z" style="fill:none"/><path d="M18.66,22.84h0c-.07-.09-.21-.27-.14-.16Z" style="fill:none"/><path d="M50.15,25.75l.12,0h-.12Z" style="fill:none"/><path d="M20.68,25l0,0C20.66,25,20.32,24.58,20.68,25Z" style="fill:#1c1b1f"/><path d="M64,32.1a1,1,0,0,0-.32-1.42,1.15,1.15,0,0,0,0-.37,1,1,0,0,0,0-.38l.08-.11a.9.9,0,0,0,.09-.84,1.07,1.07,0,0,0-.14-.91A1.06,1.06,0,0,0,63.1,27a1.14,1.14,0,0,0-.05-.37,1.21,1.21,0,0,0-.2-.69,1.06,1.06,0,0,0-.67-1,1.13,1.13,0,0,0-.8-.55.8.8,0,0,0-.26-.09.86.86,0,0,0-.45-1,1,1,0,0,0-.77-.66,1,1,0,0,0-.77-.31.41.41,0,0,0-.09-.1,1.15,1.15,0,0,0-.66-.3,1.46,1.46,0,0,0-.34-.26L58,21.5a1.25,1.25,0,0,0-.91-.51,1.18,1.18,0,0,0-.8-.12,1.06,1.06,0,0,0-.93-.16,1.22,1.22,0,0,0-.65-.21,1.13,1.13,0,0,0-.48-1,.06.06,0,0,1,0,0,1.07,1.07,0,0,0,.09-1.56,1.2,1.2,0,0,0,.08-1.2A1.3,1.3,0,0,0,53.8,16a1.15,1.15,0,0,0-.19-.26.86.86,0,0,0,0-.81,1.71,1.71,0,0,0,0-.31.87.87,0,0,0-.33-.52,1,1,0,0,0-.38-.87,1.38,1.38,0,0,0-.3-.65,1.05,1.05,0,0,0-.48-.35l-.2-.2,0-.07a1.07,1.07,0,0,0-.54-.84,1,1,0,0,0-.19-.16,1.12,1.12,0,0,0-1-.6,1,1,0,0,0-.8-.46,1,1,0,0,0-1.24-.59,1,1,0,0,0-.93-.53A1.19,1.19,0,0,0,47,8.59l-.19-.13a1.06,1.06,0,0,0-1-.26l-.12,0a1.07,1.07,0,0,0-1.15.09l-.16,0h0a.92.92,0,0,0-1.2-.15,2.1,2.1,0,0,0-.42.36,1.22,1.22,0,0,0-.42.06A1.1,1.1,0,0,0,41,8.36a1,1,0,0,0-.78.38.61.61,0,0,0-.24.19.74.74,0,0,0-.21,0,1,1,0,0,0-1,.46,1.09,1.09,0,0,0-1,.39,1.15,1.15,0,0,0-1,.69h0a1.06,1.06,0,0,0-1.18,1.08.87.87,0,0,0-.55.24,1,1,0,0,0-.48.26,1.15,1.15,0,0,0-1-.69v-.1a1,1,0,0,0-.87-.74,1,1,0,0,0-.75-.23l0-.05a1,1,0,0,0-.74-.78,1.83,1.83,0,0,0-.52,0h0a1.83,1.83,0,0,0-.13-.16,1,1,0,0,0-1.12-.23.68.68,0,0,0-.21-.1.82.82,0,0,0-.56-.43,1.11,1.11,0,0,0-1.37,0,1,1,0,0,0-1.05.07,1.28,1.28,0,0,0-.56-.16l-.12,0a1,1,0,0,0-1.29,0l-.27,0a1.1,1.1,0,0,0-1.1.14,1,1,0,0,0-.67.13,1.17,1.17,0,0,0-.9.79,1.07,1.07,0,0,0-.57.39l-.12.08-.13,0a.9.9,0,0,0-.36,0,1,1,0,0,0-.62.25A1.07,1.07,0,0,0,19,11l-.18.11a1,1,0,0,0-.78.38,1.17,1.17,0,0,0-.34.42,1.08,1.08,0,0,0-.77.9,1.72,1.72,0,0,0-.07.21,1,1,0,0,0-.25.79,1.05,1.05,0,0,0-.88,1.36,1.07,1.07,0,0,0-.53.73,1,1,0,0,0-.14.91,1,1,0,0,0-.11.57,1.07,1.07,0,0,0-.14,1.06,1.1,1.1,0,0,0-.11.78l0,.07,0,.13a1.09,1.09,0,0,0-1.37.24,1.22,1.22,0,0,0-.71.42,1.12,1.12,0,0,0-.31-.1s0,0,0-.06A.89.89,0,0,0,11,19.78l-.15,0a1.16,1.16,0,0,0-1,.66,1,1,0,0,0-.69.4l-.21.07a1.1,1.1,0,0,0-1,.87.54.54,0,0,0,0,.11L7.64,22a1.11,1.11,0,0,0-.31.24,1,1,0,0,0-.64.31,1,1,0,0,0-.4.22,1.13,1.13,0,0,0-.71,1.13,1,1,0,0,0-.76.85,1.28,1.28,0,0,0-.15.25A1.08,1.08,0,0,0,4,26.29a1.24,1.24,0,0,0-.52.83.28.28,0,0,1,0,.09,1,1,0,0,0-.09.48,1.1,1.1,0,0,0,0,1s0,0,0,.05a1,1,0,0,0-.12,1.53.84.84,0,0,0,0,.47,1.1,1.1,0,0,0-.1,1,.93.93,0,0,0,0,.23,1.07,1.07,0,0,0,.2,1,.94.94,0,0,0,.13.44.91.91,0,0,0,.15.53.88.88,0,0,0,.28.67,1,1,0,0,0,.39,1.64,1.22,1.22,0,0,0,.25.83,1.14,1.14,0,0,0,.39.31l0,.12a1.06,1.06,0,0,0,.4,1.16,1,1,0,0,0,.12.23,1.27,1.27,0,0,0,.18.37,1.15,1.15,0,0,0,.24.54,2.09,2.09,0,0,0,.2.22,1.14,1.14,0,0,0,.76.62,1.33,1.33,0,0,0,.14.19A1,1,0,0,0,8,42a1.3,1.3,0,0,0,.26.51,1,1,0,0,0,.56.5l.14.08a1.07,1.07,0,0,0,.25.16,1,1,0,0,0,.54.88.89.89,0,0,0,.3.28,1.06,1.06,0,0,0,.15.15,1,1,0,0,0,.5.69,1.4,1.4,0,0,0,.34.13,1,1,0,0,0,.85.44,1,1,0,0,0,.2.29c-.07.69.67,1.1,1.3,1l.09,0a1.09,1.09,0,0,0,.38,1.21,1.14,1.14,0,0,0,0,.52,1.17,1.17,0,0,0,.09.45,1.44,1.44,0,0,0,.13.4,1.17,1.17,0,0,0,0,.88,1.09,1.09,0,0,0-.09.56.94.94,0,0,0,.07.7,1.45,1.45,0,0,0,0,.36v.07a1,1,0,0,0-.09.4v.12a.81.81,0,0,0,0,.35.92.92,0,0,0,.12,1.11.89.89,0,0,0-.13.89,1,1,0,0,0,0,1,1,1,0,0,0-.07.57,1.16,1.16,0,0,0,0,1.06,1,1,0,0,0,.1.44s0,0,0,.06a1.55,1.55,0,0,0-.06.23A1,1,0,0,0,14,59.6a1.07,1.07,0,0,0,.05.59,1,1,0,0,0-.06.92,1.12,1.12,0,0,0,.17.46,1.12,1.12,0,0,0-.27,1.3,1,1,0,0,0-.06.35,1.17,1.17,0,0,0-.16.6,1.09,1.09,0,0,0,.3.74,1.08,1.08,0,0,0,0,1.33,1.07,1.07,0,0,0-.1,1.23,0,0,0,0,0,0,0,1.07,1.07,0,0,0-.11.46,1,1,0,0,0,0,1.56,1,1,0,0,0-.17.58,1.11,1.11,0,0,0-.09.69,1,1,0,0,0,.09,1.1,1,1,0,0,0-.23,1,1.06,1.06,0,0,0-.14.79.87.87,0,0,0,0,.39,1.14,1.14,0,0,0-.14.7,1,1,0,0,0,0,1,1.06,1.06,0,0,0,.09.42,1,1,0,0,0-.32,1s0,0,0,0a1.47,1.47,0,0,0-.1.13.87.87,0,0,0-.12.73,1.15,1.15,0,0,0-.08.49,1.45,1.45,0,0,0,0,.29,1.1,1.1,0,0,1,0,.25,1,1,0,0,0,.32.75,1,1,0,0,0-.18.65,1.12,1.12,0,0,0-.05.31.75.75,0,0,0-.07.12,1.06,1.06,0,0,0-.12.7,1.07,1.07,0,0,0-.06,1.27,1.09,1.09,0,0,0-.07,1.21,1.06,1.06,0,0,0-.3,1,1.38,1.38,0,0,0-.21.44.94.94,0,0,0,.18.88,1.11,1.11,0,0,0-.3.93,1,1,0,0,0-.17.6,1.09,1.09,0,0,0-.05.59,1,1,0,0,0,0,.65,1.12,1.12,0,0,0,0,1,1.06,1.06,0,0,0-.13,1l-.06.09a1.13,1.13,0,0,0-.35,1.27.75.75,0,0,0,0,.15,3.5,3.5,0,0,0-.3,1.85,1.17,1.17,0,0,0,0,1,1.13,1.13,0,0,0-.16.67,1,1,0,0,0,.13.66,1.82,1.82,0,0,0,.27.35s.28.38.15.16a1.06,1.06,0,0,0,1.91-.27.88.88,0,0,0,.58-.77.92.92,0,0,0,.17-.36A1.07,1.07,0,0,0,14,94.61a1.14,1.14,0,0,0-.14-.37v-.1A1.1,1.1,0,0,0,14,92.8a1,1,0,0,0,.29-.94,1.18,1.18,0,0,0,.11-.71,1.07,1.07,0,0,0,0-1.58,1,1,0,0,0,.4-.46,1,1,0,0,0-.15-1.22h0a.94.94,0,0,0,.44-.57,1,1,0,0,0,.12-.81.93.93,0,0,0,0-.57,1.08,1.08,0,0,0,.14-1.12,1,1,0,0,0,.14-.69,1.12,1.12,0,0,0,.1-1.06,1.11,1.11,0,0,0,.2-1,1.17,1.17,0,0,0,.14-.69,1.06,1.06,0,0,0,.07-.8,1.07,1.07,0,0,0,0-.94.8.8,0,0,0,0-.53,1.35,1.35,0,0,0-.54-.76h0a.77.77,0,0,0,0-.15l.13,0a1.11,1.11,0,0,0,.57-1.61.83.83,0,0,0-.17-.32,1,1,0,0,0-.2-.5,1.18,1.18,0,0,0,0-.37,1.14,1.14,0,0,0,.27-.31l.2-.08a1.05,1.05,0,0,0,.48-1.17,1.08,1.08,0,0,0-.17-.41,1.12,1.12,0,0,0,.24-1.07,1.12,1.12,0,0,0,.08-.91.28.28,0,0,1,0-.09h0a1,1,0,0,0,0-1,1,1,0,0,0,.06-.71,1,1,0,0,0,0-1.09.84.84,0,0,0-.06-.24A1.1,1.1,0,0,0,17.1,67a1.07,1.07,0,0,0,.11-.87,1.14,1.14,0,0,0,0-.27,1.07,1.07,0,0,0-.09-.56,1.14,1.14,0,0,0,.19-1,.84.84,0,0,0-.09-.37,1.23,1.23,0,0,0,.12-.41,1,1,0,0,0,0-.24.92.92,0,0,0-.09-.87,1,1,0,0,0-.09-.78l0-.2a1.16,1.16,0,0,0,.25-1,1.1,1.1,0,0,0-.31-1.18.82.82,0,0,0,0-.27,1.11,1.11,0,0,0,.24-1.35s0-.06,0-.09a.84.84,0,0,0-.22-1,1.08,1.08,0,0,0,.29-.57.93.93,0,0,0-.21-1.39,1.25,1.25,0,0,0,0-.19,1,1,0,0,0,0-.79,1,1,0,0,0,0-1.35h0a1,1,0,0,0,.2-1.07.86.86,0,0,0-.21-1.09,1.15,1.15,0,0,0-.12-.25.9.9,0,0,0-.07-.27v0a1.14,1.14,0,0,0,.21-1.07A1.11,1.11,0,0,0,17.18,47a1,1,0,0,0-.86-1,1,1,0,0,0-.26-.57c-.13-.56-.59-1-1.23-.77l-.08,0a.85.85,0,0,0-.24-.42,1.06,1.06,0,0,0-.55-1,.91.91,0,0,0-.18-.21,1.21,1.21,0,0,0-.68-.58h0a1,1,0,0,0-.79-.56,1.26,1.26,0,0,0-.37-.88,1.1,1.1,0,0,0-.83-.56l-.1,0a1.17,1.17,0,0,0-.15-.27,1,1,0,0,0-.56-.51,1.14,1.14,0,0,0-.16-.15,1,1,0,0,0-.66-1.12A1.08,1.08,0,0,0,9,38.11a.94.94,0,0,0-.31-.73,1.24,1.24,0,0,0-.3-.35,1,1,0,0,0-.31-.54,1.6,1.6,0,0,0-.1-.23,1,1,0,0,0-.62-1.13,1,1,0,0,0-.27-.73A1.09,1.09,0,0,0,7,33.34a.92.92,0,0,0-.12-.51,1.09,1.09,0,0,0-.15-.75,1.07,1.07,0,0,0-.58-1.17,1.14,1.14,0,0,0,0-.37,1.19,1.19,0,0,0,.39-1.07,1.13,1.13,0,0,0,.11-1.27l0-.08a1.22,1.22,0,0,0,.54-.56,1,1,0,0,0,.27-1.12l0-.07a1.05,1.05,0,0,0,.73-.82.71.71,0,0,0,.08-.18l0,0a1.33,1.33,0,0,0,.2-.35,1.1,1.1,0,0,0,.32-.62,1,1,0,0,0,1.07-.29,1.09,1.09,0,0,0,.82-.59,1,1,0,0,0,.76-.29l.08-.09.15-.07a1.27,1.27,0,0,0,.95.09,1.2,1.2,0,0,0,.33-.05,1.48,1.48,0,0,0,.41-.12l.1-.05.1,0a1,1,0,0,0,.79-.11,1.09,1.09,0,0,0,.85.24,1,1,0,0,0,1,0l0,0,0,0a1.22,1.22,0,0,0,.18.34,1.08,1.08,0,0,0,.19.31.78.78,0,0,0,.16.24v0a2.23,2.23,0,0,0,.2.3,1,1,0,0,0,.44.51l.18.18c-.43-.41-.19-.14,0,.17a.83.83,0,0,0,.48.42.23.23,0,0,0,.07.07,2.34,2.34,0,0,0,.31.32,1,1,0,0,0,.78.61,1.68,1.68,0,0,0,.21.18c.83.69,2.29-.26,1.58-1.26a1.48,1.48,0,0,0-.42-.44s0,0,0,0l0,0h0l0,0a.17.17,0,0,1-.06-.06,1.92,1.92,0,0,0-.41-.31c-.09-.18-.19-.31-.27-.26a.9.9,0,0,0-.15-.19l-.09-.07a.71.71,0,0,0-.3-.34l0,0a1.18,1.18,0,0,0-.22-.27l0,0a1,1,0,0,0-.41-.59l-.16-.23a1.63,1.63,0,0,0-.17-.2,1.72,1.72,0,0,0-.23-.44c-.27-.38.27.41,0,0a1,1,0,0,1-.11-.18l-.13-.25a1,1,0,0,0-.15-.25.06.06,0,0,1,0,0s0,0,0-.05h0a1.15,1.15,0,0,0-.1-.23,1,1,0,0,0,0-1.44,1.1,1.1,0,0,0,.23-.44,1.08,1.08,0,0,0,.21-1,1,1,0,0,0,.08-.54.87.87,0,0,0,.11-.67,1,1,0,0,0,.14-.37,1.41,1.41,0,0,0,.34-.43,1.5,1.5,0,0,0,.23-.33,1,1,0,0,0,.27-.56,1,1,0,0,0,.31-.79,2.33,2.33,0,0,0,.17-.26.86.86,0,0,0,.78-.38.89.89,0,0,0,.45-.78,1,1,0,0,0,.2-.2,1.17,1.17,0,0,0,1.17-.5l0,0a1.07,1.07,0,0,0,.83-.3,1,1,0,0,0,.7-.08,1,1,0,0,0,.78-.26,1.15,1.15,0,0,0,.72-.15,1.27,1.27,0,0,0,.72.2,1.18,1.18,0,0,0,1-.16,1,1,0,0,0,.71.27,1.22,1.22,0,0,0,.69.36,1,1,0,0,0,1.14.12l.21,0a1,1,0,0,0,.58.62,1,1,0,0,0,1.12.62,1,1,0,0,0,.69.57,1.14,1.14,0,0,0,.32.22.84.84,0,0,0,.15.64.83.83,0,0,0,0,.22,1,1,0,0,0,.54.78.71.71,0,0,0,.15.15,1,1,0,0,0,.06.49c0,.12,0,.28,0,.35a1.35,1.35,0,0,0,0,.29,1,1,0,0,0,0,.52,1.21,1.21,0,0,0,0,.19,1.25,1.25,0,0,0,0,.38,1.07,1.07,0,0,0,0,.64,2.35,2.35,0,0,1-.07.23,1,1,0,0,0,.12.8,1.93,1.93,0,0,0,0,.24,1.15,1.15,0,0,0,0,.14,1.08,1.08,0,0,0,.08.91,1.12,1.12,0,0,0,.07.48,1.06,1.06,0,0,0,.1.7.92.92,0,0,0,.27.5,1.82,1.82,0,0,0,.75.43c1.06.34,1.61-1,1-1.68a2.33,2.33,0,0,0-.07-.25,1,1,0,0,0,0-.34,1.11,1.11,0,0,0-.11-.68c0-.05,0-.1,0-.16a1.1,1.1,0,0,0,0-.51.9.9,0,0,0-.07-.58,1.77,1.77,0,0,0,0-.23.29.29,0,0,0,0-.09,1,1,0,0,0,0-.84.85.85,0,0,0,0-.39.88.88,0,0,0,0-.17.28.28,0,0,0,0-.09,1,1,0,0,0,0-.48V17a1.64,1.64,0,0,0,0-.22,1,1,0,0,0,0-.37l.25-.1a.83.83,0,0,0,.49-.66l.06-.05a1.24,1.24,0,0,0,.37-.8.86.86,0,0,0,.31-.32,1,1,0,0,0,.64-.76,1.07,1.07,0,0,0,1.08-.87l0-.05a1.15,1.15,0,0,0,.48-.24,1.24,1.24,0,0,0,.43,0,1.19,1.19,0,0,0,.71-.29l.12-.11a1,1,0,0,0,.5-.17,1,1,0,0,0,.56-.38,1.39,1.39,0,0,0,.35,0,1,1,0,0,0,.77.05,1,1,0,0,0,.79,0,.89.89,0,0,0,.78-.1,1,1,0,0,0,1.19-.21,1.09,1.09,0,0,0,.54.26h0a.83.83,0,0,0,.36.49.88.88,0,0,0,.73.48,1.11,1.11,0,0,0,.89.32c0,.67.7,1.07,1.33,1h.09a1.05,1.05,0,0,0,.26.13,1.14,1.14,0,0,0,.19.19,1.08,1.08,0,0,0,.16.42,1.24,1.24,0,0,0,0,.69,1.08,1.08,0,0,0,.46,1.17.94.94,0,0,0,.19.7.89.89,0,0,0,.1.51,1,1,0,0,0,.14.54,1.09,1.09,0,0,0,.15.86,1,1,0,0,0,0,1.1,1,1,0,0,0-.32.76,1,1,0,0,0-.06.48.92.92,0,0,0-.08.27.94.94,0,0,0,.15,1.23.1.1,0,0,0,0,0c0,.06,0,.11,0,.16a.94.94,0,0,0,0,.38l0,.1a.8.8,0,0,0-.11.25.88.88,0,0,0-.11.24v0a1.71,1.71,0,0,0-.12.23,1.09,1.09,0,0,0-.21.45.53.53,0,0,0-.1.2L50.2,25a1.18,1.18,0,0,0-.31.69l-.14.21a1,1,0,0,0-.44.43c-.92.45-.35,2.11.84,1.9a1.21,1.21,0,0,0,.6-.29c-.17.14-.44.34,0,0a1.41,1.41,0,0,0,.41-.47.79.79,0,0,0,.29-.45h0a.81.81,0,0,0,.24-.28.93.93,0,0,0,.07-.15,1.09,1.09,0,0,0,.25-.49l0,0a.79.79,0,0,0,.17-.31l.1-.15a1.15,1.15,0,0,0,.29-.7l.08-.19a1.34,1.34,0,0,0,.09-.26,1.51,1.51,0,0,0,.11-.22h0a.67.67,0,0,0,.06-.12l.18-.07a1,1,0,0,0,.55-.05,1.1,1.1,0,0,0,1-.17,1,1,0,0,0,.85.28l.17.05a1,1,0,0,0,.81.25l.08,0a1.23,1.23,0,0,0,.4.35,1.08,1.08,0,0,0,.44.41,1.07,1.07,0,0,0,.52.26,1.16,1.16,0,0,0,.45.12h0l.05,0a1,1,0,0,0,.24.42,1,1,0,0,0,.12.26,1,1,0,0,0,.76.77,1.07,1.07,0,0,0,.54.73,1.09,1.09,0,0,0,.1.88,1.23,1.23,0,0,0,.32.55.94.94,0,0,0,.25.71.06.06,0,0,0,0,0,.93.93,0,0,0-.1,1.18,1.12,1.12,0,0,0,.14.63.93.93,0,0,0,0,.37,1.11,1.11,0,0,0-.09.19,1,1,0,0,0-.31.94,1.12,1.12,0,0,0,0,.32,1,1,0,0,0-.26,1,.65.65,0,0,0,0,.24.89.89,0,0,0,.09.69,1.1,1.1,0,0,0-.17.4.93.93,0,0,0-.81,1,1,1,0,0,0-.27.36,1,1,0,0,0-.37.58,1,1,0,0,0-.28.75,1.06,1.06,0,0,0-.66.66,1,1,0,0,0-.87.93,1.19,1.19,0,0,0-.21.29,1,1,0,0,0-.73.64,1.09,1.09,0,0,0-.6,1.11,1.21,1.21,0,0,0-.2.3,1.18,1.18,0,0,0-.54.56,1,1,0,0,0-1,.91,1.09,1.09,0,0,0-.23.65A1.15,1.15,0,0,0,53.18,46,1.16,1.16,0,0,0,53,47.09a.57.57,0,0,0,0,.13,1.15,1.15,0,0,0-.57.91l-.1.2a1.07,1.07,0,0,0-.45,1.18.93.93,0,0,0-.11.65,1.1,1.1,0,0,0,0,.92.92.92,0,0,0,.11.46,1.1,1.1,0,0,0,0,.4.76.76,0,0,0-.06.2.93.93,0,0,0-.05.73,1,1,0,0,0,.09.89,1.21,1.21,0,0,0,.16.58,1,1,0,0,0-.18,1,1,1,0,0,0,0,.77,1,1,0,0,0,.07,1,1.16,1.16,0,0,0,.43,1.27.85.85,0,0,0,.22.28.54.54,0,0,1,.05.11,1.1,1.1,0,0,0,0,.74,1.1,1.1,0,0,0-.05.47.92.92,0,0,0-.31.9,1,1,0,0,0-.07.71,1.16,1.16,0,0,0,.14.85,1.16,1.16,0,0,0,.35,1.13h0a1,1,0,0,0,0,.64,1,1,0,0,0,0,1,.88.88,0,0,0-.08.41,1.65,1.65,0,0,0,.32.8,1.08,1.08,0,0,0,.31,1.27s0,0,0,0a.29.29,0,0,1,0,.09,1,1,0,0,0,.17,1.42.85.85,0,0,0,.09.24v0a1,1,0,0,0-.12.68,1,1,0,0,0,.34.63l.09.27a9.87,9.87,0,0,1,.24,2.55,1,1,0,0,1,0,.17,14.15,14.15,0,0,0-.09,2c.09.54.24.66.36.64l-.3.44a1.51,1.51,0,0,0,.5,2,1.52,1.52,0,0,0,0,1.92l-.24.19a1.52,1.52,0,0,0,0,2.12,10.83,10.83,0,0,0,.91.89l0,0a1.55,1.55,0,0,0-.69,1.69c.3.9.93,1.75.72,2.47a1.51,1.51,0,0,0,.39,1.46c.06.06.12.11.17.17a3.53,3.53,0,0,0,0,4.32l-.21.33A1.54,1.54,0,0,0,56,96.54l.3.2a2.9,2.9,0,0,0,.5,2.57l-.37.36a1.5,1.5,0,0,0-.39,1.46c.44,1.32.16,2,1,3.1a1.49,1.49,0,0,0,.42.4,3.56,3.56,0,0,0-1,.61,1.5,1.5,0,0,0,.09,2.2,1.49,1.49,0,0,0,.39,2.43,1.53,1.53,0,0,0,.25,1.86,1.48,1.48,0,0,0,.14,2.49,1.45,1.45,0,0,0,.38,2.2,2,2,0,0,0,.93.3,4.34,4.34,0,0,0-1.05.67,1.51,1.51,0,0,0-.24,1.82,15.94,15.94,0,0,0,.92,1.39,2.6,2.6,0,0,0,0,3.15c.52.82,1.23.76,1.31,1.37.1.81-.69,1.83-1,2.53-.86,1.72,1.73,3.24,2.59,1.51s1.87-3,1.38-4.92a5,5,0,0,0-1.12-1.84,1.08,1.08,0,0,0-.53-.45,4.13,4.13,0,0,0,.3-.34,1.56,1.56,0,0,0,0-2.12q-.33-.39-.6-.78c1.22-1.28,1.33-2.45.35-3.55h0a1.5,1.5,0,0,0-.12-2.61,1.44,1.44,0,0,0-.11-1.9l.19-.15c.9-.7.37-1.9-.42-2.38a1.43,1.43,0,0,0-.4-2.15,2.33,2.33,0,0,0,.36-2.79,5.33,5.33,0,0,0-1.1-1,6.62,6.62,0,0,0-.12-1.06c.2-.17.44-.4.58-.54A1.53,1.53,0,0,0,60,98.75c-.07-.1-.17-.22-.27-.34s-.23-.3-.34-.46a1.23,1.23,0,0,1,0-.78l-.06,0,.08-.15a1.48,1.48,0,0,0-.3-1.86h0a1.74,1.74,0,0,0-.22-.18l-.07-.05a.6.6,0,0,1-.08-.08,1.51,1.51,0,0,0-.24-1.8c-.12-.13-.21-.24-.3-.35a.49.49,0,0,0,0-.11,1,1,0,0,1-.25-.4.63.63,0,0,1-.12-.11c-.07-.46.33-.82,1-1.66a1.5,1.5,0,0,0-.24-1.82c-.28-.27-.46-.43-.55-.51.19.13.55.28.26-.58a15.48,15.48,0,0,0-.72-1.61l.66-.49a1.52,1.52,0,0,0,0-2.59c-.28-.21-.53-.42-.78-.64l.32-.27a1.51,1.51,0,0,0,0-2.12h0l.09-.09a1.46,1.46,0,0,0,.38-.64,1.58,1.58,0,0,0-.39-1.49,1.63,1.63,0,0,0-.29-.23l-.33-.18a1.46,1.46,0,0,0,0-1.42c-.61-1-.24-2.86-.37-4.2,0,0,0-.1,0-.16a.08.08,0,0,0,0,0,1,1,0,0,0,0-1.15.93.93,0,0,0-.31-.59.91.91,0,0,0-.07-.25,1.06,1.06,0,0,0-.12-.55.85.85,0,0,0,0-.22,1.08,1.08,0,0,0,.06-.5,1.35,1.35,0,0,0,.08-.52,1,1,0,0,0-.19-.87,1,1,0,0,0-.34-1.07,1.32,1.32,0,0,0,0-.28A1.12,1.12,0,0,0,56,64.2a1,1,0,0,0-.13-.71,1,1,0,0,0,0-.55,1.09,1.09,0,0,0-.16-.5,1.39,1.39,0,0,0,0-.35,1.1,1.1,0,0,0-.2-1.18.87.87,0,0,0,.05-.28,1.09,1.09,0,0,0-.07-.79,1,1,0,0,0,0-.72,1.09,1.09,0,0,0,0-.26,1.14,1.14,0,0,0-.31-1l0-.14a1,1,0,0,0,0-1,1,1,0,0,0-.17-1.15,1,1,0,0,0,0-.66,1,1,0,0,0,0-.48,1,1,0,0,0,.27-.78,1.16,1.16,0,0,0-.26-.83,1.34,1.34,0,0,0-.07-.18l0-.1a1.12,1.12,0,0,0,.27-1.31,1.08,1.08,0,0,0-.1-.43,2.26,2.26,0,0,0,0-.26,1.08,1.08,0,0,0,.2-1.28h0a1.06,1.06,0,0,0,.16-.9,1.92,1.92,0,0,0,.09-.32A1,1,0,0,0,56,47v0a1,1,0,0,0,.52-1,1.08,1.08,0,0,0,.74-.9.9.9,0,0,0,.08-.21,1.08,1.08,0,0,0,.31-.43,1.31,1.31,0,0,0,.21-.36.16.16,0,0,0,0-.07,1.3,1.3,0,0,0,.74-.34.64.64,0,0,0,.19-.25.89.89,0,0,0,.45-1.07,1,1,0,0,0,.81-.75.94.94,0,0,0,.26-.44,1.09,1.09,0,0,0,.29-.23,1.14,1.14,0,0,0,.55-1.12.86.86,0,0,0,.13-.14c.74,0,1-.86.76-1.47a.52.52,0,0,0,.06-.16,1,1,0,0,0,.9-.86,1.13,1.13,0,0,0,.22-.71,1,1,0,0,0,.21-1,1.11,1.11,0,0,0,.32-.4,1.21,1.21,0,0,0-.09-1.31A1.06,1.06,0,0,0,64,32.1ZM8,23.4v0H8l0,.05Zm10.66-.56h0l-.13-.16C18.46,22.57,18.6,22.75,18.67,22.84Zm31.48,2.91h.12Zm2.47-.89,0-.09C52.69,24.69,52.65,24.77,52.62,24.86Z" style="fill:#1c1b1f"/></svg>