<svg id="레이어_1" data-name="레이어 1" xmlns="http://www.w3.org/2000/svg" viewBox="0 0 128 128"><path d="M74.5,45.23c0,.09.28.08.32.17s0,.21,0,.3.19.11.23.2-.87.67-.83.76.77-.19.81-.1.23.09.28.17-.31.42-.26.51-.35.47-.3.55.2.12.25.2.79-.3.85-.22.48-.12.54,0-.9.92-.84,1-.22.44-.16.52.18.13.24.21.64-.26.7-.19.54-.2.61-.12-.59.78-.53.86l.22.21c.07.08,1.29-.92,1.36-.85s-.09.35,0,.42-.2.46-.13.53,0,.31,0,.38.06.21.13.28.93-.64,1-.57S78,51.8,78,51.87s.86-.6.93-.53.48-.21.55-.15-.47.78-.4.85.68-.42.75-.36-.53.86-.46.93.94-.72,1-.65.11.17.18.24-.63,1-.56,1,.79-.56.87-.5.41-.15.48-.08-.94,1.33-.87,1.39.74-.51.81-.44.48-.23.55-.17-.41.76-.33.82.59-.37.67-.3-.64,1-.56,1.08.4-.14.47-.08.56-.33.63-.26-.26.61-.19.67.77-.58.84-.51.22,0,.3.11-.24.59-.17.65,0,.29.09.36.35-.1.43,0-.58,1-.5,1.06.72-.55.79-.48-.08.41,0,.48.8-.65.88-.59-.3.67-.22.74.75-.6.82-.53-.61,1.05-.53,1.12.65-.49.73-.42-.34.73-.26.8.65-.49.73-.43.26,0,.34.05.31-.07.39,0-.4.82-.32.88-.31.72-.24.78.13.16.21.22.44-.23.52-.17.75-.63.82-.57.34-.1.42,0-.5,1-.42,1,.16.11.24.17.81-.73.89-.67-.1.47,0,.53-.33.76-.25.82.74-.64.82-.58-.51,1-.43,1.06.8-.72.88-.66.31-.09.39,0S89.9,61.92,90,62s.89-.84,1-.78-.61,1.15-.53,1.21.77-.7.85-.64-.18.57-.1.63-.06.42,0,.48.89-.88,1-.82-.49,1-.41,1.07.63-.52.71-.46.45-.28.53-.23.34-.13.42-.07a2.11,2.11,0,0,1,.23.19c.09,0-.56,1.13-.48,1.19s.64-.55.72-.5-.58,1.17-.5,1.23.77-.75.85-.69-.23.67-.14.73.64-.57.72-.51.43-.27.51-.21-.19.61-.1.67-.11.5,0,.56.3-.08.38,0-.26.72-.17.78.51-.39.59-.33.46-.32.54-.26.25,0,.33,0-.3.8-.22.85.4-.23.49-.17-.38.9-.3,1,1.1-1.27,1.18-1.21-.51,1.12-.43,1.18.27,0,.36,0,.62-.58.71-.53.1.21.18.26-.18.63-.1.69,0,.29.14.34.36-.19.45-.14-.32.85-.24.9.72-.72.8-.66.6-.56.69-.5-.27.77-.19.83.2,0,.29.1-.26.77-.18.82.12.18.21.24,0,.28.14.33.18.08.27.14,1-1.26,1.13-1.21.14.16.22.21-.26.77-.17.82-.3.84-.21.89.54-.48.62-.42.63-.62.72-.57.11.2.19.26.07.25.16.31.33-.15.41-.1-.64,1.4-.56,1.45.53-.46.61-.41.46-.34.54-.29l.26.15c.08,0-.36,1-.27,1s.5-.42.58-.37-.16.63-.07.68.21,0,.29.1.5-.43.59-.37.08.24.16.29.72-.78.81-.72l.25.15.26.15c.09,0-.29.84-.2.9s.52-.47.61-.42.27-.06.35,0,.06.29.14.34.24,0,.33,0-.22.74-.13.79.44-.34.53-.29.32-.15.41-.1.13.17.22.22-.16.64-.07.69-.11.56,0,.61,0,.45,0,.5.64-.66.72-.61-.2.72-.12.77.85-1,.94-1,.19.07.28.12-.16.65-.08.71,0,.47,0,.52.41-.3.49-.24,0,.3.14.35.39-.26.48-.21l.25.16c.08,0,.19.07.28.12s.11.19.2.24,0,.39.09.44.51-.47.6-.42-.07.51,0,.56.12.19.2.24.21,0,.3.1.53-.51.62-.46-.36,1-.27,1,.48-.41.56-.36-.25.81-.16.86.51-.46.59-.41.45-.35.53-.3-.51,1.25-.42,1.3,0,.44,0,.5.19.06.27.11.74-.85.83-.8,0,.32.13.37.45.45.41.54.06.26,0,.35-.87-.22-.91-.14-.39,0-.43.11,1,.78,1,.87-.47,0-.51.06-.43,0-.48.08-.9-.28-1-.19,1,.8,1,.88-.08.19-.14.28.23.36.18.45-.93-.31-1-.23-.53-.09-.58,0,.62.61.57.7-1-.4-1.08-.32.82.75.77.83-.59-.13-.64,0-.46,0-.51,0,.78.74.73.83-1-.41-1.05-.33.08.29,0,.37,1,.94,1,1-1.54-.79-1.59-.71.84.82.79.9-.2.11-.26.19l-.18.24c-.06.09-.41,0-.46,0s.68.74.62.82-.85-.37-.91-.29-.64-.22-.7-.14,1.06,1,1,1.11-.52-.14-.58-.06-.71-.28-.77-.2.4.56.34.64-.41-.07-.47,0,.28.48.22.55-1-.51-1-.43.64.76.58.83.15.38.08.46-1-.56-1.07-.48.7.82.63.9.3.51.24.58-1.27-.78-1.34-.71.76.89.69,1-.68-.32-.75-.24.18.42.12.49-.24.06-.31.14-.59-.25-.66-.18.67.85.6.92-1.25-.83-1.31-.75.39.61.32.68-.53-.2-.59-.13.36.6.3.67.29.54.22.61-.4-.09-.47,0,0,.23-.11.3.17.45.11.52-1.31-1-1.38-.88.35.6.28.67-.5-.2-.57-.13-.21.08-.28.15.28.54.21.62-.21.07-.28.14-.44-.16-.51-.09.36.64.29.71-.29,0-.36.06-.33-.05-.4,0,.78,1.08.71,1.15-.28,0-.35.07-.56-.28-.64-.21.09.37,0,.44-.72-.47-.79-.4-.37-.1-.44,0,.7,1,.63,1.1-.94-.7-1-.63,0,.27-.09.34.46.79.39.85.2.52.13.59-.09.21-.16.28-.17.11-.24.18-.38-.12-.46-.05-1-.83-1.09-.77-.18.1-.25.17a2.09,2.09,0,0,0-.2.22c-.08.07.87,1.29.8,1.36s-1.23-1.09-1.3-1,.32.67.25.74.13.46.06.53-.36-.1-.43,0-.07.23-.15.29.34.71.26.77-.68-.49-.75-.42-.66-.47-.73-.4,0,.28-.1.34,0,.32-.07.38.3.68.22.75-.16.11-.24.17-.72-.56-.8-.49-.22,0-.29.11-.14.15-.21.21-.06.25-.14.31.51,1,.44,1-.19.09-.27.15-1.08-1-1.16-1,.86,1.4.78,1.46-.74-.61-.82-.55-.55-.38-.63-.32.16.53.08.59-.44-.24-.52-.18-.22,0-.29.11.14.5.06.57.51,1,.43,1.05-.34-.11-.42-.05-.07.23-.15.3-.09.21-.17.27-.2.06-.28.13-.81-.74-.89-.68.64,1.18.56,1.24-.79-.72-.87-.66-.12.17-.2.23-.06.26-.14.32.2.61.12.67-.9-.89-1-.83l-.25.17c-.08.06-.31-.08-.39,0s.51,1,.43,1.09,0,.4,0,.46-.94-1-1-.9.66,1.26.58,1.32-.73-.67-.81-.61,0,.38-.06.44-.63-.55-.71-.49.79,1.45.71,1.51-.46-.29-.54-.24-.5-.34-.58-.29l-.25.17c-.08.06-.3-.09-.38,0s.55,1.14.47,1.19-.31-.09-.4,0-.41-.23-.49-.18-.34-.13-.42-.07-.2.06-.28.12-.33-.12-.41-.07-.29,0-.37,0,.76,1.45.68,1.51-.3-.09-.39,0-1.06-1.19-1.15-1.14.44,1,.36,1-.11.19-.19.25-.43-.27-.51-.21.44,1,.36,1.06-.41-.25-.49-.19,0,.35-.09.41-.27,0-.35,0-.74-.74-.82-.68.2.66.12.71-.09.23-.18.29-.52-.43-.61-.37-.31-.11-.39,0,.6,1.24.51,1.3-.42-.27-.5-.21.18.63.1.69-.69-.66-.77-.61-.11.2-.19.25-.19.09-.27.14.07.47,0,.53-.9-1-1-.93.76,1.49.68,1.55l-.25.16c-.09,0-1-1.07-1-1s.56,1.21.48,1.27-.54-.45-.62-.4-.22,0-.3.09.26.76.18.82-.72.25-.8.3-.24-.73-.3-.81,0-.27,0-.35.7-.73.64-.81-1.23.62-1.29.54-.4,0-.46,0,.91-.88.85-1-.91.4-1,.32-.31,0-.37-.11,1.25-1.13,1.19-1.21-.25-.07-.3-.15-.38,0-.44-.06.06-.28,0-.36-.65.22-.71.13-.67.24-.73.16.51-.61.45-.7.22-.4.16-.48-.3,0-.36-.11-.24-.07-.3-.15l-.17-.25c-.06-.08.13-.34.08-.42s-.92.42-1,.34-.25-.07-.31-.15.82-.85.76-.93-1.1.57-1.16.49,1.1-1.06,1-1.14-.46.09-.52,0,.09-.32,0-.4-1.22.66-1.28.58,1-1,.89-1-.38,0-.44,0,.27-.45.21-.53.16-.37.1-.45-.77.33-.83.25-.07-.2-.13-.28-.18-.11-.24-.19l-.18-.24c-.06-.08.51-.64.45-.72s-1.48.88-1.54.8.6-.72.54-.79-.74.31-.8.23-.33,0-.39-.07.16-.38.09-.46.12-.34.06-.41.42-.58.36-.66-.26,0-.32-.13.23-.43.16-.51-.18-.11-.24-.19-.8.37-.86.29.76-.84.7-.92-1,.55-1.1.47.16-.37.1-.45.07-.31,0-.39-.72.32-.78.24.35-.53.28-.61-.09-.18-.15-.26-.74.34-.81.26.25-.45.19-.53-.74.33-.8.25.79-.89.73-1-.73.33-.79.25.59-.73.53-.81-.86.44-.93.36.16-.39.1-.46-.41.07-.48,0,.74-.85.67-.93,0-.29,0-.37-.2-.1-.26-.18-.4.08-.47,0,0-.27,0-.34-.33,0-.39-.07.29-.5.23-.58-1,.55-1,.47-.48.13-.54.06,1.13-1.2,1.06-1.27-.18-.12-.24-.19-1,.58-1.07.5-.22-.07-.29-.15-.44.11-.5,0-.16-.12-.23-.2,1-1.09.92-1.16.07-.33,0-.4-.27,0-.33-.11-.84.44-.9.36-.46.13-.53.06.56-.74.5-.81-.35,0-.42,0-.28,0-.34-.1-.47.13-.53.06.43-.64.37-.72-.57.23-.63.16-.3,0-.36-.09,1.19-1.3,1.13-1.37-.79.41-.85.34.2-.45.14-.52.14-.39.07-.47-.07-.2-.13-.28-1.18.77-1.25.7.78-1,.71-1-.69.35-.76.27-.61.27-.67.2.38-.61.31-.68-.68.34-.75.27.72-.91.65-1-1.06.68-1.13.6,1-1.14.91-1.21-1.21.82-1.28.74,1-1.14.91-1.21-.89.53-1,.46-.28,0-.35-.1.6-.8.54-.88-.07-.21-.13-.29-.69.36-.76.29-.29,0-.36-.08-.42.12-.49,0-.24,0-.31-.12.73-.94.66-1-.26,0-.32-.11.22-.48.15-.55-.51.2-.58.13.5-.73.43-.81-.51.2-.58.13-.86.53-.93.45.26-.51.19-.58-.06-.22-.12-.3.35-.6.29-.68-1.12.78-1.19.7.77-1,.7-1.06-1.23.88-1.3.81.31-.57.25-.64l-.19-.24c-.07-.07-.62.31-.68.24s.76-1,.69-1.08-1.06.74-1.13.66.07-.33,0-.41.88-1.11.81-1.18-.9.58-1,.5-.51.21-.58.14,1-1.2.89-1.27-.49.2-.56.12-.26,0-.33-.09-.73.42-.8.35.9-1.15.83-1.22-1,.64-1,.57-.19-.09-.26-.16-.39.1-.46,0,.61-.87.54-.94-.2-.09-.27-.16.26-.53.18-.6-1,.72-1.08.64.41-.68.34-.75-.61.32-.68.25.25-.53.18-.6.42-.7.35-.77-.89.6-1,.53-.47.19-.54.12-.23-.05-.3-.12l-.21-.21c-.07-.07,0-.25-.1-.32s.68-1,.61-1-.48.2-.55.13-.1-.19-.17-.26-.43.15-.5.09.49-.79.42-.86-.19-.09-.26-.16-.46.18-.53.11-.94.68-1,.61.71-1,.64-1.08-.2-.08-.27-.15,0-.25-.13-.31-.06-.27-.14-.33-.57.46-.65.4.05-.47,0-.52.07-.74,0-.78-.3,0-.4-.08-.31.12-.41.1-.3.29-.4.27-.28.86-.38.86-.16-1.46-.26-1.46-.23.37-.33.38-.19.82-.29.83-.19.26-.3.26-.22-.53-.32-.53-.24-.81-.34-.81-.21-.1-.31-.09-.14,1.54-.24,1.55-.22-.45-.32-.44-.19.19-.3.2-.23-1.13-.33-1.13-.16,1.55-.26,1.56-.21-.23-.32-.23-.23-1.42-.33-1.42-.18,1.49-.28,1.49-.21-.6-.31-.6-.2.73-.3.73-.21-.08-.31-.08-.2.12-.31.12-.2-.05-.3-.05-.19-.84-.29-.84-.21.22-.31.22-.19-.43-.29-.43-.21.2-.31.2-.22.35-.32.34-.23.31-.33.3-.2-.06-.3-.07S36.4,75,36.3,75s-.25.46-.35.45l-.31,0c-.1,0-.13-.63-.23-.64s-.13-.54-.23-.56-.42,1.57-.52,1.55-.14-.5-.24-.52-.1-.68-.2-.69-.15-.27-.25-.29-.19-.07-.29-.09-.41,1-.51,1,.08-1.29,0-1.31-.43,1-.53.94.09-1.17,0-1.2-.23.11-.32.08-.61,1.4-.7,1.37-.06-.56-.15-.59-.16-.18-.26-.21,0-.66-.08-.69-.64,1.17-.73,1.14.3-1.37.2-1.4-.68,1.15-.78,1.12-.22,0-.31-.08-.18-.12-.27-.17-.11-.27-.2-.32.18-.83.09-.87-.49.51-.58.46.45-1.26.36-1.31-.29.14-.38.09-.37.24-.45.19.21-.71.13-.76-.12-.16-.2-.21-1.22,1.43-1.3,1.37.72-1.36.63-1.42-.39.21-.47.15-.51.32-.59.26-.3,0-.38,0,.61-1,.53-1.08-.49.25-.56.19-.64.36-.71.29.45-.74.38-.81-.35.06-.42,0-.61.26-.68.19.09-.36,0-.44.2-.42.14-.5.54-.66.48-.74-.66.25-.72.17,0-.25,0-.33.25-.38.2-.47-.63.16-.68.07.36-.42.31-.51-.37,0-.41-.1-1.1.3-1.15.21,1.23-.78,1.19-.87-.93.17-1,.08-.44-.06-.48-.16,1.09-.59,1.05-.68-.62,0-.65-.11-.51-.07-.53-.17-.09-.21-.11-.3.57-.34.55-.43-.08-.19-.1-.29-.22-.17-.24-.27.21-.23.2-.33-.34-.18-.35-.28-.09-.2-.09-.3a1.82,1.82,0,0,1,0-.32c0-.1.66-.18.67-.28s-.26-.21-.26-.31.15-.18.16-.28.59-.12.6-.22-.77-.3-.76-.4-.44-.29-.42-.39.3-.15.33-.25S22,61.06,22,61s1.29.14,1.32.05.28-.1.31-.2-.42-.34-.38-.43-.77-.51-.74-.6,1.19.27,1.23.18-.61-.48-.56-.57-.14-.3-.09-.39.29-.08.34-.17-.36-.44-.31-.53.42,0,.47-.08a2.35,2.35,0,0,1,.19-.25c.05-.08.93.41,1,.33s.06-.18.12-.26-.1-.31,0-.39-.4-.59-.34-.67-.34-.61-.27-.68,1.24.91,1.31.84-.87-1.19-.8-1.26.71.46.79.39-.25-.62-.17-.68.49.27.57.21-.26-.73-.18-.79.38.16.47.11.2-.09.29-.14,1.35.42,1.44.37c-.08-.06-1.34.18-1.42.12s.63-1.11.55-1.17-.6.42-.67.36.42-.74.34-.81-.65.42-.72.34.4-.64.33-.72-.15-.1-.21-.17-.84.48-.9.4.51-.66.45-.74-.66.26-.72.18-.64.21-.69.13.51-.6.46-.68-.65.17-.7.08,1-.81.93-.9-.05-.17-.1-.26-1.69.67-1.74.58.7-.58.66-.67.33-.37.29-.46-1,.19-1,.1.57-.45.54-.55-.7,0-.73-.05-.36-.11-.39-.21.68-.43.65-.52l-.09-.29c0-.1.24-.26.22-.36s.62-.33.6-.43-.8,0-.82-.13-.81-.07-.83-.17-.22-.19-.23-.29,1.06-.33,1.05-.43-.45-.16-.46-.26,1.05-.25,1-.35-.16-.17-.17-.27-.77-.19-.76-.29,0-.2,0-.3-.74-.25-.73-.35.4-.19.41-.29.42-.16.44-.26.39-.14.4-.24.14-.16.16-.26.07-.17.09-.27-1-.45-1-.55S24,44.13,24,44s-1.65-.7-1.62-.8.48-.07.51-.16.44-.07.47-.16-.33-.36-.29-.45l.14-.29c0-.09.57,0,.62,0s-.38-.43-.33-.52,1,.34,1,.25,0-.21.06-.3S24,40.89,24,40.8s.08-.2.14-.29,1.19.65,1.25.57-.57-.7-.5-.77.55.2.61.13.22,0,.29-.13.38.12.45,0-.8-1.07-.73-1.14,0-.36,0-.43.58.34.66.27,0-.32.07-.39.73.62.81.55.25,0,.33,0-.68-1.3-.59-1.36.59.53.68.47-.22-.74-.14-.79.51.46.6.41.49.49.58.45.08-.25.16-.29.06-.32.15-.36-.28-1.12-.19-1.16.52.68.61.64.28.18.37.14-.17-1.08-.08-1.11.66,1.31.75,1.28.05-.49.15-.52.07-.46.17-.49.16-.24.25-.26.33.54.43.52.15-.25.25-.27.31.73.41.72.13-.44.23-.45.11-.9.21-.91.19-.32.29-.33.28,1.64.38,1.64.18-.91.28-.91.18.9.28.9.17,0,.27,0,.24-.76.34-.75.24-.36.34-.35.15.47.25.49.26-.35.36-.33,0,1.05.09,1.07.42-1,.52-1,.3-.31.4-.28-.4.32-.31.35.41.17.37.08.09-.24.07-.33-1.05.07-1.08,0,1.22-.51,1.2-.6-1.45.08-1.47,0,1.07-.4,1-.5-.53-.13-.54-.23.38-.24.37-.35-.47-.17-.47-.27.8-.23.8-.33-1.24-.2-1.24-.3,1.43-.17,1.44-.27.15-.17.15-.27S35,32.67,35,32.57s1.65,0,1.66-.12-1.36-.39-1.35-.49.87-.06.88-.16.19-.16.21-.25-.87-.41-.84-.51.75,0,.77-.12-.25-.28-.22-.37.37-.09.4-.19.31-.1.35-.19-.33-.33-.29-.43-.66-.49-.62-.59,1,.23,1.08.14-.84-.63-.79-.72.83.2.88.11-.51-.52-.46-.61.78.22.83.13-.45-.52-.4-.61,1.17.54,1.22.45.06-.17.12-.25-.21-.39-.15-.47-.44-.61-.37-.68.41.07.47,0,.11-.17.18-.25.13-.15.2-.23-.17-.46-.1-.53.64.38.71.31.43.19.5.12.23,0,.31-.06-.18-.53-.1-.59-.19-.61-.11-.67.52.4.6.35-.47-1.14-.38-1.19,1,1.24,1.06,1.19-.26-.88-.17-.93-.11-.71,0-.76.35.21.44.17.76,1.3.85,1.26-.08-.71,0-.75.28.25.38.22.08-.38.18-.41.36.65.46.62-.21-1.83-.12-1.85.42,1,.52,1,.23.25.33.24.1-.86.2-.87.18-.35.28-.36.29,1.17.39,1.17.17-.92.27-.92.22-.24.32-.24.16,1.49.26,1.49.3-1.63.4-1.63.1,1.22.2,1.23.31-.91.41-.9l.32,0c.1,0,.05.93.15.95l.28.07c.1,0,.25-.18.34-.15s.35-.52.45-.5-.19,1.37-.1,1.4.44-.73.53-.7,0,.45.15.48,0,.45.12.49.3-.25.39-.21,0,.42.1.47.37-.34.46-.3.65-.82.74-.78-.4,1.15-.31,1.2.65-.71.73-.66-.19.69-.11.74.38-.21.47-.15.07.24.15.3.22,0,.3.1.31-.06.39,0,.63-.41.7-.34-.52.9-.45,1-.32.61-.25.68,1.25-.95,1.32-.88-.82,1.05-.75,1.12.7-.35.77-.27.09.19.15.27-.36.53-.3.61-.29.43-.23.51,1.29-.63,1.35-.54-.88.78-.83.87,1-.38,1.09-.29-.47.49-.43.58.52,0,.57.06-.2,1.25-.16,1.34c0-.09-.59-1.48-.54-1.56s.17-.18.22-.26.25-.12.3-.2.43,0,.49,0-.2-.42-.14-.5.31,0,.37-.11.8.45.87.38-.58-.85-.51-.92,0-.39,0-.45.15-.19.23-.25.9.82,1,.76-.2-.63-.12-.68,0-.35.11-.4.35.16.44.11.5.53.59.48.28.17.37.13.14-.12.23-.16-.2-1-.11-1,.3.21.39.17l.29-.07c.09,0,0-.78.08-.81s.6,1.53.7,1.51-.11-1.36,0-1.38.31.54.41.52,0-1,.15-1,.23.11.33.1.28.67.38.66.18-.25.28-.25.22.6.32.6.2-.78.3-.78.17.81.27.81.18.16.27.17.17.12.27.14.33-1.07.43-1.05.28-.4.38-.38.07.76.17.78.18.11.28.13,0,.57.15.6.28-.31.38-.28.11.28.2.32.28-.22.38-.18.09.28.18.32.56-.75.65-.71-.12.71,0,.76.62-.7.71-.65,0,.4.1.45-.32.9-.23.95,0,.32.09.37.59-.5.68-.44.52-.35.6-.29-.67,1.16-.59,1.23,0,.28.07.34.48-.25.55-.19-.24.53-.17.6,1.41-1.14,1.48-1.07-1,1.27-1,1.34.91-.56,1-.49-.35.56-.28.64-.11.33,0,.41.58-.2.64-.12.53-.14.59-.06-.27.44-.22.52.52-.1.57,0-.82.77-.77.85.07.18.12.26.11.16.16.24.29.06.34.14.63-.11.67,0-.2.33-.16.42.52,0,.57.06.11.18.15.27-.31.36-.27.45-.29.33-.25.43,0,.21,0,.3.46,0,.49.13,1.13-.17,1.16-.08-.36.35-.33.44-.64.42-.61.51,1-.07,1,0-1.34.58-1.31.68,1.23-.12,1.26,0-.76.39-.74.49,0,.21,0,.3.46.11.48.21-.14.23-.12.33-.1.22-.08.31.29.16.31.26-.53.27-.52.37.09.18.11.28,1.42,0,1.43.15-1.73.36-1.72.46,1,.11,1,.21.28.19.29.29.15.19.16.29-1.16.27-1.15.37.84.15.84.25.27.18.28.28,0,.2,0,.3-.19.21-.19.31.47.17.48.27-.07.2-.07.3-1.24.29-1.23.39.39.17.4.27.11.19.12.29.08.2.1.3-.11.21-.09.31.9.07.91.17-1.42.43-1.41.53,1,0,1,.12-.83.39-.81.48-.12.26-.1.35.09.21.12.31,1.1-.11,1.13,0,0,.2,0,.3.56,0,.59.09S74.46,45.14,74.5,45.23Z" style="fill:#fff"/><path d="M79.24,51.9s-11.32,12.53.67,23.38c0,0,17.32,11.13,35.43,4.94l2-1.55Z" style="fill:#ffc200"/><path d="M21.41,44s-3.26-3.12-2.09-4.28a8.13,8.13,0,0,1,4.92.08Z" style="fill:#1c1b1f"/><path d="M42.44,22.91s-3.11-3.25-4.28-2.09a8.16,8.16,0,0,0,.08,4.93Z" style="fill:#1c1b1f"/><path d="M64,24.19s-1-4.39-2.62-4a8.14,8.14,0,0,0-2.44,4.27Z" style="fill:#1c1b1f"/><path d="M20.93,67.23s-4.4-1-4-2.61a8.2,8.2,0,0,1,4.27-2.45Z" style="fill:#1c1b1f"/><path d="M66,95c0,.07,6.52-1.36,7-1.4,5.09-.39,10.55,1.11,14,5.11,3,3.47,3.66,7.87.88,11.71l-7.24,4.9Z" style="fill:#1c1b1f"/><path d="M80.22,113.46c-.27-.09-.53-.12-.8-.21l.9.89a2,2,0,0,0-1-1.24l.47,1.71c.18-.31.51-.53.69-.85a1.27,1.27,0,0,0-1.4-1.83c-1.09.14.12.28-.13.14l.47,1.71c.15-.37.3-.72.47-1.07a1.29,1.29,0,0,0-.47-1.71c-.77-.59-1.38-.14-2.22-.12l1.08,1.87A9.62,9.62,0,0,0,79.44,111a1.24,1.24,0,0,0-.32-1.2c-.78-.76-1.44-.49-2.4-.38l1.09,1.86c.15-.29.43-.49.58-.79a1.31,1.31,0,0,0-.21-1.5l-.19-.23a1.26,1.26,0,0,0-1.2-.33c-.51.12-.91.55-1.41.66l1.53,1.53a4.57,4.57,0,0,0,.15-2.23,1.27,1.27,0,0,0-1.52-.9c-.37.08-.68.32-1.05.4l1.41,1.83c.26-.48.91-.75,1.19-1.25a1.27,1.27,0,0,0-1.4-1.83,10.58,10.58,0,0,1-1.22.35l1.09,1.87c.12-.28.38-.47.51-.76a1.27,1.27,0,0,0-1.4-1.83c-.28,0-.51.17-.79.21l1.41,1.83c.15-.3.43-.51.59-.81a1.27,1.27,0,0,0-1.41-1.83c-.39.07-.7.37-1.08.44l1.4.59-.14-.27v1.24c.16-.34.54-.56.71-.91a1.27,1.27,0,0,0-1.4-1.83,5.27,5.27,0,0,1-1.09.27L74,107.06c.25-.45.8-.72,1.07-1.19a1.26,1.26,0,0,0-1.41-1.82c-.39,0-.69.24-1.09.28l1.08,1.86c.14-.26.33-.46.47-.72.38-.75-.1-2-1.09-1.87-.24,0-.48.13-.7.16l1.09,1.86c.17-.34.55-.57.73-.93A1.27,1.27,0,0,0,73,102.82a10.3,10.3,0,0,0-1.13.11l1.21,1.57c.07-.2.23-.4.31-.61.35-1-.7-1.68-1.53-1.53a1.25,1.25,0,0,0-.46.15c-.46.16-.39.2.23.12l.59,1.4a2.85,2.85,0,0,0,.29-1.27,1.27,1.27,0,0,0-.93-1.21l-.42,0,.77,1.82c.18-.33.5-.57.68-.91a1.26,1.26,0,0,0-1.4-1.82c-.31,0-.56.24-.86.28l1.53,1.53.1-.46a1.27,1.27,0,0,0-1.53-1.53c-.34.08-.62.3-1,.38l1.4,1.82c.1-.23.26-.42.35-.66a1.26,1.26,0,0,0-1.4-1.82c-.32.05-.58.26-.9.32l1.41,1.83c.17-.36.55-.59.72-1a1.27,1.27,0,0,0-1.4-1.83c-.27.06-.51.19-.78.25l1.4,1.82c.12-.25.29-.45.41-.71A1.27,1.27,0,0,0,69.33,99c-.76.16-.06.22-.85,0l.89,1.53c.41-1,1.31-1.45.59-2.66a1.24,1.24,0,0,0-1.09-.63,4.23,4.23,0,0,0-1,.11,6.28,6.28,0,0,0-.59.27c.34,0,.37,0,.07,0l.77,1.83c.16-.33.46-.56.62-.89a1.3,1.3,0,0,0-.21-1.5l-.2-.23a1.24,1.24,0,0,0-1.2-.32c-.35.09-.65.33-1,.42l1.53,1.53a5.1,5.1,0,0,1,.42-.92,1.27,1.27,0,0,0-1.4-1.83c-.33.07-.59.29-.91.36L67.17,98c.17-.34.47-.58.64-.92a1.26,1.26,0,0,0-1.41-1.82,1.89,1.89,0,0,0-.63.25c-.31.21.3.17-.09.1l.77,1.82c.24-.46.77-.75,1-1.23a1.26,1.26,0,0,0-1.4-1.83c-.4.1-.71.43-1.09.52l1.4,1.83c.19-.39.58-.64.77-1a1.27,1.27,0,0,0-1.41-1.83c-.34.08-.62.32-1,.4l1.53,1.53c.1-.36.24-.67.31-1a1.26,1.26,0,0,0-1.52-1.52c-.41.1-.73.44-1.11.54l1.4,1.83c.17-.34.47-.59.63-.93a1.26,1.26,0,0,0-1.4-1.82,4.29,4.29,0,0,1-1.45.28l1.09.63-.18-.24v1.24c.17-.38.56-.64.73-1a1.27,1.27,0,0,0-1.41-1.82c-.27.07-.52.22-.8.29L64,94c.17-.39.57-.65.75-1a1.27,1.27,0,0,0-1.41-1.83c-.34.1-.63.35-1,.44l1.53,1.53c.07-.22.22-.43.3-.66a1.26,1.26,0,0,0-1.53-1.52,10.21,10.21,0,0,1-1.34.37l1.53,1.52c.11-.37.29-.75.39-1.13a1.26,1.26,0,0,0-.89-1.53L62,90.05l.9,1.53c.08-.23.25-.46.34-.7.37-1-.71-1.65-1.53-1.53a3.79,3.79,0,0,0-.64.17c-.64.22.44.26,0,.1l.47,1.71c.11-.27.29-.49.4-.76.32-.77,0-2-1.09-1.87l-.5,0,1.21,1.57c.11-.28.38-.54.5-.85a1.26,1.26,0,0,0-1.53-1.53c-.52.19-.91.69-1.4.86l1.4,1.82c.16-.37.53-.63.69-1a1.29,1.29,0,0,0-.77-1.83c-.76-.22-1.06,0-1.78.22l1.41.59c.41,1,.26-.54.2-1a1.23,1.23,0,0,0-1.21-.93h-.46l1.21,1.57c.08-.26.33-.51.43-.8a1.26,1.26,0,0,0-1.53-1.52c-.59.17-1.09.56-1.68.73l1.52,1.52c.1-.24.27-.48.37-.74a1.26,1.26,0,0,0-.59-1.4l-.25-.18.59,1.4c.37-1,.53-2-.4-2.76a1.28,1.28,0,0,0-1.2-.33c-.51.19-.9.69-1.36.86l1.4.59c.4.62,0,.38.35-.11a2.57,2.57,0,0,0,.37-.74,1.27,1.27,0,0,0-1.53-1.53c-.52.13-1,.48-1.51.6l1.4.59c0-.1,0-.21-.08-.32A1.27,1.27,0,0,0,55,83.18h-.42l1.21,1.56c.16-.39.68-.77.87-1.23.37-.92-.71-1.72-1.53-1.53-.42.1-.83.27-1.26.37l1.2.33-.21-.21.32,1.2c.11-.29.38-.56.49-.88.34-.94-.68-1.7-1.53-1.53-.22,0-.42.16-.64.21L55,83c0-.21.17-.41.22-.63a1.3,1.3,0,0,0-.59-1.4c-.74-.48-1.09-.24-1.84-.08l1.53.89-.1-.33a1.27,1.27,0,0,0-1.53-.89c-.33.12-.61.38-.93.49l1.2.33a4.16,4.16,0,0,0-.42-.42l.32,1.2c.08-.27.31-.52.4-.8a1.27,1.27,0,0,0-1.53-1.53,1.68,1.68,0,0,0-.49.17c.33,0,.37,0,.1,0l.9.9c-.14-.82-.51-1.08-1.26-1.38L51.86,81c.08-.24.23-.47.3-.72a1.26,1.26,0,0,0-1.52-1.53,2.25,2.25,0,0,1-.68.11l1.09.63c0,.61,0,.68.14.21a3.59,3.59,0,0,1,.12-.47,9.91,9.91,0,0,0,.18-1.09A1.25,1.25,0,0,0,49.92,77c-.3.08-.55.32-.82.4l1.52,1.53c.07-.24.21-.47.28-.71.24-.84-.63-1.87-1.52-1.53a2.3,2.3,0,0,0-.57.27c-.62.45-.33,0,.15.37l.59,1.41c.09-.4.24-.75.31-1.17A1.27,1.27,0,0,0,48.33,76l-.53.11,1.52.89,0-.37a1.26,1.26,0,0,0-1.53-.89l-.5.09,1.2.32c-.75-.77-.22.17-.22-.19a1.27,1.27,0,0,0-1.87-1.09c-.22.09-.4.24-.62.34L47.6,76.3a1.71,1.71,0,0,0-1.07-2c-1-.35-1.36.24-2,.82l2.09.57c-.06-.32,0-.68,0-1a1.26,1.26,0,0,0-2.1-.57c-.15.16-.24.37-.38.52l2.09.57c-.1-.27-.12-.55-.23-.82a1.27,1.27,0,0,0-2.3-.3c-.23.35-.41.77-.62,1.14h2.18c-.44-.9-.29-2-1.6-2.27-1.52-.27-1.54,1.09-1.92,2l1.82-.77L43.28,74a1.27,1.27,0,0,0-1.71.47c-.41.68.12.18-.1.31l1.7.47a6,6,0,0,0-.85-1.41,1.26,1.26,0,0,0-2,.26c-.17.39-.12.89-.27,1.24l2-.27a8.8,8.8,0,0,1-.74-1.39,1.26,1.26,0,0,0-2.17,0c-.18.39-.13.88-.29,1.23l1.09-.63a1.8,1.8,0,0,0-1.5.76l2,.26c-.23-.45-.31-1-.59-1.42a1.27,1.27,0,0,0-2.18,0c-.13.26-.19.56-.32.82H39.5c-.13-.31-.13-.72-.27-1.06a1.27,1.27,0,0,0-2.18,0c-.16.33-.18.73-.34,1h2.18a9.52,9.52,0,0,0-.56-1,1.26,1.26,0,0,0-2.17,0c-.17.32-.2.7-.36,1l2.29.3c-.13-.34-.1-.7-.23-1A1.26,1.26,0,0,0,36,73.23c-.93.57-.75,1.14-1.21,2l2.3.3c-.19-.51,0-1.15-.14-1.68a1.27,1.27,0,0,0-2.3-.3c-.21.32-.21.76-.42,1.08L36,74.14a6.39,6.39,0,0,0-.6-.26c.38.43.45.48.22.16a1.26,1.26,0,0,0-2.17,0c-.2.27-.25.61-.45.88l2.29.3c-.17-.5-.13-1.07-.33-1.58a1.26,1.26,0,0,0-2.29-.3c-.29.38-.29,1-.58,1.32l2.3.3c-.16-.43-.21-.85-.33-1.29a1.27,1.27,0,0,0-2.1-.57c-.17.17-.28.38-.44.55l2,.26-.2-.42a1.26,1.26,0,0,0-2-.27l-.43.4,2.09.57c0-.34.07-.74,0-1.1a1.27,1.27,0,0,0-2.1-.57c-.26.27-.38.65-.7.83l1.87,1.09c0-.38.11-.75.09-1.14A1.27,1.27,0,0,0,30,72.42a13.07,13.07,0,0,1-1.13,1.23l2.13.88c0-.47.3-1,.28-1.44a1.26,1.26,0,0,0-2.13-.88c-.31.24-.44.66-.73.89l2.13.89c0-.27,0-.51,0-.78a1.26,1.26,0,0,0-1.86-1.08l-.45.22,1.5.2c-.25-.32.26,1,.18,0-.07-.85-1-1.68-1.87-1.09-.29.2-.49.55-.77.74l1.87,1.09c0-.43.43-.91.48-1.39a1.26,1.26,0,0,0-1.87-1.09c-.21.12-.39.3-.6.42l1.87,1.09,0-.6a1.26,1.26,0,0,0-1.87-1.08c-.3.14-.57.42-.88.53l1.57,1.21c0-.16,0-.31,0-.47a1.32,1.32,0,0,0-.94-1.21,2.39,2.39,0,0,0-1.45,0L27,72.22c.14-.48.63-.87.78-1.38a1.26,1.26,0,0,0-1.52-1.53c-.22.07-.43.22-.65.29l1.53,1.52A2.22,2.22,0,0,0,27,69.37a1.28,1.28,0,0,0-1.41-.59c-.21,0-.39.14-.6.18l1.4.59c0,.49.06.54.13.16A1.27,1.27,0,0,0,25,68.18c-.25,0-.47.17-.72.22l1.57,1.21a6.21,6.21,0,0,1,0-.75C26,68,25,67.52,24.31,67.65c-.43.07-.79.39-1.22.46l1.57,1.21c0-.32-.18.42.16-.31a1.27,1.27,0,0,0-.77-1.83l-.43-.11.77,1.82a4.77,4.77,0,0,0,.75-1A1.28,1.28,0,0,0,24.05,66c-.42,0-.82.24-1.22.23l.89,2.13c.24-.29.66-.4.92-.7a1.27,1.27,0,0,0-.27-2c-.23-.17-1.58-.68-1.77-.4.54.49.59.87.16,1.15.22-.08.44-.15.66-.24a1.78,1.78,0,0,0,.79-.54,1.85,1.85,0,0,0-.16-2.18c-.59-.6-1.39-.26-2.09-.52l.3,2.3c.45-.22,1.09-.13,1.57-.36a1.26,1.26,0,0,0,0-2.18,7.35,7.35,0,0,1-1.11-.59l.27,2,.31-.29a1.24,1.24,0,0,0,.33-1.2c-.28-.89-.69-1-1.38-1.48l-.3,2.3c.52-.18,1.09-.2,1.62-.35a1.28,1.28,0,0,0,.77-1.83,4.11,4.11,0,0,0-1.09-1.39l.33,1.2.11-.3-.9.9c1-.19,1.8-.11,2.08-1.41s-.53-1.49-1.14-2.25l.2,1.5.18-.26L23,59.86c.43,0,.91.41,1.4.45a1.26,1.26,0,0,0,1.09-1.87c-.32-.44-.92-.68-1.2-1.07l-1.09,1.86c.52.05,1.06.32,1.61.35a1.26,1.26,0,0,0,1.09-1.86l-.24-.53-1.08,1.87A1.89,1.89,0,0,0,26,58.8a1.26,1.26,0,0,0,.59-1.4c-.17-.55-.51-1-.71-1.48l-1.21,1.56.42,0a1.25,1.25,0,0,0,1.09-.63c.09-.34.14-.43.15-.29H25.09c.32.18.54.49.86.67a1.27,1.27,0,0,0,1.83-1.41c-.08-.43-.39-.8-.46-1.24L25.49,56c.29.18.5.51.8.7a1.26,1.26,0,0,0,1.5-.21l.28-.27a1.26,1.26,0,0,0-.57-2.09,2,2,0,0,0-1.62.15l1.52,1.52c.1-.39.45-.71.56-1.12a1.27,1.27,0,0,0-.33-1.2c.13.57.17.68.13.32-.07-.71-.75-1.53-1.57-1.21-.37.14-.76.52-1.13.52l1.08,1.86c.19-.39.59-.66.78-1.06a1.27,1.27,0,0,0-1.41-1.83c-.45.13-.81.5-1.24.63l1.4,1.82c.14-.3.42-.51.56-.81.31-.64.1-1.72-.77-1.83L25,51.8l.77,1.83c.14-.24.35-.44.49-.68a1.27,1.27,0,0,0-1.4-1.83c-.54.09-1,.51-1.51.6l1.41,1.83a8.37,8.37,0,0,0,.65-1.21,4.14,4.14,0,0,0,.06-.79c.07-.8-.2.65,0,0A1.27,1.27,0,0,0,24.25,50c-.43,0-.83.23-1.23.22l1.21,1.57a17.25,17.25,0,0,1,.82-2.2,1.24,1.24,0,0,0-.89-1.53c-.53-.09-1.11.17-1.6.08L23.33,50q.24-.42-.24.06l.53-.18a3.24,3.24,0,0,0,.86-.35,1.27,1.27,0,0,0-.3-2.3,2,2,0,0,0-.49-.09q-.77-.12.06.27l-.21,1.51.42-.35c.79-.67.23-1.8-.57-2.1-.35-.12-.72-.09-1.07-.22l.57,2.1.4-.34a1.26,1.26,0,0,0,0-1.77L23,45.89l.2,1.5c.21-.37-.34.14.08.11a2.08,2.08,0,0,0,.63-.23,1.26,1.26,0,0,0,0-2.17c-.52-.35-.28-.3-.13.12l-.6,1.41A5.06,5.06,0,0,0,24.4,46a1.26,1.26,0,0,0-.26-2c-.39-.25-.89-.28-1.26-.52v2.17l.5-.22a1.26,1.26,0,0,0,.26-2c-.16-.17-.36-.28-.52-.45l-.57,2.09c.3-.07.64,0,1-.07a1.26,1.26,0,0,0,.93-1.21,2.31,2.31,0,0,0-.33-1.64L23,44c.43,0,.86.22,1.3.2a1.26,1.26,0,0,0,.89-2.13c-.38-.4-1-.54-1.36-.93l.2,1.51.15-.3L23.11,43c.45,0,.89.32,1.36.36a1.26,1.26,0,0,0,1.09-1.87c-.26-.35-.73-.57-1-.88l-1.08,1.86c.84,0,1.13.1,1.84-.49a1.27,1.27,0,0,0,.21-1.51c-.13-.24-.32-.44-.45-.68V41l.17-.27-1.09.63c.28,0,.77-.13,1-.09-.79-.15.29.32.44.36a1.26,1.26,0,0,0,1.41-1.82,6.24,6.24,0,0,0-.46-.68c-.36-.62-.14.21-.15-.3l-1.57,1.21c.35.14.67.53,1.06.68.9.34,1.74-.7,1.52-1.53a1.9,1.9,0,0,0-.24-.61c-.2-.3-.17.36-.07,0l-1.82.77c.47.26.75.81,1.24,1.08a1.25,1.25,0,0,0,1.7-.47,3.58,3.58,0,0,0,.31-1l-1.21.93h.35A1.26,1.26,0,0,0,29,38.63c0-.48-.16-1-.16-1.43l-1.87,1.09A10.35,10.35,0,0,0,28,39a1.27,1.27,0,0,0,1.7-.47c.28-.57-1.3-.35-.67-.06a1.28,1.28,0,0,0,1.87-1.09,2.16,2.16,0,0,0,0-.67c-.08-.43-.45.63-.12.3H29c.25.26.35.71.62,1a1.26,1.26,0,0,0,2.09-.57c.08-.4-.09-.86,0-1.22l-2.09.56c.27.34.34,1,.64,1.35a1.26,1.26,0,0,0,2-.27c.06-.15.13-.3.19-.46l-1.7.47.33.2a1.27,1.27,0,0,0,1.83-.77c.11-.45,0-.94.08-1.37l-2.29.3c.23.37.24.86.47,1.25a1.28,1.28,0,0,0,2.18,0l.26-.36H31.39a11.71,11.71,0,0,0,.82,1,1.27,1.27,0,0,0,2-.26c.11-.26.16-.55.27-.79l-1.41.59a9.82,9.82,0,0,0,1.21.07l-1.21-.94c.09.26.11.53.21.79a1.26,1.26,0,0,0,2.29.3c.28-.49.24-1.13.51-1.6L33.77,36c.1.29,0,.62.16.92.28.78,1.45,1.38,2.09.57.19-.24.31-.55.56-.66l-1.71-.47c.31.55.13-.69,0-.08-.15.95.85,2.06,1.83,1.4.14-.09.33-.12.47-.22a1.26,1.26,0,0,0,.27-2l-.26-.23v1.77l.34-.39a1.29,1.29,0,0,0,.21-1.5c-.48-.91-1-.7-1.79-1l.3,2.29c.32-.2.71-.26,1-.47a1.26,1.26,0,0,0-.3-2.29c-.36-.13-.79,0-1.14-.14l.56,2.09a7.19,7.19,0,0,0,.73-.92,1.25,1.25,0,0,0-.47-1.7c-.24-.12-.52-.17-.75-.28V35c.62-.43,1.08-.52,1.22-1.38a1.3,1.3,0,0,0-.59-1.41c-.24-.13-.52-.2-.76-.34V34l.49-.27a1.27,1.27,0,0,0,0-2.18c-.24-.16-.49-.24-.72-.4l-.3,2.3c.36-.13.79,0,1.17-.15a1.27,1.27,0,0,0,.3-2.3c-.22-.16-.47-.26-.69-.42l-.3,2.29c.29-.09.63,0,.93-.12a1.26,1.26,0,0,0,.57-2.09c-.24-.21-.6-.31-.83-.51l-.26,2,.42-.22a1.25,1.25,0,0,0,.47-1.7l-.26-.4L35.7,31.68c.81-.1,1.48.21,2.16-.43A1.77,1.77,0,0,0,38,29l-.47,1.71.27-.2a1.31,1.31,0,0,0,.6-1.41c0-.12-.07-.24-.1-.37l-1.21,1.57.6,0c.83,0,1.69-1.07,1.09-1.86a6.46,6.46,0,0,1-1-1.27l-1.4,1.83c.52.08,1,.49,1.5.57a1.3,1.3,0,0,0,1.53-.89A1.5,1.5,0,0,0,39,26.92c-.72-.72,0,.27-.15.06-.34-.39.37-1-.08-.32l-1.4.6c.77.21,1.06.78,2,.71a1.26,1.26,0,0,0,1.2-.93c.19-.85-.26-1.27-.32-2l-1.57,1.21c.25.09.52.36.8.47A1.26,1.26,0,0,0,41,25.81a12.13,12.13,0,0,0,.26-1.6L39.38,25.3c.23.12.42.31.65.44a1.27,1.27,0,0,0,1.87-1.09c.06-.78-.16-.06,0-.36l-2,.26c.43.34.59,1,1,1.39a1.27,1.27,0,0,0,2.13-.88c0-.3-.11-.59-.09-.88l-1.87,1.08a2.77,2.77,0,0,0,1.73.67,1.3,1.3,0,0,0,1.25-1.25c.05-.46-.16-.92-.11-1.38l-2.14.89c.24.27.33.75.59,1.06a1.26,1.26,0,0,0,2.09-.57,10.42,10.42,0,0,1,.19-1.14l-2,.27c.15.17.26.42.41.6.68.81,1.79.22,2.09-.56.1-.25.12-.51.22-.76l-2.3.3c.21.31.2.75.41,1.07a1.27,1.27,0,0,0,2.3-.3c.11-.28,0-.68.11-.92H43.83c.21.4.13,1,.35,1.43a1.27,1.27,0,0,0,2.18,0c.21-.44.11-1,.3-1.41H44.48c.17.39.07,1,.26,1.45a1.26,1.26,0,0,0,2.18,0,2,2,0,0,0,.25-.62c.06-.36-.39.13,0,0l-1.83-.77c.31.83.11,1.42,1.05,1.89a1.25,1.25,0,0,0,1.5-.21c.28-.36.43-.76.94-.83l-1.52-.89c.06.34-.1.79,0,1.17a1.27,1.27,0,0,0,1.53.89l.33-.06-1.52-.89.12.54a1.26,1.26,0,0,0,2.09.57l.45-.36-2.13-.89c0,.3-.09.59-.06.89.1.81,1,1.7,1.87,1.09.53-.39.91-.89,1.42-1.28L49.2,24c0,.43.13.8.2,1.22.14.81,0-.82,0,.34a1.26,1.26,0,0,0,1.87,1.08c.37-.25.6-.71.94-.94l-1.82-1.41c-.06.41-.36.76-.42,1.17a1.27,1.27,0,0,0,1.83,1.4c.43-.25.68-.78,1.09-1L51,24.79c0,.79-.18,1.15.48,1.77a1.26,1.26,0,0,0,1.21.32c.22-.07.43-.21.65-.28L51.8,25.07c-.11.38-.46.71-.58,1.11-.24.83.64,1.87,1.53,1.53.4-.16.72-.55,1.08-.69l-1.57-1.2c0,.5.39-.54-.12.26a5.33,5.33,0,0,0-.48.69,1.27,1.27,0,0,0,1.41,1.82,7.87,7.87,0,0,1,1.22-.47L53.2,26.25c-.22.43-.75.69-1,1.14a1.26,1.26,0,0,0,1.09,1.87c.66-.06-.35,0,.53.07A8.79,8.79,0,0,0,55,29.21L53.9,27.34c-.22.34-.79.58-1.06,1a1.25,1.25,0,0,0,1.09,1.86l.5-.05c.52-.07.49-.18-.07-.31L56.12,28a3.54,3.54,0,0,0-.27-.32c-1-1-2.74.29-2,1.5.13.2.19.42.32.62a1.26,1.26,0,0,0,2.29-.3l.08-.29-1.21.93.6,0a1.26,1.26,0,0,0,1.09-1.86c-.21-.36-.63-.58-.82-.91l-1.41,1.82c.28.05.51.16.78.21.84.14,1.87-.56,1.53-1.53-.08-.22-.23-.43-.3-.64l-1.52,1.53a10.5,10.5,0,0,1,1.33.47,1.26,1.26,0,0,0,1.53-1.52c-.22-.64-.28-1-1-.72s-.26.58.27.92a1.26,1.26,0,0,0,1.87-1.08l0-.54-.93,1.21.28-.08a1.26,1.26,0,0,0,.9-.89c0-.16.07-.32.1-.48l-2.09.56c.24.2.36.5.6.7a1.27,1.27,0,0,0,1.5.2c1.11-.74.8-1.46.95-2.58l-2.1.57c.24.28.34.76.6,1.07a1.27,1.27,0,0,0,1.5.21c-.5.25-.61,0,0,.19a1.27,1.27,0,0,0,1.52-.9c.1-.23.11-.47.21-.71l-2.1.57a5.4,5.4,0,0,1,.46.77,1.29,1.29,0,0,0,1.41.6c1.19-.28,1.37-1.11,2-2l-2.29-.3c.16.43,0,1,.16,1.42a1.27,1.27,0,0,0,2.09.57,7.68,7.68,0,0,0,.59-.69c.5-.64-.1-.2.23-.37L63,25.24c.26.79.1,1.62.82,2.17a1.27,1.27,0,0,0,1.77,0c.34-.38.43-1,.75-1.33l-2.1-.56c0,.17.1.34.14.52a1.29,1.29,0,0,0,1.53.89l.35-.05-1.56-1.21c0,.37-.18.74-.19,1.12a1.26,1.26,0,0,0,2.13.88c.4-.32.55-.89.93-1.21l-2-.27c.11.22.33-.65-.09-.1a2.45,2.45,0,0,0-.3.86c-.13,1,.84,2.06,1.83,1.41.42-.27.64-.83,1-1.07L66.2,26.2c0,.22-.07.44-.07.66A1.26,1.26,0,0,0,68,28c.23-.11.42-.28.66-.39l-1.5-.21c.2.25.61.44.75.6l-.33-1.2c-.07.27-.23.53-.31.81a1.28,1.28,0,0,0,1.21,1.57l.37,0L67.64,27.6c0,.17,0,.34-.07.5a1.27,1.27,0,0,0,.89,1.53,13.85,13.85,0,0,0,1.57.13l-1.09-.63c-.23-.39,0-.77-.2-.09A1.27,1.27,0,0,0,70,30.61c.42,0,.38,0-.13-.16l-.2-1.5c-.16.37-.41.75-.6,1.11a1.28,1.28,0,0,0,1.41,1.83c.52-.08,1-.49,1.48-.56l-1.4-1.83c-.43.91-1.14,1.58-.74,2.66A1.3,1.3,0,0,0,71,33.1c.37,0,.72-.18,1.08-.19l-.89-2.13c-.27.32-.72.46-1,.79a1.26,1.26,0,0,0,.88,2.13c.36,0,.69-.14,1-.13l-.88-2.13c-.25.29-.67.41-.92.7a1.26,1.26,0,0,0,0,1.77c1,.88,1.46.26,2.6.35L72,32.13a9.94,9.94,0,0,0-.71,1c-.44.7.6-.68-.18.23-.54.63-.46,2,.57,2.09.44.06.92-.13,1.31-.07l-.56-2.09c-.33.26-.85.36-1.21.65a1.25,1.25,0,0,0,.56,2.09c.16,0,1.11.17,1.18,0-.76-.39-.87-.81-.31-1.24a1.57,1.57,0,0,0-.55.31,1.27,1.27,0,0,0,.3,2.3c.23.09.47.1.7.19l-.3-2.3c-.37.24-.85.25-1.23.49a1.27,1.27,0,0,0-.26,2,7.47,7.47,0,0,0,1,.7V36.32c-.79.55-1.19.7-1.32,1.75a1.27,1.27,0,0,0,.93,1.21c.58.19,1.26,0,1.83.15l-.3-2.3c-.42.23-1,.16-1.45.41a1.26,1.26,0,0,0,0,2.17,5.34,5.34,0,0,1,.93.62l.26-2c-.32.19-.76.16-1.1.36a1.26,1.26,0,0,0,0,2.18c.39.21.82.34,1.21.53V39.26c-.26.13-.54.2-.8.34a1.26,1.26,0,0,0-.27,2,4.74,4.74,0,0,0,1.21.74l-.27-2a3.8,3.8,0,0,1-1.15.83,1.27,1.27,0,0,0,0,2.18c.22.1.49.13.69.22l-.59-1.4c-.14.42.32-.35-.13.12a1.25,1.25,0,0,0,.27,2c.2.09.45.12.64.2l-.27-2-.44.4a1.28,1.28,0,0,0,.27,2c.71.44,1,.24,1.8.36l-.57-2.09c-.31.28-.9.35-1.26.67a1.27,1.27,0,0,0,.57,2.1,10.89,10.89,0,0,1,1.4.15L73.81,44c-.27.28-.71.4-1,.7a1.26,1.26,0,0,0,.56,2.09,1.88,1.88,0,0,0,.58.07c.44,0,.35.28,0-.28V45.31c-.11.19-.29.35-.41.54a1.29,1.29,0,0,0,.21,1.5,1.94,1.94,0,0,0,.76.6l-.63-1.08c0,.12,0,.24,0,.36a1.25,1.25,0,0,0,.94,1.21q.41.12,0-.06V47.15c-.1.22-.25.39-.35.62a1.26,1.26,0,0,0,.77,1.82l.39.09-.89-.9c-.09-.36-.1,0-.16.27a1.27,1.27,0,0,0,1.53,1.53c.46-.11.87-.28,1.34-.35L75.88,49v.39a1.27,1.27,0,0,0,1.56,1.21l.52-.08-1.4-1.82c-.34.8-1,1.09-.85,2.06A1.28,1.28,0,0,0,77.28,52c.51-.11.92-.38,1.39-.51L77.15,50c-.12.34-.49.65-.62,1a1.26,1.26,0,0,0,1.53,1.53,1.87,1.87,0,0,1,.78-.22l-1.21-.94.06.36a1.27,1.27,0,0,0,1.53.9l.57-.17-1.57-1.21a1.79,1.79,0,0,0,.54,1.56l-.32-1.2c-.1.31-.35.59-.45.92a1.26,1.26,0,0,0,.59,1.4c1.11.71,1.84.07,2.91-.25L80,52.13c-.15.44-.63.82-.79,1.3-.37,1.14.93,1.78,1.83,1.41.45-.19.74-.67,1.18-.85l-1.83-1.41c-.08.27-.23.52-.31.79a1.26,1.26,0,0,0,1.53,1.53c.21-.06.41-.2.63-.26l-1.53-1.52c0,.19-.07.38-.11.57-.16.83.58,1.87,1.53,1.52.24-.09.47-.25.7-.34l-1.57-1.21a2,2,0,0,0,.56,1.57L81.47,54c-.12.43-.57.79-.7,1.26a1.26,1.26,0,0,0,1.83,1.4c.41-.19.68-.6,1.09-.8l-1.83-1.4c-.11.39-.46.71-.57,1.12a1.26,1.26,0,0,0,1.52,1.53c.24-.09.46-.25.68-.33L82,55.27c-.08.28-.23.53-.3.81-.22.83.63,1.88,1.53,1.53.24-.1.47-.27.7-.36l-1.53-1.53c-.05.26-.18.49-.23.74a1.28,1.28,0,0,0,.59,1.41c1,.65,1.43,0,2.3-.34l-1.82-1.4c-.07.27-.21.52-.28.8-.21.84.61,1.85,1.53,1.52.44-.16.83-.45,1.27-.6l-1.52-1.52c-.06.26-.19.49-.25.76a1.27,1.27,0,0,0,1.53,1.53c.22-.08.42-.22.62-.29L84.59,56.8c-.28,1.09-1,1.51,0,2.56a1.29,1.29,0,0,0,1.5.21c.53-.28.83-.92,1.34-1.18L85.59,57c-.1.6-.34,1.06-.39,1.7-.08,1,1.09,1.44,1.87,1.09.3-.14.51-.41.81-.54l-1.82-1.41c0,.25-.15.47-.19.72-.14.82.56,1.9,1.52,1.53a3.38,3.38,0,0,1,.74-.33l-1.21-1.57c0,.27-.18.51-.23.78a1.24,1.24,0,0,0,.32,1.2c-.27-.21-.17,0-.23.41-.13,1,1.12,1.44,1.87,1.09a4.88,4.88,0,0,0,.8-.46c.44-.37.13-.21.33-.19l-1.21-1.56c-.08.36-.32.66-.4,1A1.26,1.26,0,0,0,89.7,62l.49-.16-1.53-1.52c-.07.35-.3.64-.37,1a1.27,1.27,0,0,0,.89,1.53,2.66,2.66,0,0,0,1.95-.48l-1.5-.2.22.2a1.29,1.29,0,0,0,1.5.21c.24-.12.43-.29.67-.41l-1.86-1.08c0,1.08,0,2,.82,2.78a1.29,1.29,0,0,0,1.5.21c.33-.19.56-.52.88-.7L91.53,62c-.08.46-.49.84-.58,1.32a1.27,1.27,0,0,0,1.83,1.4c.51-.29.78-1,1.25-1.22l-1.87-1.09c0,.33,0,.66,0,1a1.27,1.27,0,0,0,1.57,1.21l.49-.18L93,64.08c-.13-.51-.19-.54-.19-.11-.09,1,1.1,1.44,1.87,1.09l.54-.24-1.83-1.41c-.06.35-.27.65-.33,1A1.27,1.27,0,0,0,94,65.93c1,.3,1.21-.2,2-.61H94.76l.28.13L94.45,64c-.09.44-.41.8-.5,1.25a1.27,1.27,0,0,0,1.83,1.4c.27-.13.46-.4.73-.53l-1.87-1.09a4.46,4.46,0,0,0,.17,1.35,1.27,1.27,0,0,0,1.87,1.08c.38-.23.67-.76,1.07-.83l-1.57-1.21c0,.22-.09.46-.1.68a1.26,1.26,0,0,0,1.25,1.25l.39,0-1.25-1.25c-.09.79-.34,1,0,1.85a1.26,1.26,0,0,0,1.71.47c.41-.25.64-.77,1-1l-1.87-1.09c0,.25-.13.52-.16.79-.11,1,1.11,1.49,1.86,1.08.24-.12.42-.31.65-.43l-1.86-1.09c0,.47-.19.93-.22,1.41a1.28,1.28,0,0,0,1.25,1.25c1.09.06,1.37-.4,2.21-.94L99.29,67a3.75,3.75,0,0,0-.08,1.85,1.27,1.27,0,0,0,1.83.77c.31-.19.52-.52.81-.71L100,67.51c-.06.46-.46.87-.52,1.34a1.28,1.28,0,0,0,1.83,1.41A1.81,1.81,0,0,1,102,70l-1.25-1.25c0,.22-.06.43-.06.65A1.27,1.27,0,0,0,102,70.68h.36l-1.25-1.25c0,.25-.12.52-.15.79a1.26,1.26,0,0,0,1.57,1.21,14.25,14.25,0,0,1,1.59-.82l-1.53-1.53c-.09.53-.51,1-.6,1.51A1.27,1.27,0,0,0,103.79,72c.28-.16.46-.44.73-.58l-1.87-1.09c-.05.84-.45,1.29.39,2a1.3,1.3,0,0,0,1.5.2,5,5,0,0,1,.81-.51l-1.57-1.21,0,.53a1.26,1.26,0,0,0,1.57,1.21l.45-.16-1.57-1.21c0,.32-.24.66-.28,1a1.25,1.25,0,0,0,1.87,1.08c.34-.22.59-.62,1-.74l-1.21-.33c-.45-.58-.34-.31-.21.2a2.9,2.9,0,0,0,.31.75,1.27,1.27,0,0,0,1.71.47c.29-.19.5-.51.78-.69l-1.87-1.09c0,.39-.35.8-.41,1.24a1.25,1.25,0,0,0,1.87,1.08c.4-.26.62-.8,1-1l-1.83-1.41c0,.38-.26.7-.31,1.08a1.27,1.27,0,0,0,1.83,1.4l.51-.26-1.87-1.08.06.48A1.26,1.26,0,0,0,109,74.41l.49-.21-1.87-1.09c0,.27-.13.55-.16.83A1.26,1.26,0,0,0,109.32,75c.35-.22.56-.66.88-.86l-1.87-1.09c-.09.93-.78,1.24-.12,2.23a1.26,1.26,0,0,0,1.71.47c.43-.3.67-.89,1.06-1.17l-1.83-1.4c-.07.53-.49,1-.56,1.51-.14.92.85,2.1,1.82,1.4.38-.27.61-.75,1-1L109.51,74c-.08.75-.26,1.07.17,1.75a1.28,1.28,0,0,0,1.71.47c.27-.16.46-.46.72-.62l-1.87-1.09c0,.25-.09.5-.1.76a1.27,1.27,0,0,0,1.57,1.21l.41-.12-1.52-.89a6.69,6.69,0,0,0,.21.8,1.27,1.27,0,0,0,1.83.77,7.53,7.53,0,0,0,1.12-.7l-1.87-1.09c0,.33-.22.67-.26,1a1.26,1.26,0,0,0,1.87,1.09c.29-.19.49-.52.77-.7l-1.87-1.09c0,.28-.13.57-.16.85a1.26,1.26,0,0,0,1.87,1.09c.22-.12.39-.31.6-.43L112.85,76c0,.27-.12.54-.14.81a1.26,1.26,0,0,0,1.87,1.09c.21-.11.37-.28.58-.39l-1.86-1.09c0,.38-.34.78-.38,1.21a1.28,1.28,0,0,0,.93,1.21c.94.36,1.54-.2,2.29-.64l-1.82-.77c.26,1.54,1.65,1.86,2.92,1.28l-1.87-1.09a3.14,3.14,0,0,0,.29,2.15,1.26,1.26,0,0,0,2,.26c.17-.18.27-.42.43-.6,1.07-1.19-.69-3-1.77-1.77-.16.19-.27.43-.43.61l2,.26c-.12-.17-.19.23-.07-.16a3.15,3.15,0,0,0,.1-.75A1.27,1.27,0,0,0,116,76.54l-.48.22h1.24c-.61-.33.06.56,0,0a1.25,1.25,0,0,0-1.82-.77c-.23.13-.64.3-.42.39l.93,1.21c0-.38.33-.79.38-1.21.1-1-1.11-1.49-1.87-1.09-.21.11-.38.28-.59.4l1.87,1.08c0-.26.12-.53.14-.81a1.26,1.26,0,0,0-1.87-1.08c-.22.12-.39.3-.61.42l1.87,1.09c0-.27.13-.56.16-.85A1.25,1.25,0,0,0,113,74.51c-.29.19-.49.51-.76.69l1.86,1.09c0-.32.23-.66.26-1a1.25,1.25,0,0,0-1.86-1.08,8.72,8.72,0,0,1-1.12.7l1.82.77a7.86,7.86,0,0,1-.21-.8,1.27,1.27,0,0,0-1.53-.89l-.42.11,1.57,1.21c0-.25.09-.5.1-.76a1.25,1.25,0,0,0-1.86-1.08c-.28.16-.47.46-.73.62l1.71.47c-.15-.21-.12-.2.08,0,0-.18,0-.37.07-.55a1.26,1.26,0,0,0-1.87-1.09c-.38.27-.61.75-1,1l1.83,1.4c.07-.53.48-1,.56-1.51.14-.93-.85-2.09-1.83-1.4-.43.31-.67.89-1.06,1.17l1.71.47c0-.07-.13.49.24-.17a2,2,0,0,0,.2-.83A1.26,1.26,0,0,0,109,72c-.35.23-.56.66-.88.87L110,73.94c0-.27.13-.55.16-.83.1-1-1.1-1.43-1.87-1.09l-.48.22,1.87,1.08-.06-.48a1.27,1.27,0,0,0-1.86-1.09l-.51.26,1.82,1.4c0-.37.26-.7.31-1.07.14-1-.82-2-1.82-1.41-.41.26-.63.8-1,1l1.87,1.09c0-.39.36-.8.41-1.24a1.26,1.26,0,0,0-1.87-1.08c-.29.18-.5.51-.78.69l1.71.47c-.16-.27.25.41,0-.35a2.54,2.54,0,0,0-.56-1.14,1.21,1.21,0,0,0-1.2-.32,5.64,5.64,0,0,0-1.54,1l1.86,1.09c0-.33.24-.67.28-1a1.26,1.26,0,0,0-1.57-1.21l-.45.16,1.57,1.21,0-.53a1.26,1.26,0,0,0-1.57-1.21,7,7,0,0,0-1.4.75l1.5.21c.1.66.2.75.29.27a3.75,3.75,0,0,0,.05-.47,1.26,1.26,0,0,0-1.87-1.09c-.27.15-.46.44-.72.58l1.83,1.41c.09-.53.51-1,.6-1.52a1.26,1.26,0,0,0-1.52-1.52c-.68.14-1,.6-1.59.82l1.56,1.21c0-.26.13-.52.15-.79a1.25,1.25,0,0,0-1.25-1.25H102l1.25,1.25c0-.21.07-.43.06-.65A1.26,1.26,0,0,0,102,67.53a5,5,0,0,0-1.94.55l1.83,1.41c.06-.47.45-.87.52-1.35.12-1-.82-2-1.83-1.4-.31.19-.52.52-.82.71l1.83.77c0-.26-.08-.25-.08,0a1.78,1.78,0,0,0,.16-.6c.13-1-.83-2.06-1.83-1.41a3.2,3.2,0,0,0-.56.6c0-.06-.09,0-.41,0l1.25,1.25c0-.47.2-.94.22-1.41a1.26,1.26,0,0,0-1.87-1.09c-.23.13-.42.31-.65.44l1.87,1.09c0-.26.13-.53.16-.79A1.26,1.26,0,0,0,98,65.25c-.42.25-.65.78-1,1l1.71.47c-.2-.4,0,.39.15,0a2.27,2.27,0,0,0,.12-.63,1.26,1.26,0,0,0-1.25-1.25l-.39,0,1.25,1.25c0-.22.09-.45.1-.68a1.26,1.26,0,0,0-1.57-1.2c-.85.13-1,.66-1.67,1.07l1.87,1.09a7.2,7.2,0,0,1-.17-1.35c.1-1-1.1-1.46-1.87-1.08-.27.13-.46.39-.73.52l1.83,1.41c.08-.44.41-.8.5-1.24a1.3,1.3,0,0,0-.6-1.41,1.71,1.71,0,0,0-1.36-.19,1.76,1.76,0,0,0-.42.24c-.59.4-.23.09.13.2l.9,1.52c.06-.35.27-.64.33-1A1.27,1.27,0,0,0,94,62.64l-.53.24L95.35,64c.14-1.45-.82-2.32-2.23-1.81l1.56,1.21c0-.34,0-.67,0-1a1.26,1.26,0,0,0-1.87-1.09c-.51.3-.77.95-1.25,1.23l1.83,1.4c.08-.46.5-.84.58-1.31a1.27,1.27,0,0,0-1.82-1.41c-.33.19-.56.52-.88.7l1.5.21c.08.07-.16.16-.07-.3a4.33,4.33,0,0,0,0-.72A1.27,1.27,0,0,0,90.79,60c-.24.11-.43.29-.67.4l1.5.21-.22-.21a1.3,1.3,0,0,0-1.5-.21c-.91.44.18.29-.09.24l.9,1.53c.07-.35.3-.65.37-1a1.26,1.26,0,0,0-1.52-1.53l-.5.16,1.53,1.53c.08-.36.32-.67.4-1a1.27,1.27,0,0,0-1.21-1.57c-1-.09-1.54.59-2.36,1l1.86,1.09c.11-.84.29-1.57-.5-2.18l.33,1.2c0-.27.17-.5.23-.77.14-.71-.36-1.67-1.21-1.57a4.84,4.84,0,0,0-1.37.41l1.52,1.53c0-.26.15-.47.19-.72a1.27,1.27,0,0,0-1.82-1.41c-.31.14-.51.41-.82.54l1.87,1.09A10,10,0,0,1,88,57.62a1.27,1.27,0,0,0-1.83-1.4c-.53.27-.82.91-1.34,1.17l1.51.2-.21-.22.32,1.21c.1-.4.44-.73.55-1.14a1.27,1.27,0,0,0-1.53-1.53c-.22.07-.42.22-.62.29l1.52,1.52c.06-.26.19-.49.25-.76a1.27,1.27,0,0,0-1.53-1.53c-.45.15-.84.45-1.28.6l1.53,1.53c.07-.28.21-.52.28-.8a1.28,1.28,0,0,0-1.83-1.41c-.3.13-.52.39-.82.51h1.24L84,55.69l.59,1.41c.06-.26.19-.49.24-.74.18-.82-.6-1.9-1.53-1.53-.24.1-.47.27-.7.36l1.53,1.53c.07-.28.22-.53.3-.81.22-.85-.63-1.86-1.53-1.53-.24.09-.46.25-.68.33l1.53,1.52c.1-.38.46-.71.57-1.12a1.27,1.27,0,0,0-1.83-1.4c-.41.19-.68.6-1.09.8l1.83,1.4c.12-.44.62-.76.7-1.25a2.7,2.7,0,0,0-.12-.94c-.13-.81,0,.69,0-.06a1.26,1.26,0,0,0-1.57-1.21c-.24.09-.47.26-.7.34L83,54.32c0-.19.07-.38.11-.57a1.26,1.26,0,0,0-1.53-1.52c-.22.06-.42.19-.63.25L82.47,54c.08-.27.23-.52.31-.79.34-1.14-.9-1.79-1.83-1.41-.44.19-.73.67-1.17.85l1.82,1.41c.15-.44.63-.82.79-1.3a1.26,1.26,0,0,0-1.53-1.53c-.34.1-1.22.39-1,.5l.6,1.4c.13-.43.51-.72.49-1.23,0-.23-.14-.4-.17-.62-.14-1.06-.06.81,0-.06A1.26,1.26,0,0,0,79.15,50l-.56.16,1.52.89-.06-.36a1.27,1.27,0,0,0-1.21-.93,3.05,3.05,0,0,0-1.42.3L79,51.62c.12-.34.49-.66.62-1A1.26,1.26,0,0,0,78,49.06c-.5.14-.88.4-1.39.51l1.57,1.21c-.06-.5-.38.59.07-.18a5.7,5.7,0,0,0,.44-.65,1.26,1.26,0,0,0-1.4-1.82l-.52.07,1.57,1.21V49a1.27,1.27,0,0,0-1.57-1.21c-.48.07-.88.24-1.35.35L77,49.69a2.38,2.38,0,0,0,.16-1.54,1.24,1.24,0,0,0-.89-.89l-.4-.08L76.63,49c.58-1.34.59-2.64-1.22-3l.93,1.2c0-.12,0-.24,0-.36a1.22,1.22,0,0,0-.63-1.09.33.33,0,0,1-.24-.2l.21,1.5c.11-.18.29-.34.4-.53a1.22,1.22,0,0,0,0-1.24c-.57-.9-1.19-.79-2.1-1l.56,2.1c.27-.29.72-.41,1-.71A1.26,1.26,0,0,0,75,43.64a9.65,9.65,0,0,0-1.4-.15l.57,2.09c.31-.28.91-.36,1.26-.68a1.25,1.25,0,0,0-.57-2.09c-.37-.06-.89.07-1.19-.12l.26,2,.44-.4a1.26,1.26,0,0,0-.27-2c-.2-.09-.46-.12-.64-.2l.27,2a3.18,3.18,0,0,0,.78-1.26,1.24,1.24,0,0,0-.59-1.4c-.22-.1-.49-.13-.7-.23v2.18a6.25,6.25,0,0,0,1.69-1.24,1.27,1.27,0,0,0-.27-2,2.77,2.77,0,0,1-.67-.32l-.26,2c.25-.14.54-.21.79-.35a1.25,1.25,0,0,0,0-2.17c-.4-.2-.81-.33-1.21-.54V40.9c.32-.19.77-.17,1.11-.36a1.27,1.27,0,0,0,.26-2,5.21,5.21,0,0,0-1.46-1v2.17c.42-.23,1-.16,1.45-.41a1.26,1.26,0,0,0-.3-2.29c-.58-.2-1.26,0-1.83-.15l.94,1.21,0-.29-.63,1.08c.21-.14.45-.22.66-.36a1.27,1.27,0,0,0,0-2.18,2.66,2.66,0,0,1-.45-.29l-.26,2c.36-.24.85-.25,1.22-.5a1.26,1.26,0,0,0-.3-2.29c-.23-.09-.46-.1-.69-.19l.3,2.3c.88-.66,1.65-1.09,1.44-2.36-.28-1.6-1.25-1.13-2.36-1.32l.57,2.1c.33-.27.85-.36,1.21-.65a1.26,1.26,0,0,0-.57-2.1c-.44-.06-.92.13-1.32.07l.57,2.09a8.1,8.1,0,0,0,.7-.73,1.33,1.33,0,0,0,.16-.62c-.23.4-.22.43,0,.1a1.27,1.27,0,0,0-.89-2.14,2.4,2.4,0,0,0-.88.12l-.52.11c.69.35.88.4.56.15v1.77c.25-.29.67-.4.93-.7a1.27,1.27,0,0,0-.89-2.14c-.35,0-.69.14-1,.13l.89,2.14c.27-.33.72-.47,1-.79a1.27,1.27,0,0,0-.88-2.14c-.37,0-.72.18-1.08.19l1.21.93c0,.14-.33.41.16-.12a2.46,2.46,0,0,0,.33-.67,1.27,1.27,0,0,0-1.4-1.83c-.53.07-1,.48-1.48.56l1.4,1.82c.19-.36.44-.73.59-1.1a1.33,1.33,0,0,0-.2-1.5A1.6,1.6,0,0,0,70,28.11l1.21,1.57c.22-.75.48-1.42-.25-2.05-.56-.49-1.16-.3-1.81-.42L70,28.74c0-.17.05-.34.07-.5a1.28,1.28,0,0,0-1.21-1.57l-.37,0,1.21,1.56c.44-1.54.12-1.56-.77-2.6a1.27,1.27,0,0,0-1.5-.21c-.24.11-.42.28-.66.4l1.87,1.08c0-.21.07-.43.07-.66a1.26,1.26,0,0,0-1.87-1.08c-.42.27-.64.82-1,1.06l1.82,1.41c.16-1.1.71-1.52.15-2.63a1.27,1.27,0,0,0-2-.27c-.4.33-.55.9-.93,1.21l2.13.89c0-.38.18-.74.19-1.12a1.28,1.28,0,0,0-1.57-1.21l-.35.05,1.52.89c0-.17-.09-.34-.14-.52a1.25,1.25,0,0,0-2.09-.56c-.35.38-.43,1-.75,1.33H65.6c.23.17-.11-.88-.17-1a1.26,1.26,0,0,0-1.82-.77c-.71.36-.85.93-1.35,1.46l2.09.57c-.16-.44,0-1-.16-1.43a1.27,1.27,0,0,0-2.3-.3c-.14.22-.17.76-.42.82l1.41.59A10.26,10.26,0,0,0,62,24.24c-.69-.8-1.77-.23-2.09.57-.1.23-.11.47-.21.71l1.53-.89a2,2,0,0,0-1.82.05l1.5.2c-.24-.28-.33-.76-.6-1.07a1.26,1.26,0,0,0-2.09.57,2.66,2.66,0,0,0,0,.89c.1.57-.26.51.27.15l1.5.2c-.24-.2-.36-.5-.6-.7a1.27,1.27,0,0,0-2.09.57c0,.16-.08.32-.11.49l.89-.9-.29.08a1.27,1.27,0,0,0-.93,1.21l0,.54,1.87-1.09c-1-.61-1.44-1.49-2.7-.58s-.62,2-.23,3.18l1.53-1.53a11.78,11.78,0,0,0-1.34-.47c-.85-.18-1.85.59-1.53,1.53.08.22.23.43.3.63l1.53-1.52c-.27,0-.51-.16-.78-.21a1.27,1.27,0,0,0-1.41,1.83c.21.36.63.57.82.91L56,27.72l-.6,0a1.26,1.26,0,0,0-1.21.94l-.07.29,2.29-.3c-.13-.2-.18-.43-.31-.63l-2,1.51c.07.07.17.22.27.32,1.12,1.18,2.76-.55,1.76-1.77-.74-.91-1.25-.44-2.19-.37L55,29.54c.23-.34.79-.56,1.06-1A1.26,1.26,0,0,0,55,26.71l-.54.06c.23.2.24.23,0,.1s-.74-.15-1.16-.11l1.08,1.86c.23-.43.75-.68,1-1.13.39-.76-.1-2-1.09-1.87a10.26,10.26,0,0,0-1.86.55L53.84,28c.38-.85,1-1.15.92-2.18-.06-.72-.75-1.52-1.57-1.21-.4.15-.71.54-1.07.68l1.52,1.52c.11-.38.47-.7.58-1.1a1.26,1.26,0,0,0-1.53-1.53c-.22.07-.43.21-.65.28l1.2.33c.37.33.22.69.25,0a1.26,1.26,0,0,0-1.87-1.08c-.44.24-.68.77-1.09,1l1.83,1.4c.06-.41.36-.75.42-1.17.13-.94-.84-2.07-1.83-1.4-.38.25-.6.71-1,.95l1.87,1.09a5.15,5.15,0,0,0,0-1,1.26,1.26,0,0,0-.32-.56c.13.44.17.45.11,0a1.27,1.27,0,0,0-2.13-.89c-.34.26-.54.62-.89.87l1.87,1.09c0-.3.09-.59.06-.89a1.27,1.27,0,0,0-2.14-.88l-.45.36,2.09.57c0-.18-.07-.36-.11-.55a1.29,1.29,0,0,0-1.53-.89l-.33.06,1.52.9c-.06-.35.1-.79,0-1.18a1.28,1.28,0,0,0-1.52-.89,3.19,3.19,0,0,0-2.07,1.48l1.5-.2c.25.58.33.62.23.13a1.12,1.12,0,0,0-.1-.48,1.29,1.29,0,0,0-1.83-.77c-.83.41-.75.89-1.15,1.61h2.18c-.17-.39-.07-1-.26-1.46a1.27,1.27,0,0,0-2.18,0c-.21.44-.11,1-.3,1.41h2.18c-.21-.4-.13-1-.35-1.43a1.27,1.27,0,0,0-2.18,0c-.2.5-.15,1.05-.35,1.53l2.3-.3c-.21-.31-.2-.75-.41-1.07a1.27,1.27,0,0,0-2.3.3c-.1.25-.12.5-.22.75l2.1-.56c-.15-.18-.26-.42-.41-.61a1.26,1.26,0,0,0-2,.27A11.48,11.48,0,0,0,42.14,24l2.09-.56c-.24-.28-.32-.76-.59-1.06-.79-.9-2-.09-2.13.88,0,.46.15.92.11,1.38l1.25-1.25c.27,0-.3-.21-.49-.34a1.26,1.26,0,0,0-1.87,1.09c0,.3.11.58.09.88l2.13-.89c-.42-.34-.58-1-1-1.38a1.27,1.27,0,0,0-2,.26,3.23,3.23,0,0,0-.33,1.6l1.87-1.08c-.24-.13-.42-.32-.66-.45a1.27,1.27,0,0,0-1.87,1.09c0,.22-.08.36-.18,1l1.53-.89c-.26-.1-.51-.36-.8-.47A1.25,1.25,0,0,0,37.72,25a4.07,4.07,0,0,0,.12,1,2.39,2.39,0,0,0,.28.58c.06-.4.06-.46,0-.18l1.21-.94c-.28,0-.81-.49-1.33-.63a1.27,1.27,0,0,0-1.4.59,2.71,2.71,0,0,0-.32,1.72,2.68,2.68,0,0,0,.22.73,3,3,0,0,0,.4.47c.33.42.35.29.06-.37l1.52-.89c-.52-.08-1-.5-1.5-.58a1.27,1.27,0,0,0-1.4,1.82c.26.6.64.79,1,1.27l1.09-1.87-.6,0a1.27,1.27,0,0,0-1.21,1.57c0,.12.06.25.1.37l.59-1.41-.27.2a1.29,1.29,0,0,0-.47,1.71c.13.24.14.26,0,.07l.63-1.08c-.31.21.37.18,0,0a1.89,1.89,0,0,0-.75,0A1.26,1.26,0,0,0,34.62,31c.08.14.17.27.26.4l.47-1.7-.43.21a1.26,1.26,0,0,0-.26,2c.24.22.6.31.82.5l.57-2.09c-.3.09-.63,0-.94.12a1.27,1.27,0,0,0-.3,2.3c.22.17.47.26.7.43l.3-2.3c-.37.13-.8,0-1.18.15a1.27,1.27,0,0,0-.3,2.3c.23.16.49.24.72.4V31.55l-.48.28a1.26,1.26,0,0,0,0,2.17c.24.14.51.21.75.35l-.59-1.41c.05-.27.62-.61,0-.16a1.27,1.27,0,0,0,0,2.18c.24.11.52.16.76.27L35,33.53a3.9,3.9,0,0,1-.33.38,1.28,1.28,0,0,0,.57,2.1c.37.13.79,0,1.15.14l-.3-2.3c-.32.21-.71.26-1,.47a1.27,1.27,0,0,0,.3,2.3,1.17,1.17,0,0,0,.46.08c.48.08.41,0-.22-.3l.2-1.5-.33.39a1.26,1.26,0,0,0,0,1.77l.25.23.27-2c-.14.09-.33.12-.48.22l1.83,1.4a2.35,2.35,0,0,0-.28-1.79,1.29,1.29,0,0,0-1.71-.47c-.58.27-.71.59-1.08,1.07l2.09.57c-.11-.3-.06-.63-.17-.93a1.26,1.26,0,0,0-2.29-.3c-.28.49-.24,1.13-.51,1.6l2.29.3c-.09-.26-.11-.52-.2-.78a1.33,1.33,0,0,0-1.21-.93,4.73,4.73,0,0,0-.57,0,1.28,1.28,0,0,0-1.41.6c-.11.25-.16.54-.27.78l2-.27a5,5,0,0,1-.41-.5,1.28,1.28,0,0,0-2.18,0l-.26.35h2.18c-.23-.37-.24-.86-.48-1.24a1.26,1.26,0,0,0-2.29.3c-.12.45,0,.93-.09,1.36l1.82-.77-.33-.19a1.25,1.25,0,0,0-1.7.47c-.07.15-.13.3-.2.46l2-.27c-.27-.34-.33-1-.64-1.35a1.26,1.26,0,0,0-2.1.57c-.07.41.09.86,0,1.23l2.1-.57c-.26-.26-.35-.71-.63-1a1.26,1.26,0,0,0-1.76,0c-.73.74-.47,1.24-.58,2.14l1.87-1.09a1.89,1.89,0,0,0-2.74,1l1.7-.47a11.26,11.26,0,0,1-1.08-.72A1.26,1.26,0,0,0,26.3,37.2c0,.48.15,1,.16,1.43l1.25-1.25h-.35a1.26,1.26,0,0,0-1.21.93c0,.18,0,.35-.07.53.1-.31.1-.35,0-.11l1.7-.47c-.46-.26-.75-.82-1.24-1.09a1.27,1.27,0,0,0-1.83.77c-.22.87.11,1.15.31,1.93l1.53-1.52c-.34-.14-.66-.53-1-.67a1.25,1.25,0,0,0-1.57,1.2c0,1,.56,1.35.93,2.21l1.41-1.83a7.44,7.44,0,0,0-2.09-.35,1.26,1.26,0,0,0-1.09.63c-.57.94-.16,1.36.28,2.2l.2-1.5c.44-.36.49-.24-.07-.24-.86,0-1.67,1.08-1.09,1.87.26.36.73.57,1,.89l1.08-1.87c-.44,0-.88-.33-1.36-.36a1.19,1.19,0,0,0-1.08.63l-.15.29a1.28,1.28,0,0,0,.2,1.5c.38.4,1,.54,1.36.93l.88-2.14c-.43,0-.85-.22-1.3-.2a1.26,1.26,0,0,0-1.09,1.86l.29.44V42.59a2.45,2.45,0,0,0-.28,1.21l.93-1.21c-.3.08-.64,0-.95.08a1.26,1.26,0,0,0-.57,2.09c.16.17.37.28.53.45l.26-2-.5.22c-.94.41-.71,1.7,0,2.17.39.25.88.27,1.26.52l-.27-2c-.17.15-.43.15-.68.27a1.25,1.25,0,0,0-.59,1.41c.29.86.63,1,1.32,1.41V45.1c-.77.34-1.19.22-1.65,1.06a1.29,1.29,0,0,0,.2,1.5l.29.31V46.2l-.4.34a1.26,1.26,0,0,0,.57,2.09c.35.13.72.1,1.07.22l-.57-2.09-.41.35a1.27,1.27,0,0,0-.21,1.5c.48,1,1.08.76,2,1l-.3-2.3c-.83.57-1.62.34-2.08,1.42a1.25,1.25,0,0,0,.77,1.82c.53.09,1.11-.16,1.6-.08l-.9-1.53a17.87,17.87,0,0,0-.82,2.2A1.27,1.27,0,0,0,23,52.71c.42,0,.82-.23,1.23-.22L23,50.92a2,2,0,0,0,.16,1.57V51.25c-.17.36-.41.69-.59,1.06A1.27,1.27,0,0,0,24,54.14c.53-.09,1-.51,1.5-.6l-1.41-1.83c-.14.24-.34.44-.48.69a1.25,1.25,0,0,0,.77,1.82l.43.06-.77-1.83c-.15.31-.42.51-.56.82a1.27,1.27,0,0,0,1.4,1.83c.46-.13.81-.5,1.25-.63l-1.41-1.83c-.18.4-.58.67-.77,1.07a1.27,1.27,0,0,0,1.09,1.87c.84,0,1-.32,1.77-.6l-1.57-1.21a2,2,0,0,0,.6,1.45L25.54,54c-.11.39-.45.71-.56,1.12a1.26,1.26,0,0,0,1.53,1.52c.71-.22.08-.23.36-.14l-.57-2.1L26,54.7l1.5-.21c-.29-.18-.5-.51-.81-.7-1-.62-2,.42-1.82,1.41.07.44.39.8.46,1.24L27.19,55c-1.34-.74-2.34-1.27-3.18.56L25.09,55l-.42,0c-.72,0-1.52.77-1.21,1.57.21.53.54.94.71,1.48l.6-1.4c.18-.06.13-.08-.16-.07-1-.1-1.43,1.1-1.09,1.87.08.17.15.35.23.52l1.09-1.87c-.56,0-1.05-.3-1.61-.35a1.26,1.26,0,0,0-1.09,1.87c.32.44.92.68,1.2,1.07l1.09-1.86c-1.26-.1-1.69-1-2.68.45a1.28,1.28,0,0,0,.21,1.5c.1.12.5.58.68.58-1.1,0,1.13-1.2-.17-1.16-.77,0-1.07.6-1.31,1.23a1.24,1.24,0,0,0,.32,1.2,2.22,2.22,0,0,1,.68.87l.77-1.83c-.52.16-1.09.17-1.62.35a1.26,1.26,0,0,0-.3,2.29c.53.38.33.38.2,0L21.53,62l-.31.29a1.26,1.26,0,0,0,.26,2,6.74,6.74,0,0,0,1.12.6V62.71c-.45.22-1.08.13-1.57.36-1.08.52-.63,2,.3,2.3.48.18,1.05,0,1.52.19L22,64.67v.23l.63-1.09c-1,.68-2.35.82-2,2.46a1.77,1.77,0,0,0,1.24,1.39c.39.15,1.13.07,1.31.19l-.27-2c-.25.29-.67.41-.92.7a1.27,1.27,0,0,0,.88,2.14c.42,0,.82-.23,1.22-.23L23,66.63a4.88,4.88,0,0,1-.74,1A1.26,1.26,0,0,0,23,69.49l.42.11-.77-1.83a2.84,2.84,0,0,0-.48,1.55,1.27,1.27,0,0,0,1.56,1.21c.44-.07.8-.39,1.23-.47l-1.57-1.2a6.21,6.21,0,0,0,0,.75,1.27,1.27,0,0,0,1.56,1.21c.26,0,.47-.17.72-.22l-1.52-1.52a2.22,2.22,0,0,0,.11,1.71,1.28,1.28,0,0,0,1.41.59c.21,0,.39-.14.61-.18l-1.41-.59c0-.49-.05-.53-.11-.12A1.27,1.27,0,0,0,26.26,72c.22-.08.43-.22.64-.29L25.38,70.2c-.15.48-.64.87-.79,1.38a1.26,1.26,0,0,0,1.52,1.53c.27-.09.34-.1.19,0l-.93-1.21c0,.16,0,.31,0,.47A1.26,1.26,0,0,0,27,73.55a14.07,14.07,0,0,0,1.49-.78l-1.87-1.09c0,.2,0,.4,0,.6a1.26,1.26,0,0,0,1.87,1.08c.22-.12.39-.3.61-.42l-1.87-1.08c0,.42-.43.9-.48,1.39a1.26,1.26,0,0,0,1.87,1.08c.29-.2.5-.55.77-.74l-1.87-1.08A2.65,2.65,0,0,0,28,74.32a1.26,1.26,0,0,0,1.5.21L30,74.3l-1.87-1.09c0,.27,0,.51,0,.78a1.27,1.27,0,0,0,2.14.88c.3-.24.43-.66.73-.9l-2.14-.88c0,.47-.3,1-.28,1.44a1.28,1.28,0,0,0,2.14.89,14.43,14.43,0,0,0,1.13-1.23l-2.13-.89c0,.39-.12.75-.09,1.14a1.26,1.26,0,0,0,1.86,1.09c.66-.37.75-.74,1.24-1.24l-2.09-.57c0,.34-.07.74,0,1.1.13,1,1.47,1.15,2.09.57l.43-.4-2-.27c.07.14.14.29.2.43a1.26,1.26,0,0,0,2,.26c.16-.16.28-.38.44-.54l-2.09-.57c.12.45.17.86.33,1.3a1.27,1.27,0,0,0,2.3.3c.29-.39.29-1,.57-1.33l-2.3-.3c.2.51.15,1.08.34,1.59a1.26,1.26,0,0,0,2.29.3c.2-.27.25-.62.45-.89H33.43a2.37,2.37,0,0,0,1.31,1,1.28,1.28,0,0,0,1.71-.47c.22-.32.21-.76.42-1.08l-2.3-.3c.18.51,0,1.15.14,1.69a1.26,1.26,0,0,0,2.29.3,3.94,3.94,0,0,0,.29-.77c.21-.65-.3-.1,0-.28l-1.83-.77c.14.34.1.71.23,1.05A1.27,1.27,0,0,0,38,76c.17-.32.2-.71.36-1H36.16a8.5,8.5,0,0,1,.55,1,1.27,1.27,0,0,0,2.18,0c.16-.33.18-.73.34-1H37.05c.13.31.13.71.27,1a1.26,1.26,0,0,0,2.18,0c.13-.26.19-.56.32-.82H37.64c.28.47.35,1,.6,1.43a1.25,1.25,0,0,0,2,.26c.27-.26.18-.27-.27,0A1.26,1.26,0,0,0,41,76.18c.18-.39.13-.88.29-1.23H39.14a13.47,13.47,0,0,0,1.14,1.92,1.26,1.26,0,0,0,2-.27c.17-.38.11-.88.26-1.23l-2,.27c.25.24.26.58.45.87a1.26,1.26,0,0,0,1.7.47c.61-.36.7-.67,1-1.25L42,76.2l.32.23c.73.51,1.56-.11,1.82-.77.15-.36.12-.74.26-1.09l-.89.89.3,0-1.2-.33c.29.34.25,1,.46,1.4a1.27,1.27,0,0,0,2.18,0,12.74,12.74,0,0,1,.62-1.15l-2.3-.3c.11.28.13.55.23.83a1.27,1.27,0,0,0,2.1.56c.14-.16.24-.37.38-.52l-2.09-.57c.06.31,0,.69,0,1a1.27,1.27,0,0,0,2.1.56c.17-.17.29-.39.47-.56l-1.2.33c-.36-.78-.53-.91-.52-.39-.1,1,1.1,1.41,1.87,1.08.22-.09.39-.24.62-.34L45.72,76a2.11,2.11,0,0,0,2.66,2.2l-1.53-.9.06.38a1.26,1.26,0,0,0,1.52.89l.53-.12-1.52-1.52c-.07.41-.22.76-.31,1.16a1.31,1.31,0,0,0,.59,1.41c1.05.75,1.4-.06,2.29-.4l-1.53-1.53c-.06.24-.21.47-.28.71a1.27,1.27,0,0,0,1.53,1.53c.3-.09.55-.32.82-.4L49,78.16c-.11.88-.69,1.58-.19,2.45s1.55.82,2.47.58l-1.53-1.52c-.07.24-.22.47-.29.71a1.28,1.28,0,0,0,.89,1.53l.3.12-.89-.89.06.36a1.22,1.22,0,0,0,.89.89,2.9,2.9,0,0,0,1.65-.16L50.83,80.7c-.08.27-.31.52-.4.8a1.28,1.28,0,0,0,.33,1.21,5.44,5.44,0,0,1,.42.41,1.24,1.24,0,0,0,1.21.33c.33-.11.61-.38.93-.49l-1.53-.89.1.32a1.27,1.27,0,0,0,1.52.89c.72-.14.27,0,0-.16l-.59-1.4c0,.21-.17.41-.22.63a1.26,1.26,0,0,0,1.52,1.53c.23,0,.42-.16.65-.21l-1.53-1.52c-.1.29-.37.56-.49.88a1.24,1.24,0,0,0,.33,1.2c.91.88,1.62.41,2.68.16L54.2,82.86c-.16.4-.68.78-.86,1.24-.32.78.49,1.54,1.2,1.57H55l-1.21-.93a6,6,0,0,0,.33.93,1.25,1.25,0,0,0,1.4.59c.53-.13,1-.47,1.52-.6l-1.53-1.53c-.32,1-1.21,1.58-.47,2.72a1.27,1.27,0,0,0,1.4.6c.51-.19.89-.69,1.36-.86l-1.2-.32c-.43-.37.35.12.08.28,0,0,0-.74-.33.08A1.28,1.28,0,0,0,56.9,88l.25.18-.59-1.4c-.09.24-.27.48-.37.74-.34.89.7,1.76,1.53,1.52.59-.16,1.12-.56,1.69-.73l-1.53-1.52c-.09.26-.34.51-.43.8a1.25,1.25,0,0,0,1.21,1.56h.46l-1.21-.94c0,.3-.16-.4-.2.36A2.63,2.63,0,0,0,58,89.83a1.26,1.26,0,0,0,1.41.59c.5-.15.36-.26.5-.22l-.77-1.82c-.15.37-.53.63-.68,1-.36.88.27,2.22,1.4,1.83.53-.19.92-.69,1.41-.86l-1.53-1.52c-.11.27-.38.54-.5.84a1.26,1.26,0,0,0,1.21,1.57l.5,0-1.08-1.86c-.12.27-.29.48-.4.75a1.26,1.26,0,0,0,.47,1.71,4,4,0,0,0,2.46,0l-1.53-1.53c-.09.23-.25.46-.34.71a1.25,1.25,0,0,0,.89,1.52l.37.08L60.84,91c-.1.39-.28.75-.39,1.14-.28,1,.64,1.64,1.53,1.53a8.9,8.9,0,0,0,1.34-.38l-1.53-1.52c-.07.21-.22.43-.3.66A1.26,1.26,0,0,0,63,94c.34-.1.63-.35,1-.44L62.58,91.7c-.17.39-.57.65-.75,1a1.27,1.27,0,0,0,1.41,1.82c.27-.07.52-.22.8-.29l-1.41-1.83c-.17.38-.55.64-.73,1a1.27,1.27,0,0,0,0,1.24c1,1.27,2,.83,3.35.51l-1.41-1.83c-.16.34-.46.58-.62.92a1.27,1.27,0,0,0,1.4,1.83c.41-.1.73-.45,1.11-.54L64.2,94.07c-.07.37-.21.68-.31,1.05a1.26,1.26,0,0,0,1.53,1.52c.34-.08.62-.32,1-.4L65,94.41c-.18.39-.58.64-.76,1a1.27,1.27,0,0,0,1.4,1.83c.4-.1.72-.43,1.09-.52l-1.4-1.83c-.24.47-.77.76-1,1.24A1.27,1.27,0,0,0,65,98c.89.17,1.19-.14,2-.36l-1.41-1.82c-.16.33-.46.57-.63.91a1.27,1.27,0,0,0,1.4,1.83c.33-.07.59-.29.91-.36l-1.4-1.83a8.75,8.75,0,0,0-.67,1.53,1.26,1.26,0,0,0,1.52,1.52c.36-.09.65-.34,1-.42l-1.2-.33.2.22-.21-1.5c-.16.33-.45.56-.61.89-.32.64-.09,1.72.77,1.83a9,9,0,0,0,2.16-.3l-1.09-.64.16.26V98.19c-.28.64-.73,1.13-1,1.76a1.26,1.26,0,0,0,.89,1.53,4,4,0,0,0,2.12,0l-1.4-1.82c-.12.25-.3.45-.41.71a1.26,1.26,0,0,0,1.4,1.82c.27-.05.51-.18.78-.24l-1.4-1.82c-.17.35-.55.59-.73,1a1.27,1.27,0,0,0,1.41,1.82c.32-.06.58-.27.89-.33l-1.4-1.82c-.1.23-.26.42-.35.66a1.27,1.27,0,0,0,1.4,1.83c.34-.08.62-.3,1-.38l-1.53-1.52-.1.46A1.26,1.26,0,0,0,71,103.29c.31,0,.56-.24.86-.29l-1.4-1.82c-.18.33-.5.57-.68.91a1.26,1.26,0,0,0,.77,1.82L71,104,70,102.76c0,.22-.13.39-.21.64a1.26,1.26,0,0,0,.59,1.4c.86.58,1.24.13,2.1,0L71,103.25c-.07.2-.23.4-.31.61a1.27,1.27,0,0,0,1.21,1.57,11.07,11.07,0,0,1,1.13-.11l-1.09-1.87c-.17.35-.55.58-.73.94-.36.75.08,2,1.09,1.87.23,0,.48-.13.7-.16l-1.09-1.87c-.13.26-.33.47-.46.73a1.26,1.26,0,0,0,1.09,1.87c.62-.06,1.14-.29,1.73-.37l-1.41-1.82c-.25.44-.8.71-1.06,1.18a1.26,1.26,0,0,0,1.08,1.87,8.2,8.2,0,0,0,1.72-.35l-1.4-1.83c-.47,1-1.24,1.2-.57,2.41a1.29,1.29,0,0,0,1.4.6c.39-.07.71-.37,1.09-.44l-1.41-1.83c-.15.3-.43.51-.59.81a1.27,1.27,0,0,0,1.41,1.83c.27,0,.51-.16.78-.21l-1.4-1.82c-.13.28-.39.47-.52.75a1.27,1.27,0,0,0,1.09,1.87,15.58,15.58,0,0,0,1.85-.43l-1.4-1.83c-.27.48-.91.74-1.2,1.25a1.27,1.27,0,0,0,1.41,1.83c.37-.08.68-.32,1-.4L74.65,109c.08.27-.12.67-.16,1A1.27,1.27,0,0,0,76,111.5c.52-.11.92-.55,1.42-.66l-1.2-.32.19.23-.21-1.5c-.14.29-.43.49-.58.79-.38.76.09,2,1.09,1.87a3.19,3.19,0,0,0,.7-.08c.49-.18.5.29-.07-.27l-.33-1.2c-.16.46-.63.72-.88,1.15a1.26,1.26,0,0,0,1.09,1.87,8.08,8.08,0,0,0,.85,0l.23,0c.52-.16.49-.2-.09-.11l-.47-1.71c-.17.36-.33.71-.48,1.07a1.3,1.3,0,0,0,.47,1.71c.77.42,1.2.21,2,.1l-1.4-1.82c-.18.3-.5.53-.69.84a1.28,1.28,0,0,0,.47,1.71c-.75-.48.17.34.37.47a4.58,4.58,0,0,0,1.09.33c1.53.5,2.16-1.92.64-2.42Z" style="fill:#1c1b1f"/><path d="M25.82,56.39a5.25,5.25,0,0,0,2,.65c.22.05.53.21.85.3a2.92,2.92,0,0,0,1.41,0l-1.41-.19a7.76,7.76,0,0,0,4.07.48h-.95A4.57,4.57,0,0,0,34,57.48c2.28-.76,1.34-4.39-1-3.62-.28.09-.58.1-.88.18h1c-.66-.09-1.16-.1-1.68-.15s-1-.13-1.49-.13l.93.25a3.07,3.07,0,0,0-2-.24h1a6,6,0,0,0-2.22-.5l.93.24a4.18,4.18,0,0,1-.82-.38,1.89,1.89,0,0,0-2.56.7,1.93,1.93,0,0,0,.71,2.56Z" style="fill:#1c1b1f"/><path d="M52.76,28.79a8,8,0,0,0,.81,1.8,4.63,4.63,0,0,0,.91,1.76L54,31.5a8.35,8.35,0,0,0,.76,2.15l-.24-.93a8.58,8.58,0,0,0,.28,2v-1l-.07.29c-.54,2.35,3.09,3.32,3.63,1A5.86,5.86,0,0,0,58,31.8a5.51,5.51,0,0,0-1.13-2.33l.49.85a5,5,0,0,0-1.2-2.47l.48.85a6.5,6.5,0,0,1-.27-.87A1.88,1.88,0,0,0,54.1,26.5a1.92,1.92,0,0,0-1.34,2.29Z" style="fill:#1c1b1f"/><path d="M34.51,37.3a4,4,0,0,0,1.39,2s-.16-.38,0-.11.2.49.34.71a2.5,2.5,0,0,0,1.49,1L36.6,40a3.62,3.62,0,0,0,.85,1c-.54-.55,0,0,.22.28s.43.35.64.56c-.7-.7.12.21.24.33.72.67-.14-.19.3.19.21.19.41.39.64.56A7.18,7.18,0,0,0,41.38,44c2.25.86,3.19-2.77.95-3.63.89.34-.17-.17-.33-.27s-.77-.58-.34-.23-.49-.45-.58-.54l-.65-.62c-.16-.14-.69-.66-.31-.25s-.5-.5-.56-.58c.57.71-.13-.28-.4-.44a4,4,0,0,0-.78-.28l1.15.89a7,7,0,0,0-1-1.4,3.18,3.18,0,0,0-.75-.61c.22.12.42.63.34.27C37.58,34,34,35,34.51,37.3Z" style="fill:#1c1b1f"/></svg>