<svg id="레이어_1" data-name="레이어 1" xmlns="http://www.w3.org/2000/svg" viewBox="0 0 128 128"><path d="M32.52,34.18c-.1,0-.46.23-.56.22s-.17-.11-.27-.12-.19.1-.29.1-.16-1.08-.26-1.08-.2.75-.3.75-.18.16-.28.16-.24-.45-.34-.44-.29-.51-.39-.49-.21.13-.31.15,0,.83-.12.86,0,.48-.15.51-.57-1.13-.66-1.1-.38-.33-.47-.29-.2.14-.3.18.07.68,0,.72.08.57,0,.62-.66-.71-.74-.66-.18.14-.27.19.74,1.38.66,1.44-.32-.14-.4-.07-.43-.23-.5-.17-.3,0-.38,0-.22.06-.29.13.67.89.6,1-1.43-1-1.5-.91.66.79.59.87.28.43.22.51S25,36.92,24.9,37s.54.56.49.65-.94-.31-1-.22.93.69.89.78-.11.13-.15.22S24,38.19,24,38.28s.81.5.78.59.32.28.29.37-1.59-.21-1.61-.11.8.38.78.48.44.26.43.36-.84.07-.85.17.63.26.62.36-1.17.11-1.18.21.36.23.35.33.6.21.6.31-.62.2-.61.3.93.15.94.25.11.17.12.27-.57.25-.55.35-.18.23-.16.32.32.14.35.23-1,.48-1,.58.89,0,.92.05-.28.33-.24.42,1-.23,1-.15-.52.5-.47.59.84-.39.9-.32-.87.55-.8.62.46.49.29.59-.56-.58-.66-.51.28.75.19.81,0,.24-.12.31,0,.29,0,.35-.72-.52-.8-.45-.67-.38-.74-.3-.2.14-.27.22.2.46.13.54.63.72.57.8.14.3.08.38-1-.39-1-.31-.1.19-.14.28.86.63.81.72-.45,0-.49.09-.82-.1-.85,0,.83.47.8.57-1.1-.1-1.13,0,1,.43.95.53.21.21.19.31-1.61,0-1.62.08,1.16.32,1.15.43-1.28.13-1.28.23,1,.24,1,.34-.55.21-.55.31-.37.24-.36.34,1.22.12,1.23.22-1.06.32-1.05.42.8.1.82.2.5.12.52.22.34.12.36.22,0,.17,0,.27-1.16.49-1.13.58.83,0,.86.08-1.16.56-1.13.66,1.05-.12,1.08,0-.56.4-.53.5.84-.08.87,0,.49,0,.53.11-.48.4-.45.5-.34.36-.3.46.29.09.33.18-.58.5-.54.59.63-.07.68,0,.55,0,.59.07.18,0,.26.21-.67.5-.62.61.45,0,.5.1-.77.59-.72.68,1.55-.56,1.6-.46-1,.72-.93.81.26.09.3.18.82-.21.87-.12,0,.22,0,.31-.44.47-.39.56-.08.28,0,.37.41,0,.46.08-.64.61-.59.7.95-.34,1-.25.77-.24.82-.16-.56.58-.51.67.16.13.22.22-.54.58-.48.67,0,.21.09.3-.06.28,0,.36.14.15.2.23S27,62.15,27,62.23s.06.19.12.28-.52.6-.47.68-.57.66-.52.74.68-.24.74-.15.8-.34.86-.26,0,.22.08.3,0,.27,0,.35.35,0,.41.06-1.07,1.06-1,1.14.65-.24.71-.16.54-.16.6-.08.13.14.19.22-.64.76-.58.84.6-.22.67-.14-.35.53-.29.61.18.12.25.19.6-.23.66-.15,0,.25.07.33.92-.51,1-.43l.19.23c.06.07.14.14.2.22s-.52.7-.45.78.63-.28.69-.21.28,0,.34.1,0,.29,0,.36.23.06.3.14-.41.63-.34.7.51-.19.58-.12.35-.06.42,0,.08.19.14.27-.31.56-.24.64-.25.5-.18.57-.15.42-.08.49.77-.46.84-.38-.37.63-.3.7,1.07-.75,1.14-.68.17.11.24.18-.32.58-.25.66-.16.44-.09.51.47-.18.54-.11,0,.3.05.37.43-.16.51-.09l.2.22c.07.07.18.1.25.17s.07.21.14.28-.08.38,0,.45.6-.35.68-.28-.18.48-.1.55.07.21.14.28.2.08.27.15.62-.38.69-.31-.53.88-.45,1,.54-.31.61-.24-.39.74-.31.8.58-.34.65-.28.5-.26.57-.19-.71,1.12-.64,1.18-.11.44,0,.5.18.1.26.17.86-.69.94-.63,0,.32.07.38.54-.33.62-.26.26,0,.33.06-.39.79-.32.85-.05.38,0,.44.94-.83,1-.76-.11.45,0,.51-.08.41,0,.48-.42.83-.34.9.93-.84,1-.78l.25.17c.08.06.39-.17.47-.11s-.43.87-.35.93-.15.52-.07.58.68-.54.76-.47-.5,1-.42,1,.81-.72.89-.66-.17.56-.09.62-.09.46,0,.52.79-.71.87-.65-.46,1-.38,1,.3-.06.38,0,1-1,1.06-.91-.84,1.47-.76,1.53.84-.79.92-.73.1.2.18.26a2.15,2.15,0,0,1,.24.18c.09.06,0,.41.05.46s.72-.66.8-.6-.35.84-.26.9-.2.64-.12.7,1-1.05,1.08-1-.2.47,0,.59-.29.68-.19.75.54-.4.63-.33-.07.41,0,.47.47-.28.55-.22-.5,1-.42,1,.74-.64.83-.58.37-.15.45-.09-.53,1-.45,1.07.79-.7.87-.63.5-.3.58-.24-.75,1.26-.67,1.33.86-.77.94-.7-.3.68-.22.75.41-.19.49-.13.06.24.14.3-.22.59-.14.66.81-.68.88-.62S50,86,50.12,86s.58-.4.66-.34-.17.53-.1.6.58-.39.66-.33.51-.31.59-.24-.07.4,0,.46.23,0,.3.11.43-.2.51-.13-.86,1.33-.78,1.4.57-.37.64-.31-.16.51-.08.58.09.19.16.26.52-.31.6-.24.09.2.16.27-.12.45,0,.52.61-.41.68-.34,0,.29.09.36,0,.33,0,.39,1-.84,1.08-.77,0,.27.1.34-.23.57-.16.64.36-.11.44,0-.4.75-.32.82-.07.37,0,.44,1-.78,1-.71-.6,1-.53,1,.27,0,.34.07.74-.51.82-.45.49-.24.56-.17.22.07.29.14.13.15.21.22-.08.39,0,.45-.72,1.08-.65,1.15.12.17.19.24.17.11.24.18,1.19-1,1.27-.9-1,1.3-.89,1.37.64-.37.71-.3.44-.17.52-.1-.07.36,0,.43.24,0,.31.12.66-.39.74-.32-.42.72-.35.79-.39.68-.32.75.28,0,.35.07.32,0,.39,0,.64-.35.71-.28.13.16.2.23-.48.75-.41.83.07.21.14.28.16.13.23.2.25,0,.32.11.9-.57,1-.49.11.17.18.25S62,96.87,62.07,97s1.32-.94,1.39-.87-.55.78-.49.85-.33.57-.26.65.51-.19.58-.12-.2.47-.13.55,0,.15.16.29.47-.21.55-.13.9-.62,1-.54-.06.33,0,.41.23,0,.3.11.23.06.3.13.09.19.16.27-.61.88-.54,1,1.07-.78,1.14-.71-.59.87-.52.95.19.09.26.16.26,0,.33.1.56-.29.64-.22-.73,1-.66,1.08l.2.22c.07.07,0,.31,0,.38s.93-.64,1-.57.38-.1.46,0-.78,1.06-.71,1.13,1.11-.83,1.19-.76-.54.81-.47.88.37-.08.44,0-.42.71-.35.78,1.28-1,1.35-.93-.21.49-.14.56-.25.54-.18.61l.2.22c.07.07,0,.31,0,.38s1-.72,1.08-.65,0,.32,0,.39-.16.44-.09.52-.07.35,0,.42.1.18.17.25-.06.35,0,.42,0,.29.07.36,1.27-1,1.34-.91,0,.31.05.38-1,1.24-.89,1.32.88-.6.95-.53.21.08.28.15-.18.46-.1.53.89-.6,1-.53-.16.44-.09.51.35-.06.42,0,0,.27.09.34-.57.86-.5.93.6-.31.67-.24.24,0,.31.12-.31.59-.24.66,0,.33,0,.4,1.09-.81,1.17-.74-.18.46-.11.53.58-.29.65-.22-.51.79-.44.86.22.07.29.14.12.17.19.24.44-.16.51-.09-.77,1.07-.71,1.14,1.31-1,1.37-1,.14.15.21.22-.84,1.13-.77,1.2,1.06-.77,1.13-.71-.32.62-.26.68.08.22.15.28.22-.6.29-.54-.36,0-.19-.08.38.28.48.21.25.06.35,0,.68.72.77.66-.56-1.24-.47-1.29,0-.4.07-.45.82.93.91.87-.36-.92-.27-1,0-.3.12-.36,1.06,1.27,1.15,1.22.08-.25.16-.3,0-.37.08-.43.28.07.36,0-.19-.65-.11-.71-.2-.66-.12-.72.59.53.67.47.39.23.47.17,0-.29.13-.35.07-.24.16-.29l.25-.17c.08,0,.33.15.42.09s-.38-.91-.3-1,.07-.25.15-.31.81.84.89.78-.51-1.1-.43-1.16,1,1.11,1.08,1-.07-.45,0-.51.31.1.39,0-.61-1.22-.53-1.28.91,1,1,.91,0-.39,0-.44.44.28.53.22.35.16.44.1-.3-.76-.22-.82a2.36,2.36,0,0,0,.28-.12c.08-.06.12-.18.2-.24l.25-.17c.08,0,.61.51.69.46s-.82-1.48-.74-1.54.69.61.77.55-.29-.74-.21-.8,0-.32.09-.38.36.16.44.1.34.12.42.06.56.43.64.37.06-.26.14-.32.42.23.5.17.12-.17.2-.23-.35-.8-.27-.86.82.76.9.7-.52-1-.44-1.09.36.16.44.1.31.08.39,0-.3-.73-.22-.79.52.36.6.3.18-.09.26-.15-.32-.74-.24-.8.44.24.52.18-.31-.73-.23-.79.86.8.94.73-.31-.72-.24-.79.72.6.8.54-.42-.86-.34-.92.38.16.46.1-.07-.41,0-.47.83.72.9.66.29,0,.37,0,.1-.2.18-.26-.06-.4,0-.46.27,0,.35-.06,0-.32.07-.38.49.29.57.22-.53-1-.45-1-.13-.47-.05-.53,1.17,1.11,1.25,1,.11-.18.19-.25-.57-1-.49-1,.07-.22.15-.29-.11-.43,0-.5.12-.16.2-.22,1.08,1,1.15.9.32.06.4,0,0-.27.11-.33-.44-.82-.36-.89-.13-.45,0-.52.72.54.8.48,0-.35,0-.41,0-.28.1-.35-.14-.45-.06-.52.63.42.71.35-.23-.56-.16-.62,0-.29.08-.36,1.3,1.15,1.38,1.08-.42-.76-.35-.83.45.19.52.13.39.12.46,0,.21-.07.29-.14-.79-1.15-.71-1.21,1,.74,1,.67-.36-.68-.29-.75-.27-.59-.2-.66.61.35.68.29-.36-.67-.29-.74.92.67,1,.6-.71-1-.64-1.09,1.16.91,1.24.84-.85-1.16-.78-1.23,1.17.91,1.24.84-.56-.86-.49-.93,0-.28.08-.35.82.55.89.48.22-.08.29-.15-.38-.66-.31-.73,0-.29.06-.36-.14-.42-.07-.49,0-.24.11-.31,1,.66,1,.58,0-.25.09-.33.49.19.56.12-.23-.5-.16-.57.76.43.83.36-.23-.49-.16-.57-.58-.81-.51-.88.52.21.59.14.21-.08.28-.15.63.29.7.22-.85-1-.78-1.11,1,.66,1.11.58-1-1.12-.91-1.2.59.25.65.18.15-.14.22-.21-.36-.57-.3-.65,1.07.64,1.13.56-.83-1-.76-1,.33,0,.4,0,1.19.72,1.26.64-.67-.8-.61-.88-.26-.47-.2-.55,1.29.78,1.35.7-.25-.46-.18-.54,0-.26,0-.34-.51-.64-.45-.72,1.25.7,1.31.62-.76-.83-.7-.91.06-.2.12-.28-.16-.36-.1-.45,1,.45,1,.36.06-.2.12-.28.56.14.62.06-.87-.85-.82-.94.74.27.8.18-.42-.52-.37-.61.56.14.62,0,.76.26.82.18-.76-.74-.71-.82-.27-.41-.22-.5,0-.23.05-.31l.15-.26c0-.08.24-.08.29-.17s1.09.42,1.14.33-.3-.41-.25-.49.16-.15.21-.24-.26-.37-.21-.45.88.24.93.15,0-.21.08-.3-.3-.38-.25-.47-.91-.68-.87-.77,1.17.36,1.21.27,0-.22.07-.31.22-.12.26-.21.23-.12.27-.21-.55-.46-.51-.55.48,0,.51-.11.6-.82.64-.91a2.89,2.89,0,0,0-.45-.33c-.12-.09-.24.06-.36,0s-.32.18-.44.09-.64.6-.76.5.75-1.22.63-1.31-.35.21-.47.12-.61.55-.72.46-.27.1-.39,0,.2-.51.09-.6.37-.74.25-.83,0-.17-.17-.26-1,1.11-1.16,1,.15-.45,0-.54-.23.06-.35,0,.56-1,.44-1.07-1,1.12-1.16,1,0-.28-.09-.37.73-1.2.61-1.29-1,1.07-1.12,1,.24-.56.12-.65-.55.47-.67.38-.07-.15-.19-.24-.19,0-.31-.08-.09-.13-.21-.22.38-.75.26-.84-.25.09-.37,0,.13-.42,0-.51-.24.08-.36,0-.34.19-.46.1-.3.15-.42.06-.09-.12-.21-.21.22-.54.1-.63-.41.29-.53.2l-.24-.17c-.12-.09.25-.57.13-.66s.19-.5.08-.59-1.08,1.16-1.2,1.07.17-.46,0-.55.28-.6.16-.7,0-.27-.1-.36-.09-.12-.21-.21-.77.75-.89.66.65-1.09.53-1.18-.74.72-.86.63.58-1,.46-1.09-.21,0-.33-.06-1,1.09-1.14,1,.2-.5.08-.59-.05-.19-.17-.28.26-.58.14-.67-.9.94-1,.85.7-1.17.59-1.26-.92.95-1,.86-.15-.05-.27-.14-.09-.12-.21-.21,0-.25-.12-.34.38-.74.26-.83-.52.44-.64.35.67-1.13.55-1.22-.27.11-.39,0-.36.22-.48.13.31-.65.19-.74-.08-.14-.2-.23S99.26,65.05,99.14,65s.79-1.28.67-1.37-.35.22-.47.13-.46.35-.58.26-.24.08-.36,0,.57-1,.45-1.09-.43.31-.54.22-.54.46-.66.37.38-.75.26-.84-.29.14-.41,0-.5.41-.61.32,0-.33-.07-.42.14-.42,0-.51.38-.74.26-.83-.53.44-.65.35,0-.21-.14-.3.13-.42,0-.51-.49.38-.6.29.19-.5.07-.59-.31.17-.43.07-.79.79-.9.7.74-1.22.62-1.31-.67.63-.79.54-.35.21-.47.12.61-1,.49-1.13-.48.37-.6.28-.4.27-.51.18-.14-.07-.26-.16.25-.58.13-.67S92.92,59,92.8,59s-.24.06-.36,0,0-.27-.1-.36-.31.16-.43.07-.17,0-.29-.12-.1-.12-.22-.21.27-.61.15-.7-.24.15-.39,0-.06-.22-.15-.3.21-.55.12-.62-.66.49-.74.42-.46.24-.54.17,0-.33-.06-.39-.44.2-.51.13.68-1.09.6-1.15,0-.31-.07-.38-.47.25-.55.18-.73.53-.81.46.64-1,.56-1.08-.63.41-.71.34-.31.05-.39,0,0-.3-.07-.37-.5.25-.57.18.09-.39,0-.46-.13-.16-.2-.22.53-.86.46-.93-.19-.1-.26-.17-.32.06-.4,0-.61.35-.68.28-.6.33-.67.26.9-1.22.83-1.29-1.15.89-1.22.82.42-.72.35-.79-.58.3-.65.23.21-.5.13-.57-.65.37-.73.3.11-.39,0-.46-.12-.17-.19-.24.87-1.14.8-1.21-1.09.79-1.16.72.75-1,.68-1.08-.65.35-.72.28.46-.71.39-.79-.67.37-.74.3.39-.65.32-.72-.16-.12-.23-.19-.82.49-.89.41.46-.69.39-.76-.63.31-.7.23-.59.28-.66.21.42-.66.35-.74-.6.28-.67.2.79-1,.72-1.06-.11-.17-.17-.24-1.46,1-1.53,1,.51-.73.45-.81.2-.44.13-.52-.84.48-.9.4.38-.61.32-.68-.63.28-.69.2-.36,0-.43,0,.45-.65.38-.73-.13-.15-.2-.23.09-.34,0-.41.37-.59.31-.66-.71.33-.78.26-.73.34-.79.26-.27,0-.34-.11.71-.84.64-.92-.46.12-.52,0,.68-.81.61-.89-.25-.06-.31-.14-.71.32-.78.24-.09-.18-.16-.26-.7.3-.76.22.17-.39.11-.47.18-.41.12-.49.16-.38.1-.46,0-.23-.1-.31-.09-.18-.15-.26-1,.51-1.06.43,1-1,1-1.11-1.52.89-1.58.81.22-.42.16-.51.18-.39.12-.47-.47.1-.53,0-.1-.17-.16-.25.3-.47.24-.55-.53.15-.59.07.69-.78.63-.86-.2-.1-.27-.18-.86.41-.92.33-.16-.12-.22-.2.92-1,.86-1.05-.81.37-.87.29.31-.49.24-.57,0-.24-.09-.32.15-.38.09-.45-1.14.65-1.2.58-.34,0-.41-.06.36-.55.3-.62-.32,0-.38-.08.57-.74.51-.82,0-.27-.06-.35-1.22.77-1.28.7.44-.65.38-.72-.69.32-.75.25.35-.58.28-.65.37-.59.3-.67-.26,0-.33-.11-.32,0-.39-.06-1,.6-1,.53.47-.7.4-.77.06-.33,0-.4-.91.57-1,.5.9-1.13.83-1.2-.46.16-.53.09-.44.14-.51.07-.28,0-.35-.08.28-.56.21-.63-.29,0-.36-.06.39-.68.32-.75-.43.14-.5.07-.75.48-.82.41-.35.08-.42,0,1-1.32.9-1.38-.76.5-.83.43.45-.78.38-.85-.13-.16-.2-.23-.67.43-.74.36-.4.15-.47.08.14-.46.06-.53-.39.15-.47.09.51-.91.43-1-.83.67-.9.61-.39.15-.47.09-.08-.21-.16-.28.24-.6.16-.66-.06-.25-.14-.31-.78.67-.86.6.63-1.13.55-1.19-1,1-1.09.94.5-1,.42-1.06-.46.28-.54.22.07-.43,0-.49-.42.24-.5.18.29-.77.2-.82-.85.89-.93.83.62-1.28.54-1.34-.1-.23-.18-.28-1,1.21-1.11,1.16.69-1.47.6-1.52-.89,1.06-1,1,.26-.81.17-.86-.09-.24-.18-.29-.63.7-.72.65.17-.72.09-.76-.33.17-.42.13,0-.38-.11-.43-.06-.33-.15-.37-.37.28-.46.23-.52.61-.61.57.26-1,.17-1.05-.61.82-.7.78.16-.82.07-.87-.46.55-.55.51.12-.79,0-.83-.43.53-.52.49.27-1.23.18-1.27-.22,0-.31-.07-.33.3-.43.26-.42.6-.52.57-.07-.4-.16-.43-.2,0-.3-.07l-.29-.08c-.09,0-.31.37-.41.34s0-.73-.09-.76-.09-.46-.19-.48-.17-.19-.26-.22-.33.46-.43.43-.32.54-.42.52-.07-.65-.17-.67-.42,1.13-.52,1.11.09-1.56,0-1.57-.35.84-.44.82-.29.64-.39.62-.14-.34-.24-.35,0-1.49-.14-1.5-.27.66-.37.66-.19-.34-.29-.34-.22.32-.31.32-.23-.7-.33-.7-.11,1.81-.21,1.82-.27-1-.37-1-.24-.25-.34-.23-.06.83-.16.85-.09.35-.19.38-.49-1.08-.59-1,.1.91,0,.94-.07.27-.16.31-.8-1.23-.89-1.19.61,1.51.52,1.56-.78-.9-.87-.85.39.86.31.92-.11.11-.19.17-.75-.53-.83-.46-.15.15-.22.22,0,.3,0,.38.35.5.29.58-1.22-.6-1.28-.51.58.61.53.69-.46,0-.5.08-.11-.35-.15-.26.25.21.15.2-.16-.4-.26-.41-.26.42-.36.41-.32,1-.42,1-.08-1.2-.18-1.21-.29.9-.39.89-.15-.69-.25-.69-.23.36-.33.36-.2-.16-.3-.17-.2.09-.3.09-.21.23-.31.23-.19.69-.29.7-.22-1-.32-1-.24-.65-.34-.64-.09,1.54-.2,1.55-.32-1.27-.42-1.26-.11.77-.21.78a2.71,2.71,0,0,0-.29,0c-.1,0-.31-.56-.4-.54s-.31-.43-.41-.4.13,1.41,0,1.43-.5-1-.59-1,.13,1.08,0,1.11-.39-.54-.48-.5,0,.5-.1.54-.69-1-.78-1,.56,1.61.48,1.65-.18,0-.27.07-.23-.05-.31,0-.36-.21-.44-.15.09.43,0,.49-.27-.06-.35,0-.73-.54-.8-.47.53.86.46.92.1.34,0,.41-.07.16-.14.23-1-.61-1.1-.54.37.54.31.62.11.3.06.39-.38,0-.43.07-.7-.19-.75-.1-.36.05-.41.14,0,.23-.1.32.77.61.73.7-.35.06-.39.15-.1.18-.14.28.61.45.57.55-1.57-.37-1.61-.27,1.18.62,1.15.72-.61,0-.64.11.88.47.86.57-.18.15-.21.24-.71,0-.74.12.18.25.16.35-.63.07-.65.17S32.54,34.08,32.52,34.18Z" style="fill:#d2bea2"/><path d="M113.35,75.41l.32-.41,1.71.47a2.09,2.09,0,0,0-1.27-.92l.89,1.52c.06-.35.34-.64.4-1a1.27,1.27,0,0,0-1.83-1.4c-1,.4.23.27-.07.21l.94,1.21q0-.42.09-.84a1.3,1.3,0,0,0-.89-1.52c-.93-.34-1.36.24-2.16.5l1.57,1.21c-.07.56.42-.58.45-.69a5.33,5.33,0,0,0,.08-1,1.24,1.24,0,0,0-.64-1.09c-1.18-.61-1.78,0-2.67.42l1.86,1.08c0,.33.31-.68.33-.91a1.26,1.26,0,0,0-.63-1.09c-1.38-.93-1.6.41-2.64.86l1.82.77a3.91,3.91,0,0,0-.42-1.87,1.3,1.3,0,0,0-1.71-.47c-.34.16-.55.52-.88.67l1.86,1.09c-.08.7.42-.39.51-.58a2.82,2.82,0,0,0,.28-1c.13-1-1.11-1.4-1.86-1.09-.41.17-.64.52-1.06.68l1.57,1.21c0,.42.26-.64.28-.87.07-1-1.08-1.42-1.87-1.08-.25.1-.44.3-.69.41L108.89,71c0,.28.31-.7.34-.94a1.26,1.26,0,0,0-1.57-1.21,2.77,2.77,0,0,0-.7.37c-.14.11-.79.55-.22.34l1.2.32-.21-.21.33,1.2c.06-.37.36-.67.43-1.06.15-.82-.57-1.9-1.52-1.53s-.74.54-1.26.67l1.52,1.53c.08-.5.63-.88.71-1.42.13-.85-.55-1.86-1.52-1.53s-.69.47-1.27.69l1.52,1.52c0-.28.21-.53.26-.82.14-.84-.57-1.86-1.53-1.52-.12,0-1,.46-.63.33L106.34,69c0,.48.42-.8.45-1.09a1.27,1.27,0,0,0-1.57-1.21,5.36,5.36,0,0,0-1,.4l1.57,1.21c0,.4.13-.54.13-.67a1.26,1.26,0,0,0-1.57-1.21,1.67,1.67,0,0,0-.72.38c-.46.56.57.16.27.06l.94,1.21a3.57,3.57,0,0,0,0-1.3,1.29,1.29,0,0,0-1.21-.94l-.42.06,1.21,1.56c.07-.37.36-.66.43-1,.14-.85-.57-1.85-1.53-1.53-.21.07-1.19.64-.75.49l1.57,1.21,0-.46A1.27,1.27,0,0,0,102.16,65c-.32.13-.51.46-.83.59l1.87,1.09c0,.24.17-.58.18-.72a1.25,1.25,0,0,0-1.57-1.21c-.21.08-1.14.66-.78.53l1.57,1.21c0,.46.43-.81.46-1.1.11-1-1.1-1.42-1.87-1.09-.25.11-.44.31-.69.42l1.82,1.41c0-.28.19-.51.23-.79a1.27,1.27,0,0,0-1.83-1.4c-.75.32,0,.21-.81.22l1.25,1.25c0,.33.4-1,.42-1.08a1.69,1.69,0,0,0-.51-1.64,1.24,1.24,0,0,0-1.2-.32,4.39,4.39,0,0,0-1,.35,4,4,0,0,0-.51.41c.35-.07.38-.09.08,0l1.21,1.57c0-.36.33-.64.39-1a1.34,1.34,0,0,0-.59-1.41c-1.06-.74-1.45.07-2.35.47L99,63.81a6.71,6.71,0,0,1,.21-1c.12-.82-.56-1.9-1.53-1.53-.22.09-1.13.68-.8.55l1.53,1.53c.06-.36.35-.65.41-1A1.27,1.27,0,0,0,97,60.94a1.48,1.48,0,0,0-.56.4c-.26.28.34.07-.06.08L97.59,63c.07-.5.63-.88.71-1.42.12-.82-.56-1.9-1.53-1.53a2.64,2.64,0,0,0-.7.38c-.13.1-.8.58-.24.36l1.52,1.53c.06-.41.46-.73.52-1.16A1.28,1.28,0,0,0,96,59.73c-.33.14-.52.47-.83.6l1.86,1.08c0-.33.09-.72.08-1.08,0-.72-.78-1.52-1.57-1.21-.33.13-1.32.91-1,.76l1.52,1.53c.06-.36.35-.65.41-1A1.27,1.27,0,0,0,94.73,59a4.79,4.79,0,0,1-1.34.55l1.2.32c-.07-.06-.21,1.42.38.44a2,2,0,0,0,.25-.89c.12-1-1.11-1.43-1.86-1.09-.27.12-.46.33-.73.45l1.83,1.4c.05-.41.46-.73.52-1.17a1.27,1.27,0,0,0-1.83-1.4c-.34.14-.53.48-.86.62l1.87,1.09c0,.31.15-.57.16-.7a1.27,1.27,0,0,0-1.87-1.09c-.34.15-.58.38-.93.5l1.56,1.21c0-.35.13-.81.15-1.19A1.26,1.26,0,0,0,92,56.78h-.37L92.86,58a5.13,5.13,0,0,0,.19-.76,1.25,1.25,0,0,0-1.56-1.21c-.2.07-.77.42-.67.34s-.06.09-.17.06l.9,1.53c.07-.28.21-.52.27-.8a1.26,1.26,0,0,0-1.52-1.53l-.49.11,1.52,1.53c.08-.32.31-.58.38-.9A1.27,1.27,0,0,0,89.88,55c-.48.25-.79.79-1.27,1l1.82,1.41c.11-.38.45-.69.55-1.09a1.25,1.25,0,0,0-.9-1.52,3,3,0,0,0-2,.46l1.7.47c-.06.58,0,.65.12.19,0-.12,0-.23,0-.34a3.32,3.32,0,0,0-.11-.83,1.28,1.28,0,0,0-1.52-.9l-.14,0,1.21,1.57c.06-.29.28-.53.35-.83.18-.82-.6-1.88-1.53-1.52-.58.22-1,.64-1.61.86l1.53,1.52c.07-.26.22-.5.3-.76a1.29,1.29,0,0,0-.6-1.41l-.26-.16.59,1.41c.3-1,.47-2-.53-2.78-1.21-.9-1.76.32-2.78.74l1.71.47c.38.53,0,.42.28-.12a2.67,2.67,0,0,0,.34-.75,1.26,1.26,0,0,0-1.53-1.53c-.51.14-1,.51-1.48.64l1.4.59a1.7,1.7,0,0,1-.1-.32,1.29,1.29,0,0,0-1.21-.94h-.42L85,52.12c.16-.41.66-.77.84-1.24.34-.92-.7-1.73-1.53-1.53-.42.11-.82.28-1.25.38l1.2.33-.21-.21.32,1.2c.11-.29.37-.56.48-.88.34-1-.68-1.69-1.52-1.52-.23,0-.42.15-.64.19l1.52,1.53c.06-.22.18-.41.23-.63a1.29,1.29,0,0,0-.59-1.4c-.73-.49-1.09-.24-1.84-.1l1.53.89-.09-.33a1.27,1.27,0,0,0-1.53-.89c-.34.1-.62.36-.94.46l1.2.32a5.77,5.77,0,0,0-.42-.44l.33,1.2c.08-.25.32-.5.41-.78A1.26,1.26,0,0,0,81,47.14c-.7.14-.15.18-.4.11l.94,1.21c-.1-.78-.21-1.24-1-1.6l.59,1.41c.09-.23.25-.46.33-.7.35-1-.69-1.68-1.52-1.53a2.23,2.23,0,0,1-.68,0l1.09.63c.35.67,0,.46.28-.11a4.62,4.62,0,0,0,.25-.9,1.27,1.27,0,0,0-1.53-1.52c-.3,0-.55.26-.85.32L80.05,46c.08-.22.24-.45.33-.68.34-.9-.69-1.75-1.52-1.53-.43.12-.76.47-1.17.58l1.2.32-.23-.2.33,1.2c.12-.38.31-.73.42-1.13A1.25,1.25,0,0,0,78.2,43l-.54,0,1.25,1.25,0-.38a1.26,1.26,0,0,0-1.25-1.25l-.51,0,1.09.63-.39-.51c0,.54,0,.63.06.25.1-.7-.33-1.67-1.21-1.56-.23,0-.48.13-.7.15l1.21,1.57c.57-1.72-.52-2.62-2.1-2.43l1.08,1.87c.16-.31.45-.52.6-.83A1.26,1.26,0,0,0,75.69,40c-.22,0-.44.09-.65.1l1.09,1.86c.13-.25.32-.46.45-.71a1.26,1.26,0,0,0-1.09-1.87c-.43,0-.84.15-1.27.2l1.08,1.87c.48-.86,1.49-1.39,1-2.57-.55-1.46-1.7-.79-2.71-.55l1.57,1.21v-.38A1.26,1.26,0,0,0,74,37.89c-.73,0-.16.23-.35.15l.47,1.7a5.32,5.32,0,0,0,.66-1.48,1.27,1.27,0,0,0-1.52-1.53c-.42.1-.74.43-1.14.52l1.53,1.53a9.81,9.81,0,0,1,.6-1.45,1.27,1.27,0,0,0-1.41-1.82c-.41.1-.73.44-1.13.53l1.2.33a1.79,1.79,0,0,0-1.56-.58l1.09,1.87c.24-.6.6-1,.81-1.67a1.26,1.26,0,0,0-1.53-1.52c-.28.07-.54.22-.82.3l1.41,1.82c.15-.33.44-.57.59-.9a1.27,1.27,0,0,0-1.41-1.83c-.35.1-.64.36-1,.46L72,35.84a6.67,6.67,0,0,0,.31-1.08,1.26,1.26,0,0,0-1.52-1.52c-.35.1-.64.36-1,.45l1.41,1.83c.14-.33.41-.57.55-.9A1.27,1.27,0,0,0,71,32.79c-1.08-.24-1.28.29-2.19.61l1.4,1.82c.24-.5.77-.83,1-1.34a1.27,1.27,0,0,0-1.41-1.83c-.37.11-.67.45-1,.54l1.41.6c-.48-1-.17.09-.14-.35a1.25,1.25,0,0,0-1.56-1.21c-.32.1-.59.35-.89.44l1.53,1.53c.15-.5.51-.94.63-1.48.2-.85-.6-1.86-1.52-1.53-.46.16-.81.65-1.2.79l1.52,1.53c.1-.45.28-.84.4-1.27a1.27,1.27,0,0,0-1.53-1.53c-.23.06-.43.19-.66.25l1.57,1.21,0-.47a1.27,1.27,0,0,0-1.57-1.21l-.56.16,1.53,1.53c.11-.34.37-.63.49-1a1.26,1.26,0,0,0-1.53-1.53c-.35.13-.67.47-1,.5L67,31.14c.11-.35.38-.65.5-1,.36-1.12-.92-1.8-1.83-1.4-.42.18-.72.49-1.16.65L66,30.9c.12-.45.57-.81.7-1.28a1.27,1.27,0,0,0-1.83-1.41c-.36.15-.59.51-.94.66l1.83,1.4c0-.25.16-.47.21-.73A1.26,1.26,0,0,0,64.43,28l-.49.12,1.41.59c-.08-.16.08.41.14-.33a1.26,1.26,0,0,0-1.87-1.08c-.32.16-.54.45-.85.61l1.82,1.41c.1-.47.52-.84.62-1.32a1.27,1.27,0,0,0-1.82-1.41c-.23.1-.42.26-.65.36L64.61,28l.06-.59c.1-1-1.1-1.41-1.87-1.09-.31.14-.59.4-.89.51l1.57,1.21c0-.15,0-.3,0-.46a1.29,1.29,0,0,0-.93-1.2,2.07,2.07,0,0,0-1.43.1l1.53,1.53c.08-.51.51-.94.59-1.46a1.27,1.27,0,0,0-1.82-1.41c-.22.11-.39.27-.6.37l1.86,1.09A2.08,2.08,0,0,0,62.05,25a1.29,1.29,0,0,0-1.5-.21c-.2.09-.35.24-.55.32l1.5.21c.13.47.16.52.1.13a1.27,1.27,0,0,0-1.87-1.09c-.22.13-.39.32-.6.45l1.7.47c-.07-.15-.13-.25-.19-.4a1.28,1.28,0,0,0-2.09-.57c-.35.27-.51.72-.85,1l2,.26c-.1-.16,0-.37-.07-.64a1.26,1.26,0,0,0-1.53-.9l-.4.15,1.56,1.21a3.89,3.89,0,0,0-.12-1.59A1.26,1.26,0,0,0,57,23.18c-.32.26-.45.7-.76,1l2.13.89c0-.38.19-.75.16-1.14A1.28,1.28,0,0,0,57,22.68a2.46,2.46,0,0,0-1.52,1.05c-.39.23-.28.3.32.24.42-.13.62,0,.61.32a2.55,2.55,0,0,0,.08-1.46A1.75,1.75,0,0,0,55,21.75a1.25,1.25,0,0,0-1.2.32c-.34.39-.41,1-.7,1.35l2.09.57c-.07-.48.2-1.06.12-1.59a1.26,1.26,0,0,0-2.09-.57c-.31.32-.53.64-.86.93l2,.27-.23-.36a1.31,1.31,0,0,0-1.4-.59c-.77.14-.88.49-1.32,1l2.1.56c-.15-.52-.16-1.09-.33-1.61a1.27,1.27,0,0,0-1.82-.77,3.26,3.26,0,0,0-1.51,1.47l1.41-.59c.19,0,.84.67.29-.19a2,2,0,0,0-.27-.4,1.93,1.93,0,0,0-1.67-.42c-1.28.24-1.21,1.13-1.56,2.12l1.21-.93H49L50,23c-.27-.39-.25-.95-.53-1.36-.57-.81-2.07-.86-2.3.3-.1.53.14,1.11,0,1.6L49.34,23c-.38-.42-.53-.91-1-1.28a1.27,1.27,0,0,0-2.1.57l-.12.58,1.83-.77a2.09,2.09,0,0,0-1.77-.3A1.28,1.28,0,0,0,45.24,23a5.67,5.67,0,0,0,.4,1.91l1.52-1.53-.69-.09a1.28,1.28,0,0,0-1.21.94c-.2.52,1.62-.26.1-.59A1.26,1.26,0,0,0,44,25.43c.23.37.67.6.89,1l1.41-1.83c-.46-.06-.86-.28-1.33-.33a1.27,1.27,0,0,0-1.21.93c-.08.26-.06.55-.14.8.18-.57.36-.61-.07-.15l2.09.57c-.13-.39,0-.83-.14-1.23a1.25,1.25,0,0,0-.89-.89c.16.18.16.18,0,0a1.26,1.26,0,0,0-2,.27c-.21.36-.23.8-.54,1.09l2.1.57c-.15-.41-.06-.88-.21-1.29a1.27,1.27,0,0,0-2.3-.3c-.21.41-.18.93-.38,1.32h2.17c-.12-.27-.12-.64-.25-.94a1.27,1.27,0,0,0-2-.27l-.31.3,2,.27c-.12-.24-.18-.53-.3-.78a1.25,1.25,0,0,0-2.17,0c-.22.49-.1,1.12-.3,1.57h2.18a6.19,6.19,0,0,0-.78-1.2,2.37,2.37,0,0,0-1-.47,1.28,1.28,0,0,0-1.83.77c-.13.4,0,.84-.14,1.23l1.83-.77A6.38,6.38,0,0,0,38,24.45a1.26,1.26,0,0,0-1.57,1.21c0,.53.28,1,.25,1.56L38.25,26c-.11,0,.26.41-.1-.32a2.89,2.89,0,0,0-.56-.74,1.26,1.26,0,0,0-2.13.88c0,.69-.15.9.33.39l1.5-.2-.48-.23A1.27,1.27,0,0,0,35,27.19c.06.36.27.66.33,1l1.53-1.52-.46-.18c-.83-.32-1.49.5-1.57,1.21,0,.13,0,.26,0,.39L36,26.86c-.64.08-.23-.13-.15-.06a2.6,2.6,0,0,0-.74-.38c-.91-.35-1.73.7-1.53,1.53.06.21.06.6.15.32l1.52-.89a3.57,3.57,0,0,0-1.69-.07,1.25,1.25,0,0,0-.77,1.82c.23.4.67.64.9,1l1.09-1.87h-.53a1.26,1.26,0,0,0-1.09,1.87c.1.2.26.36.37.56l1.09-1.87c-.3,0-.61-.18-.93-.19a1.27,1.27,0,0,0-1.21.93l-.09.27a1.25,1.25,0,0,0,0,1.24l.25.44,1.09-1.87c-.43,0-.85-.23-1.29-.21a1.26,1.26,0,0,0-.89,2.13c.39.39,1,.5,1.38.87l-.33-1.2-.11.27,1.21-.93c-.46,0-.91-.2-1.38-.16a1.26,1.26,0,0,0-.89,2.13c.33.3.81.4,1.12.68l.56-2.1c-.81.21-1.14.18-1.64,1a1.25,1.25,0,0,0,.2,1.5c.2.18.46.31.66.48L32,32.87l.31-.38a.89.89,0,0,0-.37.2l-.43.45,2,.26c-.12-.28-.12-.65-.25-1a1.27,1.27,0,0,0-2.18,0c-.25.41-.24,1-.56,1.31l2,.26c-.15-.34-.09-.83-.26-1.21a1.26,1.26,0,0,0-2.17,0c-.15.3-.16.75-.35.93l2,.26c-.25-.46-.2-1.08-.46-1.57A1.27,1.27,0,0,0,29.51,32a3.55,3.55,0,0,0-1,1l1.41-.59-.36-.13a1.27,1.27,0,0,0-1.53.89,13.67,13.67,0,0,0-.2,1.41L29.88,34a5.44,5.44,0,0,0-1.24-1,1.26,1.26,0,0,0-1.7.47,2,2,0,0,0-.24.4s1.14-.21.57-.32A1.26,1.26,0,0,0,25.75,35a1.69,1.69,0,0,0,.21.62c.19.32.1-.33,0,0l1.82-.77c-.35-.16-.58-.53-.94-.68A1.26,1.26,0,0,0,25,35.59c.11.4.46.71.57,1.07l1.53-1.52c-.4-.16-.77-.66-1.23-.84-1-.37-1.64.71-1.52,1.53,0,.17,0,.34.07.51l.9-1.53-.4.07a1.27,1.27,0,0,0-.77,1.83c.21.4.64.66.85,1l1.4-1.82c-.42-.1-.77-.44-1.2-.54a1.27,1.27,0,0,0-1.53,1.53l.09.44L25,35.8a5.4,5.4,0,0,0-1.33.18,1.26,1.26,0,0,0-.77,1.83c.16.23.39.42.54.64V37.21A4.5,4.5,0,0,0,23,38.36l.89-.89c-.26.05-.55,0-.82.08-1.18.25-1.1,1.72-.3,2.3.45.33,1.08.36,1.52.7l.3-2.3c-.29.08-.61,0-.92.1a1.26,1.26,0,0,0-.3,2.29,1.55,1.55,0,0,0,.52.28c-.22-.24-.24-.25-.08,0l.47-1.71c-.48.31-.86.51-1.35.77a1.29,1.29,0,0,0-.47,1.71c.06.1.12.2.17.3l.47-1.7-.42.32a1.31,1.31,0,0,0-.59,1.4c.29,1.05.72.94,1.53,1.32V41.12c-.32.2-.71.24-1,.43a1.27,1.27,0,0,0,.3,2.3c.37.13.79,0,1.15.13l-.57-2.09a4.79,4.79,0,0,0-.64,1,1.27,1.27,0,0,0,.77,1.83c.27.05.54,0,.8.06l-.77-1.82c-.47.61-.74.84-.48,1.7a1.28,1.28,0,0,0,1.21.94c.27,0,.54-.12.8-.14L24,43.56,23.8,44a1.29,1.29,0,0,0,.47,1.7c.3.2.63.36.94.55L25.83,44c-.31,0-.88-.3-1.24-.32a1.24,1.24,0,0,0-1.25,1.25c0,.25.12.55.13.8l1.87-1.09c-.27-.16-.45-.43-.75-.57a1.26,1.26,0,0,0-1.82,1.4c.05.32.26.59.3.91l1.53-1.53c-.15,0-.29-.07-.44-.09a1.26,1.26,0,0,0-1.57,1.21l0,.45,1.57-1.21c-.78-.3-1.22-.85-2.13-.37s-1,1.34-.81,2.24l.59-1.4-.31.17a1.23,1.23,0,0,0-.64,1.08c0,.14,0,.27,0,.4L22.18,46l-.61,0a1.27,1.27,0,0,0-.88,2.14,10.94,10.94,0,0,1,.89.91l1.09-1.87c-.52,0-1-.3-1.57-.27a1.26,1.26,0,0,0-1.21.93,1.61,1.61,0,0,0,.56,1.76c.31.29.44.24.48.26.46.29.26,1.06.24.15l.94-1.21c-.93.32-1.52-.08-2.27.78a1.3,1.3,0,0,0-.2,1.5c.45.91,1.18.89,2,1.37V50.34c-.26.17-.58.19-.84.36a1.26,1.26,0,0,0-.27,2,5,5,0,0,0,1.27,1l-.27-2c-.19.15-.45.26-.65.42-.82.67-.2,1.79.57,2.09s.05-.14.31.07V52.47c-.37.31-1.11.36-1.55.73a1.26,1.26,0,0,0,.57,2.1c.29.07.61,0,.88.06l-.77-1.82a2.41,2.41,0,0,0-.67,1.78,1.29,1.29,0,0,0,1.25,1.25c.46,0,.9-.22,1.36-.19l-.88-2.14c-.27.3-.7.41-1,.72a1.26,1.26,0,0,0,.88,2.13c.37,0,.79-.06,1.15,0l-.77-1.83c-.13.18-.34.35-.48.54a1.26,1.26,0,0,0,1.09,1.87c.26,0,.51-.05.78,0L22.7,55.5c-.25.29-.61.45-.86.74a1.27,1.27,0,0,0,.89,2.13c.21,0,1.3-.15.89-.24L23.06,56c-.34.35-.88.46-1.19.86A1.27,1.27,0,0,0,22.76,59c.46,0,.95-.34,1.39-.33l-.89-2.13c-.3.36-.85.51-1.15.9A1.26,1.26,0,0,0,23,59.6a1.77,1.77,0,0,0,.65-.09c.34-.13-.27-.26.05-.07l-.47-1.7c-.56.76-1,.86-.76,1.95a1.27,1.27,0,0,0,1.21.94c.57,0,.35-.07.49-.09a2,2,0,0,1,.74.25l-.47-1.71c-.19.3-.61.5-.81.84a1.26,1.26,0,0,0,.47,1.7l.29.18-.47-1.71-.24.51a1.26,1.26,0,0,0,1.09,1.86h.58l-1.09-1.87c-.14.26-.4.43-.54.7a1.26,1.26,0,0,0,1.09,1.87c.57,0,1-.23,1.54-.28L25.25,61a6.94,6.94,0,0,0-.43,1.15c-.24.75.36-.75-.13.3a1.27,1.27,0,0,0,1.41,1.83c.44-.08.8-.41,1.23-.49L25.93,62c-.2.34-.61.56-.81.92a1.27,1.27,0,0,0,1.4,1.83c.49-.09.88-.51,1.36-.59l-1.53-1.53c-.29.72-.51,1,0,1.78A1.24,1.24,0,0,0,27.4,65c.23,0,.47-.11.69-.13L27,63c-.19.36-.59.58-.79.95a1.27,1.27,0,0,0,1.41,1.83c.41-.09.75-.41,1.16-.49L27.21,64.1c0,.43.31-.48-.26.19a4.06,4.06,0,0,0-.51.65,1.26,1.26,0,0,0,1.41,1.82c.44-.09.78-.35,1.23-.4L28,64.49c-.22.43-.73.69-1,1.14-.38.76.09,2,1.09,1.87.17,0,.41-.11.09-.15.22,0,.39.22.62.21a6.15,6.15,0,0,0,1.27-.29l-1.4-1.82c-.2.41-.69.68-.89,1.11a1.27,1.27,0,0,0,1.41,1.83c.24-.07,1.46-.51.34-.4.27,0,.75.16,1.06.17l-1.08-1.87c-.15.33-.43.56-.57.88a1.3,1.3,0,0,0,.47,1.71l.25.18-.59-1.41-.21.58a1.27,1.27,0,0,0,1.53,1.53c.4-.11.71-.45,1.08-.56L30,67.68c-.09.23-.26.47-.36.71-.36,1,.7,1.68,1.53,1.53.23,0,.43-.15.67-.19L30.29,68.2c-.15.46-.38.86-.55,1.31A1.26,1.26,0,0,0,31.27,71a2.18,2.18,0,0,0,.77-.36c.48-.38.35.24.09-.36s-.41-.5-.6-.35a1.62,1.62,0,0,0-.33.67c-.33,1,.69,1.68,1.53,1.52l.54-.1-1.41-.59.17.26a1.23,1.23,0,0,0,1.08.63l.5-.06L32.4,70.73c-.09.28-.32.53-.41.83a1.28,1.28,0,0,0,.59,1.4c1.09.71,1.72,0,2.7-.37l-1.53-1.53c-.12.35-.48.67-.61,1a1.28,1.28,0,0,0,.59,1.41c-.44-.27-.31-.6-.1,0a1.26,1.26,0,0,0,1.52.9c.24-.07.46-.22.69-.29l-1.53-1.52a11.72,11.72,0,0,1-.31,1.2,1.31,1.31,0,0,0,.6,1.41c1.06.69,1.76.23,2.78-.1l-1.53-1.53c-.12.42-.58.78-.71,1.24a1.26,1.26,0,0,0,1.52,1.52c.43-.06.94-.41,1.3-.39l-1.21-1.57c-.2,1-.69,1.64-.14,2.6a1.29,1.29,0,0,0,1.71.47c.46-.21.75-.72,1.2-.93l-1.87-1.08-.06.52a1.25,1.25,0,0,0,.94,1.21l.34.06L38,75.73c-.11.36-.37.66-.48,1a1.27,1.27,0,0,0,1.83,1.4c.46-.22.74-.73,1.19-.94l-1.83-.77c.08.35.16-.5-.22.23a4.64,4.64,0,0,0-.34.75A1.27,1.27,0,0,0,40,78.83c.44-.21.71-.71,1.14-.91l-1.86-1.09c0,.2-.12.43-.14.64a1.25,1.25,0,0,0,1.57,1.21c.23-.09.45-.26.67-.35L40.14,78a5.23,5.23,0,0,0,.7.56l-.32-1.2c-.07.28-.2.53-.27.81a1.27,1.27,0,0,0,1.21,1.57l.38,0-1.25-1.25c0,.16,0,.33,0,.5a1.26,1.26,0,0,0,1.25,1.25,7.36,7.36,0,0,0,1.55-.17l-1.2-.32.21.22-.32-1.21-.09.62c-.11.83.55,1.88,1.53,1.53.4-.11.34-.15-.16-.14l-.64-1.09c0,.39-.12.83-.16,1.24A1.26,1.26,0,0,0,44.42,82c.46-.27.72-.82,1.15-1.07l-1.86-1.09c-.06,1.05-.35,1.89.55,2.7a1.29,1.29,0,0,0,1.5.2c.32-.18.54-.49.85-.67l-1.82-1.4c-.07.41-.39.76-.46,1.18a1.27,1.27,0,0,0,1.83,1.4c.31-.17.52-.47.82-.63l-1.86-1.09c0-.5-.43.76-.43,1.07a1.27,1.27,0,0,0,.94,1.21c1.38.2,1.32-.51,2.38-1l-1.83-1.4c0,.42-.06.8-.07,1.22a2.41,2.41,0,0,1,0,.62A1.26,1.26,0,0,0,48,84.34c.38-.21.64-.63,1-.82l-1.82-1.4c-.12.43-.47.78-.58,1.23a1.26,1.26,0,0,0,1.83,1.4c.39-.2.64-.62,1-.82H48.21c-.23-.13-.08-.71-.26.11s.6,1.89,1.53,1.53c.22-.09.43-.25.64-.32l-1.53-1.53c-.11.41-.45.75-.56,1.18a1.26,1.26,0,0,0,1.21,1.57,5.88,5.88,0,0,0,1.18-.16l-1.53-1.52c-.16.94-.35,1.33.32,2.16a1.25,1.25,0,0,0,1.5.2c.54-.28.84-.93,1.37-1.2l-1.83-1.4c-.12.46-.57.83-.69,1.32a1.26,1.26,0,0,0,1.52,1.53,4.64,4.64,0,0,1,1.11-.26L51,85.57c-.08.36-.4.67-.48,1.05-.19.85.59,1.85,1.52,1.53.42-.15.82-.37,1.21-.52l-1.52-1.52c-.07.28-.22.53-.29.81a1.26,1.26,0,0,0,1.21,1.57A5.13,5.13,0,0,0,54,88.16L52.41,87a3.36,3.36,0,0,1-.24,1.4,1.26,1.26,0,0,0,1.52,1.53c.23-.08.44-.23.66-.3L52.94,89c.16.37,0-.41-.07.19a1.27,1.27,0,0,0,1.57,1.21c.21-.06.41-.19.61-.25l-1.52-1.53c0,.19-.07.39-.11.58a1.27,1.27,0,0,0,1.21,1.57,5.27,5.27,0,0,0,2-.81l-1.83-1.4c-.11.42-.56.77-.69,1.24a1.26,1.26,0,0,0,1.53,1.52,6.91,6.91,0,0,1,1.29-.54l-1.53-1.53c-.1.37-.45.68-.56,1.08a1.26,1.26,0,0,0,1.53,1.52,2.17,2.17,0,0,0,.54-.19c.43-.25.32.21-.1-.1l-.59-1.41c0,.23-.15.43-.18.65a1.32,1.32,0,0,0,.59,1.41,2.17,2.17,0,0,0,.9.35l-.89-.89.07.37a1.25,1.25,0,0,0,1.21.93c.28,0,.29,0,0,0l-.32-1.2c0,.24-.17.44-.23.67A1.28,1.28,0,0,0,58.6,94l.4,0-1.08-.63c-.19-.45-.07-.63-.16,0-.13.84.55,1.87,1.52,1.53a10.22,10.22,0,0,1,1.31-.47L59,93.2c0,.13,0,.26,0,.4a1.28,1.28,0,0,0,1.57,1.21l.52-.1-1.53-1.52c-.31.88-.75,1.07-.61,2.1a1.25,1.25,0,0,0,1.53.89c.49-.11.91-.38,1.38-.51l-1.53-1.53c-.11.34-.48.65-.61,1a1.26,1.26,0,0,0,1.53,1.52,3,3,0,0,0,.5-.17c-.29-.09-.3-.1,0,0l-.89-.89c0,.12,0,.24,0,.37a1.28,1.28,0,0,0,1.53.89l.57-.13L61.48,95.5A1.83,1.83,0,0,0,62,97.08l-.32-1.2c-.11.29-.39.56-.51.88a1.3,1.3,0,0,0,.59,1.41c1,.75,1.89.14,2.92-.08l-1.52-1.53c.18-.6-.33.27-.45.45a1.91,1.91,0,0,0-.4.79,1.26,1.26,0,0,0,1.82,1.4c.32-.13.61-.58.91-.67L63.5,97c-.1.26-.26.49-.34.76a1.26,1.26,0,0,0,1.52,1.53c.22,0,.42-.17.64-.22l-1.53-1.52c0,.18-.09.37-.13.55a1.26,1.26,0,0,0,1.52,1.53c.25-.08.48-.22.72-.29l-1.57-1.21a2,2,0,0,0,.52,1.57l-.32-1.2c-.14.38-.62.74-.78,1.19a1.26,1.26,0,0,0,1.53,1.53c.41-.17.75-.57,1.14-.71L64.89,99c-.13.36-.51.67-.65,1.07a1.25,1.25,0,0,0,1.52,1.52c.24-.07.46-.2.7-.27l-1.53-1.52c-.09.26-.26.5-.36.77a1.26,1.26,0,0,0,1.53,1.53c.25-.08.48-.23.72-.3l-1.52-1.53c-.08.24-.23.47-.3.71a1.21,1.21,0,0,0,.32,1.2c1,.78,1.3.39,2.29.09l-1.53-1.53c-.09.26-.26.5-.35.77A1.26,1.26,0,0,0,67.26,103c.45-.11.86-.36,1.32-.46L67.05,101c-.08.24-.24.47-.32.72a1.27,1.27,0,0,0,1.53,1.53c.22-.05.42-.17.64-.21l-1.52-1.53c-.33.87-1.12,1.23-.36,2.23a1.29,1.29,0,0,0,1.4.6c.55-.21,1-.82,1.46-1l-1.53-1.53a13.1,13.1,0,0,0-.51,1.33,1.26,1.26,0,0,0,1.53,1.52c.31-.09.57-.33.87-.42l-1.53-1.53c-.07.23-.21.45-.28.68A1.26,1.26,0,0,0,70,105a3.45,3.45,0,0,1,.77-.18l-1.21-1.56c-.09.24-.25.48-.34.73a1.25,1.25,0,0,0,.33,1.2c-.34-.35-.16-.69-.38.09a1.25,1.25,0,0,0,1.52,1.52,6,6,0,0,0,1.22-.5l-.77-1.83c-.14.34-.42.6-.57.94a1.28,1.28,0,0,0,1.41,1.83l.51-.07-1.53-1.53c-.11.3-.4.58-.53.91-.27.67.32,1.32.89,1.53s1,0,1.7-.17l-1.41-.59.18.24a1.3,1.3,0,0,0,1.4.6c.26-.07.48-.21.74-.27l-1.53-1.53c-.15,1-.46,2,.21,2.89a1.28,1.28,0,0,0,1.4.6c.36-.12.66-.39,1-.5l-1.4-1.83c-.18.44-.66.71-.84,1.16-.37.9.27,2.17,1.41,1.82.55-.17,1-.75,1.47-.91L74.08,108c-.07.33-.13.65-.19,1-.12.71.34,1.65,1.21,1.56q.62,0-.18-.18l-.32-1.2c-.07.19-.13.38-.2.56-.33,1,.68,1.68,1.53,1.53l.58-.1-1.41-1.83c-.14.33-.42.56-.56.88a1.27,1.27,0,0,0,.47,1.7c.89.55,1.22.12,2.09-.07l-1.2-.32.23.2-.2-1.5c-.2.39-.62.65-.82,1a1.27,1.27,0,0,0,1.4,1.83c.31,0,.55-.24.85-.29L76,111a8.76,8.76,0,0,0-.38,1.61,1.27,1.27,0,0,0,1.53,1.53,5.84,5.84,0,0,0,.73-.29c.66-.25-.2-.23.24-.12l-.77-1.83c-.09.22-.24.38-.34.59a1.28,1.28,0,0,0,.77,1.83l.36.13-.77-1.82c-.15.22-.49.43-.67.67-1,1.28,1.22,2.5,2.18,1.23.17-.23.48-.39.66-.67a1.26,1.26,0,0,0-.77-1.82l-.36-.14.77,1.83c.1-.22.25-.38.34-.6a1.26,1.26,0,0,0-.77-1.82c-1-.23-1.34.23-2.24.41L78,113.22c.05-.18.07-.59.14-.75.31-.66-.32.52,0-.25a1.27,1.27,0,0,0-1.41-1.83c-.3,0-.54.25-.84.29l1.4,1.83c.21-.39.62-.65.82-1.05a1.27,1.27,0,0,0-.2-1.5,1.68,1.68,0,0,0-1.28-.55,1.83,1.83,0,0,0-.46.12c-.66.23-.25,0,.08.22l.47,1.7c.15-.32.43-.55.57-.87a1.27,1.27,0,0,0-1.41-1.83l-.57.1,1.52,1.53c.47-1.36-.21-2.47-1.72-2.32l1.21,1.57c.06-.33.12-.65.19-1A1.27,1.27,0,0,0,75,107.13c-.55.17-1,.76-1.47.91l1.41,1.83c.18-.43.65-.71.83-1.15.37-.9-.26-2.2-1.4-1.83-.36.12-.66.39-1,.5l1.4.59c-.19-.27,0-.45,0-1a1.27,1.27,0,0,0-1.53-1.53c-.25.07-.48.2-.73.27l1.4.59-.17-.25a1.3,1.3,0,0,0-1.41-.59,2.38,2.38,0,0,0-.51.18c.29.07.32.07.08,0l.9,1.53c.12-.3.4-.58.53-.91.39-1-.72-1.64-1.52-1.53l-.52.07,1.41,1.83c.14-.35.42-.6.56-1a1.27,1.27,0,0,0-.77-1.82c-1-.28-1.57.24-2.48.51l1.53,1.52c.28-1,.54-1.65-.27-2.49l.32,1.2c.09-.24.25-.48.34-.73a1.27,1.27,0,0,0-1.21-1.57,5.1,5.1,0,0,0-1.41.26l1.53,1.53c.07-.23.21-.45.28-.68a1.26,1.26,0,0,0-1.53-1.53c-.31.09-.57.34-.87.42l1.53,1.53a12.41,12.41,0,0,1,.51-1.32A1.26,1.26,0,0,0,69.24,101c-.55.2-1,.82-1.45,1l1.4.59c.26.34-.19.94.35.19a2.61,2.61,0,0,0,.26-.56c.35-.93-.7-1.7-1.53-1.52-.22,0-.42.16-.65.21l1.53,1.53c.08-.25.24-.48.32-.73a1.27,1.27,0,0,0-1.53-1.53c-.45.1-.87.35-1.32.46l1.53,1.53c.09-.25.26-.5.35-.76A1.26,1.26,0,0,0,67,99.84c-.31.09-.57.34-.86.43l1.2.32-.23-.18.32,1.2c.08-.24.23-.47.31-.71a1.26,1.26,0,0,0-1.53-1.53c-.25.07-.48.22-.72.3L67,101.19c.09-.25.27-.5.36-.77a1.26,1.26,0,0,0-1.52-1.53c-.25.07-.46.21-.7.27l1.53,1.53c.12-.35.5-.68.65-1.07a1.25,1.25,0,0,0-1.53-1.52c-.42.16-.75.55-1.14.71l1.53,1.52c.14-.4.68-.69.78-1.19a2.65,2.65,0,0,0-.13-.93c-.09-.81,0,.67,0-.07a1.26,1.26,0,0,0-1.57-1.21c-.25.07-.47.22-.71.29l1.53,1.53c0-.19.08-.37.13-.56a1.27,1.27,0,0,0-1.52-1.53c-.23,0-.42.17-.64.22l1.53,1.53c.08-.25.25-.52.34-.77a1.26,1.26,0,0,0-1.53-1.53c-.59.18-.94.68-1.5.92l1.83,1.4c0-.34.72-.82.84-1.23A1.26,1.26,0,0,0,64,95.67a2.92,2.92,0,0,0-.76.24c-.49.27-.17.17-.29.08l.59,1.41c.16-.43.57-.67.55-1.2a5.61,5.61,0,0,0-.17-.62c-.11-1-.06.79,0-.08a1.27,1.27,0,0,0-1.57-1.21l-.58.13,1.53.89-.06-.37a1.19,1.19,0,0,0-.89-.89,3.44,3.44,0,0,0-1.74.22L62.2,95.8c.11-.33.48-.64.61-1a1.26,1.26,0,0,0-1.52-1.53c-.5.13-.88.4-1.39.51l1.53.9c0-.38-.14.51.26-.14a3.06,3.06,0,0,0,.35-.7c.34-1-.69-1.67-1.53-1.52l-.52.09,1.57,1.21c0-.14,0-.27,0-.4A1.27,1.27,0,0,0,60,92a10.67,10.67,0,0,0-1.31.47L60.18,94a2.69,2.69,0,0,0-.09-1.85A1.24,1.24,0,0,0,59,91.51l-.4,0,1.21,1.57c.32-1.46-.1-2.69-1.9-2.6l1.21.94L59.05,91a1.2,1.2,0,0,0-.89-.89.45.45,0,0,1-.31-.12l.59,1.41c0-.23.15-.42.19-.65A1.35,1.35,0,0,0,58,89.37c-.81-.59-1.48-.15-2.31,0L57.25,91c.1-.37.45-.68.56-1.07a1.27,1.27,0,0,0-1.53-1.53,6.74,6.74,0,0,0-1.29.54l1.53,1.53c.11-.42.56-.78.69-1.24a1.26,1.26,0,0,0-1.82-1.4,1.92,1.92,0,0,0-.62.41c-.27.28.29,0-.14.07l1.21,1.56c0-.19.07-.38.11-.57a1.27,1.27,0,0,0-1.53-1.53c-.21.06-.41.19-.61.25l1.56,1.21a2.7,2.7,0,0,0-.25-1.43,1.26,1.26,0,0,0-1.41-.59c-.22.08-.44.23-.65.3L54.58,89a5.09,5.09,0,0,0,.33-2,1.26,1.26,0,0,0-1.56-1.21,3.26,3.26,0,0,1-.72.25l1.21,1.57c.07-.28.21-.54.29-.82.22-.84-.62-1.86-1.53-1.52-.42.15-.79.36-1.21.51l1.52,1.52c.08-.36.4-.67.48-1a1.26,1.26,0,0,0-1.2-1.56,4.94,4.94,0,0,0-1.74.34L52,86.5c.12-.46.57-.83.7-1.32a1.26,1.26,0,0,0-1.83-1.4c-.54.28-.84.92-1.36,1.2l1.5.2-.19-.24.32,1.2c0-.25.16-.47.2-.72a1.27,1.27,0,0,0-1.53-1.53,2,2,0,0,1-.54.08l1.21,1.57c.1-.41.45-.76.56-1.19.22-.83-.62-1.86-1.53-1.52-.22.08-.43.24-.64.32l1.53,1.53c.23-1.06.5-1.89-.53-2.67-1.21-.93-1.67,0-2.66.57L49,84c.1-.43.46-.79.58-1.23a1.26,1.26,0,0,0-1.83-1.4c-.4.2-.64.61-1,.81l1.87,1.09c0-.33,0-1.16,0-1.21a1.27,1.27,0,0,0-1.83-1.4,2.12,2.12,0,0,0-.7.56l-.38.38q1.17-.09.57-.15l.94,1.21c0,.47.39-.79.42-1.07a1.26,1.26,0,0,0-1.87-1.09c-.31.17-.53.47-.83.64l1.83,1.4c.07-.41.39-.76.46-1.18a1.27,1.27,0,0,0-1.83-1.4c-.32.18-.54.49-.85.67l1.5.2c.27.24.16-.57.18-.93a1.26,1.26,0,0,0-1.87-1.08c-.46.26-.72.81-1.16,1.06L45.05,81c.14-1.54-.13-3.18-2.18-2.43L44.4,80c.12-.85.22-1.77-.72-2.23-.62-.31-1.21,0-1.85,0L43.08,79c0-.17,0-.34,0-.5a1.27,1.27,0,0,0-1.25-1.25l-.38,0,1.21,1.57c.13-.58.43-1,.2-1.6s-.81-.79-1-1a1.2,1.2,0,0,0-1.2-.33c-.24.1-.46.27-.68.35l1.57,1.21c0-.19.11-.42.14-.64.1-1-1.11-1.44-1.87-1.09-.44.21-.72.71-1.14.92l1.82,1.4c.28-.92.8-1.21.56-2.25A1.27,1.27,0,0,0,39.28,75c-.46.22-.74.74-1.18.95l1.82,1.4c.11-.35.37-.66.48-1a1.26,1.26,0,0,0-.89-1.53l-.35-.06L40.09,76l.06-.52c.11-1-1.11-1.44-1.87-1.09-.46.21-.75.72-1.2.92l1.71.47c.21.37,0,.48.22,0a2.84,2.84,0,0,0,.16-.7A1.28,1.28,0,0,0,38,73.47c-.76,0-1.23.38-1.93.48l1.53,1.53c.12-.42.58-.78.71-1.23a1.26,1.26,0,0,0-1.53-1.53c-.31.1-.67.5-.91.34l.59,1.41a11.91,11.91,0,0,0,.31-1.21c.12-.87-.54-1.82-1.53-1.52-.23.07-.45.21-.68.28l1.52.89A2.43,2.43,0,0,0,35,71.34l.6,1.41c.11-.35.48-.67.61-1,.28-.83-.67-1.87-1.53-1.53a3.49,3.49,0,0,0-.79.41c-.47.34-.46-.07,0,.21l.59,1.4c.08-.27.32-.53.4-.82a1.26,1.26,0,0,0-1.2-1.57l-.5.06,1.09.63L34,70.24a1.33,1.33,0,0,0-1.41-.6l-.53.1,1.52,1.53c.36-1,1.1-1.57.09-2.63s-2-.36-3.08,0l1.53,1.52c.16-.43.4-.85.55-1.31.32-1-.67-1.68-1.53-1.52-.23,0-.43.15-.67.19L32,69c.09-.24.26-.47.36-.72.35-.9-.7-1.75-1.53-1.52-.4.1-.71.44-1.08.55l1.52,1.52c.07-.19.14-.38.2-.57a1.28,1.28,0,0,0-.59-1.41l-.25-.18.47,1.71c.15-.33.42-.56.57-.88a1.27,1.27,0,0,0-1.09-1.87c-.22,0-.27-.23-.85-.17s-.77.36-1.19.48L30,67.8c.19-.42.68-.69.88-1.12a1.27,1.27,0,0,0-1.4-1.83c-1,.22.08.25-.18.26S28.54,65,28.12,65l1.09,1.87c.21-.43.73-.7,1-1.14.38-.75-.09-2-1.09-1.87a19,19,0,0,0-1.87.48l1.41,1.83c.47-.84,1-1,1.09-2.07a1.26,1.26,0,0,0-1.57-1.21c-.42.08-.75.41-1.16.49l1.41,1.83c.18-.36.59-.59.78-.95a1.25,1.25,0,0,0-1.08-1.87c-.23,0-.47.11-.69.13l1.09.63c.31.51,0,.72.28.1.38-1-.72-1.67-1.53-1.53-.49.09-.88.5-1.35.59l1.4,1.83c.2-.35.61-.57.81-.93a1.27,1.27,0,0,0-1.4-1.83c-.44.08-.81.41-1.24.49l1.41,1.83c.15-.33.36-.57.49-.92a1.34,1.34,0,0,0,0-.63c-.12.44-.1.48.07.09.38-.75-.09-2-1.09-1.86-.56.06-1,.27-1.54.28l1.09,1.87c.13-.26.4-.44.53-.71A1.26,1.26,0,0,0,25.34,60h-.58l1.08,1.87.24-.5a1.28,1.28,0,0,0-.47-1.71l-.29-.17.47,1.7c.18-.29.61-.51.82-.83a1.29,1.29,0,0,0-.47-1.71,4,4,0,0,0-2.47-.48l1.21.93c.15.75.1.49.51-.09a1.25,1.25,0,0,0-.47-1.7c-.76-.46-1.13-.19-1.93-.17l.88,2.13c.29-.37.85-.52,1.16-.89a1.27,1.27,0,0,0-.88-2.14c-.5,0-.93.32-1.39.33l.88,2.13c.28-.36.86-.52,1.18-.86a1.26,1.26,0,0,0-.56-2.09c-.58-.13-1,.21-1.53.16L23.61,58c.25-.29.61-.45.86-.74a1.26,1.26,0,0,0-.88-2.13c-.27,0-.52,0-.78,0L23.9,57c.13-.18.34-.35.47-.55a1.25,1.25,0,0,0-.77-1.82c-.59-.1-1.18,0-1.78-.08l.88,2.14c.26-.3.7-.42,1-.72a1.27,1.27,0,0,0-.88-2.14c-.47,0-.91.22-1.36.2l1.25,1.25c0,.08.18-.32.35-.55a1.27,1.27,0,0,0-.77-1.83c-.29-.07-.62,0-.89-.06L21.94,55c.35-.3,1.11-.37,1.55-.73a1.26,1.26,0,0,0,0-1.77A4.48,4.48,0,0,0,22,51.75l.57,2.1c.19-.15.45-.27.65-.43a1.26,1.26,0,0,0-.26-2,2.64,2.64,0,0,1-.74-.55l-.27,2c.25-.17.58-.19.84-.36a1.27,1.27,0,0,0,0-2.18,2.82,2.82,0,0,0-.72-.4c-.71-.18-.2.17-.3,0l-.2,1.5c.2-.23-.58,0,.27,0a2.48,2.48,0,0,0,.86-.11,1.27,1.27,0,0,0,.93-1.2c0-1.39-.76-1.59-1.73-2.4l.32,1.2,0-.34-1.21.94c.52,0,1,.29,1.57.27a1.27,1.27,0,0,0,1.09-1.87c-.39-.58-.88-.91-1.31-1.44l-.88,2.13.61,0c.62,0,1.33-.55,1.25-1.25,0-.13,0-.26,0-.4L22.76,48l.32-.17a1.28,1.28,0,0,0,.59-1.4c-.12-.74-.85,1.06-.9.79,0,.17.65.34.78.39a1.26,1.26,0,0,0,1.57-1.21l0-.45-1.57,1.21c.15,0,.3.06.45.09a1.26,1.26,0,0,0,1.52-1.53c0-.32-.25-.58-.3-.9l-1.83,1.4c.27.13.47.42.74.57A1.26,1.26,0,0,0,26,45.69c0-.29-.1-.53-.13-.8l-1.25,1.25c.43,0,.77.37,1.24.32a1.26,1.26,0,0,0,.62-2.34c-.31-.19-.64-.35-.94-.55l.47,1.7c.07-.16.14-.31.22-.47a1.27,1.27,0,0,0-1.09-1.87c-.26,0-.54.12-.8.13l1.21.94c.17.55-.19.72.23.16A1.25,1.25,0,0,0,25,42.34c-.26-.05-.54,0-.79-.07L25,44.1a1.24,1.24,0,0,1,.23-.44,1.27,1.27,0,0,0-.57-2.09c-.37-.13-.79,0-1.14-.14l.3,2.3c.32-.19.71-.24,1-.43a1.26,1.26,0,0,0,0-2.18c-.78-.37-.51-.39-.34.23l-.59,1.4.42-.32a1.29,1.29,0,0,0,.47-1.7l-.17-.31-.47,1.71c.48-.26.89-.48,1.35-.77A1.27,1.27,0,0,0,26,39.65a4.73,4.73,0,0,0-1.38-1.18l-.3,2.3c.28-.09.62,0,.91-.1a1.27,1.27,0,0,0,.3-2.3C25,38,24.42,38,24,37.68L23.67,40c1.32-.27,1.21-.5,1.92-1.52a1.22,1.22,0,0,0,0-1.24c-.16-.23-.39-.42-.55-.64l-.77,1.83a2.82,2.82,0,0,1,.7-.1,1.27,1.27,0,0,0,1.21-1.57l-.09-.43-1.53,1.52c.43.1.78.44,1.21.53a1.26,1.26,0,0,0,1.4-1.82c-.21-.4-.64-.67-.85-1.06l-.77,1.83.4-.07a1.28,1.28,0,0,0,.89-1.53c0-.17-.05-.34-.07-.5l-1.53,1.52c.39.15.77.66,1.22.83.89.35,1.78-.69,1.53-1.52-.12-.39-.47-.71-.57-1.07l-1.83,1.4c.35.15.58.52.94.68a1.28,1.28,0,0,0,1.83-.77c.29-.76-.09-1.14-.2-1.87l-1.52,1.53a2.07,2.07,0,0,0,2.47-1.27l-1.7.47a3.27,3.27,0,0,1,.7.64,1.26,1.26,0,0,0,2.1-.57,13.48,13.48,0,0,1,.2-1.4l-1.53.89.36.12a1.28,1.28,0,0,0,1.41-.59c.36-.51-.35.19.1-.09L29,33.66c.25.46.2,1.08.46,1.57a1.26,1.26,0,0,0,2,.26c.53-.5.45-.85.75-1.45H30.05c.15.33.09.83.25,1.21a1.26,1.26,0,0,0,2,.26c.56-.59.58-1.18,1-1.84H31.07c.13.28.13.66.26,1a1.26,1.26,0,0,0,2,.27c.48-.56,1-.54,1.14-1.4s-.39-1.15-1-1.68l.2,1.5c-.29.45-.49.37.11.22a1.25,1.25,0,0,0,.56-2.09c-.32-.3-.81-.4-1.11-.68l-.88,2.14c.46,0,.92.19,1.38.16a1.33,1.33,0,0,0,1.21-.94l.11-.26a1.2,1.2,0,0,0-.33-1.2c-.38-.39-1-.51-1.37-.88l-.88,2.14c.42,0,.85.23,1.29.21a1.25,1.25,0,0,0,1.08-1.86c-.08-.15-.16-.3-.25-.45v1.24a2,2,0,0,0,.34-.87l-1.21.93c.3,0,.61.18.93.19a1.26,1.26,0,0,0,1.08-1.87c-.1-.2-.26-.36-.37-.56l-1.08,1.87h.53a1.25,1.25,0,0,0,1.08-1.86c-.23-.39-.68-.64-.9-1l-.77,1.83c.32-.08-.27,0,.43.07a1.3,1.3,0,0,0,1.53-.89,2.45,2.45,0,0,0-.15-1.6l-1.53,1.53c.65.25.76.61,1.53.52a1.31,1.31,0,0,0,1.25-1.25c0-.13,0-.26,0-.39l-1.57,1.21.47.18c.95.38,1.66-.72,1.52-1.53-.06-.36-.27-.66-.33-1L35.57,28l.48.23a1.29,1.29,0,0,0,1.51-.2c.76-.81.41-1.2.4-2.16l-2.13.89c.75.68.73,1.34,1.79,1.71a1.27,1.27,0,0,0,1.57-1.21c0-.53-.28-1-.25-1.56l-1.57,1.2a4.08,4.08,0,0,1,1.76.94A1.26,1.26,0,0,0,41,27c.13-.39,0-.84.14-1.22l-1.83.77c.3.18.69.21.95.36-1-.6-.36,0-.15.37.46.71,1.78.94,2.18,0,.21-.5.1-1.13.29-1.58H40.37c.12.25.17.53.3.78a1.26,1.26,0,0,0,2,.27l.31-.3-2-.27c.12.27.12.65.26.95a1.25,1.25,0,0,0,2.17,0c.21-.42.19-.93.39-1.33l-2.3-.3c.15.41,0,.88.21,1.29a1.26,1.26,0,0,0,2.09.57c.57-.54.57-1,1-1.63l-2,.27a1.93,1.93,0,0,0,1.15.64L43,25.78c.13.39,0,.84.14,1.24a1.27,1.27,0,0,0,2.1.56,3.94,3.94,0,0,0,.86-1.78l-1.21.93c.22,0,.45.22.69.25,1,.13,2-.82,1.41-1.83-.24-.37-.68-.6-.9-1L44.73,26c1.57.34,2.27.6,3-1.2l-1.21.93h.06a1.27,1.27,0,0,0,1.53-1.53A4.09,4.09,0,0,1,47.74,23l-.93,1.21c-.43-.13-.46-.11-.11,0a1.26,1.26,0,0,0,1.83-.77l.12-.58-2.09.57c.47.36.62.85,1,1.28a1.25,1.25,0,0,0,2.09-.57c.1-.52-.14-1.1,0-1.59l-2.3.3c.68,1,.35,1.95,1.9,2a1.29,1.29,0,0,0,1.21-.93,2.18,2.18,0,0,0,.14-.84c-.16.52-.44.62-.83.31s-.57-.27-.4.12c0,.62.74,1,1.24,1.07A1.34,1.34,0,0,0,52,24c.45-.66-.24-.18.56-.52l-1.82-.77c.17.52.17,1.08.32,1.61a1.26,1.26,0,0,0,2.09.56c.12-.14.51-.44.18-.38l-1.4-.59.22.35a1.27,1.27,0,0,0,2,.27c.34-.29.56-.62.87-.93L52.88,23c.07.48-.19,1.06-.12,1.59a1.25,1.25,0,0,0,2.09.57c.34-.39.41-1,.7-1.35l-1.2.33.29.07L54,23.15c.14,1.18-.42,2.42,1.11,3a1.73,1.73,0,0,0,1.77-.34,3,3,0,0,0,.56-.5c.55-.62-.16-.13.17-.17l-1.57-1.21c0,.37-.19.75-.16,1.14a1.27,1.27,0,0,0,2.14.88c.31-.27.45-.7.76-1l-2.1-.56a2.53,2.53,0,0,1,0,.95,1.26,1.26,0,0,0,1.57,1.21l.41-.15-1.53-.89a2.72,2.72,0,0,0,.31,1.25,1.27,1.27,0,0,0,2,.26c.35-.26.51-.71.86-1l-2.1-.56c.14.33.27.67.44,1a1.26,1.26,0,0,0,1.7.47c.22-.13.39-.33.6-.45L59.1,25.4A2.46,2.46,0,0,0,59.73,27a1.29,1.29,0,0,0,1.5.21c.21-.09.36-.23.56-.32l-1.51-.21c-.13-.45-.18-.48-.15-.07A1.27,1.27,0,0,0,62,27.73c.22-.1.39-.27.6-.37L60.78,26c-.09.51-.51.94-.6,1.46-.14.83.57,1.89,1.53,1.53.27-.06.32-.09.15-.11l-.93-1.21c0,.16,0,.31,0,.46.08.72.75,1.51,1.57,1.21.53-.19,1-.53,1.49-.75l-1.86-1.09-.06.59c-.1,1.05,1.1,1.42,1.87,1.09.23-.1.41-.25.64-.35L62.8,27.37c-.1.47-.53.84-.63,1.32A1.27,1.27,0,0,0,64,30.1c.32-.16.54-.46.86-.62L63,28.39A2.38,2.38,0,0,0,63.17,30a1.26,1.26,0,0,0,1.41.59l.48-.12L63.53,28.9c-.05.26-.16.48-.21.74A1.26,1.26,0,0,0,65.14,31c.36-.15.6-.51.94-.65L64.26,29c-.12.44-.57.81-.69,1.28-.23.85.62,1.86,1.52,1.53.66-.24,1.15-.63,1.77-.9L65,29.49c-.11.35-.38.65-.5,1a1.25,1.25,0,0,0,1.21,1.56,5.67,5.67,0,0,0,1.62-.58L65.84,30c-.11.34-.38.63-.49,1a1.26,1.26,0,0,0,1.53,1.53l.56-.16L65.87,31.1l0,.47a1.27,1.27,0,0,0,1.57,1.21c.23-.06.43-.19.66-.25L66.54,31c-.12.43-.3.83-.4,1.27-.18.85.6,1.86,1.53,1.53.46-.16.81-.65,1.2-.79l-1.52-1.52c-.13.54-.48.95-.64,1.48a1.26,1.26,0,0,0,1.53,1.52c.32-.1.58-.35.88-.44l-1.57-1.21A2.63,2.63,0,0,0,68,34.42a1.26,1.26,0,0,0,1.41.59c.37-.1.67-.44,1-.54L69,32.64c-.23.51-.77.84-1,1.35-.41.88.3,2.21,1.4,1.83a4.12,4.12,0,0,0,.73-.36c.56-.33-.12-.32.19-.25l-.77-1.83c-.13.33-.41.57-.55.91-.38.91.27,2.16,1.41,1.82.34-.1.63-.36,1-.45l-1.53-1.53a7.83,7.83,0,0,1-.3,1.08,1.25,1.25,0,0,0,1.52,1.52c.35-.1.65-.35,1-.45l-1.41-1.83c-.15.34-.44.57-.59.91a1.27,1.27,0,0,0,1.41,1.83c.28-.08.54-.23.82-.31l-1.53-1.52c-.13.41-.41.67-.57,1.06a1.27,1.27,0,0,0,1.09,1.87c.39,0,.32,0-.2-.15a1.24,1.24,0,0,0,1.2.32c.41-.1.74-.44,1.13-.53L72,36.1a17.46,17.46,0,0,0-.84,2,1.26,1.26,0,0,0,1.52,1.53c.42-.1.74-.43,1.14-.52l-1.53-1.53c-.06.43-.25.5-.41.89a1.26,1.26,0,0,0,.47,1.7,2.61,2.61,0,0,0,1.58.18L72.7,39.14v.38a1.26,1.26,0,0,0,1.56,1.21c.37-.09.67-.33,1-.41L74.09,40l.22.22L74,39c-.13.49-.61.74-.85,1.18-.42.75.11,2,1.09,1.87.42-.05.87-.16,1.27-.2L74.4,40c-.13.26-.32.46-.45.72A1.27,1.27,0,0,0,75,42.58c.22,0,.44-.09.65-.1L74.6,40.61c-.16.31-.45.52-.6.84-.37.74.08,2,1.09,1.86s-.13-1.28-.32-.7A1.25,1.25,0,0,0,76,44.17c.24,0,.48-.13.7-.15l-1.21-1.57c-.22,1.49.55,2.81,2.17,2.74l-1.25-1.25,0,.38a1.26,1.26,0,0,0,1.25,1.25l.54,0L77,44c-.11.4-.29.73-.42,1.13a1.22,1.22,0,0,0,.33,1.2c1.1,1,1.46.26,2.59-.05L78,44.7c-.08.23-.24.45-.33.68-.36.95.7,1.69,1.52,1.53.31-.06.56-.27.85-.32l-1.52-1.53c-.18.88-.82,1.7-.43,2.6.47,1.09,1.56,1,2.54.8l-1.52-1.53c-.09.23-.25.46-.34.7a1.26,1.26,0,0,0,.6,1.41l.29.14L79,48.09c0,.12,0,.24.05.37A1.33,1.33,0,0,0,80,49.67a2.85,2.85,0,0,0,1.66-.11L80.1,48c-.08.26-.32.51-.41.79A1.24,1.24,0,0,0,80,50a5.77,5.77,0,0,1,.42.44,1.25,1.25,0,0,0,1.2.33c.34-.11.62-.36.94-.46l-1.52-.89.09.32a1.29,1.29,0,0,0,1.53.9c.73-.14.22,0,0-.15L82,49.11c-.05.21-.17.41-.23.62a1.27,1.27,0,0,0,1.53,1.53c.23,0,.42-.15.64-.2l-1.52-1.52c-.11.29-.37.56-.49.88a1.23,1.23,0,0,0,.33,1.2c.91.87,1.61.41,2.67.15l-1.53-1.52c-.16.4-.66.77-.84,1.23a1.26,1.26,0,0,0,1.21,1.57h.42L83,52.13a6.12,6.12,0,0,0,.35.93,1.26,1.26,0,0,0,1.4.59c.53-.14,1-.5,1.49-.64l-1.53-1.53c-.26,1-1.15,1.67-.38,2.74a1.32,1.32,0,0,0,1.71.47c.49-.2.81-.71,1.3-.91H86.13c-1.26-1,.25-.12-.16.06,0,0,0-.76-.26.08a1.3,1.3,0,0,0,.6,1.41l.26.16L86,54.08c-.08.26-.23.5-.3.77a1.25,1.25,0,0,0,1.52,1.52c.58-.21,1.07-.65,1.61-.85L87.29,54c-.07.28-.28.53-.35.83-.17.7.37,1.67,1.21,1.56l.77-.1-1.53-.89c.08.32-.11-.4-.09.37A2.11,2.11,0,0,0,87.58,57a1.29,1.29,0,0,0,1.7.47c1-.42-.07-.26.17-.23l-.89-1.52c-.1.37-.44.69-.54,1.08a1.26,1.26,0,0,0,1.82,1.41c.5-.24.8-.78,1.27-1l-1.82-1.41c-.07.32-.3.59-.37.9a1.26,1.26,0,0,0,1.52,1.53l.49-.11L89.4,56.55c-.06.28-.2.53-.27.8A1.28,1.28,0,0,0,90,58.88a2.31,2.31,0,0,0,1.25,0c.26-.07,1.23-.52.85-.39l-1.57-1.21a5.13,5.13,0,0,0-.19.76,1.26,1.26,0,0,0,1.25,1.25H92L90.73,58c0,.41-.14.78-.15,1.19a1.26,1.26,0,0,0,1.57,1.21,15.43,15.43,0,0,0,1.53-.74L91.82,58.6c0-.31-.15.57-.16.7-.07,1,1.08,1.43,1.87,1.09.33-.15.53-.49.85-.63l-1.82-1.4c-.06.41-.46.73-.52,1.17a1.27,1.27,0,0,0,1.83,1.4c.26-.12.46-.33.72-.45L92.72,59.4c0-.35-.52.75-.49,1.14A1.48,1.48,0,0,0,93,61.72c1.08.67,2-.15,3-.57l-1.83-1.4c-.06.36-.34.65-.41,1-.13.81.57,1.9,1.53,1.52.33-.13,1.32-.9,1-.76l-1.57-1.21c0,.38-.08.71-.08,1.08a1.27,1.27,0,0,0,1.87,1.09c.33-.13.52-.46.83-.59L95.45,60.5c-.06.41-.46.73-.52,1.17-.1.81.55,1.9,1.53,1.52a2.77,2.77,0,0,0,.7-.37c.13-.1.8-.58.24-.37l-1.52-1.52c-.08.5-.63.88-.71,1.42a1.27,1.27,0,0,0,1.21,1.57c.9,0,1.11-.48,1.86-.8l-1.83-1.41c-.06.36-.35.65-.41,1-.13.82.56,1.89,1.53,1.52.21-.08,1.12-.67.79-.55L96.8,62.19a12.48,12.48,0,0,0-.29,1.62,1.26,1.26,0,0,0,1.87,1.09c.34-.15.53-.49.86-.63H98l.24.17L97.66,63c0,.36-.33.64-.39,1-.11.72.33,1.66,1.21,1.57a6.3,6.3,0,0,0,2-.79l-1.2-.33c.37.38-.19-.59-.23-.59s-.11.64-.13.68c.12-.36-.26.57-.28.86a1.26,1.26,0,0,0,1.25,1.25,4.45,4.45,0,0,0,2-.55l-1.83-1.4c0,.27-.19.5-.23.78a1.28,1.28,0,0,0,1.83,1.41c.26-.11.44-.31.7-.42l-1.87-1.09c0-.46-.43.81-.46,1.1a1.25,1.25,0,0,0,1.56,1.21c.22-.08,1.15-.67.79-.53L100.88,66c0-.25-.16.57-.18.72-.1,1,1.1,1.4,1.87,1.09.32-.14.51-.47.83-.6l-1.87-1.08,0,.46a1.26,1.26,0,0,0,1.56,1.21c.21-.07,1.19-.64.75-.49l-1.52-1.52c-.07.36-.36.66-.43,1-.12.7.35,1.67,1.21,1.57l.42-.06-1.21-.93c.06.2,0,.39,0,.67a1.27,1.27,0,0,0,.93,1.21,1.58,1.58,0,0,0,1,.07c.24-.06,1-.64.71-.51l-1.57-1.21c0-.41-.13.53-.13.67a1.25,1.25,0,0,0,1.56,1.2c.7-.21.53-.27,1.06-.39l-1.57-1.21c0-.48-.43.81-.45,1.09a1.25,1.25,0,0,0,1.56,1.21c.13,0,1-.46.63-.33l-1.52-1.53c-.05.29-.21.53-.25.82-.14.83.56,1.88,1.52,1.52a5.73,5.73,0,0,0,.82-.3c.13-.06,1-.55.45-.38l-1.53-1.52c-.07.5-.62.88-.7,1.41a1.26,1.26,0,0,0,1.52,1.53,4,4,0,0,0,.77-.24c.11,0,1-.61.49-.43l-1.53-1.53c-.19,1.07-.85,1.51.1,2.48a1.25,1.25,0,0,0,1.2.33,2.61,2.61,0,0,0,.7-.37c.14-.11.79-.55.22-.34l-1.56-1.21c0-.29-.32.7-.34.94-.12,1,1.11,1.4,1.86,1.08.26-.1.44-.3.7-.41l-1.87-1.09c0-.42-.27.64-.28.87a1.25,1.25,0,0,0,1.56,1.21c.64-.24,1.08-.68,1.66-.92l-1.87-1.09c.09-.71-.41.38-.5.58a3.08,3.08,0,0,0-.29,1c-.12,1,1.12,1.43,1.87,1.08.35-.16.55-.51.89-.66l-1.71-.47c.21.31.13.88.18,1.26.14.89,1.17,1,1.83.77.48-.2.71-.83,1.16-1h-1.24l.25.17L110,72.26c0-.33-.3.68-.33.91-.1,1,1.11,1.41,1.87,1.09a5,5,0,0,0,.74-.29c.56-.62-.82-.27-.53-.12l-.63-1.09c0,.8,0,0-.21.64a5.13,5.13,0,0,0-.32,1,1.25,1.25,0,0,0,1.57,1.21,3.22,3.22,0,0,0,.91-.34c.72-.52-.22-.23,0-.17l-.89-1.52c-.07.49-.13,1-.17,1.47a1.26,1.26,0,0,0,.93,1.21c.88.18,1.18-.15,1.94-.46L113,74.43c0,.36-.34.64-.4,1a1.3,1.3,0,0,0,.9,1.53c.5.13-.58-.66-.28-.26a1.29,1.29,0,0,0,1.71.47,2,2,0,0,0,.85-1.13c.55-1.52-1.87-2.15-2.41-.64Z" style="fill:#1c1b1f"/><path d="M36.94,42.21c.08.07.09.2.16.28s.11.17.17.26.22.1.27.19,0,.24,0,.33.18.15.22.24.09.19.12.29,0,.23,0,.33.06.19.08.29,0,.21,0,.31.11.19.12.29-.08.21-.08.31-.08.2-.09.3.08.21.07.31-.06.19-.09.29,0,.23,0,.32-.13.17-.17.26a1.67,1.67,0,0,1-.17.26,1.55,1.55,0,0,1-.19.24c-.06.07-.17.09-.26.15s-.11.2-.21.25-.25-.09-.34-.06-.16.15-.26.17-.18.12-.29.14-.19.07-.3.08H35.4c-.1,0-.2-.06-.3-.07s-.2-.06-.3-.07-.22.08-.32.06-.15-.24-.25-.26-.23.07-.33,0-.22,0-.32,0-.16-.14-.25-.18l-.27-.15c-.09-.06-.15-.15-.23-.21L32.58,47c-.08-.07-.25,0-.32-.12s0-.27-.06-.35-.2-.08-.26-.16-.2-.1-.26-.18,0-.25,0-.33-.11-.16-.16-.25-.11-.17-.14-.26,0-.2-.07-.29a1.43,1.43,0,0,1-.07-.28,1.6,1.6,0,0,1-.05-.29c0-.1-.13-.18-.14-.28s0-.2,0-.3.05-.19.06-.29,0-.2,0-.3l.06-.29c0-.09.12-.16.15-.25a2.06,2.06,0,0,1,.12-.26c.05-.09,0-.25,0-.34s.19-.11.25-.18a2.11,2.11,0,0,1,.19-.23c.07-.07.21-.05.28-.11s.08-.23.16-.29l.25-.15c.09,0,.16-.15.26-.18s.22,0,.32,0,.17-.13.27-.15.21.16.31.16S33.89,41,34,41s.2,0,.3,0a2.83,2.83,0,0,1,.3,0c.1,0,.16.19.26.21l.27.1c.09,0,.16.11.25.15s.19,0,.28.09.24,0,.32,0,.18.1.26.16l.24.17.23.19C36.77,42.1,36.87,42.14,36.94,42.21Z" style="fill:#1c1b1f"/><path d="M36.4,42.52a2.58,2.58,0,0,0,.83,1l-.32-.54a18.66,18.66,0,0,1,.49,2.23,5.3,5.3,0,0,1-.13,1.06c-.1.34-1.05,1.09-.38.85a13,13,0,0,1-1.63.3,4,4,0,0,1-.62-.08c-.49-.08.56.15,0,0-.31-.1-.61-.11-.9-.2-.47-.15-.87-.59-1.35-.77l.45.44c-.16-.79-.72-1-1-1.82-.36-1,.12-1.72.17-2.72l-.32.55c.4-.3.75-.7,1.13-1a1.51,1.51,0,0,1,.57-.16c-.38,0,.18.09.36.08s.4-.18.51-.18.46.28.59.34a12.19,12.19,0,0,1,1.76.9c.65.47,1.26-.62.61-1.08a8.28,8.28,0,0,0-2.58-1.35c-.27-.06-1.54.1-.82.13-.39,0-.64-.16-1.05,0a3.29,3.29,0,0,0-1.09.72s.08-.12-.17.1a2.85,2.85,0,0,0-.62.58,4.25,4.25,0,0,0-.45,2.71,4.36,4.36,0,0,0,3.59,3.83c.44.06-.5-.09,0,.1a4,4,0,0,0,.46.13,3.68,3.68,0,0,0,3.55-1.21,4.41,4.41,0,0,0,.43-3.27c-.19-1.19-.47-1.13-1-2.21A.63.63,0,0,0,36.4,42.52Z" style="fill:#1c1b1f"/><path d="M35.1,53.44c.07.07.19.12.25.2s0,.24.09.32.1.18.15.27.2.12.25.21,0,.22.06.32.05.2.08.29.18.17.21.26-.09.24-.07.34.14.18.15.28,0,.21,0,.31-.12.21-.12.31,0,.21,0,.31-.06.19-.08.29.06.22,0,.32-.13.17-.17.27-.14.15-.18.24,0,.23-.05.31a1,1,0,0,1-.21.21c-.07.07-.09.22-.17.28s-.21,0-.3.1l-.29.11-.29.09c-.09,0-.2,0-.3,0s-.19.14-.29.15-.21-.17-.31-.17-.2.09-.3.08-.21.06-.31.05-.22,0-.32,0l-.3-.07c-.1,0-.18-.12-.28-.15s-.17-.11-.26-.15-.24,0-.33,0-.08-.27-.17-.32-.24,0-.32-.06-.22-.05-.3-.12-.11-.18-.18-.26l-.2-.21c-.07-.08-.1-.18-.16-.26s-.13-.15-.18-.23-.23-.09-.28-.18.08-.27,0-.35-.17-.14-.21-.23-.17-.15-.2-.24.08-.23.05-.33a1.47,1.47,0,0,1-.08-.28c0-.1-.06-.19-.07-.29s0-.2,0-.3,0-.19,0-.29a2.93,2.93,0,0,1,.05-.29c0-.1-.06-.21,0-.31l.1-.28c0-.09.12-.16.16-.25a2.1,2.1,0,0,1,.13-.26,2.49,2.49,0,0,1,.17-.24c.06-.08.18-.11.25-.18a1.92,1.92,0,0,1,.22-.18c.08-.06.07-.25.15-.3s.22,0,.31-.06a2.06,2.06,0,0,1,.26-.12c.09,0,.21,0,.31,0s.16-.18.26-.19l.29-.05c.1,0,.2-.07.3-.07s.19.12.29.13.21-.06.31,0,.15.22.24.25.22-.06.32,0,.2,0,.3,0l.28.11c.08,0,.1.23.18.28l.24.16c.08.06.12.16.2.22a2.07,2.07,0,0,1,.25.15C34.85,53.42,35,53.37,35.1,53.44Z" style="fill:#1c1b1f"/><path d="M34.66,53.88a4,4,0,0,1,.61.9c.08.14.46,1.32.28.54a4.06,4.06,0,0,1-.22,2.23,1.55,1.55,0,0,1-1.61,1.07c.79,0-.46-.07-.61-.07-.58,0-1.06-.32-1.64-.37l.54.31c-.31-.59-.52-.4-1-.75s-.59-.82-1.05-1.12l.32.54c0-.6-.26-.68-.37-.92a12.71,12.71,0,0,1-.05-1.52,2,2,0,0,1,.83-1.42c.36-.27.15-.12.67-.29a1.82,1.82,0,0,1,.9-.19c.11,0,.57.06.15-.09.15.05.21.26.4.3.47.09.47,0,.8.24a3.92,3.92,0,0,0,1.3.78.63.63,0,0,0,.32-1.21c-.49-.13-.62-.55-1-.78a2.47,2.47,0,0,0-.79-.27c-.35-.1-.2,0-.22,0a3.1,3.1,0,0,0-2.13,0c-.33.08.23-.11-.21,0a3.08,3.08,0,0,0-.73.22,4.13,4.13,0,0,0-1,1,3.85,3.85,0,0,0-.49,3.15,4.34,4.34,0,0,0,1.1,2,3.4,3.4,0,0,0,1.18.86c-.32-.2,0,.17.11.23a4,4,0,0,0,.54.15c1.52.62,3.71.65,4.7-1a4.13,4.13,0,0,0,.53-1.89,3.34,3.34,0,0,0,0-.71c0-.28-.12-.35-.11-.3A4.27,4.27,0,0,0,35.54,53C34.91,52.52,34,53.4,34.66,53.88Z" style="fill:#1c1b1f"/><path d="M40.57,38.58c.08.07.09.21.17.27L41,39l.26.16c.09.06.25,0,.35,0s.19,0,.29.07.14.2.23.23.19.08.29.1.22-.06.32,0,.19.11.29.12l.3,0c.1,0,.2-.12.3-.12s.21.13.31.12.19-.12.28-.14l.29-.07c.1,0,.23.06.33,0l.28-.13a2.36,2.36,0,0,0,.28-.12c.09-.06.11-.2.18-.26s.2-.1.26-.18.17-.15.22-.24,0-.23,0-.33a2,2,0,0,0,.11-.29c0-.09,0-.21,0-.31s.09-.19.1-.29a3,3,0,0,0,0-.31c0-.1,0-.2,0-.3s0-.21,0-.31-.14-.19-.16-.29.14-.24.11-.34-.14-.17-.17-.27-.13-.17-.17-.26a2.33,2.33,0,0,0-.17-.26c0-.09-.09-.17-.14-.26s-.05-.21-.11-.29-.08-.19-.15-.27-.21-.08-.29-.15,0-.29-.07-.35-.24,0-.32-.09-.2-.05-.28-.11-.13-.15-.22-.2l-.25-.15c-.09,0-.16-.13-.25-.16l-.28-.1c-.09,0-.22.07-.32,0s-.14-.24-.24-.26-.21.06-.31,0-.19.08-.29.08-.2-.14-.29-.13a1.35,1.35,0,0,0-.29,0,1.57,1.57,0,0,0-.29.08,1.47,1.47,0,0,0-.29.05,1.57,1.57,0,0,0-.28.1l-.27.13c-.08.05-.1.19-.18.25a2,2,0,0,0-.23.18c-.07.07-.17.11-.23.19a1.53,1.53,0,0,0-.16.25l-.14.25c0,.09-.14.16-.18.25a2.47,2.47,0,0,0-.1.29c0,.09.11.22.1.32s-.12.18-.13.27,0,.2,0,.3-.09.21-.08.31.16.17.18.27a2.29,2.29,0,0,0,.08.28c0,.1.12.16.15.26s0,.22,0,.31.16.14.2.23-.07.26,0,.35.2.1.26.18.16.13.22.21.13.13.2.2S40.5,38.51,40.57,38.58Z" style="fill:#1c1b1f"/><path d="M40,38.89a4.13,4.13,0,0,0,3,1.44c.27,0,.52-.1.77-.1-.59,0,0,.15.23.14a4,4,0,0,0,1.83-.61,3.66,3.66,0,0,0,1.07-3.26,2.19,2.19,0,0,0-.38-1.34c-.23-.39-.4-.85-.66-1.21-.06-.09-.18-.15-.23-.23-.27-.4.06.43-.07-.12a.64.64,0,0,0-.44-.45c-.61-.18-1.05-.66-1.68-.81-.1,0-.23,0-.32,0-.3-.1.49.12.18,0a2.7,2.7,0,0,0-.58-.23,2.82,2.82,0,0,0-.65,0,5.42,5.42,0,0,0-.9.13,3.07,3.07,0,0,0-1.81,1.13,3.67,3.67,0,0,0-.74,2.92c.1.43.38.85.51,1.26s.61.75.89,1.32,1.44.1,1.09-.62a3.1,3.1,0,0,0-1-1.11l.31.55c0-.82-.43-1.05-.58-1.88.07.37.16-.44.19-.63a1.65,1.65,0,0,1,.66-1.27,2.54,2.54,0,0,1,1.1-.59c.09,0,1.24,0,.74,0a11.55,11.55,0,0,1,1.1.45,8.13,8.13,0,0,0,1.22.6l-.45-.44A2.8,2.8,0,0,0,45,35a5.17,5.17,0,0,1,.55.93.88.88,0,0,0,0,.3c.19.81.26,2.08-.48,2.54a3.16,3.16,0,0,1-1.71.34c-.56-.05-1.87-.29-2.19-.82C40.7,37.58,39.61,38.2,40,38.89Z" style="fill:#1c1b1f"/><path d="M51.8,36.75,52,37c.08.06.23,0,.31.09s.13.17.22.22a2.15,2.15,0,0,0,.24.18c.09,0,.15.17.24.21l.3.1.3.08c.1,0,.23-.1.33-.08s.2,0,.3,0,.19.15.29.16.2,0,.3,0,.2-.12.3-.13.21.06.31,0a1.54,1.54,0,0,0,.3,0c.1,0,.16-.17.25-.2s.24,0,.33,0,.12-.18.2-.24a1.37,1.37,0,0,0,.22-.19c.07-.07.22-.06.28-.15a2.29,2.29,0,0,0,.14-.27,1.48,1.48,0,0,0,.16-.27c0-.09,0-.22,0-.32s.13-.18.14-.28.11-.19.12-.3-.1-.21-.09-.31,0-.21,0-.31-.11-.19-.12-.29,0-.21,0-.31a1.57,1.57,0,0,0,0-.3l-.09-.29c0-.1,0-.21-.06-.31s-.18-.14-.23-.23.07-.27,0-.36-.19-.13-.25-.21-.18-.12-.24-.2-.17-.12-.24-.19l-.21-.2c-.08-.06-.11-.18-.18-.24s-.13-.15-.21-.21-.23,0-.31-.06-.07-.28-.16-.33-.24,0-.33,0-.21,0-.3,0-.17-.12-.26-.14L54,31a2.29,2.29,0,0,0-.28-.09c-.1,0-.2,0-.3,0s-.19.13-.28.13-.22-.17-.32-.16-.17.13-.27.15-.15.15-.24.18-.24-.06-.32,0a1.32,1.32,0,0,0-.25.16c-.08.05-.15.12-.23.18s-.17.1-.24.17l-.21.21a2.23,2.23,0,0,0-.19.24c-.05.08,0,.21-.06.3s-.09.17-.12.26a1.07,1.07,0,0,0-.18.56l0,.29c0,.1-.07.2-.07.3a1.51,1.51,0,0,0,0,.3c0,.1.18.17.19.27s0,.21,0,.3.07.19.1.28,0,.23,0,.32.21.12.25.21l.15.25c0,.08.16.13.22.21s0,.22.08.3.19.09.25.17S51.73,36.68,51.8,36.75Z" style="fill:#1c1b1f"/><path d="M51.35,37.19a4.89,4.89,0,0,0,3.57,1.36,3.19,3.19,0,0,0,2.55-1.08c.92-1,.77-2.64.4-3.85-.22-.72-.12-.79-.69-1.39a9.65,9.65,0,0,0-1-.94c-.11-.09-.28-.17-.38-.26-.3-.26.15.36-.09-.1a.6.6,0,0,0-.54-.31c-.61,0-1.14-.35-1.76-.34-.14,0-.32.16-.45.15.76,0,0-.19-.15-.17s-.45.24-.7.32.22-.17-.13,0a3.43,3.43,0,0,0-1.47,1A3.91,3.91,0,0,0,50,34.74c.19,1,.82,1.44,1.28,2.31s1.47.1,1.09-.61a3.65,3.65,0,0,0-.48-.74c-.1-.13-.69-.91-.54-.52a3.32,3.32,0,0,1,.15-2.69c.33-.51.62-.41,1-.67a1.65,1.65,0,0,1,.39-.24c-.24,0-.13.07,0,0a10.07,10.07,0,0,1,2.28.25l-.54-.32a2.87,2.87,0,0,0,1,1c.12.1.74.53.75.54s0,.36.07.49a3.29,3.29,0,0,1,.18,3,2.66,2.66,0,0,1-.52.42c-.29.18.3-.12-.25.06a2.53,2.53,0,0,1-1.08.3,4,4,0,0,1-2.52-1C51.66,35.75,50.77,36.63,51.35,37.19Z" style="fill:#1c1b1f"/><path d="M51,43.79c-.1,0-.24-.23-.34-.21s-.17.19-.27.22l-.29.07c-.1,0-.17.14-.27.17s-.29-.3-.38-.27-.1.41-.19.44-.23-.05-.32,0-.17.12-.27.15-.16.14-.25.18-.24-.05-.33,0-.23,0-.32,0-.11.27-.2.31-.28-.13-.37-.09,0,.38-.13.42-.3-.15-.39-.1-.13.18-.22.23-.22,0-.31.07-.14.15-.23.2-.23,0-.31.07,0,.32-.12.37-.1.2-.18.26-.25,0-.33.06-.2.07-.27.14-.1.19-.17.26-.25,0-.32.1-.05.24-.12.31,0,.24-.11.31-.25,0-.31.11-.09.19-.16.26-.14.14-.2.22a2.13,2.13,0,0,0-.16.25c-.06.08-.35,0-.41.07s0,.28,0,.36-.07.19-.13.28-.21.1-.26.19-.23.1-.28.19-.07.19-.12.28.11.28.07.37,0,.23,0,.32-.39.06-.43.15-.19.15-.22.25-.05.2-.08.3.1.24.07.34.09.23.06.33-.3.13-.32.23l-.06.3c0,.1.38.28.36.38s-.11.18-.13.28-.14.18-.16.28-.08.19-.09.29,0,.2-.06.3.28.22.27.33-.48.17-.48.27.26.22.26.32.13.2.13.3-.24.2-.24.3.21.2.21.3-.25.21-.25.31.32.18.33.28,0,.2,0,.3-.29.23-.28.33.27.18.28.28.13.18.14.28-.4.26-.38.36.26.17.27.27.16.17.18.27-.18.24-.16.34.21.16.24.26-.27.27-.25.36.15.18.17.28.21.15.24.25-.11.24-.08.34.3.12.33.22.08.18.12.27-.09.25,0,.34a2.68,2.68,0,0,0,0,.3c0,.1.15.16.18.26s-.19.3-.15.4.29.09.34.18,0,.23,0,.32.33,0,.38.14-.07.27,0,.36.31,0,.36.13-.16.34-.11.43.29.05.35.13-.06.29,0,.37.29,0,.35.11.16.11.23.19.17.09.24.16,0,.31.05.37,0,.29.09.35l.23.2c.08.06.24,0,.32.08s.3-.1.38-.05.2,0,.29.08,0,.34.13.38l.27.12c.09,0,.28-.19.38-.16s.14.17.23.2.13.26.23.29.25-.21.34-.19.15.33.24.34.23-.26.33-.25.19,0,.29,0,.19.44.29.44.19-.33.29-.34.25.32.35.31.15-.3.25-.32.24.1.34.08.23,0,.32,0,.09-.38.19-.41.29.2.39.16.1-.27.19-.31.13-.21.22-.25.13-.17.22-.21a2.2,2.2,0,0,0,.26-.15c.09,0,.35.18.43.13s.05-.29.13-.35.37.16.45.1,0-.34.06-.41.27,0,.34-.06,0-.29.07-.36,0-.23.11-.3.25,0,.32-.11.22-.07.29-.15.07-.2.13-.28.28-.05.33-.13,0-.26,0-.35,0-.24,0-.32,0-.19.1-.28.28-.08.33-.17,0-.23,0-.32.3-.1.33-.19-.36-.32-.33-.41.36-.1.39-.19,0-.2,0-.29-.16-.25-.13-.34.08-.18.11-.28.22-.13.25-.22.11-.16.15-.25,0-.22,0-.31.29,0,.34-.14-.12-.3-.07-.38,0-.3,0-.37.3,0,.37-.06l.23-.19c.08,0,.26.09.35.05s.19-.06.28-.1.21,0,.31-.05l.28-.11c.1,0,.08-.47.18-.5l.3-.07c.1,0,.26.15.36.12s.27.16.37.13.14-.24.24-.27.11-.29.21-.33a1.61,1.61,0,0,0,.29-.09c.09,0,.2,0,.29-.09s.13-.16.22-.21.38.25.47.2.08-.26.16-.31.09-.23.18-.29l.24-.18c.08-.06.32.09.4,0s.05-.26.13-.33.26,0,.34-.08.13-.15.21-.22,0-.26.09-.34.17-.11.24-.19-.09-.33,0-.41l.18-.23.17-.24c.06-.08.3,0,.35-.12s0-.26,0-.34,0-.19.09-.28.14-.15.18-.24,0-.19.09-.28.25-.11.29-.21-.07-.23,0-.33,0-.2,0-.3.06-.18.08-.28.2-.16.21-.26.16-.19.17-.29.12-.2.12-.31-.24-.2-.25-.3.18-.21.17-.32-.37-.14-.39-.24a1.53,1.53,0,0,0-.07-.29c0-.09.12-.23.1-.32s0-.23,0-.33-.18-.14-.22-.23,0-.21-.07-.3-.19-.12-.23-.21L63.08,48l-.18-.23a2.2,2.2,0,0,0-.15-.26c-.06-.08,0-.21-.12-.28s-.26,0-.33-.11,0-.23-.11-.3-.13-.16-.2-.23l-.23-.18c-.08-.07-.27,0-.35,0s0-.33-.07-.39-.25,0-.33,0,0-.3-.12-.36-.27,0-.35,0-.24,0-.33,0,0-.41-.08-.46-.12-.19-.21-.24l-.28-.13c-.09,0-.31.17-.4.13s-.15-.14-.24-.18-.25.07-.34,0-.2,0-.3-.07-.1-.29-.2-.33-.16-.15-.26-.18-.29.26-.39.23-.15-.17-.25-.19-.17-.15-.27-.18-.14-.29-.23-.31-.28.28-.38.26l-.29,0c-.1,0-.21.06-.31,0s-.16-.28-.26-.29-.19-.17-.29-.18-.23.2-.33.19-.17-.3-.28-.31-.22.27-.32.27-.2-.16-.3-.17-.2-.12-.3-.12-.21.28-.31.28-.2-.28-.31-.27-.2.06-.3.07-.18.38-.28.38-.24-.44-.34-.43-.17.32-.27.33h-.31l-.3,0C51.18,43.69,51.09,43.77,51,43.79Z" style="fill:#1c1b1f"/><path d="M51.3,43.25,51,43a.63.63,0,0,0-.75.1c-.36.28-.33.18-.46.08a.65.65,0,0,0-.86.24c-.24.56.2-.05-.12.12s-.59.18-.85.3c-.49.22-.58.1-.9.63l.7-.29-.37-.09a.64.64,0,0,0-.76.45c-.05.13-.09.27-.14.41l.77-.44-.39-.1a.61.61,0,0,0-.6.16,2.59,2.59,0,0,1-.79.41.63.63,0,0,0-.45.44c-.15.49-1,.6-1.36,1.11-.08.13-.07.35-.17.47s.34-.49,0-.08-.56.73-.85.78a.62.62,0,0,0-.47.6c0,.41-.44.38-.59.71a2.66,2.66,0,0,0-.15,1.28l.47-.6c-1.13.39-1.24,1.05-1,2.13l.29-.71c-.82.6-.84,1.18-.15,1.9l-.1-.75c-.41.9-.76,1.42-.07,2.23l.13-1-.48.28a.63.63,0,0,0-.13,1,1.14,1.14,0,0,1,.28.49l.1-.75-.23.3a.64.64,0,0,0-.1.75l.21.3.1-.75c-.08.1-.17.2-.25.31a.63.63,0,0,0,0,.88c.27.24.29-.25.06,0a.63.63,0,0,0,0,.88,1.24,1.24,0,0,1,.32.43l.1-.75-.39.36a.64.64,0,0,0,0,.88c.23.22.33-.16.2.13a.64.64,0,0,0,.1.75c.08.09.15.18.23.26l-.1-.75-.24.37a.61.61,0,0,0,0,.61A4.48,4.48,0,0,1,41,60c.08.23.05-.56-.07-.07a.65.65,0,0,0,.3.7,1.81,1.81,0,0,1,.18,1.09.62.62,0,0,0,.3.7c.2.06.23.1.08.11,0,.24.26.37.45.45l.38.15-.47-.61c0,.12,0,.24,0,.36a.64.64,0,0,0,.47.6l.36.14-.44-.77c0,.14-.08.29-.11.43a.65.65,0,0,0,.44.76l.35.13-.47-.6c0,.12,0,.25,0,.37a.62.62,0,0,0,.46.6c.7.22.14,0,.47.57A1.55,1.55,0,0,0,44.8,66c.16,0,.75,0,.21-.24.11.06.13.43.29.53a1.19,1.19,0,0,0,1.33,0l-.75-.11a3.61,3.61,0,0,1,.47.49.63.63,0,0,0,.75.1l.34-.19-.85-.23.24.34c.18.24.56.45.85.23a.91.91,0,0,1,.47-.23l-.7-.29.28.44a.64.64,0,0,0,1,.13l.29-.33h-.88l.34.3a.63.63,0,0,0,.89,0c.28-.34-.27,0-.1-.1a4,4,0,0,1,.57,0,.6.6,0,0,0,.55-.32l.18-.4-.85.23.39.17a.65.65,0,0,0,.85-.24c.18-.29.28-.6.62-.49a.65.65,0,0,0,.77-.45c0-.12.09-.23.13-.35l-.77.44.45.1a.63.63,0,0,0,.76-.44c.06-.4-.36,0,0,0a.62.62,0,0,0,.45-.45c.12-.66-.21,0,.34-.46.3-.25.3-.36.61-.49a.64.64,0,0,0,.32-.54,2.31,2.31,0,0,1,.51-1.09.63.63,0,0,0,.14-1l-.34-.41-.13,1c.75-.36.48-.51.71-1.18.05-.16.56-.88.29-.77a.65.65,0,0,0,.45-.76,2,2,0,0,1,0-.6l-.47.61a6.08,6.08,0,0,0,1.68-.41c.21-.11.44-.43.59-.5.31-.15,0-.09-.11-.07a2.24,2.24,0,0,1,.55.19.61.61,0,0,0,.6-.16c.44-.49.77-.53,1.25-1l-.75.11.47.2a.64.64,0,0,0,.85-.24c.16-.3.14-.45.44-.44a.6.6,0,0,0,.54-.31c.27-.67-.2.23.16-.14a3.25,3.25,0,0,0,.6-.73c.19-.32.3-.9.55-1a.64.64,0,0,0,.47-.61,1.38,1.38,0,0,1,.33-.81.62.62,0,0,0,.32-.54c-.12-1,.94-1.49.11-2.51l.1.75a3.18,3.18,0,0,0,.16-.32.64.64,0,0,0-.23-.85c-.46-.3.13.2,0-.31,0-.16,0-.45-.06-.64a5.48,5.48,0,0,0-1.07-1.63,5.42,5.42,0,0,0-.55-.61,1.85,1.85,0,0,0-1.27-.71l.6.46L62,45.81a.62.62,0,0,0-.45-.45c-.34,0,.12.42,0,0a.66.66,0,0,0-.6-.47c-.23,0-.45,0-.68-.06l.61.47a1.37,1.37,0,0,0-1.34-1.28,1.86,1.86,0,0,1-1.27-.53.61.61,0,0,0-.61,0c-.18.1-.11,0-.4-.35a.62.62,0,0,0-.75-.11c-.53.38-.36.12-.91-.21a.62.62,0,0,0-.62,0l-.33.19.76.1c-.1-.1-.19-.21-.28-.31a.64.64,0,0,0-.89,0l-.32.26.75-.1a5.58,5.58,0,0,0-.75-.34.61.61,0,0,0-.6.16l-.31.28h.89c-.76-.68-1.32-.47-1.89.31l1-.13c-.11-.15-.22-.29-.34-.43a.62.62,0,0,0-.88,0c-.21.25-.57.2-.89.33-.74.29-.43,1.5.32,1.21s1,0,1.45-.66h-.88l.33.43c.28.36.78.16,1-.13s-.35-.28-.09,0a.64.64,0,0,0,.89,0c.28-.26-.1,0,.15.11a.63.63,0,0,0,.75-.1l.33-.27h-.89l.28.32a.64.64,0,0,0,.75.1,1.11,1.11,0,0,0,.64.35,1.37,1.37,0,0,0,1.21-.33l-.75-.1a4.21,4.21,0,0,0,.9.78.58.58,0,0,0,.61,0c.54-.31-.48-.07.1.18a4.29,4.29,0,0,0,.74.25c.46.12.88,0,1,.39a.62.62,0,0,0,.6.46c.23,0,.45,0,.68.06l-.61-.47.12.35a.62.62,0,0,0,.45.45c.32,0-.11-.4-.05,0a.65.65,0,0,0,.61.47c.44,0,1.29,1.46,1.45,1.82.34.8.07,1.36.93,1.92l-.23-.85-.17.31a.67.67,0,0,0,.1.76c.15.18-.22,0-.38.48-.08.21-.16,1.46.08.7-.2.64-.81.94-.82,1.79l.47-.6c-1,.33-1.13,1.23-1.49,1.81l-.47.32c-.27.18.38-.37-.14,0a2.57,2.57,0,0,0-1,1.07l.86-.23-.47-.2a.65.65,0,0,0-.75.1c-.1.09-1,.81-1.13.85.65-.25-.66-.34-1-.17s-.23.32-.37.41c-.36.25.21,0-.39.25a7.75,7.75,0,0,1-1.15.27.63.63,0,0,0-.47.6,3.08,3.08,0,0,0,.06.91l.44-.76-.48.2a.62.62,0,0,0-.32.54c0,.22-.43.66-.52.9-.19.54.39.26,0,.44a.63.63,0,0,0-.14,1l.34.41.14-1c-1,.56-.64.73-1.13,1.82-.17.39.37-.38-.18,0l-.45.38c-.18.17-.3.2-.44.44-.43.74.28.22-.08.28a.59.59,0,0,0-.45.44c0,.14,0,.28-.06.41l.77-.44-.45-.1a.63.63,0,0,0-.76.44c0,.12-.09.24-.13.35l.76-.44c-1-.29-1.51.26-2,1.08l.86-.23-.39-.17a.64.64,0,0,0-.86.24c-.16.35.13.09-.14,0a.61.61,0,0,0-.6.16c-.08.11-.17.21-.26.32h.89L49,65.78a.64.64,0,0,0-.88,0c-.1.11-.19.23-.29.33l1,.14-.28-.44a.67.67,0,0,0-.71-.3,1.42,1.42,0,0,0-.76.36l.85.23a4.15,4.15,0,0,1-.24-.34.64.64,0,0,0-.86-.23l-.34.18.75.1a3,3,0,0,0-.46-.48.65.65,0,0,0-.75-.1c-.56.24.53.26.13,0-.09-.06-.16-.31-.29-.39s-.86,0-1-.1-.12-.62-.27-.82a2.11,2.11,0,0,0-1.1-.63l.47.61c0-.12,0-.25,0-.37a.64.64,0,0,0-.47-.6l-.34-.14.45.76c0-.14.07-.28.11-.42a.64.64,0,0,0-.45-.76l-.37-.14.47.61c0-.12,0-.24,0-.36a.62.62,0,0,0-.47-.6s-.1-.31-.6-.59l.29.7a2.2,2.2,0,0,0-.77-2.49l.29.71a2.27,2.27,0,0,0,.05-.73c0-.57-.46.06-.19-.35a.65.65,0,0,0-.1-.75l-.24-.26.1.75c.35-.73.19-1.07-.39-1.63v.88l.38-.36a.63.63,0,0,0,.1-.75,2.06,2.06,0,0,0-.52-.69v.88c.56-.66.63-1.19-.06-1.79v.88c.09-.1.17-.21.25-.31a.66.66,0,0,0,.11-.75l-.22-.3-.1.75.24-.3a.67.67,0,0,0,.1-.75,2.7,2.7,0,0,0-.49-.75l-.13,1,.48-.28a.64.64,0,0,0,.13-1c-.16-.21-.18-.21,0,0,.11-.23.22-.47.32-.7a.63.63,0,0,0-.1-.75c-.32-.34-.37.26-.11.07a.67.67,0,0,0,.3-.7c-.07-.35-.22-.48.14-.6a.65.65,0,0,0,.47-.61c0-1-.13-.11.36-.86a1.79,1.79,0,0,0,.38-1.13L42.9,49A2.06,2.06,0,0,0,44.14,48c.13-.15.36-.45.5-.6.47-.52-.38.2.12-.15a10.28,10.28,0,0,0,1.3-1.05,2.91,2.91,0,0,1,.84-.48.63.63,0,0,0,.76-.44c.05-.14.09-.28.14-.42l-.77.45.37.09a.67.67,0,0,0,.71-.3c-.16.25.79-.32,1.14-.29a.61.61,0,0,0,.54-.32c.06-.15.13-.3.19-.44l-.85.23.38.27a.62.62,0,0,0,.62,0,9.23,9.23,0,0,0,1-.56l-.75.1.34.21C51.37,44.76,52,43.67,51.3,43.25Z" style="fill:#1c1b1f"/><path d="M56.05,71.3a4.54,4.54,0,0,0,3-.82,5.56,5.56,0,0,0,2.43-1.85l-1.15.88a2.32,2.32,0,0,0,1.31-.77c.33-.42.41-1.41,0-.39-.54.48-.52.57.07.25a2.51,2.51,0,0,0,.67-.44c.86-.62-.42.38.42-.42.47-.45.9-1,1.37-1.44-.73.71.15-.06.3-.26a5.38,5.38,0,0,0,.79-1.38L64,66a4,4,0,0,0,1.46-1c-.45.42-.09.26.1,0a4.51,4.51,0,0,0,.53-1l-1.16.89a2.88,2.88,0,0,0,2.18-2.72l-.55,1.33a8.22,8.22,0,0,0,.69-1.08c-.37.55-.34.55.12,0A2.46,2.46,0,0,0,68,60.6l-.55,1.32a4.22,4.22,0,0,0,1.08-1.26,5.4,5.4,0,0,0,.15-.88c-.21.84,0,.18.16-.27.72-2.3-2.91-3.25-3.63-.95a3.42,3.42,0,0,0-.27,1.4l1-1.63A3,3,0,0,0,64.23,61l.55-1.32a6.74,6.74,0,0,0-1,1.29c-.38.65.23-.62,0,.1-.1.28-.58.77-.39,1.12.34.63.35-1.13.79-1-.1,0-.54.19-.62.24a2.93,2.93,0,0,0-1.11,1.73L63.27,62a2.17,2.17,0,0,0-1.11,1.14l1.16-.89a3.08,3.08,0,0,0-1.16.61c-.15.15-.93,1.31-.31.53-.19.24-.56.56-.77.77.75-.74-.23.2-.4.37s-1,1.21-.34.42c-.23.26-1.41,1-.28.31-.88.58-1.33.79-1.67,1.87l1.33-1.33c-.71.2-1,.64-1.5,1,0,0,.61-.31.32-.42s-.72.29-.86.37-.4.37-.63.5c.48-.27.24-.19-.13,0a4.59,4.59,0,0,0-1.4.92l1.32-.54.16,0c-2.36-.34-3.34,3.28-1,3.63Z"/></svg>