<svg id="레이어_1" data-name="레이어 1" xmlns="http://www.w3.org/2000/svg" viewBox="0 0 128 128"><path d="M71.81,45.23c0,.09.29.08.33.17s0,.21,0,.3.2.11.24.2-.88.67-.83.76.76-.19.81-.1.23.09.28.17-.31.42-.26.51-.36.47-.3.55.19.12.25.2.79-.3.84-.22.49-.12.55,0-.9.92-.84,1-.22.44-.16.52.17.13.24.21.63-.26.7-.19.54-.2.6-.12-.59.78-.52.86.15.14.22.21,1.29-.92,1.36-.85-.09.35,0,.42-.2.46-.13.53,0,.31,0,.38.06.21.13.28.92-.64,1-.57-1.09,1.39-1,1.46.86-.6.94-.53.47-.21.54-.15-.47.78-.39.85.67-.42.75-.36-.53.86-.46.93.94-.72,1-.65.12.17.19.24-.64,1-.56,1,.79-.56.86-.5.41-.15.49-.08-.94,1.33-.87,1.39.74-.51.81-.44.47-.23.55-.17-.41.76-.33.82.59-.37.67-.3S78.9,55,79,55s.39-.14.47-.08.55-.33.63-.26-.27.61-.19.67.77-.58.84-.51.22,0,.29.11-.24.59-.16.65,0,.29.09.36.35-.1.42,0-.57,1-.49,1.06.71-.55.79-.48-.09.41,0,.48.8-.65.88-.59-.3.67-.23.74.75-.6.83-.53-.61,1.05-.53,1.12.65-.49.73-.42-.34.73-.27.8.65-.49.73-.43.27,0,.35.05.31-.07.38,0-.39.82-.32.88-.31.72-.23.78.13.16.21.22.44-.23.52-.17.74-.63.82-.57.34-.1.41,0-.5,1-.42,1l.25.17c.08.06.81-.73.89-.67s-.11.47,0,.53-.33.76-.25.82.74-.64.82-.58-.51,1-.43,1.06.8-.72.88-.66.3-.09.38,0-.81,1.42-.73,1.48.88-.84,1-.78-.6,1.15-.52,1.21.76-.7.84-.64-.17.57-.09.63-.06.42,0,.48.89-.88,1-.82-.49,1-.41,1.07.63-.52.71-.46.45-.28.53-.23.34-.13.42-.07.15.13.23.19-.57,1.13-.49,1.19.64-.55.73-.5-.59,1.17-.51,1.23.78-.75.86-.69-.23.67-.15.73S92,64,92.12,64s.43-.27.52-.21-.19.61-.11.67-.1.5,0,.56.3-.08.38,0-.26.72-.18.78.51-.39.59-.33.46-.32.55-.26.24,0,.33,0-.3.8-.22.85.4-.23.48-.17-.37.9-.29,1,1.1-1.27,1.18-1.21-.52,1.12-.43,1.18.27,0,.35,0,.63-.58.71-.53.11.21.19.26-.18.63-.1.69,0,.29.13.34.37-.19.45-.14-.31.85-.23.9.71-.72.8-.66.6-.56.68-.5-.27.77-.18.83.2,0,.28.1-.26.77-.17.82.12.18.2.24.06.28.14.33.19.08.27.14,1-1.26,1.14-1.21.13.16.22.21-.26.77-.17.82-.3.84-.22.89.55-.48.63-.42.63-.62.72-.57.1.2.19.26.07.25.15.31.33-.15.42-.1-.65,1.4-.56,1.45.53-.46.61-.41.45-.34.54-.29l.26.15c.08,0-.36,1-.28,1s.5-.42.59-.37-.16.63-.07.68.2,0,.29.1.5-.43.58-.37.09.24.17.29.72-.78.8-.72l.26.15a2.2,2.2,0,0,0,.26.15c.08,0-.29.84-.2.9s.52-.47.6-.42.28-.06.36,0,.06.29.14.34.24,0,.33,0-.22.74-.13.79.44-.34.52-.29.33-.15.42-.1.13.17.21.22-.15.64-.07.69-.11.56,0,.61,0,.45,0,.5.63-.66.72-.61-.21.72-.12.77.85-1,.94-1a2.36,2.36,0,0,0,.28.12c.08,0-.17.65-.08.71s-.05.47,0,.52.41-.3.5-.24,0,.3.13.35.4-.26.48-.21l.25.16c.09,0,.2.07.28.12s.12.19.21.24,0,.39.08.44.52-.47.6-.42-.07.51,0,.56.11.19.2.24.21,0,.29.1.54-.51.62-.46-.35,1-.26,1,.47-.41.56-.36-.25.81-.16.86.5-.46.59-.41.44-.35.53-.3-.51,1.25-.43,1.3,0,.44,0,.5.2.06.28.11.74-.85.83-.8,0,.32.13.37.45.45.41.54,0,.26,0,.35-.87-.22-.92-.14-.38,0-.43.11,1,.78,1,.87-.47,0-.52.06-.42,0-.47.08-.91-.28-1-.19,1,.8,1,.88-.08.19-.13.28.23.36.18.45-.93-.31-1-.23-.53-.09-.59,0,.63.61.58.7-1-.4-1.08-.32.82.75.76.83-.58-.13-.63,0-.46,0-.52,0,.79.74.73.83-1-.41-1-.33.08.29,0,.37,1,.94,1,1-1.53-.79-1.59-.71.85.82.79.9-.2.11-.25.19-.13.16-.18.24-.41,0-.47,0,.68.74.62.82-.85-.37-.9-.29-.65-.22-.7-.14,1,1,1,1.11-.52-.14-.58-.06-.7-.28-.76-.2.4.56.34.64-.42-.07-.48,0,.29.48.23.55-1-.51-1-.43.64.76.58.83.15.38.09.46-1-.56-1.07-.48.69.82.63.9.3.51.23.58-1.27-.78-1.33-.71.76.89.69,1-.69-.32-.75-.24.18.42.12.49-.25.06-.31.14-.59-.25-.66-.18.66.85.6.92-1.25-.83-1.32-.75.39.61.33.68-.53-.2-.6-.13.37.6.3.67.3.54.23.61-.4-.09-.47,0,0,.23-.12.3.18.45.11.52-1.31-1-1.37-.88.34.6.27.67-.5-.2-.57-.13-.2.08-.27.15.28.54.21.62-.21.07-.28.14-.45-.16-.52-.09.37.64.3.71-.3,0-.37.06-.32-.05-.4,0,.79,1.08.71,1.15-.28,0-.35.07-.56-.28-.63-.21.08.37,0,.44-.72-.47-.8-.4-.37-.1-.44,0,.71,1,.64,1.1-.94-.7-1-.63,0,.27-.09.34.46.79.38.85.21.52.13.59-.08.21-.15.28a2.15,2.15,0,0,0-.24.18c-.08.07-.38-.12-.46-.05s-1-.83-1.09-.77-.18.1-.26.17-.12.15-.2.22.88,1.29.81,1.36-1.23-1.09-1.31-1,.33.67.25.74.14.46.06.53-.35-.1-.43,0-.06.23-.14.29.34.71.26.77-.68-.49-.76-.42-.65-.47-.73-.4,0,.28-.1.34,0,.32-.07.38.31.68.23.75-.17.11-.24.17-.72-.56-.8-.49-.22,0-.3.11-.13.15-.21.21,0,.25-.13.31.51,1,.43,1-.18.09-.26.15-1.08-1-1.16-1,.86,1.4.78,1.46-.75-.61-.82-.55-.55-.38-.63-.32.16.53.08.59-.44-.24-.52-.18-.22,0-.3.11.14.5.07.57.5,1,.43,1.05-.34-.11-.42-.05-.07.23-.15.3-.09.21-.17.27-.21.06-.29.13-.8-.74-.88-.68.64,1.18.56,1.24-.8-.72-.88-.66-.12.17-.2.23-.06.26-.14.32.21.61.13.67-.91-.89-1-.83l-.25.17c-.08.06-.3-.08-.38,0s.5,1,.42,1.09,0,.4,0,.46-.94-1-1-.9.66,1.26.58,1.32-.73-.67-.82-.61,0,.38-.05.44-.63-.55-.72-.49S88.06,108,88,108s-.45-.29-.53-.24-.5-.34-.58-.29l-.25.17c-.08.06-.31-.09-.39,0s.56,1.14.48,1.19-.32-.09-.4,0-.41-.23-.49-.18-.34-.13-.42-.07-.2.06-.28.12-.33-.12-.42-.07-.28,0-.36,0,.76,1.45.67,1.51-.3-.09-.38,0-1.07-1.19-1.15-1.14.44,1,.36,1-.11.19-.2.25-.42-.27-.51-.21.45,1,.37,1.06-.41-.25-.5-.19,0,.35-.08.41-.27,0-.35,0-.74-.74-.83-.68.21.66.12.71-.09.23-.17.29-.53-.43-.61-.37-.31-.11-.4,0,.6,1.24.52,1.3-.42-.27-.51-.21.19.63.11.69-.69-.66-.77-.61-.11.2-.2.25a2.29,2.29,0,0,1-.27.14c-.08.06.08.47,0,.53s-.91-1-1-.93.76,1.49.68,1.55l-.26.16c-.08,0-.95-1.07-1-1s.56,1.21.48,1.27-.54-.45-.62-.4-.22,0-.31.09.27.76.19.82-.72.25-.81.3-.24-.73-.29-.81,0-.27,0-.35.69-.73.64-.81-1.24.62-1.3.54-.39,0-.45,0,.91-.88.85-1-.92.4-1,.32-.3,0-.36-.11,1.25-1.13,1.19-1.21-.25-.07-.31-.15-.37,0-.43-.06,0-.28,0-.36-.65.22-.71.13-.67.24-.73.16.52-.61.46-.7.22-.4.16-.48-.3,0-.36-.11-.25-.07-.31-.15l-.17-.25c-.05-.08.14-.34.08-.42s-.91.42-1,.34-.25-.07-.31-.15.82-.85.76-.93-1.1.57-1.16.49,1.09-1.06,1-1.14-.45.09-.51,0,.09-.32,0-.4-1.22.66-1.28.58.95-1,.89-1-.39,0-.45,0,.28-.45.22-.53.15-.37.09-.45-.76.33-.82.25-.07-.2-.13-.28-.18-.11-.24-.19-.12-.16-.18-.24.5-.64.44-.72-1.48.88-1.54.8.61-.72.55-.79-.74.31-.81.23-.33,0-.39-.07.16-.38.1-.46.12-.34.06-.41.42-.58.36-.66-.27,0-.33-.13.23-.43.17-.51-.18-.11-.24-.19-.81.37-.87.29.76-.84.7-.92-1,.55-1.09.47.15-.37.09-.45.07-.31,0-.39-.73.32-.79.24.35-.53.29-.61-.09-.18-.15-.26-.75.34-.81.26.24-.45.18-.53-.73.33-.79.25.79-.89.73-1-.74.33-.8.25.6-.73.54-.81-.87.44-.93.36.16-.39.1-.46-.42.07-.48,0,.73-.85.67-.93,0-.29,0-.37-.2-.1-.26-.18-.41.08-.47,0,0-.27-.06-.34-.32,0-.38-.07.29-.5.23-.58-1,.55-1,.47-.48.13-.54.06,1.12-1.2,1.06-1.27-.18-.12-.24-.19-1,.58-1.07.5-.23-.07-.29-.15-.44.11-.51,0-.16-.12-.22-.2,1-1.09.92-1.16.07-.33,0-.4-.27,0-.34-.11-.83.44-.89.36-.46.13-.53.06.56-.74.49-.81-.35,0-.41,0-.28,0-.35-.1-.46.13-.53.06.44-.64.38-.72-.57.23-.64.16-.29,0-.36-.09,1.2-1.3,1.13-1.37-.78.41-.85.34.21-.45.15-.52.13-.39.07-.47-.07-.2-.13-.28-1.19.77-1.25.7.78-1,.71-1-.7.35-.76.27-.61.27-.67.2.38-.61.31-.68-.69.34-.75.27.72-.91.65-1-1.07.68-1.13.6,1-1.14.91-1.21-1.22.82-1.28.74,1-1.14.91-1.21-.9.53-1,.46-.28,0-.35-.1.6-.8.53-.88-.06-.21-.13-.29-.69.36-.75.29-.3,0-.36-.08-.43.12-.5,0-.24,0-.3-.12.72-.94.66-1-.26,0-.33-.11.23-.48.16-.55-.52.2-.58.13.49-.73.43-.81-.51.2-.58.13-.87.53-.93.45.25-.51.19-.58-.06-.22-.13-.3.36-.6.29-.68-1.11.78-1.18.7.76-1,.69-1.06-1.22.88-1.29.81.31-.57.24-.64l-.19-.24c-.07-.07-.61.31-.68.24s.77-1,.7-1.08-1.06.74-1.13.66.07-.33,0-.41.87-1.11.8-1.18-.89.58-1,.5-.5.21-.57.14.95-1.2.88-1.27-.49.2-.56.12-.26,0-.33-.09-.72.42-.79.35.9-1.15.83-1.22-1,.64-1,.57-.19-.09-.26-.16-.39.1-.46,0,.6-.87.53-.94-.19-.09-.26-.16.25-.53.18-.6-1,.72-1.08.64.41-.68.34-.75-.61.32-.68.25.25-.53.18-.6.42-.7.34-.77-.88.6-.95.53-.47.19-.54.12-.23-.05-.3-.12l-.22-.21c-.07-.07,0-.25-.1-.32s.69-1,.61-1-.47.2-.54.13-.1-.19-.17-.26-.43.15-.5.09.49-.79.41-.86-.19-.09-.26-.16-.45.18-.53.11-.93.68-1,.61.71-1,.64-1.08-.2-.08-.27-.15-.06-.25-.13-.31-.07-.27-.14-.33-.57.46-.65.4.05-.47,0-.52.07-.74,0-.78-.3,0-.4-.08-.31.12-.42.1-.29.29-.39.27-.28.86-.39.86-.15-1.46-.26-1.46-.22.37-.33.38-.18.82-.29.83-.19.26-.29.26-.23-.53-.33-.53-.23-.81-.33-.81-.21-.1-.31-.09-.14,1.54-.24,1.55-.22-.45-.32-.44-.2.19-.3.2-.24-1.13-.34-1.13-.16,1.55-.26,1.56-.21-.23-.31-.23-.23-1.42-.33-1.42-.18,1.49-.28,1.49-.21-.6-.31-.6-.2.73-.3.73-.21-.08-.31-.08-.21.12-.31.12-.21-.05-.31-.05-.18-.84-.29-.84-.2.22-.3.22-.19-.43-.29-.43-.21.2-.31.2-.22.35-.33.34-.22.31-.32.3-.2-.06-.31-.07-.15-.58-.26-.58-.24.46-.34.45l-.31,0c-.1,0-.14-.63-.24-.64s-.13-.54-.23-.56-.41,1.57-.51,1.55-.14-.5-.24-.52-.1-.68-.2-.69-.15-.27-.25-.29-.19-.07-.29-.09-.41,1-.51,1,.07-1.29,0-1.31-.42,1-.52.94.08-1.17,0-1.2-.22.11-.32.08-.6,1.4-.7,1.37,0-.56-.15-.59-.15-.18-.25-.21,0-.66-.08-.69-.64,1.17-.74,1.14.3-1.37.21-1.4-.69,1.15-.78,1.12-.22,0-.31-.08-.18-.12-.28-.17-.1-.27-.2-.32.18-.83.09-.87-.49.51-.58.46.46-1.26.37-1.31-.29.14-.38.09-.37.24-.45.19.21-.71.13-.76-.12-.16-.21-.21S24.08,72.91,24,72.85s.71-1.36.63-1.42-.39.21-.47.15-.51.32-.59.26-.3,0-.38,0,.6-1,.53-1.08-.49.25-.56.19-.64.36-.71.29.45-.74.37-.81-.35.06-.41,0-.62.26-.68.19.08-.36,0-.44.2-.42.13-.5.55-.66.49-.74-.67.25-.73.17,0-.25,0-.33.26-.38.2-.47-.62.16-.67.07.36-.42.31-.51-.37,0-.42-.1-1.1.3-1.14.21,1.23-.78,1.19-.87-.93.17-1,.08-.44-.06-.47-.16,1.08-.59,1.05-.68-.63,0-.66-.11-.5-.07-.52-.17-.09-.21-.11-.3.57-.34.55-.43-.09-.19-.1-.29-.23-.17-.24-.27.21-.23.2-.33-.34-.18-.35-.28-.1-.2-.1-.3,0-.21,0-.32.67-.18.67-.28-.26-.21-.25-.31.15-.18.16-.28.59-.12.6-.22-.78-.3-.76-.4-.44-.29-.42-.39.3-.15.32-.25-.38-.32-.36-.41,1.3.14,1.33.05.28-.1.31-.2-.42-.34-.39-.43-.77-.51-.73-.6,1.18.27,1.22.18-.6-.48-.56-.57-.13-.3-.09-.39.3-.08.34-.17-.35-.44-.3-.53.41,0,.47-.08.13-.17.18-.25.94.41,1,.33.06-.18.12-.26-.1-.31,0-.39-.4-.59-.33-.67-.35-.61-.28-.68,1.25.91,1.32.84S22,56,22.11,55.89s.71.46.78.39-.24-.62-.16-.68.48.27.56.21-.26-.73-.17-.79.38.16.46.11l.3-.14c.08-.05,1.35.42,1.44.37-.08-.06-1.34.18-1.42.12s.63-1.11.55-1.17-.6.42-.68.36.42-.74.35-.81-.66.42-.73.34.4-.64.34-.72-.15-.1-.22-.17-.83.48-.9.4.52-.66.45-.74-.65.26-.71.18-.64.21-.7.13.52-.6.47-.68-.65.17-.7.08,1-.81.93-.9-.05-.17-.1-.26-1.7.67-1.74.58.69-.58.65-.67.33-.37.29-.46-1,.19-1,.1.58-.45.54-.55-.69,0-.73-.05-.36-.11-.39-.21.68-.43.65-.52a2.45,2.45,0,0,0-.08-.29c0-.1.24-.26.22-.36s.61-.33.59-.43-.79,0-.81-.13-.82-.07-.83-.17-.22-.19-.23-.29,1.06-.33,1.05-.43-.45-.16-.46-.26,1-.25,1-.35-.17-.17-.17-.27-.77-.19-.77-.29,0-.2.05-.3-.74-.25-.73-.35.4-.19.41-.29.42-.16.43-.26.39-.14.41-.24.14-.16.16-.26.07-.17.09-.27-1.05-.45-1-.55,1.44.18,1.47.09-1.64-.7-1.61-.8.48-.07.51-.16.43-.07.47-.16-.33-.36-.29-.45.09-.2.13-.29.58,0,.62,0-.37-.43-.32-.52,1,.34,1,.25,0-.21.06-.3-.69-.68-.63-.77.08-.2.13-.29,1.2.65,1.26.57-.57-.7-.51-.77.55.2.62.13.22,0,.28-.13.38.12.45,0-.79-1.07-.72-1.14,0-.36,0-.43.58.34.65.27,0-.32.08-.39.73.62.81.55.25,0,.33,0-.68-1.3-.6-1.36.6.53.68.47-.22-.74-.13-.79.51.46.59.41.5.49.58.45.08-.25.17-.29.06-.32.15-.36-.28-1.12-.19-1.16.51.68.61.64.28.18.37.14-.17-1.08-.08-1.11.65,1.31.75,1.28.05-.49.14-.52.08-.46.18-.49.15-.24.25-.26.33.54.42.52.16-.25.26-.27.31.73.41.72.13-.44.22-.45.11-.9.21-.91.2-.32.3-.33.28,1.64.38,1.64.17-.91.27-.91.19.9.29.9.17,0,.27,0,.24-.76.34-.75.24-.36.34-.35.14.47.24.49.26-.35.36-.33,0,1.05.09,1.07.43-1,.52-1,.31-.31.4-.28-.4.32-.3.35.4.17.37.08.09-.24.06-.33-1,.07-1.07,0,1.22-.51,1.2-.6-1.45.08-1.47,0,1.06-.4,1-.5-.53-.13-.54-.23.37-.24.36-.35-.46-.17-.47-.27.81-.23.8-.33-1.24-.2-1.24-.3,1.44-.17,1.44-.27.15-.17.16-.27-1.58-.34-1.57-.44,1.64,0,1.65-.12-1.36-.39-1.34-.49.86-.06.88-.16.19-.16.21-.25-.87-.41-.84-.51.74,0,.77-.12-.25-.28-.22-.37.37-.09.4-.19.31-.1.35-.19-.34-.33-.3-.43-.65-.49-.61-.59,1,.23,1.07.14-.83-.63-.79-.72.84.2.89.11-.52-.52-.47-.61.78.22.84.13-.46-.52-.4-.61,1.16.54,1.22.45.06-.17.12-.25-.21-.39-.15-.47-.44-.61-.38-.68.41.07.48,0,.11-.17.17-.25.13-.15.2-.23-.17-.46-.09-.53.64.38.71.31.42.19.5.12.23,0,.31-.06-.18-.53-.1-.59-.2-.61-.11-.67.52.4.6.35-.47-1.14-.38-1.19,1,1.24,1.06,1.19-.26-.88-.18-.93-.1-.71,0-.76.34.21.43.17.76,1.3.86,1.26-.08-.71,0-.75.28.25.38.22.08-.38.18-.41.36.65.46.62-.22-1.83-.12-1.85.42,1,.51,1,.24.25.34.24.09-.86.19-.87.19-.35.29-.36.28,1.17.38,1.17.18-.92.28-.92.21-.24.32-.24.16,1.49.26,1.49.29-1.63.39-1.63.11,1.22.21,1.23.31-.91.41-.9l.32,0c.1,0,0,.93.14.95l.29.07c.1,0,.24-.18.34-.15s.35-.52.45-.5-.2,1.37-.1,1.4.43-.73.53-.7,0,.45.14.48,0,.45.12.49.3-.25.39-.21,0,.42.11.47.36-.34.45-.3.66-.82.75-.78-.4,1.15-.31,1.2.64-.71.73-.66-.19.69-.11.74.38-.21.46-.15.08.24.16.3.22,0,.3.1.31-.06.38,0,.63-.41.71-.34-.52.9-.45,1-.32.61-.25.68S51,26,51,26.07s-.82,1.05-.75,1.12.7-.35.77-.27.09.19.15.27-.37.53-.31.61-.28.43-.23.51,1.3-.63,1.36-.54-.89.78-.84.87,1-.38,1.1-.29-.47.49-.43.58.52,0,.56.06-.2,1.25-.16,1.34c0-.09-.58-1.48-.54-1.56s.18-.18.23-.26.25-.12.3-.2.43,0,.49,0-.2-.42-.14-.5.3,0,.37-.11.8.45.86.38-.58-.85-.51-.92,0-.39,0-.45.15-.19.22-.25.91.82,1,.76-.21-.63-.12-.68,0-.35.11-.4.35.16.43.11.51.53.6.48.28.17.37.13.13-.12.22-.16-.19-1-.1-1,.29.21.39.17l.28-.07c.1,0,0-.78.09-.81s.6,1.53.69,1.51-.11-1.36,0-1.38.31.54.41.52,0-1,.14-1,.24.11.34.1.27.67.37.66S59,25,59.05,25s.22.6.32.6.19-.78.29-.78.18.81.28.81.17.16.27.17.17.12.27.14.33-1.07.42-1.05.29-.4.38-.38.08.76.18.78.18.11.28.13,0,.57.14.6.29-.31.39-.28.1.28.2.32.28-.22.37-.18.1.28.19.32.56-.75.65-.71-.12.71,0,.76.62-.7.71-.65,0,.4.1.45-.32.9-.24.95,0,.32.1.37.59-.5.67-.44.53-.35.61-.29-.67,1.16-.59,1.23,0,.28.07.34.47-.25.55-.19-.24.53-.17.6,1.41-1.14,1.48-1.07-1,1.27-1,1.34.92-.56,1-.49-.34.56-.28.64-.1.33,0,.41.57-.2.63-.12.53-.14.59-.06-.27.44-.21.52.51-.1.57,0-.83.77-.77.85.07.18.12.26l.15.24c.05.09.3.06.35.14s.62-.11.67,0-.2.33-.16.42.52,0,.56.06.11.18.15.27-.3.36-.26.45-.29.33-.26.43,0,.21,0,.3.45,0,.49.13,1.13-.17,1.16-.08-.36.35-.33.44-.64.42-.61.51,1-.07,1,0-1.34.58-1.32.68,1.24-.12,1.26,0-.75.39-.73.49,0,.21,0,.3.46.11.48.21-.14.23-.12.33-.1.22-.09.31.3.16.31.26-.53.27-.51.37.09.18.1.28,1.43,0,1.44.15-1.73.36-1.72.46,1,.11,1,.21.28.19.28.29.16.19.16.29-1.15.27-1.15.37.85.15.85.25.27.18.27.28,0,.2,0,.3-.19.21-.18.31.47.17.47.27-.07.2-.06.3-1.24.29-1.24.39.39.17.4.27.12.19.13.29.08.2.09.3-.1.21-.09.31.91.07.92.17-1.43.43-1.41.53,1,0,1,.12-.84.39-.82.48-.11.26-.09.35.09.21.11.31,1.1-.11,1.13,0,0,.2,0,.3.55,0,.59.09S71.78,45.14,71.81,45.23Z" style="fill:#fff"/><path d="M31.34,50.46l.41.07a3.1,3.1,0,0,0,1.34-.11,3.92,3.92,0,0,0,2-1.29,4.33,4.33,0,0,0,.66-3c-.08-1.08-.33-1-.78-2a.39.39,0,0,0-.24-.22,5.87,5.87,0,0,0-2.22-1c-.21,0-1.13.15-.93.18a1.74,1.74,0,0,0-.8.06,4,4,0,0,0-1.06.76s.09-.12-.15.1a3.11,3.11,0,0,0-.62.58,4.34,4.34,0,0,0-.64,2.52c.18,1.75,1.15,3.13,3,3.22C31.71,50.38,30.86,50.32,31.34,50.46Z" style="fill:#f2c5cb"/><path d="M43.43,39a2.05,2.05,0,0,0,.48-.1s.27.08.43.06a4.27,4.27,0,0,0,1.73-.71,3.93,3.93,0,0,0,1.25-3.08,1.77,1.77,0,0,0-.24-1.2,10.09,10.09,0,0,0-.5-1c0-.08-.15-.13-.2-.2l0-.07v0a.45.45,0,0,0-.37-.37c-.54-.12-.9-.53-1.47-.61a.39.39,0,0,0-.15,0,1.88,1.88,0,0,0-.49-.16,3.94,3.94,0,0,0-.61.06,5.46,5.46,0,0,0-.83.19A3.58,3.58,0,0,0,40.66,33a3.76,3.76,0,0,0-.92,2.74c.06.38.28.75.36,1.11s.5.64.71,1.14a.44.44,0,0,0,.14.18A3.3,3.3,0,0,0,43.43,39Zm.83-7.32H44.2C44.07,31.66,44.16,31.67,44.26,31.69Z" style="fill:#f2c5cb"/><path d="M33.34,60h0a.46.46,0,0,0-.24-.12c-.44-.08-.53-.45-.85-.64a2,2,0,0,0-.7-.18c-.31-.06-.19,0-.2,0a2.89,2.89,0,0,0-2,.14c-.3.1.23-.12-.18,0a3.78,3.78,0,0,0-.69.26,5.24,5.24,0,0,0-1,1,3.93,3.93,0,0,0-.71,2.93,3.23,3.23,0,0,0,.85,1.77c.37.46.55.43,1,.69-.28-.16,0,.16.08.21a4,4,0,0,0,.48.09,3.83,3.83,0,0,0,4.4-1.3,4.19,4.19,0,0,0,.63-1.78,2.83,2.83,0,0,0,.09-.65c0-.26-.08-.31-.08-.26A3.25,3.25,0,0,0,33.34,60Z" style="fill:#f2c5cb"/><path d="M61.75,31.93c-.1-.07-.24-.14-.33-.21l-.05,0,0,0a.47.47,0,0,0-.47-.25c-.56,0-1-.22-1.59-.16a.89.89,0,0,0-.19.07.94.94,0,0,0-.35,0,4.37,4.37,0,0,0-.68.35c-.34.13.22-.17-.12,0a3.67,3.67,0,0,0-2.2,4c.09.91.6,1.23,1,2a.37.37,0,0,0,.07.12.4.4,0,0,0,.15.14,3.81,3.81,0,0,0,3.06.87,3.48,3.48,0,0,0,2.43-1.2,4,4,0,0,0,.68-3.56c-.15-.64,0-.71-.52-1.22A6.7,6.7,0,0,0,61.75,31.93Z" style="fill:#f2c5cb"/><path d="M59.29,46.46h0a.55.55,0,0,0-.51-.37l-.16,0a1.17,1.17,0,0,0-1.08-.74,1.74,1.74,0,0,1-1.12-.48.52.52,0,0,0-.54,0c-.16.09-.1,0-.35-.31a.58.58,0,0,0-.67-.09c-.46.33-.31.11-.8-.19a.52.52,0,0,0-.44,0,.56.56,0,0,0-.72,0l-.32-.14a.54.54,0,0,0-.47.1.72.72,0,0,0-.67,0,.55.55,0,0,0-.75,0,.82.82,0,0,1-.56.23L50,44.41a.56.56,0,0,0-.66.09c-.32.25-.29.16-.41.08a.55.55,0,0,0-.75.2l0,.08-.08,0c-.24.13-.52.16-.75.26a3.32,3.32,0,0,0-.52.22.57.57,0,0,0-.59.27.51.51,0,0,0-.38.16,2.58,2.58,0,0,1-.7.36.53.53,0,0,0-.39.39c-.14.43-.91.53-1.2,1a.92.92,0,0,0-.09.25l-.09.1c-.2.23-.5.63-.75.68a.55.55,0,0,0-.41.53c0,.36-.4.33-.53.63a1.53,1.53,0,0,0-.13.79A1.2,1.2,0,0,0,41,51.85a.8.8,0,0,0-.07,1.08,1.67,1.67,0,0,0-.22,1,.55.55,0,0,0-.1.86l.08.11a.54.54,0,0,0,0,.56.53.53,0,0,0,.07.68l0,0a.56.56,0,0,0,0,.77l0,0a.55.55,0,0,0,0,.78c.19.19.29-.15.17.11a.57.57,0,0,0,0,.54h0a.57.57,0,0,0,0,.55c.06.09.17.21.24.32v0a.56.56,0,0,0,.26.61s.29.63.16,1a.54.54,0,0,0,.26.62c.18.05.2.09.07.1a.56.56,0,0,0,.31.36.52.52,0,0,0,.22.38,4,4,0,0,0,.72,1c.62.19.12,0,.41.49a1.39,1.39,0,0,0,1,.81.7.7,0,0,0,.29,0,.51.51,0,0,0,.15.25.91.91,0,0,0,.76.16,1.46,1.46,0,0,1,.16.19.53.53,0,0,0,.54.13.49.49,0,0,0,.64.09l.07-.05a.56.56,0,0,0,.77.16.53.53,0,0,0,.64-.09l.06-.09.36,0a.53.53,0,0,0,.44-.23A.54.54,0,0,0,50,65c.16-.26.24-.53.55-.44a.52.52,0,0,0,.57-.21.55.55,0,0,0,.61-.4v0a.54.54,0,0,0,.35-.38,1.08,1.08,0,0,0,0-.25s.1,0,.28-.15.26-.32.53-.43a.54.54,0,0,0,.28-.48,1.94,1.94,0,0,1,.46-1,.54.54,0,0,0,.18-.77c.06-.15.05-.33.15-.64.05-.13.49-.77.26-.68a.57.57,0,0,0,.39-.67v-.06a3.46,3.46,0,0,0,1-.29c.19-.1.39-.38.52-.44l.06,0,.33.14a.55.55,0,0,0,.53-.14,3.64,3.64,0,0,1,.81-.63l0,0a.55.55,0,0,0,.75-.21c.14-.26.12-.4.38-.38a.52.52,0,0,0,.48-.28l0,0s0,0,.12-.07a3.28,3.28,0,0,0,.54-.64c.16-.29.25-.8.48-.88a.56.56,0,0,0,.41-.53,1.24,1.24,0,0,1,.3-.72.56.56,0,0,0,.28-.48c-.09-.78.55-1.18.32-1.82h0a.57.57,0,0,0-.21-.75l-.11-.07c.06,0,.14,0,.07-.21s0-.39-.06-.56A4.84,4.84,0,0,0,60.82,48a4.74,4.74,0,0,0-.49-.54,2.53,2.53,0,0,0-.63-.5v-.07A.55.55,0,0,0,59.29,46.46Zm-15.88,1.4a.2.2,0,0,1,0,.08C43.31,48,43.37,47.94,43.41,47.86Z" style="fill:#f2c5cb"/><path d="M55.1,71.89a4.57,4.57,0,0,0,3-.83,5.55,5.55,0,0,0,2.43-1.85l-1.16.89a2.3,2.3,0,0,0,1.31-.78c.33-.42.42-1.4,0-.39-.54.49-.52.57.07.25a2.22,2.22,0,0,0,.67-.44c.86-.61-.43.39.42-.42.47-.45.9-1,1.37-1.43-.74.7.14-.06.29-.27a5.2,5.2,0,0,0,.79-1.37L63,66.59a4.07,4.07,0,0,0,1.47-1c-.45.41-.09.25.1,0a5.14,5.14,0,0,0,.52-1L64,65.45a2.89,2.89,0,0,0,2.17-2.72l-.55,1.32A7.21,7.21,0,0,0,66.26,63c-.36.55-.33.55.12,0a2.46,2.46,0,0,0,.64-1.8l-.55,1.33a4.58,4.58,0,0,0,1.09-1.27,5.37,5.37,0,0,0,.14-.88c-.2.84,0,.18.16-.26.72-2.31-2.91-3.26-3.63-1A3.55,3.55,0,0,0,64,60.54l.95-1.63a3,3,0,0,0-1.63,2.63l.55-1.33a7.36,7.36,0,0,0-1,1.29c-.39.66.23-.62,0,.1-.11.28-.59.78-.4,1.13.34.63.35-1.14.8-1-.11,0-.55.19-.62.24a3,3,0,0,0-1.11,1.74l.89-1.16a2.13,2.13,0,0,0-1.11,1.14l1.15-.88a3.09,3.09,0,0,0-1.16.61c-.15.15-.93,1.3-.3.52a8.2,8.2,0,0,1-.78.78c.76-.75-.22.2-.39.36s-1,1.22-.34.42c-.23.27-1.41,1-.29.32-.88.58-1.32.78-1.67,1.87l1.34-1.34c-.72.21-1,.64-1.5,1.05,0,0,.6-.31.31-.41s-.71.28-.86.37-.39.37-.62.5c.48-.27.24-.2-.13,0a4.67,4.67,0,0,0-1.41.93l1.33-.55.16,0c-2.36-.35-3.35,3.28-1,3.63Z" style="fill:#1c1b1f"/><path d="M76.56,51.9s-11.33,12.53.66,23.38c0,0,17.32,11.13,35.43,4.94l2.06-1.55Z" style="fill:#ffc200"/><path d="M18.72,44s-3.25-3.12-2.09-4.28a8.16,8.16,0,0,1,4.93.08Z" style="fill:#1c1b1f"/><path d="M39.76,22.91s-3.12-3.25-4.29-2.09a8.2,8.2,0,0,0,.09,4.93Z" style="fill:#1c1b1f"/><path d="M61.29,24.19s-1-4.39-2.62-4a8.14,8.14,0,0,0-2.44,4.27Z" style="fill:#1c1b1f"/><path d="M18.25,67.23s-4.4-1-4-2.61a8.2,8.2,0,0,1,4.27-2.45Z" style="fill:#1c1b1f"/><path d="M63.29,95c.05.07,6.52-1.36,7-1.4,5.1-.39,10.55,1.11,14,5.11,2.95,3.47,3.65,7.87.88,11.71l-7.25,4.9Z" style="fill:#1c1b1f"/><path d="M77.53,113.46c-.26-.09-.53-.12-.79-.21l.89.89a2.07,2.07,0,0,0-1-1.24l.47,1.71c.18-.31.5-.53.69-.85a1.27,1.27,0,0,0-1.4-1.83c-1.09.14.12.28-.14.14l.47,1.71c.15-.37.31-.72.48-1.07a1.31,1.31,0,0,0-.47-1.71c-.77-.59-1.38-.14-2.23-.12l1.09,1.87A10.18,10.18,0,0,0,76.76,111a1.22,1.22,0,0,0-.33-1.2c-.77-.76-1.44-.49-2.39-.38l1.08,1.86c.15-.29.43-.49.58-.79a1.29,1.29,0,0,0-.2-1.5l-.19-.23a1.26,1.26,0,0,0-1.2-.33c-.51.12-.92.55-1.41.66l1.52,1.53a4.58,4.58,0,0,0,.16-2.23,1.28,1.28,0,0,0-1.53-.9c-.36.08-.67.32-1,.4l1.4,1.83c.27-.48.91-.75,1.2-1.25A1.27,1.27,0,0,0,73,106.63a9.88,9.88,0,0,1-1.21.35l1.08,1.87c.13-.28.39-.47.52-.76A1.27,1.27,0,0,0,72,106.26c-.27,0-.51.17-.78.21l1.41,1.83c.15-.3.43-.51.58-.81a1.27,1.27,0,0,0-1.4-1.83c-.39.07-.71.37-1.09.44l1.41.59-.15-.27v1.24c.17-.34.55-.56.72-.91a1.27,1.27,0,0,0-1.41-1.83,5.18,5.18,0,0,1-1.08.27l1.09,1.87c.25-.45.8-.72,1.07-1.19a1.27,1.27,0,0,0-1.41-1.82c-.39,0-.69.24-1.1.28l1.09,1.86c.13-.26.33-.46.46-.72.39-.75-.09-2-1.08-1.87-.24,0-.49.13-.7.16l1.08,1.86c.17-.34.56-.57.73-.93a1.27,1.27,0,0,0-1.09-1.87,10.12,10.12,0,0,0-1.12.11l1.21,1.57c.07-.2.22-.4.3-.61.36-1-.69-1.68-1.52-1.53a1.19,1.19,0,0,0-.46.15c-.46.16-.39.2.22.12l.59,1.4a2.86,2.86,0,0,0,.3-1.27,1.27,1.27,0,0,0-.93-1.21l-.42,0,.77,1.82c.18-.33.5-.57.68-.91a1.27,1.27,0,0,0-1.41-1.82c-.3,0-.55.24-.85.28l1.52,1.53.1-.46a1.26,1.26,0,0,0-1.52-1.53c-.34.08-.62.3-1,.38l1.41,1.82c.09-.23.25-.42.35-.66a1.27,1.27,0,0,0-1.4-1.82c-.32.05-.59.26-.9.32l1.4,1.83c.17-.36.56-.59.73-1A1.27,1.27,0,0,0,67,99.49c-.28.06-.52.19-.79.25l1.41,1.82c.11-.25.29-.45.41-.71A1.27,1.27,0,0,0,66.64,99c-.75.16,0,.22-.84,0l.89,1.53c.4-1,1.31-1.45.58-2.66a1.22,1.22,0,0,0-1.09-.63,4.2,4.2,0,0,0-1,.11,6.46,6.46,0,0,0-.6.27c.35,0,.37,0,.08,0l.77,1.83c.16-.33.45-.56.61-.89a1.28,1.28,0,0,0-.2-1.5l-.2-.23a1.24,1.24,0,0,0-1.2-.32c-.35.09-.65.33-1,.42L65,98.52a5.94,5.94,0,0,1,.43-.92A1.27,1.27,0,0,0,64,95.77c-.32.07-.59.29-.9.36L64.49,98c.17-.34.47-.58.63-.92a1.26,1.26,0,0,0-1.4-1.82,1.74,1.74,0,0,0-.63.25c-.31.21.3.17-.1.1l.77,1.82c.24-.46.78-.75,1-1.23a1.26,1.26,0,0,0-1.4-1.83c-.4.1-.71.43-1.09.52l1.4,1.83c.18-.39.58-.64.76-1a1.26,1.26,0,0,0-1.4-1.83c-.34.08-.62.32-.95.4l1.53,1.53c.09-.36.24-.67.31-1a1.26,1.26,0,0,0-1.53-1.52c-.4.1-.72.44-1.1.54l1.4,1.83c.16-.34.46-.59.63-.93a1.27,1.27,0,0,0-1.41-1.82,4.19,4.19,0,0,1-1.44.28l1.08.63-.18-.24v1.24c.17-.38.56-.64.73-1a1.26,1.26,0,0,0-1.4-1.82c-.28.07-.53.22-.8.29L61.32,94c.18-.39.57-.65.75-1a1.27,1.27,0,0,0-1.4-1.83c-.35.1-.64.35-1,.44l1.52,1.53c.08-.22.23-.43.31-.66A1.26,1.26,0,0,0,60,90.9a10.21,10.21,0,0,1-1.34.37l1.53,1.52c.1-.37.28-.75.39-1.13a1.27,1.27,0,0,0-.89-1.53l-.37-.08.89,1.53c.09-.23.25-.46.35-.7.36-1-.71-1.65-1.53-1.53a3.35,3.35,0,0,0-.64.17c-.64.22.43.26,0,.1l.47,1.71c.11-.27.29-.49.4-.76.32-.77-.05-2-1.09-1.87l-.5,0,1.21,1.57c.1-.28.38-.54.5-.85a1.26,1.26,0,0,0-1.53-1.53c-.52.19-.92.69-1.4.86l1.4,1.82c.15-.37.53-.63.68-1a1.27,1.27,0,0,0-.77-1.83c-.75-.22-1.06,0-1.77.22l1.4.59c.42,1,.27-.54.21-1a1.24,1.24,0,0,0-1.21-.93H56l1.21,1.57c.08-.26.33-.51.42-.8a1.25,1.25,0,0,0-1.52-1.52c-.59.17-1.09.56-1.69.73l1.53,1.52c.09-.24.27-.48.37-.74a1.28,1.28,0,0,0-.6-1.4l-.25-.18.6,1.4c.36-1,.53-2-.41-2.76a1.26,1.26,0,0,0-1.2-.33c-.51.19-.89.69-1.35.86l1.4.59c.4.62,0,.38.35-.11a2.57,2.57,0,0,0,.37-.74,1.27,1.27,0,0,0-1.53-1.53c-.53.13-1,.48-1.51.6l1.4.59a3,3,0,0,1-.08-.32,1.28,1.28,0,0,0-1.21-.94h-.42l1.21,1.56c.16-.39.68-.77.86-1.23.37-.92-.7-1.72-1.52-1.53-.43.1-.83.27-1.26.37l1.2.33-.22-.21.33,1.2c.1-.29.37-.56.49-.88.33-.94-.69-1.7-1.53-1.53-.22,0-.42.16-.64.21L52.3,83c.05-.21.17-.41.23-.63a1.29,1.29,0,0,0-.6-1.4c-.73-.48-1.08-.24-1.83-.08l1.52.89-.09-.33A1.27,1.27,0,0,0,50,80.54c-.34.12-.62.38-.93.49l1.2.33a5.66,5.66,0,0,0-.43-.42l.33,1.2c.08-.27.31-.52.39-.8A1.26,1.26,0,0,0,49,79.81a1.74,1.74,0,0,0-.5.17c.34,0,.38,0,.11,0l.89.9c-.13-.82-.5-1.08-1.25-1.38L49.18,81c.08-.24.22-.47.3-.72A1.27,1.27,0,0,0,48,78.77a2.24,2.24,0,0,1-.67.11l1.09.63c0,.61,0,.68.14.21a3.59,3.59,0,0,1,.12-.47,8,8,0,0,0,.17-1.09A1.25,1.25,0,0,0,47.24,77c-.3.08-.55.32-.83.4l1.53,1.53c.07-.24.21-.47.28-.71.24-.84-.64-1.87-1.53-1.53a2.69,2.69,0,0,0-.57.27c-.62.45-.33,0,.15.37l.6,1.41c.09-.4.24-.75.3-1.17A1.26,1.26,0,0,0,45.65,76l-.54.11,1.53.89,0-.37a1.27,1.27,0,0,0-1.53-.89l-.5.09,1.2.32c-.75-.77-.22.17-.22-.19a1.27,1.27,0,0,0-1.87-1.09c-.23.09-.4.24-.62.34l1.87,1.09a1.71,1.71,0,0,0-1.07-2c-1-.35-1.36.24-2,.82l2.1.57c-.06-.32,0-.68,0-1a1.25,1.25,0,0,0-2.09-.57c-.15.16-.25.37-.39.52l2.1.57c-.11-.27-.13-.55-.23-.82a1.27,1.27,0,0,0-2.3-.3c-.24.35-.41.77-.62,1.14H42.6c-.43-.9-.29-2-1.59-2.27-1.52-.27-1.54,1.09-1.93,2l1.83-.77L40.6,74a1.27,1.27,0,0,0-1.71.47c-.41.68.12.18-.11.31l1.71.47a6,6,0,0,0-.85-1.41,1.26,1.26,0,0,0-2,.26c-.17.39-.12.89-.27,1.24l2-.27a8,8,0,0,1-.74-1.39,1.27,1.27,0,0,0-2.18,0c-.17.39-.12.88-.29,1.23l1.09-.63a1.8,1.8,0,0,0-1.49.76l2,.26c-.24-.45-.32-1-.6-1.42a1.26,1.26,0,0,0-2.17,0c-.13.26-.19.56-.32.82h2.17c-.13-.31-.12-.72-.27-1.06a1.26,1.26,0,0,0-2.17,0c-.17.33-.18.73-.34,1h2.18c-.18-.34-.35-.66-.56-1a1.27,1.27,0,0,0-2.18,0c-.17.32-.19.7-.36,1l2.3.3c-.13-.34-.1-.7-.23-1a1.27,1.27,0,0,0-1.83-.77c-.92.57-.74,1.14-1.2,2l2.29.3c-.18-.51.06-1.15-.13-1.68a1.27,1.27,0,0,0-2.3-.3c-.22.32-.21.76-.42,1.08l1.7-.47a6.21,6.21,0,0,0-.59-.26c.37.43.45.48.22.16a1.26,1.26,0,0,0-2.17,0c-.2.27-.25.61-.46.88l2.3.3c-.18-.5-.14-1.07-.33-1.58a1.27,1.27,0,0,0-2.3-.3c-.29.38-.29,1-.57,1.32l2.29.3c-.16-.43-.21-.85-.33-1.29a1.26,1.26,0,0,0-2.09-.57c-.17.17-.28.38-.45.55l2,.26c-.07-.14-.14-.28-.2-.42a1.27,1.27,0,0,0-2-.27l-.42.4,2.09.57c0-.34.07-.74,0-1.1-.12-1-1.49-1.18-2.09-.57-.27.27-.38.65-.7.83l1.86,1.09c0-.38.12-.75.09-1.14a1.26,1.26,0,0,0-2.13-.88,13.07,13.07,0,0,1-1.13,1.23l2.13.88c0-.47.3-1,.28-1.44a1.27,1.27,0,0,0-2.14-.88c-.3.24-.43.66-.73.89l2.14.89c0-.27,0-.51,0-.78A1.26,1.26,0,0,0,26,72.13l-.44.22,1.5.2c-.25-.32.26,1,.18,0-.07-.85-1-1.68-1.87-1.09-.29.2-.5.55-.77.74l1.87,1.09c0-.43.43-.91.48-1.39a1.26,1.26,0,0,0-1.87-1.09c-.22.12-.39.3-.61.42l1.87,1.09c0-.2,0-.4,0-.6a1.26,1.26,0,0,0-1.87-1.08,9.94,9.94,0,0,1-.89.53l1.57,1.21c0-.16,0-.31,0-.47a1.29,1.29,0,0,0-.93-1.21,2.39,2.39,0,0,0-1.45,0l1.52,1.53c.15-.48.63-.87.79-1.38a1.26,1.26,0,0,0-1.53-1.53c-.22.07-.43.22-.64.29l1.53,1.52a2.18,2.18,0,0,0-.14-1.75,1.26,1.26,0,0,0-1.4-.59c-.21,0-.4.14-.61.18l1.41.59c0,.49.06.54.12.16a1.26,1.26,0,0,0-1.52-1.53c-.25,0-.47.17-.72.22l1.56,1.21a4.66,4.66,0,0,1,0-.75c.09-.87-.86-1.34-1.57-1.21-.43.07-.79.39-1.22.46L22,69.32c0-.32-.18.42.16-.31a1.26,1.26,0,0,0-.77-1.83l-.42-.11.77,1.82a4.42,4.42,0,0,0,.74-1A1.27,1.27,0,0,0,21.36,66c-.41,0-.81.24-1.21.23L21,68.35c.25-.29.67-.4.92-.7a1.27,1.27,0,0,0-.26-2c-.24-.17-1.58-.68-1.77-.4.54.49.59.87.16,1.15.22-.08.44-.15.66-.24a1.7,1.7,0,0,0,.78-.54,1.84,1.84,0,0,0-.15-2.18c-.59-.6-1.4-.26-2.09-.52l.3,2.3c.45-.22,1.08-.13,1.57-.36a1.26,1.26,0,0,0,0-2.18A8,8,0,0,1,20,62.12l.27,2,.32-.29a1.21,1.21,0,0,0,.32-1.2c-.28-.89-.68-1-1.38-1.48l-.3,2.3c.53-.18,1.1-.2,1.63-.35a1.28,1.28,0,0,0,.77-1.83,4.11,4.11,0,0,0-1.09-1.39l.32,1.2.11-.3-.89.9c1-.19,1.79-.11,2.08-1.41S21.65,58.75,21,58l.21,1.5.18-.26-1.09.63c.44,0,.92.41,1.41.45a1.26,1.26,0,0,0,1.09-1.87c-.32-.44-.92-.68-1.21-1.07l-1.09,1.86c.52.05,1.07.32,1.61.35a1.26,1.26,0,0,0,1.09-1.86L23,57.19l-1.09,1.87a1.91,1.91,0,0,0,1.4-.26,1.27,1.27,0,0,0,.59-1.4c-.17-.55-.52-1-.72-1.48L22,57.48l.42,0a1.25,1.25,0,0,0,1.09-.63c.09-.34.14-.43.14-.29H22.41c.31.18.54.49.86.67A1.27,1.27,0,0,0,25.1,55.8c-.08-.43-.4-.8-.47-1.24L22.81,56c.28.18.5.51.8.7a1.26,1.26,0,0,0,1.5-.21l.27-.27a1.26,1.26,0,0,0-.56-2.09,2,2,0,0,0-1.63.15l1.53,1.52c.1-.39.44-.71.55-1.12a1.27,1.27,0,0,0-.32-1.2c.13.57.17.68.13.32-.07-.71-.75-1.53-1.57-1.21-.37.14-.76.52-1.14.52l1.09,1.86c.18-.39.59-.66.78-1.06a1.27,1.27,0,0,0-1.41-1.83c-.45.13-.81.5-1.25.63L23,54.5c.14-.3.41-.51.56-.81.3-.64.09-1.72-.77-1.83l-.43-.06.77,1.83c.14-.24.34-.44.49-.68a1.27,1.27,0,0,0-1.41-1.83c-.53.09-1,.51-1.5.6l1.41,1.83a8.3,8.3,0,0,0,.64-1.21,3.47,3.47,0,0,0,.07-.79c.07-.8-.2.65-.05,0A1.26,1.26,0,0,0,21.56,50c-.42,0-.82.23-1.23.22l1.21,1.57a17.16,17.16,0,0,1,.83-2.2,1.26,1.26,0,0,0-.89-1.53c-.53-.09-1.12.17-1.6.08L20.65,50q.23-.42-.24.06l.53-.18a3,3,0,0,0,.85-.35,1.27,1.27,0,0,0-.3-2.3A2,2,0,0,0,21,47.1q-.77-.12.06.27l-.2,1.51.41-.35c.8-.67.24-1.8-.56-2.1-.35-.12-.72-.09-1.07-.22l.57,2.1.4-.34a1.28,1.28,0,0,0,0-1.77c-.1-.1-.2-.2-.29-.31l.2,1.5c.21-.37-.34.14.08.11a2.08,2.08,0,0,0,.63-.23,1.26,1.26,0,0,0,0-2.17c-.53-.35-.28-.3-.14.12l-.59,1.41A5.06,5.06,0,0,0,21.72,46a1.26,1.26,0,0,0-.27-2c-.38-.25-.88-.28-1.26-.52v2.17l.5-.22a1.26,1.26,0,0,0,.27-2c-.16-.17-.36-.28-.52-.45l-.57,2.09c.3-.07.64,0,.95-.07a1.27,1.27,0,0,0,.94-1.21,2.31,2.31,0,0,0-.33-1.64L20.34,44c.43,0,.86.22,1.3.2a1.26,1.26,0,0,0,.88-2.13c-.38-.4-1-.54-1.35-.93l.2,1.51.15-.3L20.43,43c.44,0,.89.32,1.36.36a1.26,1.26,0,0,0,1.09-1.87c-.26-.35-.74-.57-1-.88l-1.09,1.86c.85,0,1.13.1,1.85-.49a1.27,1.27,0,0,0,.2-1.51c-.13-.24-.32-.44-.44-.68V41l.16-.27-1.08.63c.28,0,.77-.13,1-.09-.79-.15.28.32.44.36a1.26,1.26,0,0,0,1.4-1.82,6.24,6.24,0,0,0-.46-.68c-.35-.62-.13.21-.14-.3l-1.57,1.21c.34.14.67.53,1,.68.91.34,1.75-.7,1.53-1.53a1.92,1.92,0,0,0-.25-.61c-.2-.3-.17.36-.06,0l-1.83.77c.47.26.76.81,1.25,1.08a1.25,1.25,0,0,0,1.7-.47,3.58,3.58,0,0,0,.31-1l-1.21.93H25a1.26,1.26,0,0,0,1.25-1.25c0-.48-.17-1-.16-1.43l-1.87,1.09a11.35,11.35,0,0,0,1.08.73A1.29,1.29,0,0,0,27,38.55c.28-.57-1.31-.35-.67-.06a1.28,1.28,0,0,0,1.87-1.09,2.52,2.52,0,0,0,0-.67c-.08-.43-.45.63-.12.3H26.31c.26.26.35.71.63,1A1.26,1.26,0,0,0,29,37.45c.08-.4-.09-.86,0-1.22l-2.09.56c.27.34.33,1,.64,1.35a1.25,1.25,0,0,0,2-.27c.07-.15.13-.3.2-.46L28,37.88l.34.2a1.26,1.26,0,0,0,1.82-.77c.12-.45,0-.94.09-1.37l-2.3.3c.24.37.24.86.48,1.25a1.27,1.27,0,0,0,2.17,0l.26-.36H28.71a11.71,11.71,0,0,0,.82,1,1.26,1.26,0,0,0,2-.26c.12-.26.16-.55.27-.79l-1.4.59a9.77,9.77,0,0,0,1.2.07l-1.21-.94c.1.26.12.53.21.79a1.27,1.27,0,0,0,2.3.3c.28-.49.24-1.13.51-1.6l-2.3-.3c.11.29.06.62.17.92.28.78,1.45,1.38,2.09.57.19-.24.3-.55.55-.66l-1.7-.47c.31.55.13-.69,0-.08-.15.95.84,2.06,1.82,1.4.14-.09.33-.12.48-.22a1.26,1.26,0,0,0,.26-2l-.25-.23v1.77l.34-.39a1.3,1.3,0,0,0,.2-1.5c-.48-.91-1-.7-1.78-1l.3,2.29c.32-.2.7-.26,1-.47a1.26,1.26,0,0,0-.3-2.29c-.37-.13-.79,0-1.15-.14l.57,2.09a8.19,8.19,0,0,0,.73-.92,1.25,1.25,0,0,0-.47-1.7c-.24-.12-.52-.17-.76-.28V35c.63-.43,1.08-.52,1.23-1.38a1.31,1.31,0,0,0-.59-1.41c-.25-.13-.52-.2-.76-.34V34l.48-.27a1.27,1.27,0,0,0,0-2.18c-.23-.16-.48-.24-.72-.4l-.3,2.3c.37-.13.8,0,1.18-.15a1.27,1.27,0,0,0,.3-2.3c-.22-.16-.47-.26-.7-.42l-.3,2.29c.3-.09.63,0,.94-.12a1.26,1.26,0,0,0,.57-2.09c-.25-.21-.61-.31-.83-.51l-.27,2,.43-.22a1.25,1.25,0,0,0,.47-1.7l-.26-.4L33,31.68c.81-.1,1.48.21,2.15-.43a1.77,1.77,0,0,0,.15-2.3l-.47,1.71.27-.2a1.29,1.29,0,0,0,.59-1.41l-.09-.37-1.21,1.57.6,0c.83,0,1.69-1.07,1.08-1.86a6.41,6.41,0,0,1-1-1.27l-1.41,1.83c.53.08,1,.49,1.51.57a1.28,1.28,0,0,0,1.52-.89,1.47,1.47,0,0,0-.38-1.69c-.71-.72,0,.27-.14.06-.34-.39.36-1-.08-.32l-1.41.6c.77.21,1.07.78,2,.71A1.28,1.28,0,0,0,37.86,27c.19-.85-.27-1.27-.32-2L36,26.23c.25.09.51.36.8.47a1.25,1.25,0,0,0,1.52-.89,14.06,14.06,0,0,0,.27-1.6L36.69,25.3c.24.12.43.31.66.44a1.27,1.27,0,0,0,1.87-1.09c.06-.78-.16-.06,0-.36l-2,.26c.42.34.59,1,1,1.39a1.27,1.27,0,0,0,2.14-.88c0-.3-.12-.59-.09-.88l-1.87,1.08a2.76,2.76,0,0,0,1.72.67,1.28,1.28,0,0,0,1.25-1.25c0-.46-.16-.92-.11-1.38l-2.13.89c.24.27.32.75.59,1.06a1.26,1.26,0,0,0,2.09-.57,8.47,8.47,0,0,1,.19-1.14l-2,.27c.15.17.26.42.42.6.67.81,1.78.22,2.09-.56.1-.25.12-.51.22-.76l-2.3.3c.21.31.2.75.41,1.07a1.27,1.27,0,0,0,2.3-.3c.11-.28,0-.68.1-.92H41.15c.2.4.13,1,.35,1.43a1.26,1.26,0,0,0,2.17,0c.21-.44.12-1,.3-1.41H41.8c.17.39.07,1,.26,1.45a1.26,1.26,0,0,0,2.18,0,2.24,2.24,0,0,0,.25-.62c.06-.36-.39.13-.05,0l-1.82-.77c.31.83.11,1.42,1.05,1.89a1.26,1.26,0,0,0,1.5-.21c.28-.36.43-.76.94-.83l-1.53-.89c.07.34-.09.79,0,1.17a1.27,1.27,0,0,0,1.53.89l.33-.06-1.53-.89.12.54a1.26,1.26,0,0,0,2.09.57l.46-.36-2.14-.89c0,.3-.09.59-.05.89.09.81,1,1.7,1.87,1.09.53-.39.91-.89,1.42-1.28L46.52,24c0,.43.13.8.2,1.22.14.81,0-.82,0,.34a1.25,1.25,0,0,0,1.86,1.08c.38-.25.6-.71,1-.94l-1.83-1.41c-.05.41-.35.76-.41,1.17a1.26,1.26,0,0,0,1.82,1.4c.44-.25.68-.78,1.09-1l-1.86-1.09c0,.79-.19,1.15.48,1.77a1.24,1.24,0,0,0,1.2.32c.23-.07.44-.21.66-.28l-1.53-1.53c-.11.38-.46.71-.58,1.11-.24.83.64,1.87,1.53,1.53.39-.16.72-.55,1.07-.69l-1.56-1.2c0,.5.39-.54-.13.26a6.45,6.45,0,0,0-.47.69,1.26,1.26,0,0,0,1.4,1.82,8.39,8.39,0,0,1,1.23-.47l-1.09-1.87c-.23.43-.75.69-1,1.14a1.27,1.27,0,0,0,1.09,1.87c.66-.06-.34,0,.53.07a8.76,8.76,0,0,0,1.16-.12l-1.09-1.87c-.22.34-.8.58-1.06,1a1.25,1.25,0,0,0,1.09,1.86l.5-.05c.52-.07.49-.18-.08-.31L53.44,28c-.08-.08-.17-.23-.27-.32-1-1-2.75.29-2,1.5.13.2.19.42.31.62a1.27,1.27,0,0,0,2.3-.3l.08-.29-1.21.93.6,0a1.25,1.25,0,0,0,1.08-1.86c-.2-.36-.62-.58-.82-.91l-1.4,1.82c.27.05.51.16.78.21.84.14,1.87-.56,1.53-1.53-.08-.22-.23-.43-.3-.64l-1.53,1.53a10.64,10.64,0,0,1,1.34.47,1.26,1.26,0,0,0,1.53-1.52c-.22-.64-.29-1-1-.72s-.26.58.27.92a1.26,1.26,0,0,0,1.87-1.08,4.89,4.89,0,0,1,0-.54l-.94,1.21L56,27.5a1.24,1.24,0,0,0,.89-.89c0-.16.07-.32.11-.48l-2.09.56c.24.2.36.5.6.7a1.27,1.27,0,0,0,1.5.2c1.11-.74.8-1.46.94-2.58l-2.09.57c.24.28.33.76.6,1.07a1.27,1.27,0,0,0,1.5.21c-.51.25-.62,0,0,.19a1.28,1.28,0,0,0,1.53-.9c.09-.23.11-.47.2-.71L57.56,26a5.4,5.4,0,0,1,.46.77,1.28,1.28,0,0,0,1.4.6c1.2-.28,1.38-1.11,2-2l-2.3-.3c.16.43,0,1,.17,1.42a1.27,1.27,0,0,0,2.09.57c.21-.22.4-.45.59-.69.49-.64-.1-.2.23-.37l-1.83-.77c.26.79.09,1.62.82,2.17a1.27,1.27,0,0,0,1.77,0c.34-.38.43-1,.74-1.33l-2.09-.56c0,.17.09.34.14.52a1.29,1.29,0,0,0,1.53.89l.35-.05L62,25.67c0,.37-.18.74-.18,1.12a1.26,1.26,0,0,0,2.13.88c.39-.32.55-.89.93-1.21l-2-.27c.11.22.33-.65-.09-.1a2.11,2.11,0,0,0-.3.86c-.13,1,.83,2.06,1.83,1.41.41-.27.64-.83,1-1.07L63.52,26.2c0,.22-.07.44-.07.66A1.26,1.26,0,0,0,65.31,28c.24-.11.43-.28.66-.39l-1.5-.21c.21.25.61.44.75.6l-.32-1.2c-.08.27-.23.53-.31.81a1.28,1.28,0,0,0,1.21,1.57l.37,0L65,27.6c0,.17,0,.34-.07.5a1.27,1.27,0,0,0,.89,1.53,13.66,13.66,0,0,0,1.57.13l-1.09-.63c-.24-.39,0-.77-.2-.09a1.26,1.26,0,0,0,1.21,1.57c.42,0,.38,0-.13-.16L66.93,29c-.15.37-.4.75-.59,1.11a1.28,1.28,0,0,0,1.41,1.83c.52-.08,1-.49,1.48-.56L67.82,29.5c-.43.91-1.14,1.58-.73,2.66a1.3,1.3,0,0,0,1.21.94c.36,0,.72-.18,1.07-.19l-.88-2.13c-.28.32-.73.46-1,.79a1.26,1.26,0,0,0,.88,2.13c.35,0,.69-.14,1-.13l-.88-2.13c-.25.29-.67.41-.93.7a1.28,1.28,0,0,0,0,1.77c1,.88,1.46.26,2.61.35l-.88-2.13a9.94,9.94,0,0,0-.71,1c-.44.7.59-.68-.18.23-.54.63-.46,2,.57,2.09.43.06.92-.13,1.31-.07l-.57-2.09c-.32.26-.85.36-1.21.65a1.25,1.25,0,0,0,.57,2.09c.15,0,1.1.17,1.17,0-.76-.39-.86-.81-.31-1.24a1.62,1.62,0,0,0-.54.31,1.27,1.27,0,0,0,.3,2.3c.23.09.46.1.7.19l-.31-2.3c-.36.24-.85.25-1.22.49a1.27,1.27,0,0,0-.27,2,8.33,8.33,0,0,0,1,.7V36.32c-.79.55-1.19.7-1.33,1.75a1.28,1.28,0,0,0,.94,1.21c.58.19,1.26,0,1.82.15l-.3-2.3c-.42.23-1,.16-1.45.41a1.26,1.26,0,0,0,0,2.17,4.67,4.67,0,0,1,.93.62l.27-2c-.32.19-.77.16-1.11.36a1.27,1.27,0,0,0,0,2.18c.4.21.82.34,1.21.53V39.26c-.25.13-.54.2-.79.34a1.26,1.26,0,0,0-.27,2,4.69,4.69,0,0,0,1.2.74l-.26-2a4.07,4.07,0,0,1-1.15.83,1.26,1.26,0,0,0,0,2.18c.22.1.48.13.69.22l-.59-1.4c-.14.42.31-.35-.13.12a1.26,1.26,0,0,0,.26,2c.21.09.46.12.64.2l-.26-2-.44.4a1.27,1.27,0,0,0,.27,2c.7.44,1,.24,1.8.36L71,43.14c-.31.28-.9.35-1.26.67a1.26,1.26,0,0,0,.57,2.1,10.74,10.74,0,0,1,1.39.15L71.13,44c-.27.28-.72.4-1,.7a1.26,1.26,0,0,0,.57,2.09,1.86,1.86,0,0,0,.57.07c.44,0,.35.28,0-.28V45.31c-.11.19-.29.35-.4.54a1.29,1.29,0,0,0,.2,1.5,2,2,0,0,0,.77.6l-.63-1.08c0,.12,0,.24,0,.36a1.24,1.24,0,0,0,.93,1.21q.42.12,0-.06V47.15c-.09.22-.25.39-.34.62a1.26,1.26,0,0,0,.77,1.82l.39.09-.89-.9c-.09-.36-.1,0-.16.27a1.26,1.26,0,0,0,1.52,1.53c.47-.11.87-.28,1.35-.35L73.19,49v.39a1.28,1.28,0,0,0,1.57,1.21l.52-.08-1.41-1.82c-.34.8-.94,1.09-.84,2.06A1.28,1.28,0,0,0,74.6,52c.51-.11.91-.38,1.39-.51L74.46,50c-.11.34-.48.65-.61,1a1.26,1.26,0,0,0,1.52,1.53,2,2,0,0,1,.79-.22L75,51.35l.06.36a1.27,1.27,0,0,0,1.53.9l.56-.17-1.56-1.21a1.79,1.79,0,0,0,.54,1.56l-.33-1.2c-.09.31-.35.59-.45.92a1.28,1.28,0,0,0,.59,1.4c1.12.71,1.85.07,2.92-.25l-1.53-1.53c-.14.44-.62.82-.78,1.3-.37,1.14.93,1.78,1.83,1.41.45-.19.73-.67,1.18-.85l-1.83-1.41c-.08.27-.23.52-.31.79a1.26,1.26,0,0,0,1.52,1.53c.22-.06.42-.2.63-.26L78,53.12c0,.19-.08.38-.11.57-.16.83.58,1.87,1.52,1.52.25-.09.47-.25.71-.34l-1.57-1.21a2,2,0,0,0,.56,1.57L78.79,54c-.12.43-.57.79-.7,1.26a1.26,1.26,0,0,0,1.82,1.4c.42-.19.69-.6,1.1-.8l-1.83-1.4c-.11.39-.46.71-.58,1.12a1.27,1.27,0,0,0,1.53,1.53c.24-.09.46-.25.68-.33l-1.53-1.53c-.07.28-.22.53-.29.81-.23.83.62,1.88,1.52,1.53.25-.1.48-.27.7-.36l-1.52-1.53c-.06.26-.18.49-.24.74A1.31,1.31,0,0,0,80,57.87c1,.65,1.43,0,2.31-.34l-1.83-1.4c-.06.27-.21.52-.28.8-.21.84.62,1.85,1.53,1.52.45-.16.84-.45,1.28-.6l-1.53-1.52c0,.26-.18.49-.24.76a1.27,1.27,0,0,0,1.53,1.53c.21-.08.42-.22.62-.29L81.9,56.8c-.27,1.09-1,1.51,0,2.56a1.3,1.3,0,0,0,1.51.21c.53-.28.82-.92,1.33-1.18L82.91,57a15.05,15.05,0,0,0-.39,1.7c-.08,1,1.09,1.44,1.87,1.09.3-.14.51-.41.81-.54l-1.83-1.41c0,.25-.15.47-.19.72-.13.82.56,1.9,1.53,1.53a3.31,3.31,0,0,1,.73-.33l-1.21-1.57c0,.27-.17.51-.22.78a1.24,1.24,0,0,0,.32,1.2c-.27-.21-.18,0-.23.41C84,61.59,85.22,62,86,61.66a4.41,4.41,0,0,0,.79-.46c.45-.37.14-.21.34-.19l-1.21-1.56c-.08.36-.32.66-.4,1A1.26,1.26,0,0,0,87,62l.5-.16L86,60.32c-.07.35-.3.64-.38,1a1.27,1.27,0,0,0,.9,1.53,2.66,2.66,0,0,0,2-.48l-1.5-.2.22.2a1.29,1.29,0,0,0,1.5.21c.24-.12.43-.29.67-.41l-1.87-1.08c0,1.08,0,2,.83,2.78a1.29,1.29,0,0,0,1.5.21c.33-.19.56-.52.88-.7L88.85,62c-.08.46-.5.84-.58,1.32a1.27,1.27,0,0,0,1.83,1.4c.5-.29.77-1,1.24-1.22l-1.86-1.09c0,.33,0,.66,0,1a1.27,1.27,0,0,0,1.57,1.21l.49-.18-1.2-.32c-.13-.51-.19-.54-.19-.11-.1,1,1.1,1.44,1.87,1.09l.53-.24-1.82-1.41c-.06.35-.28.65-.34,1a1.28,1.28,0,0,0,.9,1.52c1,.3,1.21-.2,2-.61H92.08l.28.13L91.76,64c-.08.44-.41.8-.49,1.25a1.26,1.26,0,0,0,1.82,1.4c.28-.13.46-.4.73-.53L92,65.07a4.46,4.46,0,0,0,.17,1.35A1.26,1.26,0,0,0,94,67.5c.38-.23.68-.76,1.08-.83L93.5,65.46c0,.22-.09.46-.1.68a1.25,1.25,0,0,0,1.25,1.25l.38,0-1.25-1.25c-.08.79-.33,1,.06,1.85a1.25,1.25,0,0,0,1.7.47c.42-.25.65-.77,1-1l-1.87-1.09c0,.25-.14.52-.17.79-.11,1,1.12,1.49,1.87,1.08.23-.12.42-.31.65-.43l-1.87-1.09c0,.47-.19.93-.21,1.41a1.27,1.27,0,0,0,1.25,1.25c1.09.06,1.37-.4,2.2-.94L96.61,67a3.63,3.63,0,0,0-.08,1.85,1.26,1.26,0,0,0,1.82.77c.31-.19.53-.52.82-.71l-1.83-1.4c-.06.46-.45.87-.51,1.34a1.28,1.28,0,0,0,1.83,1.41,1.81,1.81,0,0,1,.7-.23l-1.25-1.25c0,.22-.07.43-.06.65a1.26,1.26,0,0,0,1.25,1.25h.36l-1.25-1.25c0,.25-.13.52-.15.79a1.26,1.26,0,0,0,1.57,1.21,13.43,13.43,0,0,1,1.59-.82l-1.53-1.53c-.09.53-.52,1-.61,1.51A1.27,1.27,0,0,0,101.11,72c.28-.16.46-.44.72-.58L100,70.32c0,.84-.45,1.29.39,2a1.3,1.3,0,0,0,1.5.2,4.51,4.51,0,0,1,.8-.51l-1.56-1.21,0,.53a1.26,1.26,0,0,0,1.56,1.21l.45-.16-1.56-1.21c0,.32-.24.66-.28,1a1.25,1.25,0,0,0,1.87,1.08c.33-.22.58-.62.94-.74l-1.2-.33c-.45-.58-.34-.31-.22.2a2.92,2.92,0,0,0,.32.75,1.27,1.27,0,0,0,1.71.47c.29-.19.49-.51.77-.69l-1.86-1.09c-.05.39-.36.8-.41,1.24a1.25,1.25,0,0,0,1.86,1.08c.41-.26.63-.8,1-1l-1.83-1.41c0,.38-.26.7-.31,1.08a1.27,1.27,0,0,0,1.83,1.4l.51-.26-1.87-1.08,0,.48a1.27,1.27,0,0,0,1.87,1.09l.48-.21-1.87-1.09c0,.27-.12.55-.15.83A1.25,1.25,0,0,0,106.64,75c.35-.22.56-.66.88-.86l-1.87-1.09c-.09.93-.78,1.24-.12,2.23a1.25,1.25,0,0,0,1.7.47c.44-.3.67-.89,1.07-1.17l-1.83-1.4c-.08.53-.49,1-.57,1.51-.13.92.86,2.1,1.83,1.4.38-.27.61-.75,1-1L106.82,74c-.07.75-.25,1.07.18,1.75a1.27,1.27,0,0,0,1.7.47c.28-.16.47-.46.73-.62l-1.87-1.09c0,.25-.09.5-.1.76A1.26,1.26,0,0,0,109,76.5l.42-.12-1.53-.89a6.71,6.71,0,0,0,.22.8,1.27,1.27,0,0,0,1.83.77,7.53,7.53,0,0,0,1.12-.7l-1.87-1.09c0,.33-.23.67-.26,1a1.26,1.26,0,0,0,1.87,1.09c.29-.19.49-.52.76-.7l-1.86-1.09c0,.28-.13.57-.16.85a1.26,1.26,0,0,0,1.87,1.09c.21-.12.39-.31.6-.43L110.16,76c0,.27-.11.54-.13.81a1.26,1.26,0,0,0,1.86,1.09c.22-.11.38-.28.59-.39l-1.87-1.09c0,.38-.33.78-.37,1.21a1.28,1.28,0,0,0,.93,1.21c.93.36,1.53-.2,2.29-.64l-1.83-.77c.26,1.54,1.66,1.86,2.92,1.28l-1.87-1.09a3.21,3.21,0,0,0,.3,2.15,1.26,1.26,0,0,0,2,.26c.16-.18.27-.42.43-.6,1.07-1.19-.69-3-1.77-1.77-.16.19-.27.43-.43.61l2,.26c-.11-.17-.18.23-.06-.16a2.7,2.7,0,0,0,.09-.75,1.26,1.26,0,0,0-1.86-1.09l-.48.22h1.23c-.61-.33.07.56,0,0a1.26,1.26,0,0,0-1.83-.77c-.22.13-.63.3-.41.39l.93,1.21c0-.38.33-.79.37-1.21.1-1-1.11-1.49-1.86-1.09-.22.11-.38.28-.59.4l1.87,1.08c0-.26.11-.53.13-.81a1.25,1.25,0,0,0-1.86-1.08c-.22.12-.4.3-.61.42l1.87,1.09c0-.27.13-.56.16-.85a1.25,1.25,0,0,0-1.87-1.08c-.29.19-.49.51-.77.69l1.87,1.09c0-.32.23-.66.26-1a1.25,1.25,0,0,0-1.87-1.08,8.08,8.08,0,0,1-1.12.7l1.83.77a7.94,7.94,0,0,1-.22-.8,1.25,1.25,0,0,0-1.52-.89l-.42.11L110,75.29c0-.25.09-.5.1-.76a1.26,1.26,0,0,0-1.87-1.08c-.27.16-.46.46-.72.62l1.7.47q-.21-.32.09,0c0-.18,0-.37.06-.55a1.25,1.25,0,0,0-1.86-1.09c-.38.27-.61.75-1,1l1.82,1.4c.08-.53.49-1,.57-1.51.13-.93-.85-2.09-1.83-1.4-.43.31-.67.89-1.06,1.17l1.7.47c0-.07-.12.49.25-.17a2.15,2.15,0,0,0,.2-.83A1.26,1.26,0,0,0,106.28,72c-.35.23-.56.66-.88.87l1.87,1.09c0-.27.13-.55.15-.83.1-1-1.09-1.43-1.86-1.09l-.48.22,1.86,1.08,0-.48A1.27,1.27,0,0,0,105,71.75l-.51.26,1.83,1.4c0-.37.26-.7.31-1.07.13-1-.83-2-1.83-1.41-.4.26-.62.8-1,1l1.87,1.09c.05-.39.35-.8.41-1.24a1.26,1.26,0,0,0-1.87-1.08c-.3.18-.5.51-.78.69l1.71.47c-.16-.27.25.41,0-.35a2.65,2.65,0,0,0-.56-1.14,1.21,1.21,0,0,0-1.2-.32,5.69,5.69,0,0,0-1.55,1l1.87,1.09c0-.33.24-.67.28-1a1.26,1.26,0,0,0-1.57-1.21l-.45.16,1.57,1.21,0-.53A1.27,1.27,0,0,0,102,69.56a7.32,7.32,0,0,0-1.41.75l1.51.21c.1.66.19.75.29.27,0-.16,0-.31,0-.47a1.27,1.27,0,0,0-1.87-1.09c-.28.15-.46.44-.72.58l1.82,1.41c.09-.53.52-1,.61-1.52a1.27,1.27,0,0,0-1.53-1.52c-.67.14-1,.6-1.59.82l1.57,1.21c0-.26.13-.52.15-.79a1.26,1.26,0,0,0-1.25-1.25H99.3l1.25,1.25c0-.21.06-.43.06-.65a1.27,1.27,0,0,0-1.25-1.25,5,5,0,0,0-1.94.55l1.83,1.41c.06-.47.45-.87.51-1.35.13-1-.82-2-1.82-1.4-.31.19-.53.52-.82.71l1.82.77c0-.26-.07-.25-.07,0a1.56,1.56,0,0,0,.15-.6c.13-1-.83-2.06-1.82-1.41a3.2,3.2,0,0,0-.56.6c0-.06-.09,0-.41,0l1.25,1.25c0-.47.19-.94.21-1.41a1.26,1.26,0,0,0-1.87-1.09c-.23.13-.41.31-.64.44L97,67.13c0-.26.14-.53.17-.79a1.26,1.26,0,0,0-1.87-1.09c-.42.25-.65.78-1,1l1.7.47c-.19-.4,0,.39.16,0a1.94,1.94,0,0,0,.11-.63A1.26,1.26,0,0,0,95,64.86l-.38,0,1.25,1.25c0-.22.09-.45.1-.68a1.27,1.27,0,0,0-1.57-1.2c-.86.13-1,.66-1.67,1.07l1.87,1.09a7.2,7.2,0,0,1-.17-1.35c.09-1-1.11-1.46-1.87-1.08-.28.13-.46.39-.73.52l1.83,1.41c.08-.44.41-.8.49-1.24a1.28,1.28,0,0,0-.59-1.41,1.71,1.71,0,0,0-1.36-.19,1.82,1.82,0,0,0-.43.24c-.59.4-.23.09.14.2L92.83,65c.06-.35.28-.64.34-1a1.27,1.27,0,0,0-1.83-1.4l-.54.24L92.67,64c.14-1.45-.82-2.32-2.24-1.81L92,63.37c0-.34,0-.67,0-1a1.27,1.27,0,0,0-1.87-1.09c-.51.3-.78.95-1.25,1.23l1.83,1.4c.08-.46.49-.84.58-1.31a1.27,1.27,0,0,0-1.83-1.41c-.33.19-.56.52-.88.7l1.5.21c.09.07-.15.16-.07-.3a2.89,2.89,0,0,0,0-.72A1.26,1.26,0,0,0,88.11,60c-.25.11-.43.29-.68.4l1.5.21-.21-.21a1.32,1.32,0,0,0-1.51-.21c-.9.44.19.29-.08.24L88,62c.08-.35.3-.65.38-1a1.27,1.27,0,0,0-1.53-1.53l-.49.16,1.52,1.53c.09-.36.33-.67.41-1a1.27,1.27,0,0,0-1.21-1.57c-1-.09-1.55.59-2.37,1l1.87,1.09c.11-.84.29-1.57-.5-2.18l.32,1.2c.06-.27.18-.5.23-.77.14-.71-.35-1.67-1.21-1.57a5,5,0,0,0-1.37.41l1.53,1.53c0-.26.15-.47.19-.72A1.27,1.27,0,0,0,84,57.06c-.3.14-.51.41-.81.54L85,58.69c0-.39.24-.69.3-1.07a1.26,1.26,0,0,0-1.82-1.4c-.53.27-.83.91-1.34,1.17l1.5.2-.21-.22.33,1.21c.1-.4.44-.73.54-1.14a1.26,1.26,0,0,0-1.52-1.53c-.22.07-.42.22-.63.29l1.53,1.52c.06-.26.18-.49.24-.76a1.26,1.26,0,0,0-1.52-1.53c-.46.15-.85.45-1.28.6l1.52,1.53c.07-.28.21-.52.28-.8a1.27,1.27,0,0,0-1.82-1.41c-.31.13-.52.39-.82.51h1.23l-.25-.17.59,1.41c.06-.26.18-.49.24-.74.17-.82-.6-1.9-1.53-1.53-.24.1-.47.27-.7.36l1.52,1.53c.08-.28.23-.53.3-.81.23-.85-.62-1.86-1.52-1.53-.24.09-.46.25-.68.33L81,56.23c.11-.38.46-.71.58-1.12a1.27,1.27,0,0,0-1.83-1.4c-.41.19-.68.6-1.09.8l1.83,1.4c.12-.44.61-.76.69-1.25a2.49,2.49,0,0,0-.12-.94c-.13-.81,0,.69,0-.06a1.26,1.26,0,0,0-1.57-1.21c-.24.09-.47.26-.7.34l1.53,1.53c0-.19.07-.38.11-.57a1.27,1.27,0,0,0-1.53-1.52c-.22.06-.42.19-.63.25L79.79,54c.07-.27.23-.52.31-.79.33-1.14-.91-1.79-1.83-1.41-.45.19-.73.67-1.18.85l1.83,1.41c.14-.44.62-.82.78-1.3a1.26,1.26,0,0,0-1.52-1.53c-.35.1-1.22.39-1.05.5l.59,1.4c.14-.43.52-.72.49-1.23a6.25,6.25,0,0,0-.16-.62c-.15-1.06-.06.81,0-.06A1.26,1.26,0,0,0,76.47,50l-.57.16,1.53.89-.06-.36a1.27,1.27,0,0,0-1.21-.93,3,3,0,0,0-1.42.3l1.53,1.53c.11-.34.48-.66.61-1a1.25,1.25,0,0,0-1.52-1.52c-.5.14-.88.4-1.4.51l1.57,1.21c0-.5-.37.59.07-.18a5.79,5.79,0,0,0,.45-.65,1.27,1.27,0,0,0-1.41-1.82l-.51.07,1.56,1.21V49a1.26,1.26,0,0,0-1.56-1.21c-.49.07-.88.24-1.35.35l1.53,1.53a2.44,2.44,0,0,0,.16-1.54,1.25,1.25,0,0,0-.9-.89l-.39-.08L74,49c.58-1.34.59-2.64-1.22-3l.93,1.2c0-.12,0-.24,0-.36a1.21,1.21,0,0,0-.64-1.09.31.31,0,0,1-.23-.2l.2,1.5c.12-.18.29-.34.41-.53a1.25,1.25,0,0,0,0-1.24c-.57-.9-1.19-.79-2.11-1l.57,2.1c.27-.29.71-.41,1-.71a1.26,1.26,0,0,0-.56-2.09,10,10,0,0,0-1.4-.15l.57,2.09c.31-.28.9-.36,1.26-.68a1.25,1.25,0,0,0-.57-2.09c-.38-.06-.89.07-1.2-.12l.27,2,.43-.4a1.25,1.25,0,0,0-.26-2c-.21-.09-.46-.12-.64-.2l.26,2a3.1,3.1,0,0,0,.79-1.26,1.27,1.27,0,0,0-.59-1.4c-.23-.1-.49-.13-.7-.23v2.18a6.05,6.05,0,0,0,1.68-1.24,1.28,1.28,0,0,0-.26-2,2.6,2.6,0,0,1-.67-.32l-.27,2c.25-.14.54-.21.8-.35a1.26,1.26,0,0,0,0-2.17c-.4-.2-.81-.33-1.21-.54V40.9c.32-.19.77-.17,1.1-.36a1.27,1.27,0,0,0,.27-2,5.36,5.36,0,0,0-1.46-1v2.17c.41-.23,1-.16,1.45-.41a1.26,1.26,0,0,0-.3-2.29c-.59-.2-1.26,0-1.83-.15l.93,1.21,0-.29-.63,1.08c.21-.14.44-.22.66-.36a1.28,1.28,0,0,0,0-2.18A2.31,2.31,0,0,1,70.4,36l-.27,2c.37-.24.86-.25,1.23-.5a1.26,1.26,0,0,0-.3-2.29c-.23-.09-.47-.1-.7-.19l.3,2.3c.88-.66,1.66-1.09,1.44-2.36-.27-1.6-1.24-1.13-2.35-1.32l.56,2.1c.33-.27.85-.36,1.21-.65A1.26,1.26,0,0,0,71,33c-.44-.06-.92.13-1.32.07l.57,2.09a8,8,0,0,0,.69-.73,1.34,1.34,0,0,0,.17-.62c-.23.4-.22.43,0,.1a1.27,1.27,0,0,0-.88-2.14,2.4,2.4,0,0,0-.88.12l-.52.11c.69.35.88.4.56.15v1.77c.25-.29.67-.4.92-.7a1.27,1.27,0,0,0-.88-2.14c-.36,0-.69.14-1,.13l.88,2.14c.28-.33.73-.47,1-.79a1.27,1.27,0,0,0-.89-2.14c-.37,0-.72.18-1.07.19l1.21.93c0,.14-.34.41.15-.12a2.82,2.82,0,0,0,.34-.67,1.27,1.27,0,0,0-1.41-1.83c-.52.07-1,.48-1.48.56l1.41,1.82c.19-.36.43-.73.59-1.1a1.35,1.35,0,0,0-.21-1.5,1.58,1.58,0,0,0-1.63-.58l1.21,1.57c.22-.75.47-1.42-.25-2.05-.56-.49-1.17-.3-1.82-.42l.89,1.53c0-.17.06-.34.08-.5a1.28,1.28,0,0,0-1.21-1.57l-.37,0L67,28.19c.44-1.54.12-1.56-.77-2.6a1.27,1.27,0,0,0-1.5-.21c-.24.11-.42.28-.66.4L66,26.86c0-.21.07-.43.07-.66a1.26,1.26,0,0,0-1.87-1.08c-.42.27-.64.82-1,1.06L65,27.59c.15-1.1.71-1.52.14-2.63a1.27,1.27,0,0,0-2-.27c-.39.33-.54.9-.93,1.21l2.14.89c0-.38.18-.74.18-1.12A1.27,1.27,0,0,0,63,24.46l-.35.05,1.53.89c0-.17-.09-.34-.14-.52a1.26,1.26,0,0,0-2.1-.56c-.34.38-.42,1-.74,1.33h1.77c.23.17-.12-.88-.17-1a1.27,1.27,0,0,0-1.83-.77c-.71.36-.84.93-1.35,1.46l2.1.57c-.16-.44,0-1-.17-1.43a1.27,1.27,0,0,0-2.3-.3c-.13.22-.16.76-.41.82l1.4.59a9.23,9.23,0,0,0-.86-1.31,1.26,1.26,0,0,0-2.09.57c-.1.23-.12.47-.21.71l1.53-.89a2,2,0,0,0-1.82.05l1.5.2c-.25-.28-.33-.76-.6-1.07a1.26,1.26,0,0,0-2.09.57,2.43,2.43,0,0,0,0,.89c.11.57-.26.51.27.15l1.51.2c-.24-.2-.36-.5-.6-.7a1.27,1.27,0,0,0-2.1.57c0,.16-.07.32-.11.49l.9-.9-.29.08a1.27,1.27,0,0,0-.93,1.21,4.89,4.89,0,0,0,0,.54L56,25.82c-1-.61-1.43-1.49-2.69-.58s-.62,2-.23,3.18l1.52-1.53a11,11,0,0,0-1.33-.47c-.86-.18-1.85.59-1.53,1.53.08.22.23.43.3.63l1.53-1.52c-.28,0-.51-.16-.79-.21a1.27,1.27,0,0,0-1.4,1.83c.21.36.62.57.82.91l1.09-1.87-.6,0a1.26,1.26,0,0,0-1.21.94l-.08.29,2.3-.3c-.13-.2-.19-.43-.32-.63l-2,1.51c.08.07.18.22.27.32C52.8,31,54.44,29.26,53.44,28c-.74-.91-1.26-.44-2.19-.37l1.08,1.87c.23-.34.8-.56,1.07-1a1.26,1.26,0,0,0-1.09-1.87l-.55.06c.24.2.24.23,0,.1-.38,0-.75-.15-1.17-.11l1.09,1.86c.23-.43.75-.68,1-1.13.4-.76-.09-2-1.08-1.87a10.26,10.26,0,0,0-1.86.55L51.15,28c.39-.85,1-1.15.93-2.18-.07-.72-.76-1.52-1.57-1.21-.4.15-.72.54-1.08.68L51,26.81c.11-.38.46-.7.58-1.1A1.26,1.26,0,0,0,50,24.18c-.23.07-.43.21-.65.28l1.2.33c.36.33.21.69.25,0a1.26,1.26,0,0,0-1.87-1.08c-.44.24-.68.77-1.09,1l1.83,1.4c0-.41.36-.75.41-1.17.13-.94-.83-2.07-1.82-1.4-.38.25-.6.71-1,.95l1.87,1.09a7.18,7.18,0,0,0,0-1A1.28,1.28,0,0,0,48.9,24c.14.44.18.45.12,0a1.27,1.27,0,0,0-2.13-.89c-.34.26-.54.62-.89.87l1.87,1.09c0-.3.09-.59.05-.89a1.27,1.27,0,0,0-2.13-.88l-.45.36,2.09.57-.12-.55a1.27,1.27,0,0,0-1.52-.89l-.34.06,1.53.9c-.07-.35.1-.79,0-1.18a1.28,1.28,0,0,0-1.53-.89,3.22,3.22,0,0,0-2.07,1.48l1.5-.2c.26.58.34.62.24.13a1.12,1.12,0,0,0-.1-.48,1.29,1.29,0,0,0-1.83-.77c-.83.41-.75.89-1.15,1.61h2.18c-.17-.39-.07-1-.27-1.46a1.26,1.26,0,0,0-2.17,0c-.21.44-.11,1-.3,1.41h2.17c-.2-.4-.12-1-.35-1.43a1.26,1.26,0,0,0-2.17,0c-.21.5-.16,1.05-.35,1.53l2.3-.3c-.21-.31-.2-.75-.42-1.07a1.26,1.26,0,0,0-2.29.3c-.1.25-.12.5-.22.75l2.09-.56c-.14-.18-.25-.42-.41-.61a1.25,1.25,0,0,0-2,.27A11.51,11.51,0,0,0,39.45,24l2.1-.56c-.24-.28-.33-.76-.59-1.06-.79-.9-2-.09-2.14.88,0,.46.16.92.11,1.38l1.25-1.25c.28,0-.29-.21-.49-.34a1.26,1.26,0,0,0-1.86,1.09c0,.3.11.58.09.88l2.13-.89c-.42-.34-.58-1-1-1.38a1.27,1.27,0,0,0-2,.26,3.23,3.23,0,0,0-.33,1.6l1.86-1.08c-.23-.13-.42-.32-.65-.45a1.27,1.27,0,0,0-1.87,1.09c0,.22-.09.36-.18,1l1.52-.89c-.25-.1-.51-.36-.8-.47A1.25,1.25,0,0,0,35,25a3.63,3.63,0,0,0,.12,1,2.39,2.39,0,0,0,.28.58q.09-.6,0-.18l1.21-.94c-.28,0-.81-.49-1.32-.63a1.29,1.29,0,0,0-1.41.59,2.77,2.77,0,0,0-.31,1.72,2.68,2.68,0,0,0,.22.73,3,3,0,0,0,.39.47c.34.42.36.29.06-.37l1.53-.89c-.52-.08-1-.5-1.5-.58a1.27,1.27,0,0,0-1.41,1.82c.27.6.65.79,1,1.27L35,27.73l-.6,0a1.26,1.26,0,0,0-1.21,1.57l.09.37.6-1.41-.28.2a1.3,1.3,0,0,0-.47,1.71c.13.24.14.26,0,.07l.63-1.08c-.31.21.38.18,0,0a1.84,1.84,0,0,0-.74,0A1.26,1.26,0,0,0,31.93,31l.26.4.47-1.7-.42.21a1.26,1.26,0,0,0-.27,2c.25.22.61.31.83.5l.57-2.09c-.3.09-.63,0-.94.12a1.27,1.27,0,0,0-.3,2.3c.22.17.47.26.69.43l.3-2.3c-.36.13-.79,0-1.17.15a1.27,1.27,0,0,0-.3,2.3c.23.16.49.24.72.4V31.55l-.49.28a1.26,1.26,0,0,0,0,2.17c.25.14.52.21.76.35l-.59-1.41c.05-.27.61-.61,0-.16A1.27,1.27,0,0,0,32,35c.24.11.52.16.76.27l-.47-1.7a3.9,3.9,0,0,1-.33.38,1.27,1.27,0,0,0,.57,2.1c.37.13.79,0,1.15.14l-.3-2.3c-.32.21-.71.26-1,.47a1.27,1.27,0,0,0,.3,2.3,1.21,1.21,0,0,0,.46.08q.72.12-.21-.3l.2-1.5-.34.39a1.28,1.28,0,0,0,0,1.77l.26.23.26-2c-.14.09-.33.12-.47.22l1.83,1.4a2.35,2.35,0,0,0-.29-1.79,1.27,1.27,0,0,0-1.7-.47c-.58.27-.71.59-1.09,1.07l2.1.57c-.11-.3-.06-.63-.17-.93a1.27,1.27,0,0,0-2.3-.3c-.28.49-.24,1.13-.51,1.6L33,37c-.09-.26-.11-.52-.21-.78a1.31,1.31,0,0,0-1.21-.93,4.84,4.84,0,0,0-.57,0,1.27,1.27,0,0,0-1.4.6c-.12.25-.16.54-.27.78l2-.27c-.15-.16-.28-.32-.42-.5a1.27,1.27,0,0,0-2.17,0c-.09.12-.18.23-.26.35h2.17c-.23-.37-.23-.86-.47-1.24a1.27,1.27,0,0,0-2.3.3c-.11.45,0,.93-.09,1.36l1.83-.77-.33-.19a1.26,1.26,0,0,0-1.71.47c-.06.15-.13.3-.19.46l2-.27c-.27-.34-.33-1-.65-1.35a1.26,1.26,0,0,0-2.09.57c-.08.41.09.86,0,1.23l2.09-.57c-.25-.26-.34-.71-.62-1a1.27,1.27,0,0,0-1.77,0c-.73.74-.47,1.24-.57,2.14l1.87-1.09a1.9,1.9,0,0,0-2.75,1l1.71-.47a11.41,11.41,0,0,1-1.09-.72,1.25,1.25,0,0,0-1.86,1.08c0,.48.15,1,.16,1.43L25,37.38h-.35a1.25,1.25,0,0,0-1.21.93c0,.18,0,.35-.07.53.1-.31.1-.35,0-.11l1.7-.47c-.47-.26-.75-.82-1.24-1.09a1.27,1.27,0,0,0-1.83.77c-.22.87.1,1.15.31,1.93l1.53-1.52c-.35-.14-.66-.53-1.06-.67a1.25,1.25,0,0,0-1.56,1.2c0,1,.56,1.35.93,2.21l1.4-1.83a7.37,7.37,0,0,0-2.08-.35,1.25,1.25,0,0,0-1.09.63c-.57.94-.16,1.36.28,2.2l.2-1.5c.44-.36.49-.24-.08-.24-.85,0-1.66,1.08-1.08,1.87.26.36.73.57,1,.89l1.09-1.87c-.45,0-.89-.33-1.36-.36a1.21,1.21,0,0,0-1.09.63l-.15.29a1.3,1.3,0,0,0,.21,1.5c.38.4,1,.54,1.35.93l.89-2.14c-.43,0-.86-.22-1.3-.2a1.26,1.26,0,0,0-1.09,1.86l.29.44V42.59a2.34,2.34,0,0,0-.28,1.21l.93-1.21c-.3.08-.64,0-1,.08a1.26,1.26,0,0,0-.57,2.09c.16.17.36.28.52.45l.27-2-.5.22c-.94.41-.72,1.7,0,2.17.38.25.88.27,1.26.52l-.27-2c-.18.15-.43.15-.68.27a1.27,1.27,0,0,0-.6,1.41c.3.86.63,1,1.32,1.41V45.1c-.76.34-1.18.22-1.64,1.06a1.27,1.27,0,0,0,.2,1.5l.29.31V46.2l-.4.34A1.26,1.26,0,0,0,19,48.63c.34.13.72.1,1.06.22l-.56-2.09-.42.35a1.27,1.27,0,0,0-.2,1.5c.47,1,1.07.76,2,1l-.3-2.3c-.83.57-1.63.34-2.09,1.42-.28.67-.1,1.68.77,1.82.54.09,1.11-.16,1.6-.08L20,48.94a16.38,16.38,0,0,0-.82,2.2,1.26,1.26,0,0,0,1.2,1.57c.43,0,.83-.23,1.23-.22l-1.21-1.57a2.05,2.05,0,0,0,.17,1.57V51.25c-.17.36-.41.69-.59,1.06a1.27,1.27,0,0,0,1.41,1.83c.53-.09,1-.51,1.5-.6l-1.41-1.83c-.14.24-.34.44-.49.69a1.26,1.26,0,0,0,.77,1.82l.43.06-.77-1.83c-.14.31-.41.51-.56.82a1.27,1.27,0,0,0,1.41,1.83c.45-.13.81-.5,1.24-.63l-1.4-1.83c-.19.4-.59.67-.77,1.07a1.26,1.26,0,0,0,1.08,1.87c.84,0,1-.32,1.77-.6l-1.57-1.21a2,2,0,0,0,.61,1.45L22.85,54c-.1.39-.44.71-.55,1.12a1.26,1.26,0,0,0,1.53,1.52c.71-.22.08-.23.35-.14l-.56-2.1-.28.28,1.5-.21c-.29-.18-.5-.51-.8-.7-1-.62-2,.42-1.83,1.41.08.44.39.8.47,1.24L24.5,55c-1.34-.74-2.33-1.27-3.18.56L22.41,55,22,55c-.72,0-1.52.77-1.21,1.57.2.53.54.94.71,1.48l.59-1.4c.19-.06.14-.08-.16-.07-1-.1-1.42,1.1-1.08,1.87.07.17.15.35.23.52l1.08-1.87c-.55,0-1-.3-1.61-.35a1.26,1.26,0,0,0-1.08,1.87c.32.44.91.68,1.2,1.07l1.09-1.86c-1.27-.1-1.7-1-2.68.45a1.29,1.29,0,0,0,.2,1.5c.1.12.5.58.69.58-1.11,0,1.13-1.2-.17-1.16-.77,0-1.08.6-1.32,1.23a1.22,1.22,0,0,0,.33,1.2,2.32,2.32,0,0,1,.68.87l.77-1.83c-.53.16-1.1.17-1.62.35a1.26,1.26,0,0,0-.3,2.29c.53.38.33.38.19,0L18.85,62l-.32.29a1.27,1.27,0,0,0,.27,2,6.37,6.37,0,0,0,1.12.6V62.71c-.46.22-1.08.13-1.57.36-1.09.52-.63,2,.3,2.3.48.18,1.05,0,1.52.19l-.89-.89v.23l.63-1.09c-1,.68-2.36.82-2,2.46a1.78,1.78,0,0,0,1.24,1.39c.4.15,1.14.07,1.31.19l-.26-2c-.25.29-.67.41-.92.7a1.27,1.27,0,0,0,.88,2.14c.42,0,.81-.23,1.21-.23l-1.08-1.86a4.93,4.93,0,0,1-.75,1,1.27,1.27,0,0,0,.77,1.83l.43.11L20,67.77a2.85,2.85,0,0,0-.49,1.55A1.27,1.27,0,0,0,21,70.53c.44-.07.8-.39,1.22-.47l-1.56-1.2a4.66,4.66,0,0,0,0,.75,1.28,1.28,0,0,0,1.57,1.21c.25,0,.47-.17.72-.22l-1.53-1.52a2.22,2.22,0,0,0,.12,1.71,1.28,1.28,0,0,0,1.41.59c.21,0,.39-.14.6-.18l-1.4-.59c0-.49-.05-.53-.11-.12A1.26,1.26,0,0,0,23.57,72c.23-.08.43-.22.65-.29L22.69,70.2c-.15.48-.63.87-.79,1.38a1.27,1.27,0,0,0,1.53,1.53c.27-.09.33-.1.19,0l-.94-1.21c0,.16,0,.31,0,.47a1.28,1.28,0,0,0,1.57,1.21,13.92,13.92,0,0,0,1.48-.78l-1.86-1.09c0,.2,0,.4,0,.6a1.26,1.26,0,0,0,1.87,1.08c.22-.12.39-.3.6-.42l-1.87-1.08c0,.42-.43.9-.47,1.39a1.26,1.26,0,0,0,1.87,1.08c.29-.2.49-.55.76-.74l-1.86-1.08a2.65,2.65,0,0,0,.55,1.81,1.25,1.25,0,0,0,1.5.21l.45-.23L25.4,73.21c0,.27,0,.51,0,.78a1.26,1.26,0,0,0,2.13.88c.31-.24.43-.66.73-.9l-2.13-.88c0,.47-.3,1-.28,1.44a1.27,1.27,0,0,0,2.13.89,14.57,14.57,0,0,0,1.14-1.23L27,73.3c0,.39-.11.75-.09,1.14a1.27,1.27,0,0,0,1.87,1.09c.65-.37.75-.74,1.24-1.24l-2.1-.57c.05.34-.07.74,0,1.1.13,1,1.48,1.15,2.1.57l.42-.4-2-.27c.07.14.13.29.2.43a1.25,1.25,0,0,0,2,.26c.17-.16.28-.38.45-.54l-2.1-.57c.13.45.17.86.34,1.3a1.26,1.26,0,0,0,2.29.3c.29-.39.29-1,.58-1.33l-2.3-.3c.2.51.15,1.08.33,1.59a1.27,1.27,0,0,0,2.3.3c.2-.27.25-.62.45-.89H30.75a2.37,2.37,0,0,0,1.31,1,1.27,1.27,0,0,0,1.7-.47c.22-.32.21-.76.43-1.08l-2.3-.3c.18.51-.06,1.15.13,1.69a1.27,1.27,0,0,0,2.3.3,3.94,3.94,0,0,0,.29-.77c.2-.65-.31-.1,0-.28l-1.83-.77c.13.34.1.71.23,1.05a1.27,1.27,0,0,0,2.3.3c.17-.32.19-.71.36-1H33.47A8.57,8.57,0,0,1,34,76a1.27,1.27,0,0,0,2.18,0c.16-.33.18-.73.33-1H34.37c.13.31.13.71.27,1a1.25,1.25,0,0,0,2.17,0c.14-.26.2-.56.32-.82H35c.28.47.34,1,.59,1.43a1.26,1.26,0,0,0,2,.26c.28-.26.19-.27-.27,0a1.26,1.26,0,0,0,1.09-.63c.18-.39.13-.88.29-1.23H36.45a13.54,13.54,0,0,0,1.15,1.92,1.25,1.25,0,0,0,2-.27c.17-.38.12-.88.27-1.23l-2,.27c.24.24.26.58.44.87A1.27,1.27,0,0,0,40,77c.61-.36.7-.67,1-1.25l-1.71.47.31.23c.73.51,1.56-.11,1.83-.77.14-.36.12-.74.26-1.09l-.9.89.3,0L40,75.08c.3.34.25,1,.47,1.4a1.26,1.26,0,0,0,2.17,0c.21-.37.39-.8.63-1.15l-2.3-.3c.1.28.13.55.23.83a1.26,1.26,0,0,0,2.09.56c.15-.16.25-.37.39-.52l-2.1-.57c.07.31,0,.69,0,1a1.26,1.26,0,0,0,2.09.56c.18-.17.3-.39.47-.56l-1.2.33q-.52-1.17-.51-.39c-.11,1,1.09,1.41,1.86,1.08.23-.09.4-.24.62-.34L43,76a2.1,2.1,0,0,0,2.65,2.2l-1.52-.9,0,.38a1.27,1.27,0,0,0,1.53.89l.53-.12-1.53-1.52c-.06.41-.21.76-.3,1.16A1.3,1.3,0,0,0,45,79.46c1,.75,1.4-.06,2.29-.4L45.8,77.53c-.07.24-.21.47-.28.71a1.26,1.26,0,0,0,1.53,1.53c.29-.09.55-.32.82-.4L46.3,78.16c-.11.88-.69,1.58-.19,2.45s1.55.82,2.48.58l-1.53-1.52c-.07.24-.22.47-.3.71a1.3,1.3,0,0,0,.89,1.53L48,82l-.89-.89,0,.36a1.23,1.23,0,0,0,.9.89,2.9,2.9,0,0,0,1.65-.16L48.14,80.7c-.07.27-.31.52-.39.8a1.24,1.24,0,0,0,.33,1.21c.14.13.29.27.42.41a1.22,1.22,0,0,0,1.2.33c.34-.11.62-.38.93-.49l-1.52-.89.09.32a1.28,1.28,0,0,0,1.53.89c.71-.14.26,0,0-.16l-.59-1.4c0,.21-.17.41-.23.63a1.27,1.27,0,0,0,1.53,1.53c.23,0,.42-.16.64-.21l-1.52-1.52c-.11.29-.38.56-.49.88a1.22,1.22,0,0,0,.33,1.2c.91.88,1.62.41,2.67.16l-1.52-1.53c-.16.4-.68.78-.87,1.24-.31.78.5,1.54,1.21,1.57h.42l-1.21-.93a5.15,5.15,0,0,0,.33.93,1.25,1.25,0,0,0,1.4.59c.53-.13,1-.47,1.51-.6l-1.52-1.53c-.32,1-1.21,1.58-.48,2.72a1.28,1.28,0,0,0,1.41.6c.51-.19.89-.69,1.36-.86l-1.2-.32c-.44-.37.35.12.08.28,0,0,0-.74-.33.08a1.26,1.26,0,0,0,.59,1.4l.25.18-.59-1.4c-.1.24-.27.48-.37.74-.34.89.69,1.76,1.53,1.52.58-.16,1.11-.56,1.68-.73L55.2,86.83c-.09.26-.34.51-.43.8A1.25,1.25,0,0,0,56,89.19h.46l-1.21-.94c0,.3-.16-.4-.2.36a2.4,2.4,0,0,0,.24,1.23,1.25,1.25,0,0,0,1.4.59c.51-.15.36-.26.51-.22l-.77-1.82c-.16.37-.53.63-.68,1-.36.88.26,2.22,1.4,1.83.52-.19.92-.69,1.4-.86L57,88.84c-.11.27-.38.54-.5.84a1.25,1.25,0,0,0,1.21,1.57l.5,0-1.09-1.86c-.11.27-.28.48-.4.75a1.28,1.28,0,0,0,.47,1.71,4,4,0,0,0,2.46,0l-1.52-1.53c-.09.23-.26.46-.35.71a1.26,1.26,0,0,0,.9,1.52l.36.08L58.16,91c-.11.39-.28.75-.39,1.14-.28,1,.64,1.64,1.52,1.53a8.58,8.58,0,0,0,1.34-.38l-1.52-1.52c-.08.21-.23.43-.3.66A1.25,1.25,0,0,0,60.33,94c.35-.1.64-.35,1-.44L59.9,91.7c-.18.39-.57.65-.75,1a1.26,1.26,0,0,0,1.4,1.82c.28-.07.53-.22.8-.29L60,92.45c-.17.38-.56.64-.73,1a1.27,1.27,0,0,0,0,1.24c1,1.27,2,.83,3.35.51l-1.41-1.83c-.16.34-.46.58-.62.92a1.27,1.27,0,0,0,1.4,1.83c.4-.1.72-.45,1.11-.54l-1.53-1.53c-.07.37-.22.68-.31,1.05a1.26,1.26,0,0,0,1.53,1.52c.33-.08.62-.32.94-.4l-1.4-1.83c-.18.39-.58.64-.76,1a1.27,1.27,0,0,0,1.4,1.83c.4-.1.71-.43,1.09-.52l-1.4-1.83c-.24.47-.78.76-1,1.24A1.27,1.27,0,0,0,62.36,98c.88.17,1.19-.14,2-.36L63,95.81c-.17.33-.47.57-.63.91a1.27,1.27,0,0,0,1.4,1.83c.32-.07.59-.29.91-.36l-1.41-1.83a9.57,9.57,0,0,0-.67,1.53,1.26,1.26,0,0,0,1.53,1.52c.35-.09.65-.34,1-.42l-1.2-.33.2.22-.2-1.5c-.16.33-.46.56-.62.89-.31.64-.08,1.72.77,1.83a8.94,8.94,0,0,0,2.16-.3l-1.08-.64.15.26V98.19c-.27.64-.72,1.13-1,1.76a1.26,1.26,0,0,0,.89,1.53,4,4,0,0,0,2.12,0l-1.41-1.82c-.11.25-.29.45-.41.71a1.27,1.27,0,0,0,1.41,1.82c.27-.05.51-.18.78-.24l-1.4-1.82c-.17.35-.56.59-.73,1a1.27,1.27,0,0,0,1.4,1.82c.32-.06.59-.27.9-.33l-1.4-1.82c-.1.23-.26.42-.36.66a1.28,1.28,0,0,0,1.41,1.83c.34-.08.62-.3,1-.38l-1.52-1.52-.11.46a1.27,1.27,0,0,0,1.53,1.52c.31,0,.55-.24.86-.29l-1.41-1.82c-.18.33-.49.57-.67.91a1.25,1.25,0,0,0,.77,1.82l.41.06-.93-1.21c0,.22-.13.39-.21.64a1.26,1.26,0,0,0,.59,1.4c.86.58,1.24.13,2.1,0l-1.53-1.53c-.07.2-.22.4-.3.61a1.26,1.26,0,0,0,1.21,1.57,10.61,10.61,0,0,1,1.12-.11l-1.08-1.87c-.17.35-.56.58-.73.94-.37.75.08,2,1.09,1.87.23,0,.48-.13.7-.16l-1.09-1.87c-.14.26-.33.47-.46.73a1.26,1.26,0,0,0,1.08,1.87c.63-.06,1.15-.29,1.74-.37l-1.41-1.82c-.25.44-.8.71-1.07,1.18a1.27,1.27,0,0,0,1.09,1.87,8.2,8.2,0,0,0,1.72-.35l-1.41-1.83c-.47,1-1.23,1.2-.57,2.41a1.3,1.3,0,0,0,1.41.6c.39-.07.7-.37,1.08-.44L71,106.25c-.15.3-.44.51-.59.81a1.27,1.27,0,0,0,1.41,1.83c.27,0,.51-.16.78-.21l-1.41-1.82c-.12.28-.38.47-.51.75a1.27,1.27,0,0,0,1.09,1.87,16.05,16.05,0,0,0,1.85-.43l-1.41-1.83c-.26.48-.91.74-1.19,1.25a1.27,1.27,0,0,0,1.4,1.83c.37-.08.68-.32,1-.4L72,109c.09.27-.11.67-.16,1a1.28,1.28,0,0,0,1.53,1.53c.51-.11.92-.55,1.41-.66l-1.2-.32.19.23-.2-1.5c-.15.29-.43.49-.58.79-.39.76.09,2,1.09,1.87a3.27,3.27,0,0,0,.7-.08c.48-.18.5.29-.08-.27l-.32-1.2c-.17.46-.64.72-.88,1.15a1.26,1.26,0,0,0,1.08,1.87,8.27,8.27,0,0,0,.86,0l.22,0c.53-.16.5-.2-.08-.11l-.47-1.71c-.17.36-.33.71-.48,1.07a1.3,1.3,0,0,0,.47,1.71c.76.42,1.2.21,2,.1l-1.4-1.82c-.19.3-.51.53-.7.84a1.29,1.29,0,0,0,.47,1.71c-.74-.48.18.34.37.47a4.65,4.65,0,0,0,1.1.33c1.53.5,2.16-1.92.63-2.42Z" style="fill:#1c1b1f"/></svg>