<svg id="레이어_1" data-name="레이어 1" xmlns="http://www.w3.org/2000/svg" viewBox="0 0 62 180"><path d="M41.38,40.34l-.16-.07a2.17,2.17,0,0,0,0-.36,1.53,1.53,0,0,0,.22-1.26,1.55,1.55,0,0,0-.37-2.07.9.9,0,0,0,.06-.22l.05-.07a1.62,1.62,0,0,0,.54-1.15,1.59,1.59,0,0,0-.17-2.2,1.91,1.91,0,0,0-.08-.79,1.78,1.78,0,0,0,.07-1.22,1.56,1.56,0,0,0,.13-1.06,1.69,1.69,0,0,0,.35-.71A1.58,1.58,0,0,0,42,27.6a1.59,1.59,0,0,0-.25-1.77,1.6,1.6,0,0,0,0-1.9A1.61,1.61,0,0,0,42,22.74a1.58,1.58,0,0,0-.13-1.37,1.47,1.47,0,0,0-.12-.58,1.36,1.36,0,0,0-.33-1.48,1.49,1.49,0,0,0,.05-.36,1.59,1.59,0,0,0,.34-2.09,2.07,2.07,0,0,0-.6-1.28,1.53,1.53,0,0,0,.16-2.51,1.48,1.48,0,0,0,0-.47,1.56,1.56,0,0,0,.15-.41,1.53,1.53,0,0,0,.06-1.47,1.4,1.4,0,0,0,.17-1.81,1.56,1.56,0,0,0-.16-.2,1.58,1.58,0,0,0,0-1.26,1.78,1.78,0,0,0-.74-2.67,1.91,1.91,0,0,0-1-1.08,2.37,2.37,0,0,0-.62-.1,1.66,1.66,0,0,0-1.61-.11c.6-.27-.57,0-.51,0a3.48,3.48,0,0,0-.8.24,1.36,1.36,0,0,0-.72,1.75v0a1.53,1.53,0,0,0,.19,1.58,1.47,1.47,0,0,0-.12,1.34,1.52,1.52,0,0,0,.07,1.35,1.58,1.58,0,0,0,.14.91,1.47,1.47,0,0,0,.39,1.21,1.88,1.88,0,0,0-.05.62,1.44,1.44,0,0,0-.2,1.8,1.8,1.8,0,0,0,.41,1.77,1,1,0,0,0,0,.24,1.57,1.57,0,0,0-.14,1.93,1.77,1.77,0,0,0,.36,2.1.93.93,0,0,0,0,.1,1.83,1.83,0,0,0-.42.55,1.61,1.61,0,0,0-.28,1.73,1.5,1.5,0,0,0,.19.85,1.36,1.36,0,0,0,.49,1.46,1.36,1.36,0,0,0-.06.29l0,0a1.73,1.73,0,0,0-.08,2.25A1.61,1.61,0,0,0,36,29a1.86,1.86,0,0,0,.28,1,1.55,1.55,0,0,0,.14,1.19,1.53,1.53,0,0,0-.22,1.62,1.64,1.64,0,0,0-.45,1.31,1.45,1.45,0,0,0,.19,1.11,1.56,1.56,0,0,0,0,.93,1.55,1.55,0,0,0,.18,1.65,1.58,1.58,0,0,0-.11.71,1.69,1.69,0,0,0,.35,2.11,2,2,0,0,0,.81,1.61,1.91,1.91,0,0,0-.84,2,2,2,0,0,0-.43,1.15,1.54,1.54,0,0,0-.29,1.32,1.26,1.26,0,0,0,.49,1.54A1.4,1.4,0,0,0,36.51,50a2,2,0,0,0,.08.22,2.41,2.41,0,0,0-.22.42,1.84,1.84,0,0,0-.77.77,1.76,1.76,0,0,0,.26,2,1.45,1.45,0,0,0,.32.39,2.62,2.62,0,0,0-.24.53,1.34,1.34,0,0,0-.06.57,2.1,2.1,0,0,0-.27.72,1.5,1.5,0,0,0,.27,2.16,1.65,1.65,0,0,0,.11.36,1.7,1.7,0,0,0-.36,1.75,1.72,1.72,0,0,0,.06,1.28,1.6,1.6,0,0,0-.29,1.35,1.54,1.54,0,0,0,.1,1.73,1.59,1.59,0,0,0-.11,1.3A1.79,1.79,0,0,0,35,67a1.71,1.71,0,0,0-.12,1.73,1.34,1.34,0,0,0,.34.67,1.78,1.78,0,0,0,.1.52,1.69,1.69,0,0,0-.14,1.35A1.75,1.75,0,0,0,35,72.62,2.27,2.27,0,0,0,35,73a1.77,1.77,0,0,0-.57,2.18,1.75,1.75,0,0,0-.27,1.15,1.46,1.46,0,0,0,.65,1.9l0,.16a1.43,1.43,0,0,0-.46.85,1.71,1.71,0,0,0-.61,1.34,1.81,1.81,0,0,0,.44,1.93,1.92,1.92,0,0,0-.18.35,1.73,1.73,0,0,0-.65,1.71,1.54,1.54,0,0,0,.12,1.51,1.66,1.66,0,0,0,.13,1.88,1.71,1.71,0,0,0-.08.92l-.12.06a1.62,1.62,0,0,0-.58,2.22l.13.17A1.72,1.72,0,0,0,32.81,93s0,0,0,.07a1.7,1.7,0,0,0-.19,2,1.66,1.66,0,0,0-.36,1.47,1.72,1.72,0,0,0-.1,1.7,1.69,1.69,0,0,0,.17,1.06,1.34,1.34,0,0,0-.43.49,1.53,1.53,0,0,0-.41,1,1.59,1.59,0,0,0,0,1.77,1.56,1.56,0,0,0-.48.91,1.74,1.74,0,0,0-.06,1.9,1.9,1.9,0,0,0-.43,1.09v.19a1.12,1.12,0,0,0,0,.41,1.73,1.73,0,0,0,0,.68,1.7,1.7,0,0,0-.72,1.51,1.64,1.64,0,0,0-.1.78,2,2,0,0,0-.07.41,1.84,1.84,0,0,0,.09.68,1.56,1.56,0,0,0-.63,1.7,1.55,1.55,0,0,0-.38,1.14,1.85,1.85,0,0,0,0,1.81,1.93,1.93,0,0,0,0,1.36,1.53,1.53,0,0,0-.52,1.83l0,.1a1.55,1.55,0,0,0-.73,1.92s0,.06,0,.09a1.6,1.6,0,0,0-.09.84,1.53,1.53,0,0,0-.69,2.22,1.56,1.56,0,0,0-.14.91,1.55,1.55,0,0,0-.38,1.64,1.83,1.83,0,0,0-.53,1.84,1.53,1.53,0,0,0-.46,1.87,1.86,1.86,0,0,0-.77,1.16,1.36,1.36,0,0,0-.38,1l0,.24a2.05,2.05,0,0,0-.2.39,1.54,1.54,0,0,0-.38,2,1.86,1.86,0,0,0-.64,1,1.41,1.41,0,0,0-.19,1.78,1.53,1.53,0,0,0-.26,2.32,2.44,2.44,0,0,0,.1.24h0a1.45,1.45,0,0,0-.91.8,1.77,1.77,0,0,0-.63,1.27,1.73,1.73,0,0,0-.54,1.09,1.92,1.92,0,0,0-.25.38,1.75,1.75,0,0,0-.61,1.35,1.36,1.36,0,0,0,.23,1.21,1.68,1.68,0,0,0-1,1.48,2,2,0,0,0-.71.7,1.54,1.54,0,0,0-.17,1.19,1.82,1.82,0,0,0-.3.7,1.71,1.71,0,0,0-.7,2,1.48,1.48,0,0,0,0,.63,1.69,1.69,0,0,0-.68,1.06,1.62,1.62,0,0,0-.76.77,1.69,1.69,0,0,0-.28,2.06A1.6,1.6,0,0,0,14,159.49a1.28,1.28,0,0,0-1,1.18,1.68,1.68,0,0,0-.72,1.4,1.71,1.71,0,0,0-.58,1.4,2.23,2.23,0,0,0-.48.71,1.74,1.74,0,0,0-.64,1.87,1.55,1.55,0,0,0-1.12,1.86,1.39,1.39,0,0,0-.63.87.35.35,0,0,1-.05.08A1.87,1.87,0,0,0,8.37,171a1.48,1.48,0,0,0-.3.26h0a1.82,1.82,0,0,0-1.66,1.57,1.72,1.72,0,0,0,1.12,2.87c.32,0,.38.14.67.22a2.48,2.48,0,0,0,1.08,0,2.71,2.71,0,0,0,.8.33c1,.18,2.26-.73,2.1-1.76a1.58,1.58,0,0,0,1.23-1.7,1.87,1.87,0,0,0,.74-1.28,1.46,1.46,0,0,0,.33-.37,1.37,1.37,0,0,0,.34-.34,1.68,1.68,0,0,0,.47-1.88,1.07,1.07,0,0,0,.19-.18,1.59,1.59,0,0,0,.36-1.67,1.53,1.53,0,0,0,.79-1.15,2.16,2.16,0,0,0,.62-.26A1.57,1.57,0,0,0,18,163.9a2.05,2.05,0,0,0,.05-.55,1.24,1.24,0,0,0,.16-.3,1.61,1.61,0,0,0,1.15-1.78,1.89,1.89,0,0,0,0-.67,1.71,1.71,0,0,0,.3-.74l.19-.11a1.61,1.61,0,0,0,.79-1.54,1.62,1.62,0,0,0,1-1.44,1.77,1.77,0,0,0,.14-1.44l.08-.09a1.7,1.7,0,0,0,.91-1.91,1.64,1.64,0,0,0,1-1.36,1.55,1.55,0,0,0,0-1.48A1.77,1.77,0,0,0,24,150,1.73,1.73,0,0,0,25,148.5a1.6,1.6,0,0,0,.25-2.25,1.71,1.71,0,0,0,1.24-2,1.68,1.68,0,0,0-.08-1.08,2.06,2.06,0,0,0,.26-.25,1.67,1.67,0,0,0,.68-2.23,1.49,1.49,0,0,0,.56-1.6,1.6,1.6,0,0,0,.37-1.17,2.1,2.1,0,0,0,.52-.51,1.56,1.56,0,0,0,.42-1.84,1.61,1.61,0,0,0,.71-2.08,1.49,1.49,0,0,0,.48-.76l0-.19a1.87,1.87,0,0,0,0-.91,1.53,1.53,0,0,0,0-.59s0,0,0,0a1.58,1.58,0,0,0,.65-2.52l0-.06.06-.19a1.58,1.58,0,0,0,.06-.45,1.84,1.84,0,0,0,.73-1.32,1.79,1.79,0,0,0,0-.86,1.53,1.53,0,0,0,.28-1.11,1.81,1.81,0,0,0,0-1.8,1.47,1.47,0,0,0,.14-.28A1.63,1.63,0,0,0,33.5,121v-.09a1.64,1.64,0,0,0-.27-1.47s0-.06,0-.09a1.82,1.82,0,0,0,.07-.25,1.89,1.89,0,0,0,.38-1.09s0,0,0,0a1.41,1.41,0,0,0,.88-1.89,1.82,1.82,0,0,0-.14-.89,1.58,1.58,0,0,0,0-2.2,1.53,1.53,0,0,0,.71-.85,1.52,1.52,0,0,0,.77-1.66,1.71,1.71,0,0,0,.2-1.62,1.41,1.41,0,0,0-.07-.45,2.17,2.17,0,0,0,0-.36,1.51,1.51,0,0,0,.45-1.27,1.74,1.74,0,0,0,.18-1.25,1.78,1.78,0,0,0,0-1.65,1.57,1.57,0,0,0-.05-.37,1.94,1.94,0,0,0-.13-.71,1.58,1.58,0,0,0,1-2.17,1.62,1.62,0,0,0,.06-.82,1.73,1.73,0,0,0,.16-.67A1.77,1.77,0,0,0,38,97.7a1.82,1.82,0,0,0-.13-1.37,2.64,2.64,0,0,0,0-.28,1.73,1.73,0,0,0,.56-1.65,1.81,1.81,0,0,0,.27-.71,1.68,1.68,0,0,0,.14-.8,128,128,0,0,1,0-1.77,1.72,1.72,0,0,0,.26-1.41,1.92,1.92,0,0,0-.21-1l.12-.22A1.76,1.76,0,0,0,39.46,87a1.7,1.7,0,0,0,0-1.49,1.36,1.36,0,0,0,.06-.29,1.81,1.81,0,0,0,.32-1.63s0-.05,0-.08a1.56,1.56,0,0,0-.35-1.69A1.75,1.75,0,0,0,40,80.22a1.85,1.85,0,0,0,.22-.85,1.66,1.66,0,0,0,.11-1.73,1.4,1.4,0,0,0-.42-.93,1.23,1.23,0,0,0,.19-.31,1.83,1.83,0,0,0,.44-1.54,1.56,1.56,0,0,0-.6-2.11l-.17-.08a1.62,1.62,0,0,0,.14-1.27,1.3,1.3,0,0,0,.08-.34,1.42,1.42,0,0,0,.33-.84,1.84,1.84,0,0,0,.17-.68,1.83,1.83,0,0,0,.18-.59,1.75,1.75,0,0,0,.45-2,1.58,1.58,0,0,0,0-.43,1.56,1.56,0,0,0,0-1.41,1.28,1.28,0,0,0,.17-.73,2.05,2.05,0,0,0-.51-1.34,1.53,1.53,0,0,0-.07-.71l0-.08a1.51,1.51,0,0,0-.09-1.1,1.82,1.82,0,0,0-.19-.7,2.2,2.2,0,0,0,.1-.56,1.39,1.39,0,0,0,.17-1.24.69.69,0,0,1-.05-.13,1.7,1.7,0,0,0,.69-2.73,1.86,1.86,0,0,0,.07-.34,1.69,1.69,0,0,0,.2-2,4.12,4.12,0,0,0-.17-1,1.74,1.74,0,0,0,.17-.81c.05-.09.11-.17.16-.27a1.79,1.79,0,0,0,0-1.68,1.82,1.82,0,0,0,.06-1.28,1.31,1.31,0,0,0-.63-1.13,1.58,1.58,0,0,0,.11-.37,1.6,1.6,0,0,0,0-1.53,1.8,1.8,0,0,0,.23-1,.39.39,0,0,0,.06-.11,1.54,1.54,0,0,0,.27-1.58,1.37,1.37,0,0,0,.07-.34A1.39,1.39,0,0,0,41.38,40.34ZM8,175.36c-.2,0-.13,0,0,0Z" style="fill:#1c1b1f"/></svg>